<?xml version="1.0" encoding="UTF-8"?>
<!DOCTYPE svg PUBLIC "-//W3C//DTD SVG 1.1//EN" "http://www.w3.org/Graphics/SVG/1.1/DTD/svg11.dtd">
<!-- Creator: Embird 2022 Build 10.66 (32-bit) on 19.02.2022 at 10:33:16 -->
<svg xmlns="http://www.w3.org/2000/svg" xml:space="preserve" width="49.9000mm" height="49.3000mm" style="shape-rendering:geometricPrecision; text-rendering:geometricPrecision; image-rendering:optimizeQuality; fill-rule:evenodd; clip-rule:evenodd"
viewBox="0.0000 0.0000 49.9000 49.3000"
 xmlns:xlink="http://www.w3.org/1999/xlink">
 <g id="Layer_x0020_1">
  <metadata id="EmbirdID_0Embird-Layer"/>
  <path d="M17.8000,43.2000 L17.7000,43.3000 L20.0000,44.7000 L18.0000,43.0000 L20.0000,44.7000 L18.2000,42.8000 L20.2000,44.4000 L18.3000,42.6000 L20.4000,44.1000 L18.5000,42.3000 L20.6000,43.8000 L18.6000,42.1000 L20.9000,43.5000 L18.8000,41.9000 L21.1000,43.2000 L19.0000,41.7000 L21.3000,42.9000 L19.1000,41.5000 L21.5000,42.6000 L19.2000,41.2000 L21.6000,42.3000 L19.3000,41.0000 L21.8000,42.0000 L19.4000,40.8000 L21.9000,41.7000 L19.6000,40.5000 L22.1000,41.4000 L19.7000,40.3000 L22.2000,41.1000 L19.7000,40.1000 L22.3000,40.7000 L19.8000,39.8000 L22.4000,40.4000 L19.9000,39.6000 L22.5000,40.0000 L20.0000,39.3000 L22.6000,39.7000 L20.1000,39.1000 L22.7000,39.3000 L20.1000,38.9000 L22.8000,39.0000 L20.1000,38.7000 L22.8000,38.7000 L20.2000,38.4000 L22.9000,38.4000 L20.2000,38.2000 L22.9000,38.1000 L20.4000,38.0000 L22.9000,37.7000 L20.5000,37.7000 L22.9000,37.3000 L20.7000,37.5000 L22.9000,36.9000 L20.8000,37.2000 L22.9000,36.6000 L21.0000,36.9000 L22.9000,36.2000 L21.2000,36.5000 L22.9000,35.9000 L21.4000,36.1000 L22.9000,35.5000 L21.5000,35.8000 L22.8000,35.2000 L21.6000,35.5000 L22.8000,34.9000 L21.6000,35.2000 L22.7000,34.5000 L21.7000,34.9000 L22.6000,34.2000 L21.7000,34.6000 L22.5000,33.9000 L21.7000,34.2000 L22.5000,33.6000 L21.8000,33.9000 L22.4000,33.4000 L21.9000,33.5000 L22.3000,33.2000 L21.9000,33.2000 L22.2000,32.9000 L22.0000,32.9000 L22.1000,32.7000 L22.0000,32.5000 L22.0000,32.4000 L22.0000,32.8000 L21.8000,32.7000 L21.9000,33.2000 L21.6000,33.0000 L21.9000,33.5000 L21.3000,33.3000 L21.8000,33.8000 L21.1000,33.7000 L21.8000,34.1000 L20.9000,34.0000 L21.8000,34.4000 L20.6000,34.2000 L21.7000,34.8000 L20.4000,34.5000 L21.7000,35.1000 L20.1000,34.8000 L21.6000,35.4000 L19.9000,35.0000 L21.5000,35.7000 L19.6000,35.2000 L21.4000,36.1000 L19.4000,35.4000 L21.3000,36.4000 L19.2000,35.6000 L21.1000,36.7000 L19.0000,35.8000 L21.0000,37.0000 L18.8000,36.0000 L20.8000,37.3000 L18.5000,36.2000 L20.6000,37.6000 L18.3000,36.4000 L20.5000,37.9000 L18.1000,36.6000 L20.3000,38.3000 L17.8000,36.8000 L19.9000,38.5000 L17.6000,36.9000 L19.6000,38.7000 L17.4000,37.0000 L19.3000,38.9000 L17.2000,37.1000 L19.0000,39.1000 L17.0000,37.3000 L18.7000,39.3000 L16.8000,37.4000 L18.4000,39.5000 L16.6000,37.5000 L18.0000,39.7000 L16.4000,37.6000 L17.7000,39.9000 L16.2000,37.7000 L17.4000,40.0000 L16.0000,37.8000 L17.1000,40.2000 L15.8000,37.9000 L16.8000,40.3000 L15.5000,38.0000 L16.5000,40.5000 L15.3000,38.1000 L16.2000,40.7000 L15.1000,38.2000 L15.8000,40.8000 L14.9000,38.3000 L15.5000,40.9000 L14.6000,38.4000 L15.2000,41.0000 L14.4000,38.5000 L14.9000,41.1000 L14.1000,38.6000 L14.5000,41.3000 L13.9000,38.7000 L14.2000,41.4000 L13.6000,38.8000 L13.9000,41.5000 L13.3000,38.9000 L13.5000,41.6000 L13.1000,39.0000 L13.2000,41.6000 L12.8000,39.0000 L12.9000,41.7000 L12.5000,39.1000 L12.5000,41.8000 L12.2000,39.2000 L12.2000,41.8000 L11.9000,39.2000 L11.8000,41.9000 L11.6000,39.3000 L11.5000,42.0000 L11.3000,39.4000 L11.1000,42.0000 L11.0000,39.4000 L10.7000,42.0000 L10.7000,39.4000 L10.4000,42.1000 L10.3000,39.4000 L10.0000,42.1000 L10.0000,39.5000 L9.6000,42.1000 L9.7000,39.5000 L9.2000,42.2000 L9.3000,39.5000 L8.8000,42.2000 L9.0000,39.5000 L8.5000,42.2000 L8.7000,39.5000 L8.1000,42.1000 L8.5000,39.5000 L7.8000,42.1000 L8.3000,39.5000 L7.4000,42.0000 L8.0000,39.5000 L7.0000,42.0000 L7.8000,39.5000 L6.7000,42.0000 L7.5000,39.4000 L6.3000,41.8000 L7.3000,39.3000 L6.0000,41.7000 L7.0000,39.3000 L5.7000,41.6000 L6.7000,39.2000 L5.3000,41.4000 L6.5000,39.1000 L5.0000,41.3000 L6.2000,39.0000 L4.7000,41.2000 L5.9000,38.9000 L4.4000,41.0000 L5.7000,38.7000 L4.0000,40.7000 L5.5000,38.6000 L3.7000,40.5000 L5.3000,38.4000 L3.4000,40.3000 L5.1000,38.3000 L3.1000,40.1000 L4.9000,38.2000 L2.8000,39.9000 L4.7000,38.0000 L2.6000,39.6000 L4.5000,37.8000 L2.3000,39.3000 L4.4000,37.7000 L2.1000,39.1000 L4.2000,37.5000 L1.9000,38.8000 L4.1000,37.3000 L1.7000,38.6000 L3.9000,37.2000 L1.4000,38.3000 L3.7000,37.0000 L1.3000,38.0000 L3.6000,36.8000 L1.1000,37.6000 L3.5000,36.5000 L0.9000,37.3000 L3.3000,36.3000 L0.8000,37.0000 L3.2000,36.0000 L0.6000,36.6000 L3.1000,35.8000 L0.4000,36.3000 L2.9000,35.6000 L0.4000,36.0000 L2.9000,35.3000 L0.3000,35.6000 L2.8000,35.1000 L0.2000,35.2000 L2.8000,34.8000 L0.1000,34.9000 L2.7000,34.6000 L0.0000,34.5000 L2.6000,34.3000 L0.0000,34.2000 L2.6000,34.0000 L0.0000,33.8000 L2.6000,33.8000 L0.0000,33.4000 L2.6000,33.5000 L0.0000,33.0000 L2.6000,33.2000 L0.0000,32.7000 L2.6000,32.9000 L0.0000,32.3000 L2.6000,32.6000 L0.1000,31.9000 L2.7000,32.3000 L0.1000,31.5000 L2.7000,32.0000 L0.2000,31.2000 L2.8000,31.7000 L0.3000,30.8000 L2.9000,31.4000 L0.4000,30.4000 L3.0000,31.1000 L0.5000,30.2000 L3.2000,30.7000 L0.6000,29.9000 L3.3000,30.4000 L0.8000,29.6000 L3.5000,30.1000 L0.9000,29.3000 L3.7000,29.7000 L1.0000,29.2000 L3.9000,29.5000 L1.1000,29.0000 L4.2000,29.2000 L1.2000,28.8000 L4.4000,29.0000 L1.3000,28.6000 L4.6000,28.7000 L1.4000,28.5000 L4.8000,28.5000 L1.3000,28.3000 L4.6000,28.3000 L1.2000,28.2000 L4.4000,28.0000 L1.1000,28.0000 L4.1000,27.8000 L1.0000,27.8000 L3.9000,27.5000 L0.9000,27.7000 L3.7000,27.3000 L0.7000,27.3000 L3.5000,27.0000 L0.6000,27.0000 L3.3000,26.7000 L0.5000,26.7000 L3.2000,26.4000 L0.3000,26.4000 L3.0000,26.1000 L0.3000,26.0000 L2.9000,25.7000 L0.2000,25.7000 L2.8000,25.4000 L0.1000,25.3000 L2.8000,25.1000 L0.0000,24.9000 L2.7000,24.8000 L0.0000,24.6000 L2.6000,24.4000 L0.0000,24.3000 L2.6000,24.2000 L0.0000,23.9000 L2.6000,23.9000 L0.0000,23.6000 L2.6000,23.7000 L0.0000,23.2000 L2.6000,23.4000 L0.0000,22.9000 L2.6000,23.2000 L0.0000,22.6000 L2.6000,22.9000 L0.1000,22.2000 L2.7000,22.6000 L0.1000,21.9000 L2.7000,22.3000 L0.2000,21.5000 L2.8000,22.1000 L0.3000,21.2000 L2.8000,21.8000 L0.4000,20.9000 L2.9000,21.6000 L0.5000,20.6000 L3.0000,21.3000 L0.7000,20.3000 L3.2000,21.1000 L0.8000,19.9000 L3.3000,20.9000 L0.9000,19.6000 L3.4000,20.6000 L1.1000,19.3000 L3.5000,20.4000 L1.3000,19.0000 L3.6000,20.2000 L1.5000,18.7000 L3.8000,20.0000 L1.7000,18.4000 L3.9000,19.8000 L1.9000,18.1000 L4.1000,19.6000 L2.1000,17.8000 L4.2000,19.4000 L2.4000,17.6000 L4.4000,19.2000 L2.7000,17.3000 L4.6000,19.1000 L3.0000,17.1000 L4.8000,18.9000 L3.3000,16.8000 L5.0000,18.8000 L3.6000,16.6000 L5.3000,18.6000 L3.9000,16.4000 L5.5000,18.4000 L4.2000,16.1000 L5.7000,18.3000 L4.5000,16.0000 L5.9000,18.2000 L4.8000,15.8000 L6.1000,18.1000 L5.1000,15.7000 L6.4000,18.0000 L5.4000,15.6000 L6.6000,17.9000 L5.7000,15.4000 L6.8000,17.8000 L6.0000,15.3000 L7.0000,17.7000 L6.3000,15.2000 L7.3000,17.6000 L6.7000,15.1000 L7.5000,17.6000 L7.0000,15.1000 L7.8000,17.6000 L7.4000,15.0000 L8.0000,17.5000 L7.7000,14.9000 L8.3000,17.5000 L8.1000,14.9000 L8.5000,17.4000 L8.4000,14.9000 L8.9000,17.5000 L8.7000,14.9000 L9.3000,17.5000 L9.1000,14.8000 L9.7000,17.5000 L9.4000,14.8000 L10.1000,17.5000 L9.7000,14.9000 L10.4000,17.6000 L9.9000,14.9000 L10.8000,17.6000 L10.2000,14.9000 L11.2000,17.7000 L10.5000,14.9000 L11.5000,17.7000 L10.7000,14.9000 L11.9000,17.8000 L11.0000,15.2000 L12.1000,17.8000 L11.3000,15.4000 L12.4000,17.9000 L11.6000,15.7000 L12.6000,18.0000 L11.9000,15.9000 L12.8000,18.0000 L12.2000,16.2000 L13.0000,18.1000 L12.4000,16.4000 L13.2000,18.2000 L12.7000,16.7000 L13.5000,18.3000 L13.0000,16.9000 L13.7000,18.3000 L13.3000,17.2000 L13.9000,18.4000 L13.6000,17.4000 L14.1000,18.5000 L13.9000,17.7000 L14.3000,18.5000 L14.2000,17.9000 L14.6000,18.6000 L14.5000,18.2000 L14.8000,18.7000 L14.8000,18.4000 L15.0000,18.7000 L15.2000,18.8000 L14.8000,18.4000 L15.1000,18.6000 L14.5000,18.2000 L15.0000,18.4000 L14.2000,17.9000 L14.9000,18.1000 L13.9000,17.7000 L14.8000,17.9000 L13.6000,17.4000 L14.7000,17.6000 L13.3000,17.2000 L14.6000,17.4000 L13.0000,16.9000 L14.4000,17.2000 L12.7000,16.7000 L14.3000,16.9000 L12.4000,16.4000 L14.2000,16.7000 L12.1000,16.2000 L14.1000,16.5000 L11.8000,15.9000 L14.0000,16.2000 L11.6000,15.7000 L13.9000,16.0000 L11.3000,15.4000 L13.8000,15.8000 L11.0000,15.2000 L13.7000,15.5000 L10.7000,15.0000 L13.5000,15.3000 L10.6000,14.7000 L13.5000,15.0000 L10.6000,14.4000 L13.4000,14.7000 L10.5000,14.1000 L13.3000,14.4000 L10.4000,13.8000 L13.2000,14.1000 L10.4000,13.5000 L13.1000,13.8000 L10.3000,13.1000 L13.0000,13.4000 L10.2000,12.8000 L13.0000,13.0000 L10.2000,12.4000 L12.9000,12.6000 L10.1000,12.0000 L12.8000,12.3000 L10.1000,11.7000 L12.8000,11.9000 L10.1000,11.3000 L12.7000,11.5000 L10.0000,10.9000 L12.7000,11.2000 L10.0000,10.5000 L12.7000,10.8000 L10.0000,10.2000 L12.7000,10.4000 L10.0000,9.8000 L12.6000,10.1000 L10.0000,9.4000 L12.6000,9.7000 L10.0000,9.1000 L12.6000,9.4000 L10.1000,8.7000 L12.7000,9.1000 L10.1000,8.4000 L12.7000,8.8000 L10.1000,8.0000 L12.7000,8.5000 L10.2000,7.7000 L12.7000,8.3000 L10.3000,7.3000 L12.8000,8.0000 L10.4000,7.0000 L12.9000,7.8000 L10.5000,6.6000 L13.0000,7.5000 L10.7000,6.3000 L13.1000,7.3000 L10.8000,5.9000 L13.2000,7.0000 L10.9000,5.6000 L13.2000,6.8000 L11.0000,5.2000 L13.3000,6.5000 L11.2000,4.9000 L13.5000,6.3000 L11.4000,4.6000 L13.6000,6.1000 L11.6000,4.3000 L13.8000,5.8000 L11.8000,4.0000 L13.9000,5.6000 L12.1000,3.7000 L14.1000,5.4000 L12.3000,3.4000 L14.2000,5.1000 L12.5000,3.1000 L14.4000,4.9000 L12.8000,2.9000 L14.6000,4.7000 L13.1000,2.6000 L14.9000,4.5000 L13.4000,2.4000 L15.1000,4.3000 L13.7000,2.1000 L15.3000,4.1000 L14.0000,1.9000 L15.5000,4.0000 L14.3000,1.6000 L15.8000,3.8000 L14.6000,1.4000 L16.0000,3.6000 L14.9000,1.2000 L16.2000,3.5000 L15.2000,1.1000 L16.5000,3.4000 L15.5000,1.0000 L16.7000,3.3000 L15.8000,0.8000 L17.0000,3.2000 L16.1000,0.7000 L17.2000,3.1000 L16.5000,0.5000 L17.4000,3.0000 L16.8000,0.4000 L17.7000,2.9000 L17.1000,0.3000 L17.9000,2.8000 L17.5000,0.2000 L18.1000,2.8000 L17.8000,0.2000 L18.4000,2.7000 L18.2000,0.1000 L18.6000,2.7000 L18.5000,0.1000 L18.8000,2.7000 L18.9000,0.0000 L19.0000,2.6000 L19.3000,0.0000 L19.3000,2.6000 L19.7000,0.0000 L19.6000,2.6000 L20.1000,0.0000 L19.9000,2.6000 L20.4000,0.0000 L20.2000,2.6000 L20.8000,0.0000 L20.5000,2.6000 L21.2000,0.1000 L20.8000,2.7000 L21.5000,0.2000 L21.2000,2.8000 L21.8000,0.3000 L21.5000,2.9000 L22.2000,0.3000 L21.9000,3.0000 L22.5000,0.4000 L22.3000,3.1000 L22.8000,0.5000 L22.5000,3.3000 L23.0000,0.6000 L22.8000,3.4000 L23.3000,0.7000 L23.1000,3.6000 L23.6000,0.8000 L23.4000,3.7000 L23.8000,1.0000 L23.7000,3.9000 L24.0000,1.1000 L23.9000,4.1000 L24.3000,1.2000 L24.2000,4.3000 L24.5000,1.3000 L24.4000,4.6000 L24.7000,1.4000 L24.7000,4.8000 L24.9000,1.6000 L24.9000,5.0000 L25.1000,1.4000 L25.2000,4.8000 L25.4000,1.3000 L25.4000,4.5000 L25.6000,1.1000 L25.7000,4.3000 L25.8000,1.0000 L26.0000,4.0000 L26.1000,0.9000 L26.3000,3.8000 L26.4000,0.8000 L26.6000,3.6000 L26.7000,0.6000 L26.9000,3.4000 L27.0000,0.5000 L27.2000,3.2000 L27.4000,0.4000 L27.5000,3.1000 L27.7000,0.3000 L27.9000,3.0000 L28.0000,0.3000 L28.2000,2.9000 L28.3000,0.2000 L28.5000,2.8000 L28.6000,0.1000 L28.8000,2.7000 L28.9000,0.1000 L29.1000,2.7000 L29.3000,0.0000 L29.4000,2.7000 L29.6000,0.0000 L29.7000,2.6000 L30.0000,0.0000 L30.0000,2.6000 L30.3000,0.0000 L30.3000,2.6000 L30.7000,0.0000 L30.6000,2.6000 L31.1000,0.1000 L30.9000,2.7000 L31.5000,0.1000 L31.2000,2.7000 L31.9000,0.1000 L31.6000,2.8000 L32.3000,0.2000 L31.9000,2.8000 L32.6000,0.3000 L32.1000,2.9000 L32.9000,0.4000 L32.3000,2.9000 L33.2000,0.5000 L32.5000,3.0000 L33.6000,0.6000 L32.7000,3.1000 L33.9000,0.7000 L32.9000,3.2000 L34.2000,0.8000 L33.2000,3.3000 L34.5000,1.0000 L33.3000,3.4000 L34.8000,1.2000 L33.5000,3.5000 L35.2000,1.4000 L33.7000,3.6000 L35.5000,1.6000 L33.9000,3.7000 L35.8000,1.8000 L34.1000,3.8000 L36.1000,2.0000 L34.3000,3.9000 L36.4000,2.3000 L34.5000,4.1000 L36.7000,2.5000 L34.7000,4.3000 L36.9000,2.8000 L35.0000,4.5000 L37.2000,3.0000 L35.2000,4.7000 L37.5000,3.3000 L35.4000,4.9000 L37.7000,3.6000 L35.6000,5.1000 L37.9000,3.9000 L35.7000,5.4000 L38.1000,4.2000 L35.9000,5.6000 L38.4000,4.5000 L36.1000,5.8000 L38.6000,4.9000 L36.2000,6.1000 L38.7000,5.2000 L36.3000,6.3000 L38.9000,5.5000 L36.4000,6.5000 L39.0000,5.8000 L36.5000,6.7000 L39.1000,6.1000 L36.6000,6.9000 L39.3000,6.5000 L36.7000,7.2000 L39.4000,6.8000 L36.8000,7.4000 L39.5000,7.2000 L36.9000,7.7000 L39.6000,7.6000 L37.0000,8.0000 L39.6000,7.9000 L37.0000,8.3000 L39.7000,8.3000 L37.1000,8.5000 L39.8000,8.7000 L37.2000,8.8000 L39.8000,9.1000 L37.2000,9.2000 L39.8000,9.5000 L37.2000,9.5000 L39.8000,9.9000 L37.2000,9.8000 L39.8000,10.3000 L37.2000,10.2000 L39.8000,10.7000 L37.2000,10.5000 L39.8000,11.0000 L37.1000,10.8000 L39.7000,11.3000 L37.1000,11.2000 L39.7000,11.7000 L37.1000,11.5000 L39.7000,12.0000 L37.0000,11.8000 L39.6000,12.3000 L37.0000,12.1000 L39.6000,12.6000 L36.9000,12.4000 L39.5000,12.9000 L36.9000,12.8000 L39.5000,13.2000 L36.8000,13.1000 L39.5000,13.4000 L36.8000,13.4000 L39.4000,13.7000 L36.7000,13.7000 L39.3000,14.0000 L36.6000,14.1000 L39.3000,14.3000 L36.5000,14.5000 L39.2000,14.6000 L36.4000,14.9000 L39.1000,14.9000 L36.3000,15.3000 L38.8000,15.2000 L36.1000,15.5000 L38.5000,15.4000 L36.0000,15.7000 L38.2000,15.7000 L35.9000,16.0000 L38.0000,15.9000 L35.8000,16.2000 L37.7000,16.2000 L35.7000,16.4000 L37.4000,16.4000 L35.6000,16.7000 L37.1000,16.7000 L35.5000,16.9000 L36.8000,16.9000 L35.4000,17.2000 L36.5000,17.2000 L35.3000,17.4000 L36.2000,17.4000 L35.1000,17.6000 L35.9000,17.7000 L35.0000,17.9000 L35.6000,17.9000 L34.9000,18.1000 L35.4000,18.2000 L34.8000,18.3000 L35.1000,18.4000 L34.7000,18.6000 L34.8000,18.7000 L34.6000,18.8000 L35.1000,18.4000 L34.9000,18.7000 L35.4000,18.2000 L35.1000,18.7000 L35.6000,17.9000 L35.4000,18.6000 L35.9000,17.7000 L35.7000,18.5000 L36.2000,17.4000 L35.9000,18.4000 L36.5000,17.2000 L36.2000,18.3000 L36.8000,16.9000 L36.5000,18.2000 L37.1000,16.7000 L36.7000,18.2000 L37.4000,16.4000 L37.0000,18.1000 L37.7000,16.2000 L37.3000,18.0000 L37.9000,15.9000 L37.5000,17.9000 L38.2000,15.7000 L37.8000,17.8000 L38.5000,15.4000 L38.1000,17.8000 L38.8000,15.2000 L38.4000,17.7000 L39.1000,14.9000 L38.6000,17.6000 L39.4000,14.9000 L39.0000,17.6000 L39.7000,14.9000 L39.4000,17.5000 L40.1000,14.9000 L39.8000,17.5000 L40.4000,14.8000 L40.2000,17.5000 L40.7000,14.8000 L40.6000,17.5000 L41.0000,14.9000 L40.9000,17.5000 L41.4000,14.9000 L41.1000,17.5000 L41.7000,14.9000 L41.4000,17.5000 L42.1000,14.9000 L41.7000,17.5000 L42.4000,14.9000 L42.0000,17.5000 L42.8000,15.1000 L42.3000,17.6000 L43.2000,15.2000 L42.5000,17.7000 L43.6000,15.3000 L42.8000,17.7000 L44.0000,15.4000 L43.0000,17.8000 L44.4000,15.5000 L43.3000,17.9000 L44.6000,15.6000 L43.4000,18.0000 L44.9000,15.8000 L43.6000,18.0000 L45.2000,16.0000 L43.8000,18.1000 L45.5000,16.1000 L44.0000,18.2000 L45.8000,16.3000 L44.2000,18.3000 L46.1000,16.4000 L44.4000,18.4000 L46.4000,16.7000 L44.6000,18.6000 L46.7000,17.0000 L44.8000,18.7000 L47.0000,17.2000 L45.0000,18.9000 L47.3000,17.5000 L45.2000,19.1000 L47.6000,17.7000 L45.4000,19.2000 L47.8000,18.0000 L45.6000,19.5000 L48.0000,18.4000 L45.7000,19.7000 L48.3000,18.7000 L45.9000,19.9000 L48.5000,19.0000 L46.1000,20.1000 L48.7000,19.3000 L46.3000,20.3000 L48.9000,19.6000 L46.4000,20.6000 L49.0000,20.0000 L46.5000,20.9000 L49.2000,20.3000 L46.7000,21.2000 L49.3000,20.7000 L46.8000,21.5000 L49.4000,21.0000 L46.9000,21.7000 L49.6000,21.4000 L47.0000,22.0000 L49.6000,21.7000 L47.1000,22.3000 L49.7000,22.1000 L47.1000,22.5000 L49.8000,22.4000 L47.2000,22.8000 L49.8000,22.8000 L47.2000,23.0000 L49.9000,23.1000 L47.2000,23.3000 L49.8000,23.5000 L47.2000,23.5000 L49.8000,23.8000 L47.2000,23.8000 L49.8000,24.1000 L47.2000,24.1000 L49.8000,24.5000 L47.2000,24.3000 L49.8000,24.8000 L47.2000,24.6000 L49.7000,25.1000 L47.1000,24.9000 L49.7000,25.5000 L47.0000,25.1000 L49.6000,25.8000 L47.0000,25.4000 L49.5000,26.1000 L46.9000,25.7000 L49.5000,26.4000 L46.8000,26.0000 L49.4000,26.7000 L46.6000,26.3000 L49.2000,27.0000 L46.5000,26.6000 L49.1000,27.2000 L46.3000,26.9000 L49.0000,27.5000 L46.2000,27.2000 L48.9000,27.7000 L45.9000,27.5000 L48.8000,27.9000 L45.7000,27.7000 L48.7000,28.1000 L45.4000,28.0000 L48.6000,28.3000 L45.2000,28.3000 L48.5000,28.5000 L45.0000,28.5000 L48.6000,28.7000 L45.2000,28.8000 L48.7000,29.0000 L45.5000,29.0000 L48.9000,29.2000 L45.8000,29.3000 L49.0000,29.5000 L46.0000,29.6000 L49.1000,29.8000 L46.2000,29.9000 L49.2000,30.1000 L46.4000,30.2000 L49.4000,30.4000 L46.6000,30.5000 L49.5000,30.7000 L46.7000,30.8000 L49.6000,31.1000 L46.8000,31.2000 L49.6000,31.4000 L47.0000,31.6000 L49.7000,31.8000 L47.1000,32.0000 L49.8000,32.2000 L47.2000,32.3000 L49.8000,32.5000 L47.2000,32.6000 L49.8000,32.8000 L47.2000,32.9000 L49.9000,33.1000 L47.2000,33.2000 L49.9000,33.4000 L47.2000,33.5000 L49.8000,33.8000 L47.2000,33.7000 L49.8000,34.1000 L47.2000,34.0000 L49.8000,34.4000 L47.2000,34.2000 L49.7000,34.7000 L47.1000,34.5000 L49.7000,35.1000 L47.1000,34.8000 L49.6000,35.4000 L47.0000,35.0000 L49.5000,35.8000 L46.9000,35.3000 L49.4000,36.1000 L46.8000,35.5000 L49.3000,36.5000 L46.7000,35.8000 L49.2000,36.8000 L46.7000,36.0000 L49.0000,37.2000 L46.5000,36.3000 L48.8000,37.5000 L46.4000,36.5000 L48.6000,37.9000 L46.2000,36.7000 L48.4000,38.2000 L46.1000,36.9000 L48.2000,38.6000 L46.0000,37.1000 L47.9000,38.9000 L45.8000,37.3000 L47.6000,39.1000 L45.6000,37.5000 L47.3000,39.4000 L45.4000,37.7000 L47.1000,39.7000 L45.3000,37.9000 L46.8000,40.0000 L45.1000,38.0000 L46.5000,40.3000 L44.9000,38.2000 L46.2000,40.5000 L44.7000,38.3000 L45.9000,40.7000 L44.5000,38.5000 L45.6000,40.9000 L44.3000,38.6000 L45.3000,41.0000 L44.2000,38.7000 L44.9000,41.2000 L44.0000,38.8000 L44.6000,41.4000 L43.8000,38.9000 L44.3000,41.5000 L43.5000,39.0000 L43.9000,41.6000 L43.3000,39.1000 L43.6000,41.7000 L43.0000,39.2000 L43.2000,41.9000 L42.8000,39.3000 L42.9000,42.0000 L42.6000,39.4000 L42.5000,42.1000 L42.3000,39.5000 L42.1000,42.1000 L42.0000,39.5000 L41.8000,42.1000 L41.7000,39.5000 L41.4000,42.1000 L41.4000,39.5000 L41.1000,42.1000 L41.1000,39.5000 L40.7000,42.2000 L40.8000,39.5000 L40.3000,42.2000 L40.5000,39.6000 L40.0000,42.1000 L40.2000,39.5000 L39.6000,42.1000 L39.9000,39.5000 L39.2000,42.1000 L39.6000,39.5000 L38.9000,42.0000 L39.4000,39.4000 L38.5000,42.0000 L39.1000,39.4000 L38.1000,42.0000 L38.8000,39.4000 L37.8000,41.9000 L38.5000,39.3000 L37.4000,41.8000 L38.2000,39.3000 L37.1000,41.7000 L37.9000,39.2000 L36.7000,41.6000 L37.6000,39.1000 L36.4000,41.5000 L37.3000,39.1000 L36.0000,41.5000 L36.9000,39.0000 L35.7000,41.4000 L36.6000,38.9000 L35.3000,41.3000 L36.3000,38.8000 L34.9000,41.1000 L36.0000,38.7000 L34.6000,41.0000 L35.7000,38.6000 L34.2000,40.8000 L35.3000,38.5000 L33.8000,40.7000 L35.0000,38.3000 L33.5000,40.6000 L34.6000,38.2000 L33.1000,40.4000 L34.3000,38.1000 L32.8000,40.2000 L34.0000,37.9000 L32.4000,40.1000 L33.6000,37.7000 L32.1000,39.9000 L33.3000,37.5000 L31.8000,39.7000 L32.9000,37.3000 L31.4000,39.5000 L32.6000,37.1000 L31.1000,39.3000 L32.3000,36.9000 L30.8000,39.1000 L32.0000,36.8000 L30.5000,38.9000 L31.8000,36.6000 L30.2000,38.7000 L31.5000,36.4000 L29.9000,38.4000 L31.3000,36.2000 L29.6000,38.2000 L31.0000,36.0000 L29.5000,37.9000 L30.8000,35.8000 L29.3000,37.6000 L30.5000,35.6000 L29.2000,37.4000 L30.3000,35.4000 L29.1000,37.1000 L30.0000,35.2000 L29.0000,36.8000 L29.8000,35.0000 L28.9000,36.5000 L29.6000,34.8000 L28.8000,36.2000 L29.4000,34.6000 L28.7000,35.9000 L29.3000,34.4000 L28.5000,35.6000 L29.1000,34.2000 L28.4000,35.3000 L29.0000,34.0000 L28.3000,34.9000 L28.8000,33.7000 L28.1000,34.5000 L28.6000,33.5000 L28.0000,34.2000 L28.4000,33.3000 L27.9000,33.8000 L28.2000,33.1000 L27.9000,33.4000 L28.1000,32.9000 L27.8000,33.0000 L27.9000,32.6000 L27.8000,32.6000 L27.8000,32.4000 L27.8000,32.9000 L27.7000,32.8000 L27.9000,33.2000 L27.5000,33.1000 L27.9000,33.5000 L27.4000,33.5000 L28.0000,33.9000 L27.3000,33.8000 L28.0000,34.2000 L27.2000,34.2000 L28.2000,34.5000 L27.1000,34.5000 L28.3000,34.9000 L27.1000,34.9000 L28.4000,35.2000 L27.0000,35.2000 L28.6000,35.5000 L26.9000,35.6000 L28.7000,35.9000 L26.9000,35.9000 L28.8000,36.2000 L26.9000,36.3000 L29.0000,36.6000 L26.9000,36.7000 L29.1000,36.9000 L26.9000,37.1000 L29.2000,37.2000 L26.9000,37.5000 L29.3000,37.6000 L26.9000,37.9000 L29.5000,37.9000 L26.9000,38.3000 L29.6000,38.2000 L27.0000,38.7000 L29.6000,38.5000 L27.0000,39.0000 L29.7000,38.8000 L27.1000,39.3000 L29.8000,39.1000 L27.2000,39.7000 L29.8000,39.4000 L27.3000,40.0000 L29.9000,39.7000 L27.4000,40.4000 L30.1000,40.1000 L27.5000,40.7000 L30.2000,40.4000 L27.6000,41.1000 L30.3000,40.7000 L27.8000,41.5000 L30.5000,41.0000 L27.9000,41.8000 L30.6000,41.3000 L28.1000,42.1000 L30.8000,41.6000 L28.3000,42.4000 L31.0000,41.9000 L28.5000,42.8000 L31.1000,42.1000 L28.6000,43.1000 L31.2000,42.3000 L28.8000,43.4000 L31.3000,42.4000 L29.0000,43.6000 L31.5000,42.6000 L29.2000,43.9000 L31.6000,42.7000 L29.4000,44.2000 L31.7000,42.8000 L29.6000,44.5000 L31.8000,43.0000 L29.8000,44.7000 L32.1000,43.3000 L30.1000,45.0000 L32.3000,43.5000 L30.3000,45.3000 L32.6000,43.8000 L30.6000,45.5000 L32.8000,44.1000 L30.8000,45.8000 L33.1000,44.4000 L31.1000,46.1000 L33.3000,44.7000 L31.3000,46.4000 L33.6000,45.0000 L31.6000,46.6000 L33.8000,45.2000 L31.9000,46.8000 L34.1000,45.5000 L32.3000,46.9000 L34.3000,45.8000 L32.6000,47.1000 L34.6000,46.0000 L33.0000,47.3000 L34.8000,46.3000 L33.3000,47.4000 L35.1000,46.6000 L33.7000,47.6000 L35.3000,46.8000 L34.0000,47.7000 L35.5000,47.1000 L34.4000,47.9000 L35.8000,47.4000 L34.8000,48.0000 L36.0000,47.7000 L35.1000,48.2000 L36.3000,47.9000 L35.5000,48.4000 L36.5000,48.2000 L35.8000,48.5000 L36.8000,48.5000 L36.2000,48.7000 L37.0000,48.7000 L36.5000,48.8000 L37.2000,49.0000 L36.9000,49.0000 L37.4000,49.2000 L37.5000,49.3000 L37.4000,49.2000 L37.5000,49.3000 L37.1000,49.2000 L37.1000,49.1000 L36.8000,49.2000 L36.8000,48.9000 L36.4000,49.2000 L36.4000,48.8000 L36.1000,49.2000 L36.1000,48.6000 L35.7000,49.2000 L35.7000,48.5000 L35.4000,49.2000 L35.4000,48.3000 L35.0000,49.2000 L35.0000,48.2000 L34.7000,49.2000 L34.7000,48.0000 L34.3000,49.2000 L34.3000,47.9000 L34.0000,49.2000 L34.0000,47.7000 L33.7000,49.2000 L33.7000,47.5000 L33.3000,49.2000 L33.3000,47.4000 L33.0000,49.3000 L33.0000,47.2000 L32.6000,49.3000 L32.6000,47.1000 L32.3000,49.3000 L32.3000,46.9000 L31.9000,49.3000 L31.9000,46.8000 L31.6000,49.3000 L31.6000,46.6000 L31.2000,49.3000 L31.2000,46.6000 L30.8000,49.3000 L30.8000,46.6000 L30.4000,49.3000 L30.4000,46.6000 L30.0000,49.3000 L30.0000,46.6000 L29.6000,49.3000 L29.6000,46.6000 L29.2000,49.3000 L29.2000,46.6000 L28.8000,49.3000 L28.8000,46.6000 L28.5000,49.3000 L28.4000,46.6000 L28.1000,49.3000 L28.0000,46.6000 L27.7000,49.3000 L27.6000,46.6000 L27.3000,49.3000 L27.3000,46.6000 L26.9000,49.3000 L26.9000,46.6000 L26.5000,49.3000 L26.5000,46.6000 L26.1000,49.3000 L26.1000,46.6000 L25.7000,49.3000 L25.7000,46.6000 L25.3000,49.3000 L25.3000,46.6000 L24.9000,49.3000 L24.9000,46.6000 L24.5000,49.3000 L24.5000,46.6000 L24.1000,49.3000 L24.1000,46.6000 L23.7000,49.3000 L23.7000,46.6000 L23.3000,49.3000 L23.3000,46.6000 L23.0000,49.3000 L22.9000,46.6000 L22.6000,49.3000 L22.6000,46.6000 L22.2000,49.3000 L22.2000,46.6000 L21.8000,49.3000 L21.8000,46.6000 L21.4000,49.3000 L21.4000,46.6000 L21.0000,49.3000 L21.0000,46.6000 L20.6000,49.3000 L20.6000,46.6000 L20.2000,49.3000 L20.2000,46.6000 L19.8000,49.3000 L19.8000,46.6000 L19.4000,49.3000 L19.4000,46.6000 L19.0000,49.3000 L19.0000,46.6000 L18.6000,49.3000 L18.6000,46.6000 L18.2000,49.3000 L18.2000,46.6000 L17.9000,49.3000 L17.9000,46.8000 L17.5000,49.3000 L17.5000,46.9000 L17.1000,49.3000 L17.2000,47.1000 L16.8000,49.3000 L16.8000,47.3000 L16.4000,49.3000 L16.4000,47.4000 L16.0000,49.3000 L16.1000,47.6000 L15.6000,49.3000 L15.7000,47.7000 L15.3000,49.3000 L15.3000,47.9000 L14.9000,49.3000 L15.0000,48.1000 L14.5000,49.3000 L14.6000,48.2000 L14.2000,49.3000 L14.2000,48.4000 L13.8000,49.3000 L13.9000,48.5000 L13.4000,49.3000 L13.5000,48.7000 L13.0000,49.3000 L13.2000,48.9000 L12.7000,49.3000 L12.8000,49.0000 L12.3000,49.3000 L12.4000,49.2000 L12.7000,49.1000 L12.6000,48.9000 L13.0000,49.0000 L12.9000,48.7000 L13.4000,48.8000 L13.1000,48.4000 L13.7000,48.6000 L13.3000,48.2000 L14.1000,48.5000 L13.5000,47.9000 L14.4000,48.3000 L13.8000,47.7000 L14.8000,48.2000 L14.0000,47.4000 L15.1000,48.0000 L14.2000,47.2000 L15.5000,47.9000 L14.4000,47.0000 L15.8000,47.7000 L14.6000,46.7000 L16.2000,47.6000 L14.9000,46.5000 L16.5000,47.4000 L15.1000,46.2000 L16.9000,47.3000 L15.3000,46.0000 L17.2000,47.1000 L15.5000,45.7000 L17.6000,46.9000 L15.7000,45.5000 L17.9000,46.8000 L16.0000,45.2000 L18.3000,46.6000 L16.2000,45.0000 L18.5000,46.4000 L16.4000,44.7000 L18.7000,46.1000 L16.7000,44.4000 L19.0000,45.8000 L17.0000,44.1000 L19.2000,45.5000 L17.2000,43.8000 L19.5000,45.3000 L17.5000,43.5000 L19.7000,45.0000 L17.7000,43.3000 L20.0000,44.7000 L18.2000,42.8000" fill="none"  stroke="#000000" stroke-width="0.1mm" />
 </g>
</svg>
