<?xml version="1.0" encoding="UTF-8"?>
<!DOCTYPE svg PUBLIC "-//W3C//DTD SVG 1.1//EN" "http://www.w3.org/Graphics/SVG/1.1/DTD/svg11.dtd">
<!-- Creator: Embird 2022 Build 10.66 (32-bit) on 19.02.2022 at 10:10:50 -->
<svg xmlns="http://www.w3.org/2000/svg" xml:space="preserve" width="222.5000mm" height="51.4000mm" style="shape-rendering:geometricPrecision; text-rendering:geometricPrecision; image-rendering:optimizeQuality; fill-rule:evenodd; clip-rule:evenodd"
viewBox="0.0000 0.0000 222.5000 51.4000"
 xmlns:xlink="http://www.w3.org/1999/xlink">
 <g id="Layer_x0020_1">
  <metadata id="EmbirdID_0Embird-Layer"/>
  <path d="M11.9000,50.5000 L11.5000,51.0000 L13.4000,49.5000 L14.4000,48.9000 L14.0000,47.0000 L12.7000,46.1000 L12.4000,44.1000 L11.2000,43.1000 L10.6000,40.9000 L8.9000,39.7000 L8.3000,37.5000 L5.9000,35.7000 L4.4000,32.9000 L3.4000,32.9000 L5.6000,31.4000 L6.7000,30.9000 L9.4000,28.7000 L11.2000,27.5000 L13.1000,26.6000 L13.0000,25.8000 L13.0000,27.9000 L12.6000,26.0000 L12.6000,28.1000 L12.1000,26.3000 L12.2000,28.4000 L11.7000,26.5000 L11.8000,28.7000 L11.3000,26.6000 L11.4000,28.9000 L10.8000,26.7000 L10.9000,29.2000 L10.4000,27.0000 L10.6000,29.4000 L10.0000,27.2000 L10.2000,29.6000 L9.6000,27.5000 L9.8000,29.8000 L9.2000,27.8000 L9.4000,30.0000 L8.8000,28.0000 L9.0000,30.3000 L8.4000,28.3000 L8.6000,30.5000 L8.0000,28.6000 L8.2000,30.8000 L7.6000,28.9000 L7.8000,31.0000 L7.2000,29.2000 L7.4000,31.3000 L6.8000,29.5000 L7.0000,31.6000 L6.4000,29.7000 L6.6000,31.9000 L6.0000,29.9000 L6.2000,32.2000 L5.5000,30.2000 L5.8000,32.5000 L5.1000,30.5000 L5.5000,32.8000 L4.7000,30.8000 L5.1000,33.2000 L4.3000,31.1000 L4.7000,33.4000 L3.9000,31.3000 L4.3000,33.7000 L3.4000,31.5000 L3.9000,34.0000 L3.0000,31.7000 L3.6000,34.2000 L2.5000,31.9000 L3.2000,34.5000 L2.1000,32.2000 L2.8000,34.7000 L2.2000,33.7000 L0.3000,34.8000 L0.3000,34.2000 L0.0000,35.2000 L0.4000,33.6000 L0.7000,35.4000 L0.7000,33.2000 L1.2000,35.4000 L1.0000,32.9000 L1.7000,35.3000 L1.4000,32.7000 L2.1000,35.1000 L1.8000,32.4000 L2.5000,34.9000 L2.2000,32.1000 L2.9000,34.6000 L2.5000,31.9000 L3.3000,34.4000 L3.9000,33.9000 L5.4000,32.5000 L6.1000,31.6000 L2.6000,34.3000 L6.2000,31.8000 L2.9000,34.6000 L6.4000,32.1000 L3.2000,34.8000 L6.5000,32.3000 L3.5000,35.1000 L6.8000,32.7000 L3.8000,35.5000 L7.0000,33.0000 L4.0000,35.8000 L7.2000,33.4000 L4.3000,36.1000 L7.4000,33.8000 L4.5000,36.4000 L7.7000,34.1000 L4.8000,36.7000 L7.9000,34.5000 L5.0000,36.9000 L8.1000,34.9000 L5.3000,37.2000 L8.4000,35.2000 L5.5000,37.5000 L8.6000,35.6000 L5.7000,37.8000 L8.8000,36.0000 L5.9000,38.2000 L9.0000,36.4000 L6.1000,38.5000 L9.2000,36.7000 L6.4000,38.9000 L9.5000,37.0000 L6.6000,39.3000 L9.8000,37.4000 L6.9000,39.6000 L10.0000,37.8000 L7.1000,39.9000 L10.2000,38.1000 L7.3000,40.3000 L10.5000,38.5000 L7.6000,40.7000 L10.7000,38.9000 L7.8000,41.0000 L10.9000,39.3000 L8.0000,41.4000 L11.2000,39.6000 L8.2000,41.8000 L11.4000,40.0000 L8.4000,42.2000 L11.6000,40.3000 L8.5000,42.4000 L9.4000,41.3000 L10.6000,40.7000 L12.8000,39.2000 L14.0000,38.5000 L16.2000,36.9000 L17.5000,36.2000 L18.4000,35.5000 L17.2000,35.9000 L18.5000,36.5000 L16.8000,35.9000 L18.3000,37.1000 L16.4000,36.1000 L17.9000,37.5000 L16.1000,36.3000 L17.5000,37.7000 L15.8000,36.6000 L17.1000,38.0000 L15.4000,36.8000 L16.7000,38.2000 L15.0000,37.1000 L16.3000,38.4000 L14.6000,37.4000 L15.9000,38.6000 L14.2000,37.6000 L15.5000,38.9000 L13.8000,37.8000 L15.1000,39.2000 L13.4000,38.0000 L14.6000,39.4000 L13.0000,38.3000 L14.3000,39.7000 L12.6000,38.6000 L13.9000,40.0000 L12.2000,39.0000 L13.6000,40.3000 L11.7000,39.2000 L13.2000,40.6000 L11.3000,39.3000 L12.8000,40.9000 L10.8000,39.5000 L12.4000,41.3000 L10.5000,39.8000 L12.0000,41.5000 L10.1000,40.0000 L11.7000,41.8000 L9.7000,40.1000 L11.3000,42.1000 L9.2000,40.3000 L10.9000,42.3000 L8.8000,40.5000 L10.6000,42.6000 L8.5000,40.9000 L10.4000,42.7000 L8.2000,41.3000 L10.1000,42.9000 L8.4000,42.6000 L7.8000,42.9000 L6.8000,43.5000 L7.3000,42.3000 L7.8000,43.9000 L7.7000,41.8000 L8.4000,43.7000 L8.0000,41.4000 L8.9000,43.6000 L8.4000,41.0000 L9.5000,43.5000 L8.7000,40.6000 L9.9000,43.3000 L10.9000,42.0000 L12.0000,40.9000 L9.1000,43.2000 L12.2000,41.2000 L9.4000,43.6000 L12.4000,41.5000 L9.6000,44.0000 L12.6000,41.8000 L9.9000,44.3000 L12.8000,42.1000 L10.1000,44.7000 L13.1000,42.4000 L10.4000,45.1000 L13.3000,42.7000 L10.6000,45.4000 L13.5000,43.1000 L10.8000,45.7000 L13.7000,43.5000 L11.0000,46.0000 L13.9000,43.9000 L11.3000,46.3000 L14.1000,44.3000 L11.5000,46.7000 L14.4000,44.6000 L11.7000,47.0000 L14.7000,44.9000 L12.0000,47.3000 L14.9000,45.1000 L12.2000,47.7000 L15.0000,45.3000 L12.4000,48.1000 L15.2000,45.5000 L12.6000,48.5000 L15.3000,45.7000 L12.9000,48.9000 L15.5000,45.9000 L13.3000,49.1000 L15.6000,46.2000 L13.7000,49.3000 L15.9000,46.5000 L14.1000,49.5000 L16.2000,46.9000 L14.7000,49.5000 L16.6000,47.2000 L15.2000,49.5000 L17.0000,50.0000 L16.8000,50.7000 L17.5000,50.8000 L16.8000,51.3000 L17.3000,49.9000 L16.3000,51.4000 L17.0000,49.3000 L15.8000,51.4000 L16.7000,48.7000 L15.4000,51.2000 L16.3000,48.7000 L15.1000,51.1000 L15.8000,48.7000 L14.8000,50.7000 L15.4000,48.7000 L14.5000,50.3000 L14.9000,48.7000 L14.2000,49.9000 L14.4000,48.7000 L15.1000,48.5000 L16.0000,48.4000 L17.7000,47.0000 L19.0000,46.5000 L21.3000,44.9000 L22.8000,44.2000 L25.4000,42.6000 L26.9000,41.9000 L25.3000,42.5000 L22.8000,44.1000 L20.8000,44.8000 L17.9000,46.6000 L16.5000,47.4000 L14.1000,49.3000 L13.0000,49.8000 L11.0000,51.3000 L11.1000,50.7000 L12.0000,51.3000 L11.0000,50.1000 L12.6000,51.4000 L11.3000,49.8000 L13.0000,51.2000 L11.6000,49.5000 L13.5000,51.1000 L11.9000,49.2000 L13.9000,50.9000 L12.3000,49.0000 L14.2000,50.6000 L12.6000,48.8000 L14.6000,50.3000 L13.1000,48.6000 L15.0000,50.1000 L13.5000,48.5000 L15.4000,49.9000 L14.0000,48.4000 L15.8000,49.7000 L14.5000,48.2000 L16.2000,49.4000 L14.9000,48.0000 L16.6000,49.2000 L15.3000,47.7000 L17.0000,48.9000 L15.7000,47.5000 L17.4000,48.7000 L16.0000,47.2000 L17.8000,48.5000 L16.5000,47.0000 L18.2000,48.2000 L16.9000,46.8000 L18.6000,48.0000 L17.3000,46.6000 L19.0000,47.8000 L17.7000,46.4000 L19.4000,47.5000 L18.1000,46.2000 L19.8000,47.3000 L18.6000,46.0000 L20.2000,47.0000 L19.0000,45.8000 L20.6000,46.8000 L19.4000,45.5000 L21.0000,46.6000 L19.8000,45.3000 L21.4000,46.3000 L20.2000,45.0000 L21.8000,46.1000 L20.6000,44.8000 L22.2000,45.8000 L21.0000,44.5000 L22.6000,45.6000 L21.4000,44.2000 L23.0000,45.3000 L21.8000,44.0000 L23.4000,45.1000 L22.1000,43.8000 L23.8000,44.9000 L22.5000,43.5000 L24.3000,44.7000 L23.0000,43.3000 L24.6000,44.4000 L23.4000,43.1000 L25.0000,44.2000 L23.7000,42.9000 L25.4000,43.9000 L24.1000,42.6000 L25.8000,43.7000 L24.5000,42.4000 L26.3000,43.5000 L24.8000,42.1000 L26.7000,43.2000 L25.2000,41.9000 L27.1000,43.0000 L25.6000,41.7000 L27.5000,42.8000 L25.9000,41.5000 L27.8000,42.4000 L26.4000,41.3000 L28.1000,42.1000 L27.0000,41.2000 L28.3000,41.7000 L27.7000,41.3000 L28.5000,41.1000 L27.9000,41.6000 L31.1000,39.2000 L31.0000,40.5000 L31.5000,40.0000 L29.8000,37.8000 L29.2000,34.7000 L27.7000,33.2000 L27.2000,30.7000 L25.7000,28.9000 L27.1000,30.4000 L27.6000,32.9000 L29.0000,34.4000 L29.5000,37.2000 L30.9000,38.9000 L31.2000,40.7000 L31.9000,40.5000 L30.4000,40.4000 L32.2000,39.8000 L30.0000,40.0000 L32.3000,39.4000 L29.7000,39.7000 L32.1000,39.1000 L29.5000,39.3000 L32.0000,38.8000 L29.3000,38.9000 L31.8000,38.4000 L29.1000,38.5000 L31.6000,38.1000 L28.9000,38.1000 L31.4000,37.7000 L28.8000,37.7000 L31.1000,37.3000 L28.6000,37.3000 L30.9000,36.9000 L28.5000,36.9000 L30.7000,36.5000 L28.3000,36.5000 L30.4000,36.1000 L28.2000,36.1000 L30.2000,35.7000 L28.0000,35.6000 L29.9000,35.3000 L27.9000,35.2000 L29.7000,34.9000 L27.7000,34.8000 L29.6000,34.4000 L27.4000,34.4000 L29.4000,34.0000 L27.2000,34.0000 L29.3000,33.6000 L27.0000,33.6000 L29.2000,33.1000 L26.9000,33.2000 L29.2000,32.7000 L26.9000,32.8000 L29.1000,32.3000 L26.8000,32.4000 L29.0000,31.8000 L26.6000,32.1000 L28.9000,31.4000 L26.5000,31.7000 L28.7000,31.0000 L26.4000,31.5000 L28.5000,30.6000 L26.2000,31.2000 L28.3000,30.2000 L26.1000,31.0000 L28.1000,29.9000 L25.9000,30.8000 L26.8000,29.2000 L25.4000,28.5000 L24.5000,28.8000 L26.0000,27.4000 L24.2000,29.5000 L26.8000,27.3000 L24.4000,29.8000 L27.2000,27.6000 L24.5000,30.0000 L27.5000,27.9000 L24.7000,30.3000 L27.8000,28.2000 L25.0000,30.5000 L28.2000,28.5000 L25.3000,30.8000 L28.4000,28.8000 L25.5000,31.2000 L28.6000,29.2000 L25.7000,31.5000 L28.8000,29.6000 L28.3000,30.1000 L27.8000,28.6000 L28.4000,30.7000 L28.9000,30.2000 L26.7000,28.5000 L29.0000,29.8000 L27.1000,28.2000 L29.2000,29.4000 L27.4000,27.8000 L29.4000,29.0000 L27.7000,27.6000 L29.6000,28.8000 L28.2000,27.4000 L29.8000,28.5000 L28.6000,27.2000 L30.1000,28.4000 L29.0000,26.9000 L30.3000,28.3000 L29.4000,26.6000 L30.6000,28.2000 L29.8000,26.4000 L30.8000,28.1000 L30.3000,26.3000 L31.0000,27.9000 L30.7000,26.1000 L31.3000,27.9000 L31.2000,26.0000 L31.5000,27.9000 L31.7000,26.0000 L31.8000,28.0000 L32.2000,26.0000 L32.2000,28.0000 L32.6000,26.0000 L32.5000,28.0000 L33.1000,26.0000 L32.7000,28.0000 L33.6000,26.1000 L32.9000,28.1000 L34.0000,26.1000 L33.2000,28.2000 L34.4000,26.3000 L33.4000,28.3000 L34.8000,26.5000 L33.6000,28.4000 L35.2000,26.8000 L33.8000,28.5000 L35.5000,27.1000 L34.1000,28.5000 L35.7000,27.5000 L34.3000,28.8000 L36.1000,27.8000 L34.4000,29.0000 L36.5000,28.0000 L34.6000,29.3000 L36.7000,28.4000 L34.8000,29.5000 L37.0000,28.8000 L35.2000,29.8000 L37.1000,29.2000 L35.4000,30.2000 L37.3000,29.6000 L35.5000,30.7000 L37.5000,30.0000 L35.8000,31.0000 L37.7000,30.3000 L36.1000,31.4000 L37.9000,30.7000 L36.3000,31.7000 L38.2000,31.0000 L37.6000,32.1000 L37.9000,34.7000 L39.1000,36.3000 L38.4000,37.4000 L40.0000,36.4000 L37.5000,37.4000 L40.3000,35.6000 L37.2000,37.2000 L40.4000,35.1000 L37.2000,36.8000 L40.2000,34.7000 L37.2000,36.2000 L40.0000,34.4000 L37.2000,35.7000 L39.9000,34.0000 L37.2000,35.2000 L39.8000,33.5000 L37.0000,34.8000 L39.7000,33.0000 L36.9000,34.3000 L39.5000,32.6000 L36.7000,33.9000 L39.3000,32.1000 L36.5000,33.5000 L39.2000,31.7000 L36.3000,33.1000 L39.0000,31.2000 L36.1000,32.7000 L38.9000,30.7000 L35.9000,32.3000 L38.7000,30.3000 L35.6000,31.9000 L38.4000,29.9000 L35.4000,31.5000 L38.2000,29.5000 L37.6000,29.9000 L38.2000,30.3000 L37.6000,30.9000 L36.9000,28.4000 L37.8000,30.5000 L37.2000,28.0000 L38.0000,30.0000 L37.5000,27.6000 L38.2000,29.7000 L37.8000,27.1000 L38.4000,29.2000 L38.2000,26.7000 L38.6000,28.8000 L38.5000,26.3000 L39.0000,28.6000 L38.9000,26.0000 L39.3000,28.4000 L39.3000,25.7000 L39.5000,28.4000 L39.8000,25.6000 L39.7000,28.3000 L40.2000,25.4000 L39.9000,28.2000 L40.7000,25.2000 L40.1000,28.2000 L41.1000,25.1000 L40.3000,27.9000 L41.6000,25.1000 L40.4000,28.2000 L42.1000,25.1000 L40.6000,28.3000 L42.5000,25.1000 L40.9000,28.3000 L43.0000,25.2000 L41.1000,28.3000 L43.4000,25.3000 L41.4000,28.4000 L43.8000,25.4000 L41.6000,28.5000 L44.2000,25.7000 L41.9000,28.5000 L44.5000,25.9000 L42.2000,28.8000 L44.9000,26.2000 L42.4000,29.0000 L45.2000,26.5000 L42.7000,29.3000 L45.6000,26.8000 L44.7000,28.8000 L46.0000,31.0000 L45.8000,33.8000 L46.6000,35.6000 L46.0000,36.4000 L47.0000,35.8000 L45.5000,36.1000 L47.9000,35.0000 L45.3000,35.7000 L48.3000,34.4000 L45.2000,35.4000 L48.3000,33.9000 L45.2000,35.0000 L48.2000,33.5000 L45.1000,34.6000 L48.2000,33.0000 L45.0000,34.2000 L48.2000,32.5000 L44.9000,33.8000 L48.3000,32.0000 L44.8000,33.4000 L48.1000,31.6000 L44.8000,33.0000 L48.0000,31.2000 L44.7000,32.7000 L47.8000,30.8000 L44.6000,32.4000 L47.7000,30.4000 L44.5000,32.1000 L47.5000,30.0000 L44.4000,31.8000 L47.3000,29.6000 L44.2000,31.5000 L47.1000,29.2000 L44.0000,31.2000 L46.8000,28.8000 L43.8000,30.9000 L46.6000,28.5000 L43.6000,30.5000 L46.4000,28.1000 L43.5000,30.2000 L46.2000,27.7000 L43.2000,29.9000 L45.9000,27.3000 L42.9000,29.6000 L45.7000,27.0000 L42.7000,29.3000 L45.4000,26.6000 L42.4000,29.0000 L44.9000,26.7000" fill="none"  stroke="#000000" stroke-width="0.1mm" />
  <path d="M50.2000,24.3000 L51.3000,25.4000 L51.4000,27.5000 L52.5000,28.8000 L52.3000,30.4000 L52.9000,29.9000 L54.2000,29.1000 L56.4000,27.4000 L57.0000,26.4000 L58.7000,24.4000 L57.8000,23.4000 L57.9000,21.3000 L56.0000,20.8000 L55.2000,19.2000 L51.9000,19.8000 L50.3000,20.1000 L48.9000,20.4000 L48.5000,17.8000 L47.1000,16.2000 L47.1000,13.3000 L46.0000,11.3000 L46.5000,10.3000 L45.6000,11.1000 L47.5000,10.4000 L45.2000,11.9000 L48.0000,10.6000 L44.9000,12.5000 L48.2000,11.0000 L45.0000,12.9000 L48.5000,11.3000 L45.1000,13.4000 L48.6000,11.7000 L45.2000,13.8000 L48.8000,12.1000 L45.3000,14.2000 L48.9000,12.5000 L45.4000,14.7000 L49.0000,13.0000 L45.5000,15.1000 L49.1000,13.4000 L45.6000,15.5000 L49.2000,13.8000 L45.7000,15.9000 L49.4000,14.2000 L45.9000,16.2000 L49.5000,14.6000 L46.1000,16.6000 L49.7000,15.0000 L46.2000,17.0000 L49.8000,15.3000 L46.4000,17.4000 L49.9000,15.7000 L46.5000,17.8000 L50.0000,16.1000 L46.6000,18.2000 L50.1000,16.4000 L46.8000,18.6000 L50.2000,16.8000 L46.9000,19.0000 L50.4000,17.2000 L47.0000,19.5000 L50.5000,17.6000 L47.1000,19.9000 L50.7000,18.0000 L47.2000,20.3000 L50.8000,18.4000 L47.3000,20.7000 L51.0000,18.8000 L47.5000,21.0000 L51.1000,19.2000 L47.7000,21.3000 L51.3000,19.6000 L47.8000,21.7000 L51.5000,19.9000 L48.0000,22.0000 L49.9000,21.1000 L50.7000,21.1000 L51.2000,20.1000 L48.9000,21.9000 L48.8000,23.1000 L50.0000,21.5000 L51.2000,20.4000 L48.6000,21.5000 L51.0000,20.9000 L48.7000,22.0000 L51.1000,21.3000 L48.7000,22.4000 L51.2000,21.7000 L48.8000,22.9000 L51.3000,22.0000 L48.9000,23.3000 L51.3000,22.4000 L49.0000,23.7000 L51.5000,22.8000 L49.1000,24.0000 L51.7000,23.2000 L49.2000,24.3000 L51.9000,23.6000 L49.3000,24.6000 L52.1000,24.0000 L49.4000,24.9000 L52.2000,24.4000 L49.5000,25.2000 L52.4000,24.8000 L49.6000,25.5000 L52.5000,25.3000 L49.7000,25.8000 L52.7000,25.7000 L49.8000,26.1000 L52.8000,26.1000 L49.9000,26.4000 L53.0000,26.5000 L50.0000,26.7000 L53.1000,26.9000 L50.2000,27.1000 L53.2000,27.4000 L50.3000,27.4000 L53.4000,27.8000 L50.4000,27.7000 L53.7000,28.2000 L50.5000,27.9000 L53.9000,28.6000 L50.6000,28.2000 L54.2000,29.0000 L50.7000,28.5000 L53.6000,29.4000 L50.8000,28.8000 L52.9000,29.9000 L50.9000,29.2000 L52.2000,30.3000 L51.0000,29.6000 L51.4000,30.8000 L51.1000,30.1000 L50.5000,31.1000 L50.6000,30.6000 L50.1000,30.5000 L51.5000,31.1000 L50.4000,30.2000 L52.0000,31.0000 L50.7000,29.9000 L52.5000,30.8000 L51.0000,29.6000 L53.0000,30.7000 L51.4000,29.3000 L53.4000,30.4000 L51.7000,29.0000 L53.9000,30.2000 L52.0000,28.8000 L54.3000,30.0000 L52.4000,28.6000 L54.7000,29.8000 L52.8000,28.5000 L55.1000,29.6000 L53.3000,28.3000 L55.5000,29.3000 L53.6000,28.1000 L55.9000,29.1000 L54.0000,27.9000 L56.3000,28.8000 L54.3000,27.7000 L56.7000,28.5000 L54.6000,27.5000 L57.1000,28.2000 L54.9000,27.3000 L57.5000,27.9000 L55.2000,27.1000 L57.8000,27.6000 L55.4000,26.9000 L58.1000,27.2000 L55.6000,26.7000 L58.5000,26.8000 L55.9000,26.5000 L58.8000,26.4000 L56.1000,26.3000 L59.1000,26.0000 L56.1000,26.0000 L59.3000,25.6000 L56.2000,25.8000 L59.6000,25.2000 L56.3000,25.6000 L59.8000,24.7000 L56.3000,25.3000 L59.9000,24.3000 L56.4000,25.0000 L60.0000,23.8000 L56.4000,24.7000 L60.1000,23.4000 L56.3000,24.5000 L60.0000,22.9000 L56.2000,24.2000 L60.0000,22.5000 L56.0000,23.8000 L59.9000,22.1000 L55.9000,23.4000 L59.9000,21.7000 L55.8000,23.1000 L59.8000,21.3000 L57.3000,21.1000 L56.3000,19.8000 L54.2000,19.6000 L52.9000,19.4000 L50.7000,20.2000 L49.1000,21.4000 L48.2000,23.7000 L49.6000,23.6000 L46.8000,24.4000 L49.8000,23.4000 L46.6000,23.9000 L49.9000,23.2000 L46.5000,23.5000 L50.1000,23.0000 L46.5000,23.1000 L50.3000,22.8000 L46.6000,22.6000 L50.4000,22.7000 L46.8000,22.2000 L50.6000,22.5000 L46.9000,21.8000 L50.7000,22.4000 L47.1000,21.5000 L50.8000,22.2000 L47.5000,21.1000 L50.9000,22.1000 L47.8000,20.8000 L51.0000,22.0000 L48.1000,20.5000 L50.9000,21.6000 L48.4000,20.2000 L51.2000,21.7000 L48.8000,20.0000 L51.3000,21.5000 L49.2000,19.8000 L51.4000,21.3000 L49.5000,19.5000 L51.5000,21.1000 L49.9000,19.3000 L51.8000,21.0000 L50.4000,19.2000 L52.1000,20.8000 L50.8000,19.0000 L52.3000,20.7000 L51.2000,18.8000 L52.5000,20.7000 L51.6000,18.7000 L52.7000,20.6000 L52.1000,18.6000 L53.0000,20.6000 L52.5000,18.5000 L53.2000,20.5000 L53.0000,18.4000 L53.5000,20.5000 L53.4000,18.3000 L53.8000,20.5000 L53.9000,18.3000 L53.9000,20.5000 L54.3000,18.3000 L54.1000,20.5000 L54.8000,18.4000 L54.3000,20.6000 L55.2000,18.5000 L54.4000,20.6000 L55.7000,18.6000 L54.6000,20.7000 L56.1000,18.8000 L54.7000,20.7000 L56.5000,19.0000 L54.9000,20.8000 L56.9000,19.2000 L55.1000,20.9000 L57.3000,19.4000 L55.2000,21.1000 L57.6000,19.7000 L55.4000,21.2000 L57.9000,20.0000 L55.6000,21.4000 L58.2000,20.3000 L55.8000,21.6000 L58.5000,20.6000 L56.0000,21.9000 L58.8000,21.0000 L56.1000,22.2000 L59.0000,21.3000 L56.2000,22.5000 L59.2000,21.7000 L56.4000,22.8000 L59.4000,22.0000 L59.8000,21.5000 L59.0000,21.9000" fill="none"  stroke="#000000" stroke-width="0.1mm" />
  <path d="M62.9000,19.7000 L62.9000,22.3000 L64.1000,24.2000 L64.1000,25.9000 L64.9000,26.9000 L64.4000,27.4000 L64.3000,24.7000 L63.2000,23.0000 L63.6000,19.6000 L64.7000,18.7000 L66.8000,16.9000 L68.0000,17.2000 L70.3000,16.5000 L71.8000,17.6000 L69.8000,16.9000 L66.8000,17.2000 L65.5000,17.7000 L63.3000,19.1000 L62.7000,19.4000 L61.8000,17.7000 L61.9000,15.0000 L61.2000,14.3000 L61.7000,13.6000 L62.0000,14.3000 L60.9000,14.5000 L62.4000,14.6000 L60.6000,15.0000 L62.6000,15.1000 L60.5000,15.5000 L62.7000,15.4000 L60.5000,15.9000 L62.7000,15.8000 L60.7000,16.4000 L62.8000,16.3000 L60.8000,16.8000 L62.9000,16.7000 L61.0000,17.2000 L63.0000,17.1000 L61.2000,17.6000 L63.1000,17.6000 L61.3000,18.0000 L63.2000,18.0000 L61.4000,18.5000 L63.3000,18.4000 L61.5000,18.9000 L63.3000,18.8000 L61.7000,19.4000 L63.4000,19.2000 L61.8000,19.8000 L63.5000,19.7000 L62.0000,20.2000 L63.6000,20.2000 L62.1000,20.6000 L63.7000,20.7000 L62.1000,21.0000 L63.9000,21.1000 L62.2000,21.4000 L64.1000,21.6000 L62.3000,21.8000 L63.4000,22.8000 L64.5000,24.7000 L64.6000,27.6000 L65.2000,27.5000 L64.2000,27.4000 L65.7000,26.6000 L63.9000,27.1000 L65.8000,26.0000 L63.7000,26.8000 L65.7000,25.6000 L63.6000,26.3000 L65.6000,25.3000 L63.4000,25.9000 L65.4000,25.1000 L63.3000,25.4000 L65.2000,24.7000 L63.2000,25.0000 L65.0000,24.3000 L63.1000,24.5000 L64.8000,23.9000 L63.0000,24.1000 L64.7000,23.5000 L62.9000,23.6000 L64.6000,23.1000 L62.7000,23.2000 L64.5000,22.7000 L62.6000,22.8000 L64.3000,22.3000 L62.5000,22.3000 L64.1000,21.9000 L62.4000,21.9000 L64.0000,21.5000 L62.3000,21.4000 L63.9000,21.1000 L62.2000,21.0000 L63.9000,20.8000 L64.4000,20.3000 L63.4000,19.5000 L63.6000,18.0000 L62.8000,18.7000 L64.3000,21.5000 L63.0000,18.4000 L64.5000,20.9000 L63.3000,18.2000 L64.8000,20.3000 L63.7000,17.9000 L65.1000,19.8000 L64.0000,17.5000 L65.4000,19.4000 L64.4000,17.2000 L65.7000,19.0000 L64.8000,16.9000 L66.1000,18.8000 L65.2000,16.7000 L66.5000,18.7000 L65.6000,16.5000 L66.8000,18.5000 L66.0000,16.3000 L67.1000,18.3000 L66.5000,16.3000 L67.4000,18.2000 L66.9000,16.2000 L67.7000,18.2000 L67.4000,16.2000 L68.1000,18.2000 L67.8000,16.0000 L68.5000,18.2000 L68.3000,15.9000 L68.7000,18.2000 L68.7000,15.9000 L69.0000,18.2000 L69.1000,15.9000 L69.3000,18.3000 L69.6000,15.9000 L69.5000,18.4000 L70.0000,15.9000 L69.9000,18.5000 L70.5000,15.9000 L70.3000,18.5000 L70.9000,16.0000 L70.6000,18.6000 L71.3000,16.1000 L70.9000,18.7000 L71.7000,16.2000 L71.4000,18.8000 L72.0000,16.3000 L71.8000,18.7000 L72.3000,16.7000 L72.3000,18.5000 L72.6000,17.2000 L72.7000,18.3000 L72.5000,17.4000 L76.5000,16.3000 L75.1000,19.4000 L76.3000,20.9000 L77.2000,22.1000 L80.2000,22.4000 L79.8000,22.9000 L82.1000,22.0000 L83.4000,22.1000 L85.5000,19.2000 L84.7000,18.0000 L84.9000,15.7000 L82.5000,14.5000 L80.8000,13.4000 L78.8000,14.4000 L77.8000,14.5000 L76.5000,16.5000 L76.2000,17.4000 L75.5000,20.2000 L78.1000,21.9000 L79.5000,22.4000 L81.8000,22.0000 L84.2000,22.0000 L85.8000,19.1000 L85.1000,18.0000 L84.4000,17.6000 L86.7000,17.6000 L84.2000,17.8000 L86.7000,18.0000 L84.3000,18.0000 L86.7000,18.5000 L84.3000,18.1000 L86.7000,18.9000 L84.4000,18.4000 L86.7000,19.3000 L84.4000,18.6000 L86.6000,19.8000 L84.4000,18.8000 L86.4000,20.2000 L84.4000,19.1000 L86.3000,20.6000 L84.4000,19.3000 L86.1000,21.0000 L84.4000,19.5000 L85.9000,21.4000 L84.3000,19.7000 L85.6000,21.8000 L84.2000,19.9000 L85.3000,22.2000 L84.1000,20.1000 L85.0000,22.4000 L84.0000,20.2000 L84.6000,22.7000 L83.8000,20.3000 L84.2000,23.0000 L83.6000,20.5000 L83.8000,23.1000 L83.4000,20.7000 L83.4000,23.3000 L83.2000,20.9000 L82.9000,23.4000 L82.9000,20.9000 L82.4000,23.5000 L82.6000,20.9000 L82.0000,23.5000 L82.3000,20.9000 L81.5000,23.6000 L82.0000,21.0000 L81.0000,23.6000 L81.7000,21.1000 L80.6000,23.6000 L81.3000,21.1000 L80.1000,23.6000 L81.0000,21.1000 L79.6000,23.6000 L80.6000,21.1000 L79.0000,23.7000 L80.2000,21.1000 L78.5000,23.7000 L79.9000,21.1000 L78.1000,23.6000 L79.5000,21.1000 L77.6000,23.5000 L79.1000,21.1000 L77.1000,23.3000 L78.9000,21.0000 L76.6000,23.2000 L78.6000,20.8000 L76.1000,23.1000 L78.4000,20.7000 L75.6000,22.9000 L78.2000,20.6000 L75.3000,22.6000 L78.1000,20.5000 L74.9000,22.3000 L77.9000,20.3000 L74.7000,21.9000 L77.8000,20.1000 L74.4000,21.5000 L77.7000,19.9000 L74.2000,21.1000 L77.6000,19.7000 L74.0000,20.7000 L77.5000,19.4000 L74.0000,20.3000 L77.5000,19.2000 L74.0000,19.9000 L77.5000,18.9000 L74.1000,19.4000 L77.5000,18.6000 L74.1000,19.0000 L77.5000,18.3000 L74.2000,18.5000 L77.5000,18.0000 L74.3000,18.1000 L77.6000,17.8000 L74.4000,17.7000 L77.6000,17.5000 L74.6000,17.3000 L77.7000,17.3000 L74.8000,16.9000 L77.7000,17.0000 L75.0000,16.5000 L77.9000,16.8000 L75.3000,16.1000 L78.0000,16.6000 L75.5000,15.7000 L78.1000,16.4000 L75.8000,15.4000 L78.2000,16.2000 L76.2000,15.0000 L78.4000,15.9000 L76.5000,14.7000 L78.6000,15.7000 L76.9000,14.5000 L78.8000,15.5000 L77.3000,14.2000 L79.0000,15.3000 L77.7000,13.9000 L79.3000,15.1000 L78.1000,13.7000 L79.6000,14.9000 L78.5000,13.5000 L79.9000,14.7000 L79.0000,13.4000 L80.2000,14.5000 L79.4000,13.2000 L80.4000,14.4000 L79.9000,13.1000 L80.6000,14.4000 L80.4000,13.0000 L81.0000,14.7000 L80.9000,13.0000 L81.3000,15.1000 L81.3000,13.0000 L81.6000,15.2000 L81.8000,13.0000 L81.9000,15.2000 L82.2000,13.0000 L82.1000,15.2000 L82.7000,13.0000 L82.5000,14.8000 L83.2000,12.9000 L82.4000,15.3000 L83.7000,12.9000 L82.8000,15.0000 L84.0000,13.2000 L82.6000,15.5000 L84.3000,13.5000 L82.8000,15.6000 L84.6000,13.8000 L82.9000,15.7000 L84.8000,14.2000 L83.1000,15.8000 L85.1000,14.5000 L83.2000,16.0000 L85.4000,14.8000 L83.3000,16.2000 L85.6000,15.2000 L83.5000,16.4000 L85.9000,15.6000 L83.6000,16.6000 L86.1000,16.0000 L83.8000,16.9000 L86.3000,16.4000 L84.0000,17.2000 L86.5000,16.8000 L84.1000,17.5000 L86.7000,17.2000 L84.3000,17.8000 L86.8000,17.6000 L87.2000,17.1000 L86.3000,17.6000" fill="none"  stroke="#000000" stroke-width="0.1mm" />
  <path d="M92.6000,16.1000 L92.5000,18.4000 L93.4000,20.0000 L92.9000,20.4000 L93.1000,18.1000 L92.3000,16.8000 L92.3000,13.8000 L91.5000,11.5000 L92.3000,13.0000 L92.1000,15.5000 L92.9000,16.6000 L92.8000,18.6000 L93.5000,19.6000 L92.6000,17.9000 L92.7000,15.2000 L91.8000,13.2000 L92.2000,11.2000 L91.0000,8.3000 L91.1000,5.9000 L89.7000,8.0000 L89.1000,6.7000 L89.0000,8.5000 L91.4000,5.7000 L92.5000,7.2000 L93.9000,5.4000 L94.6000,5.9000 L93.3000,5.3000 L94.3000,6.8000 L92.9000,5.1000 L94.0000,7.4000 L92.4000,5.0000 L93.7000,7.9000 L92.0000,5.0000 L93.3000,8.1000 L91.6000,5.0000 L92.9000,8.4000 L91.2000,5.1000 L92.6000,8.6000 L90.8000,5.2000 L92.2000,8.8000 L90.4000,5.3000 L91.9000,8.9000 L90.0000,5.5000 L91.6000,9.0000 L89.7000,5.6000 L91.4000,9.1000 L89.4000,8.7000 L88.6000,7.5000 L87.5000,8.1000 L88.3000,6.6000 L88.4000,9.1000 L88.6000,6.1000 L89.0000,9.4000 L88.9000,5.9000 L89.5000,9.5000 L89.2000,5.6000 L90.0000,9.5000 L89.6000,5.4000 L90.4000,9.6000 L89.9000,5.2000 L90.8000,9.6000 L90.3000,5.0000 L91.3000,9.5000 L90.7000,4.9000 L91.7000,9.4000 L92.2000,8.9000 L91.6000,9.0000 L92.2000,11.0000 L91.8000,13.8000 L92.3000,10.5000 L92.7000,11.0000 L91.0000,10.8000 L92.9000,11.4000 L90.4000,11.4000 L92.8000,11.7000 L90.2000,11.9000 L92.8000,12.0000 L90.4000,12.3000 L92.9000,12.3000 L90.7000,12.6000 L93.0000,12.7000 L90.9000,13.0000 L93.0000,13.1000 L91.0000,13.5000 L93.0000,13.6000 L91.1000,13.8000 L93.1000,14.0000 L91.2000,14.2000 L93.2000,14.5000 L91.2000,14.6000 L93.3000,14.9000 L91.2000,15.0000 L92.4000,15.7000 L93.3000,17.6000 L93.2000,20.5000 L94.1000,20.4000 L93.1000,20.5000 L94.7000,19.5000 L92.6000,20.3000 L94.7000,19.0000 L92.4000,20.0000 L94.6000,18.7000 L92.3000,19.5000 L94.4000,18.5000 L92.2000,19.1000 L94.3000,18.3000 L92.1000,18.7000 L94.2000,18.0000 L91.9000,18.2000 L94.0000,17.8000 L91.8000,17.8000 L94.0000,17.4000 L91.8000,17.4000 L93.9000,17.1000 L91.7000,16.9000 L93.8000,16.7000 L91.6000,16.5000 L93.7000,16.4000 L91.6000,16.0000 L93.6000,16.1000 L91.4000,15.6000 L93.5000,15.7000 L91.3000,15.1000 L93.4000,15.3000 L91.2000,14.7000 L93.3000,14.9000 L93.8000,14.4000 L93.2000,15.0000" fill="none"  stroke="#000000" stroke-width="0.1mm" />
  <path d="M98.9000,14.9000 L98.8000,17.3000 L100.1000,18.0000 L101.3000,19.3000 L101.9000,18.8000 L103.1000,19.1000 L105.2000,18.4000 L105.0000,17.5000 L105.0000,14.3000 L103.9000,12.1000 L104.0000,9.0000 L103.1000,6.9000 L103.4000,4.4000 L102.6000,2.8000 L103.1000,0.0000 L102.0000,0.0000 L103.8000,0.0000 L101.3000,0.7000 L103.9000,0.3000 L101.4000,1.1000 L104.0000,0.6000 L101.4000,1.6000 L104.2000,1.0000 L101.5000,2.0000 L104.2000,1.5000 L101.5000,2.4000 L104.3000,1.9000 L101.6000,2.9000 L104.3000,2.3000 L101.7000,3.3000 L104.4000,2.8000 L101.7000,3.7000 L104.4000,3.2000 L101.8000,4.1000 L104.4000,3.7000 L101.9000,4.5000 L104.4000,4.1000 L102.0000,5.0000 L104.5000,4.6000 L102.0000,5.3000 L104.6000,5.0000 L102.1000,5.7000 L104.7000,5.4000 L102.2000,6.1000 L104.8000,5.8000 L102.2000,6.5000 L104.9000,6.3000 L102.3000,6.8000 L105.0000,6.7000 L102.3000,7.2000 L105.1000,7.1000 L102.4000,7.5000 L105.2000,7.5000 L102.5000,7.9000 L105.2000,7.9000 L102.5000,8.2000 L104.7000,8.4000 L105.7000,7.8000 L101.9000,9.1000 L105.7000,8.2000 L102.0000,9.5000 L105.7000,8.5000 L102.1000,9.9000 L105.7000,8.9000 L102.2000,10.3000 L105.8000,9.3000 L102.3000,10.7000 L105.9000,9.7000 L102.3000,11.2000 L105.9000,10.1000 L102.4000,11.6000 L106.0000,10.5000 L102.4000,12.0000 L106.1000,10.9000 L102.5000,12.5000 L106.1000,11.2000 L102.5000,12.9000 L106.2000,11.5000 L102.6000,13.3000 L106.2000,11.9000 L102.7000,13.8000 L106.3000,12.2000 L102.7000,14.2000 L106.3000,12.6000 L102.8000,14.7000 L106.3000,12.9000 L102.9000,15.1000 L106.4000,13.3000 L103.0000,15.6000 L106.4000,13.8000 L103.0000,16.1000 L106.4000,14.2000 L103.1000,16.6000 L106.4000,14.6000 L103.1000,17.1000 L106.5000,15.0000 L103.2000,17.6000 L106.5000,15.3000 L103.2000,18.1000 L106.6000,15.7000 L103.3000,18.6000 L106.7000,15.9000 L103.8000,18.6000 L106.8000,16.1000 L104.4000,18.7000 L106.9000,16.5000 L104.9000,18.8000 L107.0000,17.0000 L105.5000,18.8000 L107.2000,17.5000 L106.0000,18.9000 L106.5000,18.1000 L103.9000,19.1000 L102.3000,18.7000 L99.3000,17.6000 L99.1000,15.6000 L97.9000,14.6000 L99.0000,12.1000 L99.0000,10.6000 L101.1000,9.0000 L102.1000,8.4000 L104.5000,7.6000 L105.9000,7.7000 L107.9000,6.8000 L107.1000,6.7000 L107.9000,7.7000 L106.7000,6.7000 L107.5000,8.1000 L106.3000,6.7000 L107.1000,8.4000 L105.9000,6.7000 L106.6000,8.7000 L105.6000,6.8000 L106.2000,8.9000 L105.2000,6.8000 L105.7000,9.1000 L104.8000,6.9000 L105.3000,9.2000 L104.4000,6.9000 L104.9000,9.2000 L103.9000,7.0000 L104.4000,9.2000 L103.5000,7.0000 L104.2000,9.2000 L103.0000,7.3000 L103.9000,9.3000 L102.6000,7.5000 L103.6000,9.3000 L102.2000,7.7000 L103.3000,9.3000 L101.8000,7.9000 L102.9000,9.4000 L101.3000,8.1000 L102.6000,9.4000 L100.9000,8.2000 L102.3000,9.5000 L100.4000,8.4000 L102.0000,9.5000 L100.0000,8.6000 L101.8000,9.7000 L99.6000,8.9000 L101.5000,9.9000 L99.2000,9.2000 L101.3000,10.0000 L98.9000,9.5000 L101.1000,10.2000 L98.6000,9.8000 L101.0000,10.4000 L98.2000,10.2000 L100.8000,10.6000 L97.9000,10.5000 L100.7000,10.8000 L97.7000,10.9000 L100.6000,11.0000 L97.5000,11.4000 L100.5000,11.2000 L97.3000,11.8000 L100.4000,11.4000 L97.1000,12.2000 L100.3000,11.6000 L96.9000,12.7000 L100.2000,11.9000 L96.8000,13.1000 L100.2000,12.1000 L96.8000,13.6000 L100.2000,12.4000 L96.9000,14.0000 L100.2000,12.7000 L96.9000,14.5000 L100.2000,13.1000 L96.9000,14.9000 L100.3000,13.5000 L97.0000,15.4000 L100.4000,13.8000 L97.0000,15.8000 L100.4000,14.1000 L97.1000,16.3000 L100.5000,14.4000 L97.2000,16.7000 L100.6000,14.7000 L97.3000,17.1000 L100.6000,15.0000 L97.5000,17.5000 L100.7000,15.3000 L97.7000,17.9000 L100.8000,15.6000 L97.9000,18.2000 L100.8000,15.8000 L98.1000,18.6000 L100.9000,16.0000 L98.4000,18.9000 L101.0000,16.2000 L98.8000,19.2000 L101.2000,16.3000 L99.1000,19.5000 L101.4000,16.5000 L99.5000,19.7000 L101.6000,16.6000 L99.9000,19.8000 L101.8000,16.8000 L100.4000,19.9000 L102.0000,16.9000 L100.8000,20.0000 L102.1000,17.0000 L101.2000,20.1000 L102.3000,17.0000 L101.7000,20.2000 L102.5000,17.0000 L102.1000,20.3000 L102.8000,17.0000 L102.6000,20.3000 L103.1000,17.1000 L103.1000,20.3000 L103.5000,17.0000 L103.5000,20.2000 L103.8000,17.0000 L104.0000,20.1000 L104.1000,17.0000 L104.4000,20.0000 L104.4000,16.9000 L104.9000,19.8000 L104.7000,16.9000 L105.3000,19.6000 L105.0000,16.9000 L105.8000,19.4000 L105.3000,16.9000 L106.2000,19.2000 L105.8000,16.9000 L106.6000,19.0000 L106.3000,16.9000 L106.9000,18.6000 L106.8000,16.8000 L107.2000,18.0000 L107.4000,16.9000 L106.9000,17.4000 L107.7000,17.4000 L107.1000,17.7000" fill="none"  stroke="#000000" stroke-width="0.1mm" />
  <path d="M112.0000,14.7000 L111.8000,16.6000 L113.3000,17.1000 L115.0000,18.6000 L115.7000,18.1000 L117.9000,19.4000 L120.6000,19.4000 L117.5000,19.1000 L115.3000,17.9000 L113.3000,17.6000 L112.4000,16.3000 L111.8000,15.0000 L112.2000,12.8000 L113.5000,11.0000 L115.8000,9.9000 L117.0000,9.8000 L120.5000,9.6000 L120.8000,12.3000 L119.5000,13.1000 L117.3000,13.6000 L116.1000,13.2000 L112.6000,13.7000 L111.7000,14.6000 L112.4000,16.6000 L114.1000,17.7000 L115.6000,18.7000 L118.2000,18.7000 L120.6000,20.0000 L119.7000,20.8000 L121.1000,19.0000 L119.2000,20.9000 L120.8000,18.7000 L118.8000,21.0000 L120.4000,18.4000 L118.3000,20.9000 L120.0000,18.2000 L117.8000,20.8000 L119.5000,18.1000 L117.4000,20.6000 L119.1000,18.1000 L117.0000,20.5000 L118.8000,17.9000 L116.5000,20.3000 L118.4000,17.8000 L116.1000,20.2000 L118.0000,17.6000 L115.6000,20.0000 L117.7000,17.4000 L115.1000,19.9000 L117.3000,17.2000 L114.7000,19.8000 L116.8000,17.1000 L114.3000,19.6000 L116.3000,17.1000 L113.8000,19.5000 L115.9000,17.0000 L113.4000,19.3000 L115.5000,16.8000 L112.9000,19.1000 L115.2000,16.7000 L112.5000,18.9000 L115.0000,16.5000 L112.1000,18.7000 L114.5000,16.7000 L111.7000,18.5000 L114.7000,16.3000 L111.3000,18.2000 L114.5000,16.3000 L110.9000,17.9000 L114.4000,16.1000 L110.7000,17.5000 L114.2000,16.0000 L110.5000,17.2000 L114.0000,15.8000 L110.3000,16.8000 L113.9000,15.6000 L110.1000,16.4000 L113.9000,15.4000 L110.0000,15.9000 L113.8000,15.1000 L110.0000,15.5000 L113.8000,14.9000 L109.9000,15.1000 L113.8000,14.6000 L110.1000,14.7000 L113.8000,14.3000 L110.2000,14.3000 L113.8000,14.0000 L110.3000,13.8000 L113.8000,13.7000 L110.4000,13.4000 L113.8000,13.4000 L110.5000,13.0000 L113.9000,13.2000 L110.7000,12.6000 L113.9000,12.9000 L111.0000,12.2000 L114.0000,12.7000 L111.2000,11.8000 L114.1000,12.5000 L111.5000,11.5000 L114.2000,12.2000 L111.9000,11.2000 L114.4000,12.0000 L112.3000,10.9000 L114.6000,11.7000 L112.7000,10.6000 L114.8000,11.5000 L113.0000,10.3000 L115.1000,11.3000 L113.4000,10.0000 L115.3000,11.1000 L113.9000,9.8000 L115.6000,11.0000 L114.4000,9.7000 L115.8000,10.8000 L114.8000,9.5000 L116.2000,10.6000 L115.2000,9.2000 L116.5000,10.5000 L115.6000,9.1000 L116.8000,10.4000 L116.1000,9.0000 L117.1000,10.3000 L116.6000,8.9000 L117.4000,10.2000 L117.1000,8.8000 L117.7000,10.1000 L117.5000,8.7000 L118.0000,10.0000 L118.0000,8.8000 L118.2000,10.1000 L118.5000,8.8000 L118.4000,10.0000 L118.9000,9.0000 L118.5000,10.2000 L119.4000,9.1000 L118.7000,10.1000 L119.8000,9.3000 L119.2000,9.8000 L120.3000,9.5000 L118.7000,10.3000 L120.8000,9.7000 L118.9000,10.3000 L121.1000,10.1000 L119.9000,10.1000 L121.4000,10.4000 L118.8000,10.5000 L121.7000,10.8000 L118.9000,10.7000 L121.9000,11.3000 L119.0000,10.8000 L122.1000,11.7000 L119.0000,11.1000 L122.3000,12.2000 L119.0000,11.3000 L119.7000,13.8000 L117.4000,13.2000 L114.2000,13.9000 L113.6000,13.4000 L112.9000,12.8000 L112.9000,14.5000 L113.2000,12.8000 L113.4000,14.4000 L113.4000,12.8000 L113.9000,14.4000 L113.7000,12.9000 L114.4000,14.3000 L114.0000,12.9000 L114.8000,14.3000 L114.4000,13.0000 L115.3000,14.2000 L114.7000,12.9000 L115.8000,14.2000 L115.0000,12.9000 L116.3000,14.2000 L115.4000,12.9000 L116.8000,14.1000 L115.8000,12.9000 L117.3000,14.1000 L116.2000,12.9000 L117.9000,14.1000 L116.6000,12.8000 L118.4000,14.1000 L117.0000,12.8000 L119.0000,14.1000 L117.4000,12.8000 L119.6000,14.1000 L117.7000,12.7000 L120.2000,14.1000 L118.3000,13.0000 L120.8000,14.0000 L118.0000,12.6000 L121.4000,13.9000 L119.2000,13.0000 L122.0000,13.7000 L118.3000,12.5000 L122.3000,13.4000 L118.9000,12.6000 L122.6000,13.0000 L118.5000,12.3000 L122.7000,12.6000 L118.5000,12.1000 L122.9000,12.3000 L118.5000,11.9000 L122.8000,11.8000 L118.5000,11.8000 L122.7000,11.4000 L122.1000,11.9000 L122.4000,11.5000" fill="none"  stroke="#000000" stroke-width="0.1mm" />
  <path d="M125.8000,12.9000 L126.1000,14.5000 L125.4000,17.4000 L125.9000,18.2000 L125.2000,20.3000 L125.7000,19.7000 L125.4000,17.9000 L126.1000,15.2000 L126.5000,12.9000 L128.9000,11.7000 L130.4000,11.5000 L132.6000,11.4000 L133.8000,12.3000 L136.0000,13.1000 L133.2000,12.6000 L131.5000,11.0000 L129.0000,11.8000 L127.5000,11.6000 L125.7000,12.4000 L126.6000,9.7000 L126.5000,8.0000 L127.2000,6.3000 L126.8000,6.7000 L127.9000,6.6000 L125.7000,7.2000 L128.2000,7.1000 L125.3000,7.6000 L128.3000,7.5000 L125.1000,8.0000 L128.2000,7.9000 L124.9000,8.5000 L128.1000,8.3000 L124.9000,8.9000 L128.0000,8.7000 L124.9000,9.3000 L128.0000,9.2000 L124.9000,9.8000 L127.9000,9.6000 L125.0000,10.2000 L127.9000,10.1000 L124.9000,10.7000 L127.8000,10.5000 L124.8000,11.2000 L127.7000,10.9000 L124.8000,11.6000 L127.7000,11.3000 L124.8000,12.1000 L127.6000,11.7000 L124.8000,12.5000 L127.5000,12.2000 L124.8000,12.9000 L127.4000,12.7000 L124.7000,13.4000 L127.4000,13.2000 L124.7000,13.8000 L127.4000,13.7000 L124.6000,14.2000 L127.4000,14.2000 L124.5000,14.6000 L126.4000,15.1000 L125.6000,18.1000 L125.9000,20.0000 L125.1000,20.8000 L126.5000,20.1000 L124.4000,20.5000 L127.2000,19.4000 L124.2000,20.2000 L127.5000,18.9000 L124.2000,19.7000 L127.6000,18.5000 L124.2000,19.3000 L127.5000,18.2000 L124.2000,18.8000 L127.4000,17.9000 L124.2000,18.4000 L127.4000,17.5000 L124.3000,17.9000 L127.3000,17.0000 L124.4000,17.4000 L127.3000,16.6000 L124.5000,17.0000 L127.4000,16.2000 L124.5000,16.5000 L127.4000,15.8000 L124.4000,16.0000 L127.4000,15.3000 L124.5000,15.6000 L127.4000,14.9000 L124.5000,15.1000 L127.4000,14.5000 L124.6000,14.7000 L127.4000,14.1000 L124.6000,14.2000 L127.4000,13.7000 L124.7000,13.8000 L127.5000,13.4000 L127.0000,13.9000 L127.5000,12.0000 L127.1000,11.5000 L127.2000,11.0000 L126.5000,14.9000 L127.5000,10.9000 L126.9000,14.5000 L127.9000,10.7000 L127.4000,14.0000 L128.3000,10.5000 L127.8000,13.7000 L128.8000,10.4000 L128.3000,13.4000 L129.2000,10.2000 L128.7000,13.1000 L129.7000,10.1000 L129.2000,13.1000 L130.1000,9.9000 L129.5000,13.1000 L130.6000,9.9000 L129.9000,13.0000 L131.0000,9.9000 L130.3000,12.9000 L131.5000,10.0000 L130.6000,13.0000 L131.9000,10.1000 L130.9000,13.1000 L132.4000,10.2000 L131.2000,13.2000 L132.8000,10.3000 L131.6000,13.3000 L133.3000,10.3000 L131.8000,13.4000 L133.7000,10.4000 L132.1000,13.5000 L134.1000,10.6000 L132.3000,13.7000 L134.6000,10.7000 L132.5000,13.8000 L135.0000,10.9000 L132.8000,14.0000 L135.4000,11.1000 L133.2000,14.3000 L135.7000,11.3000 L133.4000,14.4000 L136.1000,11.5000 L133.7000,14.6000 L136.4000,11.7000 L134.1000,14.9000 L136.7000,11.9000 L134.5000,14.9000 L136.8000,12.5000 L135.1000,14.9000 L136.9000,13.0000 L135.5000,14.9000 L136.7000,13.2000 L139.8000,15.0000 L139.9000,17.4000 L139.2000,20.1000 L139.1000,20.8000 L140.2000,17.5000 L140.3000,15.2000 L141.2000,12.5000 L141.1000,10.8000 L142.1000,7.9000 L141.2000,10.5000 L141.3000,12.2000 L140.3000,14.9000 L140.3000,16.8000 L139.2000,19.7000 L139.5000,20.7000 L139.1000,21.5000 L140.6000,20.8000 L137.9000,20.6000 L141.0000,20.5000 L137.8000,20.0000 L141.3000,20.3000 L137.8000,19.5000 L141.3000,19.9000 L137.9000,19.1000 L141.4000,19.6000 L137.9000,18.7000 L141.4000,19.2000 L138.0000,18.2000 L141.5000,18.8000 L138.1000,17.8000 L141.5000,18.3000 L138.2000,17.4000 L141.6000,17.8000 L138.3000,17.0000 L141.6000,17.4000 L138.5000,16.6000 L141.7000,16.9000 L138.6000,16.2000 L141.7000,16.5000 L138.7000,15.7000 L141.7000,16.0000 L138.8000,15.3000 L141.8000,15.5000 L138.9000,14.9000 L141.9000,15.1000 L139.0000,14.4000 L142.0000,14.6000 L139.1000,13.9000 L142.1000,14.2000 L139.1000,13.5000 L142.3000,13.8000 L139.2000,13.1000 L142.5000,13.4000 L139.4000,12.7000 L142.7000,13.0000 L139.6000,12.3000 L142.9000,12.6000 L139.7000,12.0000 L143.1000,12.2000 L139.8000,11.6000 L143.2000,11.8000 L139.9000,11.2000 L143.3000,11.4000 L140.0000,11.0000 L143.4000,10.9000 L140.0000,10.7000 L143.5000,10.5000 L140.0000,10.4000 L143.5000,10.1000 L140.0000,10.1000 L142.8000,8.8000 L140.9000,8.0000 L141.2000,7.1000 L142.0000,7.4000 L140.6000,7.5000 L142.8000,7.9000 L140.5000,7.8000 L142.9000,8.3000 L140.5000,8.1000 L143.0000,8.7000 L140.5000,8.4000 L143.1000,9.2000 L140.6000,8.8000 L143.2000,9.6000 L140.6000,9.2000 L143.2000,10.1000 L140.6000,9.6000 L143.1000,10.5000 L140.6000,10.0000 L143.0000,10.9000 L143.5000,10.4000 L142.8000,9.5000 L143.2000,10.9000 L142.7000,11.4000 L143.2000,8.1000 L143.1000,11.2000 L143.7000,8.1000 L143.4000,11.0000 L144.1000,8.0000 L143.8000,10.8000 L144.6000,8.0000 L144.2000,10.7000 L145.0000,8.2000 L144.5000,10.6000 L145.5000,8.3000 L144.8000,10.7000 L146.0000,8.2000 L145.0000,10.8000 L146.5000,8.2000 L145.3000,10.8000 L146.9000,8.3000 L145.5000,10.8000 L147.4000,8.5000 L145.8000,10.9000 L147.8000,8.6000 L146.0000,11.0000 L148.3000,8.8000 L146.2000,11.1000 L148.7000,9.1000 L146.4000,11.4000 L149.1000,9.3000 L146.7000,11.6000 L149.5000,9.6000 L146.9000,11.7000 L149.8000,9.9000 L147.1000,11.9000 L150.2000,10.2000 L147.2000,12.1000 L150.5000,10.6000 L147.4000,12.3000 L150.7000,11.0000 L147.5000,12.6000 L150.9000,11.4000 L147.6000,12.8000 L151.1000,11.8000 L147.7000,12.9000 L151.1000,12.2000 L147.9000,13.2000 L151.1000,12.7000 L147.9000,13.5000 L151.2000,13.1000 L147.9000,13.7000 L151.3000,13.6000 L147.9000,14.1000 L151.3000,14.0000 L147.9000,14.4000 L151.3000,14.4000 L148.0000,14.8000 L151.2000,14.9000 L148.0000,15.3000 L151.1000,15.3000 L147.8000,15.7000 L151.0000,15.7000 L147.9000,16.2000 L151.0000,16.1000 L147.9000,16.6000 L150.9000,16.5000 L147.9000,17.0000 L151.0000,16.9000 L148.7000,18.2000 L148.5000,19.8000 L147.4000,22.4000 L148.0000,23.0000 L146.6000,21.7000 L148.7000,22.6000 L146.5000,21.3000 L149.2000,22.2000 L146.7000,21.0000 L149.2000,21.8000 L147.1000,20.6000 L149.2000,21.4000 L147.4000,20.2000 L149.4000,21.0000 L147.7000,19.8000 L149.5000,20.5000 L147.8000,19.3000 L149.8000,20.1000 L147.9000,18.9000 L149.9000,19.6000 L148.1000,18.4000 L150.0000,19.1000 L148.2000,18.0000 L150.2000,18.7000 L148.2000,17.6000 L150.3000,18.2000 L148.3000,17.1000 L150.5000,17.7000 L148.3000,16.7000 L150.6000,17.3000 L148.3000,16.2000 L150.6000,16.8000 L148.4000,15.7000 L150.6000,16.3000 L151.1000,15.7000 L150.2000,17.0000 L150.5000,16.5000 L150.3000,14.7000 L151.0000,16.3000 L150.8000,14.6000 L151.4000,16.1000 L151.3000,14.4000 L151.8000,15.9000 L151.8000,14.2000 L152.2000,15.7000 L152.3000,14.1000 L152.6000,15.5000 L152.8000,14.0000 L153.0000,15.5000 L153.3000,14.0000 L153.4000,15.6000 L153.8000,14.0000 L153.6000,15.6000 L154.2000,14.1000 L153.8000,15.7000 L154.7000,14.2000 L154.0000,15.7000 L155.2000,14.3000 L154.2000,15.8000 L155.6000,14.6000 L154.5000,15.7000 L156.0000,14.8000 L154.4000,16.0000 L156.4000,15.1000 L154.6000,16.2000 L156.8000,15.4000 L154.7000,16.4000 L157.1000,15.7000 L154.9000,16.5000 L157.4000,16.0000 L155.1000,16.7000 L157.6000,16.4000 L155.2000,16.9000 L157.8000,16.8000 L155.4000,17.2000 L157.9000,17.2000 L155.5000,17.5000 L158.0000,17.7000 L155.6000,17.9000 L158.1000,18.1000 L155.6000,18.2000 L158.3000,18.5000 L157.5000,19.0000 L156.0000,22.2000 L155.4000,23.7000 L153.8000,26.3000 L154.1000,25.9000 L153.4000,25.9000 L155.8000,26.1000 L153.4000,25.5000 L156.4000,25.8000 L153.6000,25.1000 L156.7000,25.4000 L153.7000,24.8000 L156.9000,25.0000 L153.9000,24.5000 L157.1000,24.6000 L154.1000,24.1000 L157.5000,24.2000 L154.2000,23.7000 L157.8000,23.9000 L154.4000,23.3000 L157.9000,23.4000 L154.6000,22.9000 L158.1000,23.0000 L154.7000,22.7000 L158.2000,22.6000 L154.8000,22.4000 L158.3000,22.2000 L154.9000,22.1000 L158.3000,21.8000 L155.0000,21.8000 L158.4000,21.3000 L155.0000,21.4000 L158.5000,20.9000 L155.1000,21.1000 L158.5000,20.4000 L155.1000,20.7000 L158.6000,20.0000 L155.1000,20.3000 L158.6000,19.6000 L155.2000,19.9000 L158.6000,19.1000 L155.2000,19.5000 L158.7000,18.7000 L155.1000,19.1000 L158.7000,18.2000 L155.1000,18.7000 L158.7000,17.8000 L155.0000,18.3000 L158.6000,17.3000 L158.2000,17.6000" fill="none"  stroke="#000000" stroke-width="0.1mm" />
  <path d="M161.6000,21.0000 L161.7000,22.6000 L162.2000,24.4000 L164.6000,25.8000 L164.2000,26.3000 L166.4000,26.3000 L167.7000,27.3000 L170.8000,25.4000 L170.8000,24.2000 L171.8000,22.1000 L170.5000,20.1000 L169.2000,18.0000 L167.2000,18.3000 L166.1000,17.7000 L164.2000,19.1000 L163.3000,19.5000 L161.6000,22.0000 L163.0000,24.3000 L164.0000,25.7000 L166.1000,26.1000 L168.4000,27.5000 L171.0000,25.5000 L171.1000,24.4000 L170.5000,23.5000 L172.7000,24.8000 L170.2000,23.6000 L172.5000,25.2000 L170.2000,23.7000 L172.3000,25.6000 L170.2000,23.9000 L172.1000,26.0000 L170.1000,24.1000 L171.9000,26.4000 L170.0000,24.3000 L171.6000,26.7000 L169.9000,24.6000 L171.3000,27.0000 L169.8000,24.8000 L171.0000,27.3000 L169.7000,25.0000 L170.6000,27.6000 L169.6000,25.1000 L170.2000,27.8000 L169.4000,25.3000 L169.8000,28.0000 L169.3000,25.5000 L169.4000,28.2000 L169.1000,25.5000 L168.9000,28.3000 L168.9000,25.6000 L168.5000,28.4000 L168.7000,25.6000 L168.0000,28.4000 L168.5000,25.7000 L167.6000,28.4000 L168.2000,25.8000 L167.1000,28.3000 L167.9000,25.8000 L166.6000,28.2000 L167.6000,25.7000 L166.2000,28.1000 L167.3000,25.5000 L165.8000,27.9000 L167.0000,25.4000 L165.3000,27.7000 L166.7000,25.4000 L164.9000,27.5000 L166.4000,25.3000 L164.5000,27.3000 L166.1000,25.1000 L164.0000,27.1000 L165.8000,25.0000 L163.6000,26.9000 L165.5000,24.8000 L163.1000,26.6000 L165.2000,24.7000 L162.6000,26.4000 L164.9000,24.5000 L162.3000,26.1000 L164.5000,24.3000 L161.9000,25.8000 L164.2000,24.1000 L161.5000,25.4000 L164.0000,23.9000 L161.2000,25.1000 L163.9000,23.6000 L160.8000,24.7000 L163.8000,23.5000 L160.5000,24.3000 L163.6000,23.3000 L160.3000,23.9000 L163.5000,23.1000 L160.1000,23.5000 L163.5000,22.8000 L160.0000,23.0000 L163.5000,22.6000 L160.0000,22.6000 L163.5000,22.4000 L160.0000,22.2000 L163.5000,22.1000 L160.0000,21.7000 L163.5000,21.9000 L160.2000,21.3000 L163.6000,21.6000 L160.4000,20.9000 L163.8000,21.4000 L160.6000,20.6000 L163.9000,21.1000 L160.9000,20.2000 L164.0000,20.9000 L161.2000,19.9000 L164.2000,20.7000 L161.5000,19.5000 L164.4000,20.4000 L161.8000,19.2000 L164.5000,20.2000 L162.1000,18.9000 L164.7000,20.1000 L162.5000,18.6000 L164.9000,19.9000 L162.9000,18.4000 L165.1000,19.7000 L163.3000,18.2000 L165.3000,19.6000 L163.7000,18.0000 L165.5000,19.5000 L164.1000,17.8000 L165.7000,19.3000 L164.6000,17.7000 L165.9000,19.2000 L165.0000,17.5000 L166.3000,19.1000 L165.5000,17.5000 L166.5000,19.0000 L165.9000,17.5000 L166.8000,19.0000 L166.4000,17.4000 L167.1000,18.9000 L166.9000,17.4000 L167.4000,18.9000 L167.4000,17.4000 L167.8000,18.8000 L167.8000,17.5000 L168.2000,18.8000 L168.3000,17.5000 L168.4000,18.8000 L168.8000,17.7000 L168.6000,18.9000 L169.2000,17.8000 L168.8000,19.3000 L169.7000,18.0000 L168.9000,19.8000 L170.1000,18.2000 L169.1000,20.1000 L170.5000,18.4000 L169.4000,20.2000 L170.8000,18.7000 L169.6000,20.3000 L171.3000,18.9000 L170.1000,20.1000 L171.8000,19.0000 L169.8000,20.5000 L172.2000,19.2000 L170.3000,20.4000 L172.3000,19.7000 L169.9000,20.7000 L172.4000,20.1000 L170.0000,20.9000 L172.5000,20.5000 L170.1000,21.1000 L172.6000,20.9000 L170.1000,21.3000 L172.7000,21.3000 L170.2000,21.5000 L172.8000,21.8000 L170.2000,21.7000 L172.9000,22.2000 L170.2000,21.9000 L172.9000,22.6000 L170.3000,22.2000 L172.9000,23.1000 L170.3000,22.5000 L172.9000,23.5000 L170.3000,22.9000 L172.9000,24.0000 L170.3000,23.2000 L172.8000,24.4000 L170.3000,23.6000 L172.8000,24.9000 L173.2000,24.4000 L172.3000,24.6000" fill="none"  stroke="#000000" stroke-width="0.1mm" />
  <path d="M176.7000,24.8000 L175.8000,27.1000 L176.5000,28.1000 L177.2000,30.1000 L177.8000,29.6000 L178.9000,30.6000 L181.0000,30.6000 L181.4000,30.0000 L182.5000,26.8000 L182.6000,24.7000 L183.9000,21.6000 L184.1000,19.6000 L185.3000,17.1000 L185.4000,15.6000 L186.8000,13.0000 L185.8000,12.5000 L187.7000,13.6000 L185.0000,12.9000 L187.6000,13.9000 L184.8000,13.3000 L187.6000,14.3000 L184.7000,13.8000 L187.5000,14.7000 L184.5000,14.2000 L187.4000,15.1000 L184.4000,14.6000 L187.3000,15.5000 L184.3000,15.0000 L187.1000,16.0000 L184.2000,15.4000 L187.0000,16.4000 L184.1000,15.8000 L186.8000,16.8000 L184.0000,16.2000 L186.6000,17.2000 L183.9000,16.7000 L186.5000,17.6000 L183.8000,17.1000 L186.4000,18.1000 L183.6000,17.5000 L186.3000,18.5000 L183.5000,17.8000 L186.2000,18.9000 L183.4000,18.2000 L186.1000,19.3000 L183.3000,18.5000 L186.0000,19.7000 L183.2000,18.9000 L185.9000,20.2000 L183.1000,19.2000 L185.8000,20.6000 L183.0000,19.6000 L185.7000,21.0000 L182.9000,19.9000 L185.6000,21.4000 L182.8000,20.2000 L184.9000,21.5000 L185.9000,21.2000 L182.1000,21.0000 L185.7000,21.6000 L182.0000,21.4000 L185.6000,21.9000 L181.9000,21.9000 L185.5000,22.2000 L181.9000,22.3000 L185.3000,22.6000 L181.8000,22.7000 L185.2000,23.0000 L181.6000,23.1000 L185.1000,23.4000 L181.5000,23.5000 L185.1000,23.8000 L181.3000,23.9000 L185.0000,24.2000 L181.2000,24.4000 L184.9000,24.5000 L181.1000,24.8000 L184.8000,24.8000 L180.9000,25.2000 L184.7000,25.1000 L180.8000,25.6000 L184.5000,25.5000 L180.7000,26.0000 L184.4000,25.8000 L180.6000,26.5000 L184.3000,26.1000 L180.5000,26.9000 L184.2000,26.5000 L180.3000,27.4000 L184.0000,26.9000 L180.2000,27.8000 L183.8000,27.3000 L180.0000,28.3000 L183.7000,27.7000 L179.8000,28.8000 L183.6000,28.0000 L179.6000,29.3000 L183.5000,28.4000 L179.5000,29.7000 L183.4000,28.8000 L179.3000,30.2000 L183.4000,29.0000 L179.8000,30.5000 L183.4000,29.2000 L180.3000,30.8000 L183.3000,29.6000 L180.7000,31.1000 L183.2000,30.1000 L181.2000,31.4000 L183.1000,30.7000 L181.7000,31.7000 L182.3000,30.9000 L179.7000,30.9000 L178.3000,29.6000 L176.1000,27.6000 L176.7000,25.5000 L176.2000,24.3000 L178.0000,22.3000 L178.8000,21.2000 L181.2000,20.4000 L182.6000,20.5000 L184.9000,20.5000 L186.3000,21.4000 L188.3000,21.3000 L187.8000,21.1000 L188.0000,22.0000 L187.4000,20.9000 L187.4000,22.2000 L187.1000,20.7000 L186.9000,22.3000 L186.7000,20.6000 L186.4000,22.4000 L186.4000,20.5000 L185.9000,22.4000 L186.1000,20.4000 L185.4000,22.4000 L185.7000,20.3000 L185.0000,22.3000 L185.2000,20.1000 L184.6000,22.1000 L184.8000,20.0000 L184.2000,22.0000 L184.4000,19.9000 L183.9000,21.9000 L183.9000,19.9000 L183.6000,21.8000 L183.4000,19.9000 L183.3000,21.7000 L182.9000,19.9000 L183.1000,21.6000 L182.5000,19.9000 L182.7000,21.5000 L182.0000,19.9000 L182.5000,21.4000 L181.5000,19.8000 L182.2000,21.3000 L181.0000,19.7000 L181.9000,21.2000 L180.6000,19.8000 L181.6000,21.3000 L180.1000,19.9000 L181.3000,21.3000 L179.6000,20.0000 L181.0000,21.4000 L179.2000,20.1000 L180.7000,21.5000 L178.8000,20.3000 L180.5000,21.6000 L178.3000,20.5000 L180.3000,21.7000 L177.9000,20.7000 L180.1000,21.8000 L177.5000,20.9000 L179.9000,21.9000 L177.1000,21.2000 L179.8000,22.1000 L176.8000,21.5000 L179.6000,22.2000 L176.4000,21.9000 L179.4000,22.4000 L176.1000,22.2000 L179.3000,22.6000 L175.8000,22.6000 L179.1000,22.8000 L175.6000,23.0000 L179.0000,23.1000 L175.4000,23.4000 L178.9000,23.3000 L175.3000,23.8000 L178.7000,23.7000 L175.1000,24.2000 L178.6000,24.1000 L175.0000,24.7000 L178.5000,24.4000 L174.8000,25.1000 L178.4000,24.7000 L174.7000,25.5000 L178.4000,25.0000 L174.6000,25.9000 L178.3000,25.3000 L174.5000,26.4000 L178.3000,25.6000 L174.5000,26.8000 L178.2000,26.0000 L174.5000,27.2000 L178.2000,26.2000 L174.6000,27.7000 L178.1000,26.4000 L174.7000,28.1000 L178.1000,26.6000 L174.8000,28.5000 L178.2000,26.9000 L175.0000,28.9000 L178.2000,27.1000 L175.1000,29.3000 L178.3000,27.3000 L175.4000,29.6000 L178.4000,27.5000 L175.8000,29.9000 L178.6000,27.7000 L176.1000,30.2000 L178.7000,27.9000 L176.5000,30.5000 L178.8000,28.0000 L176.8000,30.8000 L179.0000,28.1000 L177.2000,31.0000 L179.1000,28.2000 L177.6000,31.3000 L179.4000,28.4000 L178.0000,31.5000 L179.6000,28.6000 L178.4000,31.7000 L180.0000,28.7000 L178.9000,31.8000 L180.3000,28.8000 L179.3000,31.9000 L180.6000,28.8000 L179.8000,32.0000 L180.9000,28.9000 L180.3000,32.0000 L181.1000,29.1000 L180.8000,32.0000 L181.4000,29.2000 L181.3000,32.0000 L181.7000,29.3000 L181.7000,32.1000 L182.2000,29.5000 L182.2000,32.0000 L182.6000,29.7000 L182.6000,31.8000 L183.1000,29.9000 L183.1000,31.4000 L183.6000,30.2000 L183.1000,30.7000 L183.7000,30.7000 L183.2000,31.0000" fill="none"  stroke="#000000" stroke-width="0.1mm" />
  <path d="M188.2000,31.4000 L187.9000,33.4000 L189.5000,34.4000 L189.1000,35.0000 L191.1000,35.1000 L192.2000,36.2000 L193.6000,34.7000 L193.9000,32.6000 L195.2000,29.4000 L195.7000,27.5000 L197.1000,24.5000 L197.4000,23.1000 L198.7000,20.7000 L199.2000,19.1000 L200.4000,18.3000 L198.3000,18.5000 L201.1000,18.8000 L197.4000,18.9000 L201.0000,19.1000 L197.2000,19.3000 L201.0000,19.5000 L197.0000,19.7000 L200.8000,19.9000 L196.8000,20.1000 L200.7000,20.3000 L196.7000,20.5000 L200.5000,20.7000 L196.5000,20.9000 L200.4000,21.1000 L196.4000,21.3000 L200.2000,21.5000 L196.3000,21.7000 L200.0000,21.9000 L196.1000,22.1000 L199.8000,22.3000 L196.0000,22.5000 L199.6000,22.7000 L195.9000,22.9000 L199.4000,23.1000 L195.7000,23.3000 L199.3000,23.6000 L195.6000,23.7000 L199.2000,24.0000 L195.5000,24.0000 L199.1000,24.4000 L195.3000,24.4000 L199.0000,24.8000 L195.2000,24.7000 L198.8000,25.2000 L195.1000,25.0000 L198.7000,25.6000 L195.0000,25.4000 L198.6000,26.0000 L194.8000,25.7000 L198.5000,26.4000 L194.7000,26.0000 L197.7000,26.5000 L197.7000,27.2000 L195.0000,25.8000 L197.5000,27.6000 L194.9000,26.2000 L197.4000,27.9000 L194.7000,26.6000 L197.2000,28.2000 L194.6000,27.0000 L197.0000,28.6000 L194.5000,27.4000 L196.9000,29.0000 L194.3000,27.8000 L196.8000,29.4000 L194.2000,28.2000 L196.7000,29.8000 L194.0000,28.6000 L196.6000,30.1000 L193.8000,29.0000 L196.4000,30.4000 L193.7000,29.4000 L196.3000,30.7000 L193.5000,29.9000 L196.2000,31.0000 L193.3000,30.3000 L196.1000,31.3000 L193.2000,30.7000 L195.9000,31.7000 L193.0000,31.1000 L195.8000,32.0000 L192.9000,31.6000 L195.6000,32.4000 L192.7000,32.0000 L195.4000,32.8000 L192.5000,32.4000 L195.2000,33.1000 L192.3000,32.9000 L195.0000,33.5000 L192.1000,33.4000 L194.9000,33.8000 L191.9000,33.8000 L194.8000,34.2000 L191.7000,34.3000 L194.7000,34.5000 L191.5000,34.8000 L194.7000,34.8000 L192.0000,35.1000 L194.6000,35.0000 L192.4000,35.4000 L194.6000,35.4000 L192.9000,35.7000 L194.4000,35.9000 L193.3000,36.1000 L194.3000,36.4000 L193.8000,36.4000 L191.9000,35.5000 L189.5000,35.1000 L188.6000,32.0000 L188.2000,30.8000 L188.8000,28.7000 L189.8000,27.7000 L191.7000,25.7000 L193.1000,26.0000 L195.5000,25.3000 L196.8000,26.4000 L199.1000,26.5000 L200.1000,27.4000 L201.0000,26.6000 L200.4000,27.6000 L200.7000,26.3000 L199.7000,28.2000 L200.3000,26.1000 L199.1000,28.3000 L200.0000,25.9000 L198.6000,28.4000 L199.6000,25.7000 L198.1000,28.4000 L199.3000,25.6000 L197.6000,28.4000 L199.0000,25.4000 L197.1000,28.4000 L198.6000,25.3000 L196.7000,28.2000 L198.2000,25.1000 L196.3000,28.0000 L197.7000,24.9000 L195.9000,27.9000 L197.3000,24.8000 L195.7000,27.7000 L196.8000,24.8000 L195.4000,27.6000 L196.4000,24.7000 L195.1000,27.5000 L195.9000,24.7000 L194.8000,27.4000 L195.4000,24.7000 L194.5000,27.3000 L194.9000,24.6000 L194.3000,27.1000 L194.5000,24.5000 L194.0000,27.0000 L194.0000,24.4000 L193.7000,26.9000 L193.5000,24.5000 L193.4000,26.9000 L193.1000,24.5000 L193.1000,27.0000 L192.6000,24.6000 L192.8000,27.0000 L192.1000,24.7000 L192.5000,27.1000 L191.7000,24.8000 L192.3000,27.2000 L191.2000,25.0000 L192.1000,27.3000 L190.8000,25.1000 L191.9000,27.4000 L190.4000,25.4000 L191.7000,27.5000 L190.0000,25.6000 L191.5000,27.6000 L189.6000,25.9000 L191.3000,27.8000 L189.2000,26.2000 L191.2000,27.9000 L188.9000,26.5000 L191.0000,28.1000 L188.6000,26.9000 L190.8000,28.3000 L188.4000,27.3000 L190.7000,28.6000 L188.1000,27.7000 L190.5000,28.8000 L188.0000,28.1000 L190.4000,29.2000 L187.8000,28.5000 L190.2000,29.5000 L187.6000,28.9000 L190.1000,29.9000 L187.4000,29.3000 L190.0000,30.2000 L187.3000,29.7000 L190.0000,30.4000 L187.1000,30.1000 L189.9000,30.7000 L187.0000,30.6000 L189.8000,31.0000 L187.0000,31.0000 L189.7000,31.4000 L187.0000,31.4000 L189.6000,31.6000 L187.0000,31.9000 L189.6000,31.8000 L187.0000,32.3000 L189.6000,32.0000 L187.1000,32.7000 L189.6000,32.3000 L187.3000,33.1000 L189.7000,32.5000 L187.4000,33.5000 L189.7000,32.7000 L187.7000,33.9000 L189.8000,32.9000 L188.0000,34.2000 L189.9000,33.1000 L188.4000,34.5000 L190.0000,33.3000 L188.7000,34.8000 L190.2000,33.5000 L189.0000,35.1000 L190.3000,33.6000 L189.3000,35.4000 L190.5000,33.7000 L189.7000,35.7000 L190.7000,33.9000 L190.1000,35.9000 L190.9000,34.1000 L190.5000,36.1000 L191.3000,34.2000 L191.0000,36.3000 L191.6000,34.3000 L191.4000,36.4000 L191.9000,34.4000 L191.9000,36.5000 L192.2000,34.6000 L192.4000,36.6000 L192.4000,34.7000 L192.9000,36.6000 L192.7000,34.8000 L193.3000,36.7000 L193.0000,35.0000 L193.8000,36.8000 L193.4000,35.2000 L194.3000,36.7000 L193.8000,35.4000 L194.7000,36.6000 L194.3000,35.6000 L195.2000,36.2000 L195.3000,35.5000 L194.9000,36.6000 L195.4000,35.8000" fill="none"  stroke="#000000" stroke-width="0.1mm" />
  <path d="M200.1000,36.4000 L200.1000,37.4000 L200.0000,39.1000 L201.8000,40.7000 L201.4000,41.3000 L204.0000,42.8000 L205.1000,44.9000 L203.7000,42.4000 L201.3000,40.9000 L200.9000,39.0000 L199.5000,38.0000 L200.9000,36.0000 L201.2000,34.9000 L204.4000,33.4000 L205.7000,34.2000 L208.0000,34.1000 L209.9000,36.4000 L210.0000,38.2000 L207.3000,38.9000 L206.3000,37.6000 L204.3000,37.2000 L202.2000,35.2000 L199.8000,36.2000 L200.6000,37.7000 L200.3000,40.1000 L202.3000,41.1000 L203.3000,43.0000 L205.9000,44.7000 L205.1000,45.6000 L204.7000,45.0000 L205.7000,44.8000 L204.3000,44.8000 L205.6000,44.3000 L203.9000,44.6000 L205.4000,43.9000 L203.5000,44.3000 L205.1000,43.6000 L203.2000,44.0000 L204.8000,43.2000 L202.9000,43.6000 L204.5000,43.0000 L202.6000,43.3000 L204.3000,42.7000 L202.3000,42.9000 L204.0000,42.3000 L202.0000,42.6000 L203.8000,42.0000 L201.6000,42.2000 L203.5000,41.7000 L201.3000,41.9000 L203.3000,41.3000 L201.0000,41.5000 L202.9000,41.0000 L200.7000,41.2000 L202.5000,40.7000 L200.4000,40.8000 L202.2000,40.4000 L200.1000,40.4000 L202.0000,40.1000 L199.8000,40.1000 L201.8000,39.7000 L199.5000,39.7000 L201.7000,39.6000 L199.2000,39.3000 L201.2000,39.4000 L199.0000,38.9000 L201.5000,39.2000 L198.8000,38.4000 L201.4000,39.1000 L198.7000,38.0000 L201.3000,38.9000 L198.7000,37.6000 L201.3000,38.7000 L198.6000,37.1000 L201.2000,38.4000 L198.7000,36.7000 L201.3000,38.2000 L198.7000,36.3000 L201.3000,38.0000 L198.8000,35.8000 L201.4000,37.8000 L199.0000,35.5000 L201.5000,37.5000 L199.2000,35.1000 L201.6000,37.3000 L199.6000,34.8000 L201.8000,37.0000 L199.9000,34.5000 L201.9000,36.7000 L200.2000,34.2000 L202.1000,36.5000 L200.5000,33.9000 L202.3000,36.3000 L200.8000,33.6000 L202.4000,36.1000 L201.2000,33.3000 L202.6000,35.9000 L201.6000,33.1000 L202.8000,35.8000 L202.0000,32.9000 L202.9000,35.6000 L202.5000,32.8000 L203.2000,35.4000 L202.9000,32.7000 L203.5000,35.3000 L203.4000,32.6000 L203.8000,35.2000 L203.9000,32.5000 L204.1000,35.2000 L204.3000,32.5000 L204.4000,35.1000 L204.8000,32.4000 L204.7000,35.1000 L205.3000,32.5000 L205.0000,35.1000 L205.8000,32.7000 L205.3000,35.1000 L206.3000,32.7000 L205.7000,35.1000 L206.7000,32.7000 L206.1000,35.1000 L207.2000,32.8000 L206.4000,35.2000 L207.7000,33.0000 L206.7000,35.3000 L208.1000,33.1000 L207.0000,35.3000 L208.6000,33.3000 L207.3000,35.4000 L209.0000,33.4000 L207.5000,35.5000 L209.4000,33.7000 L207.7000,35.7000 L209.8000,34.0000 L208.0000,35.7000 L210.1000,34.3000 L207.9000,35.9000 L210.4000,34.7000 L208.1000,35.9000 L210.7000,35.1000 L208.7000,35.9000 L211.0000,35.5000 L208.0000,36.1000 L211.3000,36.0000 L208.4000,36.2000 L211.4000,36.4000 L209.1000,36.5000 L211.5000,36.9000 L208.0000,36.2000 L211.5000,37.4000 L208.0000,36.4000 L211.5000,37.8000 L208.0000,36.6000 L211.5000,38.3000 L207.9000,36.9000 L211.4000,38.8000 L207.8000,37.1000 L208.3000,39.0000 L205.5000,37.9000 L203.5000,36.2000 L202.1000,36.1000 L203.0000,34.6000 L201.0000,36.7000 L203.2000,34.7000 L201.4000,36.9000 L203.4000,34.9000 L201.8000,37.1000 L203.6000,35.1000 L202.3000,37.3000 L203.8000,35.3000 L202.7000,37.5000 L204.1000,35.5000 L203.1000,37.7000 L204.4000,35.6000 L203.5000,38.0000 L204.7000,35.8000 L204.0000,38.2000 L205.1000,35.9000 L204.4000,38.4000 L205.4000,36.1000 L204.9000,38.7000 L205.7000,36.3000 L205.4000,38.9000 L206.1000,36.5000 L205.8000,39.2000 L206.5000,36.7000 L206.3000,39.5000 L206.9000,36.9000 L206.9000,39.8000 L207.1000,37.0000 L207.4000,40.0000 L207.5000,37.5000 L208.0000,40.3000 L207.5000,37.0000 L208.6000,40.5000 L208.3000,38.0000 L209.1000,40.7000 L207.8000,37.1000 L209.6000,40.6000 L208.3000,37.5000 L210.0000,40.3000 L208.0000,37.0000 L210.3000,40.1000 L208.1000,36.8000 L210.6000,39.8000 L208.2000,36.7000 L210.8000,39.4000 L208.3000,36.5000 L210.9000,39.1000 L211.4000,38.5000 L210.6000,39.0000" fill="none"  stroke="#000000" stroke-width="0.1mm" />
  <path d="M213.9000,41.0000 L212.1000,43.2000 L211.2000,44.8000 L210.1000,46.4000 L209.6000,47.1000 L209.2000,47.6000 L211.0000,45.2000 L211.8000,43.9000 L214.4000,41.4000 L216.0000,42.3000 L218.5000,42.2000 L219.3000,43.9000 L221.0000,44.6000 L221.4000,47.0000 L220.4000,44.5000 L218.5000,43.0000 L217.1000,41.7000 L214.8000,41.5000 L214.0000,40.6000 L214.9000,39.4000 L216.9000,37.2000 L217.2000,36.8000 L217.8000,36.2000 L217.6000,37.4000 L216.6000,36.1000 L217.7000,37.9000 L216.1000,36.2000 L217.5000,38.3000 L215.6000,36.5000 L217.2000,38.7000 L215.3000,36.8000 L216.9000,38.9000 L215.0000,37.1000 L216.6000,39.3000 L214.8000,37.5000 L216.4000,39.6000 L214.6000,37.9000 L216.1000,40.0000 L214.5000,38.4000 L215.8000,40.3000 L214.2000,38.7000 L215.6000,40.7000 L213.9000,39.1000 L215.3000,41.0000 L213.6000,39.4000 L215.1000,41.3000 L213.4000,39.8000 L214.8000,41.6000 L213.1000,40.2000 L214.5000,42.0000 L212.9000,40.6000 L214.2000,42.4000 L212.7000,40.9000 L213.8000,42.8000 L212.4000,41.2000 L213.6000,43.2000 L212.1000,41.6000 L213.4000,43.6000 L211.9000,41.9000 L212.1000,44.0000 L211.1000,45.4000 L209.1000,47.9000 L209.6000,48.3000 L208.8000,46.9000 L210.6000,48.1000 L208.8000,46.5000 L211.1000,47.8000 L209.0000,46.1000 L211.4000,47.5000 L209.2000,45.7000 L211.5000,47.2000 L209.5000,45.4000 L211.5000,46.9000 L209.8000,45.0000 L211.7000,46.5000 L210.0000,44.6000 L211.9000,46.1000 L210.3000,44.3000 L212.1000,45.7000 L210.6000,43.9000 L212.4000,45.4000 L210.9000,43.5000 L212.6000,45.0000 L211.1000,43.1000 L212.8000,44.7000 L211.3000,42.7000 L213.0000,44.3000 L211.6000,42.3000 L213.2000,43.9000 L211.9000,42.0000 L213.4000,43.6000 L212.2000,41.6000 L213.7000,43.3000 L212.4000,41.3000 L213.9000,43.0000 L214.4000,42.5000 L214.6000,41.8000 L215.6000,40.5000 L214.8000,40.8000 L213.4000,43.2000 L215.2000,40.9000 L214.0000,43.0000 L215.5000,40.9000 L214.6000,42.8000 L216.0000,41.0000 L215.2000,42.7000 L216.5000,41.1000 L215.7000,42.7000 L217.0000,41.1000 L216.2000,42.7000 L217.4000,41.2000 L216.6000,42.9000 L217.9000,41.4000 L217.0000,43.1000 L218.3000,41.6000 L217.3000,43.2000 L218.7000,41.8000 L217.7000,43.4000 L219.0000,42.1000 L217.9000,43.5000 L219.3000,42.4000 L218.1000,43.8000 L219.7000,42.7000 L218.4000,44.0000 L220.0000,43.0000 L218.6000,44.3000 L220.4000,43.3000 L218.8000,44.5000 L220.7000,43.6000 L218.9000,44.7000 L221.0000,43.9000 L219.0000,45.0000 L221.3000,44.2000 L219.1000,45.2000 L221.6000,44.6000 L219.3000,45.6000 L221.8000,44.9000 L219.5000,45.9000 L222.1000,45.3000 L219.7000,46.2000 L222.2000,45.7000 L219.8000,46.5000 L222.4000,46.0000 L220.0000,46.9000 L222.5000,46.4000 L220.4000,47.2000 L222.4000,46.9000 L220.8000,47.5000 L222.3000,47.4000 L221.3000,47.6000 L220.8000,48.1000 L222.5000,47.0000" fill="none"  stroke="#000000" stroke-width="0.1mm" />
 </g>
</svg>
