  0
SECTION
  2
HEADER
  9
$ACADVER
  1
AC1009
  9
$DWGCODEPAGE
  3
ansi_1252
  9
$INSBASE
 10
0.0
 20
0.0
 30
0.0
  9
$EXTMIN
 10
0.0
 20
-1.421349385152084
 30
0.0
  9
$EXTMAX
 10
6.421349385152085
 20
2.101909959072306
 30
0.0
  9
$LIMMIN
 10
0.0
 20
0.0
  9
$LIMMAX
 10
12.0
 20
9.0
  9
$ORTHOMODE
 70
     0
  9
$REGENMODE
 70
     1
  9
$FILLMODE
 70
     1
  9
$QTEXTMODE
 70
     0
  9
$MIRRTEXT
 70
     0
  9
$DRAGMODE
 70
     2
  9
$LTSCALE
 40
1.0
  9
$OSMODE
 70
   511
  9
$ATTMODE
 70
     1
  9
$TEXTSIZE
 40
0.3391056447777574
  9
$TRACEWID
 40
0.05
  9
$TEXTSTYLE
  7
STANDARD
  9
$CLAYER
  8
0
  9
$CELTYPE
  6
BYLAYER
  9
$CECOLOR
 62
   256
  9
$DIMSCALE
 40
1.0
  9
$DIMASZ
 40
0.18
  9
$DIMEXO
 40
0.0625
  9
$DIMDLI
 40
0.38
  9
$DIMRND
 40
0.0
  9
$DIMDLE
 40
0.0
  9
$DIMEXE
 40
0.18
  9
$DIMTP
 40
0.0
  9
$DIMTM
 40
0.0
  9
$DIMTXT
 40
0.18
  9
$DIMCEN
 40
0.09
  9
$DIMTSZ
 40
0.0
  9
$DIMTOL
 70
     0
  9
$DIMLIM
 70
     0
  9
$DIMTIH
 70
     1
  9
$DIMTOH
 70
     1
  9
$DIMSE1
 70
     0
  9
$DIMSE2
 70
     0
  9
$DIMTAD
 70
     0
  9
$DIMZIN
 70
     0
  9
$DIMBLK
  1

  9
$DIMASO
 70
     1
  9
$DIMSHO
 70
     1
  9
$DIMPOST
  1

  9
$DIMAPOST
  1

  9
$DIMALT
 70
     0
  9
$DIMALTD
 70
     2
  9
$DIMALTF
 40
25.4
  9
$DIMLFAC
 40
1.0
  9
$DIMTOFL
 70
     0
  9
$DIMTVP
 40
0.0
  9
$DIMTIX
 70
     0
  9
$DIMSOXD
 70
     0
  9
$DIMSAH
 70
     0
  9
$DIMBLK1
  1

  9
$DIMBLK2
  1

  9
$DIMSTYLE
  2
STANDARD
  9
$DIMCLRD
 70
     0
  9
$DIMCLRE
 70
     0
  9
$DIMCLRT
 70
     0
  9
$DIMTFAC
 40
1.0
  9
$DIMGAP
 40
0.09
  9
$LUNITS
 70
     2
  9
$LUPREC
 70
     6
  9
$SKETCHINC
 40
0.1
  9
$FILLETRAD
 40
0.0
  9
$AUNITS
 70
     0
  9
$AUPREC
 70
     0
  9
$MENU
  1
.
  9
$ELEVATION
 40
0.0
  9
$PELEVATION
 40
0.0
  9
$THICKNESS
 40
0.0
  9
$LIMCHECK
 70
     0
  9
$CHAMFERA
 40
0.0
  9
$CHAMFERB
 40
0.0
  9
$SKPOLY
 70
     0
  9
$TDCREATE
 40
2452643.063384259
  9
$TDUPDATE
 40
2456472.663020833
  9
$TDINDWG
 40
0.0
  9
$TDUSRTIMER
 40
2456472.653680556
  9
$USRTIMER
 70
     1
  9
$ANGBASE
 50
0.0
  9
$ANGDIR
 70
     0
  9
$PDMODE
 70
     0
  9
$PDSIZE
 40
0.0
  9
$PLINEWID
 40
0.0
  9
$COORDS
 70
     1
  9
$SPLFRAME
 70
     0
  9
$SPLINETYPE
 70
     6
  9
$SPLINESEGS
 70
     8
  9
$ATTDIA
 70
     0
  9
$ATTREQ
 70
     1
  9
$HANDLING
 70
     1
  9
$HANDSEED
  5
16F
  9
$SURFTAB1
 70
     6
  9
$SURFTAB2
 70
     6
  9
$SURFTYPE
 70
     6
  9
$SURFU
 70
     6
  9
$SURFV
 70
     6
  9
$UCSNAME
  2

  9
$UCSORG
 10
0.0
 20
0.0
 30
0.0
  9
$UCSXDIR
 10
1.0
 20
0.0
 30
0.0
  9
$UCSYDIR
 10
0.0
 20
1.0
 30
0.0
  9
$PUCSNAME
  2

  9
$PUCSORG
 10
0.0
 20
0.0
 30
0.0
  9
$PUCSXDIR
 10
1.0
 20
0.0
 30
0.0
  9
$PUCSYDIR
 10
0.0
 20
1.0
 30
0.0
  9
$USERI1
 70
     0
  9
$USERI2
 70
     0
  9
$USERI3
 70
     0
  9
$USERI4
 70
     0
  9
$USERI5
 70
     0
  9
$USERR1
 40
0.0
  9
$USERR2
 40
0.0
  9
$USERR3
 40
0.0
  9
$USERR4
 40
0.0
  9
$USERR5
 40
0.0
  9
$WORLDVIEW
 70
     1
  9
$SHADEDGE
 70
     3
  9
$SHADEDIF
 70
    70
  9
$TILEMODE
 70
     1
  9
$MAXACTVP
 70
    64
  9
$PLIMCHECK
 70
     0
  9
$PEXTMIN
 10
0.0
 20
0.0
 30
0.0
  9
$PEXTMAX
 10
0.0
 20
0.0
 30
0.0
  9
$PLIMMIN
 10
0.0
 20
0.0
  9
$PLIMMAX
 10
0.0
 20
0.0
  9
$UNITMODE
 70
     0
  9
$VISRETAIN
 70
     1
  9
$PLINEGEN
 70
     0
  9
$PSLTSCALE
 70
     1
  0
ENDSEC
  0
SECTION
  2
TABLES
  0
TABLE
  2
VPORT
 70
     1
  0
VPORT
  2
*ACTIVE
 70
     0
 10
0.0
 20
0.0
 11
1.0
 21
1.0
 12
30.88026825855589
 22
19.87898324482213
 13
0.0
 23
0.0
 14
0.5
 24
0.5
 15
0.5
 25
0.5
 16
0.0
 26
0.0
 36
1.0
 17
-27.66959356597985
 27
-19.53870295786202
 37
0.0
 40
3.638247046372585
 41
1.800256081946223
 42
50.0
 43
0.0
 44
0.0
 50
0.0
 51
0.0
 71
    16
 72
  1000
 73
     1
 74
     3
 75
     0
 76
     0
 77
     0
 78
     0
  0
ENDTAB
  0
TABLE
  2
LTYPE
 70
     1
  0
LTYPE
  2
CONTINUOUS
 70
     0
  3
Solid line
 72
    65
 73
     0
 40
0.0
  0
ENDTAB
  0
TABLE
  2
LAYER
 70
     5
  0
LAYER
  2
0
 70
     0
 62
     7
  6
CONTINUOUS
  0
LAYER
  2
CHORD
 70
     0
 62
     1
  6
CONTINUOUS
  0
LAYER
  2
SAGITTA
 70
     0
 62
     5
  6
CONTINUOUS
  0
LAYER
  2
APOTHEM
 70
     0
 62
     3
  6
CONTINUOUS
  0
LAYER
  2
DEFPOINTS
 70
     0
 62
     7
  6
CONTINUOUS
  0
ENDTAB
  0
TABLE
  2
STYLE
 70
     1
  0
STYLE
  2
STANDARD
 70
     0
 40
0.0
 41
1.0
 50
0.0
 71
     0
 42
0.3391056447777574
  3
arial.ttf
  4

  0
ENDTAB
  0
TABLE
  2
VIEW
 70
     0
  0
ENDTAB
  0
TABLE
  2
UCS
 70
     0
  0
ENDTAB
  0
TABLE
  2
APPID
 70
     2
  0
APPID
  2
ACAD
 70
     0
  0
APPID
  2
ACAECLAYERSTANDARD
 70
     0
  0
ENDTAB
  0
TABLE
  2
DIMSTYLE
 70
     1
  0
DIMSTYLE
  2
STANDARD
 70
     0
  3

  4

  5

  6

  7

 40
1.0
 41
0.18
 42
0.0625
 43
0.38
 44
0.18
 45
0.0
 46
0.0
 47
0.0
 48
0.0
140
0.18
141
0.09
142
0.0
143
25.4
144
1.0
145
0.0
146
1.0
147
0.09
 71
     0
 72
     0
 73
     1
 74
     1
 75
     0
 76
     0
 77
     0
 78
     0
170
     0
171
     2
172
     0
173
     0
174
     0
175
     0
176
     0
177
     0
178
     0
  0
ENDTAB
  0
ENDSEC
  0
SECTION
  2
BLOCKS
  0
BLOCK
  8
0
  2
$MODEL_SPACE
 70
     0
 10
0.0
 20
0.0
 30
0.0
  3
$MODEL_SPACE
  1

  0
ENDBLK
  5
21
  8
0
  0
BLOCK
 67
     1
  8
0
  2
$PAPER_SPACE
 70
     0
 10
0.0
 20
0.0
 30
0.0
  3
$PAPER_SPACE
  1

  0
ENDBLK
  5
5B
 67
     1
  8
0
  0
BLOCK
  8
0
  2
*D1
 70
     1
 10
0.0
 20
0.0
 30
0.0
  3
*D1
  1

  0
LINE
  5
138
  8
0
 62
     0
 10
3.9375
 20
0.0
 30
0.0
 11
3.398650614847916
 21
0.0
 31
0.0
  0
LINE
  5
139
  8
0
 62
     0
 10
5.0
 20
1.0625
 30
0.0
 11
5.0
 21
1.601349385152084
 31
0.0
  0
ARC
  5
13A
  8
0
 62
     0
 10
5.0
 20
0.0000000000000001
 30
0.0
 40
1.421349385152084
 50
187.2608076506428
 51
303.2896395921853
  0
ARC
  5
13B
  8
0
 62
     0
 10
5.0
 20
0.0000000000000001
 30
0.0
 40
1.421349385152084
 50
324.6684503828189
 51
82.73919234935721
  0
SOLID
  5
13C
  8
0
 62
     0
 10
3.619988032771524
 20
-0.177739184985779
 30
0.0
 11
3.560108436672158
 21
-0.1815383916104206
 31
0.0
 12
3.578650614847916
 22
0.0
 32
0.0
 13
3.578650614847916
 23
0.0
 33
0.0
  0
SOLID
  5
13D
  8
0
 62
     0
 10
5.18153839161042
 20
1.439891563327842
 30
0.0
 11
5.177739184985779
 21
1.380011967228476
 31
0.0
 12
5.0
 22
1.421349385152084
 32
0.0
 13
5.0
 23
1.421349385152084
 33
0.0
  0
TEXT
  5
13E
  8
0
  6
CONTINUOUS
 62
     0
 10
5.747201313915113
 20
-1.093572391677732
 30
0.0
 40
0.18
  1
270°
  0
POINT
  5
13F
  8
DEFPOINTS
 62
     0
 10
5.0
 20
0.0000000000000001
 30
0.0
  0
POINT
  5
140
  8
DEFPOINTS
 62
     0
 10
4.0
 20
0.0
 30
0.0
  0
POINT
  5
141
  8
DEFPOINTS
 62
     0
 10
5.0
 20
1.0
 30
0.0
  0
POINT
  5
142
  8
DEFPOINTS
 62
     0
 10
5.0
 20
-1.421349385152084
 30
0.0
  0
ENDBLK
  5
144
  8
0
  0
BLOCK
  8
0
  2
*D2
 70
     1
 10
0.0
 20
0.0
 30
0.0
  3
*D2
  1

  0
LINE
  5
149
  8
0
 62
     0
 10
2.0
 20
1.0625
 30
0.0
 11
2.0
 21
1.564382110351848
 31
0.0
  0
LINE
  5
14A
  8
0
 62
     0
 10
0.9375
 20
0.0000000000000001
 30
0.0
 11
0.4356178896481517
 21
0.0000000000000002
 31
0.0
  0
ARC
  5
14B
  8
0
 62
     0
 10
2.0
 20
0.0
 30
0.0
 40
1.384382110351848
 50
97.45496404091041
 51
122.9288792763932
  0
ARC
  5
14C
  8
0
 62
     0
 10
2.0
 20
0.0
 30
0.0
 40
1.384382110351848
 50
144.909640359484
 51
172.5450359590896
  0
SOLID
  5
14D
  8
0
 62
     0
 10
1.822331109502969
 20
1.342743602338786
 30
0.0
 11
1.818430452336409
 21
1.402616675365557
 31
0.0
 12
2.0
 22
1.384382110351848
 32
0.0
 13
2.0
 23
1.384382110351848
 33
0.0
  0
SOLID
  5
14E
  8
0
 62
     0
 10
0.5973833246344435
 20
0.1815695476635907
 30
0.0
 11
0.6572563976612138
 21
0.1776688904970316
 31
0.0
 12
0.6156178896481517
 22
0.0000000000000002
 32
0.0
 13
0.6156178896481517
 23
0.0000000000000002
 33
0.0
  0
TEXT
  5
14F
  8
0
  6
CONTINUOUS
 62
     0
 10
0.831762507692172
 20
0.8903793749817713
 30
0.0
 40
0.18
  1
90°
  0
POINT
  5
150
  8
DEFPOINTS
 62
     0
 10
2.0
 20
0.0
 30
0.0
  0
POINT
  5
151
  8
DEFPOINTS
 62
     0
 10
2.0
 20
1.0
 30
0.0
  0
POINT
  5
152
  8
DEFPOINTS
 62
     0
 10
1.0
 20
0.0000000000000001
 30
0.0
  0
POINT
  5
153
  8
DEFPOINTS
 62
     0
 10
1.307808944824076
 20
1.198910076109413
 30
0.0
  0
ENDBLK
  5
155
  8
0
  0
ENDSEC
  0
SECTION
  2
ENTITIES
  0
POLYLINE
  5
E7
  8
0
 66
     1
 10
0.0
 20
0.0
 30
0.0
  0
VERTEX
  5
165
  8
0
 10
0.0
 20
0.0
 30
0.0
  0
VERTEX
  5
166
  8
0
 10
1.0
 20
0.0
 30
0.0
 42
-0.414213562373095
  0
VERTEX
  5
167
  8
0
 10
2.0
 20
1.0
 30
0.0
  0
VERTEX
  5
168
  8
0
 10
2.0
 20
2.0
 30
0.0
  0
SEQEND
  5
16D
  8
0
  0
POLYLINE
  5
F8
  8
0
 66
     1
 10
0.0
 20
0.0
 30
0.0
  0
VERTEX
  5
169
  8
0
 10
3.0
 20
0.0
 30
0.0
  0
VERTEX
  5
16A
  8
0
 10
4.0
 20
0.0
 30
0.0
 42
2.414213562373095
  0
VERTEX
  5
16B
  8
0
 10
5.0
 20
1.0
 30
0.0
  0
VERTEX
  5
16C
  8
0
 10
5.0
 20
2.0
 30
0.0
  0
SEQEND
  5
16E
  8
0
  0
TEXT
  5
106
  8
0
 10
0.0
 20
2.0
 30
0.0
 40
0.1
  1
CLOCKWISE
  0
TEXT
  5
107
  8
0
 10
3.0
 20
2.0
 30
0.0
 40
0.1
  1
COUNTER-CLOCKWISE
  0
LINE
  5
11C
  8
CHORD
 10
1.0
 20
0.0
 30
0.0
 11
2.0
 21
1.0
 31
0.0
  0
LINE
  5
123
  8
CHORD
 10
4.0
 20
0.0000000000000002
 30
0.0
 11
5.0
 21
1.0
 31
0.0
  0
LINE
  5
131
  8
APOTHEM
 10
2.0
 20
0.0
 30
0.0
 11
1.5
 21
0.5
 31
0.0
  0
LINE
  5
132
  8
SAGITTA
 10
1.5
 20
0.5
 30
0.0
 11
1.292893218813453
 21
0.7071067811865475
 31
0.0
  0
DIMENSION
  5
134
  8
0
  2
*D1
 10
5.0
 20
-1.421349385152084
 30
0.0
 11
6.005045788676368
 21
-1.005045788676368
 31
0.0
 70
    37
  1
<>
  3
STANDARD
 13
4.0
 23
0.0
 33
0.0
 14
5.0
 24
1.0
 34
0.0
 15
5.0
 25
0.0000000000000001
 35
0.0
  0
DIMENSION
  5
145
  8
0
  2
*D2
 10
1.307808944824076
 20
1.198910076109413
 30
0.0
 11
1.021094022016865
 21
0.9789059779831355
 31
0.0
 70
    37
  1
<>
  3
STANDARD
 13
2.0
 23
1.0
 33
0.0
 14
1.0
 24
0.0000000000000001
 34
0.0
 15
2.0
 25
0.0
 35
0.0
  0
LINE
  5
156
  8
APOTHEM
 10
5.0
 20
0.0000000000000001
 30
0.0
 11
4.5
 21
0.5000000000000001
 31
0.0
  0
LINE
  5
158
  8
SAGITTA
 10
4.5
 20
0.5
 30
0.0
 11
5.707106781186547
 21
-0.7071067811865477
 31
0.0
  0
ENDSEC
  0
EOF
