  0
SECTION
  2
HEADER
  9
$ACADVER
  1
AC1009
  9
$INSBASE
 10
0.0
 20
0.0
 30
0.0
  9
$EXTMIN
 10
-3.1080321917636797
 20
-3.7050118510566357
 30
-0.0015258207003583
  9
$EXTMAX
 10
6.7933960249570546
 20
3.0006502771233134
 30
0.0000000349246037
  9
$LIMMIN
 10
0.0
 20
0.0
  9
$LIMMAX
 10
12.0
 20
9.0
  9
$ORTHOMODE
 70
     0
  9
$REGENMODE
 70
     1
  9
$FILLMODE
 70
     1
  9
$QTEXTMODE
 70
     0
  9
$MIRRTEXT
 70
     1
  9
$DRAGMODE
 70
     2
  9
$LTSCALE
 40
1.0
  9
$OSMODE
 70
   447
  9
$ATTMODE
 70
     1
  9
$TEXTSIZE
 40
0.2
  9
$TRACEWID
 40
0.05
  9
$TEXTSTYLE
  7
STANDARD
  9
$CLAYER
  8
0
  9
$CELTYPE
  6
BYLAYER
  9
$CECOLOR
 62
   256
  9
$DIMSCALE
 40
1.0
  9
$DIMASZ
 40
0.18
  9
$DIMEXO
 40
0.0625
  9
$DIMDLI
 40
0.3800000000000001
  9
$DIMRND
 40
0.0
  9
$DIMDLE
 40
0.0
  9
$DIMEXE
 40
0.18
  9
$DIMTP
 40
0.0
  9
$DIMTM
 40
0.0
  9
$DIMTXT
 40
0.18
  9
$DIMCEN
 40
0.09
  9
$DIMTSZ
 40
0.0
  9
$DIMTOL
 70
     0
  9
$DIMLIM
 70
     0
  9
$DIMTIH
 70
     1
  9
$DIMTOH
 70
     1
  9
$DIMSE1
 70
     0
  9
$DIMSE2
 70
     0
  9
$DIMTAD
 70
     0
  9
$DIMZIN
 70
     0
  9
$DIMBLK
  1

  9
$DIMASO
 70
     1
  9
$DIMSHO
 70
     1
  9
$DIMPOST
  1

  9
$DIMAPOST
  1

  9
$DIMALT
 70
     0
  9
$DIMALTD
 70
     2
  9
$DIMALTF
 40
25.3999999999999986
  9
$DIMLFAC
 40
1.0
  9
$DIMTOFL
 70
     0
  9
$DIMTVP
 40
0.0
  9
$DIMTIX
 70
     0
  9
$DIMSOXD
 70
     0
  9
$DIMSAH
 70
     0
  9
$DIMBLK1
  1

  9
$DIMBLK2
  1

  9
$DIMSTYLE
  2
STANDARD
  9
$DIMCLRD
 70
     0
  9
$DIMCLRE
 70
     0
  9
$DIMCLRT
 70
     0
  9
$DIMTFAC
 40
1.0
  9
$DIMGAP
 40
0.09
  9
$LUNITS
 70
     2
  9
$LUPREC
 70
     4
  9
$SKETCHINC
 40
0.1
  9
$FILLETRAD
 40
0.5
  9
$AUNITS
 70
     0
  9
$AUPREC
 70
     0
  9
$MENU
  1
.
  9
$ELEVATION
 40
0.0
  9
$PELEVATION
 40
0.0
  9
$THICKNESS
 40
0.0
  9
$LIMCHECK
 70
     0
  9
$BLIPMODE
 70
     0
  9
$CHAMFERA
 40
0.5
  9
$CHAMFERB
 40
0.5
  9
$SKPOLY
 70
     0
  9
$TDCREATE
 40
2456217.9688479858450592
  9
$TDUPDATE
 40
2456217.989564826246351
  9
$TDINDWG
 40
0.0207171528
  9
$TDUSRTIMER
 40
0.0207170833
  9
$USRTIMER
 70
     1
  9
$ANGBASE
 50
0.0
  9
$ANGDIR
 70
     0
  9
$PDMODE
 70
     0
  9
$PDSIZE
 40
0.0
  9
$PLINEWID
 40
0.0
  9
$COORDS
 70
     1
  9
$SPLFRAME
 70
     0
  9
$SPLINETYPE
 70
     6
  9
$SPLINESEGS
 70
     8
  9
$ATTDIA
 70
     1
  9
$ATTREQ
 70
     1
  9
$HANDLING
 70
 22529
  9
$HANDSEED
  5
2C3
  9
$SURFTAB1
 70
     6
  9
$SURFTAB2
 70
     6
  9
$SURFTYPE
 70
     6
  9
$SURFU
 70
     6
  9
$SURFV
 70
     6
  9
$UCSNAME
  2

  9
$UCSORG
 10
0.0
 20
0.0
 30
0.0
  9
$UCSXDIR
 10
1.0
 20
0.0
 30
0.0
  9
$UCSYDIR
 10
0.0
 20
1.0
 30
0.0
  9
$PUCSNAME
  2

  9
$PUCSORG
 10
0.0
 20
0.0
 30
0.0
  9
$PUCSXDIR
 10
1.0
 20
0.0
 30
0.0
  9
$PUCSYDIR
 10
0.0
 20
1.0
 30
0.0
  9
$USERI1
 70
     0
  9
$USERI2
 70
     0
  9
$USERI3
 70
     0
  9
$USERI4
 70
     0
  9
$USERI5
 70
     0
  9
$USERR1
 40
0.0
  9
$USERR2
 40
0.0
  9
$USERR3
 40
0.0
  9
$USERR4
 40
0.0
  9
$USERR5
 40
0.0
  9
$WORLDVIEW
 70
     1
  9
$SHADEDGE
 70
     3
  9
$SHADEDIF
 70
    70
  9
$TILEMODE
 70
     1
  9
$MAXACTVP
 70
    64
  9
$PLIMCHECK
 70
     0
  9
$PEXTMIN
 10
1.0000000000000000E+020
 20
1.0000000000000000E+020
 30
1.0000000000000000E+020
  9
$PEXTMAX
 10
-1.0000000000000000E+020
 20
-1.0000000000000000E+020
 30
-1.0000000000000000E+020
  9
$PLIMMIN
 10
0.0
 20
0.0
  9
$PLIMMAX
 10
12.0
 20
9.0
  9
$UNITMODE
 70
     0
  9
$VISRETAIN
 70
     1
  9
$PLINEGEN
 70
     0
  9
$PSLTSCALE
 70
     1
  0
ENDSEC
  0
SECTION
  2
TABLES
  0
TABLE
  2
VPORT
 70
    31
  0
VPORT
  2
*ACTIVE
 70
     0
 10
0.0
 20
0.0
 11
1.0
 21
1.0
 12
1.8426819165966852
 22
-0.3521807869666614
 13
0.0
 23
0.0
 14
0.5
 24
0.5
 15
0.5
 25
0.5
 16
0.0
 26
0.0
 36
1.0
 17
0.0
 27
0.0
 37
0.0
 40
6.7821525707067147
 41
2.1295238095238087
 42
50.0
 43
0.0
 44
0.0
 50
0.0
 51
0.0
 71
     0
 72
   100
 73
     1
 74
     3
 75
     0
 76
     0
 77
     0
 78
     0
  0
ENDTAB
  0
TABLE
  2
LTYPE
 70
     1
  0
LTYPE
  2
CONTINUOUS
 70
     0
  3
Solid line
 72
    65
 73
     0
 40
0.0
  0
ENDTAB
  0
TABLE
  2
LAYER
 70
     5
  0
LAYER
  2
0
 70
     0
 62
     7
  6
CONTINUOUS
  0
LAYER
  2
A
 70
     0
 62
     1
  6
CONTINUOUS
  0
LAYER
  2
B
 70
     0
 62
     3
  6
CONTINUOUS
  0
LAYER
  2
H
 70
     0
 62
     5
  6
CONTINUOUS
  0
LAYER
  2
DEFPOINTS
 70
     0
 62
     7
  6
CONTINUOUS
  0
ENDTAB
  0
TABLE
  2
STYLE
 70
     2
  0
STYLE
  2
STANDARD
 70
     0
 40
0.0
 41
1.0
 50
0.0
 71
     0
 42
0.2
  3
txt
  4

  0
STYLE
  2
ROMANS
 70
     0
 40
0.0
 41
1.0
 50
0.0
 71
     0
 42
0.125
  3
romans.shx
  4

  0
ENDTAB
  0
TABLE
  2
VIEW
 70
     0
  0
ENDTAB
  0
TABLE
  2
UCS
 70
     0
  0
ENDTAB
  0
TABLE
  2
APPID
 70
     1
  0
APPID
  2
ACAD
 70
     0
  0
ENDTAB
  0
TABLE
  2
DIMSTYLE
 70
     2
  0
DIMSTYLE
  2
STANDARD
 70
     0
  3

  4

  5

  6

  7

 40
1.0
 41
0.18
 42
0.0625
 43
0.3800000000000001
 44
0.18
 45
0.0
 46
0.0
 47
0.0
 48
0.0
140
0.18
141
0.09
142
0.0
143
25.3999999999999986
144
1.0
145
0.0
146
1.0
147
0.09
 71
     0
 72
     0
 73
     1
 74
     1
 75
     0
 76
     0
 77
     0
 78
     0
170
     0
171
     2
172
     0
173
     0
174
     0
175
     0
176
     0
177
     0
178
     0
  0
DIMSTYLE
  2
AEC_ARCH_I
 70
     0
  3

  4

  5

  6

  7

 40
96.0
 41
0.09375
 42
0.125
 43
0.3750000000000002
 44
0.125
 45
0.0
 46
0.125
 47
0.0
 48
0.0
140
0.09375
141
0.09375
142
0.0
143
25.3999999999999986
144
1.0
145
0.0
146
0.7500000000000002
147
0.0625
 71
     0
 72
     0
 73
     0
 74
     0
 75
     0
 76
     0
 77
     1
 78
     3
170
     0
171
     2
172
     1
173
     1
174
     0
175
     0
176
     0
177
     0
178
     0
  0
ENDTAB
  0
ENDSEC
  0
SECTION
  2
BLOCKS
  0
BLOCK
  8
0
  2
$MODEL_SPACE
 70
     0
 10
0.0
 20
0.0
 30
0.0
  3
$MODEL_SPACE
  1

  0
ENDBLK
  5
21
  8
0
  0
BLOCK
 67
     1
  8
0
  2
$PAPER_SPACE
 70
     0
 10
0.0
 20
0.0
 30
0.0
  3
$PAPER_SPACE
  1

  0
ENDBLK
  5
1D
 67
     1
  8
0
  0
BLOCK
  8
0
  2
_ARCHTICK
 70
     0
 10
0.0
 20
0.0
 30
0.0
  3
_ARCHTICK
  1

  0
POLYLINE
  5
2C
  8
0
  6
BYBLOCK
 62
     0
 66
     1
 10
0.0
 20
0.0
 30
0.0
 40
0.15
 41
0.15
  0
VERTEX
  5
29C
  8
0
  6
BYBLOCK
 62
     0
 10
-0.5
 20
-0.5
 30
0.0
  0
VERTEX
  5
29D
  8
0
  6
BYBLOCK
 62
     0
 10
0.5
 20
0.5
 30
0.0
  0
SEQEND
  5
29E
  8
0
  6
BYBLOCK
 62
     0
  0
ENDBLK
  5
2E
  8
0
  0
BLOCK
  8
0
  2
A$C5CEA06D8
 70
     0
 10
0.0
 20
0.0
 30
0.0
  3
A$C5CEA06D8
  1

  0
POLYLINE
  5
B3
  8
0
 66
     1
 10
0.0
 20
0.0
 30
0.0
 70
     1
 40
0.0625
 41
0.0625
  0
VERTEX
  5
2A2
  8
0
 10
-0.03125
 20
0.0
 30
0.0
 42
1.0
  0
VERTEX
  5
2A3
  8
0
 10
0.03125
 20
0.0
 30
0.0
 42
1.0
  0
SEQEND
  5
2A4
  8
0
  0
ENDBLK
  5
B5
  8
0
  0
BLOCK
  8
0
  2
*D22
 70
     1
 10
0.0
 20
0.0
 30
0.0
  3
*D22
  1

  0
ARC
  5
13B
  8
0
 62
     0
 10
2.2499999999999991
 20
1.9843134832984419
 30
0.0
 40
0.8032982016330007
 50
234.27525445338037
 51
245.3288089869425335
  0
ARC
  5
13C
  8
0
 62
     0
 10
2.2499999999999991
 20
1.9843134832984419
 30
0.0
 40
0.8032982016330007
 50
286.9875792580969573
 51
298.5439897651612569
  0
SOLID
  5
13D
  8
0
 62
     0
 10
1.7608255448506693
 20
1.3099317018727898
 30
0.0
 11
1.8010958468646678
 21
1.3544098175669299
 31
0.0
 12
1.6475263487752489
 22
1.4529816657618571
 32
0.0
 13
1.6475263487752489
 23
1.4529816657618571
 33
0.0
  0
SOLID
  5
13E
  8
0
 62
     0
 10
2.6166453236711131
 20
1.3032372956114477
 30
0.0
 11
2.6510400108407843
 21
1.2540742455179028
 31
0.0
 12
2.781331817536584
 22
1.3818398320736909
 32
0.0
 13
2.781331817536584
 23
1.3818398320736909
 33
0.0
  0
TEXT
  5
13F
  8
0
 62
     0
 10
2.0046951269730506
 20
1.0925919477909098
 30
0.0
 40
0.18
  1
90°
  0
POINT
  5
140
  8
DEFPOINTS
 62
     0
 10
1.9939084216968921
 20
1.2229298058604268
 30
0.0
  0
POINT
  5
141
  8
DEFPOINTS
 62
     0
 10
0.0
 20
0.0
 30
0.0
  0
POINT
  5
142
  8
DEFPOINTS
 62
     0
 10
3.9999999999999987
 20
0.0
 30
0.0
  0
POINT
  5
143
  8
DEFPOINTS
 62
     0
 10
2.2499999999999991
 20
1.984313483298443
 30
0.0
  0
POINT
  5
144
  8
DEFPOINTS
 62
     0
 10
2.25
 20
1.9843134832984419
 30
0.0
  0
ENDBLK
  5
139
  8
0
  0
BLOCK
  8
0
  2
*D23
 70
     1
 10
0.0
 20
0.0
 30
0.0
  3
*D23
  1

  0
ARC
  5
17C
  8
0
 62
     0
 10
0.0
 20
0.0
 30
0.0
 40
1.690456274509142
 50
6.1037477556722211
 51
14.3043902923016013
  0
ARC
  5
17D
  8
0
 62
     0
 10
0.0
 20
0.0
 30
0.0
 40
1.690456274509142
 50
27.3892703985352171
 51
35.3058743535985968
  0
SOLID
  5
17E
  8
0
 62
     0
 10
1.710830515277308
 20
0.1813419154887269
 30
0.0
 11
1.650915610752955
 21
0.1781475116573898
 31
0.0
 12
1.690456274509142
 22
-0.0000000000000007
 32
0.0
 13
1.690456274509142
 23
-0.0000000000000007
 33
0.0
  0
SOLID
  5
17F
  8
0
 62
     0
 10
1.3560202111973239
 20
0.9583674016586144
 30
0.0
 11
1.4030692891217957
 21
0.9956015830845156
 31
0.0
 12
1.267842205881857
 22
1.118131726144981
 32
0.0
 13
1.267842205881857
 23
1.118131726144981
 33
0.0
  0
TEXT
  5
180
  8
0
 62
     0
 10
1.4012770516338731
 20
0.507666547502381
 30
0.0
 40
0.18
  1
41°
  0
POINT
  5
181
  8
DEFPOINTS
 62
     0
 10
1.6416374617929612
 20
0.4033222781663469
 30
0.0
  0
POINT
  5
182
  8
DEFPOINTS
 62
     0
 10
0.0
 20
0.0
 30
0.0
  0
POINT
  5
183
  8
DEFPOINTS
 62
     0
 10
0.0
 20
0.0
 30
0.0
  0
POINT
  5
184
  8
DEFPOINTS
 62
     0
 10
2.25
 20
1.9843134832984419
 30
0.0
  0
POINT
  5
185
  8
DEFPOINTS
 62
     0
 10
2.6249999999999991
 20
0.0
 30
0.0
  0
ENDBLK
  5
153
  8
0
  0
BLOCK
  8
0
  2
*D24
 70
     1
 10
0.0
 20
0.0
 30
0.0
  3
*D24
  1

  0
ARC
  5
170
  8
0
 62
     0
 10
4.0
 20
0.0
 30
0.0
 40
0.6894876543980887
 50
116.4089847898932106
 51
131.4096221092707708
  0
LINE
  5
171
  8
0
 62
     0
 10
3.6933326913728282
 20
0.6175341183989312
 30
0.0
 11
3.8733326913728279
 21
0.6175341183989309
 31
0.0
  0
ARC
  5
172
  8
0
 62
     0
 10
4.0
 20
-0.0000000000000002
 30
0.0
 40
0.6894876543980887
 50
146.4102594286484873
 51
164.9993626806223119
  0
SOLID
  5
173
  8
0
 62
     0
 10
3.4030324517603505
 20
0.4011711372965472
 30
0.0
 11
3.4482530978606261
 21
0.3617364676989259
 31
0.0
 12
3.5439467836033525
 22
0.5171157407985658
 32
0.0
 13
3.5439467836033525
 23
0.5171157407985658
 33
0.0
  0
SOLID
  5
174
  8
0
 62
     0
 10
3.3637513767980374
 20
0.1745439931859529
 30
0.0
 11
3.3042647286730724
 21
0.1823758955638339
 31
0.0
 12
3.3105123456019112
 22
-0.0000000000000002
 32
0.0
 13
3.3105123456019112
 23
-0.0000000000000002
 33
0.0
  0
TEXT
  5
175
  8
0
 62
     0
 10
3.9633326913728273
 20
0.5275341183989295
 30
0.0
 40
0.18
  1
49°
  0
POINT
  5
176
  8
DEFPOINTS
 62
     0
 10
3.3378785919633298
 20
0.1923238586003217
 30
0.0
  0
POINT
  5
177
  8
DEFPOINTS
 62
     0
 10
4.0
 20
0.0
 30
0.0
  0
POINT
  5
178
  8
DEFPOINTS
 62
     0
 10
2.6249999999999991
 20
0.0
 30
0.0
  0
POINT
  5
179
  8
DEFPOINTS
 62
     0
 10
4.0
 20
0.0
 30
0.0
  0
POINT
  5
17A
  8
DEFPOINTS
 62
     0
 10
2.25
 20
1.984313483298443
 30
0.0
  0
ENDBLK
  5
16E
  8
0
  0
ENDSEC
  0
SECTION
  2
ENTITIES
  0
LINE
  5
41
  8
0
 10
4.0
 20
0.0
 30
0.0
 11
2.25
 21
-1.984313483298443
 31
0.0
  0
LINE
  5
42
  8
0
 10
4.0
 20
0.0
 30
0.0
 11
2.25
 21
1.984313483298443
 31
0.0
  0
CIRCLE
  5
44
  8
0
 10
4.0
 20
0.0
 30
0.0
 40
2.6457513110645903
  0
CIRCLE
  5
46
  8
0
 10
0.0
 20
0.0
 30
0.0
 40
3.0
  0
TEXT
  5
4F
  8
A
 10
1.0360771691798543
 20
-0.2303887972606944
 30
0.0
 40
0.2
  1
a
  0
TEXT
  5
56
  8
B
 10
3.2322403045144186
 20
-0.2705788697011543
 30
0.0
 40
0.2
  1
b
  0
TEXT
  5
5C
  8
H
 10
2.3455882267484887
 20
0.6679689957108331
 30
0.0
 40
0.2
  1
h
  0
TEXT
  5
64
  8
0
 10
-0.3284506570923043
 20
-0.0739334606736257
 30
0.0
 40
0.2
  1
c
  0
TEXT
  5
6D
  8
0
 10
4.1238525561894033
 20
-0.0531618136025927
 30
0.0
 40
0.2
  1
p
  0
TEXT
  5
79
  8
0
 10
2.1015714677740505
 20
2.185072440363597
 30
0.0
 40
0.2
  1
t0
  0
TEXT
  5
7F
  8
0
 10
2.1220818237398897
 20
-2.433140442808948
 30
0.0
 40
0.2
  1
t1
  0
POLYLINE
  5
BE
  8
0
 66
     1
 10
0.0
 20
0.0
 30
0.0
 70
     1
 40
0.03125
 41
0.03125
  0
VERTEX
  5
2A5
  8
0
 10
-0.015625
 20
0.0
 30
0.0
 42
1.0
  0
VERTEX
  5
2A6
  8
0
 10
0.015625
 20
0.0
 30
0.0
 42
1.0
  0
SEQEND
  5
2A7
  8
0
  0
POLYLINE
  5
CB
  8
0
 66
     1
 10
0.0
 20
0.0
 30
0.0
 70
     1
 40
0.03125
 41
0.03125
  0
VERTEX
  5
2AE
  8
0
 10
3.984375
 20
0.0
 30
0.0
 42
1.0
  0
VERTEX
  5
2AF
  8
0
 10
4.015625
 20
0.0
 30
0.0
 42
1.0
  0
SEQEND
  5
2B0
  8
0
  0
POLYLINE
  5
D7
  8
0
 66
     1
 10
0.0
 20
0.0
 30
0.0
 70
     1
 40
0.03125
 41
0.03125
  0
VERTEX
  5
2B7
  8
0
 10
2.234375
 20
1.9843134832984419
 30
0.0
 42
1.0
  0
VERTEX
  5
2B8
  8
0
 10
2.265625
 20
1.9843134832984419
 30
0.0
 42
1.0
  0
SEQEND
  5
2B9
  8
0
  0
POLYLINE
  5
E3
  8
0
 66
     1
 10
0.0
 20
0.0
 30
0.0
 70
     1
 40
0.03125
 41
0.03125
  0
VERTEX
  5
2C0
  8
0
 10
2.234375
 20
-1.9843134832984419
 30
0.0
 42
1.0
  0
VERTEX
  5
2C1
  8
0
 10
2.265625
 20
-1.9843134832984419
 30
0.0
 42
1.0
  0
SEQEND
  5
2C2
  8
0
  0
TEXT
  5
EA
  8
0
 10
-3.1070954717005743
 20
-3.6382167408313038
 30
0.0
 40
0.2
  1
point tangent to circle using circle circle intersection
  0
LINE
  5
126
  8
0
 10
0.0
 20
0.0
 30
0.0
 11
2.25
 21
1.9843134832984419
 31
0.0
  0
LINE
  5
129
  8
0
 10
2.2278594569415375
 20
1.6314540263569053
 30
0.0
 11
2.4153594569415371
 21
1.7968134832984421
 31
0.0
  0
LINE
  5
12A
  8
0
 10
2.2278594569415375
 20
1.6314540263569053
 30
0.0
 11
2.0625
 21
1.8189540263569062
 31
0.0
  0
TEXT
  5
18C
  8
0
 10
0.7987336233068805
 20
1.093397199879564
 30
0.0
 40
0.2
  1
cr
  0
LINE
  5
1FC
  8
A
 10
0.0
 20
0.0
 30
0.0
 11
2.25
 21
0.0
 31
0.0
  0
LINE
  5
1FD
  8
H
 10
2.25
 20
1.9843134832984419
 30
0.0
 11
2.25
 21
0.0
 31
0.0
  0
LINE
  5
1FE
  8
B
 10
2.25
 20
0.0
 30
0.0
 11
4.0
 21
0.0
 31
0.0
  0
LINE
  5
1FF
  8
0
 10
2.25
 20
0.0
 30
0.0
 11
2.25
 21
-1.984313483298443
 31
0.0
  0
ENDSEC
  0
EOF
