  0
SECTION
  2
HEADER
  9
$ACADVER
  1
AC1015
  9
$ACADMAINTVER
 70
     6
  9
$DWGCODEPAGE
  3
ANSI_1252
  9
$INSBASE
 10
0.0
 20
0.0
 30
0.0
  9
$EXTMIN
 10
-0.0027215983546655
 20
-0.0008055272616785
 30
0.0
  9
$EXTMAX
 10
2.999662452274729
 20
3.152171179322986
 30
0.0
  9
$LIMMIN
 10
0.0
 20
0.0
  9
$LIMMAX
 10
12.0
 20
9.0
  9
$ORTHOMODE
 70
     0
  9
$REGENMODE
 70
     1
  9
$FILLMODE
 70
     1
  9
$QTEXTMODE
 70
     0
  9
$MIRRTEXT
 70
     1
  9
$LTSCALE
 40
1.0
  9
$ATTMODE
 70
     1
  9
$TEXTSIZE
 40
0.2
  9
$TRACEWID
 40
0.05
  9
$TEXTSTYLE
  7
Standard
  9
$CLAYER
  8
0
  9
$CELTYPE
  6
ByLayer
  9
$CECOLOR
 62
   256
  9
$CELTSCALE
 40
1.0
  9
$DISPSILH
 70
     0
  9
$DIMSCALE
 40
1.0
  9
$DIMASZ
 40
0.18
  9
$DIMEXO
 40
0.0625
  9
$DIMDLI
 40
0.38
  9
$DIMRND
 40
0.0
  9
$DIMDLE
 40
0.0
  9
$DIMEXE
 40
0.18
  9
$DIMTP
 40
0.0
  9
$DIMTM
 40
0.0
  9
$DIMTXT
 40
0.18
  9
$DIMCEN
 40
0.09
  9
$DIMTSZ
 40
0.0
  9
$DIMTOL
 70
     0
  9
$DIMLIM
 70
     0
  9
$DIMTIH
 70
     1
  9
$DIMTOH
 70
     1
  9
$DIMSE1
 70
     0
  9
$DIMSE2
 70
     0
  9
$DIMTAD
 70
     0
  9
$DIMZIN
 70
     0
  9
$DIMBLK
  1

  9
$DIMASO
 70
     1
  9
$DIMSHO
 70
     1
  9
$DIMPOST
  1

  9
$DIMAPOST
  1

  9
$DIMALT
 70
     0
  9
$DIMALTD
 70
     2
  9
$DIMALTF
 40
25.4
  9
$DIMLFAC
 40
1.0
  9
$DIMTOFL
 70
     0
  9
$DIMTVP
 40
0.0
  9
$DIMTIX
 70
     0
  9
$DIMSOXD
 70
     0
  9
$DIMSAH
 70
     0
  9
$DIMBLK1
  1

  9
$DIMBLK2
  1

  9
$DIMSTYLE
  2
Standard
  9
$DIMCLRD
 70
     0
  9
$DIMCLRE
 70
     0
  9
$DIMCLRT
 70
     0
  9
$DIMTFAC
 40
1.0
  9
$DIMGAP
 40
0.09
  9
$DIMJUST
 70
     0
  9
$DIMSD1
 70
     0
  9
$DIMSD2
 70
     0
  9
$DIMTOLJ
 70
     1
  9
$DIMTZIN
 70
     0
  9
$DIMALTZ
 70
     0
  9
$DIMALTTZ
 70
     0
  9
$DIMUPT
 70
     0
  9
$DIMDEC
 70
     3
  9
$DIMTDEC
 70
     3
  9
$DIMALTU
 70
     2
  9
$DIMALTTD
 70
     2
  9
$DIMTXSTY
  7
Standard
  9
$DIMAUNIT
 70
     0
  9
$DIMADEC
 70
     0
  9
$DIMALTRND
 40
0.0
  9
$DIMAZIN
 70
     0
  9
$DIMDSEP
 70
    46
  9
$DIMATFIT
 70
     3
  9
$DIMFRAC
 70
     0
  9
$DIMLDRBLK
  1

  9
$DIMLUNIT
 70
     2
  9
$DIMLWD
 70
    -2
  9
$DIMLWE
 70
    -2
  9
$DIMTMOVE
 70
     2
  9
$LUNITS
 70
     2
  9
$LUPREC
 70
     3
  9
$SKETCHINC
 40
0.1
  9
$FILLETRAD
 40
0.015
  9
$AUNITS
 70
     0
  9
$AUPREC
 70
     0
  9
$MENU
  1
.
  9
$ELEVATION
 40
0.0
  9
$PELEVATION
 40
0.0
  9
$THICKNESS
 40
0.0
  9
$LIMCHECK
 70
     0
  9
$CHAMFERA
 40
0.5
  9
$CHAMFERB
 40
0.5
  9
$CHAMFERC
 40
1.0
  9
$CHAMFERD
 40
0.0
  9
$SKPOLY
 70
     0
  9
$TDCREATE
 40
2456511.290228044
  9
$TDUCREATE
 40
2456511.290228044
  9
$TDUPDATE
 40
2456511.320821759
  9
$TDUUPDATE
 40
2456511.320821759
  9
$TDINDWG
 40
0.0000000116
  9
$TDUSRTIMER
 40
2456511.292210648
  9
$USRTIMER
 70
     1
  9
$ANGBASE
 50
0.0
  9
$ANGDIR
 70
     0
  9
$PDMODE
 70
     0
  9
$PDSIZE
 40
0.0
  9
$PLINEWID
 40
0.0
  9
$SPLFRAME
 70
     0
  9
$SPLINETYPE
 70
     6
  9
$SPLINESEGS
 70
     8
  9
$HANDSEED
  5
5E8
  9
$SURFTAB1
 70
     6
  9
$SURFTAB2
 70
     6
  9
$SURFTYPE
 70
     6
  9
$SURFU
 70
     6
  9
$SURFV
 70
     6
  9
$UCSBASE
  2

  9
$UCSNAME
  2

  9
$UCSORG
 10
0.0
 20
0.0
 30
0.0
  9
$UCSXDIR
 10
1.0
 20
0.0
 30
0.0
  9
$UCSYDIR
 10
0.0
 20
1.0
 30
0.0
  9
$UCSORTHOREF
  2

  9
$UCSORTHOVIEW
 70
     0
  9
$UCSORGTOP
 10
0.0
 20
0.0
 30
0.0
  9
$UCSORGBOTTOM
 10
0.0
 20
0.0
 30
0.0
  9
$UCSORGLEFT
 10
0.0
 20
0.0
 30
0.0
  9
$UCSORGRIGHT
 10
0.0
 20
0.0
 30
0.0
  9
$UCSORGFRONT
 10
0.0
 20
0.0
 30
0.0
  9
$UCSORGBACK
 10
0.0
 20
0.0
 30
0.0
  9
$PUCSBASE
  2

  9
$PUCSNAME
  2

  9
$PUCSORG
 10
0.0
 20
0.0
 30
0.0
  9
$PUCSXDIR
 10
1.0
 20
0.0
 30
0.0
  9
$PUCSYDIR
 10
0.0
 20
1.0
 30
0.0
  9
$PUCSORTHOREF
  2

  9
$PUCSORTHOVIEW
 70
     0
  9
$PUCSORGTOP
 10
0.0
 20
0.0
 30
0.0
  9
$PUCSORGBOTTOM
 10
0.0
 20
0.0
 30
0.0
  9
$PUCSORGLEFT
 10
0.0
 20
0.0
 30
0.0
  9
$PUCSORGRIGHT
 10
0.0
 20
0.0
 30
0.0
  9
$PUCSORGFRONT
 10
0.0
 20
0.0
 30
0.0
  9
$PUCSORGBACK
 10
0.0
 20
0.0
 30
0.0
  9
$USERI1
 70
     0
  9
$USERI2
 70
     0
  9
$USERI3
 70
     0
  9
$USERI4
 70
     0
  9
$USERI5
 70
     0
  9
$USERR1
 40
0.0
  9
$USERR2
 40
0.0
  9
$USERR3
 40
0.0
  9
$USERR4
 40
0.0
  9
$USERR5
 40
0.0
  9
$WORLDVIEW
 70
     1
  9
$SHADEDGE
 70
     3
  9
$SHADEDIF
 70
    70
  9
$TILEMODE
 70
     1
  9
$MAXACTVP
 70
    64
  9
$PINSBASE
 10
0.0
 20
0.0
 30
0.0
  9
$PLIMCHECK
 70
     0
  9
$PEXTMIN
 10
1.000000000000000E+20
 20
1.000000000000000E+20
 30
1.000000000000000E+20
  9
$PEXTMAX
 10
-1.000000000000000E+20
 20
-1.000000000000000E+20
 30
-1.000000000000000E+20
  9
$PLIMMIN
 10
0.0
 20
0.0
  9
$PLIMMAX
 10
0.0
 20
0.0
  9
$UNITMODE
 70
     0
  9
$VISRETAIN
 70
     1
  9
$PLINEGEN
 70
     0
  9
$PSLTSCALE
 70
     1
  9
$TREEDEPTH
 70
  3020
  9
$CMLSTYLE
  2
Standard
  9
$CMLJUST
 70
     0
  9
$CMLSCALE
 40
1.0
  9
$PROXYGRAPHICS
 70
     1
  9
$MEASUREMENT
 70
     0
  9
$CELWEIGHT
370
    -1
  9
$ENDCAPS
280
     0
  9
$JOINSTYLE
280
     0
  9
$LWDISPLAY
290
     0
  9
$INSUNITS
 70
     0
  9
$HYPERLINKBASE
  1

  9
$STYLESHEET
  1

  9
$XEDIT
290
     1
  9
$CEPSNTYPE
380
     0
  9
$PSTYLEMODE
290
     1
  9
$FINGERPRINTGUID
  2
{9C8202BC-C409-450F-DBFC-3B17E8FD4E16}
  9
$VERSIONGUID
  2
{FAEB1C32-E019-11D5-929B-00C0DF256EC4}
  9
$EXTNAMES
290
     1
  9
$PSVPSCALE
 40
0.0
  9
$OLESTARTUP
290
     0
  0
ENDSEC
  0
SECTION
  2
CLASSES
  0
CLASS
  1
ACDBDICTIONARYWDFLT
  2
AcDbDictionaryWithDefault
  3
ObjectDBX Classes
 90
        0
280
     0
281
     0
  0
CLASS
  1
SCALE
  2
AcDbScale
  3
ObjectDBX Classes
 90
     1153
280
     0
281
     0
  0
CLASS
  1
MATERIAL
  2
AcDbMaterial
  3
ObjectDBX Classes
 90
     1153
280
     0
281
     0
  0
CLASS
  1
VISUALSTYLE
  2
AcDbVisualStyle
  3
ObjectDBX Classes
 90
     4095
280
     0
281
     0
  0
CLASS
  1
TABLESTYLE
  2
AcDbTableStyle
  3
ObjectDBX Classes
 90
     4095
280
     0
281
     0
  0
CLASS
  1
RASTERVARIABLES
  2
AcDbRasterVariables
  3
ISM
 90
        0
280
     0
281
     0
  0
CLASS
  1
IMAGEDEF
  2
AcDbRasterImageDef
  3
ISM
 90
        0
280
     0
281
     0
  0
CLASS
  1
IMAGE
  2
AcDbRasterImage
  3
ISM
 90
      127
280
     0
281
     1
  0
CLASS
  1
IMAGEDEF_REACTOR
  2
AcDbRasterImageDefReactor
  3
ISM
 90
        1
280
     0
281
     0
  0
CLASS
  1
DICTIONARYVAR
  2
AcDbDictionaryVar
  3
ObjectDBX Classes
 90
        0
280
     0
281
     0
  0
CLASS
  1
ACDBPLACEHOLDER
  2
AcDbPlaceHolder
  3
ObjectDBX Classes
 90
        0
280
     0
281
     0
  0
CLASS
  1
LAYOUT
  2
AcDbLayout
  3
ObjectDBX Classes
 90
        0
280
     0
281
     0
  0
ENDSEC
  0
SECTION
  2
TABLES
  0
TABLE
  2
VPORT
  5
8
330
0
100
AcDbSymbolTable
 70
     1
  0
VPORT
  5
22
330
8
100
AcDbSymbolTableRecord
100
AcDbViewportTableRecord
  2
*ACTIVE
 70
     0
 10
0.0
 20
0.0
 11
1.0
 21
1.0
 12
1.498470426960032
 22
1.575682826030654
 13
0.0
 23
0.0
 14
10.0
 24
10.0
 15
10.0
 25
10.0
 16
0.0
 26
0.0
 36
1.0
 17
0.0
 27
0.0
 37
0.0
 40
3.216036240716358
 41
2.210691823899371
 42
50.0
 43
0.0
 44
0.0
 50
0.0
 51
0.0
 71
    16
 72
   100
 73
     1
 74
     1
 75
     0
 76
     0
 77
     0
 78
     0
281
     0
 65
     0
110
0.0
120
0.0
130
0.0
111
1.0
121
0.0
131
0.0
112
0.0
122
1.0
132
0.0
 79
     0
146
0.0
  0
ENDTAB
  0
TABLE
  2
LTYPE
  5
5
330
0
100
AcDbSymbolTable
 70
     1
  0
LTYPE
  5
14
330
5
100
AcDbSymbolTableRecord
100
AcDbLinetypeTableRecord
  2
ByBlock
 70
     0
  3

 72
    65
 73
     0
 40
0.0
  0
LTYPE
  5
15
330
5
100
AcDbSymbolTableRecord
100
AcDbLinetypeTableRecord
  2
ByLayer
 70
     0
  3

 72
    65
 73
     0
 40
0.0
  0
LTYPE
  5
16
330
5
100
AcDbSymbolTableRecord
100
AcDbLinetypeTableRecord
  2
CONTINUOUS
 70
     0
  3
Solid line
 72
    65
 73
     0
 40
0.0
  0
ENDTAB
  0
TABLE
  2
LAYER
  5
2
102
{ACAD_XDICTIONARY
360
302
102
}
330
0
100
AcDbSymbolTable
 70
     4
  0
LAYER
  5
10
330
2
100
AcDbSymbolTableRecord
100
AcDbLayerTableRecord
  2
0
 70
     0
 62
     7
  6
CONTINUOUS
370
    -3
390
F
  0
LAYER
  5
21
330
2
100
AcDbSymbolTableRecord
100
AcDbLayerTableRecord
  2
ALTE_DIN_1451_MITTELSCHRIFT_BY_PETER_WIEGEL
 70
     0
 62
     7
  6
CONTINUOUS
370
    -3
390
F
  0
LAYER
  5
30C
330
2
100
AcDbSymbolTableRecord
100
AcDbLayerTableRecord
  2
GEAR
 70
     0
 62
     7
  6
CONTINUOUS
370
    -3
390
F
1001
AcAecLayerStandard
1000

1000

  0
LAYER
  5
5D8
330
2
100
AcDbSymbolTableRecord
100
AcDbLayerTableRecord
  2
COLOR
 70
     0
 62
   134
  6
CONTINUOUS
370
    -3
390
F
1001
AcAecLayerStandard
1000

1000

  0
ENDTAB
  0
TABLE
  2
STYLE
  5
3
330
0
100
AcDbSymbolTable
 70
     1
  0
STYLE
  5
11
330
3
100
AcDbSymbolTableRecord
100
AcDbTextStyleTableRecord
  2
Standard
 70
     0
 40
0.0
 41
1.0
 50
0.0
 71
     0
 42
0.2
  3
txt
  4

  0
ENDTAB
  0
TABLE
  2
VIEW
  5
6
330
0
100
AcDbSymbolTable
 70
     0
  0
ENDTAB
  0
TABLE
  2
UCS
  5
7
330
0
100
AcDbSymbolTable
 70
     0
  0
ENDTAB
  0
TABLE
  2
APPID
  5
9
330
0
100
AcDbSymbolTable
 70
     2
  0
APPID
  5
12
330
9
100
AcDbSymbolTableRecord
100
AcDbRegAppTableRecord
  2
ACAD
 70
     0
  0
APPID
  5
30D
330
9
100
AcDbSymbolTableRecord
100
AcDbRegAppTableRecord
  2
AcAecLayerStandard
 70
     0
  0
ENDTAB
  0
TABLE
  2
DIMSTYLE
  5
A
330
0
100
AcDbSymbolTable
 70
     1
100
AcDbDimStyleTable
  0
DIMSTYLE
105
23
330
A
100
AcDbSymbolTableRecord
100
AcDbDimStyleTableRecord
  2
Standard
 70
     0
178
     0
340
11
  0
ENDTAB
  0
TABLE
  2
BLOCK_RECORD
  5
1
330
0
100
AcDbSymbolTable
 70
     0
  0
BLOCK_RECORD
  5
1D
330
1
100
AcDbSymbolTableRecord
100
AcDbBlockTableRecord
  2
*Model_Space
340
1E
  0
BLOCK_RECORD
  5
1B
330
1
100
AcDbSymbolTableRecord
100
AcDbBlockTableRecord
  2
*Paper_Space
340
1C
  0
ENDTAB
  0
ENDSEC
  0
SECTION
  2
BLOCKS
  0
BLOCK
  5
2C3
330
1D
100
AcDbEntity
  8
0
100
AcDbBlockBegin
  2
*Model_Space
 70
     0
 10
0.0
 20
0.0
 30
0.0
  3
*Model_Space
  1

  0
ENDBLK
  5
2C4
330
1D
100
AcDbEntity
  8
0
100
AcDbBlockEnd
  0
BLOCK
  5
2C5
330
1B
100
AcDbEntity
 67
     1
  8
0
100
AcDbBlockBegin
  2
*Paper_Space
 70
     0
 10
0.0
 20
0.0
 30
0.0
  3
*Paper_Space
  1

  0
ENDBLK
  5
2C6
330
1B
100
AcDbEntity
 67
     1
  8
0
100
AcDbBlockEnd
  0
ENDSEC
  0
SECTION
  2
ENTITIES
  0
LWPOLYLINE
  5
24
102
{ACAD_REACTORS
330
5DE
102
}
330
1D
100
AcDbEntity
  8
ALTE_DIN_1451_MITTELSCHRIFT_BY_PETER_WIEGEL
100
AcDbPolyline
 90
       17
 70
     1
 43
0.0
 10
2.191249491308823
 20
0.0039284209181361
 10
2.191249491308823
 20
0.3142169766339404
 10
2.253652683121088
 20
0.3142169766339404
 10
2.253652683121088
 20
0.281079109850479
 10
2.254800306922255
 20
0.281079109850479
 42
-0.1205914814429636
 10
2.289550355621597
 20
0.3086220810784903
 42
-0.1078551573112991
 10
2.335565479553194
 20
0.3178030714878275
 42
-0.0894108660860864
 10
2.368837388796632
 20
0.311814311443817
 42
-0.0775945873960152
 10
2.400401633823932
 20
0.293847113212744
 10
2.355359694875724
 20
0.2400520180082744
 42
0.0727228877532319
 10
2.334840181310855
 20
0.2515640618825421
 42
0.0898359279899699
 10
2.314045238033708
 20
0.255401715873645
 42
0.1793086496544352
 10
2.272372722565726
 20
0.2399804062830815
 42
0.1329646301789423
 10
2.25832580723944
 20
0.2198786277818381
 42
0.090159639322796
 10
2.253652683121088
 20
0.1904168295582754
 10
2.253652683121088
 20
0.0039284209181361
 10
2.191249491308823
 20
0.0039284209181361
  0
LWPOLYLINE
  5
37
102
{ACAD_REACTORS
330
5DE
102
}
330
1D
100
AcDbEntity
  8
ALTE_DIN_1451_MITTELSCHRIFT_BY_PETER_WIEGEL
100
AcDbPolyline
 90
       17
 70
     1
 43
0.0
 10
1.263104259510316
 20
0.255401715873645
 42
0.0524023517723359
 10
1.243218234283692
 20
0.2535141042454854
 42
0.0770365346736389
 10
1.227757446434368
 20
0.2478521874600473
 42
0.202195944289458
 10
1.210102401877213
 20
0.2252045203182944
 42
0.0713392200695875
 10
1.20127947009384
 20
0.1594309869267625
 42
0.071235834789976
 10
1.210102401877213
 20
0.0926539712834902
 42
0.202195944289458
 10
1.227757446434368
 20
0.0700064877615456
 42
0.07703653467364
 10
1.243218234283692
 20
0.0643445709761075
 42
0.0524023517723386
 10
1.263104259510316
 20
0.06245723477766
 42
0.055304691325365
 10
1.282668950072614
 20
0.064420773196505
 42
0.080077636716117
 10
1.297909394152113
 20
0.0703112966431357
 42
0.1983590514801946
 10
1.31538999989149
 20
0.0938732068098503
 42
0.0688465827010731
 10
1.324212931674864
 20
0.1594309869267625
 42
0.068870285296776
 10
1.31538999989149
 20
0.2239852847919346
 42
0.1983590514801941
 10
1.297909394152113
 20
0.2475473785784572
 42
0.0800776367161173
 10
1.282668950072614
 20
0.2534379020250879
 42
0.0553046913253645
 10
1.263104259510316
 20
0.255401715873645
  0
LWPOLYLINE
  5
4A
102
{ACAD_REACTORS
330
5DE
102
}
330
1D
100
AcDbEntity
  8
ALTE_DIN_1451_MITTELSCHRIFT_BY_PETER_WIEGEL
100
AcDbPolyline
 90
       17
 70
     1
 43
0.0
 10
1.709382924124928
 20
0.0039284209181361
 10
1.644399874007642
 20
0.2209730018386311
 10
1.643243069216066
 20
0.2209730018386311
 10
1.578406914945327
 20
0.0039284209181361
 10
1.523320972489303
 20
0.0039284209181361
 10
1.424193819039692
 20
0.3142169766339404
 10
1.490186778102006
 20
0.3142169766339404
 10
1.549716319916148
 20
0.0968864078621945
 10
1.550863943717315
 20
0.0968864078621945
 10
1.621153606291199
 20
0.3142169766339404
 10
1.666627051788646
 20
0.3142169766339404
 10
1.736778999506391
 20
0.0968864078621945
 10
1.738073519154108
 20
0.0968864078621945
 10
1.797456165121701
 20
0.3142169766339404
 10
1.863586839040155
 20
0.3142169766339404
 10
1.764321970734403
 20
0.0039284209181361
 10
1.709382924124928
 20
0.0039284209181361
  0
LWPOLYLINE
  5
5D
102
{ACAD_REACTORS
330
5DE
102
}
330
1D
100
AcDbEntity
  8
ALTE_DIN_1451_MITTELSCHRIFT_BY_PETER_WIEGEL
100
AcDbPolyline
 90
       29
 70
     1
 43
0.0
 10
0.860425680907335
 20
0.6293094136584234
 10
0.6671942938610581
 20
0.6293094136584234
 42
0.0868702025178599
 10
0.6723944068289067
 20
0.5957951262681793
 42
0.1220295986821948
 10
0.6879947457324522
 20
0.5718562446352573
 42
0.1007969688050023
 10
0.7116642571067644
 20
0.5574930441893702
 42
0.0871407810872272
 10
0.7410728055859528
 20
0.5527052495008049
 42
0.1051099237725128
 10
0.7774019846356998
 20
0.5602007018808917
 42
0.0953939725078868
 10
0.8092122802059708
 20
0.5826874262607689
 10
0.8544001969016871
 20
0.5440980709920513
 42
-0.056475003924799
 10
0.8298695086269794
 20
0.5210021878985147
 42
-0.0649660632504046
 10
0.8024706789483945
 20
0.5056526736529523
 42
-0.0958434068468629
 10
0.74222042938712
 20
0.4941764356412808
 42
-0.0812508364227582
 10
0.6951852974210452
 20
0.5019049933678608
 42
-0.0706814247424046
 10
0.6496209601185461
 20
0.5250905747376966
 42
-0.0876189858848153
 10
0.6300085284061202
 20
0.5445956806722374
 42
-0.0700536146184687
 10
0.6159992551405128
 20
0.5721969511893479
 42
-0.0499326165879636
 10
0.6075940584207645
 20
0.6078947535286445
 42
-0.0348707950150214
 10
0.604792020147835
 20
0.6516880777811827
 42
-0.0334315285857525
 10
0.6073792232451859
 20
0.6935175881851634
 42
-0.0461216498899442
 10
0.6151389963391578
 20
0.7283456753029836
 42
-0.0623407631015063
 10
0.6280722575287909
 20
0.7561705029365615
 42
-0.0770176060985048
 10
0.6461780887150446
 20
0.7769939072839791
 42
-0.0794156169769865
 10
0.6885153078886618
 20
0.8029770282414439
 42
-0.0963100627148502
 10
0.7327520739779706
 20
0.8116374564945716
 42
-0.0954338200542119
 10
0.7806300208636228
 20
0.8027796369476432
 42
-0.0932031714153835
 10
0.8221235070186217
 20
0.7762052602078169
 42
-0.1125949912348005
 10
0.8508499079103965
 20
0.7346034383659876
 42
-0.0960457789409124
 10
0.860425680907335
 20
0.6806651197111324
 10
0.860425680907335
 20
0.6293094136584234
  0
LWPOLYLINE
  5
7C
102
{ACAD_REACTORS
330
5DE
102
}
330
1D
100
AcDbEntity
  8
ALTE_DIN_1451_MITTELSCHRIFT_BY_PETER_WIEGEL
100
AcDbPolyline
 90
       29
 70
     1
 43
0.0
 10
-0.0027215983546655
 20
0.6532653719335066
 42
-0.0257981156144632
 10
-0.0007670573064218
 20
0.6968218266334838
 42
-0.0499927709501848
 10
0.0050965658383096
 20
0.7276460838337921
 42
-0.1082712953292845
 10
0.0308463060195691
 20
0.7719012119039197
 42
-0.0457179607972288
 10
0.046070316126236
 20
0.7856552536361476
 42
-0.033278346857533
 10
0.0662076250603637
 20
0.7987987595061545
 42
-0.0759012961735007
 10
0.0922623577430214
 20
0.8084277822474673
 42
-0.0533897117144911
 10
0.1252386390952784
 20
0.8116374564945716
 42
-0.0538058025680771
 10
0.1578201378599339
 20
0.8084277822474673
 42
-0.0748706698094477
 10
0.1838390646799952
 20
0.7987987595061545
 42
-0.0329852559212291
 10
0.2041198724942208
 20
0.7856552536361476
 42
-0.0452977604678138
 10
0.2194870142413693
 20
0.7719012119039197
 42
-0.1089668185394258
 10
0.2451653263172441
 20
0.7276460838337921
 42
-0.0495673130323328
 10
0.2509750570482727
 20
0.6968218266334838
 42
-0.0255624530899584
 10
0.2529113279256019
 20
0.6532653719335066
 42
-0.0252053844060088
 10
0.2509750570482727
 20
0.608956994119005
 42
-0.0498092287486814
 10
0.2451653263172441
 20
0.5778811777814807
 42
-0.1089668185394257
 10
0.2194870142413693
 20
0.5336260497113532
 42
-0.0478519695037665
 10
0.2041198724942208
 20
0.5197290599584519
 42
-0.035401252950324
 10
0.1838390646799952
 20
0.5067285939190223
 42
-0.0735950710165078
 10
0.1578201378599339
 20
0.4973144981631922
 42
-0.0526269064910445
 10
0.1252386390952784
 20
0.4941764356412808
 42
-0.052219442051085
 10
0.0922623577430214
 20
0.4973144981631922
 42
-0.0746077400657304
 10
0.0662076250603637
 20
0.5067285939190223
 42
-0.0357026805265626
 10
0.046070316126236
 20
0.5197290599584519
 42
-0.0482702899519221
 10
0.0308463060195691
 20
0.5336260497113532
 42
-0.1082712953292837
 10
0.0050965658383096
 20
0.5778811777814807
 42
-0.0502372097420625
 10
-0.0007670573064218
 20
0.608956994119005
 42
-0.0254377871406264
 10
-0.0027215983546655
 20
0.6532653719335066
  0
LWPOLYLINE
  5
9B
102
{ACAD_REACTORS
330
5DE
102
}
330
1D
100
AcDbEntity
  8
ALTE_DIN_1451_MITTELSCHRIFT_BY_PETER_WIEGEL
100
AcDbPolyline
 90
       29
 70
     1
 43
0.0
 10
1.639266719379009
 20
0.6532653719335066
 42
-0.0257981156144632
 10
1.641222270336198
 20
0.6968218266334838
 42
-0.0499927709501849
 10
1.647079742217354
 20
0.7276460838337921
 42
-0.1082712953292843
 10
1.672832420315545
 20
0.7719012119039197
 42
-0.0457179607972288
 10
1.688054502414226
 20
0.7856552536361476
 42
-0.033278346857533
 10
1.708197595372311
 20
0.7987987595061545
 42
-0.0759012961735007
 10
1.734253246154011
 20
0.8084277822474673
 42
-0.0533897117144912
 10
1.76722218271394
 20
0.8116374564945716
 42
-0.0538058025680771
 10
1.799805517676677
 20
0.8084277822474673
 42
-0.0748706698094476
 10
1.825824444496738
 20
0.7987987595061545
 42
-0.0329852559212291
 10
1.846105252310964
 20
0.7856552536361476
 42
-0.0452977604678137
 10
1.861474230256194
 20
0.7719012119039197
 42
-0.1089668185394257
 10
1.88715346043111
 20
0.7276460838337921
 42
-0.0495673130323327
 10
1.892965027360221
 20
0.6968218266334838
 42
-0.0255624530899584
 10
1.894902216336591
 20
0.6532653719335066
 42
-0.0252053844060088
 10
1.892965027360221
 20
0.608956994119005
 42
-0.0498092287486814
 10
1.88715346043111
 20
0.5778811777814807
 42
-0.1089668185394259
 10
1.861474230256194
 20
0.5336260497113532
 42
-0.0478519695037664
 10
1.846105252310964
 20
0.5197290599584519
 42
-0.035401252950324
 10
1.825824444496738
 20
0.5067285939190223
 42
-0.0735950710165078
 10
1.799805517676677
 20
0.4973144981631922
 42
-0.0526269064910446
 10
1.76722218271394
 20
0.4941764356412808
 42
-0.0522194420510851
 10
1.734253246154011
 20
0.4973144981631922
 42
-0.0746077400657305
 10
1.708197595372311
 20
0.5067285939190223
 42
-0.0357026805265626
 10
1.688054502414226
 20
0.5197290599584519
 42
-0.0482702899519221
 10
1.672832420315545
 20
0.5336260497113532
 42
-0.1082712953292837
 10
1.647079742217354
 20
0.5778811777814807
 42
-0.0502372097420626
 10
1.641222270336198
 20
0.608956994119005
 42
-0.0254377871406263
 10
1.639266719379009
 20
0.6532653719335066
  0
LWPOLYLINE
  5
BA
102
{ACAD_REACTORS
330
5DE
102
}
330
1D
100
AcDbEntity
  8
ALTE_DIN_1451_MITTELSCHRIFT_BY_PETER_WIEGEL
100
AcDbPolyline
 90
       34
 70
     1
 43
0.0
 10
0.7929008671516788
 20
0.0027807971169689
 10
0.7929008671516788
 20
0.0301802694648823
 10
0.7916063475039614
 20
0.0301802694648823
 42
-0.1788446719591413
 10
0.765642506626357
 20
0.0069409793011517
 42
-0.0593266036088869
 10
0.7442691609534196
 20
0.0011310649503151
 42
-0.0393918347137841
 10
0.7171576962746466
 20
-0.0008055272616785
 42
-0.0791850745360966
 10
0.6720790333648026
 20
0.0066181756783597
 42
-0.1131544884131254
 10
0.6395507843445207
 20
0.026593990991187
 42
-0.107519180682159
 10
0.6180305428250343
 20
0.0566115145642268
 42
-0.1019141116232149
 10
0.6108601893153427
 20
0.0938732068098503
 42
-0.0916438423518139
 10
0.6170665388320549
 20
0.1296294920580543
 42
-0.0990552000081782
 10
0.6356764063917808
 20
0.1591445400259912
 42
-0.1182306787928403
 10
0.6663041903973292
 20
0.1789773155082413
 42
-0.084946089744979
 10
0.7088397189637874
 20
0.1859704759030334
 10
0.7929008671516788
 20
0.1859704759030334
 10
0.7929008671516788
 20
0.2188209776866823
 42
0.1190656581581993
 10
0.7891366610838499
 20
0.2368239817803515
 42
0.1361049110354776
 10
0.7775502511872667
 20
0.2495203734174239
 42
0.0936281473307572
 10
0.7581508184523371
 20
0.2569073983007764
 42
0.0541679938755036
 10
0.7309291818886527
 20
0.2589878107275323
 42
0.0336538955157517
 10
0.7112084144893971
 20
0.2577685752011722
 42
0.048004597846939
 10
0.6950682333497822
 20
0.2541108686220923
 42
0.1674246677769932
 10
0.6738326025329853
 20
0.2347444874526366
 10
0.6260639094332041
 20
0.2723287078913399
 42
-0.1303581469195483
 10
0.6688840487023531
 20
0.3067932277889505
 42
-0.0596893221994114
 10
0.6963719339879075
 20
0.315123140387342
 42
-0.0492377675244966
 10
0.727917817034391
 20
0.3175166245870562
 42
-0.0620105571541232
 10
0.7789182187582577
 20
0.3122807057566113
 42
-0.0865709889190871
 10
0.8188647080292837
 20
0.2954253254641093
 42
-0.1418190577697349
 10
0.8443327754247849
 20
0.2635425000696043
 42
-0.0555882503967457
 10
0.8508696405962333
 20
0.2414420199562479
 42
-0.0426508990187015
 10
0.853293422064298
 20
0.2152348828327955
 10
0.853293422064298
 20
0.0027807971169689
 10
0.7929008671516788
 20
0.0027807971169689
  0
LWPOLYLINE
  5
DE
102
{ACAD_REACTORS
330
5DE
102
}
330
1D
100
AcDbEntity
  8
ALTE_DIN_1451_MITTELSCHRIFT_BY_PETER_WIEGEL
100
AcDbPolyline
 90
       10
 70
     1
 43
0.0
 10
0.6671942938610581
 20
0.6806651197111324
 10
0.7981666306444976
 20
0.6806651197111324
 42
0.0779570920931811
 10
0.7925184853446733
 20
0.7115619067356744
 42
0.1076734836518498
 10
0.7784421908490776
 20
0.7342453797400237
 42
0.1031173488016099
 10
0.7578749361340805
 20
0.7481775326861926
 42
0.0975535680592506
 10
0.7327520739779706
 20
0.7528221957342764
 42
0.0965452862482692
 10
0.7072895151767152
 20
0.7481775326861926
 42
0.1036126453406153
 10
0.6865606750305138
 20
0.7342453797400237
 42
0.1097446660338644
 10
0.6725376302792923
 20
0.7115619067356744
 42
0.0795661696022038
 10
0.6671942938610581
 20
0.6806651197111324
  0
LWPOLYLINE
  5
EA
102
{ACAD_REACTORS
330
5DE
102
}
330
1D
100
AcDbEntity
  8
ALTE_DIN_1451_MITTELSCHRIFT_BY_PETER_WIEGEL
100
AcDbPolyline
 90
       16
 70
     1
 43
0.0
 10
0.7929008671516788
 20
0.1118055172773673
 10
0.7929008671516788
 20
0.1346138517512834
 10
0.7201690611289098
 20
0.1346138517512834
 42
0.0550483776921557
 10
0.6969319744028781
 20
0.1316639995327636
 42
0.0928917479410939
 10
0.6804337346372993
 20
0.1243926551285686
 42
0.1310744176387854
 10
0.6706743418321741
 20
0.1127998185386985
 42
0.1148996380541929
 10
0.6676629769779101
 20
0.0968864078621945
 42
0.1191405752084076
 10
0.671069124419776
 20
0.0823969687981787
 42
0.1016034466107118
 10
0.6812967477357765
 20
0.0699167894852464
 42
0.1191217870935345
 10
0.6987589914943357
 20
0.0607716967484098
 42
0.0676879976634404
 10
0.7247595563335789
 20
0.0577232406928936
 42
0.04582225523275
 10
0.757287805353859
 20
0.0597674800174366
 42
0.0966081652498408
 10
0.7785509791418845
 20
0.0670477299823285
 42
0.096862891012585
 10
0.7848307765818707
 20
0.0735031597688458
 42
0.0699258232993679
 10
0.789311099901628
 20
0.0831149222481891
 42
0.0758403426160533
 10
0.7929008671516788
 20
0.1118055172773673
  0
LWPOLYLINE
  5
FC
102
{ACAD_REACTORS
330
5DE
102
}
330
1D
100
AcDbEntity
  8
ALTE_DIN_1451_MITTELSCHRIFT_BY_PETER_WIEGEL
100
AcDbPolyline
 90
       33
 70
     1
 43
0.0
 10
2.67965833186961
 20
0.5889984390681471
 10
2.725710179762845
 20
0.5476844412756505
 42
-0.0910263793969497
 10
2.677363084267275
 20
0.5092390439365515
 42
-0.0654123845074478
 10
2.647561589398568
 20
0.4979421106675745
 42
-0.0586288432232139
 10
2.614106060346943
 20
0.4941764356412808
 42
-0.0908965301689512
 10
2.562885314853252
 20
0.5033216201880215
 42
-0.0856582021495506
 10
2.516842647950427
 20
0.5307569902084353
 42
-0.0708756240651591
 10
2.497819635822279
 20
0.5520866343670239
 42
-0.0618848708194396
 10
2.484240951006869
 20
0.5794951958954422
 42
-0.0487758127463616
 10
2.476088231523379
 20
0.6129828584134993
 42
-0.036841509722841
 10
2.473370658362215
 20
0.6525483365825375
 42
-0.0367992083687527
 10
2.476088231523379
 20
0.6921367672275991
 42
-0.0485902412360195
 10
2.484240951006869
 20
0.7256914509756442
 42
-0.0614794683059301
 10
2.497819635822279
 20
0.7532123878266732
 42
-0.070297217936599
 10
2.516842647950427
 20
0.7746986596816448
 42
-0.0860567215950304
 10
2.562885314853252
 20
0.8024032163408603
 42
-0.0917313188095367
 10
2.614106060346943
 20
0.8116374564945716
 42
-0.0591727438728236
 10
2.647561589398568
 20
0.807836526465106
 42
-0.0658766530059889
 10
2.677363084267275
 20
0.7964319001786275
 42
-0.0900003612064375
 10
2.725710179762845
 20
0.7578432793891428
 10
2.67965833186961
 20
0.7168152694478971
 42
0.1041943988437727
 10
2.650683126137743
 20
0.7411311225470265
 42
0.1208731040260941
 10
2.616539022805417
 20
0.7492361008803892
 42
0.0952375107217199
 10
2.581201390719879
 20
0.7431931729929635
 42
0.1263641356660613
 10
2.555962848084611
 20
0.7250643893306865
 42
0.107046822551326
 10
2.540823394899614
 20
0.6948488317945172
 42
0.0675014957516059
 10
2.535773850174479
 20
0.6525483365825375
 42
0.0677941413090982
 10
2.540823394899614
 20
0.6104360516739491
 42
0.1073285313124565
 10
2.555962848084611
 20
0.5803554546967971
 42
0.1261844021142026
 10
2.581201390719879
 20
0.5623076473699304
 42
0.0948390251531012
 10
2.616539022805417
 20
0.5562916197844041
 42
0.1218126509250044
 10
2.650830021984292
 20
0.564468485272672
 42
0.1057723176666092
 10
2.67965833186961
 20
0.5889984390681471
  0
LWPOLYLINE
  5
11F
102
{ACAD_REACTORS
330
5DE
102
}
330
1D
100
AcDbEntity
  8
ALTE_DIN_1451_MITTELSCHRIFT_BY_PETER_WIEGEL
100
AcDbPolyline
 90
       21
 70
     1
 43
0.0
 10
0.1907964192121909
 20
0.6525483365825375
 42
0.0176407976222261
 10
0.189935242311795
 20
0.6813830731611425
 42
0.0411654350311891
 10
0.1873535478086894
 20
0.7001747243309737
 42
0.0885844081302107
 10
0.1754467213468201
 20
0.7264268483074321
 42
0.1336323383077399
 10
0.1547178812006189
 20
0.74353378773715
 42
0.1073676519494458
 10
0.1252386390952784
 20
0.7492361008803892
 42
0.1072564929145666
 10
0.0955436437153185
 20
0.74353378773715
 42
0.1370121455355036
 10
0.0750296387446957
 20
0.7264268483074321
 42
0.099637071121625
 10
0.0629795888324408
 20
0.7001747243309737
 42
0.0377250380798565
 10
0.0606127295049136
 20
0.6815621024741247
 42
0.0164334450933055
 10
0.0598240824287516
 20
0.6532653719335066
 42
0.0160298403747378
 10
0.0606127295049136
 20
0.6241809124157678
 42
0.0374671590677509
 10
0.0629795888324408
 20
0.6052093138339136
 42
0.1031577480142433
 10
0.0750296387446957
 20
0.5791004133078408
 42
0.1370121455355033
 10
0.0955436437153185
 20
0.5619938411177392
 42
0.1072564929145666
 10
0.1252386390952784
 20
0.5562916197844041
 42
0.1073676519494457
 10
0.1547178812006189
 20
0.5619938411177392
 42
0.1336323383077397
 10
0.1754467213468201
 20
0.5791004133078408
 42
0.09141179079555
 10
0.1873535478086894
 20
0.6050651722844871
 42
0.041137438458573
 10
0.189935242311795
 20
0.6238219356907626
 42
0.0176968278234434
 10
0.1907964192121909
 20
0.6525483365825375
  0
LWPOLYLINE
  5
136
102
{ACAD_REACTORS
330
5DE
102
}
330
1D
100
AcDbEntity
  8
ALTE_DIN_1451_MITTELSCHRIFT_BY_PETER_WIEGEL
100
AcDbPolyline
 90
       21
 70
     1
 43
0.0
 10
1.832783635227016
 20
0.6525483365825375
 42
0.0176407976222261
 10
1.831920622128539
 20
0.6813830731611425
 42
0.0411654350311891
 10
1.829340763823515
 20
0.7001747243309737
 42
0.0885844081302108
 10
1.817433019262604
 20
0.7264268483074321
 42
0.1336323383077397
 10
1.796702342918321
 20
0.74353378773715
 42
0.1073676519494459
 10
1.76722218271394
 20
0.7492361008803892
 42
0.1072564929145666
 10
1.737530859730144
 20
0.74353378773715
 42
0.1370121455355035
 10
1.717020527155684
 20
0.7264268483074321
 42
0.099637071121625
 10
1.704965886748225
 20
0.7001747243309737
 42
0.0377250380798565
 10
1.702597191222616
 20
0.6815621024741247
 42
0.0164334450933055
 10
1.701807626047413
 20
0.6532653719335066
 42
0.0160298403747378
 10
1.702597191222616
 20
0.6241809124157678
 42
0.0374671590677508
 10
1.704965886748225
 20
0.6052093138339136
 42
0.1031577480142433
 10
1.717020527155684
 20
0.5791004133078408
 42
0.1370121455355033
 10
1.737530859730144
 20
0.5619938411177392
 42
0.1072564929145667
 10
1.76722218271394
 20
0.5562916197844041
 42
0.1073676519494456
 10
1.796702342918321
 20
0.5619938411177392
 42
0.1336323383077396
 10
1.817433019262604
 20
0.5791004133078408
 42
0.0914117907955502
 10
1.829340763823515
 20
0.6050651722844871
 42
0.0411374384585731
 10
1.831920622128539
 20
0.6238219356907626
 42
0.0176968278234434
 10
1.832783635227016
 20
0.6525483365825375
  0
LWPOLYLINE
  5
14D
102
{ACAD_REACTORS
330
5DE
102
}
330
1D
100
AcDbEntity
  8
ALTE_DIN_1451_MITTELSCHRIFT_BY_PETER_WIEGEL
100
AcDbPolyline
 90
       25
 70
     1
 43
0.0
 10
0.9149918183421167
 20
0.4977628059248802
 10
0.9149918183421167
 20
0.8080513616406846
 10
0.9773950101543809
 20
0.8080513616406846
 10
0.9773950101543809
 20
0.7749134948572232
 10
0.9785426339555482
 20
0.7749134948572232
 42
-0.1205914814429634
 10
1.013292682654889
 20
0.8024564660852345
 42
-0.1078551573112992
 10
1.059307806586487
 20
0.8116374564945716
 42
-0.0948400384199731
 10
1.094829058480212
 20
0.8047700756683875
 42
-0.0777545667772036
 10
1.129092514687858
 20
0.784167015090794
 42
-0.1246063147848697
 10
1.154321876332716
 20
0.750401168563334
 42
-0.0546598235476684
 10
1.16062921674393
 20
0.728798298130164
 42
-0.0448859147529462
 10
1.162731663547669
 20
0.7040481841846731
 10
1.162731663547669
 20
0.4977628059248802
 10
1.100328471735405
 20
0.4977628059248802
 10
1.100328471735405
 20
0.6825306969623097
 42
0.0859305819873
 10
1.09595832030056
 20
0.7105033385414778
 42
0.1114112573923557
 10
1.082829504015208
 20
0.7315911554126842
 42
0.1025995141421234
 10
1.063173003548818
 20
0.7448246349887027
 42
0.0971153457709267
 10
1.039219799570857
 20
0.7492361008803892
 42
0.0956029881287609
 10
1.014724917158745
 20
0.7448246349887027
 42
0.1040957375294437
 10
0.9948939778745775
 20
0.7315911554126842
 42
0.111411257392356
 10
0.9817651615892254
 20
0.7105033385414778
 42
0.0859305819872998
 10
0.9773950101543809
 20
0.6825306969623097
 10
0.9773950101543809
 20
0.4977628059248802
 10
0.9149918183421167
 20
0.4977628059248802
  0
LWPOLYLINE
  5
168
102
{ACAD_REACTORS
330
5DE
102
}
330
1D
100
AcDbEntity
  8
ALTE_DIN_1451_MITTELSCHRIFT_BY_PETER_WIEGEL
100
AcDbPolyline
 90
       34
 70
     1
 43
0.0
 10
2.057459502103581
 20
0.0027807971169689
 10
2.057459502103581
 20
0.0301802694648823
 10
2.056164982455865
 20
0.0301802694648823
 42
-0.1788446719591413
 10
2.030201141578259
 20
0.0069409793011517
 42
-0.059326603608887
 10
2.008827795905322
 20
0.0011310649503151
 42
-0.0393918347137842
 10
1.981716331226549
 20
-0.0008055272616785
 42
-0.0791850745360966
 10
1.936637668316705
 20
0.0066181756783597
 42
-0.1131544884131251
 10
1.904109419296424
 20
0.026593990991187
 42
-0.1075191806821587
 10
1.882589177776937
 20
0.0566115145642268
 42
-0.1019141116232143
 10
1.875418824267246
 20
0.0938732068098503
 42
-0.0916438423518139
 10
1.881625173783957
 20
0.1296294920580543
 42
-0.0990552000081788
 10
1.900235041343683
 20
0.1591445400259912
 42
-0.1182306787928403
 10
1.930862825349231
 20
0.1789773155082413
 42
-0.0849460897449791
 10
1.973398353915691
 20
0.1859704759030334
 10
2.057459502103581
 20
0.1859704759030334
 10
2.057459502103581
 20
0.2188209776866823
 42
0.1190656581581442
 10
2.053695296035754
 20
0.2368239817803515
 42
0.1361049110354797
 10
2.042108886139169
 20
0.2495203734174239
 42
0.0936281473307568
 10
2.02270945340424
 20
0.2569073983007764
 42
0.054167993875501
 10
1.995487816840555
 20
0.2589878107275323
 42
0.0336538955157517
 10
1.9757670494413
 20
0.2577685752011722
 42
0.0480045978469389
 10
1.959626868301684
 20
0.2541108686220923
 42
0.1674246677769932
 10
1.938391237484888
 20
0.2347444874526366
 10
1.890622544385107
 20
0.2723287078913399
 42
-0.1303581469195489
 10
1.933442683654255
 20
0.3067932277889505
 42
-0.0596893221994112
 10
1.960930568939811
 20
0.315123140387342
 42
-0.049237767524494
 10
1.992476451986293
 20
0.3175166245870562
 42
-0.0620105571541233
 10
2.04347685371016
 20
0.3122807057566113
 42
-0.0865709889190869
 10
2.083423342981187
 20
0.2954253254641093
 42
-0.1418190577697349
 10
2.108891410376688
 20
0.2635425000696043
 42
-0.0555882503967457
 10
2.115428275548136
 20
0.2414420199562479
 42
-0.0426508990187419
 10
2.1178520570162
 20
0.2152348828327955
 10
2.1178520570162
 20
0.0027807971169689
 10
2.057459502103581
 20
0.0027807971169689
  0
LWPOLYLINE
  5
18C
102
{ACAD_REACTORS
330
5DE
102
}
330
1D
100
AcDbEntity
  8
ALTE_DIN_1451_MITTELSCHRIFT_BY_PETER_WIEGEL
100
AcDbPolyline
 90
       29
 70
     1
 43
0.0
 10
2.660012486698403
 20
0.1354750286516793
 10
2.466789362543494
 20
0.1354750286516793
 42
0.0868702025178596
 10
2.471985803115179
 20
0.1019607412614352
 42
0.1220295986821956
 10
2.487584305820643
 20
0.0780218596285132
 42
0.1007969688050022
 10
2.511252899095913
 20
0.0636586591826261
 42
0.0871407810872274
 10
2.54065961137702
 20
0.0588708644940608
 42
0.1051099237725128
 10
2.576988790426767
 20
0.0663663168741475
 42
0.0953939725078868
 10
2.608800922195119
 20
0.0888530412540247
 10
2.653989756989877
 20
0.0502636859853072
 42
-0.0564750039247991
 10
2.629458150616128
 20
0.0271678028917706
 42
-0.0649660632504044
 10
2.602062075234666
 20
0.0118182886462082
 42
-0.0958434068468629
 10
2.541807235178188
 20
0.0003420506345366
 42
-0.0812508364227582
 10
2.494773021311153
 20
0.0080706083611166
 42
-0.0706814247424064
 10
2.449207765909614
 20
0.0312561897309525
 42
-0.0876189858847555
 10
2.429597170395269
 20
0.0507612956654933
 42
-0.0700536146184689
 10
2.415586979030621
 20
0.0783625661826038
 42
-0.0499326165879636
 10
2.407186372806078
 20
0.1140603685219004
 42
-0.0348707950150689
 10
2.404386170731229
 20
0.1578536927744385
 42
-0.0334315285858021
 10
2.406966029036254
 20
0.1996832031784193
 42
-0.0461216498899443
 10
2.414733146922553
 20
0.2345112902962394
 42
-0.0623407631015064
 10
2.4276599814189
 20
0.2623361179298174
 42
-0.0770176060984414
 10
2.445764894506113
 20
0.283159522277235
 42
-0.0794156169769866
 10
2.488107622273974
 20
0.3091426432346998
 42
-0.0963100627148501
 10
2.532341634066161
 20
0.3178030714878275
 42
-0.095433820054212
 10
2.580220499050853
 20
0.3089452519408991
 42
-0.0932031714153835
 10
2.621709394710649
 20
0.2823708752010727
 42
-0.1125949912348002
 10
2.650436713701464
 20
0.2407690533592435
 42
-0.0960457789409123
 10
2.660012486698403
 20
0.1868307347043883
 10
2.660012486698403
 20
0.1354750286516793
  0
LWPOLYLINE
  5
1AB
102
{ACAD_REACTORS
330
5DE
102
}
330
1D
100
AcDbEntity
  8
ALTE_DIN_1451_MITTELSCHRIFT_BY_PETER_WIEGEL
100
AcDbPolyline
 90
       17
 70
     1
 43
0.0
 10
0.9257243720741903
 20
0.0039284209181361
 10
0.9257243720741903
 20
0.3142169766339404
 10
0.9881275638864548
 20
0.3142169766339404
 10
0.9881275638864548
 20
0.281079109850479
 10
0.9892751876876225
 20
0.281079109850479
 42
-0.1205914814429631
 10
1.024025236386964
 20
0.3086220810784903
 42
-0.1078551573112993
 10
1.070040360318561
 20
0.3178030714878275
 42
-0.0894108660860864
 10
1.103312269561998
 20
0.311814311443817
 42
-0.077594587396015
 10
1.134876514589299
 20
0.293847113212744
 10
1.089834575641091
 20
0.2400520180082744
 42
0.0727228877532318
 10
1.069315062076223
 20
0.2515640618825421
 42
0.0898359279899703
 10
1.048520118799075
 20
0.255401715873645
 42
0.1793086496544352
 10
1.006847603331093
 20
0.2399804062830815
 42
0.1329646301789413
 10
0.9928006880048073
 20
0.2198786277818381
 42
0.090159639322796
 10
0.9881275638864548
 20
0.1904168295582754
 10
0.9881275638864548
 20
0.0039284209181361
 10
0.9257243720741903
 20
0.0039284209181361
  0
LWPOLYLINE
  5
1BE
102
{ACAD_REACTORS
330
5DE
102
}
330
1D
100
AcDbEntity
  8
ALTE_DIN_1451_MITTELSCHRIFT_BY_PETER_WIEGEL
100
AcDbPolyline
 90
       10
 70
     1
 43
0.0
 10
2.466789362543494
 20
0.1868307347043883
 10
2.597756190732687
 20
0.1868307347043883
 42
0.0779570920931814
 10
2.592109881630944
 20
0.2177275217289303
 42
0.1076734836518501
 10
2.578035423333431
 20
0.2404109947332796
 42
0.1031173488016102
 10
2.557460823826106
 20
0.2543431476794484
 42
0.0975535680592507
 10
2.532341634066161
 20
0.2589878107275323
 42
0.0965452862482692
 10
2.506882747661069
 20
0.2543431476794484
 42
0.1036126453406154
 10
2.486152071316786
 20
0.2404109947332796
 42
0.1097446660338644
 10
2.472132698961727
 20
0.2177275217289303
 42
0.0795661696022036
 10
2.466789362543494
 20
0.1868307347043883
  0
LWPOLYLINE
  5
1CA
102
{ACAD_REACTORS
330
5DE
102
}
330
1D
100
AcDbEntity
  8
ALTE_DIN_1451_MITTELSCHRIFT_BY_PETER_WIEGEL
100
AcDbPolyline
 90
       16
 70
     1
 43
0.0
 10
2.057459502103581
 20
0.1118055172773673
 10
2.057459502103581
 20
0.1346138517512834
 10
1.984727696080812
 20
0.1346138517512834
 42
0.0550483776921504
 10
1.961490609354781
 20
0.1316639995327636
 42
0.0928917479410936
 10
1.944992369589202
 20
0.1243926551285686
 42
0.1310744176387854
 10
1.935232976784076
 20
0.1127998185386985
 42
0.1148996380541313
 10
1.932221611929814
 20
0.0968864078621945
 42
0.1191405752084096
 10
1.935627759371677
 20
0.0823969687981787
 42
0.1016034466107119
 10
1.94585538268768
 20
0.0699167894852464
 42
0.1191217870935346
 10
1.963317626446238
 20
0.0607716967484098
 42
0.0676879976634405
 10
1.98931819128548
 20
0.0577232406928936
 42
0.0458222552327499
 10
2.021846440305763
 20
0.0597674800174366
 42
0.0966081652498415
 10
2.043109614093788
 20
0.0670477299823285
 42
0.0968628910126672
 10
2.049389411533774
 20
0.0735031597688458
 42
0.0699258232993679
 10
2.053869734853531
 20
0.0831149222481891
 42
0.0758403426160529
 10
2.057459502103581
 20
0.1118055172773673
  0
LWPOLYLINE
  5
1F4
102
{ACAD_REACTORS
330
5DE
102
}
330
1D
100
AcDbEntity
  8
ALTE_DIN_1451_MITTELSCHRIFT_BY_PETER_WIEGEL
100
AcDbPolyline
 90
       25
 70
     1
 43
0.0
 10
1.951724606222927
 20
0.6017664424304121
 10
1.951724606222927
 20
0.8080513616406846
 10
2.014127798035191
 20
0.8080513616406846
 10
2.014127798035191
 20
0.6229974827520042
 42
0.0856539412260715
 10
2.018497949470036
 20
0.5948448937608131
 42
0.1127099647590901
 10
2.031626765755388
 20
0.573792882752203
 42
0.1037654757493016
 10
2.051457705039557
 20
0.5606669125738779
 42
0.0948755532586751
 10
2.075952587451668
 20
0.5562916197844041
 42
0.0963784354093906
 10
2.099905791429628
 20
0.5606669125738779
 42
0.1022799137985953
 10
2.119562291896019
 20
0.573792882752203
 42
0.1127099647590902
 10
2.132691108181371
 20
0.5948448937608131
 42
0.0856539412260712
 10
2.137061259616215
 20
0.6229974827520042
 10
2.137061259616215
 20
0.8080513616406846
 10
2.199464451428479
 20
0.8080513616406846
 10
2.199464451428479
 20
0.4977628059248802
 10
2.137061259616215
 20
0.4977628059248802
 10
2.137061259616215
 20
0.5306135831382415
 10
2.135775920958908
 20
0.5306135831382415
 42
-0.1201048731803161
 10
2.101273759000619
 20
0.5032857225155212
 42
-0.1079763487532379
 10
2.055726865579898
 20
0.4941764356412808
 42
-0.0935863716727681
 10
2.019682297232841
 20
0.501008469654389
 42
-0.0786614150110669
 10
1.985290307159464
 20
0.5215042962640013
 42
-0.1253806317428798
 10
1.960116031457061
 20
0.5552336942595362
 42
-0.0545676152281959
 10
1.953817872036256
 20
0.5768997299067227
 42
-0.0446185620741372
 10
1.951724606222927
 20
0.6017664424304121
  0
LWPOLYLINE
  5
20F
102
{ACAD_REACTORS
330
5DE
102
}
330
1D
100
AcDbEntity
  8
ALTE_DIN_1451_MITTELSCHRIFT_BY_PETER_WIEGEL
100
AcDbPolyline
 90
       17
 70
     1
 43
0.0
 10
2.2703129662881
 20
0.4977628059248802
 10
2.2703129662881
 20
0.8080513616406846
 10
2.332716158100364
 20
0.8080513616406846
 10
2.332716158100364
 20
0.7749134948572232
 10
2.333863781901532
 20
0.7749134948572232
 42
-0.1205914814429631
 10
2.368613830600873
 20
0.8024564660852345
 42
-0.1078551573112993
 10
2.41462895453247
 20
0.8116374564945716
 42
-0.0894108660860864
 10
2.447900863775908
 20
0.8056486964505611
 42
-0.077594587396015
 10
2.479465108803209
 20
0.7876814982194882
 10
2.434423169855001
 20
0.7338864030150185
 42
0.0727228877532319
 10
2.413903656290132
 20
0.7453984468892862
 42
0.0898359279899702
 10
2.393108713012984
 20
0.7492361008803892
 42
0.1793086496544353
 10
2.351436197545003
 20
0.7338147912898256
 42
0.1329646301789413
 10
2.337389282218717
 20
0.7137130127885822
 42
0.090159639322796
 10
2.332716158100364
 20
0.6842512145650195
 10
2.332716158100364
 20
0.4977628059248802
 10
2.2703129662881
 20
0.4977628059248802
  0
LWPOLYLINE
  5
222
102
{ACAD_REACTORS
330
5DE
102
}
330
1D
100
AcDbEntity
  8
ALTE_DIN_1451_MITTELSCHRIFT_BY_PETER_WIEGEL
100
AcDbPolyline
 90
       22
 70
     1
 43
0.0
 10
1.324212931674864
 20
0.0039284209181361
 10
1.324212931674864
 20
0.0362053862309138
 42
-0.1039797286091895
 10
1.287810304701842
 20
0.0093079304385831
 42
-0.1065882414924799
 10
1.244026161439713
 20
0.0003420506345367
 42
-0.0558083406838781
 10
1.21734620331018
 20
0.0031394066023576
 42
-0.0687195833111582
 10
1.194678337989527
 20
0.0115314745058204
 42
-0.1110297848833634
 10
1.16096574120644
 20
0.0403654766051927
 42
-0.122139201090079
 10
1.143319877639695
 20
0.0793846858448753
 42
-0.0329416801357433
 10
1.139987178121106
 20
0.1106578934762002
 42
-0.0135430654015759
 10
1.138876278281576
 20
0.1594309869267625
 42
-0.0137147742817122
 10
1.139987178121106
 20
0.2075953807131859
 42
-0.0333574043674702
 10
1.143319877639695
 20
0.2384738057569094
 42
-0.1193501460057501
 10
1.16096574120644
 20
0.277493014996592
 42
-0.1061308878944666
 10
1.194678337989527
 20
0.306326833476156
 42
-0.0700400765564642
 10
1.21734620331018
 20
0.3149349300839506
 42
-0.0572059277316476
 10
1.244026161439713
 20
0.3178030714878275
 42
-0.1228757189092009
 10
1.287415522114241
 20
0.3076185988267497
 42
-0.06857878124275
 10
1.324212931674864
 20
0.281079109850479
 10
1.324212931674864
 20
0.4394511944115438
 10
1.386616123487128
 20
0.4394511944115438
 10
1.386616123487128
 20
0.0039284209181361
 10
1.324212931674864
 20
0.0039284209181361
  0
LWPOLYLINE
  5
23A
102
{ACAD_REACTORS
330
5DE
102
}
330
1D
100
AcDbEntity
  8
ALTE_DIN_1451_MITTELSCHRIFT_BY_PETER_WIEGEL
100
AcDbPolyline
 90
       17
 70
     1
 43
0.0
 10
0.4338768229591011
 20
0.5562916197844041
 42
0.0525601360112653
 10
0.4536958269557371
 20
0.5581789559828516
 42
0.0771790289890932
 10
0.4691125460510959
 20
0.5638408727682898
 42
0.2018512815618368
 10
0.4867391295379822
 20
0.5864883562902343
 42
0.0713115278458693
 10
0.4955611432223141
 20
0.6525483365825375
 42
0.0708495960866965
 10
0.4867391295379822
 20
0.7188240701494601
 42
0.2015004489447651
 10
0.4691125460510959
 20
0.7416324046233762
 42
0.0775947259233914
 10
0.4536958269557371
 20
0.7473347177666154
 42
0.0529274874256887
 10
0.4338768229591011
 20
0.7492361008803892
 42
0.0548551649073318
 10
0.414129430687658
 20
0.747272287031832
 42
0.0798917774164671
 10
0.3987843233174919
 20
0.7413817635852014
 42
0.200312390202276
 10
0.3813009632809914
 20
0.7178196697986787
 42
0.067775647336192
 10
0.372622173047045
 20
0.6525483365825375
 42
0.0680752396662684
 10
0.3813009632809914
 20
0.5875643683662086
 42
0.2005703740243833
 10
0.3987843233174919
 20
0.5641097839773792
 42
0.0796217449823336
 10
0.414129430687658
 20
0.5582461608326479
 42
0.0546098293626514
 10
0.4338768229591011
 20
0.5562916197844041
  0
LWPOLYLINE
  5
24D
102
{ACAD_REACTORS
330
5DE
102
}
330
1D
100
AcDbEntity
  8
ALTE_DIN_1451_MITTELSCHRIFT_BY_PETER_WIEGEL
100
AcDbPolyline
 90
       29
 70
     1
 43
0.0
 10
2.999662452274729
 20
0.6293094136584234
 10
2.806439328119821
 20
0.6293094136584234
 42
0.0868702025178601
 10
2.811635768691506
 20
0.5957951262681793
 42
0.1220295986821946
 10
2.827234271396969
 20
0.5718562446352573
 42
0.1007969688050022
 10
2.850902864672241
 20
0.5574930441893702
 42
0.0871407810872272
 10
2.880309576953347
 20
0.5527052495008049
 42
0.1051099237725128
 10
2.916638756003094
 20
0.5602007018808917
 42
0.0953939725078868
 10
2.948450887771447
 20
0.5826874262607689
 10
2.993639722566204
 20
0.5440980709920513
 42
-0.056475003924799
 10
2.969108116192456
 20
0.5210021878985147
 42
-0.0649660632503886
 10
2.941712040810994
 20
0.5056526736529523
 42
-0.0958434068468628
 10
2.881457200754514
 20
0.4941764356412808
 42
-0.0812508364227582
 10
2.834422986887481
 20
0.5019049933678608
 42
-0.0706814247424068
 10
2.788857731485941
 20
0.5250905747376966
 42
-0.0876189858848348
 10
2.769247135971596
 20
0.5445956806722374
 42
-0.0700536146184687
 10
2.755236944606948
 20
0.5721969511893479
 42
-0.0499326165879636
 10
2.746836338382404
 20
0.6078947535286445
 42
-0.0348707950149975
 10
2.744036136307557
 20
0.6516880777811827
 42
-0.0334315285857279
 10
2.74661599461258
 20
0.6935175881851634
 42
-0.0461216498899435
 10
2.754383112498879
 20
0.7283456753029836
 42
-0.0623407631015064
 10
2.767309946995225
 20
0.7561705029365615
 42
-0.0770176060985259
 10
2.785414860082439
 20
0.7769939072839791
 42
-0.0794156169769864
 10
2.827757587850301
 20
0.8029770282414439
 42
-0.0963100627148502
 10
2.871991599642488
 20
0.8116374564945716
 42
-0.095433820054212
 10
2.919870464627181
 20
0.8027796369476432
 42
-0.0932031714153947
 10
2.961359360286975
 20
0.7762052602078169
 42
-0.1125949912348005
 10
2.99008667927779
 20
0.7346034383659876
 42
-0.0960457789409123
 10
2.999662452274729
 20
0.6806651197111324
 10
2.999662452274729
 20
0.6293094136584234
  0
LWPOLYLINE
  5
26C
102
{ACAD_REACTORS
330
5DE
102
}
330
1D
100
AcDbEntity
  8
ALTE_DIN_1451_MITTELSCHRIFT_BY_PETER_WIEGEL
100
AcDbPolyline
 90
       46
 70
     1
 43
0.0
 10
1.335512632239913
 20
0.5494058769774013
 10
1.379122336684264
 20
0.5925854520210752
 42
0.0980373527979879
 10
1.423953112853057
 20
0.5626752542259204
 42
0.0978779195401217
 10
1.47695497048616
 20
0.5527052495008049
 42
0.0561722379317591
 10
1.501201966157219
 20
0.5552156995183339
 42
0.0752678466127824
 10
1.520849285633201
 20
0.5627470495709213
 42
0.1322749004038408
 10
1.533867930033641
 20
0.575227412503662
 42
0.1343537779456138
 10
1.538210538497257
 20
0.5925854520210752
 42
0.1066286164823276
 10
1.535832661981239
 20
0.6046529458151078
 42
0.1206900338729773
 10
1.528708213423593
 20
0.6137448806174743
 42
0.0904702923640768
 10
1.516828011833911
 20
0.6198594202300929
 42
0.0564276915591893
 10
1.500192057212192
 20
0.6229974827520042
 10
1.445253010602719
 20
0.6281617898572565
 42
-0.0760359324790062
 10
1.409961283469227
 20
0.6359261534464327
 42
-0.0876730777076816
 10
1.381270688440049
 20
0.6534811252081261
 42
-0.1172698018895106
 10
1.362229314331084
 20
0.680324504966946
 42
-0.0971738160972724
 10
1.355885249958232
 20
0.7159550106465422
 42
-0.1096177555087363
 10
1.364166503307454
 20
0.7574126909389449
 42
-0.1289210655615833
 10
1.389019444345529
 20
0.7873941332196761
 42
-0.0872760077700267
 10
1.426211636493754
 20
0.805577084725368
 42
-0.0716961091791644
 10
1.471501462183014
 20
0.8116374564945716
 42
-0.0407678855481632
 10
1.509216970784571
 20
0.8087693150906947
 42
-0.0532841978982609
 10
1.541148455428245
 20
0.8001612184829001
 42
-0.0809057509428875
 10
1.593149585106731
 20
0.7694627408511998
 10
1.554561882416286
 20
0.7239883772547122
 42
0.0523624782098649
 10
1.516332238351807
 20
0.7447172174009136
 42
0.0982169512341296
 10
1.471501462183014
 20
0.7528221957342764
 42
0.0616008937176447
 10
1.446198652614881
 20
0.7501679714069369
 42
0.1219531075584363
 10
1.429975842561582
 20
0.7422071346230006
 42
0.2213352598616623
 10
1.418279260780087
 20
0.7153811987459586
 42
0.1094945271615777
 10
1.4204551555071
 20
0.7055722285926229
 42
0.0890069672927419
 10
1.426964477707319
 20
0.6965170177518938
 42
0.1183861739211995
 10
1.439386357731153
 20
0.6895771071014758
 42
0.05864852080908
 10
1.459309106919414
 20
0.6861167918161966
 10
1.510667567269246
 20
0.6825306969623097
 42
-0.0369423417158355
 10
1.533060002877619
 20
0.6794321126991585
 42
-0.0476593965372097
 10
1.552037110053719
 20
0.6734387621599431
 42
-0.1263456115541055
 10
1.579736158118689
 20
0.652764089857157
 42
-0.0880761852996704
 10
1.595389746766609
 20
0.623732880083792
 42
-0.0802899512932472
 10
1.600613730309521
 20
0.5895731690677715
 42
-0.123748993417213
 10
1.591267482072816
 20
0.5490472674920126
 42
-0.1267002442803995
 10
1.56323791835311
 20
0.5189938462464723
 42
-0.0807620045404043
 10
1.521767384674135
 20
0.5003808571500066
 42
-0.0666264692315249
 10
1.472079864578802
 20
0.4941764356412808
 42
-0.0972284887037363
 10
1.399201162709484
 20
0.5079838189277868
 42
-0.0926967929556853
 10
1.335512632239913
 20
0.5494058769774013
  0
LWPOLYLINE
  5
29C
102
{ACAD_REACTORS
330
5DE
102
}
330
1D
100
AcDbEntity
  8
ALTE_DIN_1451_MITTELSCHRIFT_BY_PETER_WIEGEL
100
AcDbPolyline
 90
       10
 70
     1
 43
0.0
 10
2.806439328119821
 20
0.6806651197111324
 10
2.937406156309015
 20
0.6806651197111324
 42
0.077957092093181
 10
2.931759847207272
 20
0.7115619067356744
 42
0.1076734836518501
 10
2.917685388909758
 20
0.7342453797400237
 42
0.1031173488016102
 10
2.897110789402434
 20
0.7481775326861926
 42
0.0975535680592505
 10
2.871991599642488
 20
0.7528221957342764
 42
0.0965452862482693
 10
2.846532713237396
 20
0.7481775326861926
 42
0.1036126453406154
 10
2.825802036893113
 20
0.7342453797400237
 42
0.1097446660338644
 10
2.811782664538055
 20
0.7115619067356744
 42
0.0795661696022044
 10
2.806439328119821
 20
0.6806651197111324
  0
LWPOLYLINE
  5
3B3
102
{ACAD_REACTORS
330
5DE
102
}
330
1D
100
AcDbEntity
  8
ALTE_DIN_1451_MITTELSCHRIFT_BY_PETER_WIEGEL
100
AcDbPolyline
 90
       42
 70
     1
 43
0.0
 10
0.3102208174328626
 20
0.0039284209181361
 10
0.3102208174328626
 20
0.8080513616406846
 10
0.372622173047045
 20
0.8080513616406846
 10
0.372622173047045
 20
0.7754882248568478
 42
-0.1048021098989066
 10
0.4089522701958329
 20
0.802600607634661
 42
-0.1073602870692752
 10
0.4528126156783588
 20
0.8116374564945716
 42
-0.0576220896585188
 10
0.4792621309486181
 20
0.8087693150906947
 42
-0.0700129531699491
 10
0.5018014624035407
 20
0.8001612184829001
 42
-0.1017146197183388
 10
0.5358721178125905
 20
0.7713274000033361
 42
-0.1148826342196588
 10
0.5533729217308689
 20
0.7323081907636535
 42
-0.034463519784019
 10
0.5568157931343702
 20
0.701250736406948
 42
-0.0140227956025467
 10
0.5579634169355377
 20
0.6525483365825373
 42
-0.0140808191407736
 10
0.5568157931343702
 20
0.6041333017579391
 42
-0.0341839171599464
 10
0.5533729217308689
 20
0.5730756637814254
 42
-0.1173544822962969
 10
0.5358721178125905
 20
0.5341998616119368
 42
-0.1066087616955505
 10
0.5018014624035407
 20
0.5053658595125645
 42
-0.0686970031651417
 10
0.4792621309486181
 20
0.4969737916091018
 42
-0.0562148807751824
 10
0.4528126156783588
 20
0.4941764356412808
 42
-0.1196914992124361
 10
0.4092745229592005
 20
0.5040030332962024
 42
-0.074768792243423
 10
0.3726221730470449
 20
0.5306135831382416
 10
0.3726240092451267
 20
0.281079109850479
 10
0.3737716330462943
 20
0.281079109850479
 42
-0.1205914814429631
 10
0.4085216817456351
 20
0.3086220810784903
 42
-0.1078551573112993
 10
0.4545368056772327
 20
0.3178030714878275
 42
-0.0948400384199731
 10
0.4900580575709579
 20
0.3109356906616434
 42
-0.0777545667772034
 10
0.5243215137786035
 20
0.2903326300840499
 42
-0.1246063147848693
 10
0.5495508754234615
 20
0.2565667835565899
 42
-0.0546598235476683
 10
0.5558582158346763
 20
0.2349639131234198
 42
-0.044885914752905
 10
0.5579606626384146
 20
0.2102137991779289
 10
0.5579606626384146
 20
0.0039284209181361
 10
0.49555747082615
 20
0.0039284209181361
 10
0.49555747082615
 20
0.1886963119555656
 42
0.0859305819872998
 10
0.4911873193913065
 20
0.2166689535347337
 42
0.1114112573923552
 10
0.4780585031059543
 20
0.23775677040594
 42
0.102599514142123
 10
0.4584020026395629
 20
0.2509902499819585
 42
0.0971153457709267
 10
0.4344487986616025
 20
0.255401715873645
 42
0.095602988128761
 10
0.4099539162494922
 20
0.2509902499819585
 42
0.1040957375294436
 10
0.3901229769653233
 20
0.2377567704059401
 42
0.1114112573923561
 10
0.3769941606799715
 20
0.2166689535347337
 42
0.0859305819872998
 10
0.3726240092451267
 20
0.1886963119555656
 10
0.3726240092451267
 20
0.0039284209181361
 10
0.3102208174328626
 20
0.0039284209181361
  0
LWPOLYLINE
  5
496
102
{ACAD_REACTORS
330
5DB
102
}
330
1D
100
AcDbEntity
  8
GEAR
100
AcDbPolyline
 90
       64
 70
     1
 43
0.0
 10
1.63330722025831
 20
1.692084809027556
 42
4.564395604021269
 10
1.358821902466309
 20
1.692084809027556
 42
-0.401467224952953
 10
1.366437350517533
 20
1.67278869742437
 10
1.169648103644579
 20
1.190821588515726
 42
-0.4156947323144399
 10
1.150020822892736
 20
1.182633529402584
 10
1.043131217421445
 20
1.226908653665502
 42
0.2520191994259644
 10
1.02898564972439
 20
1.225474254759488
 10
0.7939091314208768
 20
1.066433267982718
 42
-0.3594323331783931
 10
0.7748972134915002
 20
1.068250460346575
 10
0.5740493633249444
 20
1.269098310513131
 42
-0.3594323331783907
 10
0.5722321709610868
 20
1.288110228442508
 10
0.7312731577378568
 20
1.523186746746021
 42
0.2520191994259642
 10
0.7327075566438707
 20
1.537332314443075
 10
0.6360174079335656
 20
1.770762982807365
 42
0.2520191994259642
 10
0.625000707897876
 20
1.779751136456317
 10
0.346317547471284
 20
1.83351637641
 42
-0.3594323331783926
 10
0.3341590404232636
 20
1.848244781544429
 10
0.3341590404232637
 20
2.132286535223451
 42
-0.3594323331783926
 10
0.346317547471284
 20
2.14701494035788
 10
0.6250007078978759
 20
2.200780180311563
 42
0.2520191994259639
 10
0.6360174079335654
 20
2.209768333960515
 10
0.7327075566438709
 20
2.443199002324805
 42
0.2520191994259644
 10
0.7312731577378572
 20
2.45734457002186
 10
0.5722321709610867
 20
2.692421088325373
 42
-0.359432333178393
 10
0.5740493633249442
 20
2.71143300625475
 10
0.7748972134915004
 20
2.912280856421305
 42
-0.3594323331783879
 10
0.7939091314208768
 20
2.914098048785163
 10
1.02898564972439
 20
2.755057062008393
 42
0.2520191994259644
 10
1.043131217421444
 20
2.753622663102379
 10
1.276561885785734
 20
2.850312811812684
 42
0.2520191994259639
 10
1.285550039434686
 20
2.861329511848373
 10
1.339315279388369
 20
3.140012672274966
 42
-0.359432333178391
 10
1.354043684522797
 20
3.152171179322986
 10
1.63808543820182
 20
3.152171179322986
 42
-0.359432333178391
 10
1.652813843336248
 20
3.140012672274966
 10
1.706579083289932
 20
2.861329511848374
 42
0.2520191994259646
 10
1.715567236938884
 20
2.850312811812684
 10
1.948997905303173
 20
2.753622663102379
 42
0.2520191994259648
 10
1.963143473000228
 20
2.755057062008393
 10
2.198219991303741
 20
2.914098048785164
 42
-0.3594323331783879
 10
2.217231909233118
 20
2.912280856421306
 10
2.418079759399674
 20
2.71143300625475
 42
-0.3594323331783948
 10
2.419896951763532
 20
2.692421088325373
 10
2.260855964986761
 20
2.45734457002186
 42
0.2520191994259637
 10
2.259421566080748
 20
2.443199002324806
 10
2.356111714791053
 20
2.209768333960515
 42
0.2520191994259638
 10
2.367128414826742
 20
2.200780180311563
 10
2.645811575253334
 20
2.14701494035788
 42
-0.359432333178391
 10
2.657970082301354
 20
2.132286535223452
 10
2.657970082301354
 20
1.848244781544429
 42
-0.3594323331783911
 10
2.645811575253334
 20
1.833516376410001
 10
2.367128414826742
 20
1.779751136456317
 42
0.2520191994259643
 10
2.356111714791052
 20
1.770762982807365
 10
2.259421566080747
 20
1.537332314443076
 42
0.2520191994259637
 10
2.260855964986761
 20
1.523186746746021
 10
2.419896951763532
 20
1.288110228442508
 42
-0.3594323331783879
 10
2.418079759399674
 20
1.269098310513132
 10
2.217231909233118
 20
1.068250460346576
 42
-0.3594323331783909
 10
2.198219991303742
 20
1.066433267982718
 10
1.963143473000229
 20
1.225474254759488
 42
0.2520191994259641
 10
1.948997905303174
 20
1.226908653665502
 10
1.842108299831883
 20
1.182633529402583
 42
-0.4156947323144399
 10
1.822481019080039
 20
1.190821588515725
 10
1.625691772207085
 20
1.67278869742437
 42
-0.4014672249529544
  0
HATCH
  5
5DB
330
1D
100
AcDbEntity
  8
COLOR
100
AcDbHatch
 10
0.0
 20
0.0
 30
0.0
210
0.0
220
0.0
230
1.0
  2
SOLID
 70
     1
 71
     1
 91
        1
 92
        1
 93
       64
 72
     2
 10
1.496064561362309
 20
1.99026565838394
 40
0.3282489395927108
 50
294.7150320400102
 51
605.2849679599899
 73
     1
 72
     2
 10
1.352550321251166
 20
1.678458831298898
 40
0.0149999999999998
 50
294.7150320400108
 51
382.210405302406
 73
     0
 72
     1
 10
1.366437350517533
 20
1.67278869742437
 11
1.169648103644579
 21
1.190821588515726
 72
     2
 10
1.155761074378212
 20
1.196491722390253
 40
0.0149999999999999
 50
22.21040530240494
 51
112.4999999999996
 73
     0
 72
     1
 10
1.150020822892736
 20
1.182633529402584
 11
1.043131217421445
 21
1.226908653665502
 72
     2
 10
1.037390965935968
 20
1.213050460677833
 40
0.0150000000000001
 50
67.49999999999974
 51
124.0803113827822
 73
     1
 72
     1
 10
1.02898564972439
 20
1.225474254759488
 11
0.7939091314208768
 21
1.066433267982718
 72
     2
 10
0.7855038152092986
 20
1.078857062064373
 40
0.0150000000000001
 50
55.91968861721791
 51
135.0000000000005
 73
     0
 72
     1
 10
0.7748972134915002
 20
1.068250460346575
 11
0.5740493633249444
 21
1.269098310513131
 72
     2
 10
0.5846559650427425
 20
1.27970491223093
 40
0.015
 50
134.9999999999994
 51
214.0803113827815
 73
     0
 72
     1
 10
0.5722321709610868
 20
1.288110228442508
 11
0.7312731577378568
 21
1.523186746746021
 72
     2
 10
0.7188493636562014
 20
1.531592062957599
 40
0.0149999999999999
 50
325.9196886172173
 51
382.4999999999997
 73
     1
 72
     1
 10
0.7327075566438707
 20
1.537332314443075
 11
0.6360174079335656
 21
1.770762982807365
 72
     2
 10
0.6221592149458963
 20
1.765022731321889
 40
0.015
 50
22.50000000000027
 51
79.08031138278271
 73
     1
 72
     1
 10
0.625000707897876
 20
1.779751136456317
 11
0.346317547471284
 21
1.83351637641
 72
     2
 10
0.3491590404232637
 20
1.848244781544429
 40
0.0150000000000001
 50
100.9196886172178
 51
180.0000000000002
 73
     0
 72
     1
 10
0.3341590404232636
 20
1.848244781544429
 11
0.3341590404232637
 21
2.132286535223451
 72
     2
 10
0.3491590404232637
 20
2.132286535223451
 40
0.015
 50
180.0000000000001
 51
259.0803113827826
 73
     0
 72
     1
 10
0.346317547471284
 20
2.14701494035788
 11
0.6250007078978759
 21
2.200780180311563
 72
     2
 10
0.6221592149458962
 20
2.215508585445991
 40
0.015
 50
280.9196886172176
 51
337.4999999999999
 73
     1
 72
     1
 10
0.6360174079335654
 20
2.209768333960515
 11
0.7327075566438709
 21
2.443199002324805
 72
     2
 10
0.7188493636562014
 20
2.448939253810281
 40
0.0150000000000001
 50
337.4999999999997
 51
394.0803113827822
 73
     1
 72
     1
 10
0.7312731577378572
 20
2.45734457002186
 11
0.5722321709610867
 21
2.692421088325373
 72
     2
 10
0.5846559650427425
 20
2.700826404536951
 40
0.0150000000000003
 50
145.9196886172178
 51
225.0000000000004
 73
     0
 72
     1
 10
0.5740493633249442
 20
2.71143300625475
 11
0.7748972134915004
 21
2.912280856421305
 72
     2
 10
0.7855038152092986
 20
2.901674254703507
 40
0.0150000000000001
 50
225.0000000000007
 51
304.0803113827822
 73
     0
 72
     1
 10
0.7939091314208768
 20
2.914098048785163
 11
1.02898564972439
 21
2.755057062008393
 72
     2
 10
1.037390965935968
 20
2.767480856090049
 40
0.0149999999999999
 50
235.9196886172177
 51
292.5000000000002
 73
     1
 72
     1
 10
1.043131217421444
 20
2.753622663102379
 11
1.276561885785734
 21
2.850312811812684
 72
     2
 10
1.270821634300258
 20
2.864171004800353
 40
0.0149999999999996
 50
292.4999999999989
 51
349.0803113827813
 73
     1
 72
     1
 10
1.285550039434686
 20
2.861329511848373
 11
1.339315279388369
 21
3.140012672274966
 72
     2
 10
1.354043684522797
 20
3.137171179322986
 40
0.0150000000000002
 50
190.9196886172179
 51
270.0
 73
     0
 72
     1
 10
1.354043684522797
 20
3.152171179322986
 11
1.63808543820182
 21
3.152171179322986
 72
     2
 10
1.63808543820182
 20
3.137171179322986
 40
0.015
 50
270.0000000000004
 51
349.0803113827826
 73
     0
 72
     1
 10
1.652813843336248
 20
3.140012672274966
 11
1.706579083289932
 21
2.861329511848374
 72
     2
 10
1.72130748842436
 20
2.864171004800354
 40
0.0150000000000004
 50
190.9196886172171
 51
247.4999999999996
 73
     1
 72
     1
 10
1.715567236938884
 20
2.850312811812684
 11
1.948997905303173
 21
2.753622663102379
 72
     2
 10
1.95473815678865
 20
2.767480856090049
 40
0.0150000000000001
 50
247.4999999999997
 51
304.0803113827823
 73
     1
 72
     1
 10
1.963143473000228
 20
2.755057062008393
 11
2.198219991303741
 21
2.914098048785164
 72
     2
 10
2.20662530751532
 20
2.901674254703507
 40
0.0150000000000004
 50
235.9196886172177
 51
314.9999999999992
 73
     0
 72
     1
 10
2.217231909233118
 20
2.912280856421306
 11
2.418079759399674
 21
2.71143300625475
 72
     2
 10
2.407473157681876
 20
2.700826404536952
 40
0.0150000000000002
 50
315.0000000000001
 51
394.080311382783
 73
     0
 72
     1
 10
2.419896951763532
 20
2.692421088325373
 11
2.260855964986761
 21
2.45734457002186
 72
     2
 10
2.273279759068417
 20
2.448939253810282
 40
0.0149999999999997
 50
145.9196886172177
 51
202.5
 73
     1
 72
     1
 10
2.259421566080748
 20
2.443199002324806
 11
2.356111714791053
 21
2.209768333960515
 72
     2
 10
2.369969907778722
 20
2.215508585445991
 40
0.015
 50
202.5
 51
259.0803113827824
 73
     1
 72
     1
 10
2.367128414826742
 20
2.200780180311563
 11
2.645811575253334
 21
2.14701494035788
 72
     2
 10
2.642970082301354
 20
2.132286535223452
 40
0.015
 50
280.9196886172174
 51
359.9999999999996
 73
     0
 72
     1
 10
2.657970082301354
 20
2.132286535223452
 11
2.657970082301354
 21
1.848244781544429
 72
     2
 10
2.642970082301354
 20
1.848244781544429
 40
0.015
 50
0.0000000000004071
 51
79.08031138278255
 73
     0
 72
     1
 10
2.645811575253334
 20
1.833516376410001
 11
2.367128414826742
 21
1.779751136456317
 72
     2
 10
2.369969907778722
 20
1.765022731321889
 40
0.0150000000000001
 50
100.9196886172183
 51
157.5000000000007
 73
     1
 72
     1
 10
2.356111714791052
 20
1.770762982807365
 11
2.259421566080747
 21
1.537332314443076
 72
     2
 10
2.273279759068417
 20
1.531592062957599
 40
0.0149999999999999
 50
157.4999999999999
 51
214.0803113827822
 73
     1
 72
     1
 10
2.260855964986761
 20
1.523186746746021
 11
2.419896951763532
 21
1.288110228442508
 72
     2
 10
2.407473157681876
 20
1.27970491223093
 40
0.0150000000000001
 50
325.9196886172178
 51
404.9999999999993
 73
     0
 72
     1
 10
2.418079759399674
 20
1.269098310513132
 11
2.217231909233118
 21
1.068250460346576
 72
     2
 10
2.20662530751532
 20
1.078857062064374
 40
0.015
 50
44.99999999999974
 51
124.0803113827818
 73
     0
 72
     1
 10
2.198219991303742
 20
1.066433267982718
 11
1.963143473000229
 21
1.225474254759488
 72
     2
 10
1.954738156788651
 20
1.213050460677833
 40
0.0149999999999999
 50
55.91968861721773
 51
112.5000000000002
 73
     1
 72
     1
 10
1.948997905303174
 20
1.226908653665502
 11
1.842108299831883
 21
1.182633529402583
 72
     2
 10
1.836368048346406
 20
1.196491722390253
 40
0.015
 50
67.50000000000023
 51
157.7895946975949
 73
     0
 72
     1
 10
1.822481019080039
 20
1.190821588515725
 11
1.625691772207085
 21
1.67278869742437
 72
     2
 10
1.639578801473452
 20
1.678458831298898
 40
0.015
 50
157.7895946975943
 51
245.2849679599896
 73
     0
 97
        1
330
496
 75
     0
 76
     1
 98
        1
 10
0.0
 20
0.0
1001
ACAD
1010
0.0
1020
0.0
1030
0.0
  0
HATCH
  5
5DE
330
1D
100
AcDbEntity
  8
COLOR
100
AcDbHatch
 10
0.0
 20
0.0
 30
0.0
210
0.0
220
0.0
230
1.0
  2
SOLID
 70
     1
 71
     1
 91
       26
 92
        1
 93
       17
 72
     1
 10
2.191249491308823
 20
0.0039284209181361
 11
2.191249491308823
 21
0.3142169766339404
 72
     1
 10
2.191249491308823
 20
0.3142169766339404
 11
2.253652683121088
 21
0.3142169766339404
 72
     1
 10
2.253652683121088
 20
0.3142169766339404
 11
2.253652683121088
 21
0.281079109850479
 72
     1
 10
2.253652683121088
 20
0.281079109850479
 11
2.254800306922255
 21
0.281079109850479
 72
     2
 10
2.32844471407597
 20
0.2238573908267132
 40
0.0932621243220256
 50
217.8472138817874
 51
245.351931410153
 73
     0
 72
     2
 10
2.33359119640191
 20
0.2077937828648142
 40
0.1100270029461081
 50
246.4047525988088
 51
271.0281490921037
 73
     0
 72
     2
 10
2.335590242655813
 20
0.2225214646296708
 40
0.0952816100760456
 50
269.9851091802235
 51
290.4222257057463
 73
     0
 72
     2
 10
2.327079998029296
 20
0.2017469889455412
 40
0.1177221099268757
 50
290.7757663026559
 51
308.5235734205332
 73
     0
 72
     1
 10
2.400401633823932
 20
0.293847113212744
 11
2.355359694875724
 21
0.2400520180082744
 72
     2
 10
2.305734198430857
 20
0.1756410185357771
 40
0.08131092639028
 50
52.38752271984348
 51
69.02509221988815
 73
     1
 72
     2
 10
2.313849280314652
 20
0.1960806939139055
 40
0.0593213456166965
 50
69.27697575717903
 51
89.81073304107636
 73
     1
 72
     2
 10
2.314018754350941
 20
0.1914574691164005
 40
0.0639442522415958
 50
89.97626990325634
 51
130.6386730184287
 73
     1
 72
     2
 10
2.302476407689786
 20
0.2039854528788081
 40
0.0469240719527239
 50
129.9067749785273
 51
160.2023198994839
 73
     1
 72
     2
 10
2.337018601939971
 20
0.1922951445034349
 40
0.0833870762621513
 50
160.6833606816142
 51
181.2907110627668
 73
     1
 72
     1
 10
2.253652683121088
 20
0.1904168295582754
 11
2.253652683121088
 21
0.0039284209181361
 72
     1
 10
2.253652683121088
 20
0.0039284209181361
 11
2.191249491308823
 21
0.0039284209181361
 72
     1
 10
2.191249491308823
 20
0.0039284209181361
 11
2.191249491308823
 21
0.0039284209181361
 97
        1
330
24
 92
        1
 93
       17
 72
     1
 10
1.709382924124928
 20
0.0039284209181361
 11
1.644399874007642
 21
0.2209730018386311
 72
     1
 10
1.644399874007642
 20
0.2209730018386311
 11
1.643243069216066
 21
0.2209730018386311
 72
     1
 10
1.643243069216066
 20
0.2209730018386311
 11
1.578406914945327
 21
0.0039284209181361
 72
     1
 10
1.578406914945327
 20
0.0039284209181361
 11
1.523320972489303
 21
0.0039284209181361
 72
     1
 10
1.523320972489303
 20
0.0039284209181361
 11
1.424193819039692
 21
0.3142169766339404
 72
     1
 10
1.424193819039692
 20
0.3142169766339404
 11
1.490186778102006
 21
0.3142169766339404
 72
     1
 10
1.490186778102006
 20
0.3142169766339404
 11
1.549716319916148
 21
0.0968864078621945
 72
     1
 10
1.549716319916148
 20
0.0968864078621945
 11
1.550863943717315
 21
0.0968864078621945
 72
     1
 10
1.550863943717315
 20
0.0968864078621945
 11
1.621153606291199
 21
0.3142169766339404
 72
     1
 10
1.621153606291199
 20
0.3142169766339404
 11
1.666627051788646
 21
0.3142169766339404
 72
     1
 10
1.666627051788646
 20
0.3142169766339404
 11
1.736778999506391
 21
0.0968864078621945
 72
     1
 10
1.736778999506391
 20
0.0968864078621945
 11
1.738073519154108
 21
0.0968864078621945
 72
     1
 10
1.738073519154108
 20
0.0968864078621945
 11
1.797456165121701
 21
0.3142169766339404
 72
     1
 10
1.797456165121701
 20
0.3142169766339404
 11
1.863586839040155
 21
0.3142169766339404
 72
     1
 10
1.863586839040155
 20
0.3142169766339404
 11
1.764321970734403
 21
0.0039284209181361
 72
     1
 10
1.764321970734403
 20
0.0039284209181361
 11
1.709382924124928
 21
0.0039284209181361
 72
     1
 10
1.709382924124928
 20
0.0039284209181361
 11
1.709382924124928
 21
0.0039284209181361
 97
        1
330
4A
 92
        1
 93
       29
 72
     1
 10
0.860425680907335
 20
0.6293094136584234
 11
0.6671942938610581
 21
0.6293094136584234
 72
     2
 10
0.765515820804665
 20
0.627404516530353
 40
0.0983399781044868
 50
178.8900811809753
 51
198.7494095035168
 73
     1
 72
     2
 10
0.7285074500914428
 20
0.6153099133454564
 40
0.0594095997196977
 50
199.1764637355478
 51
227.0059933886927
 73
     1
 72
     2
 10
0.7350916478971312
 20
0.6227841013036841
 40
0.069366885315323
 50
227.2380659604983
 51
250.2612675662455
 73
     1
 72
     2
 10
0.7400000321058501
 20
0.6388292725096296
 40
0.0861307040617002
 50
250.7927732768238
 51
270.7136477376723
 73
     1
 72
     2
 10
0.7416067051721067
 20
0.64190592223427
 40
0.0892022705141009
 50
269.6570672984212
 51
293.6583567627997
 73
     1
 72
     2
 10
0.7349122087753268
 20
0.6540510169371765
 40
0.1030206905860597
 50
294.3581567480796
 51
316.1548876711476
 73
     1
 72
     1
 10
0.8092122802059708
 20
0.5826874262607689
 11
0.8544001969016871
 21
0.5440980709920513
 72
     2
 10
0.7402215332336988
 20
0.6407946967701975
 40
0.149622874834988
 50
40.26088757926375
 51
53.19027097142807
 73
     0
 72
     2
 10
0.7573519605804913
 20
0.6183175945017404
 40
0.1213634341019809
 50
53.30723748074973
 51
68.17546834893963
 73
     0
 72
     2
 10
0.7426856690017194
 20
0.6556289517688139
 40
0.1614531864405602
 50
68.26630189770172
 51
90.16510236717286
 73
     0
 72
     2
 10
0.7423258082784743
 20
0.6418072966927348
 40
0.1476308986611694
 50
90.04089771377026
 51
108.6214018541192
 73
     0
 72
     2
 10
0.7540007672129269
 20
0.6738535785357757
 40
0.1817294016610616
 50
108.8833888264066
 51
125.0554827293647
 73
     0
 72
     2
 10
0.6950406845935688
 20
0.5903729457503447
 40
0.0795282298081632
 50
124.8279792085939
 51
144.8576196789855
 73
     0
 72
     2
 10
0.7210210218864453
 20
0.6081457924852933
 40
0.1110040120038827
 50
145.0750587374446
 51
161.1039781045529
 73
     0
 72
     2
 10
0.7900809158911339
 20
0.6320236261058326
 40
0.1840751358583149
 50
161.0336825700215
 51
172.4678987938168
 73
     0
 72
     2
 10
0.9197797582170792
 20
0.6498557063505699
 40
0.3149930677317178
 50
172.3447411293177
 51
180.3333017528283
 73
     0
 72
     2
 10
0.9185358797595675
 20
0.6532774268853787
 40
0.313747885211425
 50
179.7097561781149
 51
187.3688455531946
 73
     0
 72
     2
 10
0.7996413590415268
 20
0.6689596594057159
 40
0.1938242005707931
 50
187.2790592166708
 51
197.8418772266912
 73
     0
 72
     2
 10
0.7327555738490215
 20
0.690594470081522
 40
0.1235265671861996
 50
197.7949890065584
 51
212.0639737391519
 73
     0
 72
     2
 10
0.7043172314247952
 20
0.708159094057361
 40
0.090102116661975
 50
212.1985936034746
 51
229.8149519206976
 73
     0
 72
     2
 10
0.748625578162018
 20
0.6575486540150817
 40
0.1573615474709714
 50
229.3805030072717
 51
247.5431028619439
 73
     0
 72
     2
 10
0.7329057596531094
 20
0.6935433192125123
 40
0.1180942372839615
 50
247.9206643823091
 51
269.9254363020153
 73
     0
 72
     2
 10
0.733698291968543
 20
0.6829289857675851
 40
0.128711948805716
 50
269.5787898000368
 51
291.3845707185635
 73
     0
 72
     2
 10
0.730715194125948
 20
0.6791607972460049
 40
0.133315818481647
 50
291.9878756367237
 51
313.2869375094316
 73
     0
 72
     2
 10
0.7452872482314475
 20
0.6924303709596396
 40
0.1136751632193856
 50
312.5262788691138
 51
338.2229238626635
 73
     0
 72
     2
 10
0.7165355103406037
 20
0.6829391841818458
 40
0.1439081392935784
 50
338.9606790785896
 51
360.9054367625017
 73
     0
 72
     1
 10
0.860425680907335
 20
0.6806651197111324
 11
0.860425680907335
 21
0.6293094136584234
 72
     1
 10
0.860425680907335
 20
0.6293094136584234
 11
0.860425680907335
 21
0.6293094136584234
 97
        1
330
5D
 92
        1
 93
       29
 72
     2
 10
0.4200642517861615
 20
0.6561154705126593
 40
0.4227954566231911
 50
179.6137615624222
 51
185.5249429901274
 73
     0
 72
     2
 10
0.1559230789912518
 20
0.6829848847468588
 40
0.1572999039216406
 50
185.0465662167621
 51
196.4945344760475
 73
     0
 72
     2
 10
0.1189592820723076
 20
0.6910141116737265
 40
0.1196102818846263
 50
197.8340486103883
 51
222.551716046783
 73
     0
 72
     2
 10
0.1135124786853978
 20
0.6957026228129443
 40
0.1124274036108276
 50
222.668704399676
 51
233.1391983630654
 73
     0
 72
     2
 10
0.1547687956569268
 20
0.6411151740761744
 40
0.180851303704141
 50
233.0557352956052
 51
240.6797570192324
 73
     0
 72
     2
 10
0.1107678846421322
 20
0.7182898558052587
 40
0.0920179347144605
 50
241.0362448758779
 51
258.3982507858722
 73
     0
 72
     2
 10
0.1237371179945572
 20
0.6560596783214037
 40
0.1555850237873664
 50
258.3285447724399
 51
270.5529591174042
 73
     0
 72
     2
 10
0.126659328554985
 20
0.659086198737737
 40
0.1525578729588648
 50
269.4664274938563
 51
281.7859296759916
 73
     0
 72
     2
 10
0.138857648333634
 20
0.7172207130759329
 40
0.0931574230853134
 50
281.7448165660623
 51
298.8719550949477
 73
     0
 72
     2
 10
0.0944713322043172
 20
0.6386830883889866
 40
0.1833674446163916
 50
299.1678442787164
 51
306.7247681625567
 73
     0
 72
     2
 10
0.1360501398400698
 20
0.6941404386009488
 40
0.1140545916416094
 50
306.6422789972428
 51
317.0166691679602
 73
     0
 72
     2
 10
0.1319982595607042
 20
0.6915600235116874
 40
0.1187812642963937
 50
317.4386474276301
 51
342.3138583225441
 73
     0
 72
     2
 10
0.0929855066816166
 20
0.6830037209247312
 40
0.1585926797504741
 50
343.6508060723983
 51
355.0015075930157
 73
     0
 72
     2
 10
-0.1737592338436365
 20
0.6561193039938538
 40
0.4266801064130862
 50
354.5260295621405
 51
360.3832367127153
 73
     0
 72
     2
 10
-0.1872509444041981
 20
0.6503039149361498
 40
0.4401722347105508
 50
359.6145139245522
 51
365.3899396569587
 73
     0
 72
     2
 10
0.0924829677801254
 20
0.6225066525082632
 40
0.1590702222386327
 50
4.886396204266824
 51
16.29240417535832
 73
     0
 72
     2
 10
0.1319982595607041
 20
0.6139672381035854
 40
0.1187812642963939
 50
17.68614167745581
 51
42.56135257236987
 73
     0
 72
     2
 10
0.1393656293295979
 20
0.6067785102195861
 40
0.1084929435428351
 50
42.39671729265681
 51
53.35522166850211
 73
     0
 72
     2
 10
0.1022865753980579
 20
0.6562703101484448
 40
0.1703335944578217
 50
53.28419961790267
 51
61.39418234172665
 73
     0
 72
     2
 10
0.1390234399452523
 20
0.5899282558727184
 40
0.0945019786542833
 50
61.69080623074737
 51
78.5272012371616
 73
     0
 72
     2
 10
0.1266635547247437
 20
0.650092660647581
 40
0.1559227360097504
 50
78.47352841441366
 51
90.5236105409198
 73
     0
 72
     2
 10
0.1237329709908536
 20
0.6531885476016093
 40
0.1590192403029416
 50
89.45748881305784
 51
101.4144429034561
 73
     0
 72
     2
 10
0.1106047056106886
 20
0.5888413043318174
 40
0.0933466548555843
 50
101.3321938509648
 51
118.3994080558967
 73
     0
 72
     2
 10
0.1470557756883662
 20
0.6540560700506732
 40
0.1680529936754784
 50
118.7564353665832
 51
126.9354129960943
 73
     0
 72
     2
 10
0.1102654697322451
 20
0.6053415625515832
 40
0.1070070948430899
 50
126.8638050607584
 51
137.917960478194
 73
     0
 72
     2
 10
0.1189592820723084
 20
0.6145131499415468
 40
0.1196102818846273
 50
137.448283953217
 51
162.1659513896116
 73
     0
 72
     2
 10
0.156419877403788
 20
0.622525124562405
 40
0.1577714378692191
 50
163.5626973298058
 51
175.0665464877493
 73
     0
 72
     2
 10
0.4334321525334966
 20
0.6503077850247018
 40
0.436163778567336
 50
174.5598660604363
 51
180.388520446675
 73
     0
 72
     1
 10
-0.0027215983546655
 20
0.6532653719335066
 11
-0.0027215983546655
 21
0.6532653719335066
 97
        1
330
7C
 92
        1
 93
       29
 72
     2
 10
2.062053074474309
 20
0.6561056903719036
 40
0.422795895750657
 50
179.6150873631058
 51
185.5262687908109
 73
     0
 72
     2
 10
1.797909331002084
 20
0.6830155686324768
 40
0.1572941440108478
 50
185.0355312173297
 51
196.4834994766151
 73
     0
 72
     2
 10
1.760943927409818
 20
0.6910074075037022
 40
0.1196137336293988
 50
197.8368901420793
 51
222.554557578474
 73
     0
 72
     2
 10
1.755497628977381
 20
0.6957131437228966
 40
0.1124195643838787
 50
222.6650947287951
 51
233.1355886921845
 73
     0
 72
     2
 10
1.796755873956896
 20
0.6410717703392441
 40
0.1808877326341494
 50
233.0632662686963
 51
240.6872879923235
 73
     0
 72
     2
 10
1.752758314003601
 20
0.7182868492364891
 40
0.0920207875439435
 50
241.0369013342206
 51
258.3989072442149
 73
     0
 72
     2
 10
1.765724334009382
 20
0.656093972645377
 40
0.1555506956547813
 50
258.3273140486787
 51
270.551728393643
 73
     0
 72
     2
 10
1.768643790272687
 20
0.6590776918384668
 40
0.1525663880413284
 50
269.4661124707511
 51
281.7856146528865
 73
     0
 72
     2
 10
1.780843028150377
 20
0.7172207130759329
 40
0.0931574230853134
 50
281.7448165660623
 51
298.8719550949477
 73
     0
 72
     2
 10
1.73645671202106
 20
0.638683088388989
 40
0.1833674446163895
 50
299.1678442787168
 51
306.724768162557
 73
     0
 72
     2
 10
1.778036437755854
 20
0.6941303253503589
 40
0.1140621585481212
 50
306.6388770692574
 51
317.0132672399748
 73
     0
 72
     2
 10
1.77398593462505
 20
0.6915579421493092
 40
0.1187823339866021
 50
317.4377581853181
 51
342.3129690802322
 73
     0
 72
     2
 10
1.734974558894523
 20
0.6829944825447352
 40
0.1585943995560975
 50
343.6475100929468
 51
354.9982116135643
 73
     0
 72
     2
 10
1.468231195517832
 20
0.6561103308808682
 40
0.4266805055283564
 50
354.5248242435961
 51
360.3820313941709
 73
     0
 72
     2
 10
1.454739484957271
 20
0.6503130153306054
 40
0.4401726326168109
 50
359.615698867255
 51
365.3911245996615
 73
     0
 72
     2
 10
1.734472019993032
 20
0.6225158457973138
 40
0.1590719203477784
 50
4.889667312728097
 51
16.2956752838196
 73
     0
 72
     2
 10
1.77398593462505
 20
0.6139693194659636
 40
0.1187823339866018
 50
17.68703091976785
 51
42.56224181468195
 73
     0
 72
     2
 10
1.781351927245382
 20
0.6067880813697116
 40
0.1085000751895367
 50
42.40012292986186
 51
53.35862730570714
 73
     0
 72
     2
 10
1.744271955214801
 20
0.6562703101484428
 40
0.17033359445782
 50
53.28419961790227
 51
61.39418234172624
 73
     0
 72
     2
 10
1.781008819761996
 20
0.5899282558727182
 40
0.0945019786542831
 50
61.69080623074732
 51
78.52720123716156
 73
     0
 72
     2
 10
1.768648016442446
 20
0.6501013592044879
 40
0.1559314425958193
 50
78.47383653963932
 51
90.5239186661455
 73
     0
 72
     2
 10
1.765720187005679
 20
0.6531534803749909
 40
0.1589841399114128
 50
89.45869257646709
 51
101.4156466668654
 73
     0
 72
     2
 10
1.752595134972157
 20
0.5888443636277167
 40
0.0933495643127016
 50
101.3315486226704
 51
118.3987628276023
 73
     0
 72
     2
 10
1.789042853988335
 20
0.6540965197528026
 40
0.1680870649551664
 50
118.7489378759878
 51
126.9279155054989
 73
     0
 72
     2
 10
1.752250620024228
 20
0.6053316003383404
 40
0.1069997029700909
 50
126.8674183167492
 51
137.9215737341849
 73
     0
 72
     2
 10
1.760943927409819
 20
0.6145198541115711
 40
0.1196137336293995
 50
137.445442421526
 51
162.1631098579206
 73
     0
 72
     2
 10
1.79840612941462
 20
0.6224945907251
 40
0.1577657506452357
 50
163.5736491616448
 51
175.0774983195882
 73
     0
 72
     2
 10
2.075420975221644
 20
0.6503177038852427
 40
0.4361642163641644
 50
174.5585626706965
 51
180.3872170569352
 73
     0
 72
     1
 10
1.639266719379009
 20
0.6532653719335066
 11
1.639266719379009
 21
0.6532653719335066
 97
        1
330
9B
 92
        1
 93
       34
 72
     1
 10
0.7929008671516788
 20
0.0027807971169689
 11
0.7929008671516788
 21
0.0301802694648823
 72
     1
 10
0.7929008671516788
 20
0.0301802694648823
 11
0.7916063475039614
 21
0.0301802694648823
 72
     2
 10
0.7471781844431736
 20
0.0536935924678179
 40
0.050266669191387
 50
27.88974674996371
 51
68.44911808148873
 73
     0
 72
     2
 10
0.7305592513232593
 20
0.0937854674376953
 40
0.0936632260941325
 50
68.0023795801739
 51
81.58311737625006
 73
     0
 72
     2
 10
0.7184419313375134
 20
0.1719584948146961
 40
0.1727687951677118
 50
81.40261999998886
 51
90.42589824482992
 73
     0
 72
     2
 10
0.7179092258710764
 20
0.1443345147884601
 40
0.1451419877328759
 50
90.29667270744798
 51
108.4067663147909
 73
     0
 72
     2
 10
0.6993837643275221
 20
0.0875528035640007
 40
0.0854164054730335
 50
108.6427344740144
 51
134.4659936185121
 73
     0
 72
     2
 10
0.697779539753884
 20
0.091062438341194
 40
0.086872139724103
 50
132.0887657512194
 51
156.6360447720153
 73
     0
 72
     2
 10
0.7049006367092389
 20
0.0926488773589431
 40
0.0940484169385563
 50
157.4692734732059
 51
180.7459018882481
 73
     0
 72
     2
 10
0.710685581904299
 20
0.094962919491599
 40
0.0998313401656415
 50
179.3745733817489
 51
200.3192902788202
 73
     0
 72
     2
 10
0.7001319826677772
 20
0.0978794404904414
 40
0.0889265637150768
 50
200.918324010645
 51
223.5462882416454
 73
     0
 72
     2
 10
0.6923406978014155
 20
0.1052034458574385
 40
0.0782335194213879
 50
223.5896148538376
 51
250.5608829620806
 73
     0
 72
     2
 10
0.708004616448683
 20
0.058193310210404
 40
0.1277798946182552
 50
250.9528729668652
 51
270.3744578937262
 73
     0
 72
     1
 10
0.7088397189637874
 20
0.1859704759030334
 11
0.7929008671516788
 21
0.1859704759030334
 72
     1
 10
0.7929008671516788
 20
0.1859704759030334
 11
0.7929008671516788
 21
0.2188209776866823
 72
     2
 10
0.7537540682702571
 20
0.2200308915355054
 40
0.0391654918797665
 50
358.2297174179338
 51
385.3896921933346
 73
     1
 72
     2
 10
0.7604545011355237
 20
0.2222842889518106
 40
0.0321569427472466
 50
26.8815721087688
 51
57.88402116314072
 73
     1
 72
     2
 10
0.7482990731782919
 20
0.2018688219161321
 40
0.0559133416582571
 50
58.45607828950863
 51
79.8516948828347
 73
     1
 72
     2
 10
0.7349665048674073
 20
0.1326809956277794
 40
0.1263713239523823
 50
79.42853341985838
 51
91.8308025030836
 73
     1
 72
     2
 10
0.7301157050939584
 20
0.1120471987490259
 40
0.1469428637025748
 50
89.68280851502732
 51
97.39280336183204
 73
     1
 72
     2
 10
0.7221431576867259
 20
0.1720780307403827
 40
0.0863854039683677
 50
97.27206061276873
 51
108.2654646593935
 73
     1
 72
     2
 10
0.712557867717904
 20
0.2136072877211173
 40
0.044118333786901
 50
113.3549111435556
 51
151.3732050652896
 73
     1
 72
     1
 10
0.6738326025329853
 20
0.2347444874526366
 11
0.6260639094332041
 21
0.2723287078913399
 72
     2
 10
0.7124466267640663
 20
0.2088362738271212
 40
0.1072066370933386
 50
216.3163759805184
 51
246.0247379042798
 73
     0
 72
     2
 10
0.7173923107973172
 20
0.1962393783570268
 40
0.1207278141758981
 50
246.3093364964895
 51
259.9729099318512
 73
     0
 72
     2
 10
0.7242680974695539
 20
0.156537026142436
 40
0.1610209662382298
 50
260.0234247552153
 51
271.2987838909343
 73
     0
 72
     2
 10
0.7323902068953693
 20
0.1100775357481909
 40
0.2074872956336538
 50
268.7648934854636
 51
282.9584920190373
 73
     0
 72
     2
 10
0.7505812348607507
 20
0.1893599580651937
 40
0.1261447377793648
 50
282.9816305390258
 51
302.7728960205203
 73
     0
 72
     2
 10
0.7765257883236265
 20
0.2354915227702968
 40
0.0733801391875412
 50
305.2384559817415
 51
337.5256782436944
 73
     0
 72
     2
 10
0.7485146731386352
 20
0.2231845112472326
 40
0.1039705534634963
 50
337.1594767335367
 51
349.8862672494029
 73
     0
 72
     2
 10
0.6987467579521915
 20
0.2141572006774756
 40
0.1545504215038192
 50
349.8315271903173
 51
359.6004725257289
 73
     0
 72
     1
 10
0.853293422064298
 20
0.2152348828327955
 11
0.853293422064298
 21
0.0027807971169689
 72
     1
 10
0.853293422064298
 20
0.0027807971169689
 11
0.7929008671516788
 21
0.0027807971169689
 72
     1
 10
0.7929008671516788
 20
0.0027807971169689
 11
0.7929008671516788
 21
0.0027807971169689
 97
        1
330
BA
 92
        1
 93
       33
 72
     1
 10
2.67965833186961
 20
0.5889984390681471
 11
2.725710179762845
 21
0.5476844412756505
 72
     2
 10
2.596822903282557
 20
0.6601447266073838
 40
0.1710533420176325
 50
41.10624666139263
 51
61.91062221933068
 73
     0
 72
     2
 10
2.619471257005243
 20
0.6170017495538374
 40
0.1223285101098463
 50
61.75460578096693
 51
76.7246930921409
 73
     0
 72
     2
 10
2.614831756138961
 20
0.6382270575945147
 40
0.1440524498906425
 50
76.867264052223
 51
90.2886412691871
 73
     0
 72
     2
 10
2.613440604024218
 20
0.6384615956590205
 40
0.1442866945822177
 50
89.73574851081555
 51
110.5106090249114
 73
     0
 72
     2
 10
2.61934868642554
 20
0.6504323592941823
 40
0.157574369393221
 50
110.9975727452103
 51
130.5811828377003
 73
     0
 72
     2
 10
2.582189381525723
 20
0.6081847263787326
 40
0.1013175696383303
 50
130.1633823177705
 51
146.3797615750153
 73
     0
 72
     2
 10
2.60133024871141
 20
0.6204354584640376
 40
0.1240403512415534
 50
146.5629218416809
 51
160.7278253070895
 73
     0
 72
     2
 10
2.651396964504516
 20
0.637926305409871
 40
0.1770743555897144
 50
160.7323994641871
 51
171.9021400257976
 73
     0
 72
     2
 10
2.742849402348497
 20
0.6511815407378588
 40
0.2694822101573784
 50
171.8509665387148
 51
180.2906016284674
 73
     0
 72
     2
 10
2.743314167738578
 20
0.6539053816945961
 40
0.2699469203859589
 50
179.7119682457872
 51
188.1419217050759
 73
     0
 72
     2
 10
2.652398047515011
 20
0.6670668646149486
 40
0.1780832705000982
 50
188.0927694386225
 51
199.2200807020034
 73
     0
 72
     2
 10
2.602518388679653
 20
0.6844442823258146
 40
0.1252632475391995
 50
199.2253159278033
 51
213.2976601416108
 73
     0
 72
     2
 10
2.583365776675691
 20
0.6966377596711281
 40
0.1025613512286665
 50
213.4780457817024
 51
229.5625213252203
 73
     0
 72
     2
 10
2.619751359373354
 20
0.655784766044411
 40
0.157260029844505
 50
229.1269147104414
 51
248.8011903891762
 73
     0
 72
     2
 10
2.613450461807878
 20
0.6686004862435214
 40
0.1430384726849537
 50
249.2980109018019
 51
270.262608794374
 73
     0
 72
     2
 10
2.614831434441774
 20
0.6688850331936158
 40
0.142754266226522
 50
269.7088629702729
 51
283.2544620676034
 73
     0
 72
     2
 10
2.619369933338668
 20
0.6895292046740297
 40
0.1216198662257813
 50
283.4031513131542
 51
298.4791845819452
 73
     0
 72
     2
 10
2.595214696360916
 20
0.643928455298688
 40
0.1732214141954235
 50
298.3098271026508
 51
318.8809674514528
 73
     0
 72
     1
 10
2.725710179762845
 20
0.7578432793891428
 11
2.67965833186961
 21
0.7168152694478971
 72
     2
 10
2.607461607953373
 20
0.6602059745382386
 40
0.0917440963463376
 50
38.09991756932945
 51
61.8936572900842
 73
     1
 72
     2
 10
2.617092589706525
 20
0.6755956587897827
 40
0.0736425226863798
 50
62.86235997705578
 51
90.43069336376314
 73
     1
 72
     2
 10
2.614589111471366
 20
0.6542941504221609
 40
0.0949619719204658
 50
88.82342857942588
 51
110.5846239463015
 73
     1
 72
     2
 10
2.60387556927667
 20
0.6849939215929016
 40
0.0624601571944295
 50
111.2856747796175
 51
140.0935153841463
 73
     1
 72
     2
 10
2.618150719333705
 20
0.6750046860264939
 40
0.0798329833176598
 50
141.1667921138195
 51
165.6070464431833
 73
     1
 72
     2
 10
2.69424981506297
 20
0.6550821940575937
 40
0.1584962203998636
 50
165.4692479558523
 51
180.9160188407321
 73
     1
 72
     2
 10
2.692879586752969
 20
0.6500274860070205
 40
0.1571259595149513
 50
179.0807356340039
 51
194.5942704130078
 73
     1
 72
     2
 10
2.617652631928489
 20
0.6302538085844642
 40
0.0793440303450941
 50
194.4639012380217
 51
218.9679851089938
 73
     1
 72
     2
 10
2.603769592570297
 20
0.6205386666510706
 40
0.0624513838219915
 50
220.048205569057
 51
248.815500781869
 73
     1
 72
     2
 10
2.614586091580587
 20
0.6516133983828887
 40
0.0953417821080948
 50
249.5030121794951
 51
271.1736988813254
 73
     1
 72
     2
 10
2.617151891209502
 20
0.6297122976553479
 40
0.0734232357412122
 50
269.5217429418543
 51
297.3022800935417
 73
     1
 72
     2
 10
2.607914625759942
 20
0.6441088058179625
 40
0.0904671868118465
 50
298.3186817521421
 51
322.4701114754345
 73
     1
 72
     1
 10
2.67965833186961
 20
0.5889984390681471
 11
2.67965833186961
 21
0.5889984390681471
 97
        1
330
FC
 92
        1
 93
       25
 72
     1
 10
0.9149918183421167
 20
0.4977628059248802
 11
0.9149918183421167
 21
0.8080513616406846
 72
     1
 10
0.9149918183421167
 20
0.8080513616406846
 11
0.9773950101543809
 21
0.8080513616406846
 72
     1
 10
0.9773950101543809
 20
0.8080513616406846
 11
0.9773950101543809
 21
0.7749134948572232
 72
     1
 10
0.9773950101543809
 20
0.7749134948572232
 11
0.9785426339555482
 21
0.7749134948572232
 72
     2
 10
1.052187041109263
 20
0.7176917758334593
 40
0.0932621243220241
 50
217.8472138817867
 51
245.3519314101522
 73
     0
 72
     2
 10
1.057333523435203
 20
0.7016281678715575
 40
0.1100270029461091
 50
246.4047525988089
 51
271.0281490921038
 73
     0
 72
     2
 10
1.059128722232366
 20
0.7154113340567402
 40
0.0962262890826952
 50
270.1066318122521
 51
291.7775486676191
 73
     0
 72
     2
 10
1.046117389835298
 20
0.6849691662671258
 40
0.1293254984739714
 50
292.1269129838442
 51
309.9111647918466
 73
     0
 72
     2
 10
1.075014000068717
 20
0.7174518820621408
 40
0.0858801182954674
 50
309.0278243299855
 51
337.4390475125728
 73
     0
 72
     2
 10
1.058964765589212
 20
0.7108377671282884
 40
0.1032387587220012
 50
337.4665731459647
 51
349.9812285231733
 73
     0
 72
     2
 10
1.02410805856114
 20
0.704736886315481
 40
0.1386253157618992
 50
350.0044577680216
 51
360.2846513823617
 73
     0
 72
     1
 10
1.162731663547669
 20
0.7040481841846731
 11
1.162731663547669
 21
0.4977628059248802
 72
     1
 10
1.162731663547669
 20
0.4977628059248802
 11
1.100328471735405
 21
0.4977628059248802
 72
     1
 10
1.100328471735405
 20
0.4977628059248802
 11
1.100328471735405
 21
0.6825306969623097
 72
     2
 10
1.017362813786361
 20
0.6838967088565768
 40
0.082976902734514
 50
359.0567224202151
 51
378.702301241006
 73
     1
 72
     2
 10
1.042661504902155
 20
0.6919526662919426
 40
0.0564329511236246
 50
19.19113810958029
 51
44.61985242978929
 73
     1
 72
     2
 10
1.041095217624358
 20
0.6908158989376588
 40
0.058346998218911
 50
44.33406621362685
 51
67.76615177842723
 73
     1
 72
     2
 10
1.039947253446307
 20
0.6859501859819955
 40
0.0632900956996245
 50
68.47095098174347
 51
90.65856994179528
 73
     1
 72
     2
 10
1.038402820638753
 20
0.6835621611772019
 40
0.0656790210852246
 50
89.28728152168354
 51
111.1314823724688
 73
     1
 72
     2
 10
1.036247052279956
 20
0.6910972900329987
 40
0.0578777150219743
 50
111.8300840650534
 51
135.6014548955274
 73
     1
 72
     2
 10
1.035061976987631
 20
0.6919526662919432
 40
0.0564329511236242
 50
135.3801475702111
 51
160.8088618904202
 73
     1
 72
     2
 10
1.060360668103425
 20
0.6838967088565765
 40
0.0829769027345144
 50
161.2976987589938
 51
180.9432775797846
 73
     1
 72
     1
 10
0.9773950101543809
 20
0.6825306969623097
 11
0.9773950101543809
 21
0.4977628059248802
 72
     1
 10
0.9773950101543809
 20
0.4977628059248802
 11
0.9149918183421167
 21
0.4977628059248802
 72
     1
 10
0.9149918183421167
 20
0.4977628059248802
 11
0.9149918183421167
 21
0.4977628059248802
 97
        1
330
14D
 92
        1
 93
       34
 72
     1
 10
2.057459502103581
 20
0.0027807971169689
 11
2.057459502103581
 21
0.0301802694648823
 72
     1
 10
2.057459502103581
 20
0.0301802694648823
 11
2.056164982455865
 21
0.0301802694648823
 72
     2
 10
2.011736819395076
 20
0.0536935924678203
 40
0.0502666691913889
 50
27.88974674996564
 51
68.44911808149065
 73
     0
 72
     2
 10
1.995117886275161
 20
0.0937854674376933
 40
0.0936632260941306
 50
68.0023795801736
 51
81.58311737624977
 73
     0
 72
     2
 10
1.983000566289416
 20
0.1719584948146929
 40
0.1727687951677085
 50
81.40261999998876
 51
90.42589824482984
 73
     0
 72
     2
 10
1.982467860822979
 20
0.1443345147884615
 40
0.1451419877328773
 50
90.29667270744788
 51
108.4067663147908
 73
     0
 72
     2
 10
1.963942399279425
 20
0.0875528035639989
 40
0.0854164054730321
 50
108.6427344740152
 51
134.4659936185127
 73
     0
 72
     2
 10
1.962338174705787
 20
0.0910624383411952
 40
0.0868721397241038
 50
132.0887657512189
 51
156.6360447720147
 73
     0
 72
     2
 10
1.969459271661142
 20
0.0926488773589421
 40
0.0940484169385566
 50
157.4692734732066
 51
180.7459018882487
 73
     0
 72
     2
 10
1.975244216856202
 20
0.0949629194916014
 40
0.099831340165641
 50
179.3745733817476
 51
200.3192902788188
 73
     0
 72
     2
 10
1.964690617619679
 20
0.0978794404904416
 40
0.0889265637150763
 50
200.9183240106449
 51
223.5462882416455
 73
     0
 72
     2
 10
1.956899332753318
 20
0.1052034458574385
 40
0.0782335194213879
 50
223.5896148538376
 51
250.5608829620806
 73
     0
 72
     2
 10
1.972563251400586
 20
0.0581933102104015
 40
0.1277798946182578
 50
250.9528729668654
 51
270.3744578937263
 73
     0
 72
     1
 10
1.973398353915691
 20
0.1859704759030334
 11
2.057459502103581
 21
0.1859704759030334
 72
     1
 10
2.057459502103581
 20
0.1859704759030334
 11
2.057459502103581
 21
0.2188209776866823
 72
     2
 10
2.018312703222142
 20
0.2200308915355054
 40
0.0391654918797833
 50
358.2297174179346
 51
385.389692193323
 73
     1
 72
     2
 10
2.025013136087427
 20
0.2222842889518077
 40
0.0321569427472483
 50
26.88157210877295
 51
57.88402116314532
 73
     1
 72
     2
 10
2.012857708130194
 20
0.2018688219161342
 40
0.0559133416582551
 50
58.4560782895078
 51
79.85169488283378
 73
     1
 72
     2
 10
1.999525139819309
 20
0.1326809956277734
 40
0.1263713239523882
 50
79.4285334198587
 51
91.8308025030833
 73
     1
 72
     2
 10
1.994674340045861
 20
0.112047198749026
 40
0.1469428637025748
 50
89.68280851502732
 51
97.39280336183204
 73
     1
 72
     2
 10
1.986701792638628
 20
0.1720780307403803
 40
0.08638540396837
 50
97.2720606127684
 51
108.2654646593931
 73
     1
 72
     2
 10
1.977116502669806
 20
0.2136072877211173
 40
0.044118333786901
 50
113.3549111435556
 51
151.3732050652896
 73
     1
 72
     1
 10
1.938391237484888
 20
0.2347444874526366
 11
1.890622544385107
 21
0.2723287078913399
 72
     2
 10
1.977005261715968
 20
0.2088362738271232
 40
0.1072066370933367
 50
216.3163759805178
 51
246.0247379042793
 73
     0
 72
     2
 10
1.98195094574922
 20
0.196239378357021
 40
0.1207278141759037
 50
246.3093364964903
 51
259.9729099318519
 73
     0
 72
     2
 10
1.988826732421457
 20
0.156537026142432
 40
0.1610209662382338
 50
260.0234247552156
 51
271.2987838909339
 73
     0
 72
     2
 10
1.996948841847272
 20
0.1100775357481895
 40
0.2074872956336552
 50
268.7648934854634
 51
282.9584920190372
 73
     0
 72
     2
 10
2.015139869812654
 20
0.189359958065191
 40
0.1261447377793674
 50
282.9816305390254
 51
302.7728960205199
 73
     0
 72
     2
 10
2.04108442327553
 20
0.2354915227702976
 40
0.0733801391875407
 50
305.238455981742
 51
337.5256782436949
 73
     0
 72
     2
 10
2.013073308090538
 20
0.2231845112472346
 40
0.1039705534634957
 50
337.1594767335378
 51
349.8862672494039
 73
     0
 72
     2
 10
1.963305392904239
 20
0.2141572006774942
 40
0.154550421503673
 50
349.8315271903146
 51
359.6004725257355
 73
     0
 72
     1
 10
2.1178520570162
 20
0.2152348828327955
 11
2.1178520570162
 21
0.0027807971169689
 72
     1
 10
2.1178520570162
 20
0.0027807971169689
 11
2.057459502103581
 21
0.0027807971169689
 72
     1
 10
2.057459502103581
 20
0.0027807971169689
 11
2.057459502103581
 21
0.0027807971169689
 97
        1
330
168
 92
        1
 93
       29
 72
     1
 10
2.660012486698403
 20
0.1354750286516793
 11
2.466789362543494
 21
0.1354750286516793
 72
     2
 10
2.56510905328902
 20
0.1335596426489166
 40
0.0983383459889142
 50
178.8839503741906
 51
198.743278696732
 73
     1
 72
     2
 10
2.528097928278674
 20
0.121471822568009
 40
0.0594075153841284
 50
199.1733788671003
 51
227.0029085202454
 73
     1
 72
     2
 10
2.534680748935801
 20
0.1289474623325091
 40
0.0693649188341234
 50
227.237080278683
 51
250.2602818844303
 73
     1
 72
     2
 10
2.539587755995958
 20
0.1449896595979396
 40
0.0861254651314103
 50
250.7922058681756
 51
270.7130803290241
 73
     1
 72
     2
 10
2.541193510963174
 20
0.1480715372275256
 40
0.0892022705141006
 50
269.6570672984213
 51
293.6583567627997
 73
     1
 72
     2
 10
2.534499932665435
 20
0.1602214002837477
 40
0.1030246558629813
 50
294.3565978802367
 51
316.1533288033047
 73
     1
 72
     1
 10
2.608800922195119
 20
0.0888530412540247
 11
2.653989756989877
 21
0.0502636859853072
 72
     2
 10
2.539810634272368
 20
0.146964362984209
 40
0.1496258433446105
 50
40.26195780527565
 51
53.19134119743998
 73
     0
 72
     2
 10
2.556941979718201
 20
0.124472655244712
 40
0.1213541483968514
 50
53.30478135424045
 51
68.17301222243032
 73
     0
 72
     2
 10
2.542274770040389
 20
0.1618064307161333
 40
0.1614650569751291
 50
68.26710423037213
 51
90.1659046998433
 73
     0
 72
     2
 10
2.541913073119062
 20
0.1479701054440284
 40
0.1476280927483113
 50
90.04107665235676
 51
108.6215807927057
 73
     0
 72
     2
 10
2.553588032053512
 20
0.1800224246196051
 40
0.1817323102896589
 50
108.8829221984147
 51
125.0550161013733
 73
     0
 72
     2
 10
2.494628408483715
 20
0.0965333618092671
 40
0.0795244865836064
 50
124.8306614300118
 51
144.8603019003897
 73
     0
 72
     2
 10
2.520609204826073
 20
0.1143146678151739
 40
0.1110055022187175
 50
145.0735433308932
 51
161.1024626980016
 73
     0
 72
     2
 10
2.589670935028845
 20
0.1381663149528534
 40
0.1840698565843054
 50
161.0406636103146
 51
172.47487983411
 73
     0
 72
     2
 10
2.719372990701004
 20
0.1560081730537055
 40
0.3149922264083849
 50
172.3471336797404
 51
180.3356943032619
 73
     0
 72
     2
 10
2.718126357946334
 20
0.1594979046354998
 40
0.3137444955794652
 50
179.6997339146648
 51
187.3588232897558
 73
     0
 72
     2
 10
2.599231837228758
 20
0.1750855470233565
 40
0.1938328808232481
 50
187.2905701988068
 51
197.8533882088272
 73
     0
 72
     2
 10
2.532346511085773
 20
0.1967857573494459
 40
0.1235156640507992
 50
197.7841055916363
 51
212.0530903242299
 73
     0
 72
     2
 10
2.50390449626544
 20
0.214327671532746
 40
0.0901001496649408
 50
212.1971550024169
 51
229.8135133196255
 73
     0
 72
     2
 10
2.548215138250209
 20
0.1636970373458857
 40
0.1573764205629211
 50
229.3838261231765
 51
247.5464259778487
 73
     0
 72
     2
 10
2.532496696889861
 20
0.1997160174461111
 40
0.1180871558499507
 50
247.9199917190937
 51
269.9247636387998
 73
     0
 72
     2
 10
2.533288311106253
 20
0.1890922175979637
 40
0.1287143352796265
 50
269.5785932633742
 51
291.3843741819009
 73
     0
 72
     2
 10
2.530303377065577
 20
0.1853386184181858
 40
0.1333053596751133
 50
291.9907546740965
 51
313.2898165468043
 73
     0
 72
     2
 10
2.544873594972994
 20
0.1985939732973844
 40
0.1136763362090155
 50
312.5254226731608
 51
338.2220676667106
 73
     0
 72
     2
 10
2.516122316131671
 20
0.1891047991750997
 40
0.143908139293579
 50
338.9606790785888
 51
360.905436762501
 73
     0
 72
     1
 10
2.660012486698403
 20
0.1868307347043883
 11
2.660012486698403
 21
0.1354750286516793
 72
     1
 10
2.660012486698403
 20
0.1354750286516793
 11
2.660012486698403
 21
0.1354750286516793
 97
        1
330
18C
 92
        1
 93
       17
 72
     1
 10
0.9257243720741903
 20
0.0039284209181361
 11
0.9257243720741903
 21
0.3142169766339404
 72
     1
 10
0.9257243720741903
 20
0.3142169766339404
 11
0.9881275638864548
 21
0.3142169766339404
 72
     1
 10
0.9881275638864548
 20
0.3142169766339404
 11
0.9881275638864548
 21
0.281079109850479
 72
     1
 10
0.9881275638864548
 20
0.281079109850479
 11
0.9892751876876225
 21
0.281079109850479
 72
     2
 10
1.062919594841337
 20
0.2238573908267147
 40
0.0932621243220245
 50
217.8472138817868
 51
245.3519314101522
 73
     0
 72
     2
 10
1.068066077167277
 20
0.2077937828648144
 40
0.1100270029461079
 50
246.4047525988088
 51
271.0281490921038
 73
     0
 72
     2
 10
1.070065123421179
 20
0.2225214646296732
 40
0.0952816100760431
 50
269.9851091802237
 51
290.4222257057466
 73
     0
 72
     2
 10
1.061554878794663
 20
0.2017469889455382
 40
0.1177221099268784
 50
290.7757663026552
 51
308.5235734205326
 73
     0
 72
     1
 10
1.134876514589299
 20
0.293847113212744
 11
1.089834575641091
 21
0.2400520180082744
 72
     2
 10
1.040209079196224
 20
0.1756410185357801
 40
0.0813109263902774
 50
52.38752271984242
 51
69.02509221988709
 73
     1
 72
     2
 10
1.048324161080019
 20
0.1960806939139032
 40
0.0593213456166988
 50
69.27697575717944
 51
89.81073304107684
 73
     1
 72
     2
 10
1.048493635116308
 20
0.1914574691164005
 40
0.0639442522415958
 50
89.97626990325634
 51
130.6386730184287
 73
     1
 72
     2
 10
1.036951288455154
 20
0.2039854528788079
 40
0.0469240719527242
 50
129.9067749785274
 51
160.2023198994838
 73
     1
 72
     2
 10
1.071493482705338
 20
0.1922951445034349
 40
0.0833870762621513
 50
160.6833606816142
 51
181.2907110627668
 73
     1
 72
     1
 10
0.9881275638864548
 20
0.1904168295582754
 11
0.9881275638864548
 21
0.0039284209181361
 72
     1
 10
0.9881275638864548
 20
0.0039284209181361
 11
0.9257243720741903
 21
0.0039284209181361
 72
     1
 10
0.9257243720741903
 20
0.0039284209181361
 11
0.9257243720741903
 21
0.0039284209181361
 97
        1
330
1AB
 92
        1
 93
       25
 72
     1
 10
1.951724606222927
 20
0.6017664424304121
 11
1.951724606222927
 21
0.8080513616406846
 72
     1
 10
1.951724606222927
 20
0.8080513616406846
 11
2.014127798035191
 21
0.8080513616406846
 72
     1
 10
2.014127798035191
 20
0.8080513616406846
 11
2.014127798035191
 21
0.6229974827520042
 72
     2
 10
2.097879595531551
 20
0.621582863043383
 40
0.0837637435457086
 50
179.0323308295434
 51
198.6149715028967
 73
     1
 72
     2
 10
2.071164261889835
 20
0.6130697487520527
 40
0.0557304746377738
 50
199.0878652840395
 51
224.8105300621735
 73
     1
 72
     2
 10
2.07282585638917
 20
0.6144937250256644
 40
0.0579130696028087
 50
224.6514383467203
 51
248.3479275920576
 73
     1
 72
     2
 10
2.075130400193127
 20
0.6224430431053809
 40
0.0661565325518136
 50
249.0331013003233
 51
270.7120849719362
 73
     1
 72
     2
 10
2.076685357926121
 20
0.6200353271607615
 40
0.0637479190456512
 50
269.3413811650825
 51
291.3616788387315
 73
     1
 72
     2
 10
2.077986222005074
 20
0.6147731286342591
 40
0.0583776510329983
 50
292.0539076995533
 51
315.4135069257113
 73
     1
 72
     2
 10
2.080024795761572
 20
0.6130697487520536
 40
0.0557304746377743
 50
315.1894699378255
 51
340.9121347159597
 73
     1
 72
     2
 10
2.053309462119855
 20
0.6215828630433804
 40
0.0837637435457085
 50
341.3850284971052
 51
360.9676691704584
 73
     1
 72
     1
 10
2.137061259616215
 20
0.6229974827520042
 11
2.137061259616215
 21
0.8080513616406846
 72
     1
 10
2.137061259616215
 20
0.8080513616406846
 11
2.199464451428479
 21
0.8080513616406846
 72
     1
 10
2.199464451428479
 20
0.8080513616406846
 11
2.199464451428479
 21
0.4977628059248802
 72
     1
 10
2.199464451428479
 20
0.4977628059248802
 11
2.137061259616215
 21
0.4977628059248802
 72
     1
 10
2.137061259616215
 20
0.4977628059248802
 11
2.137061259616215
 21
0.5306135831382415
 72
     1
 10
2.137061259616215
 20
0.5306135831382415
 11
2.135775920958908
 21
0.5306135831382415
 72
     2
 10
2.062462062122204
 20
0.5877304237103859
 40
0.0929368354016422
 50
37.92119006614974
 51
65.31597739194908
 73
     0
 72
     2
 10
2.057655278198689
 20
0.6029572999920103
 40
0.1087979559739985
 50
66.3647526830648
 51
91.01560446974895
 73
     0
 72
     2
 10
2.055795346504232
 20
0.5930360376430754
 40
0.098859625720464
 50
90.039689288996
 51
111.4258147709129
 73
     0
 72
     2
 10
2.067222635304183
 20
0.6198839278757815
 40
0.1280291307136136
 50
111.7973186684875
 51
129.788141280292
 73
     0
 72
     2
 10
2.03889991992226
 20
0.5877756063960843
 40
0.0852401145423895
 50
128.9708327261578
 51
157.5567863965746
 73
     0
 72
     2
 10
2.055933720934926
 20
0.5948356340889731
 40
0.1036790396132747
 50
157.5444425741508
 51
170.0380282050617
 73
     0
 72
     2
 10
2.091823274419669
 20
0.6010384079504172
 40
0.1401005598300903
 50
170.0786962802117
 51
180.297739643814
 73
     0
 72
     1
 10
1.951724606222927
 20
0.6017664424304121
 11
1.951724606222927
 21
0.6017664424304121
 97
        1
330
1F4
 92
        1
 93
       17
 72
     1
 10
2.2703129662881
 20
0.4977628059248802
 11
2.2703129662881
 21
0.8080513616406846
 72
     1
 10
2.2703129662881
 20
0.8080513616406846
 11
2.332716158100364
 21
0.8080513616406846
 72
     1
 10
2.332716158100364
 20
0.8080513616406846
 11
2.332716158100364
 21
0.7749134948572232
 72
     1
 10
2.332716158100364
 20
0.7749134948572232
 11
2.333863781901532
 21
0.7749134948572232
 72
     2
 10
2.407508189055247
 20
0.7176917758334598
 40
0.0932621243220238
 50
217.8472138817864
 51
245.3519314101518
 73
     0
 72
     2
 10
2.412654671381186
 20
0.7016281678715575
 40
0.110027002946109
 50
246.4047525988089
 51
271.0281490921038
 73
     0
 72
     2
 10
2.414653717635089
 20
0.7163558496364162
 40
0.0952816100760444
 50
269.9851091802236
 51
290.4222257057464
 73
     0
 72
     2
 10
2.406143473008572
 20
0.6955813739522823
 40
0.1177221099268785
 50
290.7757663026552
 51
308.5235734205326
 73
     0
 72
     1
 10
2.479465108803209
 20
0.7876814982194882
 11
2.434423169855001
 21
0.7338864030150185
 72
     2
 10
2.384797673410134
 20
0.6694754035425197
 40
0.0813109263902814
 50
52.38752271984395
 51
69.02509221988863
 73
     1
 72
     2
 10
2.392912755293929
 20
0.6899150789206485
 40
0.0593213456166976
 50
69.27697575717922
 51
89.81073304107663
 73
     1
 72
     2
 10
2.393082229330218
 20
0.6852918541231452
 40
0.0639442522415952
 50
89.97626990325656
 51
130.6386730184289
 73
     1
 72
     2
 10
2.381539882669063
 20
0.6978198378855511
 40
0.0469240719527247
 50
129.9067749785266
 51
160.202319899483
 73
     1
 72
     2
 10
2.416082076919248
 20
0.686129529510179
 40
0.0833870762621513
 50
160.6833606816142
 51
181.2907110627668
 73
     1
 72
     1
 10
2.332716158100364
 20
0.6842512145650195
 11
2.332716158100364
 21
0.4977628059248802
 72
     1
 10
2.332716158100364
 20
0.4977628059248802
 11
2.2703129662881
 21
0.4977628059248802
 72
     1
 10
2.2703129662881
 20
0.4977628059248802
 11
2.2703129662881
 21
0.4977628059248802
 97
        1
330
20F
 92
        1
 93
       22
 72
     1
 10
1.324212931674864
 20
0.0039284209181361
 11
1.324212931674864
 21
0.0362053862309138
 72
     2
 10
1.242040864785091
 20
0.1093337491682276
 40
0.1100000274674002
 50
41.66722410014123
 51
65.41229233987202
 73
     0
 72
     2
 10
1.24512790516436
 20
0.1063528623590687
 40
0.1060165366427756
 50
66.25909825609999
 51
90.59543920043632
 73
     0
 72
     2
 10
1.243178237192303
 20
0.1208844855492245
 40
0.1205454171285292
 50
89.5969744639203
 51
102.3740499587474
 73
     0
 72
     2
 10
1.236398213629639
 20
0.089411094734938
 40
0.0883503439181648
 50
102.4531718074835
 51
118.1778186842029
 73
     0
 72
     2
 10
1.241945706293327
 20
0.1009216031880452
 40
0.1011177492440954
 50
117.8688182185632
 51
143.2111737394274
 73
     0
 72
     2
 10
1.230817634827653
 20
0.0954546140315295
 40
0.0889612280988016
 50
141.7386983832341
 51
169.5929781671247
 73
     0
 72
     2
 10
1.378733658942086
 20
0.1202862656096281
 40
0.2389405525530192
 50
170.1436304288762
 51
177.6905783181471
 73
     0
 72
     2
 10
2.039599938023018
 20
0.1555474808965539
 40
0.9007320316482055
 50
177.1433792965489
 51
180.2470315108177
 73
     0
 72
     2
 10
2.017232071721542
 20
0.1632669358327031
 40
0.878364169563833
 50
179.7497798874552
 51
182.8927775698537
 73
     0
 72
     2
 10
1.372817093345367
 20
0.1980851762149252
 40
0.2330240618754538
 50
182.3390114930429
 51
189.9811317724336
 73
     0
 72
     2
 10
1.232711210604416
 20
0.2215475357719166
 40
0.0909797176562691
 50
190.7220312021385
 51
217.9462922475028
 73
     0
 72
     2
 10
1.244977421219718
 20
0.2133916279506284
 40
0.1056737914521368
 50
217.3438364024561
 51
241.576532096941
 73
     0
 72
     2
 10
1.236587153788664
 20
0.2301174576442601
 40
0.0869725117860415
 50
241.1928664436867
 51
257.2186982647641
 73
     0
 72
     2
 10
1.243179447812559
 20
0.2001544381684068
 40
0.1176516801660474
 50
257.3159895493354
 51
270.4123488590416
 73
     0
 72
     2
 10
1.245312613289446
 20
0.2257647539961304
 40
0.0920473076470144
 50
269.199208937429
 51
297.2197902975471
 73
     0
 72
     2
 10
1.209521058751929
 20
0.1608368960186112
 40
0.166169839928187
 50
297.9541045443867
 51
313.6466333273611
 73
     0
 72
     1
 10
1.324212931674864
 20
0.281079109850479
 11
1.324212931674864
 21
0.4394511944115438
 72
     1
 10
1.324212931674864
 20
0.4394511944115438
 11
1.386616123487128
 21
0.4394511944115438
 72
     1
 10
1.386616123487128
 20
0.4394511944115438
 11
1.386616123487128
 21
0.0039284209181361
 72
     1
 10
1.386616123487128
 20
0.0039284209181361
 11
1.324212931674864
 21
0.0039284209181361
 72
     1
 10
1.324212931674864
 20
0.0039284209181361
 11
1.324212931674864
 21
0.0039284209181361
 97
        1
330
222
 92
        1
 93
       29
 72
     1
 10
2.999662452274729
 20
0.6293094136584234
 11
2.806439328119821
 21
0.6293094136584234
 72
     2
 10
2.904759018865346
 20
0.6273940276556593
 40
0.0983383459889135
 50
178.8839503741898
 51
198.7432786967314
 73
     1
 72
     2
 10
2.867747893855001
 20
0.6153062075747525
 40
0.0594075153841283
 50
199.1733788670997
 51
227.0029085202445
 73
     1
 72
     2
 10
2.874330714512128
 20
0.6227818473392587
 40
0.0693649188341281
 50
227.2370802786854
 51
250.2602818844327
 73
     1
 72
     2
 10
2.879237721572286
 20
0.6388240446046801
 40
0.0861254651314067
 50
250.7922058681752
 51
270.7130803290237
 73
     1
 72
     2
 10
2.880843476539501
 20
0.6419059222342697
 40
0.0892022705141006
 50
269.6570672984213
 51
293.6583567627997
 73
     1
 72
     2
 10
2.874149898241762
 20
0.654055785290494
 40
0.1030246558629832
 50
294.3565978802359
 51
316.153328803304
 73
     1
 72
     1
 10
2.948450887771447
 20
0.5826874262607689
 11
2.993639722566204
 21
0.5440980709920513
 72
     2
 10
2.879460599848695
 20
0.6407987479909476
 40
0.1496258433446065
 50
40.26195780527412
 51
53.19134119743843
 73
     0
 72
     2
 10
2.896591945294515
 20
0.6183070402514836
 40
0.1213541483968822
 50
53.30478135424264
 51
68.17301222242888
 73
     0
 72
     2
 10
2.881924735616716
 20
0.6556408157228822
 40
0.1614650569751338
 50
68.2671042303725
 51
90.16590469984362
 73
     0
 72
     2
 10
2.881563038695389
 20
0.6418044904507672
 40
0.1476280927483059
 50
90.04107665235709
 51
108.621580792706
 73
     0
 72
     2
 10
2.893237997629839
 20
0.6738568096263513
 40
0.1817323102896606
 50
108.8829221984142
 51
125.0550161013729
 73
     0
 72
     2
 10
2.834278374059992
 20
0.5903677468159615
 40
0.0795244865835365
 50
124.8306614300021
 51
144.860301900398
 73
     0
 72
     2
 10
2.860259170402401
 20
0.6081490528219167
 40
0.1110055022187172
 50
145.073543330894
 51
161.1024626980023
 73
     0
 72
     2
 10
2.929320900605171
 20
0.632000699959602
 40
0.1840698565843064
 50
161.0406636103133
 51
172.4748798341086
 73
     0
 72
     2
 10
3.059022956277976
 20
0.6498425580604813
 40
0.3149922264090285
 50
172.3471336797503
 51
180.3356943032555
 73
     0
 72
     2
 10
3.057776323523356
 20
0.6533322896422077
 40
0.3137444955801598
 50
179.6997339146721
 51
187.3588232897461
 73
     0
 72
     2
 10
2.938881802805087
 20
0.6689199320301024
 40
0.1938328808232508
 50
187.2905701988062
 51
197.8533882088265
 73
     0
 72
     2
 10
2.871996476662099
 20
0.6906201423561918
 40
0.1235156640507985
 50
197.7841055916356
 51
212.0530903242291
 73
     0
 72
     2
 10
2.843554461841691
 20
0.7081620565395536
 40
0.0901001496648441
 50
212.197155002408
 51
229.8135133196358
 73
     0
 72
     2
 10
2.887865103826535
 20
0.6575314223526267
 40
0.1573764205629239
 50
229.383826123177
 51
247.5464259778492
 73
     0
 72
     2
 10
2.872146662466188
 20
0.6935504024528554
 40
0.1180871558499506
 50
247.9199917190937
 51
269.9247636387998
 73
     0
 72
     2
 10
2.87293827668258
 20
0.6829266026047067
 40
0.1287143352796276
 50
269.578593263374
 51
291.3843741819007
 73
     0
 72
     2
 10
2.869953342641912
 20
0.6791730034249458
 40
0.1333053596750956
 50
291.9907546740958
 51
313.2898165468062
 73
     0
 72
     2
 10
2.884523560549321
 20
0.6924283583041287
 40
0.1136763362090152
 50
312.5254226731608
 51
338.2220676667106
 73
     0
 72
     2
 10
2.855772281707997
 20
0.6829391841818461
 40
0.1439081392935785
 50
338.9606790785897
 51
360.9054367625018
 73
     0
 72
     1
 10
2.999662452274729
 20
0.6806651197111324
 11
2.999662452274729
 21
0.6293094136584234
 72
     1
 10
2.999662452274729
 20
0.6293094136584234
 11
2.999662452274729
 21
0.6293094136584234
 97
        1
330
24D
 92
        1
 93
       46
 72
     1
 10
1.335512632239913
 20
0.5494058769774013
 11
1.379122336684264
 21
0.5925854520210752
 72
     2
 10
1.477077099280947
 20
0.6908522319583996
 40
0.1387497587551891
 50
225.0911075382203
 51
247.488042006251
 73
     1
 72
     2
 10
1.475675489105155
 20
0.69177078674136
 40
0.1390714230911893
 50
248.1663962691119
 51
270.5271386147513
 73
     1
 72
     2
 10
1.477940721118921
 20
0.661533581452637
 40
0.1088327962506162
 50
269.4810376547777
 51
282.3412516227803
 73
     1
 72
     2
 10
1.486152179203675
 20
0.6238696814491117
 40
0.0702841754756974
 50
282.3643548476665
 51
299.5820094996208
 73
     1
 72
     2
 10
1.504183390233138
 20
0.5931620021130104
 40
0.0346817157537421
 50
298.7205701675891
 51
328.8607728337183
 73
     1
 72
     2
 10
1.504323135751107
 20
0.5918411185328485
 40
0.0338955763665622
 50
330.6499675447857
 51
361.2582938638259
 73
     1
 72
     2
 10
1.50905000390854
 20
0.5931074494889578
 40
0.0291652063057374
 50
358.9744681204052
 51
383.3199583459564
 73
     1
 72
     2
 10
1.513711529758056
 20
0.5946561357096535
 40
0.0242751045954501
 50
24.31879233924368
 51
51.84577240750527
 73
     1
 72
     2
 10
1.506009868792377
 20
0.5842418388257807
 40
0.037224243766125
 50
52.42689746731318
 51
73.10486824459265
 73
     1
 72
     2
 10
1.494651277503073
 20
0.5479583879445239
 40
0.0752433783751833
 50
72.85845035449925
 51
85.77702499602917
 73
     1
 72
     1
 10
1.500192057212192
 20
0.6229974827520042
 11
1.445253010602719
 21
0.6281617898572565
 72
     2
 10
1.452988154266605
 20
0.7474094579880739
 40
0.1194982794944702
 50
93.71136025945204
 51
111.1040454803294
 73
     0
 72
     2
 10
1.44528925716639
 20
0.7258860945005053
 40
0.096648107689699
 50
111.4403250244152
 51
131.482267922311
 73
     0
 72
     2
 10
1.428188708606846
 20
0.7069376597338634
 40
0.0711259565831861
 50
131.2729525787162
 51
158.0270155135854
 73
     0
 72
     2
 10
1.449858634609043
 20
0.7143070732626677
 40
0.0939878328314393
 50
158.8037539833649
 51
181.0046480767611
 73
     0
 72
     2
 10
1.453440311289745
 20
0.7180241333552979
 40
0.0975770016970146
 50
178.7849505233046
 51
203.8075842408195
 73
     0
 72
     2
 10
1.433765809311384
 20
0.725010324849521
 40
0.0767722392823194
 50
204.964609287122
 51
234.3490602623054
 73
     0
 72
     2
 10
1.459303428588931
 20
0.6907609763172352
 40
0.1194897713365396
 50
233.9705617479496
 51
253.9221939595141
 73
     0
 72
     2
 10
1.469880073190867
 20
0.6514961614381845
 40
0.1601495029171204
 50
254.1766152053568
 51
270.5800850555138
 73
     0
 72
     2
 10
1.472800208605479
 20
0.579305804601496
 40
0.2323352818958738
 50
269.6797168488529
 51
279.0178568727046
 73
     0
 72
     2
 10
1.484909720413359
 20
0.655073768721075
 40
0.1556057948614533
 50
278.9870048025016
 51
291.1873057605912
 73
     0
 72
     2
 10
1.472911178683727
 20
0.625179496271282
 40
0.1878162108169896
 50
291.3041934674517
 51
309.8061263453876
 73
     0
 72
     1
 10
1.593149585106731
 20
0.7694627408511998
 11
1.554561882416286
 21
0.7239883772547122
 72
     2
 10
1.436750408147095
 20
0.552329208030858
 40
0.2081980159562145
 50
55.53778552819517
 51
67.52743169998837
 73
     1
 72
     2
 10
1.473485567796218
 20
0.6357588861022236
 40
0.1170801227241167
 50
68.5333101458123
 51
90.97101298719211
 73
     1
 72
     2
 10
1.469581039784315
 20
0.6491962684406478
 40
0.1036437206474847
 50
88.93830137733156
 51
103.0383692506993
 73
     1
 72
     2
 10
1.454163998141577
 20
0.7134259128030427
 40
0.0375955529259998
 50
102.2319237215976
 51
130.0441799615433
 73
     1
 72
     2
 10
1.452943285939837
 20
0.7162299976647635
 40
0.034674415638628
 50
131.4812062810491
 51
181.4026899404297
 73
     1
 72
     2
 10
1.441494729391566
 20
0.7153851960127671
 40
0.0232154689556058
 50
180.009865254899
 51
205.0045920695573
 73
     1
 72
     2
 10
1.448942316821489
 20
0.7191829610531488
 40
0.0315716708120435
 50
205.5377616138225
 51
225.8830422072629
 73
     1
 72
     2
 10
1.447625259263176
 20
0.7189111127097256
 40
0.0304690561632489
 50
227.3053821170469
 51
254.3117951639615
 73
     1
 72
     2
 10
1.46404722076813
 20
0.7724791859167204
 40
0.0864922703923165
 50
253.4338491320898
 51
266.8597206658523
 73
     1
 72
     1
 10
1.459309106919414
 20
0.6861167918161966
 11
1.510667567269246
 21
0.6825306969623097
 72
     2
 10
1.500923345404192
 20
0.5296518274876894
 40
0.1531890942319113
 50
273.6469956996588
 51
282.10970837103
 73
     0
 72
     2
 10
1.51118151466006
 20
0.5771160817123421
 40
0.1046290516232516
 50
282.0699251353573
 51
292.984395462692
 73
     0
 72
     2
 10
1.525630708606666
 20
0.6091682463949954
 40
0.0694837911607831
 50
292.3359655424337
 51
321.1396274484624
 73
     0
 72
     2
 10
1.505798504566874
 20
0.594161206380867
 40
0.0943455063290442
 50
321.5997042594716
 51
341.7333246816688
 73
     0
 72
     2
 10
1.492323815265604
 20
0.5904918886760779
 40
0.1082938121313375
 50
342.124366496485
 51
360.4860793660196
 73
     0
 72
     2
 10
1.515323191898823
 20
0.5879025342279787
 40
0.0853068986844248
 50
358.8778581041119
 51
387.0955814977364
 73
     0
 72
     2
 10
1.518904400871112
 20
0.588439564974071
 40
0.082390343013726
 50
28.56255084557526
 51
57.44620801649072
 73
     0
 72
     2
 10
1.485261669338039
 20
0.6372227017071719
 40
0.1416275314831387
 50
56.59369018486104
 51
75.06289267824444
 73
     0
 72
     2
 10
1.473746351326468
 20
0.6828916372650049
 40
0.1887225595999667
 50
75.25882100905588
 51
90.50594851182815
 73
     0
 72
     2
 10
1.470807307454853
 20
0.6866989537232281
 40
0.1925267237820439
 50
89.62128538895745
 51
111.8345922442034
 73
     0
 72
     2
 10
1.478110812501133
 20
0.6989846506305912
 40
0.2066592619298822
 50
112.4473663421921
 51
133.6313689008284
 73
     0
 72
     1
 10
1.335512632239913
 20
0.5494058769774013
 11
1.335512632239913
 21
0.5494058769774013
 97
        1
330
26C
 92
        1
 93
       42
 72
     1
 10
0.3102208174328626
 20
0.0039284209181361
 11
0.3102208174328626
 21
0.8080513616406846
 72
     1
 10
0.3102208174328626
 20
0.8080513616406846
 11
0.372622173047045
 21
0.8080513616406846
 72
     1
 10
0.372622173047045
 20
0.8080513616406846
 11
0.372622173047045
 21
0.7754882248568478
 72
     2
 10
0.4547520464445621
 20
0.7033327206351817
 40
0.109323981329693
 50
221.3010423787755
 51
245.2325547484584
 73
     0
 72
     2
 10
0.4516831698495298
 20
0.7061627050517454
 40
0.1054807984412625
 50
246.1022329644587
 51
270.6135118123544
 73
     0
 72
     2
 10
0.4536349321839128
 20
0.6958301698829197
 40
0.1158102060994134
 50
269.5931648626103
 51
282.7845880932729
 73
     0
 72
     2
 10
0.459944951903656
 20
0.7243770586849433
 40
0.0865748597891398
 50
282.8927568495562
 51
298.9124027821607
 73
     0
 72
     2
 10
0.4487005899288267
 20
0.702869877967198
 40
0.1108391068031412
 50
298.6253756914849
 51
321.8567530102187
 73
     0
 72
     2
 10
0.4608321514294307
 20
0.7142363365284145
 40
0.0942888438972675
 50
322.7358048020815
 51
348.9500428816698
 73
     0
 72
     2
 10
0.3300697041867202
 20
0.6918343752066767
 40
0.2269415270753891
 50
349.7266426835583
 51
357.621974744192
 73
     0
 72
     2
 10
-0.3107116000178916
 20
0.656443591647411
 40
0.8686837503321109
 50
357.0433428304344
 51
360.2569202234836
 73
     0
 72
     2
 10
-0.3020319086831177
 20
0.6487124369528441
 40
0.8600038803470055
 50
359.7444411668533
 51
362.9713139500915
 73
     0
 72
     2
 10
0.3282234452057641
 20
0.6137540893361174
 40
0.2287947138487631
 50
2.40999055785068
 51
10.24131782287816
 73
     0
 72
     2
 10
0.4629460448408941
 20
0.5904062380137666
 40
0.0920726282197775
 50
10.84934444026941
 51
37.62255123434768
 73
     0
 72
     2
 10
0.451988880824724
 20
0.5987712741081361
 40
0.1058577571995406
 50
37.58826023080669
 51
61.92925121969091
 73
     0
 72
     2
 10
0.460135771321428
 20
0.5828071643266491
 40
0.0879385325364144
 50
61.71844655826291
 51
77.43794276216097
 73
     0
 72
     2
 10
0.4536362262821743
 20
0.6128302400898369
 40
0.118656662874627
 50
77.52774407606364
 51
90.39770030060276
 73
     0
 72
     2
 10
0.4512743738043665
 20
0.5887250968197684
 40
0.0945611734207403
 50
89.06791919379222
 51
116.3693108030978
 73
     0
 72
     2
 10
0.479427064080732
 20
0.6391754955059119
 40
0.1522923949698195
 50
117.4286558288683
 51
134.5325757172993
 73
     0
 72
     1
 10
0.3726221730470449
 20
0.5306135831382416
 11
0.3726240092451267
 21
0.281079109850479
 72
     1
 10
0.3726240092451267
 20
0.281079109850479
 11
0.3737716330462943
 21
0.281079109850479
 72
     2
 10
0.447416040200009
 20
0.2238573908267156
 40
0.0932621243220238
 50
217.8472138817864
 51
245.3519314101518
 73
     0
 72
     2
 10
0.4525625225259484
 20
0.2077937828648134
 40
0.110027002946109
 50
246.4047525988089
 51
271.0281490921038
 73
     0
 72
     2
 10
0.4543577213231116
 20
0.2215769490499946
 40
0.0962262890826966
 50
270.106631812252
 51
291.777548667619
 73
     0
 72
     2
 10
0.441346388926044
 20
0.1911347812603827
 40
0.1293254984739705
 50
292.1269129838446
 51
309.9111647918469
 73
     0
 72
     2
 10
0.4702429991594625
 20
0.2236174970553974
 40
0.0858801182954671
 50
309.0278243299861
 51
337.4390475125732
 73
     0
 72
     2
 10
0.4541937646799571
 20
0.2170033821215421
 40
0.1032387587220018
 50
337.4665731459637
 51
349.9812285231722
 73
     0
 72
     2
 10
0.4193370576517585
 20
0.2109025013087286
 40
0.138625315762026
 50
350.0044577680274
 51
360.284651382358
 73
     0
 72
     1
 10
0.5579606626384146
 20
0.2102137991779289
 11
0.5579606626384146
 21
0.0039284209181361
 72
     1
 10
0.5579606626384146
 20
0.0039284209181361
 11
0.49555747082615
 21
0.0039284209181361
 72
     1
 10
0.49555747082615
 20
0.0039284209181361
 11
0.49555747082615
 21
0.1886963119555656
 72
     2
 10
0.4125918128771066
 20
0.1900623238498352
 40
0.0829769027345138
 50
359.0567224202134
 51
378.7023012410042
 73
     1
 72
     2
 10
0.4378905039929006
 20
0.1981182812851983
 40
0.0564329511236249
 50
19.19113810958032
 51
44.6198524297892
 73
     1
 72
     2
 10
0.4363242167151036
 20
0.1969815139309123
 40
0.058346998218913
 50
44.33406621362816
 51
67.76615177842845
 73
     1
 72
     2
 10
0.4351762525370526
 20
0.1921158009752525
 40
0.0632900956996233
 50
68.47095098174329
 51
90.6585699417951
 73
     1
 72
     2
 10
0.4336318197294993
 20
0.1897277761704611
 40
0.0656790210852213
 50
89.28728152168406
 51
111.1314823724693
 73
     1
 72
     2
 10
0.4314760513707024
 20
0.1972629050262518
 40
0.0578777150219766
 50
111.8300840650518
 51
135.6014548955258
 73
     1
 72
     2
 10
0.4302909760783769
 20
0.1981182812851996
 40
0.056432951123624
 50
135.3801475702116
 51
160.8088618904207
 73
     1
 72
     2
 10
0.4555896671941709
 20
0.1900623238498313
 40
0.0829769027345145
 50
161.2976987589931
 51
180.943277579784
 73
     1
 72
     1
 10
0.3726240092451267
 20
0.1886963119555656
 11
0.3726240092451267
 21
0.0039284209181361
 72
     1
 10
0.3726240092451267
 20
0.0039284209181361
 11
0.3102208174328626
 21
0.0039284209181361
 72
     1
 10
0.3102208174328626
 20
0.0039284209181361
 11
0.3102208174328626
 21
0.0039284209181361
 97
        1
330
3B3
 92
       16
 93
       17
 72
     2
 10
1.262141894571901
 20
0.1598466120837502
 40
0.0955599498041531
 50
89.42297603203548
 51
101.4217355449472
 73
     1
 72
     2
 10
1.253752925364594
 20
0.2008073502481446
 40
0.0537492477445614
 50
101.3029711884494
 51
118.923642028612
 73
     1
 72
     2
 10
1.245787235902761
 20
0.2155916705385041
 40
0.0369569243893444
 50
119.1999945528867
 51
164.9234361520868
 73
     1
 72
     2
 10
1.435013576166939
 20
0.1615561705605489
 40
0.2337437672907404
 50
164.1988436857855
 51
180.5209368016532
 73
     1
 72
     2
 10
1.438853616413555
 20
0.1568491631719076
 40
0.2375881748181977
 50
179.377365829485
 51
195.6758845874334
 73
     1
 72
     2
 10
1.245787018152544
 20
0.1022669128731847
 40
0.036956738015205
 50
195.0767890957673
 51
240.8002306949674
 73
     1
 72
     2
 10
1.253752925364594
 20
0.1170513249734476
 40
0.0537492477445607
 50
241.0763579713878
 51
258.6970288115506
 73
     1
 72
     2
 10
1.262140584166112
 20
0.1580122008526939
 40
0.0955598253021106
 50
258.579050940135
 51
270.5778104530473
 73
     1
 72
     2
 10
1.264037750038441
 20
0.15160896461126
 40
0.0891566168990799
 50
269.4000888929037
 51
282.0620916348421
 73
     1
 72
     2
 10
1.272017057918758
 20
0.1146411433384367
 40
0.0513375923047625
 50
281.9751349689844
 51
300.2884997729279
 73
     1
 72
     2
 10
1.278122090519419
 20
0.103256912758973
 40
0.0384311202842767
 50
300.989240309305
 51
345.8672431850688
 73
     1
 72
     2
 10
1.08287232789005
 20
0.1585386192215133
 40
0.2413422535639793
 50
344.4582368117017
 51
360.2118527486712
 73
     1
 72
     2
 10
1.086580022556491
 20
0.1598326922086925
 40
0.2376332486484047
 50
359.9031447478189
 51
375.6621672842726
 73
     1
 72
     2
 10
1.278121868201551
 20
0.2146016706527158
 40
0.0384313134562483
 50
14.13254315312343
 51
59.01054602888716
 73
     1
 72
     2
 10
1.272017057918758
 20
0.2032175318831563
 40
0.0513375923047623
 50
59.71150022707213
 51
78.02486503101571
 73
     1
 72
     2
 10
1.264036508790756
 20
0.1662498483251882
 40
0.0891567416188953
 50
77.93710980557326
 51
90.59911254751154
 73
     1
 72
     1
 10
1.263104259510316
 20
0.255401715873645
 11
1.263104259510316
 21
0.255401715873645
 97
        1
330
37
 92
       16
 93
       10
 72
     1
 10
0.6671942938610581
 20
0.6806651197111324
 11
0.7981666306444976
 21
0.6806651197111324
 72
     2
 10
0.696862044860314
 20
0.6781105976794088
 40
0.1013367884024137
 50
1.444478743205071
 51
19.27486628133338
 73
     1
 72
     2
 10
0.7334236719479486
 20
0.6905997291489129
 40
0.0627025506624145
 50
19.5306700709219
 51
44.112908009009
 73
     1
 72
     2
 10
0.7347403028640507
 20
0.6918779554172002
 40
0.0608675090438734
 50
44.11172742160269
 51
67.66124948443841
 73
     1
 72
     2
 10
0.7335239281059245
 20
0.6867303477716993
 40
0.0660963548609396
 50
68.38198922508514
 51
90.66909876067785
 73
     1
 72
     2
 10
0.7319358511233431
 20
0.685180200591584
 40
0.0676469195649916
 50
89.30865647924541
 51
111.3668410152049
 73
     1
 72
     2
 10
0.7301801653571299
 20
0.6917331711268554
 40
0.0609093409710145
 50
112.0747000646345
 51
135.7365357356171
 73
     1
 72
     2
 10
0.7306000978203625
 20
0.6913436749512409
 40
0.061481924444888
 50
135.7497339979032
 51
160.8011077238621
 73
     1
 72
     2
 10
0.7663302840316782
 20
0.6794308295453971
 40
0.0991436736222868
 50
161.0897898683347
 51
179.2866771873199
 73
     1
 72
     1
 10
0.6671942938610581
 20
0.6806651197111324
 11
0.6671942938610581
 21
0.6806651197111324
 97
        1
330
DE
 92
       16
 93
       21
 72
     2
 10
-0.2181440888434606
 20
0.6547651666290933
 40
0.4089465166305609
 50
359.6894077282162
 51
363.7319614224767
 73
     1
 72
     2
 10
0.074715033240607
 20
0.6751266921095128
 40
0.1153899427258349
 50
3.108070652657239
 51
12.53716965194882
 73
     1
 72
     2
 10
0.107893636853823
 20
0.6799614225022595
 40
0.0819905788476578
 50
14.27238857491537
 51
34.52158334868939
 73
     1
 72
     2
 10
0.133650069507405
 20
0.6968932183164012
 40
0.051178075436972
 50
35.24513332155252
 51
65.69103407276964
 73
     1
 72
     2
 10
0.1268537812124636
 20
0.678535339713778
 40
0.0707192075294746
 50
66.79573334412204
 51
91.30868086340752
 73
     1
 72
     2
 10
0.1235295394517001
 20
0.677966276394936
 40
0.0712903142353783
 50
88.62627090328138
 51
113.1140326843398
 73
     1
 72
     2
 10
0.115914952110123
 20
0.6982519877316611
 40
0.0496531128677078
 50
114.2219560556617
 51
145.4285215185109
 73
     1
 72
     2
 10
0.1342200615055321
 20
0.6833660884355506
 40
0.0731965517449448
 50
143.9642832013444
 51
166.7242991599018
 73
     1
 72
     2
 10
0.1849645754223955
 20
0.675205799230888
 40
0.1245141926609378
 50
168.4320021337011
 51
177.0738459154428
 73
     1
 72
     2
 10
0.4905768703395472
 20
0.6554193852718165
 40
0.4307581735340427
 50
176.5205804781068
 51
180.2865096827585
 73
     1
 72
     2
 10
0.5137005589068965
 20
0.6510196530927692
 40
0.4538820321992573
 50
179.7165106185847
 51
183.3899648006737
 73
     1
 72
     2
 10
0.1882066407120146
 20
0.6304658361900132
 40
0.1277486064267381
 50
182.8199527158272
 51
191.4027784019281
 73
     1
 72
     2
 10
0.1316054911117001
 20
0.621047068186747
 40
0.0704297446153481
 50
192.9954155577755
 51
216.5540989854483
 73
     1
 72
     2
 10
0.1159142946033153
 20
0.60727545750342
 40
0.0496526756590277
 50
214.5720834735002
 51
245.7786489363493
 73
     1
 72
     2
 10
0.123529327917357
 20
0.6275613983649052
 40
0.0712902734152186
 50
246.8861381607976
 51
271.3738999418561
 73
     1
 72
     2
 10
0.1268539925227025
 20
0.6269923350460633
 40
0.0707191664628883
 50
268.6911471309377
 51
293.2040946502231
 73
     1
 72
     2
 10
0.1336507442722149
 20
0.6086342269186799
 40
0.0511776303283056
 50
294.3083620982297
 51
324.7542628494467
 73
     1
 72
     2
 10
0.1109830849069223
 20
0.6243743920034418
 40
0.0787736857712336
 50
324.9189376658644
 51
345.8109140888975
 73
     1
 72
     2
 10
0.0748488948634424
 20
0.6301064490710022
 40
0.1152578087481683
 50
347.4516635831587
 51
356.8743570879691
 73
     1
 72
     2
 10
-0.2153199326653452
 20
0.6503470219781557
 40
0.4061223178407044
 50
356.2551723548357
 51
360.3105632177165
 73
     1
 72
     1
 10
0.1907964192121909
 20
0.6525483365825375
 11
0.1907964192121909
 21
0.6525483365825375
 97
        1
330
11F
 92
       16
 93
       21
 72
     2
 10
1.423842209072324
 20
0.6547391526882844
 40
0.4089472945266208
 50
359.6930530690496
 51
363.7356067633101
 73
     1
 72
     2
 10
1.716701331156392
 20
0.6751378245466645
 40
0.1153884229131369
 50
3.10257572262598
 51
12.53167472191755
 73
     1
 72
     2
 10
1.749880393819128
 20
0.6799588518056893
 40
0.0819916575219248
 50
14.27405044787258
 51
34.52324522164664
 73
     1
 72
     2
 10
1.775635449324148
 20
0.6968898444923498
 40
0.0511807722404843
 50
35.24762478560788
 51
65.69352553682495
 73
     1
 72
     2
 10
1.768837783880645
 20
0.6785332266113898
 40
0.0707213305660166
 50
66.7960660528424
 51
91.30901357212788
 73
     1
 72
     2
 10
1.765514919268443
 20
0.6779747377686579
 40
0.0712818112916215
 50
88.62758335086684
 51
113.1153451319253
 73
     1
 72
     2
 10
1.75790400432303
 20
0.6982585627997402
 40
0.0496478701832788
 50
114.2270016639989
 51
145.433567126848
 73
     1
 72
     2
 10
1.776208654668919
 20
0.6833546847411189
 40
0.0732014051286319
 50
143.9560084466823
 51
166.7160244052397
 73
     1
 72
     2
 10
1.826949955239139
 20
0.6751936482501493
 40
0.1245157304429921
 50
168.4264397292872
 51
177.0682835110289
 73
     1
 72
     2
 10
2.132560873007729
 20
0.6554054221147388
 40
0.4307585629812054
 50
176.518722937579
 51
180.2846521422307
 73
     1
 72
     2
 10
2.155684561575078
 20
0.6510339680065245
 40
0.45388242064159
 50
179.7183179241793
 51
183.3917721062683
 73
     1
 72
     2
 10
1.830192020528758
 20
0.6304780710411115
 40
0.1277501259193755
 50
182.8254131293062
 51
191.4082388154071
 73
     1
 72
     2
 10
1.773594084275087
 20
0.6210580747408861
 40
0.0704344568948489
 50
193.0037198009302
 51
216.562403228603
 73
     1
 72
     2
 10
1.757903346816222
 20
0.6072688824353408
 40
0.0496474329284303
 50
214.5670378846141
 51
245.7736033474632
 73
     1
 72
     2
 10
1.7655147077341
 20
0.6275529369911832
 40
0.0712817704665925
 50
246.88482573284
 51
271.3725875138985
 73
     1
 72
     2
 10
1.768837995190884
 20
0.6269944481484516
 40
0.0707212895006632
 50
268.6908144271877
 51
293.2037619464732
 73
     1
 72
     2
 10
1.775636124088958
 20
0.6086376007427312
 40
0.0511803271552717
 50
294.3058706443242
 51
324.7517713955412
 73
     1
 72
     2
 10
1.752969841872227
 20
0.6243768819100816
 40
0.0787747411823926
 50
324.9172637571633
 51
345.8092401801964
 73
     1
 72
     2
 10
1.716835192779227
 20
0.6300953090318256
 40
0.1152562851283684
 50
347.4571683543728
 51
356.8798618591832
 73
     1
 72
     2
 10
1.42666636525044
 20
0.6503729535044631
 40
0.4061230961971551
 50
356.2515132910468
 51
360.3069041539276
 73
     1
 72
     1
 10
1.832783635227016
 20
0.6525483365825375
 11
1.832783635227016
 21
0.6525483365825375
 97
        1
330
136
 92
       16
 93
       16
 72
     1
 10
0.7929008671516788
 20
0.1118055172773673
 11
0.7929008671516788
 21
0.1346138517512834
 72
     1
 10
0.7929008671516788
 20
0.1346138517512834
 11
0.7201690611289098
 21
0.1346138517512834
 72
     2
 10
0.7219065571905552
 20
0.0279284190008197
 40
0.1066995803821081
 50
90.93304576329649
 51
103.5364840444637
 73
     1
 72
     2
 10
0.7080833960877679
 20
0.0840096743039996
 40
0.0489416889635312
 50
103.1705947904933
 51
124.3988962921269
 73
     1
 72
     2
 10
0.697285330335399
 20
0.1003018173333537
 40
0.0293997405302763
 50
124.97287619939
 51
154.8426374835699
 73
     1
 72
     2
 10
0.7033361364727468
 20
0.0983774508925872
 40
0.0357043067102912
 50
156.1753335091419
 51
182.3934178105231
 73
     1
 72
     2
 10
0.6993385622349103
 20
0.0966875645055046
 40
0.0316762093700302
 50
179.6403307032631
 51
206.8172350465461
 73
     1
 72
     2
 10
0.706573989689937
 20
0.1010626309524633
 40
0.0401123721750556
 50
207.7318587513189
 51
230.9380176914502
 73
     1
 72
     2
 10
0.7089482621171338
 20
0.101472089535276
 40
0.0419564441871544
 50
228.7723218252613
 51
255.9449805052606
 73
     1
 72
     2
 10
0.7229669073045413
 20
0.1548384148781497
 40
0.0971317180305895
 50
255.5681831452324
 51
271.0575027126195
 73
     1
 72
     2
 10
0.7298940066949454
 20
0.2358424389013917
 40
0.178193185478434
 50
268.348853479231
 51
278.8431999977431
 73
     1
 72
     2
 10
0.7492555909749499
 20
0.1179183226160471
 40
0.0587029553153597
 50
277.8643438966489
 51
299.9368060698087
 73
     1
 72
     2
 10
0.7651859445268454
 20
0.0863313298487231
 40
0.0234623394841266
 50
304.7249698370485
 51
326.8552696238152
 73
     1
 72
     2
 10
0.7528748281545079
 20
0.0942488470324509
 40
0.0380994249291453
 50
327.0085111754544
 51
343.0082856974249
 73
     1
 72
     2
 10
0.6970743220846096
 20
0.1092254612424071
 40
0.0958612717870704
 50
344.1941558657328
 51
361.5422722030546
 73
     1
 72
     1
 10
0.7929008671516788
 20
0.1118055172773673
 11
0.7929008671516788
 21
0.1118055172773673
 97
        1
330
EA
 92
       16
 93
       16
 72
     1
 10
2.057459502103581
 20
0.1118055172773673
 11
2.057459502103581
 21
0.1346138517512834
 72
     1
 10
2.057459502103581
 20
0.1346138517512834
 11
1.984727696080812
 21
0.1346138517512834
 72
     2
 10
1.986465192142459
 20
0.0279284190008093
 40
0.1066995803821185
 50
90.93304576329712
 51
103.536484044463
 73
     1
 72
     2
 10
1.972642031039671
 20
0.0840096743040007
 40
0.0489416889635303
 50
103.1705947904939
 51
124.3988962921275
 73
     1
 72
     2
 10
1.961843965287302
 20
0.100301817333352
 40
0.0293997405302774
 50
124.9728761993874
 51
154.8426374835673
 73
     1
 72
     2
 10
1.967894771424669
 20
0.0983774508925875
 40
0.0357043067103091
 50
156.1753335091551
 51
182.3934178105223
 73
     1
 72
     2
 10
1.963897197186812
 20
0.096687564505499
 40
0.0316762093700284
 50
179.6403307032529
 51
206.8172350465364
 73
     1
 72
     2
 10
1.971132624641839
 20
0.1010626309524687
 40
0.0401123721750591
 50
207.731858751325
 51
230.9380176914563
 73
     1
 72
     2
 10
1.973506897069037
 20
0.1014720895352741
 40
0.0419564441871527
 50
228.7723218252601
 51
255.9449805052595
 73
     1
 72
     2
 10
1.987525542256443
 20
0.1548384148781446
 40
0.0971317180305844
 50
255.568183145232
 51
271.0575027126192
 73
     1
 72
     2
 10
1.994452641646848
 20
0.2358424389014066
 40
0.1781931854784489
 50
268.3488534792307
 51
278.8431999977427
 73
     1
 72
     2
 10
2.013814225926854
 20
0.1179183226160443
 40
0.0587029553153571
 50
277.8643438966495
 51
299.9368060698095
 73
     1
 72
     2
 10
2.029744579478763
 20
0.0863313298487092
 40
0.0234623394841071
 50
304.7249698370392
 51
326.8552696238244
 73
     1
 72
     2
 10
2.017433463106411
 20
0.0942488470324493
 40
0.0380994249291447
 50
327.0085111754566
 51
343.008285697427
 73
     1
 72
     2
 10
1.961632957036511
 20
0.1092254612424042
 40
0.0958612717870706
 50
344.1941558657346
 51
361.5422722030563
 73
     1
 72
     1
 10
2.057459502103581
 20
0.1118055172773673
 11
2.057459502103581
 21
0.1118055172773673
 97
        1
330
1CA
 92
       16
 93
       10
 72
     1
 10
2.466789362543494
 20
0.1868307347043883
 11
2.597756190732687
 21
0.1868307347043883
 72
     2
 10
2.496452523047545
 20
0.184282065376026
 40
0.1013357232263486
 50
1.441183729417014
 51
19.27157126754539
 73
     1
 72
     2
 10
2.533015986333261
 20
0.1967695580626087
 40
0.0627002767337789
 50
19.52732140623482
 51
44.10955934432199
 73
     1
 72
     2
 10
2.53432986295224
 20
0.1980259528760233
 40
0.060882409458523
 50
44.12122573903755
 51
67.67074780187336
 73
     1
 72
     2
 10
2.533111651996032
 20
0.1929052844308591
 40
0.0660870124106305
 50
68.38049177120075
 51
90.66760130679351
 73
     1
 72
     2
 10
2.531527247409615
 20
0.1913552364637052
 40
0.0676374772384249
 50
89.31011552000727
 51
111.3683000559668
 73
     1
 72
     2
 10
2.529772479742443
 20
0.1978944032442957
 40
0.0609130575744007
 50
112.0723504550936
 51
135.7341861260762
 73
     1
 72
     2
 10
2.530193330304716
 20
0.1975175549617244
 40
0.0614774728553312
 50
135.7564456605426
 51
160.8078193865016
 73
     1
 72
     2
 10
2.565925352714114
 20
0.1855964445386547
 40
0.0991436736222868
 50
161.0897898683357
 51
179.2866771873208
 73
     1
 72
     1
 10
2.466789362543494
 20
0.1868307347043883
 11
2.466789362543494
 21
0.1868307347043883
 97
        1
330
1BE
 92
       16
 93
       17
 72
     2
 10
0.4348340921109781
 20
0.651243095664975
 40
0.0949563011923261
 50
269.422382605089
 51
281.4572042764676
 73
     1
 72
     2
 10
0.4431732270336307
 20
0.6106506264586977
 40
0.05351636489567
 50
281.3396068142313
 51
298.9927419259625
 73
     1
 72
     2
 10
0.4510189788845226
 20
0.5961062787317206
 40
0.0369923450837643
 50
299.2825296547971
 51
344.9300778543538
 73
     1
 72
     2
 10
0.2607384301189521
 20
0.6502887949995287
 40
0.2348335838788593
 50
344.2355232211297
 51
360.5513018704625
 73
     1
 72
     2
 10
0.258463377345951
 20
0.6547130905555653
 40
0.2371076480068208
 50
359.4768916543699
 51
375.687335542865
 73
     1
 72
     2
 10
0.4507766915227555
 20
0.7092470169512061
 40
0.0372158151322957
 50
14.91218247361237
 51
60.48246826655364
 73
     1
 72
     2
 10
0.4431427010029855
 20
0.6951119842310225
 40
0.0532783479971383
 50
60.82772968441956
 51
78.57556836042363
 73
     1
 72
     2
 10
0.4348304079779139
 20
0.6549337049118298
 40
0.0943072171670815
 50
78.46057583278434
 51
90.5793546845155
 73
     1
 72
     2
 10
0.4329261906815648
 20
0.6585271343367969
 40
0.090713947732053
 50
89.39956075439152
 51
101.9588512401935
 73
     1
 72
     2
 10
0.4247720472706538
 20
0.6966150932853448
 40
0.0517630811100132
 50
101.8647684898461
 51
120.1358082567785
 73
     1
 72
     2
 10
0.4182693838992074
 20
0.7086561320112532
 40
0.0380871966385938
 50
120.7698524126227
 51
166.078419094921
 73
     1
 72
     2
 10
0.6166181018749737
 20
0.6533181184018824
 40
0.2439971431157608
 50
164.6714459765351
 51
180.1807616351435
 73
     1
 72
     2
 10
0.6145032108446733
 20
0.6517807014982672
 40
0.2418822558801706
 50
179.818166387591
 51
195.3958282100161
 73
     1
 72
     2
 10
0.4181014260807229
 20
0.5967524671001548
 40
0.0379301360479918
 50
194.0186330930347
 51
239.3840415924798
 73
     1
 72
     2
 10
0.4247510314139397
 20
0.609053791972482
 40
0.0519060091321804
 50
239.982531924563
 51
258.1920759993953
 73
     1
 72
     2
 10
0.4329241954902669
 20
0.647401478009254
 40
0.0911148383351835
 50
258.0958203655762
 51
270.5990520189878
 73
     1
 72
     1
 10
0.4338768229591011
 20
0.5562916197844041
 11
0.4338768229591011
 21
0.5562916197844041
 97
        1
330
23A
 92
       16
 93
       10
 72
     1
 10
2.806439328119821
 20
0.6806651197111324
 11
2.937406156309015
 21
0.6806651197111324
 72
     2
 10
2.836102488623872
 20
0.67811645038277
 40
0.1013357232263491
 50
1.44118372941706
 51
19.27157126754534
 73
     1
 72
     2
 10
2.872665951909588
 20
0.6906039430693518
 40
0.0627002767337794
 50
19.52732140623563
 51
44.1095593443228
 73
     1
 72
     2
 10
2.873979828528568
 20
0.6918603378827696
 40
0.0608824094585212
 50
44.12122573903635
 51
67.67074780187215
 73
     1
 72
     2
 10
2.87276161757236
 20
0.6867396694376008
 40
0.0660870124106329
 50
68.38049177120114
 51
90.66760130679383
 73
     1
 72
     2
 10
2.871177212985942
 20
0.6851896214704494
 40
0.0676374772384249
 50
89.31011552000727
 51
111.3683000559668
 73
     1
 72
     2
 10
2.86942244531877
 20
0.691728788251042
 40
0.0609130575743989
 50
112.0723504550948
 51
135.7341861260774
 73
     1
 72
     2
 10
2.869843295881044
 20
0.6913519399684676
 40
0.0614774728553318
 50
135.7564456605418
 51
160.8078193865007
 73
     1
 72
     2
 10
2.90557531829044
 20
0.6794308295453976
 40
0.099143673622286
 50
161.0897898683348
 51
179.2866771873201
 73
     1
 72
     1
 10
2.806439328119821
 20
0.6806651197111324
 11
2.806439328119821
 21
0.6806651197111324
 97
        1
330
29C
 75
     0
 76
     1
 98
        1
 10
0.0
 20
0.0
1001
ACAD
1010
0.0
1020
0.0
1030
0.0
  0
ENDSEC
  0
SECTION
  2
OBJECTS
  0
DICTIONARY
  5
C
330
0
100
AcDbDictionary
281
     1
  3
ACAD_GROUP
350
D
  3
ACAD_IMAGE_DICT
350
306
  3
ACAD_IMAGE_VARS
350
301
  3
ACAD_LAYOUT
350
1A
  3
ACAD_MLINESTYLE
350
17
  3
ACAD_PLOTSETTINGS
350
19
  3
ACAD_PLOTSTYLENAME
350
E
  3
ACAD_SCALELIST
350
2C7
  3
AcDbVariableDictionary
350
5E6
  3
APPDATA
350
300
  3
DWGPROPS
350
5E5
  0
DICTIONARY
  5
302
330
2
100
AcDbDictionary
280
     1
281
     1
  3
ACAD_LAYERSTATES
360
303
  3
ACLYDICTIONARY
360
5D9
  0
DICTIONARY
  5
D
102
{ACAD_REACTORS
330
C
102
}
330
C
100
AcDbDictionary
281
     1
  0
DICTIONARY
  5
306
102
{ACAD_REACTORS
330
C
102
}
330
C
100
AcDbDictionary
281
     1
  3
oshw-logo-800-px
350
307
  0
RASTERVARIABLES
  5
301
102
{ACAD_REACTORS
330
C
102
}
330
C
100
AcDbRasterVariables
 90
        0
 70
     1
 71
     1
 72
     0
  0
DICTIONARY
  5
1A
102
{ACAD_REACTORS
330
C
102
}
330
C
100
AcDbDictionary
281
     1
  3
Model
350
1E
  3
Sheet 1
350
1C
  0
DICTIONARY
  5
17
102
{ACAD_REACTORS
330
C
102
}
330
C
100
AcDbDictionary
281
     1
  3
Standard
350
18
  0
DICTIONARY
  5
19
102
{ACAD_REACTORS
330
C
102
}
330
C
100
AcDbDictionary
281
     1
  0
ACDBDICTIONARYWDFLT
  5
E
102
{ACAD_REACTORS
330
C
102
}
330
C
100
AcDbDictionary
281
     1
  3
Normal
350
F
100
AcDbDictionaryWithDefault
340
F
  0
DICTIONARY
  5
2C7
102
{ACAD_REACTORS
330
C
102
}
330
C
100
AcDbDictionary
281
     1
  3
A0
350
2C8
  3
A1
350
2C9
  3
A2
350
2CA
  3
A3
350
2CB
  3
A4
350
2CC
  3
A5
350
2CD
  3
A6
350
2CE
  3
A7
350
2CF
  3
A8
350
2D0
  3
A9
350
2D1
  3
B0
350
2D2
  3
B1
350
2D3
  3
B2
350
2D4
  3
B3
350
2D5
  3
B4
350
2D6
  3
B5
350
2D7
  3
B6
350
2D8
  3
B7
350
2D9
  3
B8
350
2DA
  3
B9
350
2DB
  3
C0
350
2DC
  3
C1
350
2DD
  3
C2
350
2DE
  3
C3
350
2DF
  3
C4
350
2E0
  3
C5
350
2E1
  3
C6
350
2E2
  3
C7
350
2E3
  3
C8
350
2E4
  3
C9
350
2E5
  3
D0
350
2E6
  3
D1
350
2E7
  3
D2
350
2E8
  0
DICTIONARY
  5
5E6
102
{ACAD_REACTORS
330
C
102
}
330
C
100
AcDbDictionary
281
     1
  3
CANNOSCALE
350
5E7
  0
DICTIONARY
  5
300
102
{ACAD_REACTORS
330
C
102
}
330
C
100
AcDbDictionary
281
     1
  0
XRECORD
  5
5E5
102
{ACAD_REACTORS
330
C
102
}
330
C
100
AcDbXrecord
280
     1
  1
DWGPROPS COOKIE
  2
Open Source Hardware Logo
  3

  4
Jonathan Greig
  6
The font used is: Alte DIN 1451 Mittelschrift font  Created in 2009 by Peter Wiegel. License: CC-BY-SA.^J<http://www.fontspace.com/peter-wiegel/alte-din-1451-mittelschrift>^J
  7
OSHW Open Source Hardware Logo
  8

  9

300
=
301
=
302
=
303
=
304
=
305
=
306
=
307
=
308
=
309
=
 40
0.0
 41
2456511.290228044
 42
2456511.320821759
  1

 90
        0
  0
DICTIONARY
  5
303
102
{ACAD_REACTORS
330
302
102
}
330
302
100
AcDbDictionary
281
     1
  3
ARGON_LAYERP_1
350
304
  3
ARGON_LAYERP_2
350
30B
  3
ARGON_LAYERP_3
350
30F
  3
ARGON_LAYERP_4
350
5D7
  3
ARGON_LAYERP_5
350
5DC
  3
ARGON_LAYERP_6
350
5DF
  0
DICTIONARY
  5
5D9
102
{ACAD_REACTORS
330
302
102
}
330
302
100
AcDbDictionary
281
     1
1001
ACAD
1000
<All
  0
IMAGEDEF
  5
307
102
{ACAD_REACTORS
330
306
330
309
102
}
330
306
100
AcDbRasterImageDef
 90
        0
  1
/home/jpg/Downloads/oshw-logo-800-px.png
 10
761.0
 20
800.0
 11
0.001314060446780552
 21
0.001314060446780552
280
     1
281
     0
  0
LAYOUT
  5
1E
102
{ACAD_REACTORS
330
1A
102
}
330
1A
100
AcDbPlotSettings
  1

  2
none_device
  4

  6

 40
0.0
 41
0.0
 42
0.0
 43
0.0
 44
0.0
 45
0.0
 46
0.0
 47
0.0
 48
0.0
 49
0.0
140
0.0
141
0.0
142
1.0
143
1.0
 70
  1712
 72
     0
 73
     0
 74
     0
  7

 75
     0
147
1.0
148
0.0
149
0.0
100
AcDbLayout
  1
Model
 70
     1
 71
     0
 10
0.0
 20
0.0
 11
12.0
 21
9.0
 12
0.0
 22
0.0
 32
0.0
 14
-0.0027215983546655
 24
-0.0008055272616785
 34
0.0
 15
2.999662452274729
 25
3.152171179322986
 35
0.0
146
0.0
 13
0.0
 23
0.0
 33
0.0
 16
1.0
 26
0.0
 36
0.0
 17
0.0
 27
1.0
 37
0.0
 76
     0
330
1D
331
22
  0
LAYOUT
  5
1C
102
{ACAD_REACTORS
330
1A
102
}
330
1A
100
AcDbPlotSettings
  1

  2
none_device
  4

  6

 40
0.0
 41
0.0
 42
0.0
 43
0.0
 44
0.0
 45
0.0
 46
0.0
 47
0.0
 48
0.0
 49
0.0
140
0.0
141
0.0
142
1.0
143
1.0
 70
   688
 72
     0
 73
     0
 74
     5
  7

 75
    16
147
1.0
148
0.0
149
0.0
100
AcDbLayout
  1
Sheet 1
 70
     1
 71
     1
 10
0.0
 20
0.0
 11
0.0
 21
0.0
 12
0.0
 22
0.0
 32
0.0
 14
1.000000000000000E+20
 24
1.000000000000000E+20
 34
1.000000000000000E+20
 15
-1.000000000000000E+20
 25
-1.000000000000000E+20
 35
-1.000000000000000E+20
146
0.0
 13
0.0
 23
0.0
 33
0.0
 16
1.0
 26
0.0
 36
0.0
 17
0.0
 27
1.0
 37
0.0
 76
     0
330
1B
  0
MLINESTYLE
  5
18
102
{ACAD_REACTORS
330
17
102
}
330
17
100
AcDbMlineStyle
  2
Standard
 70
     0
  3

 62
   256
 51
90.0
 52
90.0
 71
     2
 49
0.5
 62
   256
  6
BYLAYER
 49
-0.5
 62
   256
  6
BYLAYER
  0
ACDBPLACEHOLDER
  5
F
102
{ACAD_REACTORS
330
E
102
}
330
E
  0
SCALE
  5
2C8
102
{ACAD_REACTORS
330
2C7
102
}
330
2C7
100
AcDbScale
 70
     0
300
1:1
140
1.0
141
1.0
290
     1
  0
SCALE
  5
2C9
102
{ACAD_REACTORS
330
2C7
102
}
330
2C7
100
AcDbScale
 70
     0
300
1:2
140
1.0
141
2.0
290
     0
  0
SCALE
  5
2CA
102
{ACAD_REACTORS
330
2C7
102
}
330
2C7
100
AcDbScale
 70
     0
300
1:4
140
1.0
141
4.0
290
     0
  0
SCALE
  5
2CB
102
{ACAD_REACTORS
330
2C7
102
}
330
2C7
100
AcDbScale
 70
     0
300
1:5
140
1.0
141
5.0
290
     0
  0
SCALE
  5
2CC
102
{ACAD_REACTORS
330
2C7
102
}
330
2C7
100
AcDbScale
 70
     0
300
1:8
140
1.0
141
8.0
290
     0
  0
SCALE
  5
2CD
102
{ACAD_REACTORS
330
2C7
102
}
330
2C7
100
AcDbScale
 70
     0
300
1:10
140
1.0
141
10.0
290
     0
  0
SCALE
  5
2CE
102
{ACAD_REACTORS
330
2C7
102
}
330
2C7
100
AcDbScale
 70
     0
300
1:16
140
1.0
141
16.0
290
     0
  0
SCALE
  5
2CF
102
{ACAD_REACTORS
330
2C7
102
}
330
2C7
100
AcDbScale
 70
     0
300
1:20
140
1.0
141
20.0
290
     0
  0
SCALE
  5
2D0
102
{ACAD_REACTORS
330
2C7
102
}
330
2C7
100
AcDbScale
 70
     0
300
1:30
140
1.0
141
30.0
290
     0
  0
SCALE
  5
2D1
102
{ACAD_REACTORS
330
2C7
102
}
330
2C7
100
AcDbScale
 70
     0
300
1:40
140
1.0
141
40.0
290
     0
  0
SCALE
  5
2D2
102
{ACAD_REACTORS
330
2C7
102
}
330
2C7
100
AcDbScale
 70
     0
300
1:50
140
1.0
141
50.0
290
     0
  0
SCALE
  5
2D3
102
{ACAD_REACTORS
330
2C7
102
}
330
2C7
100
AcDbScale
 70
     0
300
1:100
140
1.0
141
100.0
290
     0
  0
SCALE
  5
2D4
102
{ACAD_REACTORS
330
2C7
102
}
330
2C7
100
AcDbScale
 70
     0
300
2:1
140
2.0
141
1.0
290
     0
  0
SCALE
  5
2D5
102
{ACAD_REACTORS
330
2C7
102
}
330
2C7
100
AcDbScale
 70
     0
300
4:1
140
4.0
141
1.0
290
     0
  0
SCALE
  5
2D6
102
{ACAD_REACTORS
330
2C7
102
}
330
2C7
100
AcDbScale
 70
     0
300
8:1
140
8.0
141
1.0
290
     0
  0
SCALE
  5
2D7
102
{ACAD_REACTORS
330
2C7
102
}
330
2C7
100
AcDbScale
 70
     0
300
10:1
140
10.0
141
1.0
290
     0
  0
SCALE
  5
2D8
102
{ACAD_REACTORS
330
2C7
102
}
330
2C7
100
AcDbScale
 70
     0
300
100:1
140
100.0
141
1.0
290
     0
  0
SCALE
  5
2D9
102
{ACAD_REACTORS
330
2C7
102
}
330
2C7
100
AcDbScale
 70
     0
300
1/128" = 1'-0"
140
0.0078125
141
12.0
290
     0
  0
SCALE
  5
2DA
102
{ACAD_REACTORS
330
2C7
102
}
330
2C7
100
AcDbScale
 70
     0
300
1/64" = 1'-0"
140
0.015625
141
12.0
290
     0
  0
SCALE
  5
2DB
102
{ACAD_REACTORS
330
2C7
102
}
330
2C7
100
AcDbScale
 70
     0
300
1/32" = 1'-0"
140
0.03125
141
12.0
290
     0
  0
SCALE
  5
2DC
102
{ACAD_REACTORS
330
2C7
102
}
330
2C7
100
AcDbScale
 70
     0
300
1/16" = 1'-0"
140
0.0625
141
12.0
290
     0
  0
SCALE
  5
2DD
102
{ACAD_REACTORS
330
2C7
102
}
330
2C7
100
AcDbScale
 70
     0
300
3/32" = 1'-0"
140
0.09375
141
12.0
290
     0
  0
SCALE
  5
2DE
102
{ACAD_REACTORS
330
2C7
102
}
330
2C7
100
AcDbScale
 70
     0
300
1/8" = 1'-0"
140
0.125
141
12.0
290
     0
  0
SCALE
  5
2DF
102
{ACAD_REACTORS
330
2C7
102
}
330
2C7
100
AcDbScale
 70
     0
300
3/16" = 1'-0"
140
0.1875
141
12.0
290
     0
  0
SCALE
  5
2E0
102
{ACAD_REACTORS
330
2C7
102
}
330
2C7
100
AcDbScale
 70
     0
300
1/4" = 1'-0"
140
0.25
141
12.0
290
     0
  0
SCALE
  5
2E1
102
{ACAD_REACTORS
330
2C7
102
}
330
2C7
100
AcDbScale
 70
     0
300
3/8" = 1'-0"
140
0.375
141
12.0
290
     0
  0
SCALE
  5
2E2
102
{ACAD_REACTORS
330
2C7
102
}
330
2C7
100
AcDbScale
 70
     0
300
1/2" = 1'-0"
140
0.5
141
12.0
290
     0
  0
SCALE
  5
2E3
102
{ACAD_REACTORS
330
2C7
102
}
330
2C7
100
AcDbScale
 70
     0
300
3/4" = 1'-0"
140
0.75
141
12.0
290
     0
  0
SCALE
  5
2E4
102
{ACAD_REACTORS
330
2C7
102
}
330
2C7
100
AcDbScale
 70
     0
300
1" = 1'-0"
140
1.0
141
12.0
290
     0
  0
SCALE
  5
2E5
102
{ACAD_REACTORS
330
2C7
102
}
330
2C7
100
AcDbScale
 70
     0
300
1-1/2" = 1'-0"
140
1.5
141
12.0
290
     0
  0
SCALE
  5
2E6
102
{ACAD_REACTORS
330
2C7
102
}
330
2C7
100
AcDbScale
 70
     0
300
3" = 1'-0"
140
3.0
141
12.0
290
     0
  0
SCALE
  5
2E7
102
{ACAD_REACTORS
330
2C7
102
}
330
2C7
100
AcDbScale
 70
     0
300
6" = 1'-0"
140
6.0
141
12.0
290
     0
  0
SCALE
  5
2E8
102
{ACAD_REACTORS
330
2C7
102
}
330
2C7
100
AcDbScale
 70
     0
300
1'-0" = 1'-0"
140
12.0
141
12.0
290
     0
  0
DICTIONARYVAR
  5
5E7
102
{ACAD_REACTORS
330
5E6
102
}
330
5E6
100
DictionaryVariables
280
     0
  1
1:1
  0
XRECORD
  5
304
102
{ACAD_REACTORS
330
303
102
}
330
303
100
AcDbXrecord
280
     1
 91
     1023
301

290
     0
302
ALTE_DIN_1451_MITTELSCHRIF
330
10
 90
        8
 62
     7
370
    -3
331
16
  1
Color_7
330
21
 90
        8
 62
     7
370
    -3
331
16
  1
Color_7
  0
XRECORD
  5
30B
102
{ACAD_REACTORS
330
303
102
}
330
303
100
AcDbXrecord
280
     1
 91
     1023
301

290
     0
302
ALTE_DIN_1451_MITTELSCHRIFT_BY_PETER_WIEGEL
330
10
 90
        8
 62
     7
370
    -3
331
16
  1
Color_7
330
21
 90
        8
 62
     7
370
    -3
331
16
  1
Color_7
  0
XRECORD
  5
30F
102
{ACAD_REACTORS
330
303
102
}
330
303
100
AcDbXrecord
280
     1
 91
     1023
301

290
     0
302
ALTE_DIN_1451_MITTELSCHRIFT_BY_PETER_WIEGEL
330
10
 90
        8
 62
     7
370
    -3
331
16
  1
Color_7
330
21
 90
        8
 62
     7
370
    -3
331
16
  1
Color_7
330
30C
 90
        8
 62
     7
370
    -3
331
16
  1
Color_7
  0
XRECORD
  5
5D7
102
{ACAD_REACTORS
330
303
102
}
330
303
100
AcDbXrecord
280
     1
 91
     1023
301

290
     0
302
GEAR
330
10
 90
        8
 62
     7
370
    -3
331
16
  1
Color_7
330
21
 90
        8
 62
     7
370
    -3
331
16
  1
Color_7
330
30C
 90
        8
 62
     7
370
    -3
331
16
  1
Color_7
  0
XRECORD
  5
5DC
102
{ACAD_REACTORS
330
303
102
}
330
303
100
AcDbXrecord
280
     1
 91
     1023
301

290
     0
302
GEAR
330
10
 90
        8
 62
     7
370
    -3
331
16
  1
Color_7
330
21
 90
        8
 62
     7
370
    -3
331
16
  1
Color_7
330
30C
 90
        8
 62
     7
370
    -3
331
16
  1
Color_7
330
5D8
 90
        8
 62
   134
370
    -3
331
16
  1
Color_134
  0
XRECORD
  5
5DF
102
{ACAD_REACTORS
330
303
102
}
330
303
100
AcDbXrecord
280
     1
 91
     1023
301

290
     0
302
COLOR
330
10
 90
        8
 62
     7
370
    -3
331
16
  1
Color_7
330
21
 90
        8
 62
     7
370
    -3
331
16
  1
Color_7
330
30C
 90
        8
 62
     7
370
    -3
331
16
  1
Color_7
330
5D8
 90
        8
 62
   134
370
    -3
331
16
  1
Color_134
  0
ENDSEC
  0
EOF
