  0
SECTION
  2
HEADER
  9
$ACADVER
  1
AC1015
  9
$ACADMAINTVER
 70
     6
  9
$DWGCODEPAGE
  3
ANSI_1252
  9
$INSBASE
 10
0.0
 20
0.0
 30
0.0
  9
$EXTMIN
 10
1.000000000000000E+20
 20
1.000000000000000E+20
 30
1.000000000000000E+20
  9
$EXTMAX
 10
-1.000000000000000E+20
 20
-1.000000000000000E+20
 30
-1.000000000000000E+20
  9
$LIMMIN
 10
0.0
 20
0.0
  9
$LIMMAX
 10
12.0
 20
9.0
  9
$ORTHOMODE
 70
     0
  9
$REGENMODE
 70
     1
  9
$FILLMODE
 70
     1
  9
$QTEXTMODE
 70
     0
  9
$MIRRTEXT
 70
     0
  9
$LTSCALE
 40
1.0
  9
$ATTMODE
 70
     1
  9
$TEXTSIZE
 40
0.2
  9
$TRACEWID
 40
0.05
  9
$TEXTSTYLE
  7
Standard
  9
$CLAYER
  8
BLACK_250
  9
$CELTYPE
  6
ByLayer
  9
$CECOLOR
 62
   256
  9
$CELTSCALE
 40
1.0
  9
$DISPSILH
 70
     0
  9
$DIMSCALE
 40
1.0
  9
$DIMASZ
 40
0.18
  9
$DIMEXO
 40
0.0625
  9
$DIMDLI
 40
0.38
  9
$DIMRND
 40
0.0
  9
$DIMDLE
 40
0.0
  9
$DIMEXE
 40
0.18
  9
$DIMTP
 40
0.0
  9
$DIMTM
 40
0.0
  9
$DIMTXT
 40
0.18
  9
$DIMCEN
 40
0.09
  9
$DIMTSZ
 40
0.0
  9
$DIMTOL
 70
     0
  9
$DIMLIM
 70
     0
  9
$DIMTIH
 70
     1
  9
$DIMTOH
 70
     1
  9
$DIMSE1
 70
     0
  9
$DIMSE2
 70
     0
  9
$DIMTAD
 70
     0
  9
$DIMZIN
 70
     0
  9
$DIMBLK
  1

  9
$DIMASO
 70
     1
  9
$DIMSHO
 70
     1
  9
$DIMPOST
  1

  9
$DIMAPOST
  1

  9
$DIMALT
 70
     0
  9
$DIMALTD
 70
     2
  9
$DIMALTF
 40
25.4
  9
$DIMLFAC
 40
1.0
  9
$DIMTOFL
 70
     0
  9
$DIMTVP
 40
0.0
  9
$DIMTIX
 70
     0
  9
$DIMSOXD
 70
     0
  9
$DIMSAH
 70
     0
  9
$DIMBLK1
  1

  9
$DIMBLK2
  1

  9
$DIMSTYLE
  2
Standard
  9
$DIMCLRD
 70
     0
  9
$DIMCLRE
 70
     0
  9
$DIMCLRT
 70
     0
  9
$DIMTFAC
 40
1.0
  9
$DIMGAP
 40
0.09
  9
$DIMJUST
 70
     0
  9
$DIMSD1
 70
     0
  9
$DIMSD2
 70
     0
  9
$DIMTOLJ
 70
     1
  9
$DIMTZIN
 70
     0
  9
$DIMALTZ
 70
     0
  9
$DIMALTTZ
 70
     0
  9
$DIMUPT
 70
     0
  9
$DIMDEC
 70
     4
  9
$DIMTDEC
 70
     4
  9
$DIMALTU
 70
     2
  9
$DIMALTTD
 70
     2
  9
$DIMTXSTY
  7
Standard
  9
$DIMAUNIT
 70
     0
  9
$DIMADEC
 70
     0
  9
$DIMALTRND
 40
0.0
  9
$DIMAZIN
 70
     0
  9
$DIMDSEP
 70
    46
  9
$DIMATFIT
 70
     3
  9
$DIMFRAC
 70
     0
  9
$DIMLDRBLK
  1

  9
$DIMLUNIT
 70
     2
  9
$DIMLWD
 70
    -2
  9
$DIMLWE
 70
    -2
  9
$DIMTMOVE
 70
     0
  9
$LUNITS
 70
     2
  9
$LUPREC
 70
     4
  9
$SKETCHINC
 40
0.1
  9
$FILLETRAD
 40
0.0
  9
$AUNITS
 70
     0
  9
$AUPREC
 70
     0
  9
$MENU
  1
.
  9
$ELEVATION
 40
0.0
  9
$PELEVATION
 40
0.0
  9
$THICKNESS
 40
0.0
  9
$LIMCHECK
 70
     0
  9
$CHAMFERA
 40
0.0
  9
$CHAMFERB
 40
0.0
  9
$CHAMFERC
 40
0.0
  9
$CHAMFERD
 40
0.0
  9
$SKPOLY
 70
     0
  9
$TDCREATE
 40
2452642.813384259
  9
$TDUCREATE
 40
2452643.063384271
  9
$TDUPDATE
 40
2453782.80354022
  9
$TDUUPDATE
 40
2453783.05354022
  9
$TDINDWG
 40
0.0042459954
  9
$TDUSRTIMER
 40
2455810.497407407
  9
$USRTIMER
 70
     1
  9
$ANGBASE
 50
0.0
  9
$ANGDIR
 70
     0
  9
$PDMODE
 70
     0
  9
$PDSIZE
 40
0.0
  9
$PLINEWID
 40
0.0
  9
$SPLFRAME
 70
     0
  9
$SPLINETYPE
 70
     6
  9
$SPLINESEGS
 70
     8
  9
$HANDSEED
  5
1E50
  9
$SURFTAB1
 70
     6
  9
$SURFTAB2
 70
     6
  9
$SURFTYPE
 70
     6
  9
$SURFU
 70
     6
  9
$SURFV
 70
     6
  9
$UCSBASE
  2

  9
$UCSNAME
  2

  9
$UCSORG
 10
0.0
 20
0.0
 30
0.0
  9
$UCSXDIR
 10
1.0
 20
0.0
 30
0.0
  9
$UCSYDIR
 10
0.0
 20
1.0
 30
0.0
  9
$UCSORTHOREF
  2

  9
$UCSORTHOVIEW
 70
     0
  9
$UCSORGTOP
 10
0.0
 20
0.0
 30
0.0
  9
$UCSORGBOTTOM
 10
0.0
 20
0.0
 30
0.0
  9
$UCSORGLEFT
 10
0.0
 20
0.0
 30
0.0
  9
$UCSORGRIGHT
 10
0.0
 20
0.0
 30
0.0
  9
$UCSORGFRONT
 10
0.0
 20
0.0
 30
0.0
  9
$UCSORGBACK
 10
0.0
 20
0.0
 30
0.0
  9
$PUCSBASE
  2

  9
$PUCSNAME
  2

  9
$PUCSORG
 10
0.0
 20
0.0
 30
0.0
  9
$PUCSXDIR
 10
1.0
 20
0.0
 30
0.0
  9
$PUCSYDIR
 10
0.0
 20
1.0
 30
0.0
  9
$PUCSORTHOREF
  2

  9
$PUCSORTHOVIEW
 70
     0
  9
$PUCSORGTOP
 10
0.0
 20
0.0
 30
0.0
  9
$PUCSORGBOTTOM
 10
0.0
 20
0.0
 30
0.0
  9
$PUCSORGLEFT
 10
0.0
 20
0.0
 30
0.0
  9
$PUCSORGRIGHT
 10
0.0
 20
0.0
 30
0.0
  9
$PUCSORGFRONT
 10
0.0
 20
0.0
 30
0.0
  9
$PUCSORGBACK
 10
0.0
 20
0.0
 30
0.0
  9
$USERI1
 70
     0
  9
$USERI2
 70
     0
  9
$USERI3
 70
     0
  9
$USERI4
 70
     0
  9
$USERI5
 70
     0
  9
$USERR1
 40
0.0
  9
$USERR2
 40
0.0
  9
$USERR3
 40
0.0
  9
$USERR4
 40
0.0
  9
$USERR5
 40
0.0
  9
$WORLDVIEW
 70
     1
  9
$SHADEDGE
 70
     3
  9
$SHADEDIF
 70
    70
  9
$TILEMODE
 70
     1
  9
$MAXACTVP
 70
    64
  9
$PINSBASE
 10
0.0
 20
0.0
 30
0.0
  9
$PLIMCHECK
 70
     0
  9
$PEXTMIN
 10
0.0
 20
0.0
 30
0.0
  9
$PEXTMAX
 10
0.0
 20
0.0
 30
0.0
  9
$PLIMMIN
 10
0.0
 20
0.0
  9
$PLIMMAX
 10
12.0
 20
9.0
  9
$UNITMODE
 70
     0
  9
$VISRETAIN
 70
     1
  9
$PLINEGEN
 70
     0
  9
$PSLTSCALE
 70
     1
  9
$TREEDEPTH
 70
  3020
  9
$CMLSTYLE
  2
Standard
  9
$CMLJUST
 70
     0
  9
$CMLSCALE
 40
1.0
  9
$PROXYGRAPHICS
 70
     1
  9
$MEASUREMENT
 70
     0
  9
$CELWEIGHT
370
    -1
  9
$ENDCAPS
280
     0
  9
$JOINSTYLE
280
     0
  9
$LWDISPLAY
290
     0
  9
$INSUNITS
 70
     1
  9
$HYPERLINKBASE
  1

  9
$STYLESHEET
  1

  9
$XEDIT
290
     1
  9
$CEPSNTYPE
380
     0
  9
$PSTYLEMODE
290
     1
  9
$FINGERPRINTGUID
  2
{FDEAD576-A652-11D2-9A35-0060089B3A3F}
  9
$VERSIONGUID
  2
{FBC2AE19-5C5C-49EC-81BC-71B1A3362A02}
  9
$EXTNAMES
290
     1
  9
$PSVPSCALE
 40
0.0
  9
$OLESTARTUP
290
     0
  0
ENDSEC
  0
SECTION
  2
CLASSES
  0
CLASS
  1
ACDBDICTIONARYWDFLT
  2
AcDbDictionaryWithDefault
  3
ObjectDBX Classes
 90
        0
280
     0
281
     0
  0
CLASS
  1
ACDBPLACEHOLDER
  2
AcDbPlaceHolder
  3
ObjectDBX Classes
 90
        0
280
     0
281
     0
  0
CLASS
  1
LAYOUT
  2
AcDbLayout
  3
ObjectDBX Classes
 90
        0
280
     0
281
     0
  0
CLASS
  1
DICTIONARYVAR
  2
AcDbDictionaryVar
  3
ObjectDBX Classes
 90
        0
280
     0
281
     0
  0
CLASS
  1
TABLESTYLE
  2
AcDbTableStyle
  3
ObjectDBX Classes
 90
     4095
280
     0
281
     0
  0
CLASS
  1
MATERIAL
  2
AcDbMaterial
  3
ObjectDBX Classes
 90
     1153
280
     0
281
     0
  0
CLASS
  1
VISUALSTYLE
  2
AcDbVisualStyle
  3
ObjectDBX Classes
 90
     4095
280
     0
281
     0
  0
CLASS
  1
SCALE
  2
AcDbScale
  3
ObjectDBX Classes
 90
     1153
280
     0
281
     0
  0
CLASS
  1
CELLSTYLEMAP
  2
AcDbCellStyleMap
  3
ObjectDBX Classes
 90
     1152
280
     0
281
     0
  0
CLASS
  1
RASTERVARIABLES
  2
AcDbRasterVariables
  3
ISM
 90
        0
280
     0
281
     0
  0
ENDSEC
  0
SECTION
  2
TABLES
  0
TABLE
  2
VPORT
  5
8
330
0
100
AcDbSymbolTable
 70
     1
  0
VPORT
  5
94
330
8
100
AcDbSymbolTableRecord
100
AcDbViewportTableRecord
  2
*Active
 70
     0
 10
0.0
 20
0.0
 11
1.0
 21
1.0
 12
32.45888866933921
 22
22.74938431599044
 13
0.0
 23
0.0
 14
0.5
 24
0.5
 15
0.5
 25
0.5
 16
0.0
 26
0.0
 36
1.0
 17
-27.66959356598029
 27
-19.53870295786199
 37
0.0
 40
8.925000000000008
 41
1.601635514018692
 42
50.0
 43
0.0
 44
0.0
 50
0.0
 51
0.0
 71
    16
 72
  1000
 73
     1
 74
     3
 75
     0
 76
     0
 77
     0
 78
     0
281
     5
 65
     1
110
0.0
120
0.0
130
0.0
111
1.0
121
0.0
131
0.0
112
0.0
122
1.0
132
0.0
 79
     0
146
0.0
  0
ENDTAB
  0
TABLE
  2
LTYPE
  5
5
330
0
100
AcDbSymbolTable
 70
     1
  0
LTYPE
  5
14
330
5
100
AcDbSymbolTableRecord
100
AcDbLinetypeTableRecord
  2
ByBlock
 70
     0
  3

 72
    65
 73
     0
 40
0.0
  0
LTYPE
  5
15
330
5
100
AcDbSymbolTableRecord
100
AcDbLinetypeTableRecord
  2
ByLayer
 70
     0
  3

 72
    65
 73
     0
 40
0.0
  0
LTYPE
  5
16
330
5
100
AcDbSymbolTableRecord
100
AcDbLinetypeTableRecord
  2
Continuous
 70
     0
  3
Solid line
 72
    65
 73
     0
 40
0.0
  0
ENDTAB
  0
TABLE
  2
LAYER
  5
2
102
{ACAD_XDICTIONARY
360
1E01
102
}
330
0
100
AcDbSymbolTable
 70
     6
  0
LAYER
  5
10
330
2
100
AcDbSymbolTableRecord
100
AcDbLayerTableRecord
  2
0
 70
     0
 62
     7
  6
Continuous
370
    -3
390
F
  0
LAYER
  5
1E07
330
2
100
AcDbSymbolTableRecord
100
AcDbLayerTableRecord
  2
BLACK_250
 70
     0
 62
   250
  6
Continuous
370
    -3
390
F
  0
LAYER
  5
1E08
330
2
100
AcDbSymbolTableRecord
100
AcDbLayerTableRecord
  2
GRAY
 70
     0
 62
     9
  6
Continuous
370
    -3
390
F
  0
LAYER
  5
1E09
330
2
100
AcDbSymbolTableRecord
100
AcDbLayerTableRecord
  2
WHITE
 70
     0
 62
     7
  6
Continuous
370
    -3
390
F
  0
LAYER
  5
1E0A
330
2
100
AcDbSymbolTableRecord
100
AcDbLayerTableRecord
  2
ORANGE_42
 70
     0
 62
    42
  6
Continuous
370
    -3
390
F
  0
LAYER
  5
1E36
330
2
100
AcDbSymbolTableRecord
100
AcDbLayerTableRecord
  2
OUTLINE
 70
     0
 62
   250
  6
Continuous
370
    -3
390
F
  0
ENDTAB
  0
TABLE
  2
STYLE
  5
3
330
0
100
AcDbSymbolTable
 70
     1
  0
STYLE
  5
11
330
3
100
AcDbSymbolTableRecord
100
AcDbTextStyleTableRecord
  2
Standard
 70
     0
 40
0.0
 41
1.0
 50
0.0
 71
     0
 42
0.2
  3
txt
  4

  0
ENDTAB
  0
TABLE
  2
VIEW
  5
6
330
0
100
AcDbSymbolTable
 70
     0
  0
ENDTAB
  0
TABLE
  2
UCS
  5
7
330
0
100
AcDbSymbolTable
 70
     0
  0
ENDTAB
  0
TABLE
  2
APPID
  5
9
330
0
100
AcDbSymbolTable
 70
     1
  0
APPID
  5
12
330
9
100
AcDbSymbolTableRecord
100
AcDbRegAppTableRecord
  2
ACAD
 70
     0
  0
ENDTAB
  0
TABLE
  2
DIMSTYLE
  5
A
330
0
100
AcDbSymbolTable
 70
     1
100
AcDbDimStyleTable
  0
DIMSTYLE
105
27
330
A
100
AcDbSymbolTableRecord
100
AcDbDimStyleTableRecord
  2
Standard
 70
     0
340
11
  0
ENDTAB
  0
TABLE
  2
BLOCK_RECORD
  5
1
330
0
100
AcDbSymbolTable
 70
     0
  0
BLOCK_RECORD
  5
1F
330
1
100
AcDbSymbolTableRecord
100
AcDbBlockTableRecord
  2
*Model_Space
340
22
  0
BLOCK_RECORD
  5
14A6
330
1
100
AcDbSymbolTableRecord
100
AcDbBlockTableRecord
  2
*Paper_Space
340
14A7
  0
ENDTAB
  0
ENDSEC
  0
SECTION
  2
BLOCKS
  0
BLOCK
  5
20
330
1F
100
AcDbEntity
  8
0
100
AcDbBlockBegin
  2
*Model_Space
 70
     0
 10
0.0
 20
0.0
 30
0.0
  3
*Model_Space
  1

  0
ENDBLK
  5
21
330
1F
100
AcDbEntity
  8
0
100
AcDbBlockEnd
  0
BLOCK
  5
14A8
330
14A6
100
AcDbEntity
 67
     1
  8
0
100
AcDbBlockBegin
  2
*Paper_Space
 70
     0
 10
0.0
 20
0.0
 30
0.0
  3
*Paper_Space
  1

  0
ENDBLK
  5
14A9
330
14A6
100
AcDbEntity
 67
     1
  8
0
100
AcDbBlockEnd
  0
ENDSEC
  0
SECTION
  2
ENTITIES
  0
LWPOLYLINE
  5
66F
102
{ACAD_REACTORS
330
1E0B
330
1E20
102
}
330
1F
100
AcDbEntity
  8
OUTLINE
100
AcDbPolyline
 90
       15
 70
     1
 43
0.0
 10
1.652744557699921
 20
0.191848435450833
 42
-0.2137520416534278
 10
1.27315472440519
 20
0.185173350457368
 42
0.0283658571724033
 10
0.1998847185221635
 20
0.4974204762814174
 42
-0.5375123265116628
 10
0.1047375230185921
 20
0.6960994860494125
 10
0.1357438547883433
 20
0.7736359251407939
 42
0.1516295557170158
 10
0.1760035174122237
 20
1.186485481929606
 42
-0.0566244534261627
 10
0.1567023914692356
 20
1.399505167370303
 42
-0.3109261435323393
 10
0.2553843483088641
 20
1.542854116841405
 42
-0.1508417208967134
 10
0.4616533747200904
 20
1.561010348023609
 42
0.2894099775641784
 10
0.6553020404370145
 20
1.633172466859568
 42
0.009765753305025
 10
0.7158228110443758
 20
1.747663524667386
 42
-0.4828836087127319
 10
1.021986709411053
 20
1.809964317939676
 42
-0.0962951525402528
 10
1.309119662332829
 20
1.476592495011119
 42
0.0239039340438212
 10
1.786864395428054
 20
0.7287871732505046
 42
-0.2065055817330123
 10
1.847242764222233
 20
0.4325914018073931
 42
-0.1841488557643874
  0
LWPOLYLINE
  5
1347
102
{ACAD_REACTORS
330
1E20
102
}
330
1F
100
AcDbEntity
  8
OUTLINE
100
AcDbPolyline
 90
        9
 70
     1
 43
0.0
 10
1.726785893120112
 20
0.8146251032067091
 42
0.1442798636945442
 10
2.092126057085196
 20
0.673236128852929
 42
0.1732538050909984
 10
2.942086879585699
 20
0.9424645569224569
 42
0.1078757688456545
 10
3.168045073478535
 20
1.175232751737554
 42
-0.0315482150546077
 10
3.118095875866729
 20
0.7972064533840033
 42
0.0792863472123415
 10
3.090766767612607
 20
0.3685240833779149
 42
0.1190838345616483
 10
1.800856736982993
 20
0.3342629537236396
 42
0.0628137748481296
 10
1.847242764222233
 20
0.4325914018073909
 42
0.2065055817330088
 10
1.786864395428063
 20
0.7287871732504998
 42
-0.0028207572861025
  0
LWPOLYLINE
  5
1374
102
{ACAD_REACTORS
330
1E0D
102
}
330
1F
100
AcDbEntity
  8
OUTLINE
100
AcDbPolyline
 90
       18
 70
     1
 43
0.0
 10
3.090995105725764
 20
0.3661392580265584
 42
-0.0797285642047447
 10
3.118095875866733
 20
0.7972064533840054
 42
0.0725368890186669
 10
3.161401846512139
 20
1.66913821197148
 42
-0.4108315905746491
 10
3.245005125903336
 20
1.766971836790972
 42
-0.0961932621804244
 10
3.466593422231894
 20
1.7435322413275
 42
0.1154907694451045
 10
3.456865647036764
 20
1.542028326571437
 42
0.2611057185545941
 10
3.562481492012358
 20
1.415567249034868
 42
0.1813722867103256
 10
3.87515998042694
 20
1.425295024229993
 42
0.2065451373005784
 10
4.121689597514707
 20
1.718295613107017
 42
-0.3975838786804821
 10
4.265297963355937
 20
1.51485309172275
 42
0.1695186479897055
 10
4.296538018553981
 20
1.363099798678877
 42
0.129417078249946
 10
4.603643881463927
 20
1.077353350733071
 42
-0.1898299440115583
 10
4.670015101938067
 20
1.018764350415037
 42
-0.2375202644948073
 10
4.635273047669778
 20
0.8433169763601939
 42
-0.1183908253048195
 10
4.300962202027208
 20
0.6413448581384074
 42
0.0732274567917327
 10
3.93269642678337
 20
0.3877278619799099
 42
-0.0295543156633543
 10
3.701661765899263
 20
0.1862239472238471
 42
-0.2497635085603689
 10
3.217010108856658
 20
0.1983836662177453
 42
-0.2127457753556017
  0
LWPOLYLINE
  5
13CD
102
{ACAD_REACTORS
330
1E0D
330
1E10
330
1E20
102
}
330
1F
100
AcDbEntity
  8
OUTLINE
100
AcDbPolyline
 90
        5
 70
     1
 43
0.0
 10
3.047456433384839
 20
1.026650368707092
 42
0.0631524963598976
 10
3.168045073478535
 20
1.175232751737565
 42
0.0292684596305249
 10
3.171503413771974
 20
1.529022220999039
 42
0.3055927451733772
 10
3.01493032295631
 20
1.403351453258435
 42
0.0976536914308483
 10
3.023830436280927
 20
1.156373308500432
 42
-0.0520272401681096
  0
LWPOLYLINE
  5
13E7
102
{ACAD_REACTORS
330
1E1F
102
}
330
1F
100
AcDbEntity
  8
OUTLINE
100
AcDbPolyline
 90
        7
 70
     1
 43
0.0
 10
3.466593422231889
 20
1.7435322413275
 42
0.1154907694451045
 10
3.456865647036764
 20
1.542028326571437
 42
0.2611057185545916
 10
3.562481492012358
 20
1.415567249034868
 42
0.1813722867103256
 10
3.87515998042694
 20
1.425295024229993
 42
0.2065451373005784
 10
4.121689597514703
 20
1.718295613107017
 42
0.3187758110195571
 10
4.062355132504393
 20
1.837448782285224
 42
0.1324672570310209
 10
3.706920206772662
 20
1.910358510640449
 42
0.2940377831321913
  0
LWPOLYLINE
  5
1409
102
{ACAD_REACTORS
330
1E14
330
1E22
102
}
330
1F
100
AcDbEntity
  8
OUTLINE
100
AcDbPolyline
 90
        8
 70
     1
 43
0.0
 10
3.026463093428055
 20
3.23842474428055
 42
-0.1964888989253743
 10
3.070963660051115
 20
3.081782749767359
 42
-0.1033633295120192
 10
3.316606787810426
 20
2.715098080793325
 42
-0.3022683948179806
 10
3.213853866963586
 20
2.7319882708551
 42
0.1636820288981806
 10
2.808293502987644
 20
2.968944888009588
 42
-0.0175891569432577
 10
2.589724519961801
 20
3.011434029021294
 42
-1.097340599148307
 10
2.593996574357615
 20
3.091179044409824
 42
0.1104401777769774
 10
2.891379503218513
 20
3.139785031459709
 42
0.1746930770522066
  0
LWPOLYLINE
  5
143C
102
{ACAD_REACTORS
330
1E15
330
1E22
102
}
330
1F
100
AcDbEntity
  8
OUTLINE
100
AcDbPolyline
 90
        8
 70
     1
 43
0.0
 10
2.235286299971997
 20
3.090067772193424
 42
-0.7933857123691529
 10
2.242708979058623
 20
3.057844482087816
 42
0.3678649723613345
 10
2.09688952234817
 20
2.946657146346092
 42
-1.19022941494522
 10
2.049498198917273
 20
2.956682233994931
 42
0.537662788907679
 10
1.995727274255293
 20
3.056021738878934
 42
-0.7519416611905365
 10
1.995337305101637
 20
3.080152289621634
 42
0.4717667687973966
 10
2.103243703067375
 20
3.177851325617635
 42
-1.157442488358139
 10
2.139448792900168
 20
3.173217194968933
 42
0.5536805886074581
  0
LWPOLYLINE
  5
1463
102
{ACAD_REACTORS
330
1E1A
330
1E1C
102
}
330
1F
100
AcDbEntity
  8
OUTLINE
100
AcDbPolyline
 90
        6
 70
     1
 43
0.0
 10
3.019450504453462
 20
3.935658308908589
 42
0.2052746114823743
 10
3.159801731537274
 20
3.71328363742515
 42
0.3633391599879377
 10
3.202344558032542
 20
3.719444509471162
 42
-0.0865063897042439
 10
3.247840228526215
 20
3.771939513886931
 42
0.3319698495384859
 10
3.244340561565167
 20
3.809852572631652
 42
0.1367739599658449
 10
3.047192656092636
 20
3.948672695419998
 42
0.4705828229743146
  0
LWPOLYLINE
  5
1480
330
1F
100
AcDbEntity
  8
OUTLINE
100
AcDbPolyline
 90
        7
 70
     1
 43
0.0
 10
1.77236010201978
 20
3.072954961637936
 42
-0.091897720040144
 10
1.669115369810754
 20
3.100326298955551
 42
-0.196303257620624
 10
1.565373339888212
 20
3.261026787738885
 42
0.0771295215700924
 10
1.512878551908887
 20
2.970591175677808
 42
0.0218498674417941
 10
1.407099331672917
 20
2.800972953013664
 42
-0.0195627890493853
 10
1.56358138605283
 20
2.940551464552098
 42
-0.1273859671198432
 10
1.773624060513686
 20
3.025992552468387
 42
0.972016207907233
  0
LWPOLYLINE
  5
14AA
330
1F
100
AcDbEntity
  8
OUTLINE
100
AcDbPolyline
 90
       10
 70
     1
 43
0.0
 10
1.304745739894459
 20
2.904995413004326
 42
0.1070255084470483
 10
1.229877371431971
 20
2.853044334528724
 42
0.0537447674200097
 10
1.009439364607957
 20
2.316606024091675
 42
0.0481449865758136
 10
1.040087794852592
 20
1.921960759097027
 42
0.023126433860801
 10
1.165822600093895
 20
1.811583376843484
 42
-0.0047088949818988
 10
1.16336409177806
 20
1.839035996643574
 42
-0.018027907753169
 10
1.066440638089116
 20
1.924199365340883
 42
-0.0480042592686466
 10
1.035714185180632
 20
2.312621375240008
 42
-0.0530934627615726
 10
1.251379043521464
 20
2.837434311175826
 42
-0.1026655728187291
 10
1.314842874283336
 20
2.880665659262024
 42
1.010055617805796
  0
LWPOLYLINE
  5
14E3
102
{ACAD_REACTORS
330
1E0E
330
1E28
102
}
330
1F
100
AcDbEntity
  8
OUTLINE
100
AcDbPolyline
 90
       14
 70
     1
 43
0.0
 10
2.699253897689152
 20
4.068592134493008
 42
-0.0527610171799256
 10
2.345588871344735
 20
3.866887131628527
 42
-0.1362603271605076
 10
1.934091025623354
 20
3.852488058669524
 42
-0.082187873633589
 10
1.849279656941225
 20
3.909026020807124
 42
0.2774930320011709
 10
1.740635142972161
 20
3.952890314171745
 42
-0.0174573796334587
 10
1.736309382291377
 20
3.962851749844717
 42
-0.0029672364594633
 10
1.735574053332485
 20
3.964740480171184
 42
-0.2817877735917235
 10
1.858610122086082
 20
3.917467431547388
 42
0.0803202275744466
 10
1.938178025219434
 20
3.864400505849352
 42
0.1356346364711754
 10
2.341175156557894
 20
3.878640687168729
 42
0.0538668927975079
 10
2.699346867136938
 20
4.084130953664052
 42
-0.24548999635835
 10
2.73525635325219
 20
4.087679307735354
 42
-0.691619780717074
 10
2.73525635325219
 20
4.072389029471393
 42
-0.2013783831219072
 10
2.71208202525837
 20
4.069999923492648
 42
0.0917797746979229
  0
LWPOLYLINE
  5
1538
102
{ACAD_REACTORS
330
1E0E
330
1E27
102
}
330
1F
100
AcDbEntity
  8
OUTLINE
100
AcDbPolyline
 90
        3
 70
     1
 43
0.0
 10
2.044138514111361
 20
4.286590991247158
 42
0.0999344524121391
 10
2.080046555326315
 20
4.332341845790066
 42
0.2156420442052621
 10
2.012605056597732
 20
4.287684637172492
  0
LWPOLYLINE
  5
1546
102
{ACAD_REACTORS
330
1E0E
330
1E26
102
}
330
1F
100
AcDbEntity
  8
OUTLINE
100
AcDbPolyline
 90
        3
 70
     1
 43
0.0
 10
2.370211232338984
 20
4.307543845596769
 42
0.2167257020750635
 10
2.263955364226241
 20
4.328747517223709
 42
0.140262105217115
 10
2.344885162700542
 20
4.291563555762544
 42
0.3443060128781977
  0
LWPOLYLINE
  5
1555
330
1F
100
AcDbEntity
  8
OUTLINE
100
AcDbPolyline
 90
        5
 70
     1
 43
0.0
 10
2.012171698282398
 20
4.341122982127538
 42
0.0730356623686608
 10
2.013402235298166
 20
4.467864543342512
 42
0.2192887323651035
 10
1.938742673462413
 20
4.579853886096137
 42
0.464125388525204
 10
1.812754662864579
 20
4.529691992987736
 42
0.3298763500201662
 10
1.892619933304296
 20
4.25608216909896
 42
-0.0821429969282525
  0
LWPOLYLINE
  5
1579
330
1F
100
AcDbEntity
  8
OUTLINE
100
AcDbPolyline
 90
        6
 70
     1
 43
0.0
 10
1.748215964370488
 20
4.653112477929978
 42
-0.0688910902093825
 10
1.790294246814085
 20
4.731625722217168
 42
-0.3044339775107121
 10
1.951096652701534
 20
4.768080586394777
 42
-0.1448125161492451
 10
2.026111649463016
 20
4.71050924214228
 42
-0.0669842279528444
 10
2.072361175969708
 20
4.634137160556719
 42
0.3342755353942543
 10
1.724271506568418
 20
4.551310750347554
 42
-0.0474806726520165
  0
LWPOLYLINE
  5
159C
330
1F
100
AcDbEntity
  8
OUTLINE
100
AcDbPolyline
 90
        6
 70
     1
 43
0.0
 10
2.496439005195266
 20
4.301951236600112
 42
0.0063414121488561
 10
2.62237032786659
 20
4.254734197375376
 42
0.1514223462743146
 10
2.720937169798336
 20
4.347717045211561
 42
0.1775711693409199
 10
2.726332489696624
 20
4.508628815691545
 42
0.1570730251413875
 10
2.653422761341395
 20
4.594370656237291
 42
0.3486569409813919
 10
2.519852138994621
 20
4.58328837752729
 42
0.3974289178450702
  0
LWPOLYLINE
  5
15D9
330
1F
100
AcDbEntity
  8
OUTLINE
100
AcDbPolyline
 90
        4
 70
     1
 43
0.0
 10
2.487135809291529
 20
4.794803752718676
 42
-0.2734549389540703
 10
2.710825317317795
 20
4.769625433764088
 42
-0.1774362308735893
 10
2.837651386881222
 20
4.580119950211568
 42
0.3280260750973205
 10
2.333248855065469
 20
4.608921681553722
 42
-0.2261112208981409
  0
LWPOLYLINE
  5
15FE
102
{ACAD_REACTORS
330
1E19
330
1E1E
330
1E24
102
}
330
1F
100
AcDbEntity
  8
OUTLINE
100
AcDbPolyline
 90
       11
 70
     1
 43
0.0
 10
1.87359840078426
 20
4.235980705979437
 42
-0.1270301003443936
 10
1.810386048413827
 20
4.172506202020963
 42
-0.1817893440728197
 10
1.724271506568414
 20
4.551310750347554
 42
-0.3342755353942616
 10
2.072361175969704
 20
4.634137160556719
 42
-0.1070408100855806
 10
2.100160592323789
 20
4.495197700593249
 42
-0.1306454230159446
 10
2.061820341260301
 20
4.361794007206879
 42
0.0299358728978887
 10
2.012171698282398
 20
4.341122982127547
 42
0.0730356623686612
 10
2.013402235298162
 20
4.467864543342512
 42
0.2192887323650965
 10
1.938742673462417
 20
4.579853886096129
 42
0.4641253885252298
 10
1.812754662864575
 20
4.529691992987736
 42
0.3298763500201605
 10
1.892619933304291
 20
4.25608216909896
 42
0.0153945932767014
  0
LWPOLYLINE
  5
1634
102
{ACAD_REACTORS
330
1E18
330
1E1D
330
1E23
102
}
330
1F
100
AcDbEntity
  8
OUTLINE
100
AcDbPolyline
 90
       14
 70
     1
 43
0.0
 10
2.622370327866585
 20
4.254734197375376
 42
0.1514223462743146
 10
2.720937169798336
 20
4.347717045211561
 42
0.1775711693409247
 10
2.726332489696628
 20
4.508628815691545
 42
0.1570730251413852
 10
2.653422761341395
 20
4.594370656237291
 42
0.3486569409813939
 10
2.519852138994616
 20
4.58328837752729
 42
0.3974289178450695
 10
2.496439005195271
 20
4.301951236600112
 42
-0.0031921170703412
 10
2.43351093811724
 20
4.326924199957529
 42
0.032492417703133
 10
2.381131135338211
 20
4.35266615893891
 42
-0.1821600070384493
 10
2.326226500243976
 20
4.569123680787217
 42
-0.0360715681464445
 10
2.333248855065469
 20
4.608921681553722
 42
-0.3280260750973205
 10
2.837651386881222
 20
4.580119950211568
 42
-0.0082843782651417
 10
2.840069202972492
 20
4.569408484413608
 42
-0.2016120684891698
 10
2.786921755052009
 20
4.20202122285267
 42
0.0708089422134456
 10
2.756056029064652
 20
4.20853987657699
 42
-0.0066691204379088
  0
LWPOLYLINE
  5
1679
102
{ACAD_REACTORS
330
1E13
330
1E22
102
}
330
1F
100
AcDbEntity
  8
OUTLINE
100
AcDbPolyline
 90
        4
 70
     1
 43
0.0
 10
2.03992089528968
 20
2.55459623155995
 42
0.0292469251460053
 10
1.988300238006923
 20
1.650344717779313
 42
-1.711541390375718
 10
1.922439399404789
 20
1.618304309810702
 42
-0.0734274663027904
 10
1.977620102017386
 20
2.575956503539015
 42
-0.9276235338283203
  0
LWPOLYLINE
  5
168C
330
1F
100
AcDbEntity
  8
OUTLINE
100
AcDbPolyline
 90
       15
 70
     1
 43
0.0
 10
1.793115655307469
 20
3.62581334670767
 42
0.0623928449294357
 10
1.782022287056287
 20
3.756647638112895
 42
-0.2585789899107037
 10
1.820171563076832
 20
3.873287554728375
 42
0.0408289342570848
 10
1.957020088587632
 20
3.723918025915841
 42
0.3171443286327049
 10
2.4035921747634
 20
3.662400442616123
 42
-0.104166330896105
 10
2.78522903412279
 20
3.889104129220652
 42
0.0257023090012283
 10
2.796534739783067
 20
3.896636737583614
 42
-0.1833256696404751
 10
2.868108577335215
 20
3.783809755736951
 42
0.0776789553558538
 10
2.967540643397797
 20
3.562641939620335
 42
-0.0062940535530857
 10
2.980929194571647
 20
3.539926568881367
 42
0.0326970444673797
 10
2.84282871353945
 20
3.698609855853203
 42
0.3619379953934631
 10
2.674794573970752
 20
3.678673602006068
 42
-0.0678955461260799
 10
2.452647745388424
 20
3.506367408041578
 42
-0.0821362364556381
 10
2.232058436637902
 20
3.403148343759378
 42
-0.1890304135363521
 10
1.988195331543511
 20
3.431628706398132
 42
0.090579276877147
  0
LWPOLYLINE
  5
16F0
102
{ACAD_REACTORS
330
1E0E
330
1E17
330
1E1D
330
1E1E
102
}
330
1F
100
AcDbEntity
  8
OUTLINE
100
AcDbPolyline
 90
       10
 70
     1
 43
0.0
 10
1.957020088587632
 20
3.723918025915846
 42
-0.0421281250623895
 10
1.816232399946398
 20
3.878389674394152
 42
-0.1938882786600753
 10
1.736309382291381
 20
3.962851749844712
 42
-0.3451081363817256
 10
1.796022449814308
 20
4.164857265968913
 42
0.150185023634602
 10
1.873598400784269
 20
4.235980705979442
 42
-0.3552920470157517
 10
2.43351093811724
 20
4.326924199957529
 42
0.016203872910984
 10
2.756056029064652
 20
4.20853987657699
 42
-0.5601329993204962
 10
2.844696031312523
 20
4.039462216521221
 42
-0.3413192684446377
 10
2.78522903412279
 20
3.889104129220652
 42
0.1041663308961057
 10
2.4035921747634
 20
3.662400442616123
 42
-0.3171443286327024
  0
LWPOLYLINE
  5
17E0
102
{ACAD_REACTORS
330
1E12
330
1E16
330
1E17
330
1E22
102
}
330
1F
100
AcDbEntity
  8
OUTLINE
100
AcDbPolyline
 90
       32
 70
     1
 43
0.0
 10
2.980929194571655
 20
3.539926568881354
 42
0.0326970444673791
 10
2.84282871353945
 20
3.698609855853199
 42
0.3619379953934564
 10
2.674794573970752
 20
3.678673602006068
 42
-0.0678955461260819
 10
2.452647745388424
 20
3.506367408041565
 42
-0.0821362364556385
 10
2.232058436637902
 20
3.403148343759378
 42
-0.1890304135363444
 10
1.98819533154352
 20
3.431628706398123
 42
0.0905792768771498
 10
1.793115655307469
 20
3.625813346707675
 42
0.113148712149809
 10
1.565373339888217
 20
3.261026787738889
 42
0.1963032576206135
 10
1.669115369810754
 20
3.100326298955555
 42
0.0918977200401424
 10
1.77236010201978
 20
3.07295496163794
 42
-0.972016207907233
 10
1.773624060513686
 20
3.025992552468378
 42
0.1273859671198444
 10
1.563581386052826
 20
2.940551464552094
 42
0.0195627890493846
 10
1.407099331672921
 20
2.800972953013664
 42
0.0546454959302133
 10
1.210726657751826
 20
2.342576929209824
 42
0.0918063462778499
 10
1.165822600093887
 20
1.811583376843492
 42
0.021659065610804
 10
1.338964413408024
 20
1.654931536694434
 42
0.0015957499714583
 10
1.621678821853735
 20
1.427930480927515
 42
-0.1228524555866364
 10
1.809649215269576
 20
1.259326734106034
 42
-0.4547679184187358
 10
1.756106133508712
 20
1.020091687940442
 42
-0.0876769848436384
 10
1.613226439055282
 20
0.982735066526041
 42
0.0054618818530053
 10
1.726785893120103
 20
0.8146251032067112
 42
0.1442798636945447
 10
2.092126057085196
 20
0.673236128852929
 42
0.1732538050909982
 10
2.942086879585708
 20
0.9424645569224666
 42
0.0444206512862952
 10
3.047456433384844
 20
1.026650368707092
 42
0.0520272401681119
 10
3.023830436280932
 20
1.156373308500432
 42
-0.097653691430846
 10
3.014930322956314
 20
1.403351453258431
 42
-0.3055927451733795
 10
3.17150341377197
 20
1.529022220999039
 42
0.011612729930281
 10
3.161401846512135
 20
1.66913821197148
 42
-0.4108315905746482
 10
3.245005125903336
 20
1.766971836790968
 42
-0.0730113362949184
 10
3.414491356552159
 20
1.756900039910055
 42
0.097167707465093
 10
3.433354548058699
 20
2.364626395519095
 42
0.1859542191873895
 10
3.116895670126445
 20
3.091492190498647
 42
0.1132870694084799
  0
LWPOLYLINE
  5
189A
102
{ACAD_REACTORS
330
1E11
102
}
330
1F
100
AcDbEntity
  8
OUTLINE
100
AcDbPolyline
 90
       11
 70
     1
 43
0.0
 10
4.06235513250441
 20
1.83744878228522
 42
0.1324672570310205
 10
3.706920206772679
 20
1.910358510640451
 42
0.2940377831322038
 10
3.466593422231898
 20
1.7435322413275
 42
0.0084523933333538
 10
3.447605359792368
 20
1.748998098469525
 42
-0.2415230927778709
 10
3.647872671025806
 20
1.921966608923449
 42
0.1871377091928036
 10
3.734282561881287
 20
2.592430504964967
 42
0.1970490411922804
 10
3.385095091459578
 20
2.995704071010959
 42
-1.043106235605779
 10
3.397679183327023
 20
3.02059824540283
 42
-0.1974601130467147
 10
3.761088610597608
 20
2.600228092854723
 42
-0.1815075747094141
 10
3.682720514820306
 20
1.928187358050862
 42
-0.1369530540652842
 10
4.061810790381622
 20
1.859622906535124
 42
-0.6950689830592577
  0
LWPOLYLINE
  5
1C89
102
{ACAD_REACTORS
330
1E12
330
1E16
330
1E17
330
1E18
330
1E19
330
1E1C
102
}
330
1F
100
AcDbEntity
  8
OUTLINE
100
AcDbPolyline
 90
       73
 70
     1
 43
0.0
 10
1.607026580571068
 20
4.520568685207349
 42
-0.070004386189897
 10
1.624826807220285
 20
5.003399833067581
 42
-0.2198582371470399
 10
1.936887030664519
 20
5.479555895934354
 42
-0.2565802161633767
 10
2.796304223572429
 20
5.476774610520416
 42
-0.1836880744537755
 10
3.197487261499646
 20
5.009735948901212
 42
-0.0683034572510213
 10
3.257615622981564
 20
4.612194630097229
 10
3.281743273947512
 20
4.130250016962682
 42
0.0753042238108183
 10
3.600144828135541
 20
3.467013572012533
 42
0.0296182061599532
 10
3.874709764154494
 20
3.132956718486525
 42
-0.0995872379977981
 10
4.046921439610764
 20
2.824454882030754
 42
-0.0922022689240943
 10
4.218159619976331
 20
2.078971377333696
 42
-0.0827439449858126
 10
4.156406188784382
 20
1.707570196759423
 42
0.050220445959168
 10
4.121689597514728
 20
1.718295613107017
 42
0.3187758110195602
 10
4.06235513250441
 20
1.837448782285224
 42
0.6950689830592577
 10
4.061810790381622
 20
1.859622906535122
 42
0.136953054065284
 10
3.682720514820306
 20
1.928187358050864
 42
0.181507574709413
 10
3.761088610597608
 20
2.600228092854723
 42
0.1974601130467147
 10
3.397679183327023
 20
3.02059824540283
 42
1.043106235605779
 10
3.385095091459578
 20
2.995704071010961
 42
-0.1970490411922804
 10
3.734282561881287
 20
2.592430504964967
 42
-0.1871377091928029
 10
3.647872671025806
 20
1.921966608923451
 42
0.2415230927778722
 10
3.447605359792368
 20
1.748998098469525
 42
0.0145650227566654
 10
3.414491356552168
 20
1.75690003991005
 42
0.0971677074650921
 10
3.43335454805869
 20
2.36462639551909
 42
0.1859542191873891
 10
3.116895670126428
 20
3.091492190498647
 42
0.1196664493140893
 10
2.967540643397797
 20
3.562641939620335
 42
-0.0776789553558538
 10
2.868108577335215
 20
3.783809755736951
 42
0.1833256696404681
 10
2.796534739783067
 20
3.896636737583606
 42
0.3128722273490535
 10
2.844696031312532
 20
4.039462216521225
 42
0.470656672065475
 10
2.786921755052009
 20
4.202021222852674
 42
0.2016120684891662
 10
2.840069202972501
 20
4.569408484413608
 42
0.1859940108218722
 10
2.710825317317795
 20
4.769625433764088
 42
0.2734549389540663
 10
2.487135809291533
 20
4.794803752718679
 42
0.2643387854283754
 10
2.326226500243985
 20
4.569123680787217
 42
0.1821600070384493
 10
2.381131135338211
 20
4.35266615893891
 42
0.1836449538996844
 10
2.061820341260301
 20
4.361794007206879
 42
0.1306454230159486
 10
2.100160592323806
 20
4.495197700593249
 42
0.1752818167313882
 10
2.026111649463024
 20
4.71050924214228
 42
0.1448125161492528
 10
1.951096652701534
 20
4.768080586394777
 42
0.304433977510716
 10
1.790294246814085
 20
4.731625722217164
 42
0.0688910902093794
 10
1.748215964370479
 20
4.653112477929981
 42
0.2312661862643203
 10
1.810386048413818
 20
4.172506202020967
 42
-0.0227214431741789
 10
1.796022449814308
 20
4.164857265968905
 42
0.3451081363817002
 10
1.736309382291381
 20
3.962851749844717
 42
0.1938882786600753
 10
1.816232399946398
 20
3.878389674394157
 42
0.0012969599739095
 10
1.820171563076832
 20
3.873287554728375
 42
0.2585789899107071
 10
1.782022287056287
 20
3.756647638112895
 42
-0.0623928449294349
 10
1.793115655307469
 20
3.625813346707675
 42
0.1919534316717679
 10
1.512878551908887
 20
2.970591175677812
 42
0.0765868077786618
 10
1.210726657751843
 20
2.34257692920982
 42
0.087059814777072
 10
1.163364091778055
 20
1.839035996643578
 42
-0.0180279077531702
 10
1.066440638089125
 20
1.924199365340891
 42
-0.0480042592686466
 10
1.035714185180615
 20
2.312621375240012
 42
-0.0530934627615729
 10
1.251379043521456
 20
2.837434311175826
 42
-0.1026655728187492
 10
1.31484287428334
 20
2.880665659262016
 42
1.010055617805493
 10
1.304745739894463
 20
2.904995413004335
 42
0.1070255084470485
 10
1.229877371431962
 20
2.853044334528732
 42
0.0537447674200103
 10
1.009439364607948
 20
2.316606024091675
 42
0.0481449865758135
 10
1.040087794852587
 20
1.921960759097031
 42
0.0231264338607993
 10
1.165822600093895
 20
1.811583376843497
 42
0.021659065610803
 10
1.33896441340799
 20
1.654931536694451
 42
0.0015957499714585
 10
1.621678821853675
 20
1.427930480927557
 42
-0.1228524555866424
 10
1.809649215269593
 20
1.259326734106034
 42
-0.454767918418762
 10
1.756106133508712
 20
1.020091687940446
 42
-0.0876769848436422
 10
1.613226439055273
 20
0.9827350665260496
 42
-0.0156180750613113
 10
1.309119662332841
 20
1.476592495011113
 42
0.0962951525402526
 10
1.021986709411061
 20
1.809964317939676
 42
0.3960546673705612
 10
0.7492402661122526
 20
1.794886079231928
 42
-0.2996351833580141
 10
0.7942235121745398
 20
2.225555762671102
 42
0.0664970533439078
 10
1.058167497957589
 20
2.83317623384136
 42
-0.1673992874402935
 10
1.233054724786217
 20
3.182192787223336
 42
0.0188012346330182
 10
1.571782357784986
 20
3.620776131678916
 42
0.1983951680676464
 10
1.638083815168073
 20
3.838983997746572
 42
0.0227712938711379
  0
LINE
  5
1DF5
330
1F
100
AcDbEntity
  8
0
100
AcDbLine
 10
0.0
 20
0.0
 30
0.0
 11
5.0
 21
0.0
 31
0.0
  0
LINE
  5
1DF6
330
1F
100
AcDbEntity
  8
0
100
AcDbLine
 10
0.0
 20
0.0
 30
0.0
 11
0.0
 21
7.0
 31
0.0
  0
HATCH
  5
1E0B
330
1F
100
AcDbEntity
  8
ORANGE_42
100
AcDbHatch
 10
0.0
 20
0.0
 30
0.0
210
0.0
220
0.0
230
1.0
  2
SOLID
 70
     1
 71
     1
 91
        1
 92
        7
 72
     1
 73
     1
 93
       15
 10
1.652744557699921
 20
0.191848435450833
 42
-0.2137520416534278
 10
1.27315472440519
 20
0.185173350457368
 42
0.0283658571724033
 10
0.1998847185221635
 20
0.4974204762814174
 42
-0.5375123265116628
 10
0.1047375230185921
 20
0.6960994860494125
 42
0.0
 10
0.1357438547883433
 20
0.7736359251407939
 42
0.1516295557170158
 10
0.1760035174122237
 20
1.186485481929606
 42
-0.0566244534261627
 10
0.1567023914692356
 20
1.399505167370303
 42
-0.3109261435323393
 10
0.2553843483088641
 20
1.542854116841405
 42
-0.1508417208967134
 10
0.4616533747200904
 20
1.561010348023609
 42
0.2894099775641784
 10
0.6553020404370145
 20
1.633172466859568
 42
0.009765753305025
 10
0.7158228110443758
 20
1.747663524667386
 42
-0.4828836087127319
 10
1.021986709411053
 20
1.809964317939676
 42
-0.0962951525402528
 10
1.309119662332829
 20
1.476592495011119
 42
0.0239039340438212
 10
1.786864395428054
 20
0.7287871732505046
 42
-0.2065055817330123
 10
1.847242764222233
 20
0.4325914018073931
 42
-0.1841488557643874
 97
        1
330
66F
 75
     0
 76
     1
 47
0.0
 98
        1
 10
1.078229775116815
 20
0.8582625584112122
1001
ACAD
1010
0.0
1020
0.0
1030
0.0
  0
HATCH
  5
1E0D
330
1F
100
AcDbEntity
  8
ORANGE_42
100
AcDbHatch
 10
0.0
 20
0.0
 30
0.0
210
0.0
220
0.0
230
1.0
  2
SOLID
 70
     1
 71
     1
 91
        1
 92
        7
 72
     1
 73
     1
 93
       20
 10
4.300962202027208
 20
0.6413448581384071
 42
0.1183908253048179
 10
4.635273047669777
 20
0.8433169763601932
 42
0.237520264494803
 10
4.670015101938067
 20
1.018764350415037
 42
0.1898299440115546
 10
4.603643881463926
 20
1.077353350733071
 42
-0.1294170782499434
 10
4.296538018553989
 20
1.363099798678866
 42
-0.1695186479897154
 10
4.265297963355937
 20
1.51485309172275
 42
0.3975838786804816
 10
4.121689597514707
 20
1.718295613107017
 42
-0.2065451373005788
 10
3.875159980426939
 20
1.425295024229993
 42
-0.1813722867103278
 10
3.562481492012355
 20
1.415567249034869
 42
-0.2611057185545904
 10
3.456865647036764
 20
1.542028326571437
 42
-0.1154907694451032
 10
3.466593422231894
 20
1.7435322413275
 42
0.0961932621804235
 10
3.245005125903336
 20
1.766971836790972
 42
0.4108315905746158
 10
3.161401846512138
 20
1.669138211971492
 42
-0.0116127299302788
 10
3.171503413771974
 20
1.529022220999039
 42
-0.0292684596305178
 10
3.168045073478537
 20
1.175232751737568
 42
-0.0315482150546199
 10
3.118095875866737
 20
0.7972064533840209
 42
0.0797285642047482
 10
3.090995105725764
 20
0.3661392580265586
 42
0.2127457753556153
 10
3.21701010885667
 20
0.1983836662177386
 42
0.2497635085603615
 10
3.701661765899263
 20
0.186223947223847
 42
0.0295543156633556
 10
3.932696426783367
 20
0.3877278619799076
 42
-0.0732274567917324
 97
        2
330
1374
330
13CD
 75
     0
 76
     1
 47
0.0
 98
        1
 10
3.789094261098124
 20
0.6580756425233618
1001
ACAD
1010
0.0
1020
0.0
1030
0.0
  0
HATCH
  5
1E0E
330
1F
100
AcDbEntity
  8
ORANGE_42
100
AcDbHatch
 10
0.0
 20
0.0
 30
0.0
210
0.0
220
0.0
230
1.0
  2
SOLID
 70
     1
 71
     1
 91
        3
 92
        7
 72
     1
 73
     1
 93
       22
 10
2.341175156557894
 20
3.878640687168729
 42
0.0538668927975071
 10
2.699346867136935
 20
4.08413095366405
 42
-0.2454899963583693
 10
2.73525635325219
 20
4.087679307735354
 42
-0.6916197807170936
 10
2.735256353252191
 20
4.072389029471394
 42
-0.2013783831220325
 10
2.712082025258368
 20
4.069999923492649
 42
0.0917797746979594
 10
2.699253897689152
 20
4.068592134493008
 42
-0.0527610171799244
 10
2.345588871344737
 20
3.866887131628528
 42
-0.1362603271605064
 10
1.934091025623352
 20
3.852488058669525
 42
-0.0821878736335895
 10
1.849279656941226
 20
3.909026020807123
 42
0.2774930320011654
 10
1.740635142972162
 20
3.952890314171746
 42
0.175835733526162
 10
1.816232399946398
 20
3.878389674394151
 42
0.0421281250623903
 10
1.957020088587632
 20
3.723918025915846
 42
0.317144328632702
 10
2.4035921747634
 20
3.662400442616124
 42
-0.1041663308961051
 10
2.78522903412279
 20
3.889104129220652
 42
0.3413192684446338
 10
2.844696031312523
 20
4.039462216521221
 42
0.5601329993205009
 10
2.75605602906465
 20
4.20853987657699
 42
-0.0162038729109877
 10
2.433510938117242
 20
4.326924199957528
 42
0.3552920470157537
 10
1.873598400784269
 20
4.235980705979442
 42
-0.1501850236346041
 10
1.796022449814309
 20
4.164857265968914
 42
0.3417909000781195
 10
1.735574053332485
 20
3.964740480171184
 42
-0.2817877735917256
 10
1.858610122086082
 20
3.917467431547387
 42
0.0803202275744501
 10
1.938178025219433
 20
3.864400505849352
 42
0.1356346364711742
 97
        2
330
14E3
330
16F0
 92
       22
 72
     1
 73
     1
 93
        3
 10
2.370211232338984
 20
4.307543845596769
 42
0.2167257020750635
 10
2.263955364226241
 20
4.328747517223709
 42
0.140262105217115
 10
2.344885162700542
 20
4.291563555762544
 42
0.3443060128781977
 97
        1
330
1546
 92
       22
 72
     1
 73
     1
 93
        3
 10
2.044138514111361
 20
4.286590991247158
 42
0.0999344524121391
 10
2.080046555326315
 20
4.332341845790066
 42
0.2156420442052621
 10
2.012605056597732
 20
4.287684637172492
 42
0.0
 97
        1
330
1538
 75
     0
 76
     1
 47
0.0
 98
        3
 10
2.279351270443918
 20
4.044570969626166
 10
2.279351270443918
 20
4.044570969626166
 10
2.279351270443918
 20
4.044570969626166
1001
ACAD
1010
0.0
1020
0.0
1030
0.0
  0
HATCH
  5
1E10
330
1F
100
AcDbEntity
  8
GRAY
100
AcDbHatch
 10
0.0
 20
0.0
 30
0.0
210
0.0
220
0.0
230
1.0
  2
SOLID
 70
     1
 71
     1
 91
        1
 92
        7
 72
     1
 73
     1
 93
        5
 10
3.047456433384839
 20
1.026650368707092
 42
0.0631524963598976
 10
3.168045073478535
 20
1.175232751737565
 42
0.0292684596305249
 10
3.171503413771974
 20
1.529022220999039
 42
0.3055927451733772
 10
3.01493032295631
 20
1.403351453258435
 42
0.0976536914308483
 10
3.023830436280927
 20
1.156373308500432
 42
-0.0520272401681096
 97
        1
330
13CD
 75
     0
 76
     1
 47
0.0
 98
        1
 10
3.071757812499993
 20
1.358729848130839
1001
ACAD
1010
0.0
1020
0.0
1030
0.0
  0
HATCH
  5
1E11
330
1F
100
AcDbEntity
  8
GRAY
100
AcDbHatch
 10
0.0
 20
0.0
 30
0.0
210
0.0
220
0.0
230
1.0
  2
SOLID
 70
     1
 71
     1
 91
        1
 92
        7
 72
     1
 73
     1
 93
       11
 10
4.06235513250441
 20
1.83744878228522
 42
0.1324672570310205
 10
3.706920206772679
 20
1.910358510640451
 42
0.2940377831322038
 10
3.466593422231898
 20
1.7435322413275
 42
0.0084523933333538
 10
3.447605359792368
 20
1.748998098469525
 42
-0.2415230927778709
 10
3.647872671025806
 20
1.921966608923449
 42
0.1871377091928036
 10
3.734282561881287
 20
2.592430504964967
 42
0.1970490411922804
 10
3.385095091459578
 20
2.995704071010959
 42
-1.043106235605779
 10
3.397679183327023
 20
3.02059824540283
 42
-0.1974601130467147
 10
3.761088610597608
 20
2.600228092854723
 42
-0.1815075747094141
 10
3.682720514820306
 20
1.928187358050862
 42
-0.1369530540652842
 10
4.061810790381622
 20
1.859622906535124
 42
-0.6950689830592577
 97
        1
330
189A
 75
     0
 76
     1
 47
0.0
 98
        1
 10
3.77241201810747
 20
2.451416764018689
1001
ACAD
1010
0.0
1020
0.0
1030
0.0
  0
HATCH
  5
1E12
330
1F
100
AcDbEntity
  8
GRAY
100
AcDbHatch
 10
0.0
 20
0.0
 30
0.0
210
0.0
220
0.0
230
1.0
  2
SOLID
 70
     1
 71
     1
 91
        1
 92
        7
 72
     1
 73
     1
 93
       10
 10
1.035714185180615
 20
2.312621375240012
 42
-0.0530934627615732
 10
1.251379043521456
 20
2.837434311175826
 42
-0.1026655728187548
 10
1.31484287428334
 20
2.880665659262016
 42
1.010055617805475
 10
1.304745739894463
 20
2.904995413004335
 42
0.1070255084470544
 10
1.229877371431962
 20
2.853044334528732
 42
0.0537447674200096
 10
1.009439364607948
 20
2.316606024091675
 42
0.0481449865758134
 10
1.040087794852587
 20
1.921960759097031
 42
0.0231264338607764
 10
1.165822600093881
 20
1.811583376843504
 42
-0.0047088949817806
 10
1.163364091778054
 20
1.839035996643578
 42
-0.0180279077531703
 10
1.066440638089125
 20
1.924199365340891
 42
-0.0480042592686482
 97
        2
330
1C89
330
17E0
 75
     0
 76
     1
 47
0.0
 98
        1
 10
1.111594261098123
 20
2.559851343457942
1001
ACAD
1010
0.0
1020
0.0
1030
0.0
  0
HATCH
  5
1E13
330
1F
100
AcDbEntity
  8
GRAY
100
AcDbHatch
 10
0.0
 20
0.0
 30
0.0
210
0.0
220
0.0
230
1.0
  2
SOLID
 70
     1
 71
     1
 91
        1
 92
        7
 72
     1
 73
     1
 93
        4
 10
2.03992089528968
 20
2.55459623155995
 42
0.0292469251460053
 10
1.988300238006923
 20
1.650344717779313
 42
-1.711541390375718
 10
1.922439399404789
 20
1.618304309810702
 42
-0.0734274663027904
 10
1.977620102017386
 20
2.575956503539015
 42
-0.9276235338283203
 97
        1
330
1679
 75
     0
 76
     1
 47
0.0
 98
        1
 10
1.979070896612142
 20
2.301276577102802
1001
ACAD
1010
0.0
1020
0.0
1030
0.0
  0
HATCH
  5
1E14
330
1F
100
AcDbEntity
  8
GRAY
100
AcDbHatch
 10
0.0
 20
0.0
 30
0.0
210
0.0
220
0.0
230
1.0
  2
SOLID
 70
     1
 71
     1
 91
        1
 92
        7
 72
     1
 73
     1
 93
        8
 10
3.026463093428055
 20
3.23842474428055
 42
-0.1964888989253743
 10
3.070963660051115
 20
3.081782749767359
 42
-0.1033633295120192
 10
3.316606787810426
 20
2.715098080793325
 42
-0.3022683948179806
 10
3.213853866963586
 20
2.7319882708551
 42
0.1636820288981806
 10
2.808293502987644
 20
2.968944888009588
 42
-0.0175891569432577
 10
2.589724519961801
 20
3.011434029021294
 42
-1.097340599148307
 10
2.593996574357615
 20
3.091179044409824
 42
0.1104401777769774
 10
2.891379503218513
 20
3.139785031459709
 42
0.1746930770522066
 97
        1
330
1409
 75
     0
 76
     1
 47
0.0
 98
        1
 10
3.038393326518685
 20
2.993589661214951
1001
ACAD
1010
0.0
1020
0.0
1030
0.0
  0
HATCH
  5
1E15
330
1F
100
AcDbEntity
  8
GRAY
100
AcDbHatch
 10
0.0
 20
0.0
 30
0.0
210
0.0
220
0.0
230
1.0
  2
SOLID
 70
     1
 71
     1
 91
        1
 92
        7
 72
     1
 73
     1
 93
        8
 10
2.235286299971997
 20
3.090067772193424
 42
-0.7933857123691529
 10
2.242708979058623
 20
3.057844482087816
 42
0.3678649723613345
 10
2.09688952234817
 20
2.946657146346092
 42
-1.19022941494522
 10
2.049498198917273
 20
2.956682233994931
 42
0.537662788907679
 10
1.995727274255293
 20
3.056021738878934
 42
-0.7519416611905365
 10
1.995337305101637
 20
3.080152289621634
 42
0.4717667687973966
 10
2.103243703067375
 20
3.177851325617635
 42
-1.157442488358139
 10
2.139448792900168
 20
3.173217194968933
 42
0.5536805886074581
 97
        1
330
143C
 75
     0
 76
     1
 47
0.0
 98
        1
 10
2.112528840537376
 20
3.068659754672895
1001
ACAD
1010
0.0
1020
0.0
1030
0.0
  0
HATCH
  5
1E16
330
1F
100
AcDbEntity
  8
GRAY
100
AcDbHatch
 10
0.0
 20
0.0
 30
0.0
210
0.0
220
0.0
230
1.0
  2
SOLID
 70
     1
 71
     1
 91
        1
 92
        7
 72
     1
 73
     1
 93
        7
 10
1.773624060513687
 20
3.025992552468378
 42
0.9720162079072389
 10
1.772360102019779
 20
3.07295496163794
 42
-0.0918977200401408
 10
1.669115369810754
 20
3.100326298955555
 42
-0.1963032576206158
 10
1.565373339888217
 20
3.261026787738891
 42
0.0771295215701062
 10
1.512878551908887
 20
2.970591175677812
 42
0.0218498674417733
 10
1.407099331672924
 20
2.800972953013667
 42
-0.0195627890493831
 10
1.563581386052828
 20
2.940551464552096
 42
-0.1273859671198438
 97
        2
330
17E0
330
1C89
 75
     0
 76
     1
 47
0.0
 98
        1
 10
1.603720429322423
 20
3.060318633177568
1001
ACAD
1010
0.0
1020
0.0
1030
0.0
  0
HATCH
  5
1E17
330
1F
100
AcDbEntity
  8
GRAY
100
AcDbHatch
 10
0.0
 20
0.0
 30
0.0
210
0.0
220
0.0
230
1.0
  2
SOLID
 70
     1
 71
     1
 91
        1
 92
        7
 72
     1
 73
     1
 93
       15
 10
2.452647745388423
 20
3.506367408041564
 42
0.0678955461260826
 10
2.674794573970748
 20
3.678673602006064
 42
-0.3619379953934704
 10
2.842828713539451
 20
3.698609855853198
 42
-0.0326970444673804
 10
2.98092919457166
 20
3.539926568881347
 42
0.0062940535532462
 10
2.967540643397796
 20
3.562641939620336
 42
-0.0776789553558525
 10
2.868108577335215
 20
3.783809755736951
 42
0.1833256696404674
 10
2.796534739783066
 20
3.896636737583608
 42
-0.0257023090009129
 10
2.78522903412279
 20
3.889104129220652
 42
0.1041663308961051
 10
2.4035921747634
 20
3.662400442616124
 42
-0.317144328632702
 10
1.957020088587632
 20
3.723918025915846
 42
-0.0408289342570712
 10
1.820171563076833
 20
3.873287554728376
 42
0.2585789899107145
 10
1.782022287056288
 20
3.756647638112892
 42
-0.0623928449294359
 10
1.793115655307469
 20
3.625813346707675
 42
-0.0905792768771481
 10
1.98819533154352
 20
3.431628706398123
 42
0.1890304135363456
 10
2.232058436637903
 20
3.403148343759378
 42
0.0821362364556364
 97
        3
330
17E0
330
1C89
330
16F0
 75
     0
 76
     1
 47
0.0
 98
        1
 10
2.287692391939245
 20
3.519080315420559
1001
ACAD
1010
0.0
1020
0.0
1030
0.0
  0
HATCH
  5
1E18
330
1F
100
AcDbEntity
  8
GRAY
100
AcDbHatch
 10
0.0
 20
0.0
 30
0.0
210
0.0
220
0.0
230
1.0
  2
SOLID
 70
     1
 71
     1
 91
        1
 92
        7
 72
     1
 73
     1
 93
        4
 10
2.837651386881222
 20
4.580119950211567
 42
0.1774362308736031
 10
2.710825317317794
 20
4.769625433764089
 42
0.2734549389540726
 10
2.487135809291528
 20
4.794803752718678
 42
0.2261112208981233
 10
2.33324885506547
 20
4.608921681553723
 42
-0.3280260750973201
 97
        2
330
1C89
330
1634
 75
     0
 76
     1
 47
0.0
 98
        1
 10
2.629678373247657
 20
4.720201810747662
1001
ACAD
1010
0.0
1020
0.0
1030
0.0
  0
HATCH
  5
1E19
330
1F
100
AcDbEntity
  8
GRAY
100
AcDbHatch
 10
0.0
 20
0.0
 30
0.0
210
0.0
220
0.0
230
1.0
  2
SOLID
 70
     1
 71
     1
 91
        1
 92
        7
 72
     1
 73
     1
 93
        6
 10
2.026111649463023
 20
4.710509242142281
 42
0.1448125161492387
 10
1.951096652701534
 20
4.768080586394777
 42
0.3044339775107119
 10
1.790294246814085
 20
4.731625722217164
 42
0.0688910902093762
 10
1.748215964370478
 20
4.653112477929978
 42
0.0474806726520735
 10
1.724271506568412
 20
4.55131075034755
 42
-0.3342755353942721
 10
2.072361175969708
 20
4.634137160556717
 42
0.066984227952933
 97
        2
330
1C89
330
15FE
 75
     0
 76
     1
 47
0.0
 98
        1
 10
1.904000803154198
 20
4.720201810747662
1001
ACAD
1010
0.0
1020
0.0
1030
0.0
  0
HATCH
  5
1E1A
330
1F
100
AcDbEntity
  8
GRAY
100
AcDbHatch
 10
0.0
 20
0.0
 30
0.0
210
0.0
220
0.0
230
1.0
  2
SOLID
 70
     1
 71
     1
 91
        1
 92
        7
 72
     1
 73
     1
 93
        6
 10
3.019450504453462
 20
3.935658308908589
 42
0.2052746114823743
 10
3.159801731537274
 20
3.71328363742515
 42
0.3633391599879377
 10
3.202344558032542
 20
3.719444509471162
 42
-0.0865063897042439
 10
3.247840228526215
 20
3.771939513886931
 42
0.3319698495384859
 10
3.244340561565167
 20
3.809852572631652
 42
0.1367739599658449
 10
3.047192656092636
 20
3.948672695419998
 42
0.4705828229743146
 97
        1
330
1463
 75
     0
 76
     1
 47
0.0
 98
        1
 10
3.13848678446261
 20
3.836042932242989
1001
ACAD
1010
0.0
1020
0.0
1030
0.0
  0
HATCH
  5
1E1C
330
1F
100
AcDbEntity
  8
BLACK_250
100
AcDbHatch
 10
0.0
 20
0.0
 30
0.0
210
0.0
220
0.0
230
1.0
  2
SOLID
 70
     1
 71
     1
 91
        2
 92
        7
 72
     1
 73
     1
 93
       73
 10
1.607026580571068
 20
4.520568685207349
 42
-0.070004386189897
 10
1.624826807220285
 20
5.003399833067581
 42
-0.2198582371470399
 10
1.936887030664519
 20
5.479555895934354
 42
-0.2565802161633767
 10
2.796304223572429
 20
5.476774610520416
 42
-0.1836880744537755
 10
3.197487261499646
 20
5.009735948901212
 42
-0.0683034572510213
 10
3.257615622981564
 20
4.612194630097229
 42
0.0
 10
3.281743273947512
 20
4.130250016962682
 42
0.0753042238108183
 10
3.600144828135541
 20
3.467013572012533
 42
0.0296182061599532
 10
3.874709764154494
 20
3.132956718486525
 42
-0.0995872379977981
 10
4.046921439610764
 20
2.824454882030754
 42
-0.0922022689240943
 10
4.218159619976331
 20
2.078971377333696
 42
-0.0827439449858126
 10
4.156406188784382
 20
1.707570196759423
 42
0.050220445959168
 10
4.121689597514728
 20
1.718295613107017
 42
0.3187758110195602
 10
4.06235513250441
 20
1.837448782285224
 42
0.6950689830592577
 10
4.061810790381622
 20
1.859622906535122
 42
0.136953054065284
 10
3.682720514820306
 20
1.928187358050864
 42
0.181507574709413
 10
3.761088610597608
 20
2.600228092854723
 42
0.1974601130467147
 10
3.397679183327023
 20
3.02059824540283
 42
1.043106235605779
 10
3.385095091459578
 20
2.995704071010961
 42
-0.1970490411922804
 10
3.734282561881287
 20
2.592430504964967
 42
-0.1871377091928029
 10
3.647872671025806
 20
1.921966608923451
 42
0.2415230927778722
 10
3.447605359792368
 20
1.748998098469525
 42
0.0145650227566654
 10
3.414491356552168
 20
1.75690003991005
 42
0.0971677074650921
 10
3.43335454805869
 20
2.36462639551909
 42
0.1859542191873891
 10
3.116895670126428
 20
3.091492190498647
 42
0.1196664493140893
 10
2.967540643397797
 20
3.562641939620335
 42
-0.0776789553558538
 10
2.868108577335215
 20
3.783809755736951
 42
0.1833256696404681
 10
2.796534739783067
 20
3.896636737583606
 42
0.3128722273490535
 10
2.844696031312532
 20
4.039462216521225
 42
0.470656672065475
 10
2.786921755052009
 20
4.202021222852674
 42
0.2016120684891662
 10
2.840069202972501
 20
4.569408484413608
 42
0.1859940108218722
 10
2.710825317317795
 20
4.769625433764088
 42
0.2734549389540663
 10
2.487135809291533
 20
4.794803752718679
 42
0.2643387854283754
 10
2.326226500243985
 20
4.569123680787217
 42
0.1821600070384493
 10
2.381131135338211
 20
4.35266615893891
 42
0.1836449538996844
 10
2.061820341260301
 20
4.361794007206879
 42
0.1306454230159486
 10
2.100160592323806
 20
4.495197700593249
 42
0.1752818167313882
 10
2.026111649463024
 20
4.71050924214228
 42
0.1448125161492528
 10
1.951096652701534
 20
4.768080586394777
 42
0.304433977510716
 10
1.790294246814085
 20
4.731625722217164
 42
0.0688910902093794
 10
1.748215964370479
 20
4.653112477929981
 42
0.2312661862643203
 10
1.810386048413818
 20
4.172506202020967
 42
-0.0227214431741789
 10
1.796022449814308
 20
4.164857265968905
 42
0.3451081363817002
 10
1.736309382291381
 20
3.962851749844717
 42
0.1938882786600753
 10
1.816232399946398
 20
3.878389674394157
 42
0.0012969599739095
 10
1.820171563076832
 20
3.873287554728375
 42
0.2585789899107071
 10
1.782022287056287
 20
3.756647638112895
 42
-0.0623928449294349
 10
1.793115655307469
 20
3.625813346707675
 42
0.1919534316717679
 10
1.512878551908887
 20
2.970591175677812
 42
0.0765868077786618
 10
1.210726657751843
 20
2.34257692920982
 42
0.087059814777072
 10
1.163364091778055
 20
1.839035996643578
 42
-0.0180279077531702
 10
1.066440638089125
 20
1.924199365340891
 42
-0.0480042592686466
 10
1.035714185180615
 20
2.312621375240012
 42
-0.0530934627615729
 10
1.251379043521456
 20
2.837434311175826
 42
-0.1026655728187492
 10
1.31484287428334
 20
2.880665659262016
 42
1.010055617805493
 10
1.304745739894463
 20
2.904995413004335
 42
0.1070255084470485
 10
1.229877371431962
 20
2.853044334528732
 42
0.0537447674200103
 10
1.009439364607948
 20
2.316606024091675
 42
0.0481449865758135
 10
1.040087794852587
 20
1.921960759097031
 42
0.0231264338607993
 10
1.165822600093895
 20
1.811583376843497
 42
0.021659065610803
 10
1.33896441340799
 20
1.654931536694451
 42
0.0015957499714585
 10
1.621678821853675
 20
1.427930480927557
 42
-0.1228524555866424
 10
1.809649215269593
 20
1.259326734106034
 42
-0.454767918418762
 10
1.756106133508712
 20
1.020091687940446
 42
-0.0876769848436422
 10
1.613226439055273
 20
0.9827350665260496
 42
-0.0156180750613113
 10
1.309119662332841
 20
1.476592495011113
 42
0.0962951525402526
 10
1.021986709411061
 20
1.809964317939676
 42
0.3960546673705612
 10
0.7492402661122526
 20
1.794886079231928
 42
-0.2996351833580141
 10
0.7942235121745398
 20
2.225555762671102
 42
0.0664970533439078
 10
1.058167497957589
 20
2.83317623384136
 42
-0.1673992874402935
 10
1.233054724786217
 20
3.182192787223336
 42
0.0188012346330182
 10
1.571782357784986
 20
3.620776131678916
 42
0.1983951680676464
 10
1.638083815168073
 20
3.838983997746572
 42
0.0227712938711379
 97
        1
330
1C89
 92
       22
 72
     1
 73
     1
 93
        6
 10
3.019450504453462
 20
3.935658308908589
 42
0.2052746114823743
 10
3.159801731537274
 20
3.71328363742515
 42
0.3633391599879377
 10
3.202344558032542
 20
3.719444509471162
 42
-0.0865063897042439
 10
3.247840228526215
 20
3.771939513886931
 42
0.3319698495384859
 10
3.244340561565167
 20
3.809852572631652
 42
0.1367739599658449
 10
3.047192656092636
 20
3.948672695419998
 42
0.4705828229743146
 97
        1
330
1463
 75
     0
 76
     1
 47
0.0
 98
        2
 10
3.088440055490647
 20
4.344851343457942
 10
3.088440055490647
 20
4.344851343457942
1001
ACAD
1010
0.0
1020
0.0
1030
0.0
  0
HATCH
  5
1E1D
330
1F
100
AcDbEntity
  8
BLACK_250
100
AcDbHatch
 10
0.0
 20
0.0
 30
0.0
210
0.0
220
0.0
230
1.0
  2
SOLID
 70
     1
 71
     1
 91
        1
 92
        7
 72
     1
 73
     1
 93
        6
 10
2.720937169798336
 20
4.347717045211562
 42
0.177571169340925
 10
2.726332489696627
 20
4.508628815691546
 42
0.1570730251413831
 10
2.653422761341396
 20
4.59437065623729
 42
0.3486569409813741
 10
2.519852138994622
 20
4.583288377527295
 42
0.3974289178450823
 10
2.496439005195272
 20
4.301951236600111
 42
0.0063414121488676
 10
2.622370327866586
 20
4.254734197375376
 42
0.151422346274314
 97
        2
330
1634
330
16F0
 75
     0
 76
     1
 47
0.0
 98
        1
 10
2.612996130257002
 20
4.436603679906541
1001
ACAD
1010
0.0
1020
0.0
1030
0.0
  0
HATCH
  5
1E1E
330
1F
100
AcDbEntity
  8
BLACK_250
100
AcDbHatch
 10
0.0
 20
0.0
 30
0.0
210
0.0
220
0.0
230
1.0
  2
SOLID
 70
     1
 71
     1
 91
        1
 92
        7
 72
     1
 73
     1
 93
        5
 10
2.013402235298162
 20
4.467864543342508
 42
0.2192887323650951
 10
1.938742673462419
 20
4.579853886096128
 42
0.4641253885252317
 10
1.812754662864576
 20
4.529691992987738
 42
0.3298763500201647
 10
1.892619933304292
 20
4.256082169098959
 42
-0.0821429969281913
 10
2.012171698282398
 20
4.341122982127545
 42
0.0730356623686625
 97
        2
330
15FE
330
16F0
 75
     0
 76
     1
 47
0.0
 98
        1
 10
1.845612952686909
 20
4.494991530373831
1001
ACAD
1010
0.0
1020
0.0
1030
0.0
  0
HATCH
  5
1E1F
330
1F
100
AcDbEntity
  8
BLACK_250
100
AcDbHatch
 10
0.0
 20
0.0
 30
0.0
210
0.0
220
0.0
230
1.0
  2
SOLID
 70
     1
 71
     1
 91
        1
 92
        7
 72
     1
 73
     1
 93
        7
 10
3.466593422231889
 20
1.7435322413275
 42
0.1154907694451045
 10
3.456865647036764
 20
1.542028326571437
 42
0.2611057185545916
 10
3.562481492012358
 20
1.415567249034868
 42
0.1813722867103256
 10
3.87515998042694
 20
1.425295024229993
 42
0.2065451373005784
 10
4.121689597514703
 20
1.718295613107017
 42
0.3187758110195571
 10
4.062355132504393
 20
1.837448782285224
 42
0.1324672570310209
 10
3.706920206772662
 20
1.910358510640449
 42
0.2940377831321913
 97
        1
330
13E7
 75
     0
 76
     1
 47
0.0
 98
        1
 10
3.705683046144853
 20
1.44214106308411
1001
ACAD
1010
0.0
1020
0.0
1030
0.0
  0
HATCH
  5
1E20
330
1F
100
AcDbEntity
  8
BLACK_250
100
AcDbHatch
 10
0.0
 20
0.0
 30
0.0
210
0.0
220
0.0
230
1.0
  2
SOLID
 70
     1
 71
     1
 91
        1
 92
        7
 72
     1
 73
     1
 93
       10
 10
3.090766767612607
 20
0.3685240833779145
 42
-0.0792863472123404
 10
3.118095875866729
 20
0.7972064533840013
 42
0.0315482150546106
 10
3.168045073478535
 20
1.175232751737558
 42
-0.0631524963598706
 10
3.04745643338484
 20
1.02665036870709
 42
-0.044420651286326
 10
2.942086879585696
 20
0.942464556922455
 42
-0.1732538050909982
 10
2.092126057085195
 20
0.6732361288529292
 42
-0.1442798636945476
 10
1.726785893120108
 20
0.8146251032067127
 42
0.0028207572861517
 10
1.78686439542807
 20
0.7287871732504844
 42
-0.2065055817329896
 10
1.847242764222233
 20
0.432591401807392
 42
-0.0628137748480968
 10
1.800856736982991
 20
0.3342629537236387
 42
-0.1190838345616483
 97
        3
330
1347
330
13CD
330
66F
 75
     0
 76
     1
 47
0.0
 98
        1
 10
2.746454074182236
 20
0.5162765771028011
1001
ACAD
1010
0.0
1020
0.0
1030
0.0
  0
HATCH
  5
1E22
330
1F
100
AcDbEntity
  8
WHITE
100
AcDbHatch
 10
0.0
 20
0.0
 30
0.0
210
0.0
220
0.0
230
1.0
  2
SOLID
 70
     1
 71
     1
 91
        4
 92
        7
 72
     1
 73
     1
 93
       32
 10
2.980929194571655
 20
3.539926568881354
 42
0.0326970444673791
 10
2.84282871353945
 20
3.698609855853199
 42
0.3619379953934564
 10
2.674794573970752
 20
3.678673602006068
 42
-0.0678955461260819
 10
2.452647745388424
 20
3.506367408041565
 42
-0.0821362364556385
 10
2.232058436637902
 20
3.403148343759378
 42
-0.1890304135363444
 10
1.98819533154352
 20
3.431628706398123
 42
0.0905792768771498
 10
1.793115655307469
 20
3.625813346707675
 42
0.113148712149809
 10
1.565373339888217
 20
3.261026787738889
 42
0.1963032576206135
 10
1.669115369810754
 20
3.100326298955555
 42
0.0918977200401424
 10
1.77236010201978
 20
3.07295496163794
 42
-0.972016207907233
 10
1.773624060513686
 20
3.025992552468378
 42
0.1273859671198444
 10
1.563581386052826
 20
2.940551464552094
 42
0.0195627890493846
 10
1.407099331672921
 20
2.800972953013664
 42
0.0546454959302133
 10
1.210726657751826
 20
2.342576929209824
 42
0.0918063462778499
 10
1.165822600093887
 20
1.811583376843492
 42
0.021659065610804
 10
1.338964413408024
 20
1.654931536694434
 42
0.0015957499714583
 10
1.621678821853735
 20
1.427930480927515
 42
-0.1228524555866364
 10
1.809649215269576
 20
1.259326734106034
 42
-0.4547679184187358
 10
1.756106133508712
 20
1.020091687940442
 42
-0.0876769848436384
 10
1.613226439055282
 20
0.982735066526041
 42
0.0054618818530053
 10
1.726785893120103
 20
0.8146251032067112
 42
0.1442798636945447
 10
2.092126057085196
 20
0.673236128852929
 42
0.1732538050909982
 10
2.942086879585708
 20
0.9424645569224666
 42
0.0444206512862952
 10
3.047456433384844
 20
1.026650368707092
 42
0.0520272401681119
 10
3.023830436280932
 20
1.156373308500432
 42
-0.097653691430846
 10
3.014930322956314
 20
1.403351453258431
 42
-0.3055927451733795
 10
3.17150341377197
 20
1.529022220999039
 42
0.011612729930281
 10
3.161401846512135
 20
1.66913821197148
 42
-0.4108315905746482
 10
3.245005125903336
 20
1.766971836790968
 42
-0.0730113362949184
 10
3.414491356552159
 20
1.756900039910055
 42
0.097167707465093
 10
3.433354548058699
 20
2.364626395519095
 42
0.1859542191873895
 10
3.116895670126445
 20
3.091492190498647
 42
0.1132870694084799
 97
        1
330
17E0
 92
       22
 72
     1
 73
     1
 93
        4
 10
2.03992089528968
 20
2.55459623155995
 42
0.0292469251460053
 10
1.988300238006923
 20
1.650344717779313
 42
-1.711541390375718
 10
1.922439399404789
 20
1.618304309810702
 42
-0.0734274663027904
 10
1.977620102017386
 20
2.575956503539015
 42
-0.9276235338283203
 97
        1
330
1679
 92
       22
 72
     1
 73
     1
 93
        8
 10
3.026463093428055
 20
3.23842474428055
 42
-0.1964888989253743
 10
3.070963660051115
 20
3.081782749767359
 42
-0.1033633295120192
 10
3.316606787810426
 20
2.715098080793325
 42
-0.3022683948179806
 10
3.213853866963586
 20
2.7319882708551
 42
0.1636820288981806
 10
2.808293502987644
 20
2.968944888009588
 42
-0.0175891569432577
 10
2.589724519961801
 20
3.011434029021294
 42
-1.097340599148307
 10
2.593996574357615
 20
3.091179044409824
 42
0.1104401777769774
 10
2.891379503218513
 20
3.139785031459709
 42
0.1746930770522066
 97
        1
330
1409
 92
       22
 72
     1
 73
     1
 93
        8
 10
2.235286299971997
 20
3.090067772193424
 42
-0.7933857123691529
 10
2.242708979058623
 20
3.057844482087816
 42
0.3678649723613345
 10
2.09688952234817
 20
2.946657146346092
 42
-1.19022941494522
 10
2.049498198917273
 20
2.956682233994931
 42
0.537662788907679
 10
1.995727274255293
 20
3.056021738878934
 42
-0.7519416611905365
 10
1.995337305101637
 20
3.080152289621634
 42
0.4717667687973966
 10
2.103243703067375
 20
3.177851325617635
 42
-1.157442488358139
 10
2.139448792900168
 20
3.173217194968933
 42
0.5536805886074581
 97
        1
330
143C
 75
     0
 76
     1
 47
0.0
 98
        4
 10
2.871570896612142
 20
2.551510221962615
 10
2.871570896612142
 20
2.551510221962615
 10
2.871570896612142
 20
2.551510221962615
 10
2.871570896612142
 20
2.551510221962615
1001
ACAD
1010
0.0
1020
0.0
1030
0.0
  0
HATCH
  5
1E23
330
1F
100
AcDbEntity
  8
WHITE
100
AcDbHatch
 10
0.0
 20
0.0
 30
0.0
210
0.0
220
0.0
230
1.0
  2
SOLID
 70
     1
 71
     1
 91
        1
 92
        7
 72
     1
 73
     1
 93
       14
 10
2.622370327866585
 20
4.254734197375376
 42
0.1514223462743146
 10
2.720937169798336
 20
4.347717045211561
 42
0.1775711693409247
 10
2.726332489696628
 20
4.508628815691545
 42
0.1570730251413852
 10
2.653422761341395
 20
4.594370656237291
 42
0.3486569409813939
 10
2.519852138994616
 20
4.58328837752729
 42
0.3974289178450695
 10
2.496439005195271
 20
4.301951236600112
 42
-0.0031921170703412
 10
2.43351093811724
 20
4.326924199957529
 42
0.032492417703133
 10
2.381131135338211
 20
4.35266615893891
 42
-0.1821600070384493
 10
2.326226500243976
 20
4.569123680787217
 42
-0.0360715681464445
 10
2.333248855065469
 20
4.608921681553722
 42
-0.3280260750973205
 10
2.837651386881222
 20
4.580119950211568
 42
-0.0082843782651417
 10
2.840069202972492
 20
4.569408484413608
 42
-0.2016120684891698
 10
2.786921755052009
 20
4.20202122285267
 42
0.0708089422134456
 10
2.756056029064652
 20
4.20853987657699
 42
-0.0066691204379088
 97
        1
330
1634
 75
     0
 76
     1
 47
0.0
 98
        1
 10
2.796500803154199
 20
4.536697137850465
1001
ACAD
1010
0.0
1020
0.0
1030
0.0
  0
HATCH
  5
1E24
330
1F
100
AcDbEntity
  8
WHITE
100
AcDbHatch
 10
0.0
 20
0.0
 30
0.0
210
0.0
220
0.0
230
1.0
  2
SOLID
 70
     1
 71
     1
 91
        1
 92
        7
 72
     1
 73
     1
 93
       11
 10
1.87359840078426
 20
4.235980705979437
 42
-0.1270301003443936
 10
1.810386048413827
 20
4.172506202020963
 42
-0.1817893440728197
 10
1.724271506568414
 20
4.551310750347554
 42
-0.3342755353942616
 10
2.072361175969704
 20
4.634137160556719
 42
-0.1070408100855806
 10
2.100160592323789
 20
4.495197700593249
 42
-0.1306454230159446
 10
2.061820341260301
 20
4.361794007206879
 42
0.0299358728978887
 10
2.012171698282398
 20
4.341122982127547
 42
0.0730356623686612
 10
2.013402235298162
 20
4.467864543342512
 42
0.2192887323650965
 10
1.938742673462417
 20
4.579853886096129
 42
0.4641253885252298
 10
1.812754662864575
 20
4.529691992987736
 42
0.3298763500201605
 10
1.892619933304291
 20
4.25608216909896
 42
0.0153945932767014
 97
        1
330
15FE
 75
     0
 76
     1
 47
0.0
 98
        1
 10
2.012435382593451
 20
4.570061623831775
1001
ACAD
1010
0.0
1020
0.0
1030
0.0
  0
HATCH
  5
1E26
330
1F
100
AcDbEntity
  8
BLACK_250
100
AcDbHatch
 10
0.0
 20
0.0
 30
0.0
210
0.0
220
0.0
230
1.0
  2
SOLID
 70
     1
 71
     1
 91
        1
 92
        7
 72
     1
 73
     1
 93
        3
 10
2.370211232338984
 20
4.307543845596769
 42
0.2167257020750635
 10
2.263955364226241
 20
4.328747517223709
 42
0.140262105217115
 10
2.344885162700542
 20
4.291563555762544
 42
0.3443060128781977
 97
        1
330
1546
 75
     0
 76
     1
 47
0.0
 98
        1
 10
2.331641251075248
 20
4.316590291028926
1001
ACAD
1010
0.0
1020
0.0
1030
0.0
  0
HATCH
  5
1E27
330
1F
100
AcDbEntity
  8
BLACK_250
100
AcDbHatch
 10
0.0
 20
0.0
 30
0.0
210
0.0
220
0.0
230
1.0
  2
SOLID
 70
     1
 71
     1
 91
        1
 92
        7
 72
     1
 73
     1
 93
        3
 10
2.044138514111361
 20
4.286590991247158
 42
0.0999344524121391
 10
2.080046555326315
 20
4.332341845790066
 42
0.2156420442052621
 10
2.012605056597732
 20
4.287684637172492
 42
0.0
 97
        1
330
1538
 75
     0
 76
     1
 47
0.0
 98
        1
 10
2.037877529993229
 20
4.29599100570915
1001
ACAD
1010
0.0
1020
0.0
1030
0.0
  0
HATCH
  5
1E28
330
1F
100
AcDbEntity
  8
BLACK_250
100
AcDbHatch
 10
0.0
 20
0.0
 30
0.0
210
0.0
220
0.0
230
1.0
  2
SOLID
 70
     1
 71
     1
 91
        1
 92
        7
 72
     1
 73
     1
 93
       14
 10
2.699253897689152
 20
4.068592134493008
 42
-0.0527610171799256
 10
2.345588871344735
 20
3.866887131628527
 42
-0.1362603271605076
 10
1.934091025623354
 20
3.852488058669524
 42
-0.082187873633589
 10
1.849279656941225
 20
3.909026020807124
 42
0.2774930320011709
 10
1.740635142972161
 20
3.952890314171745
 42
-0.0174573796334587
 10
1.736309382291377
 20
3.962851749844717
 42
-0.0029672364594633
 10
1.735574053332485
 20
3.964740480171184
 42
-0.2817877735917235
 10
1.858610122086082
 20
3.917467431547388
 42
0.0803202275744466
 10
1.938178025219434
 20
3.864400505849352
 42
0.1356346364711754
 10
2.341175156557894
 20
3.878640687168729
 42
0.0538668927975079
 10
2.699346867136938
 20
4.084130953664052
 42
-0.24548999635835
 10
2.73525635325219
 20
4.087679307735354
 42
-0.691619780717074
 10
2.73525635325219
 20
4.072389029471393
 42
-0.2013783831219072
 10
2.71208202525837
 20
4.069999923492648
 42
0.0917797746979229
 97
        1
330
14E3
 75
     0
 76
     1
 47
0.0
 98
        1
 10
2.458819447397341
 20
3.929681975457487
1001
ACAD
1010
0.0
1020
0.0
1030
0.0
  0
ENDSEC
  0
SECTION
  2
OBJECTS
  0
DICTIONARY
  5
C
330
0
100
AcDbDictionary
281
     1
  3
ACAD_GROUP
350
D
  3
ACAD_IMAGE_VARS
350
DC
  3
ACAD_LAYOUT
350
1A
  3
ACAD_MLINESTYLE
350
17
  3
ACAD_PLOTSETTINGS
350
19
  3
ACAD_PLOTSTYLENAME
350
E
  3
ACAD_SCALELIST
350
B6
  3
AcDbVariableDictionary
350
66
  3
ACDB_RECOMPOSE_DATA
350
DB
  3
APPDATA
350
E1
  3
DWGPROPS
350
1E4E
  0
DICTIONARY
  5
1E01
330
2
100
AcDbDictionary
280
     1
281
     1
  3
ACAD_LAYERSTATES
360
1E02
  0
DICTIONARY
  5
D
102
{ACAD_REACTORS
330
C
102
}
330
C
100
AcDbDictionary
281
     1
  0
RASTERVARIABLES
  5
DC
102
{ACAD_REACTORS
330
C
102
}
330
C
100
AcDbRasterVariables
 90
        0
 70
     1
 71
     1
 72
     5
  0
DICTIONARY
  5
1A
102
{ACAD_REACTORS
330
C
102
}
330
C
100
AcDbDictionary
281
     1
  3
Model
350
22
  3
Sheet1
350
14A7
  0
DICTIONARY
  5
17
102
{ACAD_REACTORS
330
C
102
}
330
C
100
AcDbDictionary
281
     1
  3
Standard
350
18
  0
DICTIONARY
  5
19
102
{ACAD_REACTORS
330
C
102
}
330
C
100
AcDbDictionary
281
     1
  0
ACDBDICTIONARYWDFLT
  5
E
102
{ACAD_REACTORS
330
C
102
}
330
C
100
AcDbDictionary
281
     1
  3
Normal
350
F
100
AcDbDictionaryWithDefault
340
F
  0
DICTIONARY
  5
B6
102
{ACAD_REACTORS
330
C
102
}
330
C
100
AcDbDictionary
281
     1
  3
A0
350
B7
  3
A1
350
B8
  3
A2
350
B9
  3
A3
350
BA
  3
A4
350
BB
  3
A5
350
BC
  3
A6
350
BD
  3
A7
350
BE
  3
A8
350
BF
  3
A9
350
C0
  3
B0
350
C1
  3
B1
350
C2
  3
B2
350
C3
  3
B3
350
C4
  3
B4
350
C5
  3
B5
350
C6
  3
B6
350
C7
  3
B7
350
C8
  3
B8
350
C9
  3
B9
350
CA
  3
C0
350
CB
  3
C1
350
CC
  3
C2
350
CD
  3
C3
350
CE
  3
C4
350
CF
  3
C5
350
D0
  3
C6
350
D1
  3
C7
350
D2
  3
C8
350
D3
  3
C9
350
D4
  3
D0
350
D5
  3
D1
350
D6
  3
D2
350
D7
  0
DICTIONARY
  5
66
102
{ACAD_REACTORS
330
C
102
}
330
C
100
AcDbDictionary
281
     1
  3
CANNOSCALE
350
1E4F
  3
DIMASSOC
350
67
  3
HIDETEXT
350
6B
  0
XRECORD
  5
DB
102
{ACAD_REACTORS
330
C
102
}
330
C
100
AcDbXrecord
280
     1
 90
        1
330
0
  0
DICTIONARY
  5
E1
102
{ACAD_REACTORS
330
C
102
}
330
C
100
AcDbDictionary
281
     1
  0
XRECORD
  5
1E4E
102
{ACAD_REACTORS
330
C
102
}
330
C
100
AcDbXrecord
280
     1
  1
DWGPROPS COOKIE
  2

  3

  4

  6

  7

  8
Autodesk
  9

300
=
301
=
302
=
303
=
304
=
305
=
306
=
307
=
308
=
309
=
 40
0.0
 41
2452643.063384271
 42
2453783.05354022
  1

 90
        0
  0
DICTIONARY
  5
1E02
102
{ACAD_REACTORS
330
1E01
102
}
330
1E01
100
AcDbDictionary
281
     1
  3
ARGON_LAYERP_1
350
1E03
  3
ARGON_LAYERP_10
350
1E46
  3
ARGON_LAYERP_2
350
1E0C
  3
ARGON_LAYERP_3
350
1E0F
  3
ARGON_LAYERP_4
350
1E1B
  3
ARGON_LAYERP_5
350
1E21
  3
ARGON_LAYERP_6
350
1E25
  3
ARGON_LAYERP_7
350
1E29
  3
ARGON_LAYERP_8
350
1E2E
  3
ARGON_LAYERP_9
350
1E3B
  0
LAYOUT
  5
22
102
{ACAD_REACTORS
330
1A
102
}
330
1A
100
AcDbPlotSettings
  1

  2
none_device
  4
ANSI_A_(8.50_x_11.00_Inches)
  6

 40
6.349999904632568
 41
19.04999923706055
 42
6.350006103515625
 43
19.04998779296875
 44
215.8999938964844
 45
279.3999938964844
 46
0.0
 47
0.0
 48
0.0
 49
0.0
140
0.0
141
0.0
142
1.0
143
2.584895464708374
 70
 11952
 72
     0
 73
     1
 74
     0
  7

 75
     0
147
0.3868628397755418
148
0.0
149
0.0
100
AcDbLayout
  1
Model
 70
     1
 71
     0
 10
0.0
 20
0.0
 11
12.0
 21
9.0
 12
0.0
 22
0.0
 32
0.0
 14
0.0
 24
0.0
 34
0.0
 15
0.0
 25
0.0
 35
0.0
146
0.0
 13
0.0
 23
0.0
 33
0.0
 16
1.0
 26
0.0
 36
0.0
 17
0.0
 27
1.0
 37
0.0
 76
     0
330
1F
331
94
  0
LAYOUT
  5
14A7
102
{ACAD_REACTORS
330
1A
102
}
330
1A
100
AcDbPlotSettings
  1

  2
none_device
  4

  6

 40
0.0
 41
0.0
 42
0.0
 43
0.0
 44
0.0
 45
0.0
 46
0.0
 47
0.0
 48
0.0
 49
0.0
140
0.0
141
0.0
142
1.0
143
1.0
 70
   688
 72
     0
 73
     0
 74
     5
  7

 75
    16
147
1.0
148
0.0
149
0.0
100
AcDbLayout
  1
Sheet1
 70
     1
 71
     1
 10
0.0
 20
0.0
 11
0.0
 21
0.0
 12
0.0
 22
0.0
 32
0.0
 14
0.0
 24
0.0
 34
0.0
 15
0.0
 25
0.0
 35
0.0
146
0.0
 13
0.0
 23
0.0
 33
0.0
 16
1.0
 26
0.0
 36
0.0
 17
0.0
 27
1.0
 37
0.0
 76
     0
330
14A6
  0
MLINESTYLE
  5
18
102
{ACAD_REACTORS
330
17
102
}
330
17
100
AcDbMlineStyle
  2
STANDARD
 70
     0
  3

 62
   256
 51
90.0
 52
90.0
 71
     2
 49
0.5
 62
   256
  6
BYLAYER
 49
-0.5
 62
   256
  6
BYLAYER
  0
ACDBPLACEHOLDER
  5
F
102
{ACAD_REACTORS
330
E
102
}
330
E
  0
SCALE
  5
B7
102
{ACAD_REACTORS
330
B6
102
}
330
B6
100
AcDbScale
 70
     0
300
1:1
140
1.0
141
1.0
290
     1
  0
SCALE
  5
B8
102
{ACAD_REACTORS
330
B6
102
}
330
B6
100
AcDbScale
 70
     0
300
1:2
140
1.0
141
2.0
290
     0
  0
SCALE
  5
B9
102
{ACAD_REACTORS
330
B6
102
}
330
B6
100
AcDbScale
 70
     0
300
1:4
140
1.0
141
4.0
290
     0
  0
SCALE
  5
BA
102
{ACAD_REACTORS
330
B6
102
}
330
B6
100
AcDbScale
 70
     0
300
1:5
140
1.0
141
5.0
290
     0
  0
SCALE
  5
BB
102
{ACAD_REACTORS
330
B6
102
}
330
B6
100
AcDbScale
 70
     0
300
1:8
140
1.0
141
8.0
290
     0
  0
SCALE
  5
BC
102
{ACAD_REACTORS
330
B6
102
}
330
B6
100
AcDbScale
 70
     0
300
1:10
140
1.0
141
10.0
290
     0
  0
SCALE
  5
BD
102
{ACAD_REACTORS
330
B6
102
}
330
B6
100
AcDbScale
 70
     0
300
1:16
140
1.0
141
16.0
290
     0
  0
SCALE
  5
BE
102
{ACAD_REACTORS
330
B6
102
}
330
B6
100
AcDbScale
 70
     0
300
1:20
140
1.0
141
20.0
290
     0
  0
SCALE
  5
BF
102
{ACAD_REACTORS
330
B6
102
}
330
B6
100
AcDbScale
 70
     0
300
1:30
140
1.0
141
30.0
290
     0
  0
SCALE
  5
C0
102
{ACAD_REACTORS
330
B6
102
}
330
B6
100
AcDbScale
 70
     0
300
1:40
140
1.0
141
40.0
290
     0
  0
SCALE
  5
C1
102
{ACAD_REACTORS
330
B6
102
}
330
B6
100
AcDbScale
 70
     0
300
1:50
140
1.0
141
50.0
290
     0
  0
SCALE
  5
C2
102
{ACAD_REACTORS
330
B6
102
}
330
B6
100
AcDbScale
 70
     0
300
1:100
140
1.0
141
100.0
290
     0
  0
SCALE
  5
C3
102
{ACAD_REACTORS
330
B6
102
}
330
B6
100
AcDbScale
 70
     0
300
2:1
140
2.0
141
1.0
290
     0
  0
SCALE
  5
C4
102
{ACAD_REACTORS
330
B6
102
}
330
B6
100
AcDbScale
 70
     0
300
4:1
140
4.0
141
1.0
290
     0
  0
SCALE
  5
C5
102
{ACAD_REACTORS
330
B6
102
}
330
B6
100
AcDbScale
 70
     0
300
8:1
140
8.0
141
1.0
290
     0
  0
SCALE
  5
C6
102
{ACAD_REACTORS
330
B6
102
}
330
B6
100
AcDbScale
 70
     0
300
10:1
140
10.0
141
1.0
290
     0
  0
SCALE
  5
C7
102
{ACAD_REACTORS
330
B6
102
}
330
B6
100
AcDbScale
 70
     0
300
100:1
140
100.0
141
1.0
290
     0
  0
SCALE
  5
C8
102
{ACAD_REACTORS
330
B6
102
}
330
B6
100
AcDbScale
 70
     0
300
1/128" = 1'-0"
140
0.0078125
141
12.0
290
     0
  0
SCALE
  5
C9
102
{ACAD_REACTORS
330
B6
102
}
330
B6
100
AcDbScale
 70
     0
300
1/64" = 1'-0"
140
0.015625
141
12.0
290
     0
  0
SCALE
  5
CA
102
{ACAD_REACTORS
330
B6
102
}
330
B6
100
AcDbScale
 70
     0
300
1/32" = 1'-0"
140
0.03125
141
12.0
290
     0
  0
SCALE
  5
CB
102
{ACAD_REACTORS
330
B6
102
}
330
B6
100
AcDbScale
 70
     0
300
1/16" = 1'-0"
140
0.0625
141
12.0
290
     0
  0
SCALE
  5
CC
102
{ACAD_REACTORS
330
B6
102
}
330
B6
100
AcDbScale
 70
     0
300
3/32" = 1'-0"
140
0.09375
141
12.0
290
     0
  0
SCALE
  5
CD
102
{ACAD_REACTORS
330
B6
102
}
330
B6
100
AcDbScale
 70
     0
300
1/8" = 1'-0"
140
0.125
141
12.0
290
     0
  0
SCALE
  5
CE
102
{ACAD_REACTORS
330
B6
102
}
330
B6
100
AcDbScale
 70
     0
300
3/16" = 1'-0"
140
0.1875
141
12.0
290
     0
  0
SCALE
  5
CF
102
{ACAD_REACTORS
330
B6
102
}
330
B6
100
AcDbScale
 70
     0
300
1/4" = 1'-0"
140
0.25
141
12.0
290
     0
  0
SCALE
  5
D0
102
{ACAD_REACTORS
330
B6
102
}
330
B6
100
AcDbScale
 70
     0
300
3/8" = 1'-0"
140
0.375
141
12.0
290
     0
  0
SCALE
  5
D1
102
{ACAD_REACTORS
330
B6
102
}
330
B6
100
AcDbScale
 70
     0
300
1/2" = 1'-0"
140
0.5
141
12.0
290
     0
  0
SCALE
  5
D2
102
{ACAD_REACTORS
330
B6
102
}
330
B6
100
AcDbScale
 70
     0
300
3/4" = 1'-0"
140
0.75
141
12.0
290
     0
  0
SCALE
  5
D3
102
{ACAD_REACTORS
330
B6
102
}
330
B6
100
AcDbScale
 70
     0
300
1" = 1'-0"
140
1.0
141
12.0
290
     0
  0
SCALE
  5
D4
102
{ACAD_REACTORS
330
B6
102
}
330
B6
100
AcDbScale
 70
     0
300
1-1/2" = 1'-0"
140
1.5
141
12.0
290
     0
  0
SCALE
  5
D5
102
{ACAD_REACTORS
330
B6
102
}
330
B6
100
AcDbScale
 70
     0
300
3" = 1'-0"
140
3.0
141
12.0
290
     0
  0
SCALE
  5
D6
102
{ACAD_REACTORS
330
B6
102
}
330
B6
100
AcDbScale
 70
     0
300
6" = 1'-0"
140
6.0
141
12.0
290
     0
  0
SCALE
  5
D7
102
{ACAD_REACTORS
330
B6
102
}
330
B6
100
AcDbScale
 70
     0
300
1'-0" = 1'-0"
140
12.0
141
12.0
290
     0
  0
DICTIONARYVAR
  5
1E4F
102
{ACAD_REACTORS
330
66
102
}
330
66
100
DictionaryVariables
280
     0
  1
1:1
  0
DICTIONARYVAR
  5
67
102
{ACAD_REACTORS
330
66
102
}
330
66
100
DictionaryVariables
280
     0
  1
2
  0
DICTIONARYVAR
  5
6B
102
{ACAD_REACTORS
330
66
102
}
330
66
100
DictionaryVariables
280
     0
  1
1
  0
XRECORD
  5
1E03
102
{ACAD_REACTORS
330
1E02
102
}
330
1E02
100
AcDbXrecord
280
     1
 91
     1023
301

290
     0
302
0
330
10
 90
        8
 62
     7
370
    -3
331
16
  1
Color_7
  0
XRECORD
  5
1E46
102
{ACAD_REACTORS
330
1E02
102
}
330
1E02
100
AcDbXrecord
280
     1
 91
     1023
301

290
     0
302
BLACK_250
330
10
 90
        8
 62
     7
370
    -3
331
16
  1
Color_7
330
1E07
 90
        8
 62
   250
370
    -3
331
16
  1
Color_250
330
1E08
 90
        8
 62
     9
370
    -3
331
16
  1
Color_9
330
1E09
 90
        8
 62
     7
370
    -3
331
16
  1
Color_7
330
1E0A
 90
        8
 62
    42
370
    -3
331
16
  1
Color_42
330
1E36
 90
        8
 62
     1
370
    -3
331
16
  1
Color_1
  0
XRECORD
  5
1E0C
102
{ACAD_REACTORS
330
1E02
102
}
330
1E02
100
AcDbXrecord
280
     1
 91
     1023
301

290
     0
302
0
330
10
 90
        8
 62
     7
370
    -3
331
16
  1
Color_7
330
1E07
 90
        8
 62
   250
370
    -3
331
16
  1
Color_250
330
1E08
 90
        8
 62
     9
370
    -3
331
16
  1
Color_9
330
1E09
 90
        8
 62
     7
370
    -3
331
16
  1
Color_7
330
1E0A
 90
        8
 62
    42
370
    -3
331
16
  1
Color_42
  0
XRECORD
  5
1E0F
102
{ACAD_REACTORS
330
1E02
102
}
330
1E02
100
AcDbXrecord
280
     1
 91
     1023
301

290
     0
302
ORANGE_42
330
10
 90
        8
 62
     7
370
    -3
331
16
  1
Color_7
330
1E07
 90
        8
 62
   250
370
    -3
331
16
  1
Color_250
330
1E08
 90
        8
 62
     9
370
    -3
331
16
  1
Color_9
330
1E09
 90
        8
 62
     7
370
    -3
331
16
  1
Color_7
330
1E0A
 90
        8
 62
    42
370
    -3
331
16
  1
Color_42
  0
XRECORD
  5
1E1B
102
{ACAD_REACTORS
330
1E02
102
}
330
1E02
100
AcDbXrecord
280
     1
 91
     1023
301

290
     0
302
GRAY
330
10
 90
        8
 62
     7
370
    -3
331
16
  1
Color_7
330
1E07
 90
        8
 62
   250
370
    -3
331
16
  1
Color_250
330
1E08
 90
        8
 62
     9
370
    -3
331
16
  1
Color_9
330
1E09
 90
        8
 62
     7
370
    -3
331
16
  1
Color_7
330
1E0A
 90
        8
 62
    42
370
    -3
331
16
  1
Color_42
  0
XRECORD
  5
1E21
102
{ACAD_REACTORS
330
1E02
102
}
330
1E02
100
AcDbXrecord
280
     1
 91
     1023
301

290
     0
302
BLACK_250
330
10
 90
        8
 62
     7
370
    -3
331
16
  1
Color_7
330
1E07
 90
        8
 62
   250
370
    -3
331
16
  1
Color_250
330
1E08
 90
        8
 62
     9
370
    -3
331
16
  1
Color_9
330
1E09
 90
        8
 62
     7
370
    -3
331
16
  1
Color_7
330
1E0A
 90
        8
 62
    42
370
    -3
331
16
  1
Color_42
  0
XRECORD
  5
1E25
102
{ACAD_REACTORS
330
1E02
102
}
330
1E02
100
AcDbXrecord
280
     1
 91
     1023
301

290
     0
302
WHITE
330
10
 90
        8
 62
     7
370
    -3
331
16
  1
Color_7
330
1E07
 90
        8
 62
   250
370
    -3
331
16
  1
Color_250
330
1E08
 90
        8
 62
     9
370
    -3
331
16
  1
Color_9
330
1E09
 90
        8
 62
     7
370
    -3
331
16
  1
Color_7
330
1E0A
 90
        8
 62
    42
370
    -3
331
16
  1
Color_42
  0
XRECORD
  5
1E29
102
{ACAD_REACTORS
330
1E02
102
}
330
1E02
100
AcDbXrecord
280
     1
 91
     1023
301

290
     0
302
BLACK_250
330
10
 90
        8
 62
     7
370
    -3
331
16
  1
Color_7
330
1E07
 90
        8
 62
   250
370
    -3
331
16
  1
Color_250
330
1E08
 90
        8
 62
     9
370
    -3
331
16
  1
Color_9
330
1E09
 90
        8
 62
     7
370
    -3
331
16
  1
Color_7
330
1E0A
 90
        8
 62
    42
370
    -3
331
16
  1
Color_42
  0
XRECORD
  5
1E2E
102
{ACAD_REACTORS
330
1E02
102
}
330
1E02
100
AcDbXrecord
280
     1
 91
     1023
301

290
     0
302
BLACK_250
330
10
 90
        8
 62
     7
370
    -3
331
16
  1
Color_7
330
1E07
 90
        8
 62
   250
370
    -3
331
16
  1
Color_250
330
1E08
 90
        8
 62
     9
370
    -3
331
16
  1
Color_9
330
1E09
 90
        8
 62
     7
370
    -3
331
16
  1
Color_7
330
1E0A
 90
        8
 62
    42
370
    -3
331
16
  1
Color_42
  0
XRECORD
  5
1E3B
102
{ACAD_REACTORS
330
1E02
102
}
330
1E02
100
AcDbXrecord
280
     1
 91
     1023
301

290
     0
302
BLACK_250
330
10
 90
        8
 62
     7
370
    -3
331
16
  1
Color_7
330
1E07
 90
        8
 62
   250
370
    -3
331
16
  1
Color_250
330
1E08
 90
        8
 62
     9
370
    -3
331
16
  1
Color_9
330
1E09
 90
        8
 62
     7
370
    -3
331
16
  1
Color_7
330
1E0A
 90
        8
 62
    42
370
    -3
331
16
  1
Color_42
330
1E36
 90
        8
 62
   250
370
    -3
331
16
  1
Color_250
  0
ENDSEC
  0
EOF
