/* XPM */
static char *arccontinue[] = {
/* columns rows colors chars-per-pixel */
"128 128 54 1 ",
"  c #000000",
". c #0D0D0D",
"X c #151414",
"o c #1C1C1C",
"O c #210000",
"+ c #2B0000",
"@ c #350000",
"# c #3B0000",
"$ c #252525",
"% c #2B2A2A",
"& c #333333",
"* c #3D3D3D",
"= c #440000",
"- c #4C0000",
"; c #530000",
": c #5C0000",
"> c #561717",
", c #640000",
"< c #6C0000",
"1 c #730000",
"2 c #7C0000",
"3 c #444444",
"4 c #4C4C4C",
"5 c #525252",
"6 c #5A5A5A",
"7 c #646464",
"8 c #6B6B6B",
"9 c #747474",
"0 c #7E7E7E",
"q c #800101",
"w c #850B0B",
"e c #891313",
"r c #8E1D1D",
"t c #912222",
"y c #962C2C",
"u c #993333",
"i c #9E3D3D",
"p c #A24545",
"a c #A64C4C",
"s c #A95353",
"d c #AE5C5C",
"f c #B16363",
"g c #B56A6A",
"h c #B97373",
"j c #BF7E7E",
"k c #C28484",
"l c #C68D8D",
"z c #CA9595",
"x c #CD9B9B",
"c c #D2A5A5",
"v c #D4A9A9",
"b c #D9B2B2",
"n c #DFBEBE",
"m c None",
/* pixels */
"mmmmmmmmmmmmmmmmmmmmmmmmmmmmmmmmmmmmmmmmmmmmmmmmmmmmmmmmmmmmmmmmmmmmmmmmmmmmmmmmmmmmmmmmmmmmmmmmmmmmmmmmmmmmmmmmmmmmmmmmmmmmmmmm",
"mmmmmmmmmmmmmmmmmmmmmmmmmmmmmmmmmmmmmmmmmmmmmmmmmmmmmmmmmmmmmmmmmmmmmmmmmmmmmmmmmmmmmmmmmmmmmmmmmmmmmmmmmmmmmmmmmmmmmmmmmmmmmmmm",
"mmmmmmmmmmmmmmmmmmmmmmmmmmmmmmmmmmmmmmmmmmmmmmmmmmmmmmmmmmmmmmmmmmmmmmmmmmmmmmmmmmmmmmmmmmmmmmmmmmmmmmmmmmmmmmmmmmmmmmmmmmmmmmmm",
"mmmmmmmmmmmmmmmmmmmmmmmmmmmmmmmmmmmmmmmmmmmmmmmmmmmmmmmmmmmmmmmmmmmmmmmmmmmmmmmmmmmmmmmmmmmmmmmmmmmmmmmmmmmmmmmmmmmmmmmmmmmmmmmm",
"mmmmmmmmmmmmmmmmmmmmmmmmmmmmmmmmmmmmmmmmmmmmmmmmmmmmmmmmmmmmmmmmmmmmmmmmmmmmmmmmmmmmmmmmmmmmmmmmmmmmmmmmmmmmmmmmmmmmmmmmmmmmmmmm",
"mmmmmmmmmmmmmmmmmmmmmmmmmmmmmmmmmmmmmmmmmmmmmmmmmmmmmmmmmmmmmmmmmmmmmmmmmmmmmmmmmmmmmmmmmmmmmmmmmmmmmmmmmmmmmmmmmmmmmmmmmmmmmmmm",
"mmmmmmmmmmmmmmmmmmmmmmmmmmmmmmmmmmmmmmmmmmmmmmmmmmmmmmmmmmmmmmmmmmmmmmmmmmmmmmmmmmmmmmmmmmmmmmmmmmmmmmmmmmmmmmmmmmmmmmmmmmmmmmmm",
"mmmmmmmmmmmmmmmmmmmmmmmmmmmmmmmmmmmmmmmmmmmmmmmmmmmmmmmmmmmmmmmmmmmmmmmmmmmmmmmmmmmmmmmmmmmmmmmmmmmmmmmmmmmmmmmmmmmmmmmmmmmmmmmm",
"mmmmmmmmmmmmmmmmmmmmmmmmmmmmmmmmmmmmmmmmmmmmmmmmmmmmmmmmmmmmmmmmmmmmmmmmmmmmmmmmmmmmmmmmmmmmmmmmmmmmmmmmmmmmmmmmmmmmmmmmmmmmmmmm",
"mmmmmmmmmmmmmmmmmmmmmmmmmmmmmmmmmmmmmmmmmmmmmmmmmmmmmmmmmmmmmmmmmmmmmmmmmmmmmmmmmmmmmmmmmmmmmmmmmmmmmmmmmmm1mmmmmmmmmmmmmmmmmmmm",
"mmmmmmmmmmmmmmmmmmmmmmmmmmmmmmmmmmmmmmmmmmmmmmmmmmmmmmmmmmmmmmmmmmmmmmmmmmmmmmmmmmmmmmmmmmmmmmmmmmmmmmm21112111<mmmmmmmmmmmmmmmm",
"mmmmmmmmmmmmmmmmmmmmmmmmmmmmmmmmmmmmmmmmmmmmmmmmmmmmmmmmmmmmmmmmmmmmmmmmmmmmmmmmmmmmmmmmmmmmmmmmmmmmm1222222211<<,mmmmmmmmmmmmmm",
"mmmmmmmmmmmmmmmmmmmmmmmmmmmmmmmmmmmmmmmmmmmmmmmmmmmmmmmmmmmmmmmmmmmmmmmmmmmmmmmmmmmmmmmmmmmmmmmmmmmm2222qq2q22211<,mmmmmmmmmmmmm",
"mmmmmmmmmmmmmmmmmmmmmmmmmmmmmmmmmmmmmmmmmmmmmmmmmmmmmmmmmmmmmmmmmmmmmmmmmmmmmmmmmmmmmmmmmmmmmmmmmmm212qalzkdyq221<<:mmmmmmmmmmmm",
"mmmmmmmmmmmmmmmmmmmmmmmmmmmmmmmmmmmmmmmmmmmmmmmmmmmmmmmmmmmmmmmmmmmmmmmmmmmmmmmmmmmmmmmmmmmmmmmmmmm12qknbkdpurq211<,mmmmmmmmmmmm",
"mmmmmmmmmmmmmmmmmmmmmmmmmmmmmmmmmmmmmmmmmmmmmmmmmmmmmmmmmmmmmmmmmmmmmmmmmmmmmmmmmmmmmmmmmmmmmmmmmm222dncfyrwwwqq21<,:mmmmmmmmmmm",
"mmmmmmmmmmmmmmmmmmmmmmmmmmmmmmmmmmmmmmmmmmmmmmmmmmmmmmmmmmmmmmmmmmmmmmmmmmmmmmmmmm               O<2qzbdtwqqqqqq22<,,mmmmmmmmmmm",
"mmmmmmmmmmmmmmmmmmmmmmmmmmmmmmmmmmmmmmmmmmmmmmmmmmmmmmmmmmmmmmmmmmmmmmmmmmm                      @22qxjywqqqqqqq221<:-mmmmmmmmmm",
"mmmmmmmmmmmmmmmmmmmmmmmmmmmmmmmmmmmmmmmmmmmmmmmmmmmmmmmmmmmmmmmmmmmmmmmm       .$*4444*&&$ooXXo$%>22wkdeqqqqqqqq221,:-mmmmmmmmmm",
"mmmmmmmmmmmmmmmmmmmmmmmmmmmmmmmmmmmmmmmmmmmmmmmmmmmmmmmmmmmmmmmmmmmm      .*663o                 =122giwqqqq2qqq22<<,-mmmmmmmmmm",
"mmmmmmmmmmmmmmmmmmmmmmmmmmmmmmmmmmmmmmmmmmmmmmmmmmmmmmmmmmmmmmmmm      *66o                      =222iuqqqqqqqqq221,:-mmmmmmmmmm",
"mmmmmmmmmmmmmmmmmmmmmmmmmmmmmmmmmmmmmmmmmmmmmmmmmmmmmmmmmmmmmm     .573                          ;112qtqqqqqqqq221<,:=mmmmmmmmmm",
"mmmmmmmmmmmmmmmmmmmmmmmmmmmmmmmmmmmmmmmmmmmmmmmmmmmmmmmmmmmm     48*             mmmmmmmmmmmmmmmmm1122qqqqqqqq2221<:;mmmmmmmmmmm",
"mmmmmmmmmmmmmmmmmmmmmmmmmmmmmmmmmmmmmmmmmmmmmmmmmmmmmmmmmm    %86          mmmmmmmmmmmmmmmmmmmmmmm,<122qq2qqqq222<,:;mmmmmmmmmmm",
"mmmmmmmmmmmmmmmmmmmmmmmmmmmmmmmmmmmmmmmmmmmmmmmmmmmmmmmm    *93         mmmmmmmmmmmmmmmmmmmmmmmmmm;<11222222q2221,,;#mmmmmmmmmmm",
"mmmmmmmmmmmmmmmmmmmmmmmmmmmmmmmmmmmmmmmmmmmmmmmmmmmmmm    30$        mmmmmmmmmmmmmmmmmmmmmmmmmmmmmm,<<112222121<,::-mmmmmmmmmmmm",
"mmmmmmmmmmmmmmmmmmmmmmmmmmmmmmmmmmmmmmmmmmmmmmmmmmmmm   30$       mmmmmmmmmmmmmmmmmmmmmmmmmmmmmmmmmm,<<<<11111<,::-mmmmmmmmmmmmm",
"mmmmmmmmmmmmmmmmmmmmmmmmmmmmmmmmmmmmmmmmmmmmmmmmmmm   %0&       mmmmmmmmmmmmmmmmmmmmmmmmmmmmmmmmmmmmm:<,,<<,,,::;-mmmmmmmmmmmmmm",
"mmmmmmmmmmmmmmmmmmmmmmmmmmmmmmmmmmmmmmmmmmmmmmmmm    96       mmmmmmmmmmmmmmmmmmmmmmmmmmmmmmmmmmmmmmmm;:,,:,:::;#mmmmmmmmmmmmmmm",
"mmmmmmmmmmmmmmmmmmmmmmmmmmmmmmmmmmmmmmmmmmmmmmmm   60       mmmmmmmmmmmmmmmmmmmmmmmmmmmmmmmmmmmmmmmmmmmmm--;-=@mmmmmmmmmmmmmmmmm",
"mmmmmmmmmmmmmmmmmmmmmmmmmmmmmmmmmmmmmmmmmmmmmmm  o0&      mmmmmmmmmmmmmmmmmmmmmmmmmmmmmmmmmmmmmmmmmmmmmmmmmmmmmmmmmmmmmmmmmmmmmm",
"mmmmmmmmmmmmmmmmmmmmmmmmmmmmmmmmmmmmmmmmmmmmm   60      mmmmmmmmmmmmmmmmmmmmmmmmmmmmmmmmmmmmmmmmmmmmmmmmmmmmmmmmmmmmmmmmmmmmmmmm",
"mmmmmmmmmmmmmmmmmmmmmmmmmmmmmmmmmmmmmmmmmmmm   0*      mmmmmmmmmmmmmmmmmmmmmmmmmmmmmmmmmmmmmmmmmmmmmmmmmmmmmmmmmmmmmmmmmmmmmmmmm",
"mmmmmmmmmmmmmmmmmmmmmmmmmmmmmmmmmmmmmmmmmmm  &0      mmmmmmmmmmmmmmmmmmmmmmmmmmmmmmmmmmmmmmmmmmmmmmmmmmmmmmmmmmmmmmmmmmmmmmmmmmm",
"mmmmmmmmmmmmmmmmmmmmmmmmmmmmmmmmmmmmmmmmmm  69     mmmmmmmmmmmmmmmmmmmmmmmmmmmmmmmmmmmmmmmmmmmmmmmmmmmmmmmmmmmmmmmmmmmmmmmmmmmmm",
"mmmmmmmmmmmmmmmmmmmmmmmmmmmmmmmmmmmmmmmm   95     mmmmmmmmmmmmmmmmmmmmmmmmmmmmmmmmmmmmmmmmmmmmmmmmmmmmmmmmmmmmmmmmmmmmmmmmmmmmmm",
"mmmmmmmmmmmmmmmmmmmmmmmmmmmmmmmmmmmmmmm   0o     mmmmmmmmmmmmmmmmmmmmmmmmmmmmmmmmmmmmmmmmmmmmmmmmmmmmmmmmmmmmmmmmmmmmmmmmmmmmmmm",
"mmmmmmmmmmmmmmmmmmmmmmmmmmmmmmmmmmmmmm  X0     mmmmmmmmmmmmmmmmmmmmmmmmmmmmmmmmmmmmmmmmmmmmmmmmmmmmmmmmmmmmmmmmmmmmmmmmmmmmmmmmm",
"mmmmmmmmmmmmmmmmmmmmmmmmmmmmmmmmmmmmm  o0     mmmmmmmmmmmmmmmmmmmmmmmmmmmmmmmmmmmmmmmmmmmmmmmmmmmmmmmmmmmmmmmmmmmmmmmmmmmmmmmmmm",
"mmmmmmmmmmmmmmmmmmmmmmmmmmmmmmmmmmmm  o0     mmmmmmmmmmmmmmmmmmmmmmmmmmmmmmmmmmmmmmmmmmmmmmmmmmmmmmmmmmmmmmmmmmmmmmmmmmmmmmmmmmm",
"mmmmmmmmmmmmmmmmmmmmmmmmmmmmmmmmmmm  X0    mmmmmmmmmmmmmmmmmmmmmmmmmmmmmmmmmmmmmmmmmmmmmmmmmmmmmmmmmmmmmmmmmmmmmmmmmmmmmmmmmmmmm",
"mmmmmmmmmmmmmmmmmmmmmmmmmmmmmmmmmmm  0    mmmmmmmmmmmmmmmmmmmmmmmmmmmmmmmmmmmmmmmmmmmmmmmmmmmmmmmmmmmmmmmmmmmmmmmmmmmmmmmmmmmmmm",
"mmmmmmmmmmmmmmmmmmmmmmmmmmmmmmmmmm  0    mmmmmmmmmmmmmmmmmmmmmmmmmmmmmmmmmmmmmmmmmmmmmmmmmmmmmmmmmmmmmmmmmmmmmmmmmmmmmmmmmmmmmmm",
"mmmmmmmmmmmmmmmmmmmmmmmmmmmmmmmmm  9o   mmmmmmmmmmmmmmmmmmmmmmmmmmmmmmmmmmmmmmmmmmmmmmmmmmmmmmmmmmmmmmmmmmmmmmmmmmmmmmmmmmmmmmmm",
"mmmmmmmmmmmmmmmmmmmmmmmmmmmmmmmm  64    mmmmmmmmmmmmmmmmmmmmmmmmmmmmmmmmmmmmmmmmmmmmmmmmmmmmmmmmmmmmmmmmmmmmmmmmmmmmmmmmmmmmmmmm",
"mmmmmmmmmmmmmmmmmmmmmmmmmmmmmmm  &9    mmmmmmmmmmmmmmmmmmmmmmmmmmmmmmmmmmmmmmmmmmmmmmmmmmmmmmmmmmmmmmmmmmmmmmmmmmmmmmmmmmmmmmmmm",
"mmmmmmmmmmmmmmmmmmmmmmmmmmmmmmm  0    mmmmmmmmmmmmmmmmmmmmmmmmmmmmmmmmmmmmmmmmmmmmmmmmmmmmmmmmmmmmmmmmmmmmmmmmmmmmmmmmmmmmmmmmmm",
"mmmmmmmmmmmmmmmmmmmmmmmmmmmmmm  0    mmmmmmmmmmmmmmmmmmmmmmmmmmmmmmmmmmmmmmmmmmmmmmmmmmmmmmmmmmmmmmmmmmmmmmmmmmmmmmmmmmmmmmmmmmm",
"mmmmmmmmmmmmmmmmmmmmmmmmmmmmm  6&    mmmmmmmmmmmmmmmmmmmmmmmmmmmmmmmmmmmmmmmmmmmmmmmmmmmmmmmmmmmmmmmmmmmmmmmmmmmmmmmmmmmmmmmmmmm",
"mmmmmmmmmmmmmmmmmmmmmmmmmmmm  $9    mmmmmmmmmmmmmmmmmmmmmmmmmmmmmmmmmmmmmmmmmmmmmmmmmmmmmmmmmmmmmmmmmmmmmmmmmmmmmmmmmmmmmmmmmmmm",
"mmmmmmmmmmmmmmmmmmmmmmmmmmmm  0    mmmmmmmmmmmmmmmmmmmmmmmmmmmmmmmmmmmmmmmmmmmmmmmmmmmmmmmmmmmmmmmmmmmmmmmmmmmmmmmmmmmmmmmmmmmmm",
"mmmmmmmmmmmmmmmmmmmmmmmmmmm  7X   mmmmmmmmmmmmmmmmmmmmmmmmmmmmmmmmmmmmmmmmmmmmmmmmmmmmmmmmmmmmmmmmmmmmmmmmmmmmmmmmmmmmmmmmmmmmmm",
"mmmmmmmmmmmmmmmmmmmmmmmmmm  $8    mmmmmmmmmmmmmmmmmmmmmmmmmmmmmmmmmmmmmmmmmmmmmmmmmmmmmmmmmmmmmmmmmmmmmmmmmmmmmmmmmmmmmmmmmmmmmm",
"mmmmmmmmmmmmmmmmmmmmmmmmmm  0    mmmmmmmmmmmmmmmmmmmmmmmmmmmmmmmmmmmmmmmmmmmmmmmmmmmmmmmmmmmmmq22mmmmmmmmmmmmmmmmmmmmmmmmmmmmmmm",
"mmmmmmmmmmmmmmmmmmmmmmmmm  33   mmmmmmmmmmmmmmmmmmmmmmmmmmmmmmmmmmmmmmmmmmmmmmmmmmmmmmmmmmmm2rhgq1mmmmmmmmmmmmmmmmmmmmmmmmmmmmmm",
"mmmmmmmmmmmmmmmmmmmmmmmmm  0    mmmmmmmmmmmmmmmmmmmmmmmmmmmmmmmmmmmmmmmmmmmmmmmmmmmmmmmmmmmm222jb221mmmmmmmmmmmmmmmmmmmmmmmmmmmm",
"mmmmmmmmmmmmmmmmmmmmmmmm  5$   mmmmmmmmmmmmmmmmmmmmmmmmmmmmmmmmmmmmmmmmmmmmmmmmmmmmmmmmmmmmmmm122ue21<mmmmmmmmmmmmmmmmmmmmmmmmmm",
"mmmmmmmmmmmmmmmmmmmmmmmm  0    mmmmmmmmmmmmmmmmmmmmmmmmmmmmmmmmmmmmmmmmmmmmmmmmmmmmmmmmmmmmmmmmm<22t22<mmmmmmmmmmmmmmmmmmmmmmmmm",
"mmmmmmmmmmmmmmmmmmmmmmm  5X   mmmmmmmmmmmmmmmmmmmmmmmmmmmmmmmmmmmmmmmmmmmmmmmmmmmmmmmmmmmmmmmmmmm,12q221mmmmmmmmmmmmmmmmmmmmmmmm",
"mmmmmmmmmmmmmmmmmmmmmmm  9    mmmmmmmmmmmmmmmmmmmmmmmmmmmmmmmmmmmmmmmmmmmmmmmmmmmmmmmmmmmmmmmmmmmmm<12w21,mmmmmmmmmmmmmmmmmmmmmm",
"mmmmmmmmmmmmmmmmmmmmmm  3X   mmmmmmmmmmmmmmmmmmmmmmmmmmmmmmmmmmmmmmmmmmmmmmmmmmmmmmmmmmmmmmmmmmmmmmm,12w21<mmmmmmmmmmmmmmmmmmmmm",
"mmmmmmmmmmmmmmmmmmmmmm  9    mmmmmmmmmmmmmmmmmmmmmmmmmmmmmmmmmmmmmmmmmmmmmmmmmmmmmmmmmmmmmmmmmmmmmmmm:<2q21<mmmmmmmmmmmmmmmmmmmm",
"mmmmmmmmmmmmmmmmmmmmm  &$   mmmmmmmmmmmmmmmmmmmmmmmmmmmmmmmmmmmmmmmmmmmmmmmmmmmmmmmmmmmmmmmmmmmmmmmmmmm<2221<mmmmmmmmmmmmmmmmmmm",
"mmmmmmmmmmmmmmmmmmmmm  8    mmmmmmmmmmmmmmmmmmmmmmmmmmmmmmmmmmmmmmmmmmmmmmmmmmmmmmmmmmmmmmmmmmmmmmmmmmmm<2q22,mmmmmmmmmmmmmmmmmm",
"mmmmmmmmmmmmmmmmmmmmm .4   mmmmmmmmmmmmmmmmmmmmmmmmmmmmmmmmmmmmmmmmmmmmmmmmmmmmmmmmmmmmmmmmmmmmmmmmmmmmmm<1221,mmmmmmmmmmmmmmmmm",
"mmmmmmmmmmmmmmmmmmmm  6    mmmmmmmmmmmmmmmmmmmmmmmmmmmmmmmmmmmmmmmmmmmmmmmmmmmmmmmmmmmmmmmmmmmmmmmmmmmmmmm<2q21:mmmmmmmmmmmmmmmm",
"mmmmmmmmmmmmmmmmmmmm  7   mmmmmmmmmmmmmmmmmmmmmmmmmmmmmmmmmmmmmmmmmmmmmmmmmmmmmmmmmmmmmmmmmmmmmmmmmmmmmmmmm<2221mmmmmmmmmmmmmmmm",
"mmmmmmmmmmmmmmmmmmmm $$   mmmmmmmmmmmmmmmmmmmmmmmmmmmmmmmmmmmmmmmmmmmmmmmmmmmmmmmmmmmmmmmmmmmmmmmmmmmmmmmmmm1222<mmmmmmmmmmmmmmm",
"mmmmmmmmmmmmmmmmmmm  7   mmmmmmmmmmmmmmmmmmmmmmmmmmmmmmmmmmmmmmmmmmmmmmmmmmmmmmmmmmmmmmmmmmmmmmmmmmmmmmmmmmmm1221,mmmmmmmmmmmmmm",
"mmmmmmmmmmmmmmmmmmm  7   mmmmmmmmmmmmmmmmmmmmmmmmmmmmmmmmmmmmmmmmmmmmmmmmmmmmmmmmmmmmmmmmmmmmmmmmmmmmmmmmmmmm,2221;mmmmmmmmmmmmm",
"mmmmmmmmmmmmmmmmmmm o$   mmmmmmmmmmmmmmmmmmmmmmmmmmmmmmmmmmmmmmmmmmmmmmmmmmmmmmmmmmmmmmmmmmmmmmmmmmmmmmmmmmmmm<2q2<mmmmmmmmmmmmm",
"mmmmmmmmmmmmmmmmmm  5   mmmmmmmmmmmmmmmmmmmmmmmmmmmmmmmmmmmmmmmmmmmmmmmmmmmmmmmmmmmmmmmmmmmmmmmmmmmmmmmmmmmmmmm12q1:mmmmmmmmmmmm",
"mmmmmmmmmmmmmmmmmm  7   mmmmmmmmmmmmmmnvmmmmmmmmmmmmmmmmmmmmmmmmmmmmmmmmmmmmmmmmmmmmmmmmmmmmmmmmmmmmmmmmmmmmmmmm2q2<mmmmmmmmmmmm",
"mmmmmmmmmmmmmmmmmm  4   mmmmmmmmmmmmmmmvkmmmmmmmmmmmmmmmmmmmmmmmmmmmmmmmmmmmmmmmmmmmmmmmmmmmmmmmmmmmmmmmmmmmmmmm<221:mmmmmmmmmmm",
"mmmmmmmmmmmmmmmmmm $.   mmmmmmmmmmmmmmmmcj2mmmmmmmmmmmmmmmmmmmmmmmmmmmmmmmmmmmmmmmmmmmmmmmmmmmmmmmmmmmmmmmmmmmmmm2w2<mmmmmmmmmmm",
"mmmmmmmmmmmmmmmmm  4   mmmmmmmmmmmmmmmmm2ch21mmmmmmmmmmmmmmmmmmmmmmmmmmmmmmmmmmmmmmmmmmmmmmmmmmmmmmmmmmmmmmmmmmmm1q21-mmmmmmmmmm",
"mmmmmmmmmmmmmmmmm  6   mmmmmmmmmmmmmmmmmm2vf2<mmmmmmmmmmmmmmmmmmmmmmmmmmmmmmmmmmmmmmmmmmmmmmmmmmmmmmmmmmmmmmmmmmmm2e1,mmmmmmmmmm",
"mmmmmmmmmmmmmmmmm  6   mmmmmmmmmmmmmmmmmm12vd21<mmmmmmmmmmmmmmmmmmmmmmmmmmmmmmmmmmmmmmmmmmmmmmmmmmmmmmmmmmmmmmmmmm2p2<mmmmmmmmmm",
"mmmmmmmmmmmmmmmmm  %   mmmmmmmmmmmmmmmmmmm12vf211<mmmmmmmmmmmmmmmmmmmmmmmmmmmmmmmmmmmmmmmmmmmmmmmmmmmmmmmmmmmmmmmm1t2<mmmmmmmmmm",
"mmmmmmmmmmmmmmmmm X    mmmmmmmmmmmmmmmmmmmm12vd21<<,mmmmmmmmmmmmmmmmmmmmmmmmmmmmmmmmmmmmmmmmmmmmmmmmmmmmmmmmmmmmmm1qq1;mmmmmmmmm",
"mmmmmmmmmmmmmmmmm &   mmmmmmmmmmmmmmmmmmmmm<12cs2111<,mmmmmmmmmmmmmmmmmmmmmmmmmmmmmmmmmmmmmmmmmmmmmmmmmmmmmmmmmmmmmqe1:mmmmmmmmm",
"mmmmmmmmmmmmmmmm  4   mmmmmmmmmmmmmmmmmmmmmm<22laq2111<,mmmmmmmmmmmmmmmmmmmmmmmmmmmmmmmmmmmmmmmmmmmmmmmmmmmmmmmmmmm2u2,mmmmmmmmm",
"mmmmmmmmmmmmmmmm  6   mmmmmmmmmmmmmmmmmmmmmm,122hi221111<<mmmmmmmmmmmmmmmmmmmmmmmmmmmmmmmmmmmmmmmmmmmmmmmmmmmmmmmmmqa1,mmmmmmmmm",
"mmmmmmmmmmmmmmmm  5   mmmmmmmmmmmmmmmmmmmmmmm<122du2222111<<mmmmmmmmmmmmmmmmmmmmmmmmmmmmmmmmmmmmmmmmmmmmmmmmmmmmmmm2s1,mmmmmmmmm",
"mmmmmmmmmmmmmmmm  4   mmmmmmmmmmmmmmmmmmmmmmm<1122itqq222111<<<mmmmmmmmmmmmmmmmmmmmmmmmmmmmmmmmmmmmmmmmmmmmmmmmmmmm2s2,mmmmmmmmm",
"mmmmmmmmmmmmmmmm  3   mmmmmmmmmmmmmmmmmmmmmmmm<122wtreq222221111<mmmmmmmmmmmmmmmmmmmmmmmmmmmmmmmmmmmmmmmmmmmmmmmmmmqp1,mmmmmmmmm",
"mmmmmmmmmmmmmmmm  &   mmmmmmmmmmmmmmmmmmmmmmmm<<122eeweew2q22211111<mmmmmmmmmmmmmmmmmmmmmmmmmmmmmmmmmmmmmmmmmmmmmmmqr1:mmmmmmmmm",
"mmmmmmmmmmmmmmmm  %   mmmmmmmmmmmmmmmmmmmmmmmmm<12qqeqqwwwq22q22221211111mmmmmmmmmmmmmmmmmmmmmmmmmmmmmmmmmmmmmmmmmma21:mmmmmmmmm",
"mmmmmmmmmmmmmmmm  o  mmmmmmmmmmmmmmmmmmmmmmmmmm<<12qewqqqqq22222221211111<mmmmmmmmmmmmmmmmmmmmmmmmmmmmmmmmmmmmmmmm2l2<mmmmmmmmmm",
"mmmmmmmmmmmmmmmm  .  mmmmmmmmmmmmmmmmmmmmmmmmmmm<122weqqqq222211<11<1<<<,mmmmmmmmmmmmmmmmmmmmmmmmmmmmmmmmmmmmmmmmm2z2,mmmmmmmmmm",
"mmmmmmmmmmmmmmmm ..  mmmmmmmmmmmmmmmmmmmmmmmmmmm<112qeqqq222211<<,,,::;mmmmmmmmmmmmmmmmmmmmmmmmmmmmmmmmmmmmmmmmmmmhr1,mmmmmmmmmm",
"mmmmmmmmmmmmmmmm X.  mmmmmmmmmmmmmmmmmmmmmmmmmmmm112qw2qq22211:--==mmmmmmmmmmmmmmmmmmmmmmmmmmmmmmmmmmmmmmmmmmmmmm2n2<mmmmmmmmmmm",
"mmmmmmmmmmmmmmmm oX  mmmmmmmmmmmmmmmmmmmmmmmmmmmm<112qq2221211;mmmmmmmmmmmmmmmmmmmmmmmmmmmmmmmmmmmmmmmmmmmmmmmmmqzy1,mmmmmmmmmmm",
"mmmmmmmmmmmmmmmm $X  mmmmmmmmmmmmmmmmmmmmmmmmmmmmm<22q222111111,mmmmmmmmmmmmmmmmmmmmmmmmmmmmmmmmmmmmmmmmmmmmmmmmib2<mmmmmmmmmmmm",
"mmmmmmmmmmmmmmmm %.   mmmmmmmmmmmmmmmmmmmmmmmmmmmm<122221<,<<1121-mmmmmmmmmmmmmmmmmmmmmmmmmmmmmmmmmmmmmmmmmmmmmqn2<,mmmmmmmmmmmm",
"mmmmmmmmmmmmmmmm %    mmmmmmmmmmmmmmmmmmmmmmmmmmmm<12221<,m=,11222<mmmmmmmmmmmmmmmmmmmmmmmmmmmmmmmmmmmmmmmmmmmqn21,mmmmmmmmmmmmm",
"mmmmmmmmmmmmmmm  X    mmmmmmmmmmmmmmmmmmmmmmmmmmmmm11221<:mmm,<2q221,mmmmmmmmmmmmmmmmmmmmmmmmmmmmmmmmmmmmmmmmqnq1,mmmmmmmmmmmmmm",
"mmmmmmmmmmmmmmmO@###++mmmmmmmmmmmmmmmmmmmmmmmmmmmmm<1221,:mmmm;<12qq21<mmmmmmmmmmmmmmmmmmmmmmmmmmmmmmmmmmmmqun21,:mmmmmmmmmmmmmm",
"mmmmmmmmmmmmmm1<1<11<<,mmmmmmmmmmmmmmmmmmmmmmmmmmmmm<221,;mmmmmm,<12q2221mmmmmmmmmmmmmmmmmmmmmmmmmmmmmmmmm2kn21<:mmmmmmmmmmmmmmm",
"mmmmmmmmmmmm2222222211<<:mmmmmmmmmmmmmmmmmmmmmmmmmmm1121,;mmmmmmmm,122qq2221mmmmmmmmmmmmmmmmmmmmmmmmmmmm2pnf2<,mmmmmmmmmmmmmmmmm",
"mmmmmmmmmmm1222q2qqq221<<:mmmmmmmmmmmmmmmmmmmmmmmmmm<121,-mmmmmmmmmm,1222yq2221mmmmmmmmmmmmmmmmmmmmmm22ibz21<,mmmmmmmmmmmmmmmmmm",
"mmmmmmmmmm222qalzjdu2221<<;mmmmmmmmmmmmmmmmmmmmmmmmmm121,mmmmmmmmmmmmm:<122quy2222122mmmmmmmmmmmm222ehcg221,;mmmmmmmmmmmmmmmmmmm",
"mmmmmmmmmm222knbkdputq221<,mmmmmmmmmmmmmmmmmmmmmmmmmm111,mmmmmmmmmmmmmmm;,1122qeppyqq222q22q2q2qufkkp221<,:mmmmmmmmmmmmmmmmmmmmm",
"mmmmmmmmm122dncfuewwqq221<,:mmmmmmmmmmmmmmmmmmmmmmmmm11<:mmmmmmmmmmmmmmmmmm:,<112222qruasddfddpt222211<,:mmmmmmmmmmmmmmmmmmmmmmm",
"mmmmmmmmm122xvftwqqqqqq21<,,mmmmmmmmmmmmmmmmmmmmmmmmm11<;mmmmmmmmmmmmmmmmmmmmmm:,<<11112212211111<<,,:mmmmmmmmmmmmmmmmmmmmmmmmmm",
"mmmmmmmmm22qxjywqqqqqqq221<:=mmmmmmmmmmmmmmmmmmmmmmmmm1<mmmmmmmmmmmmmmmmmmmmmmmmmmm-:::,,,,,,,,::mmmmmmmmmmmmmmmmmmmmmmmmmmmmmmm",
"mmmmmmmm122wkdeqqq2qqqqq21,,-mmmmmmmmmmmmmmmmmmmmmmmmm1,mmmmmmmmmmmmmmmmmmmmmmmmmmmmmmmmmmmmmmmmmmmmmmmmmmmmmmmmmmmmmmmmmmmmmmmm",
"mmmmmmmm112qgiwqqqqqqqqq11<:-mmmmmmmmmmmmmmmmmmmmmmmmm<mmmmmmmmmmmmmmmmmmmmmmmmmmmmmmmmmmmmmmmmmmmmmmmmmmmmmmmmmmmmmmmmmmmmmmmmm",
"mmmmmmmm1122iuqqqqqqqqq221,:=mmmmmmmmmmmmmmmmmmmmmmmmmmmmmmmmmmmmmmmmmmmmmmmmmmmmmmmmmmmmmmmmmmmmmmmmmmmmmmmmmmmmmmmmmmmmmmmmmmm",
"mmmmmmmmm1122tqqqqqqqqq21<,:=mmmmmmmmmmmmmmmmmmmmmmmmmmmmmmmmmmmmmmmmmmmmmmmmmmmmmmmmmmmmmmmmmmmmmmmmmmmmmmmmmmmmmmmmmmmmmmmmmmm",
"mmmmmmmmm1122qqqqq2qq2221<,:mmmmmmmmmmmmmmmmmmmmmmmmmmmmmmmmmmmmmmmmmmmmmmmmmmmmmmmmmmmmmmmmmmmmmmmmmmmmmmmmmmmmmmmmmmmmmmmmmmmm",
"mmmmmmmmm<1122qqqqqqq221<,:-mmmmmmmmmmmmmmmmmmmmmmmmmmmmmmmmmmmmmmmmmmmmmmmmmmmmmmmmmmmmmmmmmmmmmmmmmmmmmmmmmmmmmmmmmmmmmmmmmmmm",
"mmmmmmmmmm<11122q222221<,,;#mmmmmmmmmmmmmmmmmmmmmmmmmmmmmmmmmmmmmmmmmmmmmmmmmmmmmmmmmmmmmmmmmmmmmmmmmmmmmmmmmmmmmmmmmmmmmmmmmmmm",
"mmmmmmmmmm<<<121222211<<::-mmmmmmmmmmmmmmmmmmmmmmmmmmmmmmmmmmmmmmmmmmmmmmmmmmmmmmmmmmmmmmmmmmmmmmmmmmmmmmmmmmmmmmmmmmmmmmmmmmmmm",
"mmmmmmmmmmm,<<<1<111<<,::-mmmmmmmmmmmmmmmmmmmmmmmmmmmmmmmmmmmmmmmmmmmmmmmmmmmmmmmmmmmmmmmmmmmmmmmmmmmmmmmmmmmmmmmmmmmmmmmmmmmmmm",
"mmmmmmmmmmmm,,,<<<<,,,::-mmmmmmmmmmmmmmmmmmmmmmmmmmmmmmmmmmmmmmmmmmmmmmmmmmmmmmmmmmmmmmmmmmmmmmmmmmmmmmmmmmmmmmmmmmmmmmmmmmmmmmm",
"mmmmmmmmmmmmmm:,,::,::;#mmmmmmmmmmmmmmmmmmmmmmmmmmmmmmmmmmmmmmmmmmmmmmmmmmmmmmmmmmmmmmmmmmmmmmmmmmmmmmmmmmmmmmmmmmmmmmmmmmmmmmmm",
"mmmmmmmmmmmmmmmm--;-=@mmmmmmmmmmmmmmmmmmmmmmmmmmmmmmmmmmmmmmmmmmmmmmmmmmmmmmmmmmmmmmmmmmmmmmmmmmmmmmmmmmmmmmmmmmmmmmmmmmmmmmmmmm",
"mmmmmmmmmmmmmmmmmmmmmmmmmmmmmmmmmmmmmmmmmmmmmmmmmmmmmmmmmmmmmmmmmmmmmmmmmmmmmmmmmmmmmmmmmmmmmmmmmmmmmmmmmmmmmmmmmmmmmmmmmmmmmmmm",
"mmmmmmmmmmmmmmmmmmmmmmmmmmmmmmmmmmmmmmmmmmmmmmmmmmmmmmmmmmmmmmmmmmmmmmmmmmmmmmmmmmmmmmmmmmmmmmmmmmmmmmmmmmmmmmmmmmmmmmmmmmmmmmmm",
"mmmmmmmmmmmmmmmmmmmmmmmmmmmmmmmmmmmmmmmmmmmmmmmmmmmmmmmmmmmmmmmmmmmmmmmmmmmmmmmmmmmmmmmmmmmmmmmmmmmmmmmmmmmmmmmmmmmmmmmmmmmmmmmm",
"mmmmmmmmmmmmmmmmmmmmmmmmmmmmmmmmmmmmmmmmmmmmmmmmmmmmmmmmmmmmmmmmmmmmmmmmmmmmmmmmmmmmmmmmmmmmmmmmmmmmmmmmmmmmmmmmmmmmmmmmmmmmmmmm",
"mmmmmmmmmmmmmmmmmmmmmmmmmmmmmmmmmmmmmmmmmmmmmmmmmmmmmmmmmmmmmmmmmmmmmmmmmmmmmmmmmmmmmmmmmmmmmmmmmmmmmmmmmmmmmmmmmmmmmmmmmmmmmmmm",
"mmmmmmmmmmmmmmmmmmmmmmmmmmmmmmmmmmmmmmmmmmmmmmmmmmmmmmmmmmmmmmmmmmmmmmmmmmmmmmmmmmmmmmmmmmmmmmmmmmmmmmmmmmmmmmmmmmmmmmmmmmmmmmmm",
"mmmmmmmmmmmmmmmmmmmmmmmmmmmmmmmmmmmmmmmmmmmmmmmmmmmmmmmmmmmmmmmmmmmmmmmmmmmmmmmmmmmmmmmmmmmmmmmmmmmmmmmmmmmmmmmmmmmmmmmmmmmmmmmm",
"mmmmmmmmmmmmmmmmmmmmmmmmmmmmmmmmmmmmmmmmmmmmmmmmmmmmmmmmmmmmmmmmmmmmmmmmmmmmmmmmmmmmmmmmmmmmmmmmmmmmmmmmmmmmmmmmmmmmmmmmmmmmmmmm",
"mmmmmmmmmmmmmmmmmmmmmmmmmmmmmmmmmmmmmmmmmmmmmmmmmmmmmmmmmmmmmmmmmmmmmmmmmmmmmmmmmmmmmmmmmmmmmmmmmmmmmmmmmmmmmmmmmmmmmmmmmmmmmmmm",
"mmmmmmmmmmmmmmmmmmmmmmmmmmmmmmmmmmmmmmmmmmmmmmmmmmmmmmmmmmmmmmmmmmmmmmmmmmmmmmmmmmmmmmmmmmmmmmmmmmmmmmmmmmmmmmmmmmmmmmmmmmmmmmmm"
};
