/* XPM */
static char *area[] = {
/* columns rows colors chars-per-pixel */
"128 128 71 1 ",
"  c #000000",
". c #0A0A0A",
"X c #151515",
"o c #1D1D1D",
"O c #272700",
"+ c #2E2E00",
"@ c #353500",
"# c #373800",
"$ c #383900",
"% c #262626",
"& c #2C2C2C",
"* c #333333",
"= c #3C3C3C",
"- c #4F0000",
"; c #540000",
": c #5C0000",
"> c #630000",
", c #6C0000",
"< c #750000",
"1 c #7C0000",
"2 c #4C4D00",
"3 c #42430A",
"4 c #535400",
"5 c #5B5C00",
"6 c #606100",
"7 c #6D6D00",
"8 c #6F7000",
"9 c #747500",
"0 c #7C7E00",
"q c #444444",
"w c #4C4C4C",
"e c #525252",
"r c #5D5D5D",
"t c #626262",
"y c gray42",
"u c #737373",
"i c #7E7E7E",
"p c #800000",
"a c #850B0B",
"s c #891313",
"d c #8D1B1B",
"f c #912424",
"g c #962C2C",
"h c #9A3434",
"j c #9D3B3B",
"k c #A24444",
"l c #A64C4C",
"z c #AA5454",
"x c #AE5C5C",
"c c #B26464",
"v c #B56B6B",
"b c #BB7777",
"n c #BE7C7C",
"m c #838500",
"M c #868800",
"N c #8A8B00",
"B c #8F9100",
"V c #949500",
"C c #979900",
"Z c #9B9D00",
"A c #9FA100",
"S c #A3A400",
"D c #A7A900",
"F c #AAAC00",
"G c #AEB000",
"H c #B1B300",
"J c #B7B800",
"K c #BABC00",
"L c #BEC000",
"P c #C2C400",
"I c None",
/* pixels */
"IIIIIIIIIIIIIIIIIIIIIIIIIIIIIIIIIIIIIIIIIIIIIIIIIIIIIIIIIIIIIIIIIIIIIIIIIIIIIIIIIIIIIIIIIIIIIIIIIIIIIIIIIIIIIIIIIIIIIIIIIIIIIIII",
"IIIIIIIIIIIIIIIIIIIIIIIIIIIIIIIIIIIIIIIIIIIIIIIIIIIIIIIIIIIIIIIIIIIIIIIIIIIIIIIIIIIIIIIIIIIIIIIIIIIIIIIIIIIIIIIIIIIIIIIIIIIIIIII",
"IIIIIIIIIIIIIIIIIIIIIIIIIIIIIIIIIIIIIIIIIIIIIIIIIIIIIIIIIIIIIIIIIIIIIIIIIIIIIIIIIIIIIIIIIIIIIIIIIIIIIIIIIIIIIIIIIIIIIIIIIIIIIIII",
"IIIIIIIIIIIIIIIIIIIIIIIIIIIIIIIIIIIIIIIIIIIIIIIIIIIIIIIIIIIIIIIIIIIIIIIIIIIIIIIIIIIIIIIIIIIIIIIIIIIIIIIIIIIIIIIIIIIIIIIIIIIIIIII",
"IIIIIIIIIIIIIIIIIIIIIIIIIIIIIIIIIIIIIIIIIIIIIIIIIIIIIIIIIIIIIIIIIIIIIIIIIIIIIIIIIIIIIIIIIIIIIIIIIIIIIIIIIIIIIIIIIIIIIIIIIIIIIIII",
"IIIIIIIIIIIIIIIIIIIIIIIIIIIIIIIIIIIIIIIIIIIIIIIIIIIIIIIIIIIIIIIIIIIIIIIIIIIIIIIIIIIIIIIIIIIIIIIIIIIIIIIIIIIIIIIIIIIIIIIIIIIIIIII",
"IIIIIIIIIIIIIIIIIIIIIIIIIIIIIIIIIIIIIIIIIIIIIIIIIIIIIIIIIIIIIIIIIIIIIIIIIIIIIIIIIIIIIIIIIIIIIIIIIIIIIIIIIIIIIIIIIIIIIIIIIIIIIIII",
"IIIIIIIIIIIIIIIIIIIIIIIIIIIIIIIIIIIIIIIIIIIIIIIIIIIIIIIIIIIIIIIIIIIIIIIIIIIIIIIIIIIIIIIIIIIIIIIIIIIIIIIIIIIIIIIIIIIIIIIIIIIIIIII",
"IIIIIIIIIIIIIIIIIIIIIIIIIIIIIIIIIIIIIIIIIIIIIIIIIIIIIIIIIIIIIIIIIIIIIIIIIIIIIIIIIIIIIIIIIIIIIIIIIIIIIIIIIIIIIIIIIIIIIIIIIIIIIIII",
"IIIIIIIIIIIIIIIIIIIIIIIIIIIIIIIIIIIIIIIIIIIIIIIIIIIIIIIIIIIIIIIIIIIIIIIIIIIIIIIIIIIIIIIIIIIIIIIIIIIIIIIIIIIIIIIIIIIIIIIIIIIIIIII",
"IIIIIIIIIIIIIIIIIIIIIIIIIIIIIIIIIIIIIIIIIIIIIIIIIIIIIIIIIIIIIIIIIIIIIIIIIIIIIIIIIIIIIIIIIIIIIIIIIIIIIIIIIIIIIIIIIIIII<IIIIIIIIII",
"IIIIIIIIIIIIIIIIIIIIIIIIIIIIIIIIIIIIIIIIIIIIIIIIIIIIIIIIIIIIIIIIIIIIIIIIIIIIIIIIIIIIIIIIIIIIIIIIIIIIIIIIIIIIIIIII<<<<,IIIIIIIIII",
"IIIIIIIIIIIIIIIIIIIIIIIIIIIIIIIIIIIIIIIIIIIIIIIIIIIIIIIIIIIIIIIIIIIIIIIIIIIIIIIIIIIIIIIIIIIIIIIIIIIIIIIIIIIIII<<<<1<,,IIIIIIIIII",
"IIIIIIIIIIIIIIIIIIIIIIIIIIIIIIIIIIIIIIIIIIIIIIIIIIIIIIIIIIIIIIIIIIIIIIIIIIIIIIIIIIIIIIIIIIIIIIIIIIIIIIIIIII<<11<11<<,>IIIIIIIIII",
"IIIIIIIIIIIIIIIIIIIIIIIIIIIIIIIIIIIIIIIIIIIIIIIIIIIIIIIIIIIIIIIIIIIIIIIIIIIIIIIIIIIIIIIIIIIIIIIIIIIIIIII<<1<11pppp1<,:IIIIIIIIII",
"IIIIIIIIIIIIIIIIIIIIIIIIIIIIIIIIIIIIIIIIIIIIIIIIIIIIIIIIIIIIIIIIIIIIIIIIIIIIIIIIIIIIIIIIIIIIIIIIIIIII<<<111ppsjxcp<,>:IIIIIIIIII",
"IIIIIIIIIIIIIIIIIIIIIIIIIIIIIIIIIIIIIIIIIIIIIIIIIIIIIIIIIIIIIIIIIIIIIIIIIIIIIIIIIIIIIIIIIIIIIIIIII<<<<1<p1djcvvcjp<,>;IIIIIIIIII",
"IIIIIIIIIIIIIIIIIIIIIIIIIIIIIIIIIIIIIIIIIIIIIIIIIIIIIIIIIIIIIIIIIIIIIIIIIIIIIIIIIIIIIIIIIIIIIII<<<11pppfkcvvxlhfp1<,:;IIIIIIIIII",
"IIIIIIIIIIIIIIIIIIIIIIIIIIIIIIIIIIIIIIIIIIIIIIIIIIIIIIIIIIIIIIIIIIIIIIIIIIIIIIIIIIIIIIIIIII<<<111pppflcvvxlhfsap11<,>;IIIIIIIIII",
"IIIIIIIIIIIIIIIIIIIIIIIIIIIIIIIIIIIIIIIIIIIIIIIIIIIIIIIIIIIIIIIIIIIIIIIIIIIIIIIIIIIIIIII<1<<111ppgzcvvxkgfsappppp1<,>;IIIIIIIIII",
"IIIIIIIIIIIIIIIIIIIIIIIIIIIIIIIIIIIIIIIIIIIIIIIIIIIIIIIIIIIIIIIIIIIIIIIIIIIIIIIIIIIII<<1<11ppphzvvvxkgdsapppppppp1<,:;IIIIIIIIII",
"IIIIIIIIIIIIIIIIIIIIIIIIIIIIIIIIIIIIIIIIIIIIIIIIIIIIIIIIIIIIIIIIIIIIIIIIIIIIIIIIII<<<1111pshzvvczjgdaappppppppppp1<,>;IIIIIIIIII",
"IIIIIIIIIIIIIIIIIIIIIIIIIIIIIIIIIIIIIIIIIIIIIIIIIIIIIIIIIIIIIIIIIIIIIIIIIIIIIII<<1<111psjxvvczjgsspppppppppppppp11<,:;IIIIIIIIII",
"IIIIIIIIIIIIIIIIIIIIIIIIIIIIIIIIIIIIIIIIIIIIIIIIIIIIIIIIIIIIIIIIIIIIIIIIIIII<1<<111pdkcvvcljgsspppppppppppppppppp1<,>;IIIIIIIIII",
"IIIIIIIIIIIIIIIIIIIIIIIIIIIIIIIIIIIIIIIIIIIIIIIIIIIIIIIIIIIIIIIIIIIIIIII<<<1<1pppfkcvvxlhfsaap1pppppppppppppppppp<<,:;IIIIIIIIII",
"IIIIIIIIIIIIIIIIIIIIIIIIIIIIIIIIIIIIIIIIIIIIIIIIIIIIIIIIIIIIIIIIIIIII<<1<11p1pflcvvxlhfsapppppppppppppppppppppppp<<,>;IIIIIIIIII",
"IIIIIIIIIIIIIIIIIIIIIIIIIIIIIIIIIIIIIIIIIIIIIIIIIIIIIIIIIIIIIIIIII<<<1<a11pgzcvvxkhdsapppppppppppppppppp1pppppppp1<,>;IIIIIIIIII",
"IIIIIIIIIIIIIIIIIIIIIIIIIIIIIIIIIIIIIIIIIIIIIIIIIIIIIIIIIIIIIII<<<1111pphzvvcxkgdsapppppppppppppppppppppppppppppp1<,>-IIIIIIIIII",
"IIIIIIIIIIIIIIIIIIIIIIIIIIIIIIIIIIIIIIIIIIIIIIIIIIIIIIIIIIII<<<<11ppajxcvczkgssppppppppppppppppppppppppppppppppp11<,>;IIIIIIIIII",
"IIIIIIIIIIIIIIIIIIIIIIIIIIIIIIIIIIIIIIIIIIIIIIIIIIIIIIIII<<11111psjxvvczjgdsppppppppppppppppppppppppppppppppppppp1<,:;IIIIIIIIII",
"IIIIIIIIIIIIIIIIIIIIIIIIIIIIIIIIIIIIIIIIIIIIIIIIIIIIII<<<1<1ppdkxvvcljfdapppppppppppppppppppppppppppppppppppppppp1<,>-IIIIIIIIII",
"IIIIIIIIIIIIIIIIIIIIIIIIIIIIIIIIIIIIIIIIIIIIIIIIII1<<<111ppfkcvvclhfsapppppppppapppppppppppppp1pppppppppppppppppp<<,>;IIIIIIIIII",
"IIIIIIIIIIIIIIIIIIIIIIIIIIIIIIIIIIIIIIIIIIIIIII<<<1<1p1pflcvvxlhdsaapppppppppppppppppppppp1ppppppppppppppppppppp11<,>;IIIIIIIIII",
"IIIIIIIIIIIIIIIIIIIIIIIIIIIIIIIIIIIIIIIIIIII<<111<pppgzcvvxkhdaaap1pppppppppppppppppppppppppppppppppppppppppppppp1<,:;IIIIIIIIII",
"IIIIIIIIIIIIIIIIIIIIIIIIIIIIIIIIIIIIIIIII<1<<11ppahzvvvzkhdsappp1pppppppppppppppppppppppppppppppppppppppppppppppp1<,>-IIIIIIIIII",
"IIIIIIIIIIIIIIIIIIIIIIIIIIIIIIIIIIIIII<<1<11p1ajzvvczjgdspppppppppppppppppppppppppppppppppppppppppppppppppppppppp<<,>;IIIIIIIIII",
"IIIIIIIIIIIIIIIIIIIIIIIIIIIIIIIIIII<1<<111psjxvvczjfdaappppppppppppppppppppppppppppppppppppppppppppppppppppppppp11<,:;IIIIIIIIII",
"IIIIIIIIIIIIIIIIIIIIIIIIIIIIIIII<<<<1p1pdkxvvcljfsaapp1ppppppppppppppppppppppp1pppppppppppppppppppppppppppppppppp1<,>-IIIIIIIIII",
"IIIIIIIIIIIIIIIIIIIIIIIIIIII<<<<11p1pfkcvvxljfsaapppppppppppppppppppppppppppppppppppppppppppppppppppppppppppppppp1<,>;IIIIIIIIII",
"IIIIIIIIIIIIIIIIIIIIIIIII<<11111ppglcvvxlhfsapppppppppppppppppppppppppppppppppppppppppppppppppppppppppppppppppppp1<,>-IIIIIIIIII",
"IIIIIIIIIIIIIIIIIIIIII<<<<111ppglvvvxkhfspppppppppppppppppppppppppppppppppppppppppppppppppppppppp1ppppppppppppppp<<,:;IIIIIIIIII",
"IIIIIIIIIIIIIIIIIII<<11<11aphzvvvzkhdaapapppppppppppppppppppppppppppppppppppppppppppppppppppppppppppppppppppppppp<<,>;IIIIIIIIII",
"IIIIIIIIIIIIIIII<<1<p1ppshxcvczjgdapppppppppppppppppppppppppppppppppppppppppppppppppppp1pppppppppppppppppppp1pppp1<,>;IIIIIIIIII",
"IIIIIIIIIIIII<<<<111psjxvvczjgdaapppppppppppppppppppppppppppppppppppppppppppppppppppppppppppppppppppppppppppppppp1<,>-IIIIIIIIII",
"IIIIIIIIII1111111pdkxvvcljfsaa1p1ppppppppppppppppppppppppppppppppppppppppppppppppppppppppppppppppppppppppppppppp11<,>;IIIIIIIIII",
"IIIIIIIIII<1p1pfkcvvclhfssppppppppppppppppppppppppppppppppppppppppppppp1ppppppppppppppppppppppppppppppppppppppppp1<,:;IIIIIIIIII",
"IIIIIIIIII<1pgnbvxkhfsspppppppppppppp1ppppppppppppppppppppppppppppppppppppppppppppppppppppppppppppppppppppppppppp1<,>-IIIIIIIIII",
"IIIIIIIIII<<pknzhdsapppppppppppppppppppppppppppp1pppppppppppppppppppppppppppppppppppppppppppppppppppppppppppppppp<<,>;IIIIIIIIII",
"IIIIIIIIII<<1fzfpappppppppppppppppppppp1ppppppppppppppppppppppppppppppppppppppppppppppppppppppppppppp1pppppppppp11<,>;IIIIIIIIII",
"IIIIIIIIII<<1sksppppppppppppppppppppppppppppppp1ppppppppppppppppppppppppppppppppppppppppppppppppppppppppppppppppp1<,:;IIIIIIIIII",
"IIIIIIIIII<<1skspppppppppppppppppppppppppppppppppppppppppp1pppppppppppppppppppp1ppppppppppppppppppppppppppppppppp1<,>-IIIIIIIIII",
"IIIIIIIIII<<1skspppppppppppppppppppppppppppppppppppppppppppppppppppppppppppppppppppppppppppppp1pppppppppppppppppp<<,>;IIIIIIIIII",
"IIIIIIIIII<<1skspppppppppppppppppppppppppppppppppppppppppppppppppppppppppppppppppppppppppppppppppppppppppppppppp11<,:;IIIIIIIIII",
"IIIIIIIIII<<1sksppppppp1ppppppppppppppppppppppppppppppppppppppppppppppppppppppppppppppppppppppppppppppppppppppppp1<,>-IIIIIIIIII",
"IIIIIIIIII<<1sksppppppppppppppppppppppppppppppppppppppppppppppppppppppppppppppppppppppppppppppppppppppppppppppppp1<,>;IIIIIIIIII",
"IIIIIIIIII<<1sksppppppppppppppppppppppppppppppppppppppppppppppppppppppppppppppppppppppp1ppppppppppppppppppppppppp1<,>-IIIIIIIIII",
"IIIIIIIIII<<1sksppppppppppppppppppppppppppppppppppppppppppppppppppppppppppppppppppppppppppppppppppppppppppppppppp<<,:;IIIIIIIIII",
"IIIIIIIIII<<1sksppppppppppppppppppppppppppppppppppppppppppppppppppppppppppppppppppppppppppppppppppppppppppppppppp<<,>;IIIIIIIIII",
"IIIIIIIIII<<1skspppppppppppppppppppppppppp1ppppppppppppppppppppppppppppppppppppppppppppppppppppppppppppp1pppppppp1<,>;IIIIIIIIII",
"IIIIIIIIII<<psksppppppppppppppppppppppppppppppppppppppppppppppppppppppppppppppppppppppppppppppppppppppppppppppppp1<,>-IIIIIIIIII",
"IIIIIIIIII<<1sksppppppppppppppppppppppppppppppppppppppp1pppppppppppppp1ppppppppppppppppppppppp1ppppppppppppppppp11<,>;IIIIIIIIII",
"IIIIIIIIII<<1sksppppppppppppppppppppppppppppppppppppppppppppppppppppppppppppppppppppppppppppppppppppppppppppppppp1<,:;IIIIIIIIII",
"IIIIIIIIII<<1sksppppppppppppppppppppppppppppppppppppppppppppppppppppppppppppppppppppppppppppppppppppppppppppppppp1<,>-IIIIIIIIII",
"IIIIIIIIII<<1skspppppppppp1pppppppppppppppppppppppppppppppppppppppppppppppppppppppppppppppppppppppppppppppppppppp<<,>;IIIIIIIIII",
"IIIIIIIIII<<<ahppppppppppppppppppppppppppppppppppppppppppppppppppppppppppppppppppppppppppppppppppppppppppppppppppp<,>;IIIIIIIIII",
"IIIIIIIIII<<1pp1111111111111111<11111111111<1111111111111111111111111<11111111111<11111111111111111111111<1111111<<,:-IIIIIIIIII",
"IIIIIIIIII<<<<<<<<<<<<<<<<<<<<<<<<<<<<<<<<<<<<<<<<<<<<<<<<<<<<<<<<<<<<<<<<<<<<<<<<<<<<<<<<<<<<<<<<<<<<<<<<<<<<<<<<,>>;IIIIIIIIII",
"IIIIIIIIII,<<<,,,,,,,,,,<,,,,,,,,,,,,,,,,,,,<,,,,,,,,,,,,,,,,,,,,,,,,<,,,,,,,,,,<,,,,,,,,,,,,,,,,,,,,,,,<,,,,,,,,,,>:;IIIIIIIIII",
"IIIIIIIIII<,,>>>>>>>>>>>>>>>>>>>>>>>>>>>>>>>>>>>>>>>>>>>>>>>>>>>>>>>>>>>>>>>>>>>>>>>>>>>>>>>>>>>>>>>>>>>>>>>>>>>>:>>:;IIIIIIIIII",
"IIIIIIIIII,,>>:::;;;:;;;;;;;;;;:;:;;:;;;:;;;;;;;;;:;;;;:;;;:;;:;;;;:;;;;;;:;:;;;;;;;:;;;;:;;;:;;;;:;:;;;;;;;;:;;;;;;:-IIIIIIIIII",
"IIIIIIIIIIIIIIIIIIIIIIIIIIIIIIIIIIIIIIIIIIIIIIIIIIIIIIIIIIIIIIIIIIIIIIIIIIIIIIIIIIIIIIIIIIIIIIIIIIIIIIIIIIIIIIIIIIIIIIIIIIIIIIII",
"IIIIIIIIIIIIIIIIIIIIIIIIIIIIIIIIIIIIIIIIIIIIIIIIIIIIIIIIIIIIIIIIIIIIIIIIIIIIIIIIIIIIIIIIIIIIIIIIIIIIIIIIIIIIIIIIIIIIIIIIIIIIIIII",
"IIIIIIIIIIIIIIIIIIIIIIIIIIIIIIIIIIIIIIIIIIIIIIIIIIIIIIIIIIIIIIIIIIIIIIIIIIIIIIIIIIIIIIIIIIIIIIIIIIIIIIIIIIIIIIIIIIIIIIIIIIIIIIII",
"IIIIIIIIIIIIIIIIIIIIIIIIIIIIIIIIIIIIIIIIIIIIIIIIIIIIIIIIIIIIIIIIIIIIIIIIIIIIIIIIIIIIIIIIIIIIIIIIIIIIIIIIIIIIIIIIIIIIIIIIIIIIIIII",
"IIIIIIIIIIIIIIIIIIIIIIIIIIIIIIIIIIIIIIIIIIIIIIIIIIIIIIIIIIIIIIIIIIIIIIIIIIIIIIIIIIIIIIIIIIIIIIIIIIIIIIIIIIIIIIIIIIIIIIIIIIIIIIII",
"IIIIIIIIIIIIIIIIIIIIIIIIIIIIIIIIIIIIIIIIIIIIIIIIIIIIIIIIIIIIIIIIIIIIIIIIIIIIIIIIIIIIIIIIIIIIIIIIIIIIIIIIIIIIIIIIIIIIIIIIIIIIIIII",
"IIIIIIIIIIIIIIIIIIIIIIIIIIIIIIIIIIIIIIIIIIIIIIIIIIIIIIIIIIIIIIIIIIIIIIIIIIIIIIIIIIIIIIIIIIIIIIIIIIIIIIIIIIIIIIIIIIIIIIIIIIIIIIII",
"IIIIIIIIIIIIIIIIIIIIIIIIIIIIIIIIIIIIIIIIIIIIIIIIIIIIIIIIIIIIIIIIIIIIIIIIIIIIIIIIIIIIIIIIIIIIIIIIIIIIIIIIIIIIIIIIIIIIIIIIIIIIIIII",
"IIIIIIIIIIIIIIIIIIIIIIIIIIIIIIIIIIIIIIIIIIIIIIIIIIIIIIIIIIIIIIIIIIIIIIIIIIIIIIIIIIIIIIIIIIIIIIIIIIIIIIIIIIIIIIIIIIIIIIIIIIIIIIII",
"IIIIIIIIIIIIIIIIIIIIIIIIIIIIIIIIIIIIIIIIIIIIIIIIIIIIIIIIIIIIIIIIIIIIIIIIIIIIIIIIIIIIIIIIIIIIIIIIIIIIIIIIIIIIIIIIIIIIIIIIIIIIIIII",
"IIIIIIIIIIIIIIIIIIIIIIIIIIIIIIIIIIIIIIIIIIIIIIIIIIIIIIIIIIIIIIIIIIIIIIIIIIIIIIIIIIIIIIIIIIIIIIIIIIIIIIIIIIIIIIIIIIIIIIIIIIIIIIII",
"IIIIIIIIIIIIIIIIIIIIIIIIIIIIIIIIIIIIIIIIIIIIIIIIIIIIIIIIIIIIIIIIIIIIIIIIIIIIIIIIIIIIIIIIIIIIIIIIIIIIIIIIIIIIIIIIIIIIIIIIIIIIIIII",
"IIIIIIIIIIIIIIIIIIIIIIIIIIIIIIIIIIIIIIIIIIIIIIIIIIIIIIIIIIIIIIIIIIIIIIIIIIIIIIIIIIIIIIIIIIIIIIIIIIIIIIIIIIIIIIIIIIIIIIIIIIIIIIII",
"IIIIIIIIIIIIIIIIIIIIIIIIIIIIIIIIIIIIIIIIIIIIIIIIIIIIIIIIIIIIIIIIIIIIIIIIIIIIIIIIIIIIIIIIIIIIIIIIIIIIIIIIIIIIIIIIIIIIIIIIIIIIIIII",
"IIIIIIIIIIIIIIIIIIIIIIIIIIIIIIIIIIIIIIIIIIIIIIIIIIIIIIIIIIIIIIIIIIIIIIIIIIIIIIIIIIIIIIIIIIIIIIIIIIIIIIIIIIIIIIIIIIIIIIIIIIIIIIII",
"IIIIIIIIIIIIIIIIIIIIIIIIIIIIIIIIIIIIIIIIIIIIIIIIIIIIIIIIIIIIIIIIIIIIIIIIIIIIIIIIIIIIIIIIIIIIIIIIIIIIIIIIIIIIIIIIIIIIIIIIIIIIIIII",
"IIIIIIIIII                                                                                                            IIIIIIIIII",
"IIIIIIIIII                                                                                                            IIIIIIIIII",
"IIIIIIIIII  *=  X%*===========qetyyeo     .o&===========qwtyyeo     .o&===========qwtyywo.    .o&============wryyw    IIIIIIIIII",
"IIIIIIIIII  iq                    .rit&                     .rit%                     .rbr%                      q&   IIIIIIIIII",
"IIIIIIIIII  %                                                                                                         IIIIIIIIII",
"IIIIIIIIII    999777777777777777777@    O77777777777777777777@    O77777777777777777777@    O777777777777777777777     IIIIIIIII",
"IIIIIIIIII    9ZCVVVVVCVZCCVZVCVCCC2    @VVVVVVVVZVCZVVVZCCCC2    #VVVVVVCCCCVVZZVCVZVV2    #VVVVVVZVCVZZVVZCCZVC7     IIIIIIIII",
"IIIIIIIIII .  9VVNVVCVZZVCCZVZZVCCV2 r  @BNBVVVVVZZVVCZZVCCCZ2 r  @NVNVVCVCCCZCCCCVZVZZ2 t  @BBBVVVVZCZVVZZVCCVZC7     IIIIIIIII",
"IIIIIIIIII %  7VVVVCZZZZZZZZZZZZZZZ4 i  @NNVVVZZZZZZZZZZZZZZZ2 i  @NNNVCZZZZZZZZZZZZZZZ2 i  @NBBVVVZZZZZZZZZZZZZZ7     IIIIIIIII",
"IIIIIIIIII =  8CVVZASDDDFDDFDDFDFDD4 q  @BBVVZSDDDFDFFDFFDDFF4 q  @VVVVZSSDDDDFFFDFDFDF4 q  @BBVVZSDDDFDDDFDFFDDF0 &   IIIIIIIII",
"IIIIIIIIII q  8CVCADFGHGHHGHHGHHHHH5    @VVVZSFGHHHHHHHHHHHHH5    @VVCZSFGHHHHHHHHHHHHH5    @BVCZSFHHHHHHHHHHHHHH0 q   IIIIIIIII",
"IIIIIIIIII q  8CCZSFHJKKKKKKKKJKKJK5    $VVCADGHJJKJJKJKKJJKJ5    #VVCADGHJKKJKKKJKJJKJ5    #VVCZFHHHKKJKKKKKJJJKm q   IIIIIIIII",
"IIIIIIIIII q  9ZZZDGJKLLLLLLLLLLLLL6    $VVZSFHKLKLLLLLLLLLLL5    $VVCSFHKKLLLPPLLLLLLL5    $CCCSFHKPKPKPPPPPKKPLM q   IIIIIIIII",
"IIIIIIIIII w  7CCADGKLLPLPPLPLPPPPL6    $VVZDGJKPPPPPPPPLPPPP6    #CVZSGJLPLPPPPLPPPPPP6    $VVZDFJKPPPPPPPPPPPPPM q   IIIIIIIII",
"IIIIIIIIII q  8CZZDHJLLPPPPPPPPPPPPPmm09ZZCZSGJLPPPPPPPPPPPPPPMm09ZCCZDGJLPPPPPPPPPPPPPPMm09ZCCZDHJKLPPPPPPPPPPPPM q   IIIIIIIII",
"IIIIIIIIII q  8CCADHKLPPPPPPPPPPPPPPLKHFAZZZDHKKPPPPPPPPPPPPPPLJHFAZZZDGJLLPPPPPPPPPPPPPLJHFAZZADHKKPPPPPPPPPPPPPM q   IIIIIIIII",
"IIIIIIIIII q  8ZZADHKLPPPPPPPPPPPPPPLKHFSZASFHKLPPPPPPPPPPPPPPLKHFSAASFHJLPPPPPPPPPPPPPPLKHFSAASFHKPPPPPPPPPPPPPPM q   IIIIIIIII",
"IIIIIIIIII q  8CCZDHJLPPPPPPPPPPPPPPLKJGFDDFGHKPPPPPPPPPPPPPPPPLJGFDDFGJKLPPPPPPPPPPPPPPLKJHDDDFFHKKPPPPPPPPPPPPPN q   IIIIIIIII",
"IIIIIIIIII q  8CCADHKLPPPPPPPPPPPPPPPPKJHGGHHKLPLPPPPPPPPPPPPPPPKJHGGHHKPPPPPPPPPPPPPPPPPKKHHGGHHJPPPPPPPPPPPPPPPM q   IIIIIIIII",
"IIIIIIIIII w  8ZCADHJLPPPPPPPPPPPPPPPPLKJJJJKLPPPPPPPPPPPPPPPPPPLKJJJJKLPPPPPPPPPPPPPPPPLPLKJJJJKPLLPPPPPPPPPPPPPM q   IIIIIIIII",
"IIIIIIIIII q  8CZZDHKLPPPPPPPPPPPPPPPLPLKKLKLLPPPPPPPPPPPPPPPPPPPLKKLKLLPPPPPPPPPPPPPPPPPPPPKKKKKKPPPPPPPPPPPPPPPN q   IIIIIIIII",
"IIIIIIIIII q  8CCADGKLPPPPPPPPPPPPPPPPPLLPLPLPPPPPPPPPPPPPPPPPPPPLPLLLPPPPPPPPPPPPPPPPPPPPPPPPPPPPPPPPPPPPPPPPPPPM q   IIIIIIIII",
"IIIIIIIIII q  8ZZADHKLPPPPPPPPPPPPPPPPPPPPPPPPPPPPPPPPPPPPPPPPPPPPPPPPPPPPPPPPPPPPPPPPPPPPPPPPPPPPPPPPPPPPPPPPPPPN q   IIIIIIIII",
"IIIIIIIIII w  8CCZDHKLLPPPPPPPPPPPPPPPPPPPPPPPPPPPPPPPPPPPPPPPPPPPPPPPPPPPPPPPPPPPPPPPPPPPPPPPPPPPPPPPPPPPPPPPPPPN w   IIIIIIIII",
"IIIIIIIIII e  9CCADGLLPPPPPPPPPPPPPPPPPPPPPPPPPPPPPPPPPPPPPPPPPPPPPPPPPPPPPPPPPPPPPPPPPPPPPPPPPPPPPPPPPPPPPPPPPPPM t   IIIIIIIII",
"IIIIIIIIII t  7ZZADHLPPPPPPPPPPPPPPPPPPPPPPPPPPPPPPPPPPPPPPPPPPPPPPPPPPPPPPPPPPPPPPPPPPPPPPPPPPPPPPPPPPPPPPPPPPPPM i   IIIIIIIII",
"IIIIIIIIII t  7CCZDHKLPPPPPPPPPPPPPPPPPPPPPPPPPPPPPPPPPPPPPPPPPPPPPPPPPPPPPPPPPPPPPPPPPPPPPPPPPPPPPPPPPPPPPPPPPPPNou   IIIIIIIII",
"IIIIIIIIII ew 9CZZDHJLPPPPPPPPPPPPPPPPPPPPPPPPPPPPPPPPPPPPPPPPPPPPPPPPPPPPPPPPPPPPPPPPPPPPPPPPPPPPPPPPPPPPPPPPPPPNe=   IIIIIIIII",
"IIIIIIIIII .i @+++@@@$$$$$$$$$$$$$$$$$$$$$$$$$$$3$$$$$$$$$$$$$$$$$$$$$$$3$$$$$$$$$$$3$$$$$$$$$$$$$$$$$$$$$$$$$$$$3i    IIIIIIIII",
"IIIIIIIIII  X                                                                                                  =ui=    IIIIIIIII",
"IIIIIIIIII        %=========================================================================================qweqX      IIIIIIIII",
"IIIIIIIIII                                                                                                             IIIIIIIII",
"IIIIIIIIII                                                                                                             IIIIIIIII",
"IIIIIIIIIIIIIIIIIIIIIIIIIIIIIIIIIIIIIIIIIIIIIIIIIIIIIIIIIIIIIIIIIIIIIIIIIIIIIIIIIIIIIIIIIIIIIIIIIIIIIIIIIIIIIIIIIIIIIIIIIIIIIIII",
"IIIIIIIIIIIIIIIIIIIIIIIIIIIIIIIIIIIIIIIIIIIIIIIIIIIIIIIIIIIIIIIIIIIIIIIIIIIIIIIIIIIIIIIIIIIIIIIIIIIIIIIIIIIIIIIIIIIIIIIIIIIIIIII",
"IIIIIIIIIIIIIIIIIIIIIIIIIIIIIIIIIIIIIIIIIIIIIIIIIIIIIIIIIIIIIIIIIIIIIIIIIIIIIIIIIIIIIIIIIIIIIIIIIIIIIIIIIIIIIIIIIIIIIIIIIIIIIIII",
"IIIIIIIIIIIIIIIIIIIIIIIIIIIIIIIIIIIIIIIIIIIIIIIIIIIIIIIIIIIIIIIIIIIIIIIIIIIIIIIIIIIIIIIIIIIIIIIIIIIIIIIIIIIIIIIIIIIIIIIIIIIIIIII",
"IIIIIIIIIIIIIIIIIIIIIIIIIIIIIIIIIIIIIIIIIIIIIIIIIIIIIIIIIIIIIIIIIIIIIIIIIIIIIIIIIIIIIIIIIIIIIIIIIIIIIIIIIIIIIIIIIIIIIIIIIIIIIIII",
"IIIIIIIIIIIIIIIIIIIIIIIIIIIIIIIIIIIIIIIIIIIIIIIIIIIIIIIIIIIIIIIIIIIIIIIIIIIIIIIIIIIIIIIIIIIIIIIIIIIIIIIIIIIIIIIIIIIIIIIIIIIIIIII",
"IIIIIIIIIIIIIIIIIIIIIIIIIIIIIIIIIIIIIIIIIIIIIIIIIIIIIIIIIIIIIIIIIIIIIIIIIIIIIIIIIIIIIIIIIIIIIIIIIIIIIIIIIIIIIIIIIIIIIIIIIIIIIIII",
"IIIIIIIIIIIIIIIIIIIIIIIIIIIIIIIIIIIIIIIIIIIIIIIIIIIIIIIIIIIIIIIIIIIIIIIIIIIIIIIIIIIIIIIIIIIIIIIIIIIIIIIIIIIIIIIIIIIIIIIIIIIIIIII",
"IIIIIIIIIIIIIIIIIIIIIIIIIIIIIIIIIIIIIIIIIIIIIIIIIIIIIIIIIIIIIIIIIIIIIIIIIIIIIIIIIIIIIIIIIIIIIIIIIIIIIIIIIIIIIIIIIIIIIIIIIIIIIIII"
};
