/* XPM */
static char *backview[] = {
/* columns rows colors chars-per-pixel */
"128 128 82 1 ",
"  c #000000",
". c #050709",
"X c #0C0C0C",
"o c #0A0D11",
"O c #141414",
"+ c #1A1A1A",
"@ c #161D24",
"# c #181F27",
"$ c #181F28",
"% c #1A232C",
"& c #1D2730",
"* c #1E2833",
"= c #242424",
"- c #2E2E2E",
"; c #212C37",
": c #242F3C",
"> c #25313D",
", c #343434",
"< c #3C3C3C",
"1 c #2A3846",
"2 c #2E3D4D",
"3 c #303F4F",
"4 c #334354",
"5 c #384A5D",
"6 c #424242",
"7 c #494949",
"8 c #555555",
"9 c #5D5D5D",
"0 c #475F77",
"q c #4A627B",
"w c #656565",
"e c #6C6C6C",
"r c #737373",
"t c #7E7E7E",
"y c #4D6781",
"u c #4F6984",
"i c #536E8B",
"p c #56728F",
"a c #567390",
"s c #597694",
"d c #5A7897",
"f c #5C7A99",
"g c #607FA0",
"h c #6181A2",
"j c #6687A9",
"k c #6B8EB3",
"l c #6E92B7",
"z c #6E92B8",
"x c #7196BC",
"c c #7398BF",
"v c #769DC5",
"b c #789FC8",
"n c #7BA3CD",
"m c #7EA7D2",
"M c #7FA9D3",
"N c #868686",
"B c #8B8B8B",
"V c #929292",
"C c #ADADAD",
"Z c #B4B4B4",
"A c #BCBCBC",
"S c #81ABD6",
"D c #83AEDB",
"F c #85B0DD",
"G c #86B2E0",
"H c #89B6E5",
"J c #8BB8E7",
"K c #8CBAEA",
"L c #90BFF0",
"P c #92C2F3",
"I c #95C6F9",
"U c #97C8FB",
"Y c #99CBFF",
"T c #C3C3C3",
"R c #CDCDCD",
"E c #D6D6D6",
"W c #DBDBDB",
"Q c #E2E2E2",
"! c #EDEDED",
"~ c #F6F6F6",
"^ c #FFFFFF",
"/ c None",
/* pixels */
"////////////////////////////////////////////////////////////////////////////////////////////////////////////////////////////////",
"////////////////////////////////////////////////////////////////////////////////////////////////////////////////////////////////",
"////////////////////////////////////////////////////////////////////////////////////////////////////////////////////////////////",
"////////////////////////////////////////////////////////////////////////////////////////////////////////////////////////////////",
"////////////////////////////////////////////////////////////////////////////////////////////////////////////////////////////////",
"////////////////////////////////////////////////////////////////////////////////////////////////////////////////////////////////",
"////////////////////////////////////////////////////////////////////////////////////////////////////////////////////////////////",
"////////////////////////////////////////////////////////////////////////////////////////////////////////////////////////////////",
"////////////////////////////////////////////////////////////////////////////////////////////////////////////////////////////////",
"////////////////////////////////////////////////////////////////////////////////////////////////////////////////////////////////",
"////////////////////////////////////////                                                                        ////////////////",
"///////////////////////////////////////                                                                .        ////////////////",
"///////////////////////////////////////       .O=---,--,-,-,---,-,---,----,---,--,----,---,---,--,<7wrw7+       ////////////////",
"//////////////////////////////////////   6,                                                           7Ntr8.    ////////////////",
"/////////////////////////////////////   r8                                                              <we=    ////////////////",
"////////////////////////////////////  Xrr   1hhgghhghhhhhhhhhhhhhhhhhhhhhhhhhhhhhhhhhhhhhhhhhhhhhhhhhhhq.+=     ////////////////",
"///////////////////////////////////  ,rw    4vccccvvvvvvvcvcvvvcbvvvvvvvcncvvvcvvvvvvvvvvvvvvvvvvvvbvbs. X      ////////////////",
"//////////////////////////////////  9w+     2xxxccvvvbbnnvnvncncbbbbbbvvnnnccnnnvnnnvvvvvbvbvvvvvbbbbd.XX       ////////////////",
"///////////////////////////////// Xt<  =    2lxxcbnnnnnnnnSnnnSSnnnmmnnnmnnnnmmmnmnmnmnnnmnmmnnmnnnnf.,,   .    ////////////////",
"//////////////////////////////// +N   6e    2lxxnnSDDFFFFFFDFFFFDFFFDFFFFFFMMFMGMFMGFGGMFFFGFFFFDFDj.,r   @%    ////////////////",
"/////////////////////////////// +t   6Ee    2lxvnSGHKKKKJKKKKKKKKKKKJKKKPHJPPJHPHPKKPJKKKKKKKKKKJKl. t   @x%    ////////////////",
"////////////////////////////// +t   6RTw    2xxbnFKKPPPPPPPPPPPPPPPPPPPPPIPPPPPPPPPPPPPPPPPPPPPPPz. t   %vn%    ////////////////",
"///////////////////////////// +t   <RTAw    2xvbSHKPIUUUUUUUUUYYUUIUUUUUUUUUIIYYUUUUUUUUUUUUYUIUcX f   %bnb%    ////////////////",
"//////////////////////////// +t   6RRTAw +  2xvnSHPIUYYUYYYYYYYYYYYYYUYYUYYUUUYYUUYUYUYYYUYYUYIv. tX  %nmnv%    ////////////////",
"/////////////////////////// +t   6RRAAAw ,  4cvbSHPPYYYYYYYYYYYYYYYYYYYYYYYYYYYYYYYYYYYYYYYYYYv. t   %nSbvv% +  ////////////////",
"////////////////////////// +t   <RRAAZTw <  4cvnSHPIYYYYYYYYYYYYYYYYYYYYYYYYYYYYYYYYYYYYYYYYUv. t   %nSbvvv% -  ////////////////",
"///////////////////////// +t   <RTAAZATr 6  4vvnSHPIUYYYYYYYYYYYYYYYYYYYYYYYYYYYYYYYYYYYYYYYb. t   $bSbvvvn& ,  ////////////////",
"//////////////////////// +t   <RRAAAATEr 6  4vvnSHPPYYYYYYYYYYYYYYYYYYYYYYYYYYYYYYYYYYYYYYYv. t   =mSbvvbnS; ,  ////////////////",
"/////////////////////// +N   <RRAAZATRWt 6  4vvbSHLIUYYYYYYYYYYYYYYYYYYYYYYYYYYYYYYYYYYYYYn. t   %nSbvcbnSF; ,  ////////////////",
"////////////////////// +t   <RRAAAATEWQt 6  4bbnSHLIYYYYYYYYYYYYYYYYYYYYYYYYYYYYYYYYYYYYYv. t   %bSbvvvnSFK; ,  ////////////////",
"///////////////////// +t   <RRAAAATEWQ!N 6  4bbnSHPIYYYYYYYYYYYYYYYYYYYYYYYYYYYYYYYYYYYYv. t   %nSbvvvnSFKP: ,  ////////////////",
"//////////////////// +t   <RTAZAATRWQ!~N 6  4vbnSHPPUYYYYYYYYYYYYYYYYYYYYYYYYYYYYYYYYYYv. t   %nnbvvvnSFKPP> ,  ////////////////",
"/////////////////// +t   <RRAAAATRWQ~~~B 6  4bbnSHPIUYYYYYYYYYYYYYYYYYYYYYYYYYYYYYYYYYv. t   %nnnvvvnSFJLPY: ,  ////////////////",
"////////////////// +t   <RRAAZATEWQ!~~^N 6  4bvnSHLIYYYYYYYYYYYYYYYYYYYYYYYYYYYYYYYYYc. t   %nmnvvvnSFJPIUY: ,  ////////////////",
"///////////////// +t   <RRAAAATEWQ~~~^^B 6  4bvnSHPPUYYYYYYYYYYYYYYYYYYYYYYYYYYYYYYYc. t   %nmnccvnSFJPPIYY: ,  ////////////////",
"//////////////// +t   <RTAZAATEW!!~~^^^N 6  4bvbSHPIYYYYYYYYYYYYYYYYYYYYYYYYYYYYYYUv. t   %nmncnbnSFKPIUUYY: ,  ////////////////",
"/////////////// +t   <RTTAAATRWQ!~~^^^^N <  4bvnSHPIYYYYYYYYYYYYYYYYYYYYYYYYYYYYYUc. N   %nMncccnSFJPIUUYYY: ,  ////////////////",
"//////////////  t   <RRAAZATEWQ!~~^^^^^N 8  4bvnSHLIYYYYYYYYYYYYYYYYYYYYYYYYYYYYYv. t   %nmnncnnSFKPIIYUYYY: <  ////////////////",
"/////////////  rO  <RTAAAATRWQ!~^^^^^^^B e  4bvnSHPIUYYYYYYYYYYYYYYYYYYYYYYYYYUUv. t   %nnnvcnnSFKPPUUYYYYY> ,  ////////////////",
"////////////  78  <RRTAAATEWQ!~^^^^^^^^N N  4vvbSHLPYYYYYYYYYYYYYYYYYYYYYYYYYYYv. t   %nMbvvnnMFKPIUUYYYYYY> ,  ////////////////",
"///////////  =r  <RTTAAATEWQ!~~~^^^^^^^N t  4bbnSHLPYYYYYYYYYYYYYYYYYYYYYYYYYYx. t   %nMncccnMFJPIUUYYYYYYY> ,  ////////////////",
"//////////   r6 <RRAAZATRWQ!~^^^^^^^^^^N-t  4bvnDHPIYYYYYYYYYYYYYYYYYYYYYYYYYv.Xt   &nmnncnnMFJPPUUYYYYYYYY> ,  ////////////////",
"////////    rr X==+=+====--=-----------O9r  X%@#%%&*&***********;;;***;*****@ Xr   %nnnvcnnSFJPIUUYYYYYYYYY> ,  ////////////////",
"///////    ww                       O<wrteO                                  =7   %nmbvvnnSFKPIUYYYYYYYYYYY: ,  ////////////////",
"////////  =7         O----,--,----,8wew98<       =----,--,----,---,---<7wtttr7   %nnnvvvnSFJPIIYYYYYYYYYYYY> ,  ////////////////",
"//////// .+                                                                ,6   @bnbvvvnSFKPIIYYYYYYYYYYYYY: ,  ////////////////",
"////////                    .                                                   anvvvvnmFJPIIUYYYYYYYYYYYYY: ,  ////////////////",
"////////    <VBBNNNNBBVVVVVVVVVVVVVVVVV8    >sssfffghhhhhhhhhhhhhhhhhhhhhhh@    scccvnSFHPIUUYYYYYYYYYYYYYY> ,  ////////////////",
"////////    7AZCCCCZZZAZAAAAAAAAAAAAAAAw    2lllxvxbvvvvvvvvvvvvbvvvvvvvvvv%    pxccnmFHPIUUYYYYYYYYYYYYYYY: ,  ////////////////",
"//////// X  7AZCCZZZAAAAATAAAAAAAAAAAAAw    2lllxxvbbbvvbnbvvbbbbbbbbvvvnvv&    pxcvmSHPPUYYYYYYYYYYYYYYYYY> ,  ////////////////",
"//////// =  7ZZZZAATTTTRTTTTTTTTRTTTTTTe    2xxlvvbnnmnnnnmnnnnmnnnnnmnmnnn&    pxcvMFPPIYYYYYYYYYYYYYYYYYY> ,  ////////////////",
"//////// ,  7AZZATREEEEEEEWEEEWEEEWEWEWr =  3xxvvnMDDFDFFFFFDFFFFFFDFFFGFFF* %  sccnSHPPUUYYYYYYYYYYYYYYYYY> ,  ////////////////",
"//////// <  7ZAATEWQQQQQQQ!QQQQQQQQQQQQt <  4ccvmMGJKKKKKKKKKKKKKKKKKKKKKKK; ,  scnnDJPIYYYYYYYYYYYYYYYYYYY> <  ////////////////",
"//////// 6  7AAATEQQ~~~~~~~!~~~~~~~~~~~t 6  4vvvmGJKPPPPPPPPPPPPPPPPPPPPPPP: ,  dvvnFJPUYYYYYYYYYYYYYYYYYYY> ,  ////////////////",
"//////// 6  7AAARW!~~~~~~~^~~~~^~^~~^~~N 6  4vvbMHKIIUUUIUUIYUUUUUUUUUUUUUI: ,  fvnnFJPIYYYYYYYYYYYYYYYYYYY: ,  ////////////////",
"//////// 6  7AATEQ!~^^^^^^^^^^^^^^^^^^^N 6  4vvnMHLIUYUYYYYYYYYYYYUYYYYUYYY> ,  fvvmFJPUYYYYYYYYYYYYYYYYYYY: ,  ////////////////",
"//////// 6  7AATRQ!~~^^^^^^^^^^^^^^^^^^B 6  4bvnSHPIYYYYYYYYYYYYYYYYYYYYYYY: ,  fncnDKPUYYYYYYYYYYYYYYYYYYY: ,  ////////////////",
"//////// 6  7AATRW!~^^^^^^^^^^^^^^^^^^^N 6  4bvnSHLIUYYYYYYYYYYYYYYYYYYYYYY: ,  fcnnFKPUYYYYYYYYYYYYYYYYYYY> ,  ////////////////",
"//////// 6  7AATRQ!~^^^^^^^^^^^^^^^^^^^B 6  4vvbSHPIYYYYYYYYYYYYYYYYYYYYYYY: ,  fncnFKPUYYYYYYYYYYYYYYYYYYY: ,  ////////////////",
"//////// 6  7AAAEW~~^^^^^^^^^^^^^^^^^^^N 6  4bvnSHPPUYYYYYYYYYYYYYYYYYYYYYY: ,  fcnSFKPUYYYYYYYYYYYYYYYYYYY: ,  ////////////////",
"//////// 6  7AATRW!~^^^^^^^^^^^^^^^^^^^N 6  4bbnSHLIUYYYYYYYYYYYYYYYYYYYYYY: ,  fcnnFKPUYYYYYYYYYYYYYYYYYYY> ,  ////////////////",
"//////// 6  7AATRQ!~^^^^^^^^^^^^^^^^^^^N 6  4bvbSHLIYYYYYYYYYYYYYYYYYYYYYYY: ,  fnnnFKPUYYYYYYYYYYYYYYYYYYY> ,  ////////////////",
"//////// 6  7AATEQ!~^^^^^^^^^^^^^^^^^^^B 6  4bbnSHLIUYYYYYYYYYYYYYYYYYYYYYY: ,  fccSDKPUYYYYYYYYYYYYYYYYYYY> ,  ////////////////",
"//////// 6  7AATRW!~^^^^^^^^^^^^^^^^^^^N 6  4bvnSJPIYYYYYYYYYYYYYYYYYYYYYYY: <  fncSFKPYYYYYYYYYYYYYYYYYYYY> ,  ////////////////",
"//////// 6  7AAAEW!~^^^^^^^^^^^^^^^^^^^B 6  4vvbDFPIYYYYYYYYYYYYYYYYYYYYYYY> ,  fnvnFKPUUYYYYYYYYYYYYYYYYYY> ,  ////////////////",
"//////// 6  7AATRQ!~^^^^^^^^^^^^^^^^^^^N 6  4vvnSFPIYYYYYYYYYYYYYYYYYYYYYYY> ,  fvvnFKPUYYYYYYYYYYYYYYYYYYY> ,  ////////////////",
"//////// 6  7AATRQ!~^^^^^^^^^^^^^^^^^^^N 6  4bvnSJPPYYYYYYYYYYYYYYYYYYYYYYY> <  fvnmFKPUYYYYYYYYYYYYYYYYYYU: ,  ////////////////",
"//////// 6  7AATEW~~~^^^^^^^^^^^^^^^^^^N 6  4bvnSJPIYYYYYYYYYYYYYYYYYYYYYYY> ,  fvvnFJPUYYYYYYYYYYYYYYYYYYY: ,  ////////////////",
"//////// 6  7AATRW!~~^^^^^^^^^^^^^^^^^^B 6  4bvnSHPIYYYYYYYYYYYYYYYYYYYYYYY> ,  fbbnGKPIUYYYYYYYYYYYYYYYYYY> ,  ////////////////",
"//////// 6  7AATRQ!~^^^^^^^^^^^^^^^^^^^N 6  4bvnSJPIYYYYYYYYYYYYYYYYYYYYYYY> ,  fvvnFKPUYYYYYYYYYYYYYYYYYYY> ,  ////////////////",
"//////// 6  7AATRQ!~^^^^^^^^^^^^^^^^^^^N 6  4vvbSJLIYYYYYYYYYYYYYYYYYYYYYYY> ,  fbnmFKPIYYYYYYYYYYYYYYYYYYY> ,  ////////////////",
"//////// 6  7AAAEW~~^^^^^^^^^^^^^^^^^^^N 6  4bvnSFLIYYYYYYYYYYYYYYYYYYYYYYY> ,  dvvnFKPIYYYYYYYYYYYYYYYYYYY> <  ////////////////",
"//////// 6  7AATRW!~^^^^^^^^^^^^^^^^^^^N 6  4bbnSHLIUYYYYYYYYYYYYYYYYYYYYYY: ,  fvnnFJPYYYYYYYYYYYYYYYYYYYY> ,  ////////////////",
"//////// 6  7AATEQ!~^^^^^^^^^^^^^^^^^^^B 6  4bvbSHPPUUYYYYYYYYYYYYYYYYYYYYY: ,  fvvnFKPIYYYYYYYYYYYYYYYYYYY> ,  ////////////////",
"//////// 6  7AATRQ!~^^^^^^^^^^^^^^^^^^^N 6  4bbnSHPIYYYYYYYYYYYYYYYYYYYYYYY> ,  fvnmFKPIYYYYYYYYYYYYYYYYYYY> ,  ////////////////",
"//////// 6  7AATRW!~^^^^^^^^^^^^^^^^^^^N 6  4bvnSJPIUYYYYYYYYYYYYYYYYYYYYYY> ,  dvvnFKPIYYYYYYYYYYYYYYYYYYY> ,  ////////////////",
"//////// 6  7AAARQ!~^^^^^^^^^^^^^^^^^^^N 6  4bvvSHLIYYYYYYYYYYYYYYYYYYYYYYY: <  fbbnFKPIYYYYYYYYYYYYYYYYYYY> <  ////////////////",
"//////// 6  7AATRQ!~~^^^^^^^^^^^^^^^^^^B 7  4vvvSJLIUYYYYYYYYYYYYYYYYYYYYYY: 8  fvbnFKPIYYYYYYYYYYYYYYYYYYY> 6  ////////////////",
"//////// 6  7AATEW!~^^^^^^^^^^^^^^^^^^^N 9  4bvSSHLIYYYYYYYYYYYYYYYYYYYYYYY:Xw  fvnnFKPYYYYYYYYYYYYYYYYYYYY>+6  ////////////////",
"//////// 6  7AATRQ!~^^^^^^^^^^^^^^^^^^^N w  4vcSSHPIYYYYYYYYYYYYYYYYYYYYYYY:<r  dvbmFKPPYYYYYYYYYYYYYYYYYYY>8-  ////////////////",
"//////// 6  7AATEW!~^^^^^^^^^^^^^^^^^^^B w, 4bbnSHPIYYYYYYYYYYYYYYYYYYYYYYY:9w  fbbnFKPUYYYYYYYYYYYYYYYYYYY:t   ////////////////",
"//////// 6  7AATRQ!~^^^^^^^^^^^^^^^^^^^N w9 &000yipadfdffddfdffdffddfffdddf@ew  500quiaddddffdddfffffddddfd%t   ////////////////",
"//////// 6  7AATRW~~^^^^^^^^^^^^^^^^^^^8 rw                               =9t9                             86   ////////////////",
"//////// 6  7AAAEW!~^^^^^^^^^^^^^^^^^^V +w      +<66666<6<666<6666666<8ettttr<      +<666<666<66666676,==,wr    ////////////////",
"//////// 6  7AATEW!~^^^^^^^^^^^^^^^^^V X9                                   O                        7tNtttO    ////////////////",
"//////// 6  7AATRQ!~^^^^^^^^^^^^^^^^V +r                                                               +89X     ////////////////",
"//////// 6  7AATRW~~^^^^^^^^^^^^^^^V +N   O66<<6666676676677667776766767676O    ,<<666676776766767676776O       ////////////////",
"//////// 6  7AATEW!~~^^^^^^^^^^^^^V +t   <RAAZCZZZAAATAAATAATAAAATAATAAATAA=    tCCCZZAAATAAATAATAAAAAA,       /////////////////",
"//////// 6  7AATEW!~^^^^^^^^^^^^^V +t   <RTAZZZZZAAAAAAAAAAAAAAAAAAAAAAAAAA=    tCCCZZAAAAAAAAAAAAAAAZ,.      //////////////////",
"//////// 6  7AATRQ!~^^^^^^^^^^^^V +t   <RTAAZAZAATTATTTTTTTATTATTTTTTATTATT-    NCCCZAATATTTATTTTTTAA,+,     ///////////////////",
"//////// 6  7AATRW~~^^^^^^^^^^^V Ot   <RTAAZAATTRRRRRERRRRREREERRERRRERERER-    NCCZATRRRERRERERRERR, e     ////////////////////",
"//////// 6  7AAAEW!~^^^^^^^^^^V ON   <RRTAAAAREWWWQQQWWQQQQWQWWQWQWQQQWWWWW- -  NZZATREWWQWQWQWQQWW< e6    /////////////////////",
"//////// 6  7AATEW!~^^^^^^^^^V +t   <RTAAAATRWWQ!!!!!~!!!!!!~!!!!!!!!!!!!!!- ,  NZAARWQQ!!!!!!!!!Q< 99   ///////////////////////",
"//////// 6  7AATRQ!~^^^^^^^^V +t   <RRAAAATRWQ!~~~~~~~~~~~~~~~~~~~~~~~~~~~~, ,  BAATEW!~~~~~~~~~~6 89   ////////////////////////",
"//////// 6  7AATRW~~^^^^^^^V +N   <RRAAAATEWQ~~~~^^^^~^~^^^^^~^^^^^^^^^^^^^- ,  BAATEQ!~^^^^^^^~6 99   /////////////////////////",
"//////// 6  7AATEW!~~^^^^^V +t   <RTAZAATRWQ!~~^^^^^^^^^^^^^^^^^^^^^^^^^^^^, ,  BAATEQ~~^^^^^^~6 89   //////////////////////////",
"//////// 6  7AATRW!~^^^^^V +t   <RTAAZATRWQ~~^^^^^^^^^^^^^^^^^^^^^^^^^^^^^^, <  BAATEQ~^^^^^^~6 89   ///////////////////////////",
"//////// 6  7AATRQ~~^^^^V +t   <RRTAAATEWQ!~~^^^^^^^^^^^^^^^^^^^^^^^^^^^^^^, ,  BAATEQ~~^^^^~6 8w   ////////////////////////////",
"//////// 6  7AATEW!~~^^V +t   <RTTZAATRWQ!~~^^^^^^^^^^^^^^^^^^^^^^^^^^^^^^^, ,  VAAREQ~~^^^~6 99   /////////////////////////////",
"//////// 6  7AATRQ!~^^V +t   <RRAAAATEWQ~~^^^^^^^^^^^^^^^^^^^^^^^^^^^^^^^^^, ,  BAATWQ~~^^~6 99   //////////////////////////////",
"//////// 6  7AATRQ!~^V +t   <RTTAZATRWQ!~~^^^^^^^^^^^^^^^^^^^^^^^^^^^^^^^^^, ,  BAATEQ~~^~6 99   ///////////////////////////////",
"//////// 6  7AAAEW!~V ON   <RRAAAATEWQ~~~^^^^^^^^^^^^^^^^^^^^^^^^^^^^^^^^^^, ,  BATTWQ~~~6 99   ////////////////////////////////",
"//////// 6  7AATRW!B +t   <RTAAZATRWQ~~^^^^^^^^^^^^^^^^^^^^^^^^^^^^^^^^^^^^, ,  BAATEQ!~6 89   /////////////////////////////////",
"//////// 6  7AATRQB +t   <RRTAAATEWQ!~~^^^^^^^^^^^^^^^^^^^^^^^^^^^^^^^^^^^^- ,  BATTEQ!6 99   //////////////////////////////////",
"//////// 7  7AATRt +t   <RRAAAATEWQ~~~^^^^^^^^^^^^^^^^^^^^^^^^^^^^^^^^^^^^^, <  BAAREQ< 99   ///////////////////////////////////",
"//////// 7  7AATt.+t   6RRAAZATEWQ!~~^^^^^^^^^^^^^^^^^^^^^^^^^^^^^^^^^^^^^^, 7  BAATR< 99   ////////////////////////////////////",
"//////// 6, 7AAr ,t   <RTAAAATRWQ!~~^^^^^^^^^^^^^^^^^^^^^^^^^^^^^^^^^^^^^^^- 9  BAAT< 89   /////////////////////////////////////",
"//////// ,e 7Ae 8t   6RRTAZATEWQ~~~^^^^^^^^^^^^^^^^^^^^^^^^^^^^^^^^^^^^^^^^, e  VAZ, w9   //////////////////////////////////////",
"//////// Ot 7e.<6   <RTAAAATRWQ~~^^^^^^^^^^^^^^^^^^^^^^^^^^^^^^^^^^^^^^^^^^, r, BZ,Or8   ///////////////////////////////////////",
"////////  t8-      6RRTAZATEWQ!~~^^^^^^^^^^^^^^^^^^^^^^^^^^^^^^^^^^^^^^^^^^, we N,X8O   ////////////////////////////////////////",
"////////  9tO     <TTAZAATRWQ!~~^^^^^^^^^^^^^^^^^^^^^^^^^^^^^^^^^^^^^^^^^^^, 8t -      /////////////////////////////////////////",
"////////  ,t-    <ATAAAATEWQ~~^^^^^^^^^^^^^^^^^^^^^^^^^^^^^^^^^^^^^^^^^^^^^, 8t-      //////////////////////////////////////////",
"////////  Ow+   ,ZAZAAATEWQ!~~^^^^^^^^^^^^^^^^^^^^^^^^^^^^^^^^^^^^^^^^^^^^^, wr      ///////////////////////////////////////////",
"////////   <   +wwwwwwerrtNBNBBBBBBBBBBBBBBBBBBBBBBBBBBBBBBBBBBBBBBBBBBBBBB+9rO      ///////////////////////////////////////////",
"////////                                                                 O8rw       ////////////////////////////////////////////",
"////////            +,<6666<66<66<666<6666<66<66<666<666<666<6<666<6667wtr6        /////////////////////////////////////////////",
"////////                                                                          //////////////////////////////////////////////",
"////////                                                                         ///////////////////////////////////////////////",
"////////                                                                        ////////////////////////////////////////////////",
"////////////////////////////////////////////////////////////////////////////////////////////////////////////////////////////////",
"////////////////////////////////////////////////////////////////////////////////////////////////////////////////////////////////",
"////////////////////////////////////////////////////////////////////////////////////////////////////////////////////////////////",
"////////////////////////////////////////////////////////////////////////////////////////////////////////////////////////////////",
"////////////////////////////////////////////////////////////////////////////////////////////////////////////////////////////////",
"////////////////////////////////////////////////////////////////////////////////////////////////////////////////////////////////",
"////////////////////////////////////////////////////////////////////////////////////////////////////////////////////////////////",
"////////////////////////////////////////////////////////////////////////////////////////////////////////////////////////////////",
"////////////////////////////////////////////////////////////////////////////////////////////////////////////////////////////////"
};
