/* XPM */
static char *colorbyblock[] = {
/* columns rows colors chars-per-pixel */
"128 128 68 1 ",
"  c black",
". c #111111",
"X c #1E1E1E",
"o c #232323",
"O c #252525",
"+ c gray15",
"@ c gray19",
"# c #313131",
"$ c #343434",
"% c #393939",
"& c #3A3A3A",
"* c #3C3C3C",
"= c #3F3F3F",
"- c #4B4B4B",
"; c #4C4C4C",
": c gray31",
"> c #505050",
", c #5D5D5D",
"< c #626262",
"1 c #656565",
"2 c gray42",
"3 c #6C6C6C",
"4 c #6D6D6D",
"5 c gray43",
"6 c #777777",
"7 c #7E7E7E",
"8 c gray50",
"9 c #8B8B8B",
"0 c gray55",
"q c gray56",
"w c gray57",
"e c gray58",
"r c #9B9B9B",
"t c #A4A4A4",
"y c gray67",
"u c gray69",
"i c gray70",
"p c gray74",
"a c gray75",
"s c #C0C0C0",
"d c gray76",
"f c gray77",
"g c #C5C5C5",
"h c #C6C6C6",
"j c gray78",
"k c gray79",
"l c #CACACA",
"z c #CDCDCD",
"x c #CECECE",
"c c #D0D0D0",
"v c #D5D5D5",
"b c gray85",
"n c gray86",
"m c gainsboro",
"M c #E1E1E1",
"N c #E6E6E6",
"B c gray91",
"V c #E9E9E9",
"C c #EFEFEF",
"Z c gray95",
"A c #F3F3F3",
"S c #F6F6F6",
"D c #F9F9F9",
"F c gray98",
"G c #FDFDFD",
"H c #FEFEFE",
"J c white",
"K c None",
/* pixels */
"KKKKKKKKKKKKKKKKKKKKKKKKKKKKKKKKKKKKKKKKKKKKKKKKKKKKKKKKKKKKKKKKKKKKKKKKKKKKKKKKKKKKKKKKKKKKKKKKKKKKKKKKKKKKKKKKKKKKKKKKKKKKKKKK",
"KKKKKKKKKKKKKKKKKKKKKKKKKKKKKKKKKKKKKKKKKKKKKKKKKKKKKKKKKKKKKKKKKKKKKKKKKKKKKKKKKKKKKKKKKKKKKKKKKKKKKKKKKKKKKKKKKKKKKKKKKKKKKKKK",
"KKKKKKKKKKKKKKKKKKKKKKKKKKKKKKKKKKKKKKKKKKKKKKKKKKKKKKKKKKKKKKKKKKKKKKKKKKKKKKKKKKKKKKKKKKKKKKKKKKKKKKKKKKKKKKKKKKKKKKKKKKKKKKKK",
"KKKKKKKKKKKKKKKKKKKKKKKKKKKKKKKKKKKKKKKKKKKKKKKKKKKKKKKKKKKKKKKKKKKKKKKKKKKKKKKKKKKKKKKKKKKKKKKKKKKKKKKKKKKKKKKKKKKKKKKKKKKKKKKK",
"KKKKKKKKKKKKKKKKKKKKKKKKKKKKKKKKKKKKKKKKKKKKKKKKKKKKKKKKKKKKKKKKKKKKKKKKKKKKKKKKKKKKKKKKKKKKKKKKKKKKKKKKKKKKKKKKKKKKKKKKKKKKKKKK",
"KKKKKKKKKKKKKKKKKKKKKKKKKKKKKKKKKKKKKKKKKKKKKKKKKKKKKKKKKKKKKKKKKKKKKKKKKKKKKKKKKKKKKKKKKKKKKKKKKKKKKKKKKKKKKKKKKKKKKKKKKKKKKKKK",
"KKKKKKKKKKKKKKKKKKKKKKKKKKKKKKKKKKKKKKKKKKKKKKKKKKKKKKKKKKKKKKKKKKKKKKKKKKKKKKKKKKKKKKKKKKKKKKKKKKKKKKKKKKKKKKKKKKKKKKKKKKKKKKKK",
"KKKKKKKKKKKKKKKKKKKKKKKKKKKKKKKKKKKKKKKKKKKKKKKKKKKKKKKKKKKKKKKKKKKKKKKKKKKKKKKKKKKKKKKKKKKKKKKKKKKKKKKKKKKKKKKKKKKKKKKKKKKKKKKK",
"KKKKKKKKKKKKKKKKKKKKKKKKKKKKKKKKKKKKKKKKKKKKKKKKKKKKKKKKKKKKKKKKKKKKKKKKKKKKKKKKKKKKKKKKKKKKKKKKKKKKKKKKKKKKKKKKKKKKKKKKKKKKKKKK",
"KKKKKKKKKKKKKKKKKKKKKKKKKKKKKKKKKKKKKKKKKKKKKKKKKKKKKKKKKKKKKKKKKKKKKKKKKKKKKKKKKKKKKKKKKKKKKKKKKKKKKKKKKKKKKKKKKKKKKKKKKKKKKKKK",
"KKKKKKKKKKK                                                                                                          KKKKKKKKKKK",
"KKKKKKKKKK                                                                                                            KKKKKKKKKK",
"KKKKKKKKKK   +X  .o#&***************************************************************************************;,23;     KKKKKKKKKK",
"KKKKKKKKKK  +8+                                                                                                 >>    KKKKKKKKKK",
"KKKKKKKKKK  X+                                                                                                        KKKKKKKKKK",
"KKKKKKKKKK     3ewqqqqqqqqqqqqqqqqqqqqqqqqqqqqwwqqqqqqqqqqqqqqqqqqqqqqqqqqqqqqqqqqqqqqqqqqqqqqqqqqqqqqqqqqqqwqqq1     KKKKKKKKKK",
"KKKKKKKKKK     elfddffffflflfflfflfflfflfflfflfflffflffflffflfffffflfflfflfflfflffflfflfflfflffllffflffflffflfff9     KKKKKKKKKK",
"KKKKKKKKKK  .  wfaadddfllffllfflfllfflfllfflfllfffllffllffllffllllfllfflfllfflflflfllfflfllfflflffllffllffllffllq     KKKKKKKKKK",
"KKKKKKKKKK  o  qdapdllxxxxxxxxxxxxxxxxxxxxxxxxxxcxxxcxxxcxxxcxxxxxxxxxxxxxxxxxxxcxxxxxxxxxxxxxxxcxxxcxxxcxxxcxxxw     KKKKKKKKKK",
"KKKKKKKKKK  #  qdddfxvbmbmmmmmmmmmmmmmmmmmmmmmmmmmmmmmmmmmmmmmmmbmmmmmmmmmmmmmmmmmmmmmmmmmmmmmmmmmmmmmmmmmmmmmmmr X   KKKKKKKKKK",
"KKKKKKKKKK  &  qddfcbMNNVVVVVVVVVVVVVVVVVVVVVVVVVVVVVVVVVVVVVVVVVVVVVVVVVVVVVVVVVVVVVVVVVVVVVVVVVVVVVVVVVVVVVVVVt #   KKKKKKKKKK",
"KKKKKKKKKK  *  qfdlvMVCZZZZSSZSZZSZZZZZSZSZSZSZSSZZZZSZZSZZZZSZZZZZSSZZZZSZZZZZSZZZSSZZZZSZZZZZSSZZZZSZZSZZZZSZZy $   KKKKKKKKKK",
"KKKKKKKKKK  *  qffxbVCSDDDGDDGDDGDDGDDGDDDGDDDGDDGDDGDDGDGDDGDDGDDGDDGDDGDDGDDGDDDGDDGDDGDDGDDGDDGDDGDDGDGDDGDDGu $   KKKKKKKKKK",
"KKKKKKKKKK  *  qflxmVZDGGGGGGGGGGGGGGGGGGGGGGGGGGGGGGGGGGGGGGGGGGGGGGGGGGGGGGGGGGGGGGGGGGGGGGGGGGGGGGGGGGGGGGGGGu $   KKKKKKKKKK",
"KKKKKKKKKK  *  qffxmVZGGGGGGGGGGGGGGGGGGGGGGGGGGGGGGGGGGGGGGGGGGGGGGGGGGGGGGGGGGGGGGGGGGGGGGGGGGGGGGGGGGGGGGGGGGi $   KKKKKKKKKK",
"KKKKKKKKKK  *  qllxmVSDGGGGGGGGGGGGGGGGGGGGGGGGGGGGGGGGGGGGGGGGGGGGGGGGGGGGGGGGGGGGGGGGGGGGGGGGGGGGGGGGGGGGGGGGGi $   KKKKKKKKKK",
"KKKKKKKKKK  *  qflxmVZDGGGGGGGGGGGGGGGGGGGGGGGGGGGGGGGGGGGGGGGGGGGGGGGGGGGGGGGGGGGGGGGGGGGGGGGGGGGGGGGGGGGGGGGGGi $   KKKKKKKKKK",
"KKKKKKKKKK  *  qffxmVZGGGGGGGGGGGGGGGGGGGGGGGGGGGGGGGGGGGGGGGGGGGGGGGGGGGGGGGGGGGGGGGGGGGGGGGGGGGGGGGGGGGGGGGGGGi $   KKKKKKKKKK",
"KKKKKKKKKK  *  qlfxmVZDGGGGGGGGGGGGGGGGGGGGGGGGGGGGGGGGGGGGGGGGGGGGGGGGGGGGGGGGGGGGGGGGGGGGGGGGGGGGGGGGGGGGGGGGGi $   KKKKKKKKKK",
"KKKKKKKKKK  *  qflxmVZDGGGGGGGGGGGGGGGGGGGGGGGGGGGGGGGGGGGGGGGGGGGGGGGGGGGGGGGGGGGGGGGGGGGGGGGGGGGGGGGGGGGGGGGGGi $   KKKKKKKKKK",
"KKKKKKKKKK  *  qffxmVZGGGGGGGGGGGGGGGGGGGGGGGGGGGGGGGGGGGGGGGGGGGGGGGGGGGGGGGGGGGGGGGGGGGGGGGGGGGGGGGGGGGGGGGGGGi $   KKKKKKKKKK",
"KKKKKKKKKK  *  qllxmVSDGGGGGGGGGGGGGGGGGGGGGGGGGGGGGGGGGGGGGGGGGGGGGGGGGGGGGGGGGGGGGGGGGGGGGGGGGGGGGGGGGGGGGGGGGi $   KKKKKKKKKK",
"KKKKKKKKKK  *  qlfcmVSDGGGGGGGGGGGGGGGGGGGGGGGGGGGGGGGGGGGGGGGGGGGGGGGGGGGGGGGGGGGGGGGGGGGGGGGGGGGGGGGGGGGGGGGGGi $   KKKKKKKKKK",
"KKKKKKKKKK  *  qffxmVZGGGGGGGGGGGGGGGGGGGGGGGGGGGGGGGGGGGGGGGGGGGGGGGGGGGGGGGGGGGGGGGGGGGGGGGGGGGGGGGGGGGGGGGGGGi $   KKKKKKKKKK",
"KKKKKKKKKK  *  qflxmVZDGGGGGGGGGGGGGGGGGGGGGGGGGGGGGGGGGGGGGGGGGGGGGGGGGGGGGGGGGGGGGGGGGGGGGGGGGGGGGGGGGGGGGGGGGi $   KKKKKKKKKK",
"KKKKKKKKKK  *  qflxmVZDGGGGGGGGGGGGGGGGGGGGGGGGGGGGGGGGGGGGGGGGGGGGGGGGGGGGGGGGGGGGGGGGGGGGGGGGGGGGGGGGGGGGGGGGGi $   KKKKKKKKKK",
"KKKKKKKKKK  *  qlfcmVZGGGGGGGGGGGGGGGGGGGGGGGGGGGGGGGGGGGGGGGGGGGGGGGGGGGGGGGGGGGGGGGGGGGGGGGGGGGGGGGGGGGGGGGGGGi $   KKKKKKKKKK",
"KKKKKKKKKK  *  qffxmVSDGGGGGGGGGGGGGGGGGGGGGGGGGGGGGGGGGGGGGGGGGGGGGGGGGGGGGGGGGGGGGGGGGGGGGGGGGGGGGGGGGGGGGGGGGi $   KKKKKKKKKK",
"KKKKKKKKKK  *  qflxmVZDGGGGGGGGGGGGGGGGGGGGGGGGGGGGGGGGGGGGGGGGGGGGGGGGGGGGGGGGGGGGGGGGGGGGGGGGGGGGGGGGGGGGGGGGGi $   KKKKKKKKKK",
"KKKKKKKKKK  *  qflxmVZGGGGGGGGGGGGGGGGGGGGGGGGGGGGGGGGGGGGGGGGGGGGGGGGGGGGGGGGGGGGGGGGGGGGGGGGGGGGGGGGGGGGGGGGGGi $   KKKKKKKKKK",
"KKKKKKKKKK  *  qlfcmVSDGGGGGGGGGGGGGGGGGGGGGGGGGGGGGGGGGGGGGGGGGGGGGGGGGGGGGGGGGGGGGGGGGGGGGGGGGGGGGGGGGGGGGGGGGi $   KKKKKKKKKK",
"KKKKKKKKKK  *  qffxmVZGGGGGGGGGGGGGGGGGGGGGGGGGGGGGGGGGGGGGGGGGGGGGGGGGGGGGGGGGGGGGGGGGGGGGGGGGGGGGGGGGGGGGGGGGGi $   KKKKKKKKKK",
"KKKKKKKKKK  *  qflxmVZDGGGGGGGGGGGGGGGGGGGGGGGGGGGGGGGGGGGGGGGGGGGGGGGGGGGGGGGGGGGGGGGGGGGGGGGGGGGGGGGGGGGGGGGGGi $   KKKKKKKKKK",
"KKKKKKKKKK  *  qflxmVZDGGGGGGGGGGGGGGGGGGGGGGGGGGGGGGGGGGGGGGGGGGGGGGGGGGGGGGGGGGGGGGGGGGGGGGGGGGGGGGGGGGGGGGGGGi $   KKKKKKKKKK",
"KKKKKKKKKK  *  qlfcmVZGGGGGGGGGGGGGGGGGGGGGGGGGGGGGGGGGGGGGGGGGGGGGGGGGGGGGGGGGGGGGGGGGGGGGGGGGGGGGGGGGGGGGGGGGGi $   KKKKKKKKKK",
"KKKKKKKKKK  *  qffxmVSDGGGGGGGGGGGGGGGGGGGGGGGGGGGGGGGGGGGGGGGGGGGGGGGGGGGGGGGGGGGGGGGGGGGGGGGGGGGGGGGGGGGGGGGGGi $   KKKKKKKKKK",
"KKKKKKKKKK  *  qflxmVZDGGGGGGGGGGGGGGGGGGGGGGGGGGGGGGGGGGGGGGGGGGGGGGGGGGGGGGGGGGGGGGGGGGGGGGGGGGGGGGGGGGGGGGGGGi $   KKKKKKKKKK",
"KKKKKKKKKK  *  qflxmVZGGGGGGGGGGGGGGGGGGGGGGGGGGGGGGGGGGGGGGGGGGGGGGGGGGGGGGGGGGGGGGGGGGGGGGGGGGGGGGGGGGGGGGGGGGi $   KKKKKKKKKK",
"KKKKKKKKKK  *  qflxmVZDGGGGGGGGGGGGGGGGGGGGGGGGGGGGGGGGGGGGGGGGGGGGGGGGGGGGGGGGGGGGGGGGGGGGGGGGGGGGGGGGGGGGGGGGGi $   KKKKKKKKKK",
"KKKKKKKKKK  *  qffxmVSGGGGGGGGGGGGGGGGGGGGGGGGGGGGGGGGGGGGGGGGGGGGGGGGGGGGGGGGGGGGGGGGGGGGGGGGGGGGGGGGGGGGGGGGGGi $   KKKKKKKKKK",
"KKKKKKKKKK  *  qlfxmVZDGGGGGGGGGGGGGGGGGGGGGGGGGGGGGGGGGGGGGGGGGGGGGGGGGGGGGGGGGGGGGGGGGGGGGGGGGGGGGGGGGGGGGGGGGi $   KKKKKKKKKK",
"KKKKKKKKKK  *  qflxmVZGGGGGGGGGGGGGGGGGGGGGGGGGGGGGGGGGGGGGGGGGGGGGGGGGGGGGGGGGGGGGGGGGGGGGGGGGGGGGGGGGGGGGGGGGGi $   KKKKKKKKKK",
"KKKKKKKKKK  *  qffxmVZDGGGGGGGGGGGGGGGGGGGGGGGGGGGGGGGGGGGGGGGGGGGGGGGGGGGGGGGGGGGGGGGGGGGGGGGGGGGGGGGGGGGGGGGGGi $   KKKKKKKKKK",
"KKKKKKKKKK  *  qllxmVSGGGGGGGGGGGGGGGGGGGGGGGGGGGGGGGGGGGGGGGGGGGGGGGGGGGGGGGGGGGGGGGGGGGGGGGGGGGGGGGGGGGGGGGGGGi $   KKKKKKKKKK",
"KKKKKKKKKK  *  qflxmVZDGGGGGGGGGGGGGGGGGGGGGGGGGGGGGGGGGGGGGGGGGGGGGGGGGGGGGGGGGGGGGGGGGGGGGGGGGGGGGGGGGGGGGGGGGi $   KKKKKKKKKK",
"KKKKKKKKKK  *  qffxmVZGGGGGGGGGGGGGGGGGGGGGGGGGGGGGGGGGGGGGGGGGGGGGGGGGGGGGGGGGGGGGGGGGGGGGGGGGGGGGGGGGGGGGGGGGGi $   KKKKKKKKKK",
"KKKKKKKKKK  *  qlfxmVZDGGGGGGGGGGGGGGGGGGGGGGGGGGGGGGGGGGGGGGGGGGGGGGGGGGGGGGGGGGGGGGGGGGGGGGGGGGGGGGGGGGGGGGGGGi $   KKKKKKKKKK",
"KKKKKKKKKK  *  qflxmVZDGGGGGGGGGGGGGGGGGGGGGGGGGGGGGGGGGGGGGGGGGGGGGGGGGGGGGGGGGGGGGGGGGGGGGGGGGGGGGGGGGGGGGGGGGi $   KKKKKKKKKK",
"KKKKKKKKKK  *  qffxmVZGGGGGGGGGGGGGGGGGGGGGGGGGGGGGGGGGGGGGGGGGGGGGGGGGGGGGGGGGGGGGGGGGGGGGGGGGGGGGGGGGGGGGGGGGGi $   KKKKKKKKKK",
"KKKKKKKKKK  *  qllxmVSDGGGGGGGGGGGGGGGGGGGGGGGGGGGGGGGGGGGGGGGGGGGGGGGGGGGGGGGGGGGGGGGGGGGGGGGGGGGGGGGGGGGGGGGGGi $   KKKKKKKKKK",
"KKKKKKKKKK  *  qflxmVSDGGGGGGGGGGGGGGGGGGGGGGGGGGGGGGGGGGGGGGGGGGGGGGGGGGGGGGGGGGGGGGGGGGGGGGGGGGGGGGGGGGGGGGGGGi $   KKKKKKKKKK",
"KKKKKKKKKK  *  qffxmVZGGGGGGGGGGGGGGGGGGGGGGGGGGGGGGGGGGGGGGGGGGGGGGGGGGGGGGGGGGGGGGGGGGGGGGGGGGGGGGGGGGGGGGGGGGi $   KKKKKKKKKK",
"KKKKKKKKKK  *  qlfxmVZDGGGGGGGGGGGGGGGGGGGGGGGGGGGGGGGGGGGGGGGGGGGGGGGGGGGGGGGGGGGGGGGGGGGGGGGGGGGGGGGGGGGGGGGGGi $   KKKKKKKKKK",
"KKKKKKKKKK  *  qflxmVZGGGGGGGGGGGGGGGGGGGGGGGGGGGGGGGGGGGGGGGGGGGGGGGGGGGGGGGGGGGGGGGGGGGGGGGGGGGGGGGGGGGGGGGGGGi $   KKKKKKKKKK",
"KKKKKKKKKK  *  qffxmVZGGGGGGGGGGGGGGGGGGGGGGGGGGGGGGGGGGGGGGGGGGGGGGGGGGGGGGGGGGGGGGGGGGGGGGGGGGGGGGGGGGGGGGGGGGi $   KKKKKKKKKK",
"KKKKKKKKKK  *  qllxmVSDGGGGGGGGGGGGGGGGGGGGGGGGGGGGGGGGGGGGGGGGGGGGGGGGGGGGGGGGGGGGGGGGGGGGGGGGGGGGGGGGGGGGGGGGGi $   KKKKKKKKKK",
"KKKKKKKKKK  *  qflxmVZDGGGGGGGGGGGGGGGGGGGGGGGGGGGGGGGGGGGGGGGGGGGGGGGGGGGGGGGGGGGGGGGGGGGGGGGGGGGGGGGGGGGGGGGGGi $   KKKKKKKKKK",
"KKKKKKKKKK  *  qffxmVZGGGGGGGGGGGGGGGGGGGGGGGGGGGGGGGGGGGGGGGGGGGGGGGGGGGGGGGGGGGGGGGGGGGGGGGGGGGGGGGGGGGGGGGGGGi $   KKKKKKKKKK",
"KKKKKKKKKK  *  qlfxmVZDGGGGGGGGGGGGGGGGGGGGGGGGGGGGGGGGGGGGGGGGGGGGGGGGGGGGGGGGGGGGGGGGGGGGGGGGGGGGGGGGGGGGGGGGGi $   KKKKKKKKKK",
"KKKKKKKKKK  *  qflxmVZDGGGGGGGGGGGGGGGGGGGGGGGGGGGGGGGGGGGGGGGGGGGGGGGGGGGGGGGGGGGGGGGGGGGGGGGGGGGGGGGGGGGGGGGGGi $   KKKKKKKKKK",
"KKKKKKKKKK  *  qffxmVZGGGGGGGGGGGGGGGGGGGGGGGGGGGGGGGGGGGGGGGGGGGGGGGGGGGGGGGGGGGGGGGGGGGGGGGGGGGGGGGGGGGGGGGGGGi $   KKKKKKKKKK",
"KKKKKKKKKK  *  qllxmVSDGGGGGGGGGGGGGGGGGGGGGGGGGGGGGGGGGGGGGGGGGGGGGGGGGGGGGGGGGGGGGGGGGGGGGGGGGGGGGGGGGGGGGGGGGi $   KKKKKKKKKK",
"KKKKKKKKKK  *  qflxmVZDGGGGGGGGGGGGGGGGGGGGGGGGGGGGGGGGGGGGGGGGGGGGGGGGGGGGGGGGGGGGGGGGGGGGGGGGGGGGGGGGGGGGGGGGGi $   KKKKKKKKKK",
"KKKKKKKKKK  *  qffxmVSDGGGGGGGGGGGGGGGGGGGGGGGGGGGGGGGGGGGGGGGGGGGGGGGGGGGGGGGGGGGGGGGGGGGGGGGGGGGGGGGGGGGGGGGGGi $   KKKKKKKKKK",
"KKKKKKKKKK  *  qlfxmVZGGGGGGGGGGGGGGGGGGGGGGGGGGGGGGGGGGGGGGGGGGGGGGGGGGGGGGGGGGGGGGGGGGGGGGGGGGGGGGGGGGGGGGGGGGi $   KKKKKKKKKK",
"KKKKKKKKKK  *  qflxmVSDGGGGGGGGGGGGGGGGGGGGGGGGGGGGGGGGGGGGGGGGGGGGGGGGGGGGGGGGGGGGGGGGGGGGGGGGGGGGGGGGGGGGGGGGGi $   KKKKKKKKKK",
"KKKKKKKKKK  *  qffxmVZDGGGGGGGGGGGGGGGGGGGGGGGGGGGGGGGGGGGGGGGGGGGGGGGGGGGGGGGGGGGGGGGGGGGGGGGGGGGGGGGGGGGGGGGGGi $   KKKKKKKKKK",
"KKKKKKKKKK  *  qllxmVSDGGGGGGGGGGGGGGGGGGGGGGGGGGGGGGGGGGGGGGGGGGGGGGGGGGGGGGGGGGGGGGGGGGGGGGGGGGGGGGGGGGGGGGGGGi $   KKKKKKKKKK",
"KKKKKKKKKK  *  wflxmVZGGGGGGGGGGGGGGGGGGGGGGGGGGGGGGGGGGGGGGGGGGGGGGGGGGGGGGGGGGGGGGGGGGGGGGGGGGGGGGGGGGGGGGGGGGi $   KKKKKKKKKK",
"KKKKKKKKKK  *  wffxmVSDGGGGGGGGGGGGGGGGGGGGGGGGGGGGGGGGGGGGGGGGGGGGGGGGGGGGGGGGGGGGGGGGGGGGGGGGGGGGGGGGGGGGGGGGGi $   KKKKKKKKKK",
"KKKKKKKKKK  *  qlfcmVSDGGGGGGGGGGGGGGGGGGGGGGGGGGGGGGGGGGGGGGGGGGGGGGGGGGGGGGGGGGGGGGGGGGGGGGGGGGGGGGGGGGGGGGGGGi $   KKKKKKKKKK",
"KKKKKKKKKK  *  qffxmVZGGGGGGGGGGGGGGGGGGGGGGGGGGGGGGGGGGGGGGGGGGGGGGGGGGGGGGGGGGGGGGGGGGGGGGGGGGGGGGGGGGGGGGGGGGi $   KKKKKKKKKK",
"KKKKKKKKKK  *  qflxmVZDGGGGGGGGGGGGGGGGGGGGGGGGGGGGGGGGGGGGGGGGGGGGGGGGGGGGGGGGGGGGGGGGGGGGGGGGGGGGGGGGGGGGGGGGGi $   KKKKKKKKKK",
"KKKKKKKKKK  *  qflxmVZDGGGGGGGGGGGGGGGGGGGGGGGGGGGGGGGGGGGGGGGGGGGGGGGGGGGGGGGGGGGGGGGGGGGGGGGGGGGGGGGGGGGGGGGGGi $   KKKKKKKKKK",
"KKKKKKKKKK  *  qlfcmVZGGGGGGGGGGGGGGGGGGGGGGGGGGGGGGGGGGGGGGGGGGGGGGGGGGGGGGGGGGGGGGGGGGGGGGGGGGGGGGGGGGGGGGGGGGi $   KKKKKKKKKK",
"KKKKKKKKKK  *  qffxmVSDGGGGGGGGGGGGGGGGGGGGGGGGGGGGGGGGGGGGGGGGGGGGGGGGGGGGGGGGGGGGGGGGGGGGGGGGGGGGGGGGGGGGGGGGGi $   KKKKKKKKKK",
"KKKKKKKKKK  *  qflxmVZDGGGGGGGGGGGGGGGGGGGGGGGGGGGGGGGGGGGGGGGGGGGGGGGGGGGGGGGGGGGGGGGGGGGGGGGGGGGGGGGGGGGGGGGGGi $   KKKKKKKKKK",
"KKKKKKKKKK  *  qflxmVZGGGGGGGGGGGGGGGGGGGGGGGGGGGGGGGGGGGGGGGGGGGGGGGGGGGGGGGGGGGGGGGGGGGGGGGGGGGGGGGGGGGGGGGGGGi $   KKKKKKKKKK",
"KKKKKKKKKK  *  qlfcmVSDGGGGGGGGGGGGGGGGGGGGGGGGGGGGGGGGGGGGGGGGGGGGGGGGGGGGGGGGGGGGGGGGGGGGGGGGGGGGGGGGGGGGGGGGGi $   KKKKKKKKKK",
"KKKKKKKKKK  *  qffxmVZGGGGGGGGGGGGGGGGGGGGGGGGGGGGGGGGGGGGGGGGGGGGGGGGGGGGGGGGGGGGGGGGGGGGGGGGGGGGGGGGGGGGGGGGGGi $   KKKKKKKKKK",
"KKKKKKKKKK  *  qflxmVZDGGGGGGGGGGGGGGGGGGGGGGGGGGGGGGGGGGGGGGGGGGGGGGGGGGGGGGGGGGGGGGGGGGGGGGGGGGGGGGGGGGGGGGGGGi $   KKKKKKKKKK",
"KKKKKKKKKK  *  qflxmVZDGGGGGGGGGGGGGGGGGGGGGGGGGGGGGGGGGGGGGGGGGGGGGGGGGGGGGGGGGGGGGGGGGGGGGGGGGGGGGGGGGGGGGGGGGi $   KKKKKKKKKK",
"KKKKKKKKKK  *  qlfcmVZGGGGGGGGGGGGGGGGGGGGGGGGGGGGGGGGGGGGGGGGGGGGGGGGGGGGGGGGGGGGGGGGGGGGGGGGGGGGGGGGGGGGGGGGGGi $   KKKKKKKKKK",
"KKKKKKKKKK  *  qffxmVSDGGGGGGGGGGGGGGGGGGGGGGGGGGGGGGGGGGGGGGGGGGGGGGGGGGGGGGGGGGGGGGGGGGGGGGGGGGGGGGGGGGGGGGGGGi $   KKKKKKKKKK",
"KKKKKKKKKK  *  qflxmVZDGGGGGGGGGGGGGGGGGGGGGGGGGGGGGGGGGGGGGGGGGGGGGGGGGGGGGGGGGGGGGGGGGGGGGGGGGGGGGGGGGGGGGGGGGi $   KKKKKKKKKK",
"KKKKKKKKKK  *  qflxmVZGGGGGGGGGGGGGGGGGGGGGGGGGGGGGGGGGGGGGGGGGGGGGGGGGGGGGGGGGGGGGGGGGGGGGGGGGGGGGGGGGGGGGGGGGGi $   KKKKKKKKKK",
"KKKKKKKKKK  *  qflxbVZDGGGGGGGGGGGGGGGGGGGGGGGGGGGGGGGGGGGGGGGGGGGGGGGGGGGGGGGGGGGGGGGGGGGGGGGGGGGGGGGGGGGGGGGGGi $   KKKKKKKKKK",
"KKKKKKKKKK  *  qflxmVZDGGGGGGGGGGGGGGGGGGGGGGGGGGGGGGGGGGGGGGGGGGGGGGGGGGGGGGGGGGGGGGGGGGGGGGGGGGGGGGGGGGGGGGGGGi $   KKKKKKKKKK",
"KKKKKKKKKK  *  qffxmVZGGGGGGGGGGGGGGGGGGGGGGGGGGGGGGGGGGGGGGGGGGGGGGGGGGGGGGGGGGGGGGGGGGGGGGGGGGGGGGGGGGGGGGGGGGi $   KKKKKKKKKK",
"KKKKKKKKKK  *  qllxmVSDGGGGGGGGGGGGGGGGGGGGGGGGGGGGGGGGGGGGGGGGGGGGGGGGGGGGGGGGGGGGGGGGGGGGGGGGGGGGGGGGGGGGGGGGGi $   KKKKKKKKKK",
"KKKKKKKKKK  *  qflxmVSDGGGGGGGGGGGGGGGGGGGGGGGGGGGGGGGGGGGGGGGGGGGGGGGGGGGGGGGGGGGGGGGGGGGGGGGGGGGGGGGGGGGGGGGGGi $   KKKKKKKKKK",
"KKKKKKKKKK  *  qffxmVZGGGGGGGGGGGGGGGGGGGGGGGGGGGGGGGGGGGGGGGGGGGGGGGGGGGGGGGGGGGGGGGGGGGGGGGGGGGGGGGGGGGGGGGGGGi $   KKKKKKKKKK",
"KKKKKKKKKK  *  qlfxmVZDGGGGGGGGGGGGGGGGGGGGGGGGGGGGGGGGGGGGGGGGGGGGGGGGGGGGGGGGGGGGGGGGGGGGGGGGGGGGGGGGGGGGGGGGGi $   KKKKKKKKKK",
"KKKKKKKKKK  *  qflxmVZDGGGGGGGGGGGGGGGGGGGGGGGGGGGGGGGGGGGGGGGGGGGGGGGGGGGGGGGGGGGGGGGGGGGGGGGGGGGGGGGGGGGGGGGGGi $   KKKKKKKKKK",
"KKKKKKKKKK  *  wffxmVZGGGGGGGGGGGGGGGGGGGGGGGGGGGGGGGGGGGGGGGGGGGGGGGGGGGGGGGGGGGGGGGGGGGGGGGGGGGGGGGGGGGGGGGGGGi $   KKKKKKKKKK",
"KKKKKKKKKK  *  wllxmVSDGGGGGGGGGGGGGGGGGGGGGGGGGGGGGGGGGGGGGGGGGGGGGGGGGGGGGGGGGGGGGGGGGGGGGGGGGGGGGGGGGGGGGGGGGi $   KKKKKKKKKK",
"KKKKKKKKKK  *  qflxmVZDGGGGGGGGGGGGGGGGGGGGGGGGGGGGGGGGGGGGGGGGGGGGGGGGGGGGGGGGGGGGGGGGGGGGGGGGGGGGGGGGGGGGGGGGGi $   KKKKKKKKKK",
"KKKKKKKKKK  *  qffxmVZGGGGGGGGGGGGGGGGGGGGGGGGGGGGGGGGGGGGGGGGGGGGGGGGGGGGGGGGGGGGGGGGGGGGGGGGGGGGGGGGGGGGGGGGGGi *   KKKKKKKKKK",
"KKKKKKKKKK  -  qlfxmVZDGGGGGGGGGGGGGGGGGGGGGGGGGGGGGGGGGGGGGGGGGGGGGGGGGGGGGGGGGGGGGGGGGGGGGGGGGGGGGGGGGGGGGGGGGi >   KKKKKKKKKK",
"KKKKKKKKKK  ,  qflxmVZDGGGGGGGGGGGGGGGGGGGGGGGGGGGGGGGGGGGGGGGGGGGGGGGGGGGGGGGGGGGGGGGGGGGGGGGGGGGGGGGGGGGGGGGGGi 3   KKKKKKKKKK",
"KKKKKKKKKK  2  qffxmVZGGGGGGGGGGGGGGGGGGGGGGGGGGGGGGGGGGGGGGGGGGGGGGGGGGGGGGGGGGGGGGGGGGGGGGGGGGGGGGGGGGGGGGGGGGu 9   KKKKKKKKKK",
"KKKKKKKKKK  3  wllxmVSDGGGGGGGGGGGGGGGGGGGGGGGGGGGGGGGGGGGGGGGGGGGGGGGGGGGGGGGGGGGGGGGGGGGGGGGGGGGGGGGGGGGGGGGGGiX6   KKKKKKKKKK",
"KKKKKKKKKK  ;> 19qqrtyuiiiiiiiiiiiiiiiiiiiiiiiiiiiiiiiiiiiiiiiiiiiiiiiiiiiiiiiiiiiiiiiiiiiiiiiiiiiiiiiiiiiiuiiiu8,$   KKKKKKKKKK",
"KKKKKKKKKK   >                                                                                                 X<9    KKKKKKKKKK",
"KKKKKKKKKK         X##$$$$$$$$$$$$$$$$$$$$$$$$$$$$$$$$$$$$$$$$$$$$$$$$$$$$$$$$$$$$$$$$$$$$$$$$$$$$$$$$$$$$$&>686&     KKKKKKKKKK",
"KKKKKKKKKK                                                                                                            KKKKKKKKKK",
"KKKKKKKKKK                                                                                                            KKKKKKKKKK",
"KKKKKKKKKKK                                                                                                          KKKKKKKKKKK",
"KKKKKKKKKKKKKKKKKKKKKKKKKKKKKKKKKKKKKKKKKKKKKKKKKKKKKKKKKKKKKKKKKKKKKKKKKKKKKKKKKKKKKKKKKKKKKKKKKKKKKKKKKKKKKKKKKKKKKKKKKKKKKKKK",
"KKKKKKKKKKKKKKKKKKKKKKKKKKKKKKKKKKKKKKKKKKKKKKKKKKKKKKKKKKKKKKKKKKKKKKKKKKKKKKKKKKKKKKKKKKKKKKKKKKKKKKKKKKKKKKKKKKKKKKKKKKKKKKKK",
"KKKKKKKKKKKKKKKKKKKKKKKKKKKKKKKKKKKKKKKKKKKKKKKKKKKKKKKKKKKKKKKKKKKKKKKKKKKKKKKKKKKKKKKKKKKKKKKKKKKKKKKKKKKKKKKKKKKKKKKKKKKKKKKK",
"KKKKKKKKKKKKKKKKKKKKKKKKKKKKKKKKKKKKKKKKKKKKKKKKKKKKKKKKKKKKKKKKKKKKKKKKKKKKKKKKKKKKKKKKKKKKKKKKKKKKKKKKKKKKKKKKKKKKKKKKKKKKKKKK",
"KKKKKKKKKKKKKKKKKKKKKKKKKKKKKKKKKKKKKKKKKKKKKKKKKKKKKKKKKKKKKKKKKKKKKKKKKKKKKKKKKKKKKKKKKKKKKKKKKKKKKKKKKKKKKKKKKKKKKKKKKKKKKKKK",
"KKKKKKKKKKKKKKKKKKKKKKKKKKKKKKKKKKKKKKKKKKKKKKKKKKKKKKKKKKKKKKKKKKKKKKKKKKKKKKKKKKKKKKKKKKKKKKKKKKKKKKKKKKKKKKKKKKKKKKKKKKKKKKKK",
"KKKKKKKKKKKKKKKKKKKKKKKKKKKKKKKKKKKKKKKKKKKKKKKKKKKKKKKKKKKKKKKKKKKKKKKKKKKKKKKKKKKKKKKKKKKKKKKKKKKKKKKKKKKKKKKKKKKKKKKKKKKKKKKK",
"KKKKKKKKKKKKKKKKKKKKKKKKKKKKKKKKKKKKKKKKKKKKKKKKKKKKKKKKKKKKKKKKKKKKKKKKKKKKKKKKKKKKKKKKKKKKKKKKKKKKKKKKKKKKKKKKKKKKKKKKKKKKKKKK",
"KKKKKKKKKKKKKKKKKKKKKKKKKKKKKKKKKKKKKKKKKKKKKKKKKKKKKKKKKKKKKKKKKKKKKKKKKKKKKKKKKKKKKKKKKKKKKKKKKKKKKKKKKKKKKKKKKKKKKKKKKKKKKKKK",
"KKKKKKKKKKKKKKKKKKKKKKKKKKKKKKKKKKKKKKKKKKKKKKKKKKKKKKKKKKKKKKKKKKKKKKKKKKKKKKKKKKKKKKKKKKKKKKKKKKKKKKKKKKKKKKKKKKKKKKKKKKKKKKKK"
};
