/* XPM */
static char *colorred[] = {
/* columns rows colors chars-per-pixel */
"128 128 68 1 ",
"  c black",
". c #111111",
"X c #1E1E1E",
"o c #232323",
"O c #252525",
"+ c gray15",
"@ c gray19",
"# c #313131",
"$ c #343434",
"% c #393939",
"& c #3A3A3A",
"* c #3C3C3C",
"= c #3F3F3F",
"- c #650000",
"; c #6C0000",
": c #7E0000",
"> c #4B4B4B",
", c #4C4C4C",
"< c gray31",
"1 c #505050",
"2 c #5D5D5D",
"3 c #626262",
"4 c gray42",
"5 c #6D6D6D",
"6 c gray43",
"7 c #777777",
"8 c gray50",
"9 c #8B0000",
"0 c #8C0000",
"q c #8F0000",
"w c #910000",
"e c #940000",
"r c #9B0000",
"t c #A40000",
"y c #AB0000",
"u c #B00000",
"i c #B30000",
"p c #BD0000",
"a c #BF0000",
"s c #C00000",
"d c #C20000",
"f c #C40000",
"g c #C50000",
"h c #C60000",
"j c #C70000",
"k c #C90000",
"l c #CA0000",
"z c #CD0000",
"x c #CE0000",
"c c #D00000",
"v c #D50000",
"b c #D90000",
"n c #DB0000",
"m c #DC0000",
"M c #E10000",
"N c #E60000",
"B c #E80000",
"V c #E90000",
"C c #EF0000",
"Z c #F20000",
"A c #F30000",
"S c #F60000",
"D c #F90000",
"F c #FA0000",
"G c #FD0000",
"H c #FE0000",
"J c red",
"K c None",
/* pixels */
"KKKKKKKKKKKKKKKKKKKKKKKKKKKKKKKKKKKKKKKKKKKKKKKKKKKKKKKKKKKKKKKKKKKKKKKKKKKKKKKKKKKKKKKKKKKKKKKKKKKKKKKKKKKKKKKKKKKKKKKKKKKKKKKK",
"KKKKKKKKKKKKKKKKKKKKKKKKKKKKKKKKKKKKKKKKKKKKKKKKKKKKKKKKKKKKKKKKKKKKKKKKKKKKKKKKKKKKKKKKKKKKKKKKKKKKKKKKKKKKKKKKKKKKKKKKKKKKKKKK",
"KKKKKKKKKKKKKKKKKKKKKKKKKKKKKKKKKKKKKKKKKKKKKKKKKKKKKKKKKKKKKKKKKKKKKKKKKKKKKKKKKKKKKKKKKKKKKKKKKKKKKKKKKKKKKKKKKKKKKKKKKKKKKKKK",
"KKKKKKKKKKKKKKKKKKKKKKKKKKKKKKKKKKKKKKKKKKKKKKKKKKKKKKKKKKKKKKKKKKKKKKKKKKKKKKKKKKKKKKKKKKKKKKKKKKKKKKKKKKKKKKKKKKKKKKKKKKKKKKKK",
"KKKKKKKKKKKKKKKKKKKKKKKKKKKKKKKKKKKKKKKKKKKKKKKKKKKKKKKKKKKKKKKKKKKKKKKKKKKKKKKKKKKKKKKKKKKKKKKKKKKKKKKKKKKKKKKKKKKKKKKKKKKKKKKK",
"KKKKKKKKKKKKKKKKKKKKKKKKKKKKKKKKKKKKKKKKKKKKKKKKKKKKKKKKKKKKKKKKKKKKKKKKKKKKKKKKKKKKKKKKKKKKKKKKKKKKKKKKKKKKKKKKKKKKKKKKKKKKKKKK",
"KKKKKKKKKKKKKKKKKKKKKKKKKKKKKKKKKKKKKKKKKKKKKKKKKKKKKKKKKKKKKKKKKKKKKKKKKKKKKKKKKKKKKKKKKKKKKKKKKKKKKKKKKKKKKKKKKKKKKKKKKKKKKKKK",
"KKKKKKKKKKKKKKKKKKKKKKKKKKKKKKKKKKKKKKKKKKKKKKKKKKKKKKKKKKKKKKKKKKKKKKKKKKKKKKKKKKKKKKKKKKKKKKKKKKKKKKKKKKKKKKKKKKKKKKKKKKKKKKKK",
"KKKKKKKKKKKKKKKKKKKKKKKKKKKKKKKKKKKKKKKKKKKKKKKKKKKKKKKKKKKKKKKKKKKKKKKKKKKKKKKKKKKKKKKKKKKKKKKKKKKKKKKKKKKKKKKKKKKKKKKKKKKKKKKK",
"KKKKKKKKKKKKKKKKKKKKKKKKKKKKKKKKKKKKKKKKKKKKKKKKKKKKKKKKKKKKKKKKKKKKKKKKKKKKKKKKKKKKKKKKKKKKKKKKKKKKKKKKKKKKKKKKKKKKKKKKKKKKKKKK",
"KKKKKKKKKKK                                                                                                          KKKKKKKKKKK",
"KKKKKKKKKK                                                                                                            KKKKKKKKKK",
"KKKKKKKKKK   +X  .o#&***************************************************************************************,246,     KKKKKKKKKK",
"KKKKKKKKKK  +8+                                                                                                 <1    KKKKKKKKKK",
"KKKKKKKKKK  X+                                                                                                        KKKKKKKKKK",
"KKKKKKKKKK     ;ewqqqqqqqqqqqqqqqqqqqqqqqqqqqqwwqqqqqqqqqqqqqqqqqqqqqqqqqqqqqqqqqqqqqqqqqqqqqqqqqqqqqqqqqqqqwqqq-     KKKKKKKKKK",
"KKKKKKKKKK     elfddffffflflfflfflfflfflfflfflfflffflffflffflfffffflfflfflfflfflffflfflfflfflffllffflffflffflfff9     KKKKKKKKKK",
"KKKKKKKKKK  .  wfaadddfllffllfflfllfflfllfflfllfffllffllffllffllllfllfflfllfflflflfllfflfllfflflffllffllffllffllq     KKKKKKKKKK",
"KKKKKKKKKK  o  qdapdllxxxxxxxxxxxxxxxxxxxxxxxxxxcxxxcxxxcxxxcxxxxxxxxxxxxxxxxxxxcxxxxxxxxxxxxxxxcxxxcxxxcxxxcxxxw     KKKKKKKKKK",
"KKKKKKKKKK  #  qdddfxvbmbmmmmmmmmmmmmmmmmmmmmmmmmmmmmmmmmmmmmmmmbmmmmmmmmmmmmmmmmmmmmmmmmmmmmmmmmmmmmmmmmmmmmmmmr X   KKKKKKKKKK",
"KKKKKKKKKK  &  qddfcbMNNVVVVVVVVVVVVVVVVVVVVVVVVVVVVVVVVVVVVVVVVVVVVVVVVVVVVVVVVVVVVVVVVVVVVVVVVVVVVVVVVVVVVVVVVt #   KKKKKKKKKK",
"KKKKKKKKKK  *  qfdlvMVCZZZZSSZSZZSZZZZZSZSZSZSZSSZZZZSZZSZZZZSZZZZZSSZZZZSZZZZZSZZZSSZZZZSZZZZZSSZZZZSZZSZZZZSZZy $   KKKKKKKKKK",
"KKKKKKKKKK  *  qffxbVCSDDDGDDGDDGDDGDDGDDDGDDDGDDGDDGDDGDGDDGDDGDDGDDGDDGDDGDDGDDDGDDGDDGDDGDDGDDGDDGDDGDGDDGDDGu $   KKKKKKKKKK",
"KKKKKKKKKK  *  qflxmVZDGGGGGGGGGGGGGGGGGGGGGGGGGGGGGGGGGGGGGGGGGGGGGGGGGGGGGGGGGGGGGGGGGGGGGGGGGGGGGGGGGGGGGGGGGu $   KKKKKKKKKK",
"KKKKKKKKKK  *  qffxmVZGGGGGGGGGGGGGGGGGGGGGGGGGGGGGGGGGGGGGGGGGGGGGGGGGGGGGGGGGGGGGGGGGGGGGGGGGGGGGGGGGGGGGGGGGGi $   KKKKKKKKKK",
"KKKKKKKKKK  *  qllxmVSDGGGGGGGGGGGGGGGGGGGGGGGGGGGGGGGGGGGGGGGGGGGGGGGGGGGGGGGGGGGGGGGGGGGGGGGGGGGGGGGGGGGGGGGGGi $   KKKKKKKKKK",
"KKKKKKKKKK  *  qflxmVZDGGGGGGGGGGGGGGGGGGGGGGGGGGGGGGGGGGGGGGGGGGGGGGGGGGGGGGGGGGGGGGGGGGGGGGGGGGGGGGGGGGGGGGGGGi $   KKKKKKKKKK",
"KKKKKKKKKK  *  qffxmVZGGGGGGGGGGGGGGGGGGGGGGGGGGGGGGGGGGGGGGGGGGGGGGGGGGGGGGGGGGGGGGGGGGGGGGGGGGGGGGGGGGGGGGGGGGi $   KKKKKKKKKK",
"KKKKKKKKKK  *  qlfxmVZDGGGGGGGGGGGGGGGGGGGGGGGGGGGGGGGGGGGGGGGGGGGGGGGGGGGGGGGGGGGGGGGGGGGGGGGGGGGGGGGGGGGGGGGGGi $   KKKKKKKKKK",
"KKKKKKKKKK  *  qflxmVZDGGGGGGGGGGGGGGGGGGGGGGGGGGGGGGGGGGGGGGGGGGGGGGGGGGGGGGGGGGGGGGGGGGGGGGGGGGGGGGGGGGGGGGGGGi $   KKKKKKKKKK",
"KKKKKKKKKK  *  qffxmVZGGGGGGGGGGGGGGGGGGGGGGGGGGGGGGGGGGGGGGGGGGGGGGGGGGGGGGGGGGGGGGGGGGGGGGGGGGGGGGGGGGGGGGGGGGi $   KKKKKKKKKK",
"KKKKKKKKKK  *  qllxmVSDGGGGGGGGGGGGGGGGGGGGGGGGGGGGGGGGGGGGGGGGGGGGGGGGGGGGGGGGGGGGGGGGGGGGGGGGGGGGGGGGGGGGGGGGGi $   KKKKKKKKKK",
"KKKKKKKKKK  *  qlfcmVSDGGGGGGGGGGGGGGGGGGGGGGGGGGGGGGGGGGGGGGGGGGGGGGGGGGGGGGGGGGGGGGGGGGGGGGGGGGGGGGGGGGGGGGGGGi $   KKKKKKKKKK",
"KKKKKKKKKK  *  qffxmVZGGGGGGGGGGGGGGGGGGGGGGGGGGGGGGGGGGGGGGGGGGGGGGGGGGGGGGGGGGGGGGGGGGGGGGGGGGGGGGGGGGGGGGGGGGi $   KKKKKKKKKK",
"KKKKKKKKKK  *  qflxmVZDGGGGGGGGGGGGGGGGGGGGGGGGGGGGGGGGGGGGGGGGGGGGGGGGGGGGGGGGGGGGGGGGGGGGGGGGGGGGGGGGGGGGGGGGGi $   KKKKKKKKKK",
"KKKKKKKKKK  *  qflxmVZDGGGGGGGGGGGGGGGGGGGGGGGGGGGGGGGGGGGGGGGGGGGGGGGGGGGGGGGGGGGGGGGGGGGGGGGGGGGGGGGGGGGGGGGGGi $   KKKKKKKKKK",
"KKKKKKKKKK  *  qlfcmVZGGGGGGGGGGGGGGGGGGGGGGGGGGGGGGGGGGGGGGGGGGGGGGGGGGGGGGGGGGGGGGGGGGGGGGGGGGGGGGGGGGGGGGGGGGi $   KKKKKKKKKK",
"KKKKKKKKKK  *  qffxmVSDGGGGGGGGGGGGGGGGGGGGGGGGGGGGGGGGGGGGGGGGGGGGGGGGGGGGGGGGGGGGGGGGGGGGGGGGGGGGGGGGGGGGGGGGGi $   KKKKKKKKKK",
"KKKKKKKKKK  *  qflxmVZDGGGGGGGGGGGGGGGGGGGGGGGGGGGGGGGGGGGGGGGGGGGGGGGGGGGGGGGGGGGGGGGGGGGGGGGGGGGGGGGGGGGGGGGGGi $   KKKKKKKKKK",
"KKKKKKKKKK  *  qflxmVZGGGGGGGGGGGGGGGGGGGGGGGGGGGGGGGGGGGGGGGGGGGGGGGGGGGGGGGGGGGGGGGGGGGGGGGGGGGGGGGGGGGGGGGGGGi $   KKKKKKKKKK",
"KKKKKKKKKK  *  qlfcmVSDGGGGGGGGGGGGGGGGGGGGGGGGGGGGGGGGGGGGGGGGGGGGGGGGGGGGGGGGGGGGGGGGGGGGGGGGGGGGGGGGGGGGGGGGGi $   KKKKKKKKKK",
"KKKKKKKKKK  *  qffxmVZGGGGGGGGGGGGGGGGGGGGGGGGGGGGGGGGGGGGGGGGGGGGGGGGGGGGGGGGGGGGGGGGGGGGGGGGGGGGGGGGGGGGGGGGGGi $   KKKKKKKKKK",
"KKKKKKKKKK  *  qflxmVZDGGGGGGGGGGGGGGGGGGGGGGGGGGGGGGGGGGGGGGGGGGGGGGGGGGGGGGGGGGGGGGGGGGGGGGGGGGGGGGGGGGGGGGGGGi $   KKKKKKKKKK",
"KKKKKKKKKK  *  qflxmVZDGGGGGGGGGGGGGGGGGGGGGGGGGGGGGGGGGGGGGGGGGGGGGGGGGGGGGGGGGGGGGGGGGGGGGGGGGGGGGGGGGGGGGGGGGi $   KKKKKKKKKK",
"KKKKKKKKKK  *  qlfcmVZGGGGGGGGGGGGGGGGGGGGGGGGGGGGGGGGGGGGGGGGGGGGGGGGGGGGGGGGGGGGGGGGGGGGGGGGGGGGGGGGGGGGGGGGGGi $   KKKKKKKKKK",
"KKKKKKKKKK  *  qffxmVSDGGGGGGGGGGGGGGGGGGGGGGGGGGGGGGGGGGGGGGGGGGGGGGGGGGGGGGGGGGGGGGGGGGGGGGGGGGGGGGGGGGGGGGGGGi $   KKKKKKKKKK",
"KKKKKKKKKK  *  qflxmVZDGGGGGGGGGGGGGGGGGGGGGGGGGGGGGGGGGGGGGGGGGGGGGGGGGGGGGGGGGGGGGGGGGGGGGGGGGGGGGGGGGGGGGGGGGi $   KKKKKKKKKK",
"KKKKKKKKKK  *  qflxmVZGGGGGGGGGGGGGGGGGGGGGGGGGGGGGGGGGGGGGGGGGGGGGGGGGGGGGGGGGGGGGGGGGGGGGGGGGGGGGGGGGGGGGGGGGGi $   KKKKKKKKKK",
"KKKKKKKKKK  *  qflxmVZDGGGGGGGGGGGGGGGGGGGGGGGGGGGGGGGGGGGGGGGGGGGGGGGGGGGGGGGGGGGGGGGGGGGGGGGGGGGGGGGGGGGGGGGGGi $   KKKKKKKKKK",
"KKKKKKKKKK  *  qffxmVSGGGGGGGGGGGGGGGGGGGGGGGGGGGGGGGGGGGGGGGGGGGGGGGGGGGGGGGGGGGGGGGGGGGGGGGGGGGGGGGGGGGGGGGGGGi $   KKKKKKKKKK",
"KKKKKKKKKK  *  qlfxmVZDGGGGGGGGGGGGGGGGGGGGGGGGGGGGGGGGGGGGGGGGGGGGGGGGGGGGGGGGGGGGGGGGGGGGGGGGGGGGGGGGGGGGGGGGGi $   KKKKKKKKKK",
"KKKKKKKKKK  *  qflxmVZGGGGGGGGGGGGGGGGGGGGGGGGGGGGGGGGGGGGGGGGGGGGGGGGGGGGGGGGGGGGGGGGGGGGGGGGGGGGGGGGGGGGGGGGGGi $   KKKKKKKKKK",
"KKKKKKKKKK  *  qffxmVZDGGGGGGGGGGGGGGGGGGGGGGGGGGGGGGGGGGGGGGGGGGGGGGGGGGGGGGGGGGGGGGGGGGGGGGGGGGGGGGGGGGGGGGGGGi $   KKKKKKKKKK",
"KKKKKKKKKK  *  qllxmVSGGGGGGGGGGGGGGGGGGGGGGGGGGGGGGGGGGGGGGGGGGGGGGGGGGGGGGGGGGGGGGGGGGGGGGGGGGGGGGGGGGGGGGGGGGi $   KKKKKKKKKK",
"KKKKKKKKKK  *  qflxmVZDGGGGGGGGGGGGGGGGGGGGGGGGGGGGGGGGGGGGGGGGGGGGGGGGGGGGGGGGGGGGGGGGGGGGGGGGGGGGGGGGGGGGGGGGGi $   KKKKKKKKKK",
"KKKKKKKKKK  *  qffxmVZGGGGGGGGGGGGGGGGGGGGGGGGGGGGGGGGGGGGGGGGGGGGGGGGGGGGGGGGGGGGGGGGGGGGGGGGGGGGGGGGGGGGGGGGGGi $   KKKKKKKKKK",
"KKKKKKKKKK  *  qlfxmVZDGGGGGGGGGGGGGGGGGGGGGGGGGGGGGGGGGGGGGGGGGGGGGGGGGGGGGGGGGGGGGGGGGGGGGGGGGGGGGGGGGGGGGGGGGi $   KKKKKKKKKK",
"KKKKKKKKKK  *  qflxmVZDGGGGGGGGGGGGGGGGGGGGGGGGGGGGGGGGGGGGGGGGGGGGGGGGGGGGGGGGGGGGGGGGGGGGGGGGGGGGGGGGGGGGGGGGGi $   KKKKKKKKKK",
"KKKKKKKKKK  *  qffxmVZGGGGGGGGGGGGGGGGGGGGGGGGGGGGGGGGGGGGGGGGGGGGGGGGGGGGGGGGGGGGGGGGGGGGGGGGGGGGGGGGGGGGGGGGGGi $   KKKKKKKKKK",
"KKKKKKKKKK  *  qllxmVSDGGGGGGGGGGGGGGGGGGGGGGGGGGGGGGGGGGGGGGGGGGGGGGGGGGGGGGGGGGGGGGGGGGGGGGGGGGGGGGGGGGGGGGGGGi $   KKKKKKKKKK",
"KKKKKKKKKK  *  qflxmVSDGGGGGGGGGGGGGGGGGGGGGGGGGGGGGGGGGGGGGGGGGGGGGGGGGGGGGGGGGGGGGGGGGGGGGGGGGGGGGGGGGGGGGGGGGi $   KKKKKKKKKK",
"KKKKKKKKKK  *  qffxmVZGGGGGGGGGGGGGGGGGGGGGGGGGGGGGGGGGGGGGGGGGGGGGGGGGGGGGGGGGGGGGGGGGGGGGGGGGGGGGGGGGGGGGGGGGGi $   KKKKKKKKKK",
"KKKKKKKKKK  *  qlfxmVZDGGGGGGGGGGGGGGGGGGGGGGGGGGGGGGGGGGGGGGGGGGGGGGGGGGGGGGGGGGGGGGGGGGGGGGGGGGGGGGGGGGGGGGGGGi $   KKKKKKKKKK",
"KKKKKKKKKK  *  qflxmVZGGGGGGGGGGGGGGGGGGGGGGGGGGGGGGGGGGGGGGGGGGGGGGGGGGGGGGGGGGGGGGGGGGGGGGGGGGGGGGGGGGGGGGGGGGi $   KKKKKKKKKK",
"KKKKKKKKKK  *  qffxmVZGGGGGGGGGGGGGGGGGGGGGGGGGGGGGGGGGGGGGGGGGGGGGGGGGGGGGGGGGGGGGGGGGGGGGGGGGGGGGGGGGGGGGGGGGGi $   KKKKKKKKKK",
"KKKKKKKKKK  *  qllxmVSDGGGGGGGGGGGGGGGGGGGGGGGGGGGGGGGGGGGGGGGGGGGGGGGGGGGGGGGGGGGGGGGGGGGGGGGGGGGGGGGGGGGGGGGGGi $   KKKKKKKKKK",
"KKKKKKKKKK  *  qflxmVZDGGGGGGGGGGGGGGGGGGGGGGGGGGGGGGGGGGGGGGGGGGGGGGGGGGGGGGGGGGGGGGGGGGGGGGGGGGGGGGGGGGGGGGGGGi $   KKKKKKKKKK",
"KKKKKKKKKK  *  qffxmVZGGGGGGGGGGGGGGGGGGGGGGGGGGGGGGGGGGGGGGGGGGGGGGGGGGGGGGGGGGGGGGGGGGGGGGGGGGGGGGGGGGGGGGGGGGi $   KKKKKKKKKK",
"KKKKKKKKKK  *  qlfxmVZDGGGGGGGGGGGGGGGGGGGGGGGGGGGGGGGGGGGGGGGGGGGGGGGGGGGGGGGGGGGGGGGGGGGGGGGGGGGGGGGGGGGGGGGGGi $   KKKKKKKKKK",
"KKKKKKKKKK  *  qflxmVZDGGGGGGGGGGGGGGGGGGGGGGGGGGGGGGGGGGGGGGGGGGGGGGGGGGGGGGGGGGGGGGGGGGGGGGGGGGGGGGGGGGGGGGGGGi $   KKKKKKKKKK",
"KKKKKKKKKK  *  qffxmVZGGGGGGGGGGGGGGGGGGGGGGGGGGGGGGGGGGGGGGGGGGGGGGGGGGGGGGGGGGGGGGGGGGGGGGGGGGGGGGGGGGGGGGGGGGi $   KKKKKKKKKK",
"KKKKKKKKKK  *  qllxmVSDGGGGGGGGGGGGGGGGGGGGGGGGGGGGGGGGGGGGGGGGGGGGGGGGGGGGGGGGGGGGGGGGGGGGGGGGGGGGGGGGGGGGGGGGGi $   KKKKKKKKKK",
"KKKKKKKKKK  *  qflxmVZDGGGGGGGGGGGGGGGGGGGGGGGGGGGGGGGGGGGGGGGGGGGGGGGGGGGGGGGGGGGGGGGGGGGGGGGGGGGGGGGGGGGGGGGGGi $   KKKKKKKKKK",
"KKKKKKKKKK  *  qffxmVSDGGGGGGGGGGGGGGGGGGGGGGGGGGGGGGGGGGGGGGGGGGGGGGGGGGGGGGGGGGGGGGGGGGGGGGGGGGGGGGGGGGGGGGGGGi $   KKKKKKKKKK",
"KKKKKKKKKK  *  qlfxmVZGGGGGGGGGGGGGGGGGGGGGGGGGGGGGGGGGGGGGGGGGGGGGGGGGGGGGGGGGGGGGGGGGGGGGGGGGGGGGGGGGGGGGGGGGGi $   KKKKKKKKKK",
"KKKKKKKKKK  *  qflxmVSDGGGGGGGGGGGGGGGGGGGGGGGGGGGGGGGGGGGGGGGGGGGGGGGGGGGGGGGGGGGGGGGGGGGGGGGGGGGGGGGGGGGGGGGGGi $   KKKKKKKKKK",
"KKKKKKKKKK  *  qffxmVZDGGGGGGGGGGGGGGGGGGGGGGGGGGGGGGGGGGGGGGGGGGGGGGGGGGGGGGGGGGGGGGGGGGGGGGGGGGGGGGGGGGGGGGGGGi $   KKKKKKKKKK",
"KKKKKKKKKK  *  qllxmVSDGGGGGGGGGGGGGGGGGGGGGGGGGGGGGGGGGGGGGGGGGGGGGGGGGGGGGGGGGGGGGGGGGGGGGGGGGGGGGGGGGGGGGGGGGi $   KKKKKKKKKK",
"KKKKKKKKKK  *  wflxmVZGGGGGGGGGGGGGGGGGGGGGGGGGGGGGGGGGGGGGGGGGGGGGGGGGGGGGGGGGGGGGGGGGGGGGGGGGGGGGGGGGGGGGGGGGGi $   KKKKKKKKKK",
"KKKKKKKKKK  *  wffxmVSDGGGGGGGGGGGGGGGGGGGGGGGGGGGGGGGGGGGGGGGGGGGGGGGGGGGGGGGGGGGGGGGGGGGGGGGGGGGGGGGGGGGGGGGGGi $   KKKKKKKKKK",
"KKKKKKKKKK  *  qlfcmVSDGGGGGGGGGGGGGGGGGGGGGGGGGGGGGGGGGGGGGGGGGGGGGGGGGGGGGGGGGGGGGGGGGGGGGGGGGGGGGGGGGGGGGGGGGi $   KKKKKKKKKK",
"KKKKKKKKKK  *  qffxmVZGGGGGGGGGGGGGGGGGGGGGGGGGGGGGGGGGGGGGGGGGGGGGGGGGGGGGGGGGGGGGGGGGGGGGGGGGGGGGGGGGGGGGGGGGGi $   KKKKKKKKKK",
"KKKKKKKKKK  *  qflxmVZDGGGGGGGGGGGGGGGGGGGGGGGGGGGGGGGGGGGGGGGGGGGGGGGGGGGGGGGGGGGGGGGGGGGGGGGGGGGGGGGGGGGGGGGGGi $   KKKKKKKKKK",
"KKKKKKKKKK  *  qflxmVZDGGGGGGGGGGGGGGGGGGGGGGGGGGGGGGGGGGGGGGGGGGGGGGGGGGGGGGGGGGGGGGGGGGGGGGGGGGGGGGGGGGGGGGGGGi $   KKKKKKKKKK",
"KKKKKKKKKK  *  qlfcmVZGGGGGGGGGGGGGGGGGGGGGGGGGGGGGGGGGGGGGGGGGGGGGGGGGGGGGGGGGGGGGGGGGGGGGGGGGGGGGGGGGGGGGGGGGGi $   KKKKKKKKKK",
"KKKKKKKKKK  *  qffxmVSDGGGGGGGGGGGGGGGGGGGGGGGGGGGGGGGGGGGGGGGGGGGGGGGGGGGGGGGGGGGGGGGGGGGGGGGGGGGGGGGGGGGGGGGGGi $   KKKKKKKKKK",
"KKKKKKKKKK  *  qflxmVZDGGGGGGGGGGGGGGGGGGGGGGGGGGGGGGGGGGGGGGGGGGGGGGGGGGGGGGGGGGGGGGGGGGGGGGGGGGGGGGGGGGGGGGGGGi $   KKKKKKKKKK",
"KKKKKKKKKK  *  qflxmVZGGGGGGGGGGGGGGGGGGGGGGGGGGGGGGGGGGGGGGGGGGGGGGGGGGGGGGGGGGGGGGGGGGGGGGGGGGGGGGGGGGGGGGGGGGi $   KKKKKKKKKK",
"KKKKKKKKKK  *  qlfcmVSDGGGGGGGGGGGGGGGGGGGGGGGGGGGGGGGGGGGGGGGGGGGGGGGGGGGGGGGGGGGGGGGGGGGGGGGGGGGGGGGGGGGGGGGGGi $   KKKKKKKKKK",
"KKKKKKKKKK  *  qffxmVZGGGGGGGGGGGGGGGGGGGGGGGGGGGGGGGGGGGGGGGGGGGGGGGGGGGGGGGGGGGGGGGGGGGGGGGGGGGGGGGGGGGGGGGGGGi $   KKKKKKKKKK",
"KKKKKKKKKK  *  qflxmVZDGGGGGGGGGGGGGGGGGGGGGGGGGGGGGGGGGGGGGGGGGGGGGGGGGGGGGGGGGGGGGGGGGGGGGGGGGGGGGGGGGGGGGGGGGi $   KKKKKKKKKK",
"KKKKKKKKKK  *  qflxmVZDGGGGGGGGGGGGGGGGGGGGGGGGGGGGGGGGGGGGGGGGGGGGGGGGGGGGGGGGGGGGGGGGGGGGGGGGGGGGGGGGGGGGGGGGGi $   KKKKKKKKKK",
"KKKKKKKKKK  *  qlfcmVZGGGGGGGGGGGGGGGGGGGGGGGGGGGGGGGGGGGGGGGGGGGGGGGGGGGGGGGGGGGGGGGGGGGGGGGGGGGGGGGGGGGGGGGGGGi $   KKKKKKKKKK",
"KKKKKKKKKK  *  qffxmVSDGGGGGGGGGGGGGGGGGGGGGGGGGGGGGGGGGGGGGGGGGGGGGGGGGGGGGGGGGGGGGGGGGGGGGGGGGGGGGGGGGGGGGGGGGi $   KKKKKKKKKK",
"KKKKKKKKKK  *  qflxmVZDGGGGGGGGGGGGGGGGGGGGGGGGGGGGGGGGGGGGGGGGGGGGGGGGGGGGGGGGGGGGGGGGGGGGGGGGGGGGGGGGGGGGGGGGGi $   KKKKKKKKKK",
"KKKKKKKKKK  *  qflxmVZGGGGGGGGGGGGGGGGGGGGGGGGGGGGGGGGGGGGGGGGGGGGGGGGGGGGGGGGGGGGGGGGGGGGGGGGGGGGGGGGGGGGGGGGGGi $   KKKKKKKKKK",
"KKKKKKKKKK  *  qflxbVZDGGGGGGGGGGGGGGGGGGGGGGGGGGGGGGGGGGGGGGGGGGGGGGGGGGGGGGGGGGGGGGGGGGGGGGGGGGGGGGGGGGGGGGGGGi $   KKKKKKKKKK",
"KKKKKKKKKK  *  qflxmVZDGGGGGGGGGGGGGGGGGGGGGGGGGGGGGGGGGGGGGGGGGGGGGGGGGGGGGGGGGGGGGGGGGGGGGGGGGGGGGGGGGGGGGGGGGi $   KKKKKKKKKK",
"KKKKKKKKKK  *  qffxmVZGGGGGGGGGGGGGGGGGGGGGGGGGGGGGGGGGGGGGGGGGGGGGGGGGGGGGGGGGGGGGGGGGGGGGGGGGGGGGGGGGGGGGGGGGGi $   KKKKKKKKKK",
"KKKKKKKKKK  *  qllxmVSDGGGGGGGGGGGGGGGGGGGGGGGGGGGGGGGGGGGGGGGGGGGGGGGGGGGGGGGGGGGGGGGGGGGGGGGGGGGGGGGGGGGGGGGGGi $   KKKKKKKKKK",
"KKKKKKKKKK  *  qflxmVSDGGGGGGGGGGGGGGGGGGGGGGGGGGGGGGGGGGGGGGGGGGGGGGGGGGGGGGGGGGGGGGGGGGGGGGGGGGGGGGGGGGGGGGGGGi $   KKKKKKKKKK",
"KKKKKKKKKK  *  qffxmVZGGGGGGGGGGGGGGGGGGGGGGGGGGGGGGGGGGGGGGGGGGGGGGGGGGGGGGGGGGGGGGGGGGGGGGGGGGGGGGGGGGGGGGGGGGi $   KKKKKKKKKK",
"KKKKKKKKKK  *  qlfxmVZDGGGGGGGGGGGGGGGGGGGGGGGGGGGGGGGGGGGGGGGGGGGGGGGGGGGGGGGGGGGGGGGGGGGGGGGGGGGGGGGGGGGGGGGGGi $   KKKKKKKKKK",
"KKKKKKKKKK  *  qflxmVZDGGGGGGGGGGGGGGGGGGGGGGGGGGGGGGGGGGGGGGGGGGGGGGGGGGGGGGGGGGGGGGGGGGGGGGGGGGGGGGGGGGGGGGGGGi $   KKKKKKKKKK",
"KKKKKKKKKK  *  wffxmVZGGGGGGGGGGGGGGGGGGGGGGGGGGGGGGGGGGGGGGGGGGGGGGGGGGGGGGGGGGGGGGGGGGGGGGGGGGGGGGGGGGGGGGGGGGi $   KKKKKKKKKK",
"KKKKKKKKKK  *  wllxmVSDGGGGGGGGGGGGGGGGGGGGGGGGGGGGGGGGGGGGGGGGGGGGGGGGGGGGGGGGGGGGGGGGGGGGGGGGGGGGGGGGGGGGGGGGGi $   KKKKKKKKKK",
"KKKKKKKKKK  *  qflxmVZDGGGGGGGGGGGGGGGGGGGGGGGGGGGGGGGGGGGGGGGGGGGGGGGGGGGGGGGGGGGGGGGGGGGGGGGGGGGGGGGGGGGGGGGGGi $   KKKKKKKKKK",
"KKKKKKKKKK  *  qffxmVZGGGGGGGGGGGGGGGGGGGGGGGGGGGGGGGGGGGGGGGGGGGGGGGGGGGGGGGGGGGGGGGGGGGGGGGGGGGGGGGGGGGGGGGGGGi &   KKKKKKKKKK",
"KKKKKKKKKK  >  qlfxmVZDGGGGGGGGGGGGGGGGGGGGGGGGGGGGGGGGGGGGGGGGGGGGGGGGGGGGGGGGGGGGGGGGGGGGGGGGGGGGGGGGGGGGGGGGGi 1   KKKKKKKKKK",
"KKKKKKKKKK  2  qflxmVZDGGGGGGGGGGGGGGGGGGGGGGGGGGGGGGGGGGGGGGGGGGGGGGGGGGGGGGGGGGGGGGGGGGGGGGGGGGGGGGGGGGGGGGGGGi 6   KKKKKKKKKK",
"KKKKKKKKKK  4  qffxmVZGGGGGGGGGGGGGGGGGGGGGGGGGGGGGGGGGGGGGGGGGGGGGGGGGGGGGGGGGGGGGGGGGGGGGGGGGGGGGGGGGGGGGGGGGGi 8   KKKKKKKKKK",
"KKKKKKKKKK  6  qllxmVSDGGGGGGGGGGGGGGGGGGGGGGGGGGGGGGGGGGGGGGGGGGGGGGGGGGGGGGGGGGGGGGGGGGGGGGGGGGGGGGGGGGGGGGGGGiX7   KKKKKKKKKK",
"KKKKKKKKKK  ,1 -9qqrtyuuiiiiiiiiiiiiiiiiiiiiiiiiiiiiiiiiiiiiiiiiiiiiiiiiiiiiiiiiiiiiiiiiiiiiiiiiiiiiiiiiiiiiiiiu93%   KKKKKKKKKK",
"KKKKKKKKKK   1                                                                                                 X38    KKKKKKKKKK",
"KKKKKKKKKK         X#$$$$$$$$$$$$$$$$$$$$$$$$$$$$$$$$$$$$$$$$$$$$$$$$$$$$$$$$$$$$$$$$$$$$$$$$$$$$$$$$$$$$$$&1687&     KKKKKKKKKK",
"KKKKKKKKKK                                                                                                            KKKKKKKKKK",
"KKKKKKKKKK                                                                                                            KKKKKKKKKK",
"KKKKKKKKKKK                                                                                                          KKKKKKKKKKK",
"KKKKKKKKKKKKKKKKKKKKKKKKKKKKKKKKKKKKKKKKKKKKKKKKKKKKKKKKKKKKKKKKKKKKKKKKKKKKKKKKKKKKKKKKKKKKKKKKKKKKKKKKKKKKKKKKKKKKKKKKKKKKKKKK",
"KKKKKKKKKKKKKKKKKKKKKKKKKKKKKKKKKKKKKKKKKKKKKKKKKKKKKKKKKKKKKKKKKKKKKKKKKKKKKKKKKKKKKKKKKKKKKKKKKKKKKKKKKKKKKKKKKKKKKKKKKKKKKKKK",
"KKKKKKKKKKKKKKKKKKKKKKKKKKKKKKKKKKKKKKKKKKKKKKKKKKKKKKKKKKKKKKKKKKKKKKKKKKKKKKKKKKKKKKKKKKKKKKKKKKKKKKKKKKKKKKKKKKKKKKKKKKKKKKKK",
"KKKKKKKKKKKKKKKKKKKKKKKKKKKKKKKKKKKKKKKKKKKKKKKKKKKKKKKKKKKKKKKKKKKKKKKKKKKKKKKKKKKKKKKKKKKKKKKKKKKKKKKKKKKKKKKKKKKKKKKKKKKKKKKK",
"KKKKKKKKKKKKKKKKKKKKKKKKKKKKKKKKKKKKKKKKKKKKKKKKKKKKKKKKKKKKKKKKKKKKKKKKKKKKKKKKKKKKKKKKKKKKKKKKKKKKKKKKKKKKKKKKKKKKKKKKKKKKKKKK",
"KKKKKKKKKKKKKKKKKKKKKKKKKKKKKKKKKKKKKKKKKKKKKKKKKKKKKKKKKKKKKKKKKKKKKKKKKKKKKKKKKKKKKKKKKKKKKKKKKKKKKKKKKKKKKKKKKKKKKKKKKKKKKKKK",
"KKKKKKKKKKKKKKKKKKKKKKKKKKKKKKKKKKKKKKKKKKKKKKKKKKKKKKKKKKKKKKKKKKKKKKKKKKKKKKKKKKKKKKKKKKKKKKKKKKKKKKKKKKKKKKKKKKKKKKKKKKKKKKKK",
"KKKKKKKKKKKKKKKKKKKKKKKKKKKKKKKKKKKKKKKKKKKKKKKKKKKKKKKKKKKKKKKKKKKKKKKKKKKKKKKKKKKKKKKKKKKKKKKKKKKKKKKKKKKKKKKKKKKKKKKKKKKKKKKK",
"KKKKKKKKKKKKKKKKKKKKKKKKKKKKKKKKKKKKKKKKKKKKKKKKKKKKKKKKKKKKKKKKKKKKKKKKKKKKKKKKKKKKKKKKKKKKKKKKKKKKKKKKKKKKKKKKKKKKKKKKKKKKKKKK",
"KKKKKKKKKKKKKKKKKKKKKKKKKKKKKKKKKKKKKKKKKKKKKKKKKKKKKKKKKKKKKKKKKKKKKKKKKKKKKKKKKKKKKKKKKKKKKKKKKKKKKKKKKKKKKKKKKKKKKKKKKKKKKKKK"
};
