/* XPM */
static char *dimensionstyle[] = {
/* columns rows colors chars-per-pixel */
"128 128 81 1 ",
"  c #000000",
". c #070708",
"X c #0B0B0B",
"o c #1B1403",
"O c #1E1709",
"+ c #1F180A",
"@ c #131313",
"# c #1C1C1C",
"$ c #231A06",
"% c #2A1E06",
"& c #231A0A",
"* c #291F0A",
"= c #2C2007",
"- c #2D220C",
"; c #31250D",
": c #36280E",
"> c #392B0F",
", c #2D2310",
"< c #322711",
"1 c #362910",
"2 c #3B2D12",
"3 c #352D1E",
"4 c #382D19",
"5 c #3E3015",
"6 c #3E321D",
"7 c #232323",
"8 c #2B2B2B",
"9 c #3B3424",
"0 c #3F392E",
"q c #343434",
"w c #3C3C3C",
"e c #44371C",
"r c #46391E",
"t c #4C3F24",
"y c #403828",
"u c #4C412C",
"i c #474030",
"p c #4B4332",
"a c #564930",
"s c #5A4D35",
"d c #544C3B",
"f c #5E523A",
"g c #62573F",
"h c #424242",
"j c #4D4D4D",
"k c #584F40",
"l c #5F5646",
"z c #535353",
"x c #5C5C5C",
"c c #605747",
"v c #625842",
"b c #685C45",
"n c #635A4A",
"m c #6C614C",
"M c #6F6654",
"N c #746954",
"B c #766D5A",
"V c #796F5B",
"C c #7C725E",
"Z c #656565",
"A c #6C6C6C",
"S c #7D7461",
"D c #727272",
"F c #7D7D7D",
"G c #868686",
"H c #8B8B8B",
"J c #959595",
"K c #9B9B9B",
"L c #A4A4A4",
"P c #ACACAC",
"I c gray70",
"U c #BCBCBC",
"Y c #C4C4C4",
"T c gray80",
"R c #D3D3D3",
"E c #DCDCDC",
"W c #E4E4E4",
"Q c #ECECEC",
"! c #F4F4F4",
"~ c #FFFFFF",
"^ c None",
/* pixels */
"^^^^^^^^^^^^^^^^^^^^^^^^^^^^^^^^^^^^^^^^^^^^^^^^^^^^^^^^^^^^^^^^^^^^^^^^^^^^^^^^^^^^^^^^^^^^^^^^^^^^^^^^^^^^^^^^^^^^^^^^^^^^^^^^",
"^^^^^^^^^^^^^^^^^^^^^^^^^^^^^^^^^^^^^^^^^^^^^^^^^^^^^^^^^^^^^^^^^^^^^^^^^^^^^^^^^^^^^^^^^^^^^^^^^^^^^^^^^^^^^^^^^^^^^^^^^^^^^^^^",
"^^^^^^^^^^^^^^^^^^^^^^^^^^^^^^^^^^^^^^^^^^^^^^^^^^^^^^^^^^^^^^^^^^^^^^^^^^^^^^^^^^^^^^^^^^^^^^^^^^^^^^^^^^^^^^^^^^^^^^^^^^^^^^^^",
"^^^^^^^^^^^^^^^^^^^^^^^^^^^^^^^^^^^^^^^^^^^^^^^^^^^^^^^^^^^^^^^^^^^^^^^^^^^^^^^^^^^^^^^^^^^^^^^^^^^^^^^^^^^^^^^^^^^^^^^^^^^^^^^^",
"^^^^^^^^^^^^^^^^^^^^^^^^^^^^^^^^^^^^^^^^^^^^^^^^^^^^^^^^^^^^^^^^^^^^^^^^^^^^^^^^^^^^^^^^^^^^^^^^^^^^^^^^^^^^^^^^^^^^^^^^^^^^^^^^",
"^^^^^^^^^^^^^^^^^^^^^^^^^^^^^^^^^^^^^^^^^^^^^^^^^^^^^^^^^^^^^^^^^^^^^^^^^^^^^^^^^^^^^^^^^^^^^^^^^^^^^^^^^^^^^^^^^^^^^^^^^^^^^^^^",
"^^^^^^^^^^^^^^^^^^^^^^^^^^^^^^^^^^^^^^^^^^^^^^^^^^^^^^^^^^^^^^^^^^^^^^^^^^^^^^^^^^^^^^^^^^^^^^^^^^^^^^^^^^^^^^^^^^^^^^^^^^^^^^^^",
"^^^^^^^^^^^^^^^^^^^^^^^^^^^^^^^^^^^^^^^^^^^^^^^^^^^^^^^^^^^^^^^^^^^^^^^^^^^^^^^^^^^^^^^^^^^^^^^^^^^^^^^^^^^^^^^^^^^^^^^^^^^^^^^^",
"^^^^^^^^^^^^^^^^^^^^^^^^^^^^^^^^^^^^^^^^^^^^^^^^^^^^^^^^^^^^^^^^^^^^^^^^^^^^^^^^^^^^^^^^^^^^^^^^^^^^^^^^^^^^^^^^^^^^^^^^^^^^^^^^",
"^^^^^^^^^^^^^^^^^^^^^^^^^^^^^^^^^^^^^^^^^^^^^^^^^^^^^^^^^^^^^^^^^^^^^^^^^^^^^^^^^^^^^^^^^^^^^^^^^^^^^^^^^^^^^^^^^^^^^^^^^^^^^^^^",
"^^^^^^^^^^^^^^^^^^^^^^^^^^^^^^^^^^^^^^^^^^^^^^^^^^^^^^^^^^^^^^^^^^^^^^^^^^^^^^^^^^^^^^^^^^^^^^^^^^^^^^^^^^^^^^^^^^^^^^^^^^^^^^^^",
"^^^^^^^^^^^^^^^^^^^^^^^^^^^^^^^^^^^^^^^^^^^^^^^^^^^^^^^^^^^^^^^^^^^^^^^^^^^^^^^^^^^^^^^^^^^^^^^^^^^^^^^^^^^^^^^^^^^^^^^^^^^^^^^^",
"^^^^^^^^^^^^^^^^^^^^^^^^^^^^^^^^^^^^^^^^^^^^^^^^^^^^^^^^^^^^^^^^^^^^^^^^^^^^^^^^^^^^^^^^^^^^^^^^^^^^^^^^^^^^^^^^^^^^^^^^^^^^^^^^",
"^^^^^^^^     ^^^^^^^^^^^^^^^^^^^^^^^^^^^^^^^^^^^^^^^^^^^^^^^^^^^^^^^^^^^^^^^^^^^^^^^^^^^^^^^^^^^^^^^^^^^^^^^^^^^^^^     ^^^^^^^^",
"^^^^^^^^ 7   ^^^^^^^^^^^^^^^^^^^^^^^^^^^^^^^^^^^^^^^^^^^^^^^^^^^^^^^^^^^^^^^^^^^^^^^^^^^^^^^^^^^^^^^^^^^^^^^^^^^^^^  .  ^^^^^^^^",
"^^^^^^^^ A   ^^^^^^^^^^^^^^^^^^^^^^^^^^^^^^^^^^^^^^^^^^^^^^^^^^^^^^^^^^^^^^^^^^^^^^^^^^^^^^^^^^^^^^^^^^^^^^^^^^^^^^  Z  ^^^^^^^^",
"^^^^^^^^ F   ^^^^^^^^^^^^^^^^^^^^^^^^^^^^^^^^^^^^^^^^^^^^^^^^^^^^^^^^^^^^^^^^^^^^^^^^^^^^^^^^^^^^^^^^^^^^^^^^^^^^^^  F  ^^^^^^^^",
"^^^^^^^^ z   ^^^^^^^^^^^^^^^^^^^^^^^^^^^^^^^^^^^^^^^^^^^^^^^^^^^^^^^^^^^^^^^^^^^^^^^^^^^^^^^^^^^^^^^^^^^^^^^^^^^^^^  x  ^^^^^^^^",
"^^^^^^^^ q   ^^^^^^^^^^^^^^^^^^^^^^^^^^^^^^^^^^^^^^^^^^^^^^^^^^^^^^^^^^^^^^^^^^^^^^^^^^^^^^^^^^^^^^^^^^^^^^^^^^^^^^  w  ^^^^^^^^",
"^^^^^^^^ q   ^^^^^^^^^^^^^^^^^^^^^^^^^^^^^^^^^^^^^^^^^^^^^^^^^^^^^^^^^^^^^^^^^^^^^^^^^^^^^^^^^^^^^^^^^^^^^^^^^^^^^^  w  ^^^^^^^^",
"^^^^^^^^ q   ^^^^^^^^^^^^^^^^^^^^^^^^^^^^^^^^^^^^^^^^^^^^^^^^^^^^^^^^^^^^^^^^^^^^^^^^^^^^^^^^^^^^^^^^^^^^^^^^^^^^^^  w  ^^^^^^^^",
"^^^^^^^^ q   ^^^^^^^^^^^^^^^^^^^^^^^^^^^^^^^^^^^^^^^^^^^^^^^^^^^^^^^^^^^^^^^^^^^^^^^^^^^^^^^^^^^^^^^^^^^^^^^^^^^^^^  w  ^^^^^^^^",
"^^^^^^^^ q   ^^^^^^^^^^^^^^^^^^^^^^^^^^^^^^^^^^^^^^^^^^^^^^^^^^^^^^^^^^^^^^^^^^^^^^^^^^^^^^^^^^^^^^^^^^^^^^^^^^^^^^  w  ^^^^^^^^",
"^^^^^^^^ q   ^^^^^^^^^^^^^^^^^^^^^^^^^^^^^^^^^^^^^^^^^^^^^^^^^^^^^^^^^^^^^^^^^^^^^^^^^^^^^^^^^^^^^^^^^^^^^^^^^^^^^^  w  ^^^^^^^^",
"^^^^^^^^ q   ^^^^^^^^^^^^^^^^^^^^^^^^^^^^^^^^^^^^^^^^^^^^^^^^^^^^^^^^^^^^^^^^^^^^^^^^^^^^^^^^^^^^^^^^^^^^^^^^^^^^^^  w  ^^^^^^^^",
"^^^^^^^^ q   ^^^^^^^^^^^^^^^^^^^^^^^^^^^^^^^^^^^^^^^^^^^^^^^^^^^^^^^^^^^^^^^^^^^^^^^^^^^^^^^^^^^^^^^^^^^^^^^^^^^^^^  w  ^^^^^^^^",
"^^^^^^^^ q   ^^^^^^^^^^^^^^^^^^^^^^^^^^^^^^^^^^^^^^^^^^^^^^^^^^^^^^^^^^^^^^^^^^^^^^^^^^^^^^^^^^^^^^^^^^^^^^^^^^^^^^  w  ^^^^^^^^",
"^^^^^^^^ q   ^^^^^^^^^^^^^^^^^^^^^^^^^^^^^^^^^^^^^^^^^^^^^^^^^^^^^^^^^^^^^^^^^^^^^^^^^^^^^^^^^^^^^^^^^^^^^^^^^^^^^^  w  ^^^^^^^^",
"^^^^^^^^ q   ^^^^^^^^^^^^^^^^^^^^^^^^^^^^^^^^^^^^^^^^^^^^^^^^^^^^^^^^^^^^^^^^^^^^^^^^^^^^^^^^^^^^^^^^^^^^^^^^^^^^^^  w  ^^^^^^^^",
"^^^^^^^^ q   ^^^^^^^^^^^^^^^^^^^^^^^^^^^^^^^^^^^^^^^^^^^^^^^^^^^^^^^^^^^^^^^^^^^^^^^^^^^^^^^^^^^^^^^^^^^^^^^^^^^^^^  w  ^^^^^^^^",
"^^^^^^^^ q   ^^^^^^^^^^^^^^^^^^^^^^^^^^^^^^^^^^^^^^^^^^^^^^^^^^^^^^^^^^^^^^^^^^^^^^^^^^^^^^^^^^^^^^^^^^^^^^^^^^^^^^  w  ^^^^^^^^",
"^^^^^^^^ q   ^^^^^^^^^^^^^^^^^^^^^^^^  ^^^^^^^^^^^^^^^^^^^^^^^^^^^^^^^^^^^^^^^^^^^^^^^^^^  ^^^^^^^^^^^^^^^^^^^^^^^^  w  ^^^^^^^^",
"^^^^^^^^ q   ^^^^^^^^^^^^^^^^^^^^^^     ^^^^^^^^^^^^^^^^^^^^^^^^^^^^^^^^^^^^^^^^^^^^^^^^     ^^^^^^^^^^^^^^^^^^^^^^  w  ^^^^^^^^",
"^^^^^^^^ q   ^^^^^^^^^^^^^^^^^^^^^      ^^^^^^^^^^^^^^^^^^^^^^^^^^^^^^^^^^^^^^^^^^^^^^^^      ^^^^^^^^^^^^^^^^^^^^^  w  ^^^^^^^^",
"^^^^^^^^ q   ^^^^^^^^^^^^^^^^^^^        ^^^^^^^^^^^^^^^^^^^^^^^^^^^^^^^^^^^^^^^^^^^^^^^^  #     ^^^^^^^^^^^^^^^^^^^  w  ^^^^^^^^",
"^^^^^^^^ q   ^^^^^^^^^^^^^^^^      @          ^^^^^^^^^^^^^^^^^^^^^^^^^^^^^^^^^^^^^^^^^^  7Z       ^^^^^^^^^^^^^^^^  w  ^^^^^^^^",
"^^^^^^^^ q   ^^^^^^^^^^^^^       7q@  @,@@X@788@    ^^^^^^^^^^^^^^^^^^^^^^^^^^^^^^^^^^^^  #Fj         ^^^^^^^^^^^^^  w  ^^^^^^^^",
"^^^^^^^^ q   ^^^^^^^^^^^^      @#@@ww@.XX  .@@@X @,..  ^^^^^^^^^^^^^^^^^^^^^^^^^^^^^^^^^  8FAX         ^^^^^^^^^^^^  w  ^^^^^^^^",
"^^^^^^^^ q   ^^^^^^^        X@Xq8h#   ..wxAZZj#..   #.@   ^^^^^^^^^^^^^^^^^^^^^^^^^^^^^^  zDx7@             ^^^^^^^  w  ^^^^^^^^",
"^^^^^^^^ q  .@           X8#.wq7  @7wAFGJKKKKKHFFDh#. . @                               #zDZh@X@@@                   w  ^^^^^^^^",
"^^^^^^^^ q   @zDGFFFFGFFA8@qjX  wxGJJKKKJJKKLLPPPLLKDz7  X   #whwhhwhhwhhwhhwhhwhwhjDFGZjxxz8X                       w  ^^^^^^^^",
"^^^^^^^^ q               ww7 XhFKKJJJJJKKKKLLLLLLKKKKKHx7                                 8q8.                       w  ^^^^^^^^",
"^^^^^^^^ q             #zq  hFJKJJKJKKLLPPPIIIIIIPPPPLLKHx7                                ##                        q  ^^^^^^^^",
"^^^^^^^^ q   ^^^^^^^  qz@ @AKJJJJJKLLPPURREEWWWWWEEERRTYUUKZ#     ^^^^^^^^^^^^^^^^^^^^^^                    ^^^^^^^  q  ^^^^^^^^",
"^^^^^^^^ q   ^^^^^^^ wq @zHKJJJJKLPPIUITWWWQQQQ!!QQQQQWEERTYLx     ^^^^^^^^^^^^^^^^^^^^^                   ^^^^^^^^  q  ^^^^^^^^",
"^^^^^^^^ q   ^^^^^^ h8 8KIKJJJKLPIIUUUURQWQQQQ!QQQ!QQQQQWWERTUA.    ^^^^^^^^^^^^^^^^^^^^               ^^^^^^^^^^^^  q  ^^^^^^^^",
"^^^^^^^^ q   ^^^^^ jq 8LUPPPLLPIIUUUUYUTQWQQQQQ!!!!!Q!!!!QWWERTJw    ^^^^^^^^^^^^^^^^^^^            ^^^^^^^^^^^^^^^  q  ^^^^^^^^",
"^^^^^^^^ q   ^^^^ h8 8LUPPIYTRERYUUYUYURWQQQ!!!!!!!!!!!!!!!!QQEEUw    ^^^^^^^^^^^^^^^^^^        ^^^^^^^^^^^^^^^^^^^  q  ^^^^^^^^",
"^^^^^^^^ q   ^^^ wq 7LUPPUYREWWQEEYUUUUTWQQQ!!!!~!!!~!~!!!~!~!QWWYw    ^^^^^^^^^^^^^^^^^       ^^^^^^^^^^^^^^^^^^^^  w  ^^^^^^^^",
"^^^^^^^^ q   ^^ qq 8PYIIUTEWQ!!QQQETTUUTQQQ!!~~!~~~!~!~~~~!~!~~!QWYq    ^^^^^^^^^^^^^^^^     ^^^^^^^^^^^^^^^^^^^^^^  w  ^^^^^^^^",
"^^^^^^^^ q   ^ #z 8PYIIYTEQ!!!!!!!QQETTRQQQ!!!~~~~~~~~~~~~~~~~~~~QQK    ^^^^^^^^^^^^^^^^^  ^^^^^^^^^^^^^^^^^^^^^^^^  w  ^^^^^^^^",
"^^^^^^^^ q   ^.h@ HYIIYTW!!!~~~~~!!!!EWQQQQ!!~~~~~~~~~~~~~~~~~~~~~~QFX   ^^^^^^^^^^^^^^^^^^^^^^^^^^^^^^^^^^^^^^^^^^  w  ^^^^^^^^",
"^^^^^^^^ q    qq zUUIURWQ~~~~~~~!~~!!Q!Q!Q!!!~~~~~~~~~~~~~~~~~~~~~~!Wx    ^^^^^^^^^^^^^^^^^^^^^^^^^^^^^^^^^^^^^^^^^  w  ^^^^^^^^",
"^^^^^^^^ q   @h 7PUIUTEQ!~~~~~~~~~!!~!!!!!!!!!~~~~~~~~~~~~~~~~~~~~~~~U@   ^^^^^^^^^^^^^^^^^^^^^^^^^^^^^^^^^^^^^^^^^  w  ^^^^^^^^",
"^^^^^^^^ q   hX.GUPIYEQ~~~~~~~~~~~~~~!!!!!!!~~~~~~~~~~~~~~~~~~~~~~~~~QA    ^^^^^^^^^^^^^^^^^^^^^^^^^^^^^^^^^^^^^^^^  w  ^^^^^^^^",
"^^^^^^^^ q  #q zUIIYRW!~~~~~~~~~~~~~~~~~!!~~!~~~~~~~~~~~~~~~~~~~~~~~~~Eq   ^^^^^^^^^^^^^^^^^^^^^^^^^^^^^^^^^^^^^^^^  w  ^^^^^^^^",
"^^^^^^^^ q  q@@KIIUTWQ~~~~~~~~~~~~~~~~~~!~~!~~~~~~~~~~~~~~~~~~~~~~~~~~~L.   ^^^^^^^^^^^^^^^^^^^^^^^^^^^^^^^^^^^^^^^  w  ^^^^^^^^",
"^^^^^^^^ q  h zUPIYEQ~~~~~~~~~~~~~~~~~~~~~~~~~~~~~~~~~~~~~~~~~~~~~~~~~~Qh   ^^^^^^^^^^^^^^^^^^^^^^^^^^^^^^^^^^^^^^^  w  ^^^^^^^^",
"^^^^^^^^ q w@@JIPUTW!~~~~~~~~~~~~~~~~~~~~~~~~~~~~~~~~~~~~~~~~~~~~~~~~~~~H    ^^^^^^^^^^^^^^^^^^^^^^^^^^^^^^^^^^^^^^  w  ^^^^^^^^",
"^^^^^^^^ q q 8PPIYEQ~~~~~~~~~~~~~~~~~~~~~~~~~~~~~~~~~~~~~~~~~~~~~~~~~~~~T@   ^^^^^^^^^^^^^^^^^^^^^^^^^^^^^^^^^^^^^^  w  ^^^^^^^^",
"^^^^^^^^ 77# DIPUTW!~~~~~~~~~~~~~~~~~~~~~~~~~~~~~~~~~~~~~~~~~~~~~~~~~~~~~Z   ^^^^^^^^^^^^^^^^^^^^^^^^^^^^^^^^^^^^^^  w  ^^^^^^^^",
"^^^^^^^^ ###7LIPUEW~~~~~~~~~~~~~~~~~~~~~~~~~~~~~~~~~~~~~~~~~~~~~~~~~~~~~~U   ^^^^^^^^^^^^^^^^^^^^^^^^^^^^^^^^^^^^^^  w  ^^^^^^^^",
"^^^^^^^^ @7 hIPIYWQ~~~~~~~~~~~~~~~~~~~~~~~~~~~~~~~~~~~~~~~~~~~~~~~~~~~~~~W8   ^^^^^^^^^^^^^^^^^^^^^^^^^^^^^^^^^^^^^  w  ^^^^^^^^",
"^^^^^^^^ Xw zUIURW!~~~~~~~~~~~~~~~~~~~~~~~~~~~~~~~~~~~~~~~~~~~~~~~~~~~~~~~A   ^^^^^^^^^^^^^^^^^^^^^^^^^^^^^^^^^^^^^  w  ^^^^^^^^",
"^^^^^^^^. 7.GIIYRQ!~~~~~~~~~~~~~~~~~~~~~~~~~~~~~~~~~~~~~~~~~~~~~~~~~~~~~~~H   ^^^^^^^^^^^^^^^^^^^^^^^^^^^^^^^^^^^^^  #  ^^^^^^^^",
"^^^^^^^^ X #KPIYEQ!~~~~~~~~~~~~~~~~~~~~~~~~~~~~~~~~~~~~~~~~~~~~~~~~~~~~~~~K X ^^^^^^^^^^^^^^^^^^^^^^^^^^^^^^^^^^^^^     ^^^^^^^^",
"^^^^^^^^ # 7JIITW!!~~~~~~~~~~~~~~~~~~~~~~~~~~~~~~~~~~~~~~~~~~~~~~~~~~~~~~~E#  ^^^^^^^^^^^^^^^^^^^^^^^^^^^^^^^^^^^^^     ^^^^^^^^",
"^^^^^^^^ 7 hKIURW!~~~~~~~~~~~~~~~~~~~~~~~~~~~~~~~~~~~~~~~~~~~~~~~~~~~~~~~~~8   ^^^^^^^^^^^^^^^^^^^^^^^^^^^^^^^^^^^^     ^^^^^^^^",
"^^^^^^^^ # ALIURW!~~~~~~~~~~~~~~~~~~~~~~~~~~~~~~~~~~~~~~~~~~~~~~~~~~~~~~~~~w   ^^^^^^^^^^^^^^^^^^^^^^^^^^^^^^^^^^^^     ^^^^^^^^",
"^^^^^^^^ #.GPIYEQ!!~~~~~~~~~~~~~~~~~~~~~~~~~~~~~~~~~~~~~~~~~~~~~~~~~~~~~~~~w   ^^^^^^^^^^^^^^^^^^^^^^^^^^^^^^^^^^^^^^^^^^^^^^^^^",
"^^^^^^^^ 8XHUUTE!!~~~~~~~~~~~~~~~~~~~~~~~~~~~~~~~~~~~~~~~~~~~~~~~~~~~~~~~~~w   ^^^^^^^^^^^^^^^^^^^^^^^^^^^^^^^^^^^^^^^^^^^^^^^^^",
"^^^^^^^^ w.GUUTW!!!~~~~~~~~~~~~~~~~~~~~~~~~~~~~~~~~~~~~~~~~~~~~~~~~~~~~~~~~h   ^^^^^^^^^^^^^^^^^^^^^^^^^^^^^^^^^^^^^^^^^^^^^^^^^",
"^^^^^^^^ w.ZUURWQ~~~~~~~~~~~~~~~~~~~~~~~~~~~~~~~~~~~~~~~~~~~~~~~~~~~~~~~~~~h   ^^^^^^^^^^^^^^^^^^^^^^^^^^^^^^^^^^^^^^^^^^^^^^^^^",
"^^^^^^^^ q 7IURW!~!~~~~~~~~~~~~~~~~~~~~~~~~~~~~~~~~~~~~~~~~~~~~~~~~~~~~~~~~w7  ^^^^^^^^^^^^^^^^^^^^^^^^^^^^^^^^^^^^^^^^^^^^^^^^^",
"^^^^^^^^^@ #PYRW!~~~~~~~~~~~~~~~~~~~~~~~~~~~~~~~~~~~~~~~~~~~~~~~~~~~~~~~~~Eqq ^^^^^^^^^^^^^^^^^^^^^^^^^^^^^^^^^^^^^^^^^^^^^^^^^^",
"^^^^^^^^^  #PYRW!~~~~~~~~~~~~~~~~~~~~~~~~~~~~~~~~~~~~~~~~~~~~~~~~~~~~~~~~~K@w ^^^^^^^^^^^^^^^^^^^^^^^^^^^^^^^^^^^^^^^^^^^^^^^^^^",
"^^^^^^^^^ 7.JUTW!~~~~~~~~~~~~~~~~~~~~~~~~~~~~~~~~~~~~~~~~~~~~~~~~~~~~~~~~~H.# ^^^^^^^^^^^^^^^^^^^^^^^^^^^^^^^^^^^^^^^^^^^^^^^^^^",
"^^^^^^^^^.# zYTW!~~~~~~~~~~~~~~~~~~~~~~~~~~~~~~~~~~~~~~~~~~~~~~~~~~~~~~~~~A8  ^^^^^^^^^^^^^^^^^^^^^^^^^^^^^^^^^^^^^^^^^^^^^^^^^^",
"^^^^^^^^^ ..wPTE!~~~~~~~~~~~~~~~~~~~~~~~~~~~~~~~~~~~~~~~~~~~~~~~~~~~~~~~~Q8h  ^^^^^^^^^^^^^^^^^^^^^^^^^^^^^^^^^^^^^^^^^^^^^^^^^^",
"^^^^^^^^^ @@ HYEQ~~~~~~~~~~~~~~~~~~~~~~~~~~~~~~~~~~~~~~~~~~~~~~~~~~~~~~~~U#8 ^^^^^^^^^^^^^^^^^^^^^^^^^^^^^^^^^^^^^^^^^^^^^^^^^^^",
"^^^^^^^^^^   ZYRQ!~~~~~~~~~~~~~~~~~~~~~~~~~~~~~~~~~~~~~~~~~~~~~~~~~~~~~~~Zw# ^^^^^^^^^^^^^^^^^^^^^^^^^^^^^^^^^^^^^^^^^^^^^^^^^^^",
"^^^^^^^^^^ . 8PTW!~~~~~~~~~~~~~~~~~~~~~~~~~~~~~~~~~~~~~~~~~~~~~~~~~~~~~~R8q. ^^^^^^^^^^^^^^^^^^^^^^^^^^^^^^^^^^^^^^^^^^^^^^^^^^^",
"^^^^^^^^^^   @JYEQ!~~~~~~~~~~~~~~~~~~~~~~~~~~~~~~~~~~~~~~~~~~~~~~~~~~~~~H@w ^^^^^^^^^^^^^^^^^^^^^^^^^^^^^^^^^^^^^^^^^^^^^^^^^^^^",
"^^^^^^^^^^^   jYRQ!~~~~~~~~~~~~~~~~~~~~~~~~~~~~~~~~~~~~~~~~~~~~~~~~~~~~!jq. ^^^^^^^^^^^^^^^^^^^^^^^^^^^^^^^^^^^^^^^^^^^^^^^^^^^^",
"^^^^^^^^^^^   @JRW!~~~~~~~~~~~~~~~~~~~~~~~~~~~~~~~~~~~~~~~~~~~~~~~~~~~~I7q  ^^^^^^^^^^^^^^^^^^^^^^^^^^^^^^^^^^^^^^^^^^^^^^^^^^^^",
"^^^^^^^^^^^^.  zYEQ~~~~~~~~~~~~~~~~~~~~~~~~~~~~~~~~~~~~~~~~~~~~~~~~~~~QqhX ^^^^^^^^^^^^^^^^^^^^^^^^^^^^^^^^^^^^^^^^^^^^^^^^^^^^^",
"^^^^^^^^^^^^.  .FRW!~~~~~~~~~~~~~~~~~~~~~~~~~~~~~~~~~~~~~~~~~~~~~~~~~~D#w  ^^^^^^^^^^^^^^^^^^^^^^^^^^^^^^^^^^^^^^^^^^^^^^^^^^^^^",
"^^^^^^^^^^^^^ . 7PEQ~~~~~~~~~~~~~~~~~~~~~~~~~~~~~~~~~~~~~~~~~~~~~~~~~R7h@ ^^^^^^^^^^^^^^^^^^^^^^^^^^^^^^^^^^^^^^^^^^^^^^^^^^^^^^",
"^^^^^^^^^^^^^    jTW!~~~~~~~~~~~~~~~~~~~~~~~~~~~~~~~~~~~~~~~~~~~~~~~~xq8  ^^^^^^^^^^^^^^^^^^^^^^^^^^^^^^^^^^^^^^^^^^^^^^^^^^^^^^",
"^^^^^^^^^^^^^^    GEQ!~~~~~~~~~~~~~~~~~~~~~~~~~~~~~~~~~~~~~~~~~~~~~~H#h  ^^^^^^^^^^^^^^^^^^^^^^^^^^^^^^^^^^^^^^^^^^^^^^^^^^^^^^^",
"^^^^^^^^^^^^^^^   7PEQ~~~~~~~~~~~~~~~~~~~~~~~~~~~~~~~~~~~~~~~~~~~~~I@jX ^^^^^^^^^^^^^^^^^^^^^^^^^^^^^^^^^^^^^^^^^^^^^^^^^^^^^^^^",
"^^^^^^^^^^^^^^^    7PQQ~~~~~~~~~~~~~~~~~~~~~~~~~~~~~~~~~~~~~~~~~~~Qwh8  ^^^^^^^^^^^^^^^^^^^^^^^^^^^^^^^^^^^^^^^^^^^^^^^^^^^^^^^^",
"^^^^^^^^^^^^^^^^    8UQ!~~~~~~~~~~~~~~~~~~~~~~~~~~~~~~~~~~~~~~~~~Qz8q  ^^^^^^^^^^^^^^^^^^^^^^^^^^^^^^^^^^^^^^^^^^^^^^^^^^^^^^^^^",
"^^^^^^^^^^^^^^^^^    8IQ!~~~~~~~~~~~~~~~~~~~~~~~~~~~~~~~~~~~~~~~QzXz  ^^^^^^^^^^^^^^^^^^^^^^^^^^^^^^^^^^^^^^^^^^^^^^^^^^^^^^^^^^",
"^^^^^^^^^^^^^^^^^^    8IQ!~~~~~~~~~~~~~~~~~~~~~~~~~~~~~~~~~~~~~Yj jX ^^^^^^^^^^^^^^^^^^^^^^^^^^^^^^^^^^^^^^^^^^^^^^^^^^^^^^^^^^^",
"^^^^^^^^^^^^^^^^^^^    8PQ!~~~~~~~~~~~~~~~~~~~~~~~~~~~~~~~~~~!H@#xh  ^^^-2<^^^^^^^^^^^^^^^^^^^^^^^^^^^^^^^^^^^^^^^^^^^^^^^^^^^^^",
"^^^^^^^^^^^^^^^^^^^^    #ZT~~~~~~~~~~~~~~~~~~~~~~~~~~~~~~~~~Yh@zh7    ^,t2:^^^^^^^^^^^^^^^^^^^^^^^^^^^^^^^^^^^^^^^^^^^^^^^^^^^^^",
"^^^^^^^^^^^^^^^^^^^^^     #HW~~~~~~~~~~~~~~~~~~~~~~~~~~~~~WG#8j@    . &Va%*e1^^^^^^^^^^^^^^^^^^^^^^^^^^^^^^^^^^^^^^^^^^^^^^^^^^^",
"^^^^^^^^^^^^^^^^^^^^^^     .jIQ~~~~~~~~~~~~~~~~~~~~~~~~~WHq#j8   ^  #0Ms$&y><^^^^^^^^^^^^^^^^^^^^^^^^^^^^^^^^^^^^^^^^^^^^^^^^^^^",
"^^^^^^^^^^^^^^^^^^^^^^^      @jKT~~~~~~~~~~~~~~~~~~~~~WH77qh   ^^^^ OSs=&ms-=1;^^^^^^^^^^^^^^^^^^^^^^^^^^^^^^^^^^^^^^^^^^^^^^^^^",
"^^^^^^^^^^^^^^^^^^^^^^^^^       #DYQ~~~~~~~~~~~~~~~QLAq#jq#   ^^^^^,Bs<9Mv%O62:^^^^^^^^^^^^^^^^^^^^^^^^^^^^^^^^^^^^^^^^^^^^^^^^^",
"^^^^^^^^^^^^^^^^^^^^^^^^^^^       #8zLYTQ~~~~~ETUFq88@hqX   ^^^^^^,Ns%9Mv%ocv-*1;^^^^^^^^^^^^^^^^^^^^^^^^^^^^^^^^^^^^^^^^^^^^^^^",
"^^^^^^^^^^^^^^^^^^^^^^^^^^^^^      .  .XjFGHHA8.#qw#q7    ^^^^^^^^eu$&Mg%ocm=O4>1^^^^^^^^^^^^^^^^^^^^^^^^^^^^^^^^^^^^^^^^^^^^^^^",
"^^^^^^^^^^^^^^^^^^^^^^^^^^^^^^^            X8wjh@X@     ^^^^^^^^^>>-&ng%Onb-ofb;*;<^^^^^^^^^^^^^^^^^^^^^^^^^^^^^^^^^^^^^^^^^^^^^",
"^^^^^^^^^^^^^^^^^^^^^^^^^^^^^^^^^^                   ^^^^^^^^^^^^^2;2a%Ocm=odN;O<51^^^^^^^^^^^^^^^^^^^^^^^^^^^^^^^^^^^^^^^^^^^^^",
"^^^^^^^^^^^^^^^^^^^^^^^^^^^^^^^^^^^^^^^        ^^^^^^^^^^^^^^^^^^^^22-Olm%odN;opm;-;<^^^^^^^^^^^^^^^^^^^^^^^^^^^^^^^^^^^^^^^^^^^",
"^^^^^^^^^^^^^^^^^^^^^^^^^^^^^^^^^^^^^^^^^^^^^^^^^^^^^^^^^^^^^^^^^^^^1-1s=odN=ouV1$,52^^^^^^^^^^^^^^^^^^^^^^^^^^^^^^^^^^^^^^^^^^^",
"^^^^^^^^^^^^^^^^^^^^^^^^^^^^^^^^^^^^^^^^^^^^^^^^^^^^^^^^^^^^^^^^^^^^^:1;OdN-ouC:oym:-;-^^^^^^^^^^^^^^^^^^^^^^^^^^^^^^^^^^^^^^^^^",
"^^^^^^^^^^^^^^^^^^^^^^^^^^^^^^^^^^^^^^^^^^^^^^^^^^^^^^^^^^^^^^^^^^^^^^:-<f;ouV>oyC5&*52^^^^^^^^^^^^^^^^^^^^^^^^^^^^^^^^^^^^^^^^^",
"^^^^^^^^^^^^^^^^^^^^^^^^^^^^^^^^^^^^^^^^^^^^^^^^^^^^^^^^^^^^^^^^^^^^^^^<2;OuC>o9C5o3M1-^^^^^^^^^^^^^^^^^^^^^^^^^^^^^^^^^^^^^^^^^",
"^^^^^^^^^^^^^^^^^^^^^^^^^^^^^^^^^^^^^^^^^^^^^^^^^^^^^^^^^^^^^^^^^^^^^^^^:--g:oyC5o3Cr$.^^^^^^^^^^^^^^^^^^^^^^^^^^^^^^^^^^^^^^^^^",
"^^^^^^^^^^^^^^^^^^^^^^^^^^^^^^^^^^^^^^^^^^^^^^^^^^^^^^^^^^^^^^^^^^^^^^^^^;2;$0C5o3Ce$.  ^^^^^^^^^^^^^^^^^^^^^^^^^^^^^^^^^^^^^^^^",
"^^^^^^^^^^^^^^^^^^^^^^^^^^^^^^^^^^^^^^^^^^^^^^^^^^^^^^^^^^^^^^^^^^^^^^^^^^1--v5o3Se$   ^^^^^^^^^^^^^^^^^^^^^^^^^^^^^^^^^^^^^^^^^",
"^^^^^^^^^^^^^^^^^^^^^^^^^^^^^^^^^^^^^^^^^^^^^^^^^^^^^^^^^^^^^^^^^^^^^^^^^^^-2:&3Se$.  ^^^^^^^^^^^^^^^^^^^^^^^^^^^^^^^^^^^^^^^^^^",
"^^^^^^^^^^^^^^^^^^^^^^^^^^^^^^^^^^^^^^^^^^^^^^^^^^^^^^^^^^^^^^^^^^^^^^^^^^^^1-*ge$.  ^^^^^^^^^^^^^^^^^^^^^^^^^^^^^^^^^^^^^^^^^^^",
"^^^^^^^^^^^^^^^^^^^^^^^^^^^^^^^^^^^^^^^^^^^^^^^^^^^^^^^^^^^^^^^^^^^^^^^^^^^^^-2>*   ^^^^^^^^^^^^^^^^^^^^^^^^^^^^^^^^^^^^^^^^^^^^",
"^^^^^^^^^^^^^^^^^^^^^^^^^^^^^^^^^^^^^^^^^^^^^^^^^^^^^^^^^^^^^^^^^^^^^^^^^^^^^^2-.  ^^^^^^^^^^^^^^^^^^^^^^^^^^^^^^^^^^^^^^^^^^^^^",
"^^^^^^^^^^^^^^^^^^^^^^^^^^^^^^^^^^^^^^^^^^^^^^^^^^^^^^^^^^^^^^^^^^^^^^^^^^^^^^^^^^^^^^^^^^^^^^^^^^^^^^^^^^^^^^^^^^^^^^^^^^^^^^^^",
"^^^^^^^^^^^^^^^^^^^^^^^^^^^^^^^^^^^^^^^^^^^^^^^^^^^^^^^^^^^^^^^^^^^^^^^^^^^^^^^^^^^^^^^^^^^^^^^^^^^^^^^^^^^^^^^^^^^^^^^^^^^^^^^^",
"^^^^^^^^^^^^^^^^^^^^^^^^^^^^^^^^^^^^^^^^^^^^^^^^^^^^^^^^^^^^^^^^^^^^^^^^^^^^^^^^^^^^^^^^^^^^^^^^^^^^^^^^^^^^^^^^^^^^^^^^^^^^^^^^",
"^^^^^^^^^^^^^^^^^^^^^^^^^^^^^^^^^^^^^^^^^^^^^^^^^^^^^^^^^^^^^^^^^^^^^^^^^^^^^^^^^^^^^^^^^^^^^^^^^^^^^^^^^^^^^^^^^^^^^^^^^^^^^^^^",
"^^^^^^^^^^^^^^^^^^^^^^^^^^^^^^^^^^^^^^^^^^^^^^^^^^^^^^^^^^^^^^^^^^^^^^^^^^^^^^^^^^^^^^^^^^^^^^^^^^^^^^^^^^^^^^^^^^^^^^^^^^^^^^^^",
"^^^^^^^^^^^^^^^^^^^^^^^^^^^^^^^^^^^^^^^^^^^^^^^^^^^^^^^^^^^^^^^^^^^^^^^^^^^^^^^^^^^^^^^^^^^^^^^^^^^^^^^^^^^^^^^^^^^^^^^^^^^^^^^^",
"^^^^^^^^^^^^^^^^^^^^^^^^^^^^^^^^^^^^^^^^^^^^^^^^^^^^^^^^^^^^^^^^^^^^^^^^^^^^^^^^^^^^^^^^^^^^^^^^^^^^^^^^^^^^^^^^^^^^^^^^^^^^^^^^",
"^^^^^^^^^^^^^^^^^^^^^^^^^^^^^^^^^^^^^^^^^^^^^^^^^^^^^^^^^^^^^^^^^^^^^^^^^^^^^^^^^^^^^^^^^^^^^^^^^^^^^^^^^^^^^^^^^^^^^^^^^^^^^^^^",
"^^^^^^^^^^^^^^^^^^^^^^^^^^^^^^^^^^^^^^^^^^^^^^^^^^^^^^^^^^^^^^^^^^^^^^^^^^^^^^^^^^^^^^^^^^^^^^^^^^^^^^^^^^^^^^^^^^^^^^^^^^^^^^^^",
"^^^^^^^^^^^^^^^^^^^^^^^^^^^^^^^^^^^^^^^^^^^^^^^^^^^^^^^^^^^^^^^^^^^^^^^^^^^^^^^^^^^^^^^^^^^^^^^^^^^^^^^^^^^^^^^^^^^^^^^^^^^^^^^^",
"^^^^^^^^^^^^^^^^^^^^^^^^^^^^^^^^^^^^^^^^^^^^^^^^^^^^^^^^^^^^^^^^^^^^^^^^^^^^^^^^^^^^^^^^^^^^^^^^^^^^^^^^^^^^^^^^^^^^^^^^^^^^^^^^"
};
