/* XPM */
static char *frontview[] = {
/* columns rows colors chars-per-pixel */
"128 128 75 1 ",
"  c #000000",
". c #0B0B0B",
"X c #141414",
"o c #11171D",
"O c #12181E",
"+ c #1A1A1A",
"@ c #161D25",
"# c #1C252F",
"$ c #1D2730",
"% c #1F2934",
"& c #242424",
"* c #2D2D2D",
"= c #212B36",
"- c #242F3C",
"; c #25313E",
": c #343434",
"> c #3C3C3C",
", c #273441",
"< c #2A3846",
"1 c #303F50",
"2 c #334354",
"3 c #414141",
"4 c #494949",
"5 c #555555",
"6 c #5D5D5D",
"7 c #435A70",
"8 c #656565",
"9 c #6C6C6C",
"0 c #737373",
"q c #7E7E7E",
"w c #536E8A",
"e c #56718F",
"r c #577491",
"t c #597694",
"y c #5A7897",
"u c #5B7999",
"i c #607FA0",
"p c #6181A2",
"a c #6E92B7",
"s c #6F93B9",
"d c #7196BD",
"f c #7398BF",
"g c #779DC6",
"h c #789FC8",
"j c #7BA3CD",
"k c #7EA7D2",
"l c #868686",
"z c #8C8C8C",
"x c #949494",
"c c gray61",
"v c gray65",
"b c #AEAEAE",
"n c #B4B4B4",
"m c #BBBBBB",
"M c #81ABD7",
"N c #83AFDB",
"B c #85B0DD",
"V c #86B2E0",
"C c #89B6E5",
"Z c #8BB8E7",
"A c #8CBAEA",
"S c #90BFF0",
"D c #92C1F3",
"F c #95C5F8",
"G c #97C8FB",
"H c #99CBFF",
"J c #C3C3C3",
"K c #CCCCCC",
"L c #D6D6D6",
"P c #DADADA",
"I c #E4E4E4",
"U c #EDEDED",
"Y c #F4F4F4",
"T c #FEFEFE",
"R c None",
/* pixels */
"RRRRRRRRRRRRRRRRRRRRRRRRRRRRRRRRRRRRRRRRRRRRRRRRRRRRRRRRRRRRRRRRRRRRRRRRRRRRRRRRRRRRRRRRRRRRRRRRRRRRRRRRRRRRRRRRRRRRRRRRRRRRRRRR",
"RRRRRRRRRRRRRRRRRRRRRRRRRRRRRRRRRRRRRRRRRRRRRRRRRRRRRRRRRRRRRRRRRRRRRRRRRRRRRRRRRRRRRRRRRRRRRRRRRRRRRRRRRRRRRRRRRRRRRRRRRRRRRRRR",
"RRRRRRRRRRRRRRRRRRRRRRRRRRRRRRRRRRRRRRRRRRRRRRRRRRRRRRRRRRRRRRRRRRRRRRRRRRRRRRRRRRRRRRRRRRRRRRRRRRRRRRRRRRRRRRRRRRRRRRRRRRRRRRRR",
"RRRRRRRRRRRRRRRRRRRRRRRRRRRRRRRRRRRRRRRRRRRRRRRRRRRRRRRRRRRRRRRRRRRRRRRRRRRRRRRRRRRRRRRRRRRRRRRRRRRRRRRRRRRRRRRRRRRRRRRRRRRRRRRR",
"RRRRRRRRRRRRRRRRRRRRRRRRRRRRRRRRRRRRRRRRRRRRRRRRRRRRRRRRRRRRRRRRRRRRRRRRRRRRRRRRRRRRRRRRRRRRRRRRRRRRRRRRRRRRRRRRRRRRRRRRRRRRRRRR",
"RRRRRRRRRRRRRRRRRRRRRRRRRRRRRRRRRRRRRRRRRRRRRRRRRRRRRRRRRRRRRRRRRRRRRRRRRRRRRRRRRRRRRRRRRRRRRRRRRRRRRRRRRRRRRRRRRRRRRRRRRRRRRRRR",
"RRRRRRRRRRRRRRRRRRRRRRRRRRRRRRRRRRRRRRRRRRRRRRRRRRRRRRRRRRRRRRRRRRRRRRRRRRRRRRRRRRRRRRRRRRRRRRRRRRRRRRRRRRRRRRRRRRRRRRRRRRRRRRRR",
"RRRRRRRRRRRRRRRRRRRRRRRRRRRRRRRRRRRRRRRRRRRRRRRRRRRRRRRRRRRRRRRRRRRRRRRRRRRRRRRRRRRRRRRRRRRRRRRRRRRRRRRRRRRRRRRRRRRRRRRRRRRRRRRR",
"RRRRRRRRRRRRRRRRRRRRRRRRRRRRRRRRRRRRRRRRRRRRRRRRRRRRRRRRRRRRRRRRRRRRRRRRRRRRRRRRRRRRRRRRRRRRRRRRRRRRRRRRRRRRRRRRRRRRRRRRRRRRRRRR",
"RRRRRRRRRRRRRRRRRRRRRRRRRRRRRRRRRRRRRRRRRRRRRRRRRRRRRRRRRRRRRRRRRRRRRRRRRRRRRRRRRRRRRRRRRRRRRRRRRRRRRRRRRRRRRRRRRRRRRRRRRRRRRRRR",
"RRRRRRRRRRRRRRRRRRRRRRRRRRRRRRRRRRRRRRRR                                                                        RRRRRRRRRRRRRRRR",
"RRRRRRRRRRRRRRRRRRRRRRRRRRRRRRRRRRRRRRR                                                                         RRRRRRRRRRRRRRRR",
"RRRRRRRRRRRRRRRRRRRRRRRRRRRRRRRRRRRRRRR        +&**:***:*:*:***:*:**:*****:**:**:*****:**:**:****:>48084+       RRRRRRRRRRRRRRRR",
"RRRRRRRRRRRRRRRRRRRRRRRRRRRRRRRRRRRRRR   4:                                                           4ll06     RRRRRRRRRRRRRRRR",
"RRRRRRRRRRRRRRRRRRRRRRRRRRRRRRRRRRRRR   05                                                              >89&    RRRRRRRRRRRRRRRR",
"RRRRRRRRRRRRRRRRRRRRRRRRRRRRRRRRRRRR  .00   >xxxxxxxxxxxxxxxxxxxxxxxxxxxxxxxxxxxxxxxxxxxxxxxxxxxxxxxxxx9 +&     RRRRRRRRRRRRRRRR",
"RRRRRRRRRRRRRRRRRRRRRRRRRRRRRRRRRRR  :08    4nnnnnmnmnmnmnmmmnmnnmnmmmmmnmmnmmnmmmnmmnmmnmmnmmmmmmmmmml  .      RRRRRRRRRRRRRRRR",
"RRRRRRRRRRRRRRRRRRRRRRRRRRRRRRRRRR  68+     3bnnnnmnJmJmmJmmJmJmJmJmmmmmJmmJmmJmmmmJmJmmmJmJmmmmmmmmml...       RRRRRRRRRRRRRRRR",
"RRRRRRRRRRRRRRRRRRRRRRRRRRRRRRRRR .q>  &    3bbnnJJJJJJJKJJJJJJJJJJJJJKJJJJJKJJJKJJJJJKJJJJJKJJJJKJJx ::        RRRRRRRRRRRRRRRR",
"RRRRRRRRRRRRRRRRRRRRRRRRRRRRRRRR +l   39    3bbnJJKLLLLLLLLLLPLLLLPLPLLLLLLLLLLLLLLLPLLLLLPLLLPLLLLc.:0   +&    RRRRRRRRRRRRRRRR",
"RRRRRRRRRRRRRRRRRRRRRRRRRRRRRRR +q   >K0    3bnnJKPIIIIIIIIIIIIIIIIIIIIIIIIIIIIIIIIIIIIIIIIIIIIIIIv  q   &n&    RRRRRRRRRRRRRRRR",
"RRRRRRRRRRRRRRRRRRRRRRRRRRRRRR +q   3KK8    >bnmKLPUYYYYYYYYYUYYYYYYYYYYYYYYYYYUYYYYYYYYUYYYYYYYYb. q   &nm*    RRRRRRRRRRRRRRRR",
"RRRRRRRRRRRRRRRRRRRRRRRRRRRRR +q   >KKJ8    3bnJLPUYYYTTYTTYYTTTTYTYYTTYTYYTTYTTTYTYYTTYYTTYYTTTn  l   &mJm&    RRRRRRRRRRRRRRRR",
"RRRRRRRRRRRRRRRRRRRRRRRRRRRR +q   3KKmm8 +  4nnJKPUYTTTTTTTTTTTTTTTTTTTTTTTTTTTTTTTTTTTTTTTTTTTn. q   &JKJn*    RRRRRRRRRRRRRRRR",
"RRRRRRRRRRRRRRRRRRRRRRRRRRR +q   >KKmnn8 :  4nnJKIUYTTTTTTTTTTTTTTTTTTTTTTTTTTTTTTTTTTTTTTTTTTn  l   &JKJnm& X  RRRRRRRRRRRRRRRR",
"RRRRRRRRRRRRRRRRRRRRRRRRRR +q   >KKmmmm8 >  4nmJLPUTTTTTTTTTTTTTTTTTTTTTTTTTTTTTTTTTTTTTTTTTTm. q   &JKmmmm* *  RRRRRRRRRRRRRRRR",
"RRRRRRRRRRRRRRRRRRRRRRRRR +q   >KKJmnmJ0 3  4nmJKIUYTTTTTTTTTTTTTTTTTTTTTTTTTTTTTTTTTTTTTTTTn  q   &JKmnnmJ* :  RRRRRRRRRRRRRRRR",
"RRRRRRRRRRRRRRRRRRRRRRRR +q   >KKJnnJJL0 3  4mnJLPUYTTTTTTTTTTTTTTTTTTTTTTTTTTTTTTTTTTTTTTTn. q   &JJJmmnJK* :  RRRRRRRRRRRRRRRR",
"RRRRRRRRRRRRRRRRRRRRRRR +l   >LJJnnmJLP0 3  4mmJLPUYTTTTTTTTTTTTTTTTTTTTTTTTTTTTTTTTTTTTTTm. q   &JKJnmmJKP* :  RRRRRRRRRRRRRRRR",
"RRRRRRRRRRRRRRRRRRRRRR +q   >KJJmnJJKPIq 3  4mmJKIUYTTTTTTTTTTTTTTTTTTTTTTTTTTTTTTTTTTTTTn  q   &JJJnmmJKPI* :  RRRRRRRRRRRRRRRR",
"RRRRRRRRRRRRRRRRRRRRR +q   >KKJnnJJLPIYl 3  4mmmKIUTTTTTTTTTTTTTTTTTTTTTTTTTTTTTTTTTTTTTn. q   &JKJmmnJLPIU: :  RRRRRRRRRRRRRRRR",
"RRRRRRRRRRRRRRRRRRRR +q   >KJJmnmJKPIYYl 3  4mmJLPUYTTTTTTTTTTTTTTTTTTTTTTTTTTTTTTTTTTTn. q   &JKmmnmJKPIUY: :  RRRRRRRRRRRRRRRR",
"RRRRRRRRRRRRRRRRRRR +q   >LJJnmmJKPIYYTl 3  4JmJKIUTTTTTTTTTTTTTTTTTTTTTTTTTTTTTTTTTTTn  q   &JKmmmmJKPIUYY: :  RRRRRRRRRRRRRRRR",
"RRRRRRRRRRRRRRRRRR +q   >KJJnmJJLPIUYYTl 3  4nnJKIUYTTTTTTTTTTTTTTTTTTTTTTTTTTTTTTTTTn. q   &JKJmnmJKPIUYTT: :  RRRRRRRRRRRRRRRR",
"RRRRRRRRRRRRRRRRR +q   >KKJnmmJKPIYYTTTl 3  4mmJLPUYTTTTTTTTTTTTTTTTTTTTTTTTTTTTTTTTn. l   &JKJnmmJKPIUYYTT: :  RRRRRRRRRRRRRRRR",
"RRRRRRRRRRRRRRRR +q   >KJJmnnJLPIUYTTTTl 3  4mmJKIUYTTTTTTTTTTTTTTTTTTTTTTTTTTTTTTTn  q   &JKmmnmJKPIUYTTTT: :  RRRRRRRRRRRRRRRR",
"RRRRRRRRRRRRRRR Xq   >KKJnnmJLPIYYTTTTTl >  4mmJKIUTTTTTTTTTTTTTTTTTTTTTTTTTTTTTTTn. q   &JKJmnmJKLIUYTTTTT: >  RRRRRRRRRRRRRRRR",
"RRRRRRRRRRRRRR  l   >KKJmnmJKPIUYTTTTTTl 5  4mnJKIUYTTTTTTTTTTTTTTTTTTTTTTTTTTTTTn  q   &JJJmnJJKPIUYTTTTTT: :  RRRRRRRRRRRRRRRR",
"RRRRRRRRRRRRR  0.  >KKJnmJJLPIUTTTTTTTTl 9  4JmJLPUYTTTTTTTTTTTTTTTTTTTTTTTTTTTTn  l   &JKJnmmJKPIUYYTTTTTT: :  RRRRRRRRRRRRRRRR",
"RRRRRRRRRRRR  45  >KKmnnmJKPIYTYTTTTTTTl l  4mmJKIUYTTTTTTTTTTTTTTTTTTTTTTTTTTTn. q   *JKJmnnJKPIUYTTTTTTTT: :  RRRRRRRRRRRRRRRR",
"RRRRRRRRRRR  &9  >KKmnnJJLPIUYYTTTTTTTTl q  4JmJLPUTTTTTTTTTTTTTTTTTTTTTTTTTTTn. l   *JJJnmmJLPIUYTTTTTTTTT: :  RRRRRRRRRRRRRRRR",
"RRRRRRRRRR   03 >KKmmnmJKPIUYTTTTTTTTTTl*q  4nnJKIUYTTTTTTTTTTTTTTTTTTTTTTTTTn .q   &JKJmnmJKLIUYTYTTTTTTTT: :  RRRRRRRRRRRRRRRR",
"RRRRRRRR    00 .&&+&&&&&&**&***********&9q  .&&&&&&*&***********************+  9   *JKmnnJJKPIUYTTTTTTTTTTT: :  RRRRRRRRRRRRRRRR",
"RRRRRRR    88                       +6qq5                                    *5   &JJJmmmJKPIUYTTTTTTTTTTTT: :  RRRRRRRRRRRRRRRR",
"RRRRRRRR  &4         X****:**:****:>>&          .&:***:***:*:*:***:***>480lq04   &JKJmmmJKPIUYTTTTTTTTTTTTT: :  RRRRRRRRRRRRRRRR",
"RRRRRRRR  +                                                                :3   +mJJnnmJKPIUYYTTTTTTTTTTTTT: :  RRRRRRRRRRRRRRRR",
"RRRRRRRR                                                                        lJJnnmJKPIUYTTTTTTTTTTTTTTT: :  RRRRRRRRRRRRRRRR",
"RRRRRRRR    <puytrttyuiuipppppppppppppppiiuuyttyuiupppppppppppppppppppppppp@    lnnnmJKPIUYYTTTTTTTTTTTTTTT: :  RRRRRRRRRRRRRRRR",
"RRRRRRRR    2hdsassdfgfgggggggggggggggggggdsddsdgfdggfggggggggggggggggggggg#    lbnnJKLIUYTTTTTTTTTTTTTTTTT: :  RRRRRRRRRRRRRRRR",
"RRRRRRRR .  2gdsddfggggghggggggjgggggggggjjgggfjfjjjjggggggggghhhgggggggggg#    qbnnJLIUYTYTTTTTTTTTTTTTTTT: :  RRRRRRRRRRRRRRRR",
"RRRRRRRR &  2gdsfgjjkjjjjkjkjkjjjkjkjkjkkjjkjkkkjkjjjkjjkkkkjkkkkjkjkjjkjjj$    lnnJKPUYTTTTTTTTTTTTTTTTTTT: :  RRRRRRRRRRRRRRRR",
"RRRRRRRR :  2gfggjkNBBBBBBBBBBBBBBBBBBBNBBBBkVkCkCBBBBCkDkkkkkkDBBBBBBBBVBV% @  lnnJKPUYTTTTTTTTTTTTTTTTTTT: :  RRRRRRRRRRRRRRRR",
"RRRRRRRR >  2gggjNVCZAAAZAAZAAAAAAAAZZAAAAAAAAAACDAAADZADCCDCDCDZAZAAAAAAAA= :  lnmJLIUYTTTTTTTTTTTTTTTTTTT: >  RRRRRRRRRRRRRRRR",
"RRRRRRRR 3  2gggkBZSDDDDDDFDDDFDFDDDDFDDDDDDDDDDDDDDDDDDDDDDDDDDFDDDDFDDDDD- :  xnmJLIYTTTTTTTTTTTTTTTTTTTT: :  RRRRRRRRRRRRRRRR",
"RRRRRRRR 3  2gghkCADFFHGGGGFGGGGGGFGHFHHGGGGHGGGGGFGGFGGGGGGGGGGGFGGHFHGGGG- :  zmmJLIYYTTTTTTTTTTTTTTTTTTT: :  RRRRRRRRRRRRRRRR",
"RRRRRRRR 3  2ggjkCSFHHHHHHHHHHHHHGHGHGHHGHHHHHHHHHHHHHHHHGHHHGHHHHHHHGHGHHH; :  zmmJLIYYTTTTTTTTTTTTTTTTTTT: :  RRRRRRRRRRRRRRRR",
"RRRRRRRR 3  2hgjNCSFFHHHHHHHHHHHHHHHHHHHHHHHHHHHHHHHHHHHHHHHHHHHHHHHHHHHHHH- :  znJJPIYTTTTTTTTTTTTTTTTTTTT: :  RRRRRRRRRRRRRRRR",
"RRRRRRRR 3  2ggjNCSFHHHHHHHHHHHHHHHHHHHHHHHHHHHHHHHHHHHHHHHHHHHHHHHHHHHHHHH- :  xmmJPIUTTTTTTTTTTTTTTTTTTTT: :  RRRRRRRRRRRRRRRR",
"RRRRRRRR 3  2gghMCDFGHHHHHHHHHHHHHHHHHHHHHHHHHHHHHHHHHHHHHHHHHHHHHHHHHHHHHH- :  znmKLIYYTTTTTTTTTTTTTTTTTTT: :  RRRRRRRRRRRRRRRR",
"RRRRRRRR 3  2ggjMCSFHHHHHHHHHHHHHHHHHHHHHHHHHHHHHHHHHHHHHHHHHHHHHHHHHHHHHHH- :  xnmJLIYTTTTTTTTTTTTTTTTTTTT: :  RRRRRRRRRRRRRRRR",
"RRRRRRRR 3  2ggjMCDFHHHHHHHHHHHHHHHHHHHHHHHHHHHHHHHHHHHHHHHHHHHHHHHHHHHHHHH- :  znJJLIUTTTTTTTTTTTTTTTTTTTT: :  RRRRRRRRRRRRRRRR",
"RRRRRRRR 3  2ggjMCAFHHHHHHHHHHHHHHHHHHHHHHHHHHHHHHHHHHHHHHHHHHHHHHHHHHHHHHH- :  xmmJLIYYTTTTTTTTTTTTTTTTTTT: :  RRRRRRRRRRRRRRRR",
"RRRRRRRR 3  2ggjMCDFHHHHHHHHHHHHHHHHHHHHHHHHHHHHHHHHHHHHHHHHHHHHHHHHHHHHHHH- :  znJJLIYTTTTTTTTTTTTTTTTTTTT: :  RRRRRRRRRRRRRRRR",
"RRRRRRRR 3  2hgjMCDFGHHHHHHHHHHHHHHHHHHHHHHHHHHHHHHHHHHHHHHHHHHHHHHHHHHHHHH- >  xnmJLIUTTTTTTTTTTTTTTTTTTTT: :  RRRRRRRRRRRRRRRR",
"RRRRRRRR 3  2ffjMZSGHHHHHHHHHHHHHHHHHHHHHHHHHHHHHHHHHHHHHHHHHHHHHHHHHHHHHHH; :  znJJPIYTTTTTTTTTTTTTTTTTTTT: :  RRRRRRRRRRRRRRRR",
"RRRRRRRR 3  2jjjMZSDHHHHHHHHHHHHHHHHHHHHHHHHHHHHHHHHHHHHHHHHHHHHHHHHHHHHHHH; :  xmmJPIUTTTTTTTTTTTTTTTTTTTT: :  RRRRRRRRRRRRRRRR",
"RRRRRRRR 3  2jfjMZSGHHHHHHHHHHHHHHHHHHHHHHHHHHHHHHHHHHHHHHHHHHHHHHHHHHHHHHH; :  znmKLIYYTTTTTTTTTTTTTTTTTTT: :  RRRRRRRRRRRRRRRR",
"RRRRRRRR 3  2fdjMZSGHHHHHHHHHHHHHHHHHHHHHHHHHHHHHHHHHHHHHHHHHHHHHHHHHHHHHHH; :  xnmJLIYTTTTTTTTTTTTTTTTTTTT: :  RRRRRRRRRRRRRRRR",
"RRRRRRRR 3  2jfjMZSFHHHHHHHHHHHHHHHHHHHHHHHHHHHHHHHHHHHHHHHHHHHHHHHHHHHHHHH- :  znJJLIYYTTTTTTTTTTTTTTTTTTT: :  RRRRRRRRRRRRRRRR",
"RRRRRRRR 3  2fjjMBSFHHHHHHHHHHHHHHHHHHHHHHHHHHHHHHHHHHHHHHHHHHHHHHHHHHHHHHH- :  xmmJLIYTTTTTTTTTTTTTTTTTTTT: :  RRRRRRRRRRRRRRRR",
"RRRRRRRR 3  2jfjMZSFHHHHHHHHHHHHHHHHHHHHHHHHHHHHHHHHHHHHHHHHHHHHHHHHHHHHHHH- :  znJJLIYYTTTTTTTTTTTTTTTTTTT: >  RRRRRRRRRRRRRRRR",
"RRRRRRRR 3  2jfjMZDFHHHHHHHHHHHHHHHHHHHHHHHHHHHHHHHHHHHHHHHHHHHHHHHHHHHHHHH- >  xnmJLIYYTTTTTTTTTTTTTTTTTTT: :  RRRRRRRRRRRRRRRR",
"RRRRRRRR 3  2jjjMZSFGHHHHHHHHHHHHHHHHHHHHHHHHHHHHHHHHHHHHHHHHHHHHHHHHHHHHHH- :  znJJPIYTTTTTTTTTTTTTTTTTTTT: :  RRRRRRRRRRRRRRRR",
"RRRRRRRR 3  2jfjMBSFGHHHHHHHHHHHHHHHHHHHHHHHHHHHHHHHHHHHHHHHHHHHHHHHHHHHHHH- :  xmmJPIUTTTTTTTTTTTTTTTTTTTT: :  RRRRRRRRRRRRRRRR",
"RRRRRRRR 3  2fjjMZSFHHHHHHHHHHHHHHHHHHHHHHHHHHHHHHHHHHHHHHHHHHHHHHHHHHHHHHH- :  znmKLIYYTTTTTTTTTTTTTTTTTTT: :  RRRRRRRRRRRRRRRR",
"RRRRRRRR 3  2jfjMZSFGHHHHHHHHHHHHHHHHHHHHHHHHHHHHHHHHHHHHHHHHHHHHHHHHHHHHHH; :  xnmJLIYTTTTTTTTTTTTTTTTTTTT: :  RRRRRRRRRRRRRRRR",
"RRRRRRRR 3  2ggjMZSFHHHHHHHHHHHHHHHHHHHHHHHHHHHHHHHHHHHHHHHHHHHHHHHHHHHHHHH- >  znJJLIUTTTTTTTTTTTTTTTTTTTT: :  RRRRRRRRRRRRRRRR",
"RRRRRRRR 3  2ggjMZDFGHHHHHHHHHHHHHHHHHHHHHHHHHHHHHHHHHHHHHHHHHHHHHHHHHHHHHH- 4  xmmJLIYYTTTTTTTTTTTTTTTTTTT: 3  RRRRRRRRRRRRRRRR",
"RRRRRRRR 3  2gcjMBDFGHHHHHHHHHHHHHHHHHHHHHHHHHHHHHHHHHHHHHHHHHHHHHHHHHHHHHH- 6  znJJLIYTTTTTTTTTTTTTTTTTTTT:+4  RRRRRRRRRRRRRRRR",
"RRRRRRRR 3  2gfMMZDGHHHHHHHHHHHHHHHHHHHHHHHHHHHHHHHHHHHHHHHHHHHHHHHHHHHHHHH- 9  xnmJLIUTTTTTTTTTTTTTTTTTTTT:5*  RRRRRRRRRRRRRRRR",
"RRRRRRRR 3  2gjjMBDDGHHHHHHHHHHHHHHHHHHHHHHHHHHHHHHHHHHHHHHHHHHHHHHHHHHHHHH- 0  znJJLIYTTTTTTTTTTTTTTTTTTTT:q   RRRRRRRRRRRRRRRR",
"RRRRRRRR 3  2ggjMZSGGHHHHHHHHHHHHHHHHHHHHHHHHHHHHHHHHHHHHHHHHHHHHHHHHHHHHHH; 64 59890qllzllzzlzllzlllzlllzl&0   RRRRRRRRRRRRRRRR",
"RRRRRRRR 3  2ggjMZDFHHHHHHHHHHHHHHHHHHHHHHHHHHHHHHHHHHHHHHHHHHHHHHHHHHHHHHH- :0                            54   RRRRRRRRRRRRRRRR",
"RRRRRRRR 3  2gggMZSFGHHHHHHHHHHHHHHHHHHHHHHHHHHHHHHHHHHHHHHHHHHHHHHHHHHHHHH-  8     +>>33>333333334443:&&:80    RRRRRRRRRRRRRRRR",
"RRRRRRRR 3  2ggjMBDFGHHHHHHHHHHHHHHHHHHHHHHHHHHHHHHHHHHHHHHHHHHHHHHHHHHHHHH-  *                      4qlqq0+    RRRRRRRRRRRRRRRR",
"RRRRRRRR 3  2ggjMZSFHHHHHHHHHHHHHHHHHHHHHHHHHHHHHHHHHHHHHHHHHHHHHHHHHHHHHHH-                           +65.     RRRRRRRRRRRRRRRR",
"RRRRRRRR 3  2ggjMZDGGHHHHHHHHHHHHHHHHHHHHHHHHHHHHHHHHHHHHHHHHHHHHHHHHHHHHHH-    :3>334444444444444444444X       RRRRRRRRRRRRRRRR",
"RRRRRRRR 3  2ggjMZSGGHHHHHHHHHHHHHHHHHHHHHHHHHHHHHHHHHHHHHHHHHHHHHHHHHHHHHH-    lnnbnnnnmmmmmnmJnJmnmmn:       RRRRRRRRRRRRRRRRR",
"RRRRRRRR 3  2ggjMBDFGHHHHHHHHHHHHHHHHHHHHHHHHHHHHHHHHHHHHHHHHHHHHHHHHHHHHHH;    znnbnnmmmnmJmmmnmmmmmn:.      RRRRRRRRRRRRRRRRRR",
"RRRRRRRR 3  2ggjMZSGGHHHHHHHHHHHHHHHHHHHHHHHHHHHHHHHHHHHHHHHHHHHHHHHHHHHHHH; +  znbnnnJmJJJJJmJJJJJmm:X>     RRRRRRRRRRRRRRRRRRR",
"RRRRRRRR 3  2ggjMZSFGHHHHHHHHHHHHHHHHHHHHHHHHHHHHHHHHHHHHHHHHHHHHHHHHHHHHHH; &  znnnmJKKLKKKKLKKKLKK: 9     RRRRRRRRRRRRRRRRRRRR",
"RRRRRRRR 3  2ggjMZSFHHHHHHHHHHHHHHHHHHHHHHHHHHHHHHHHHHHHHHHHHHHHHHHHHHHHHHH; :  zmnnJKLPPIPIIPIIIPP> 84    RRRRRRRRRRRRRRRRRRRRR",
"RRRRRRRR 3  2ggjMZSGHHHHHHHHHHHHHHHHHHHHHHHHHHHHHHHHHHHHHHHHHHHHHHHHHHHHHHH- :  xnnJKPPUUUUUUUUUUI> 66   RRRRRRRRRRRRRRRRRRRRRRR",
"RRRRRRRR 3  2ggjMZSDHHHHHHHHHHHHHHHHHHHHHHHHHHHHHHHHHHHHHHHHHHHHHHHHHHHHHHH- :  zmmJKIUYTYYYTYYTY3 66   RRRRRRRRRRRRRRRRRRRRRRRR",
"RRRRRRRR 3  2ggjMZHHHHHHHHHHHHHHHHHHHHHHHHHHHHHHHHHHHHHHHHHHHHHHHHHHHHHHHHH- >  zmmJLIUYTTTTTTTY3 56   RRRRRRRRRRRRRRRRRRRRRRRRR",
"RRRRRRRR 3  2ggjNZGHHHHHHHHHHHHHHHHHHHHHHHHHHHHHHHHHHHHHHHHHHHHHHHHHHHHHHHH; :  xnJJLIYTTTTTTTY> 56   RRRRRRRRRRRRRRRRRRRRRRRRRR",
"RRRRRRRR 3  2ggjMCSFHHHHHHHHHHHHHHHHHHHHHHHHHHHHHHHHHHHHHHHHHHHHHHHHHHHHHHH- >  zmmJLIUTTTTTTT3 56   RRRRRRRRRRRRRRRRRRRRRRRRRRR",
"RRRRRRRR 3  2ggjMCSFGHHHHHHHHHHHHHHHHHHHHHHHHHHHHHHHHHHHHHHHHHHHHHHHHHHHHHH- :  xmmJLIYYTTTTY3 66   RRRRRRRRRRRRRRRRRRRRRRRRRRRR",
"RRRRRRRR 3  2ggjMCSFHHHHHHHHHHHHHHHHHHHHHHHHHHHHHHHHHHHHHHHHHHHHHHHHHHHHHHH- :  znmKLIYTTTTY3 56   RRRRRRRRRRRRRRRRRRRRRRRRRRRRR",
"RRRRRRRR 3  2hgjMCDFGHHHHHHHHHHHHHHHHHHHHHHHHHHHHHHHHHHHHHHHHHHHHHHHHHHHHHH; :  zmmJLIYYTTT3 56   RRRRRRRRRRRRRRRRRRRRRRRRRRRRRR",
"RRRRRRRR 3  2ggjMCDFGHHHHHHHHHHHHHHHHHHHHHHHHHHHHHHHHHHHHHHHHHHHHHHHHHHHHHH; :  xmmKLIYTTT3 66   RRRRRRRRRRRRRRRRRRRRRRRRRRRRRRR",
"RRRRRRRR 3  2gghMCSFHHHHHHHHHHHHHHHHHHHHHHHHHHHHHHHHHHHHHHHHHHHHHHHHHHHHHHH- :  znmJLIYYY3 56   RRRRRRRRRRRRRRRRRRRRRRRRRRRRRRRR",
"RRRRRRRR 3  2ggjMCSFGHHHHHHHHHHHHHHHHHHHHHHHHHHHHHHHHHHHHHHHHHHHHHHHHHHHHHH- :  zmmJLIYY3 56   RRRRRRRRRRRRRRRRRRRRRRRRRRRRRRRRR",
"RRRRRRRR 3  2ggjMCDFHHHHHHHHHHHHHHHHHHHHHHHHHHHHHHHHHHHHHHHHHHHHHHHHHHHHHHH- :  xnmKLIU3 66   RRRRRRRRRRRRRRRRRRRRRRRRRRRRRRRRRR",
"RRRRRRRR 3  2ggjMCSFHHHHHHHHHHHHHHHHHHHHHHHHHHHHHHHHHHHHHHHHHHHHHHHHHHHHHHH- >  znmKLI> 56   RRRRRRRRRRRRRRRRRRRRRRRRRRRRRRRRRRR",
"RRRRRRRR 3  2ghjMCSFGHHHHHHHHHHHHHHHHHHHHHHHHHHHHHHHHHHHHHHHHHHHHHHHHHHHHHH- 4  zmmJK> 66   RRRRRRRRRRRRRRRRRRRRRRRRRRRRRRRRRRRR",
"RRRRRRRR 3  2gghMCSGHHHHHHHHHHHHHHHHHHHHHHHHHHHHHHHHHHHHHHHHHHHHHHHHHHHHHHH- 6  xmJJ> 56   RRRRRRRRRRRRRRRRRRRRRRRRRRRRRRRRRRRRR",
"RRRRRRRR 4  2ggjMCSFGHHHHHHHHHHHHHHHHHHHHHHHHHHHHHHHHHHHHHHHHHHHHHHHHHHHHHH- 9  znn: 86   RRRRRRRRRRRRRRRRRRRRRRRRRRRRRRRRRRRRRR",
"RRRRRRRR 4  2jgjMCSGHHHHHHHHHHHHHHHHHHHHHHHHHHHHHHHHHHHHHHHHHHHHHHHHHHHHHHH- 9: zn:X05   RRRRRRRRRRRRRRRRRRRRRRRRRRRRRRRRRRRRRRR",
"RRRRRRRR 4  ,ggjMCSFGHHHHHHHHHHHHHHHHHHHHHHHHHHHHHHHHHHHHHHHHHHHHHHHHHHHHHH; 80 l:.5X   RRRRRRRRRRRRRRRRRRRRRRRRRRRRRRRRRRRRRRRR",
"RRRRRRRR 4  %ggjMCSFHHHHHHHHHHHHHHHHHHHHHHHHHHHHHHHHHHHHHHHHHHHHHHHHHHHHHHH- 5q *      RRRRRRRRRRRRRRRRRRRRRRRRRRRRRRRRRRRRRRRRR",
"RRRRRRRR >: ;ghjMCSFHHHHHHHHHHHHHHHHHHHHHHHHHHHHHHHHHHHHHHHHHHHHHHHHHHHHHHH- 5q*      RRRRRRRRRRRRRRRRRRRRRRRRRRRRRRRRRRRRRRRRRR",
"RRRRRRRR +8 oggjMCSFHHHHHHHHHHHHHHHHHHHHHHHHHHHHHHHHHHHHHHHHHHHHHHHHHHHHHHH- 80      RRRRRRRRRRRRRRRRRRRRRRRRRRRRRRRRRRRRRRRRRRR",
"RRRRRRRR  l  o27rwetyyyyuuuuuyuuuyyuyuuuuyuuuyyuuuyyuuuuuuyyuuuuuuuuyyuyuuy@60X      RRRRRRRRRRRRRRRRRRRRRRRRRRRRRRRRRRRRRRRRRRR",
"RRRRRRRR  &.                                                             X508       RRRRRRRRRRRRRRRRRRRRRRRRRRRRRRRRRRRRRRRRRRRR",
"RRRRRRRR        .&>33333333>3>333>33333>3>333>333333>3>33333>3>333333348004        RRRRRRRRRRRRRRRRRRRRRRRRRRRRRRRRRRRRRRRRRRRRR",
"RRRRRRRR                                                                          RRRRRRRRRRRRRRRRRRRRRRRRRRRRRRRRRRRRRRRRRRRRRR",
"RRRRRRRR                                                                         RRRRRRRRRRRRRRRRRRRRRRRRRRRRRRRRRRRRRRRRRRRRRRR",
"RRRRRRRR                                                                        RRRRRRRRRRRRRRRRRRRRRRRRRRRRRRRRRRRRRRRRRRRRRRRR",
"RRRRRRRRRRRRRRRRRRRRRRRRRRRRRRRRRRRRRRRRRRRRRRRRRRRRRRRRRRRRRRRRRRRRRRRRRRRRRRRRRRRRRRRRRRRRRRRRRRRRRRRRRRRRRRRRRRRRRRRRRRRRRRRR",
"RRRRRRRRRRRRRRRRRRRRRRRRRRRRRRRRRRRRRRRRRRRRRRRRRRRRRRRRRRRRRRRRRRRRRRRRRRRRRRRRRRRRRRRRRRRRRRRRRRRRRRRRRRRRRRRRRRRRRRRRRRRRRRRR",
"RRRRRRRRRRRRRRRRRRRRRRRRRRRRRRRRRRRRRRRRRRRRRRRRRRRRRRRRRRRRRRRRRRRRRRRRRRRRRRRRRRRRRRRRRRRRRRRRRRRRRRRRRRRRRRRRRRRRRRRRRRRRRRRR",
"RRRRRRRRRRRRRRRRRRRRRRRRRRRRRRRRRRRRRRRRRRRRRRRRRRRRRRRRRRRRRRRRRRRRRRRRRRRRRRRRRRRRRRRRRRRRRRRRRRRRRRRRRRRRRRRRRRRRRRRRRRRRRRRR",
"RRRRRRRRRRRRRRRRRRRRRRRRRRRRRRRRRRRRRRRRRRRRRRRRRRRRRRRRRRRRRRRRRRRRRRRRRRRRRRRRRRRRRRRRRRRRRRRRRRRRRRRRRRRRRRRRRRRRRRRRRRRRRRRR",
"RRRRRRRRRRRRRRRRRRRRRRRRRRRRRRRRRRRRRRRRRRRRRRRRRRRRRRRRRRRRRRRRRRRRRRRRRRRRRRRRRRRRRRRRRRRRRRRRRRRRRRRRRRRRRRRRRRRRRRRRRRRRRRRR",
"RRRRRRRRRRRRRRRRRRRRRRRRRRRRRRRRRRRRRRRRRRRRRRRRRRRRRRRRRRRRRRRRRRRRRRRRRRRRRRRRRRRRRRRRRRRRRRRRRRRRRRRRRRRRRRRRRRRRRRRRRRRRRRRR",
"RRRRRRRRRRRRRRRRRRRRRRRRRRRRRRRRRRRRRRRRRRRRRRRRRRRRRRRRRRRRRRRRRRRRRRRRRRRRRRRRRRRRRRRRRRRRRRRRRRRRRRRRRRRRRRRRRRRRRRRRRRRRRRRR",
"RRRRRRRRRRRRRRRRRRRRRRRRRRRRRRRRRRRRRRRRRRRRRRRRRRRRRRRRRRRRRRRRRRRRRRRRRRRRRRRRRRRRRRRRRRRRRRRRRRRRRRRRRRRRRRRRRRRRRRRRRRRRRRRR"
};
