/* XPM */
static char *gridsettings[] = {
/* columns rows colors chars-per-pixel */
"128 128 86 1 ",
"  c black",
". c #020202",
"X c #090909",
"o c gray4",
"O c #0B0B0B",
"+ c #0E0E0E",
"@ c #101010",
"# c #111111",
"$ c #131313",
"% c gray8",
"& c #161616",
"* c #191919",
"= c gray10",
"- c #1B1B1B",
"; c #1E1E1E",
": c gray13",
"> c #232323",
", c gray14",
"< c #252525",
"1 c gray15",
"2 c gray16",
"3 c #2C2C2C",
"4 c #2D2D2D",
"5 c #2F2F2F",
"6 c gray19",
"7 c #313131",
"8 c gray20",
"9 c #343434",
"0 c #373737",
"q c gray22",
"w c #393939",
"e c #3A3A3A",
"r c gray23",
"t c #3C3C3C",
"y c #3E3E3E",
"u c #3F3F3F",
"i c gray25",
"p c gray26",
"a c #444444",
"s c #464646",
"d c #484848",
"f c gray29",
"g c #4B4B4B",
"h c #4C4C4C",
"j c gray30",
"k c gray31",
"l c #505050",
"z c #515151",
"x c gray32",
"c c #535353",
"v c gray33",
"b c #555555",
"n c #565656",
"m c #5A5A5A",
"M c gray36",
"N c #5D5D5D",
"B c gray37",
"V c #5F5F5F",
"C c gray38",
"Z c #626262",
"A c gray39",
"S c #646464",
"D c gray40",
"F c #676767",
"G c #686868",
"H c DimGray",
"J c #6A6A6A",
"K c gray42",
"L c #6C6C6C",
"P c #6D6D6D",
"I c gray43",
"U c #717171",
"Y c #727272",
"T c gray45",
"R c #747474",
"E c #767676",
"W c #777777",
"Q c gray47",
"! c #797979",
"~ c gray48",
"^ c #7B7B7B",
"/ c #7C7C7C",
"( c gray49",
") c #7E7E7E",
"_ c gray50",
"` c None",
/* pixels */
"````````````````````````````````````````````````````````````````````````````````````````````````````````````````````````````````",
"````````````````````````````````````````````````````````````````````````````````````````````````````````````````````````````````",
"````````````````````````````````````````````````````````````````````````````````````````````````````````````````````````````````",
"````````````````````````````````````````````````````````````````````````````````````````````````````````````````````````````````",
"````````````````````````````````````````````````````````````````````````````````````````````````````````````````````````````````",
"````````````````````````````````````````````````````````````````````````````````````````````````````````````````````````````````",
"````````````````````````````````````````````````````````````````````````````````````````````````````````````````````````````````",
"````````````````````````````````````````````````````````````````````````````````````````````````````````````````````````````````",
"````````````````````````````````````````````````````````````````````````````````````````````````````````````````````````````````",
"````````````````````````````````````````````````````````````````````````````````````````````````````````````````````````````````",
"````````````````````````````````````````````````````````````````````````````````````````````````````````````````````````````````",
"````````````                                                                                                        ````````````",
"```````````                                                                                                          ```````````",
"```````````   1;  #>7etttttttttpzZIJg*     +>7eetttttttttkBIIb1     X;4ettttttttepkBIJb>     X;4ettttttttttgBIJk     ```````````",
"```````````  1_1                   #Z_B*                     b_F2                     b_F2                     kz    ```````````",
"```````````  ;1                                                                                                      ```````````",
"```````````      ```````````````````      ```````````````````      ```````````````````      ```````````````````      ```````````",
"```````````     ````````````````````      ```````````````````      ```````````````````      ````````````````````     ```````````",
"```````````  #  ````````````````````      ```````````````````      ```````````````````      ````````````````````     ```````````",
"```````````  >  ````````````````````      ```````````````````      ```````````````````      ````````````````````     ```````````",
"```````````  7  ````````````````````  ;   ```````````````````` *   ```````````````````` ;   ```````````````````` ;   ```````````",
"```````````  e  ````````````````````  t   ```````````````````` e   ```````````````````` e   ```````````````````` 7   ```````````",
"```````````  t  ````````````````````  p   ```````````````````` p   ```````````````````` t   ```````````````````` 9   ```````````",
"```````````  t  ````````````````````  s   ```````````````````` t   ```````````````````` p   ```````````````````` 9   ```````````",
"```````````  t  ````````````````````  p   ```````````````````` p   ```````````````````` p   ```````````````````` 9   ```````````",
"```````````  t  ````````````````````  s   ```````````````````` p   ```````````````````` t   ```````````````````` 9   ```````````",
"```````````  t  ````````````````````  s   ```````````````````` t   ```````````````````` p   ```````````````````` 9   ```````````",
"```````````  t  ````````````````````  p   ```````````````````` p   ```````````````````` p   ```````````````````` 9   ```````````",
"```````````  t  ````````````````````  s   ```````````````````` p   ```````````````````` t   ```````````````````` 9   ```````````",
"```````````  t  ````````````````````  p   ```````````````````` t   ```````````````````` p   ```````````````````` 9   ```````````",
"```````````  t  ````````````````````  s   ```````````````````` p   ```````````````````` p   ```````````````````` 9   ```````````",
"```````````  p  ````````````````````  z   ```````````````````` k   ```````````````````` g   ```````````````````` t   ```````````",
"```````````  z  ````````````````````  J   ```````````````````` J   ```````````````````` J   ```````````````````` m   ```````````",
"```````````  Z  ````````````````````  _   ```````````````````` _   ```````````````````` _   ```````````````````` W   ```````````",
"```````````  I  ```````````````````` *_   ```````````````````` _   ```````````````````` _   ```````````````````` _   ```````````",
"```````````  J# ```````````````````` sQ   ````````````````````;_   ````````````````````>_   ````````````````````7J   ```````````",
"```````````  gZ                      FI                       zQ                       zQ                       J>   ```````````",
"```````````  *_                   *sF_F                    #tB_Y#                   +pB_W#                   XeZ_    ```````````",
"```````````   m     ;tspsspssspzJ__QIFe      *essppsspspkFQ__IJg      #9psspsppspkFQ_QIJg      +9ssppsssspgZQ__Yz    ```````````",
"```````````   *                                                                                                      ```````````",
"```````````                                                                                                          ```````````",
"```````````                                                                                                          ```````````",
"```````````     ````````````````````      ```````````````````      ```````````````````      ````````````````````     ```````````",
"```````````  +  ````````````````````      ```````````````````      ```````````````````      ````````````````````     ```````````",
"```````````  >  ````````````````````      ```````````````````      ```````````````````      ````````````````````     ```````````",
"```````````  7  ````````````````````  *   ```````````````````` &   ```````````````````` *   ```````````````````` *   ```````````",
"```````````  e  ````````````````````  e   ```````````````````` e   ```````````````````` 9   ```````````````````` 7   ```````````",
"```````````  t  ````````````````````  s   ```````````````````` t   ```````````````````` p   ```````````````````` 9   ```````````",
"```````````  t  ````````````````````  s   ```````````````````` p   ```````````````````` p   ```````````````````` 9   ```````````",
"```````````  t  ````````````````````  s   ```````````````````` p   ```````````````````` t   ```````````````````` 9   ```````````",
"```````````  t  ````````````````````  p   ```````````````````` t   ```````````````````` p   ```````````````````` 9   ```````````",
"```````````  t  ````````````````````  s   ```````````````````` p   ```````````````````` p   ```````````````````` 9   ```````````",
"```````````  t  ````````````````````  s   ```````````````````` p   ```````````````````` t   ```````````````````` 9   ```````````",
"```````````  t  ````````````````````  s   ```````````````````` t   ```````````````````` p   ```````````````````` 9   ```````````",
"```````````  t  ````````````````````  p   ```````````````````` p   ```````````````````` p   ```````````````````` 9   ```````````",
"```````````  t  ````````````````````  s   ```````````````````` t   ```````````````````` t   ```````````````````` 9   ```````````",
"```````````  p  ````````````````````  z   ```````````````````` k   ```````````````````` k   ```````````````````` t   ```````````",
"```````````  z  ````````````````````  J   ```````````````````` J   ```````````````````` F   ```````````````````` m   ```````````",
"```````````  Z  ````````````````````  _   ```````````````````` _   ```````````````````` _   ```````````````````` Q   ```````````",
"```````````  I  ```````````````````` *_   ```````````````````` _   ```````````````````` _   ```````````````````` _   ```````````",
"```````````  J# ```````````````````` sW   ````````````````````;_   ````````````````````;_   ````````````````````9F   ```````````",
"```````````  gZ                      FI                       zQ                       zQ                       J>   ```````````",
"```````````  *_                   *sF_F                    #tB_Y#                   #tB_Y&                   X9Z_    ```````````",
"```````````   m     ;tssspspspskJ__QIFe      *esspspspspkZQ__IJg      #9psspspsspgFQ__IJg      +9sspsspspsgZQ__Wz    ```````````",
"```````````   *                                                                                                      ```````````",
"```````````                                                                                                          ```````````",
"```````````                                                                                                          ```````````",
"```````````     ````````````````````      ```````````````````      ```````````````````      ````````````````````     ```````````",
"```````````  +  ````````````````````      ```````````````````      ```````````````````      ````````````````````     ```````````",
"```````````  >  ````````````````````      ```````````````````      ```````````````````      ````````````````````     ```````````",
"```````````  7  ````````````````````  *   ```````````````````` &   ```````````````````` &   ```````````````````` ;   ```````````",
"```````````  e  ````````````````````  t   ```````````````````` 9   ```````````````````` 9   ```````````````````` 7   ```````````",
"```````````  t  ````````````````````  s   ```````````````````` p   ```````````````````` p   ```````````````````` 9   ```````````",
"```````````  t  ````````````````````  s   ```````````````````` p   ```````````````````` p   ```````````````````` 9   ```````````",
"```````````  t  ````````````````````  p   ```````````````````` t   ```````````````````` t   ```````````````````` 9   ```````````",
"```````````  t  ````````````````````  s   ```````````````````` p   ```````````````````` p   ```````````````````` 9   ```````````",
"```````````  t  ````````````````````  s   ```````````````````` p   ```````````````````` p   ```````````````````` 9   ```````````",
"```````````  t  ````````````````````  s   ```````````````````` t   ```````````````````` t   ```````````````````` 9   ```````````",
"```````````  t  ````````````````````  p   ```````````````````` p   ```````````````````` p   ```````````````````` 9   ```````````",
"```````````  t  ````````````````````  s   ```````````````````` p   ```````````````````` p   ```````````````````` 9   ```````````",
"```````````  e  ````````````````````  s   ```````````````````` t   ```````````````````` t   ```````````````````` 9   ```````````",
"```````````  p  ````````````````````  k   ```````````````````` g   ```````````````````` g   ```````````````````` e   ```````````",
"```````````  k  ````````````````````  F   ```````````````````` Z   ```````````````````` Z   ```````````````````` b   ```````````",
"```````````  B  ````````````````````  Q   ```````````````````` _   ```````````````````` _   ```````````````````` Y   ```````````",
"```````````  J  ```````````````````` #_   ```````````````````` _   ```````````````````` _   ```````````````````` _   ```````````",
"```````````  I  ```````````````````` tQ   ````````````````````&_   ````````````````````&_   ````````````````````1Y   ```````````",
"```````````  zb     ```````````````` ZI      ```````````````` sQ      ```````````````` sQ      ```````````````` B7   ```````````",
"```````````  >_                    ;z_J                     &s_W#                    #s_Q#                    +g_    ```````````",
"```````````   F     ;epttppptptkJ___QWg      &9pptpptpptgZ____Qb      +9pptpptpppgZQ__QQb.     X9pptpptpptsBQ___F    ```````````",
"```````````   2                      #                        #                        #.                            ```````````",
"```````````                                                                                                          ```````````",
"```````````                                                                                                          ```````````",
"```````````     ````````````````````      ```````````````````      ```````````````````      ````````````````````     ```````````",
"```````````  X  ````````````````````      ```````````````````      ```````````````````      ````````````````````     ```````````",
"```````````  ;  ````````````````````      ```````````````````      ```````````````````      ````````````````````     ```````````",
"```````````  4  ````````````````````  +   ```````````````````` X   ```````````````````` +   ```````````````````` &   ```````````",
"```````````  e  ````````````````````  9   ```````````````````` 9   ```````````````````` 7   ```````````````````` 4   ```````````",
"```````````  t  ````````````````````  s   ```````````````````` t   ```````````````````` p   ```````````````````` 9   ```````````",
"```````````  t  ````````````````````  s   ```````````````````` p   ```````````````````` p   ```````````````````` 9   ```````````",
"```````````  t  ````````````````````  p   ```````````````````` p   ```````````````````` p   ```````````````````` 9   ```````````",
"```````````  t  ````````````````````  s   ```````````````````` t   ```````````````````` t   ```````````````````` 9   ```````````",
"```````````  t  ````````````````````  p   ```````````````````` p   ```````````````````` p   ```````````````````` 9   ```````````",
"```````````  t  ````````````````````  p   ```````````````````` p   ```````````````````` p   ```````````````````` 9   ```````````",
"```````````  t  ````````````````````  s   ```````````````````` t   ```````````````````` t   ```````````````````` 9   ```````````",
"```````````  t  ````````````````````  p   ```````````````````` p   ```````````````````` p   ```````````````````` 9   ```````````",
"```````````  t  ````````````````````  s   ```````````````````` p   ```````````````````` p   ```````````````````` 9   ```````````",
"```````````  t  ````````````````````  g   ```````````````````` s   ```````````````````` s   ```````````````````` e   ```````````",
"```````````  g  ````````````````````  Z   ```````````````````` B   ```````````````````` B   ```````````````````` z   ```````````",
"```````````  B  ````````````````````  Q   ```````````````````` Q   ```````````````````` Q   ```````````````````` I   ```````````",
"```````````  J  ```````````````````` X_   ```````````````````` _   ```````````````````` _   ```````````````````` _   ```````````",
"```````````  I  ```````````````````` e_   ````````````````````+_   ````````````````````+_   ````````````````````;W   ```````````",
"```````````  kk  ``````````````````` ZW   ``````````````````` g_   ``````````````````` g_   ``````````````````` Ze   ```````````",
"```````````   z                    7J_z                     1B_F                     1Z_Z                     ;Z_    ```````````",
"```````````         ;7999999999tmW_J>        ;4999999999ebY_Y7        &2999999999ebY_Y7        &4999999999ezI_We     ```````````",
"```````````                                                                                                          ```````````",
"```````````                                                                                                          ```````````",
"````````````                                                                                                        ````````````",
"````````````````````````````````````````````````````````````````````````````````````````````````````````````````````````````````",
"````````````````````````````````````````````````````````````````````````````````````````````````````````````````````````````````",
"````````````````````````````````````````````````````````````````````````````````````````````````````````````````````````````````",
"````````````````````````````````````````````````````````````````````````````````````````````````````````````````````````````````",
"````````````````````````````````````````````````````````````````````````````````````````````````````````````````````````````````",
"````````````````````````````````````````````````````````````````````````````````````````````````````````````````````````````````",
"````````````````````````````````````````````````````````````````````````````````````````````````````````````````````````````````",
"````````````````````````````````````````````````````````````````````````````````````````````````````````````````````````````````",
"````````````````````````````````````````````````````````````````````````````````````````````````````````````````````````````````",
"````````````````````````````````````````````````````````````````````````````````````````````````````````````````````````````````",
"````````````````````````````````````````````````````````````````````````````````````````````````````````````````````````````````"
};
