/* XPM */
static char *locator_snaptocenter[] = {
/* columns rows colors chars-per-pixel */
"128 128 52 1 ",
"  c #4E4E00",
". c #4F5000",
"X c #545500",
"o c #5B5C00",
"O c #5F6000",
"+ c #646500",
"@ c #676800",
"# c #6B6C00",
"$ c #737400",
"% c #777800",
"& c #7A7B00",
"* c #7F8100",
"= c #838500",
"- c #878900",
"; c #8B8C00",
": c #8F9100",
"> c #939500",
", c #979900",
"< c #9B9D00",
"1 c #9FA100",
"2 c #A3A400",
"3 c #A7A800",
"4 c #ABAC00",
"5 c #AFB100",
"6 c #B3B400",
"7 c #B7B800",
"8 c #BBBD00",
"9 c #BFC100",
"0 c #C2C400",
"q c #C5C70B",
"w c #C7C813",
"e c #C8C917",
"r c #C9CA1B",
"t c #CBCC24",
"y c #CDCE2C",
"u c #CDCF30",
"i c #CFD035",
"p c #CFD138",
"a c #D0D23C",
"s c #D2D443",
"d c #D4D54B",
"f c #D6D752",
"g c #D6D856",
"h c #D7D959",
"j c #D8D95D",
"k c #DADB63",
"l c #DCDD6C",
"z c #DEDF73",
"x c #DEE077",
"c c #DFE079",
"v c #E0E17E",
"b c None",
/* pixels */
"bbbbbbbbbbbbbbbbbbbbbbbbbbbbbbbbbbbbbbbbbbbbbbbbbbbbbbbbbbbbbbbbbbbbbbbbbbbbbbbbbbbbbbbbbbbbbbbbbbbbbbbbbbbbbbbbbbbbbbbbbbbbbbbb",
"bbbbbbbbbbbbbbbbbbbbbbbbbbbbbbbbbbbbbbbbbbbbbbbbbbbbbbbbbbbbbbbbbbbbbbbbbbbbbbbbbbbbbbbbbbbbbbbbbbbbbbbbbbbbbbbbbbbbbbbbbbbbbbbb",
"bbbbbbbbbbbbbbbbbbbbbbbbbbbbbbbbbbbbbbbbbbbbbbbbbbbbbbbbbbbbbbbbbbbbbbbbbbbbbbbbbbbbbbbbbbbbbbbbbbbbbbbbbbbbbbbbbbbbbbbbbbbbbbbb",
"bbbbbbbbbbbbbbbbbbbbbbbbbbbbbbbbbbbbbbbbbbbbbbbbbbbbbbbbbbbbbbbbbbbbbbbbbbbbbbbbbbbbbbbbbbbbbbbbbbbbbbbbbbbbbbbbbbbbbbbbbbbbbbbb",
"bbbbbbbbbbbbbbbbbbbbbbbbbbbbbbbbbbbbbbbbbbbbbbbbbbbbbbbbbbbbbbbbbbbbbbbbbbbbbbbbbbbbbbbbbbbbbbbbbbbbbbbbbbbbbbbbbbbbbbbbbbbbbbbb",
"bbbbbbbbbbbbbbbbbbbbbbbbbbbbbbbbbbbbbbbbbbbbbbbbbbbbbbbbbbbbbbbbbbbbbbbbbbbbbbbbbbbbbbbbbbbbbbbbbbbbbbbbbbbbbbbbbbbbbbbbbbbbbbbb",
"bbbbbbbbbbbbbbbbbbbbbbbbbbbbbbbbbbbbbbbbbbbbbbbbbbbbbbbbbbbbbbbbbbbbbbbbbbbbbbbbbbbbbbbbbbbbbbbbbbbbbbbbbbbbbbbbbbbbbbbbbbbbbbbb",
"bbbbbbbbbbbbbbbbbbbbbbbbbbbbbbbbbbbbbbbbbbbbbbbbbbbbbbbbbbbbbbbbbbbbbbbbbbbbbbbbbbbbbbbbbbbbbbbbbbbbbbbbbbbbbbbbbbbbbbbbbbbbbbbb",
"bbbbbbbbbbbbbbbbbbbbbbbbbbbbbbbbbbbbbbbbbbbbbbbbbbbbbbbbbbbbbbbbbbbbbbbbbbbbbbbbbbbbbbbbbbbbbbbbbbbbbbbbbbbbbbbbbbbbbbbbbbbbbbbb",
"bbbbbbbbbbbbbbbbbbbbbbbbbbbbbbbbbbbbbbbbbbbbbbbbbbbbbbbbbbbbbbbbbbbbbbbbbbbbbbbbbbbbbbbbbbbbbbbbbbbbbbbbbbbbbbbbbbbbbbbbbbbbbbbb",
"bbbbbbbbbbbbbbbbbbbbbbbbbbbbbbbbbbbbbbbbbbbbbbbbbbbbbbbbbbbbbbbbbbbbbbbbbbbbbbbbbbbbbbbbbbbbbbbbbbbbbbbbbbbbbbbbbbbbbbbbbbbbbbbb",
"bbbbbbbbbbbbbbbbbbbbbbbbbbbbbbbbbbbbbbbbbbbbbbbbbbbbbb66666666766656655444bbbbbbbbbbbbbbbbbbbbbbbbbbbbbbbbbbbbbbbbbbbbbbbbbbbbbb",
"bbbbbbbbbbbbbbbbbbbbbbbbbbbbbbbbbbbbbbbbbbbbbbbbbb77677777788878878777776654433bbbbbbbbbbbbbbbbbbbbbbbbbbbbbbbbbbbbbbbbbbbbbbbbb",
"bbbbbbbbbbbbbbbbbbbbbbbbbbbbbbbbbbbbbbbbbbbbbbb77777888000000009000009898877754433bbbbbbbbbbbbbbbbbbbbbbbbbbbbbbbbbbbbbbbbbbbbbb",
"bbbbbbbbbbbbbbbbbbbbbbbbbbbbbbbbbbbbbbbbbbbb777888090qtpssddddssssaiyte00998887764432bbbbbbbbbbbbbbbbbbbbbbbbbbbbbbbbbbbbbbbbbbb",
"bbbbbbbbbbbbbbbbbbbbbbbbbbbbbbbbbbbbbbbbbb7778900rsfjkkhddaiyyytttytyyyyyyrq09987665432bbbbbbbbbbbbbbbbbbbbbbbbbbbbbbbbbbbbbbbbb",
"bbbbbbbbbbbbbbbbbbbbbbbbbbbbbbbbbbbbbbbb778800ydklkhdpyreqq00000000000q0qwrttrq0098765432bbbbbbbbbbbbbbbbbbbbbbbbbbbbbbbbbbbbbbb",
"bbbbbbbbbbbbbbbbbbbbbbbbbbbbbbbbbbbbbb77890rdlxlhdurqqq000000000000000000000qqwee0008764331bbbbbbbbbbbbbbbbbbbbbbbbbbbbbbbbbbbbb",
"bbbbbbbbbbbbbbbbbbbbbbbbbbbbbbbbbbbb77880yjxxkdirqq0000000000000000000000000000qqwq009876432bbbbbbbbbbbbbbbbbbbbbbbbbbbbbbbbbbbb",
"bbbbbbbbbbbbbbbbbbbbbbbbbbbbbbbbbb77880ykczjstqqq000000000000000000000000000000000qqq009776422bbbbbbbbbbbbbbbbbbbbbbbbbbbbbbbbbb",
"bbbbbbbbbbbbbbbbbbbbbbbbbbbbbbbbb7780ekvckatw0000000000000000000000000000000000000000qq00876432bbbbbbbbbbbbbbbbbbbbbbbbbbbbbbbbb",
"bbbbbbbbbbbbbbbbbbbbbbbbbbbbbbbb7890dvvkstw00000000000000000909099000000000000000000000q00087532<bbbbbbbbbbbbbbbbbbbbbbbbbbbbbbb",
"bbbbbbbbbbbbbbbbbbbbbbbbbbbbbb7789tlvxdywq00000000000098887877777777789999900000000000000q00976321bbbbbbbbbbbbbbbbbbbbbbbbbbbbbb",
"bbbbbbbbbbbbbbbbbbbbbbbbbbbbb7790dvvjprq00000000000987766544433343444566788990000000000000000087421bbbbbbbbbbbbbbbbbbbbbbbbbbbbb",
"bbbbbbbbbbbbbbbbbbbbbbbbbbbb7780kvxdywq0000000008877443221<1<<<<<<<112233467789900000000000000087422bbbbbbbbbbbbbbbbbbbbbbbbbbbb",
"bbbbbbbbbbbbbbbbbbbbbbbbbbb780wzvlsrq0000000008775432<<>>>:;;;;;;;::>>><<1234678900000000000000087521bbbbbbbbbbbbbbbbbbbbbbbbbbb",
"bbbbbbbbbbbbbbbbbbbbbbbbbb770rvvkpeq00000000877421<>>;;=%#OXbbbbbbbbb+$*;>><12356899000000000000087422bbbbbbbbbbbbbbbbbbbbbbbbbb",
"bbbbbbbbbbbbbbbbbbbbbbbbb780yvvhye00000009877421,>--%@bbbbbbbbbbbbbbbbbbbb$=><<24568990000000000009742<bbbbbbbbbbbbbbbbbbbbbbbbb",
"bbbbbbbbbbbbbbbbbbbbbbbb789yvvhywq00000088742<>;;&+bbbbbbbbbbbbbbbbbbbbbbbbbb$-<<1367890000000000008742<bbbbbbbbbbbbbbbbbbbbbbbb",
"bbbbbbbbbbbbbbbbbbbbbbb788tvvgyq00000098763<>;;%obbbbbbbbbbbbbbbbbbbbbbbbbbbbbb@=<1246890000000000009742<bbbbbbbbbbbbbbbbbbbbbbb",
"bbbbbbbbbbbbbbbbbbbbbb778wcvhyq00000098742<:-%Xbbbbbbbbbbbbbbbbbbbbbbbbbbbbbbbbbb@-<235799000000000008732,bbbbbbbbbbbbbbbbbbbbbb",
"bbbbbbbbbbbbbbbbbbbbbb790zvjyqq000909763<>;&+bbbbbbbbbbbbbbbbbbbbbbbbbbbbbbbbbbbbbb$:12478900000000000773<>bbbbbbbbbbbbbbbbbbbbb",
"bbbbbbbbbbbbbbbbbbbbb780kvkuw0000099753,:-#bbbbbbbbbbbbbbbbbbbbbbbbbbbbbbbbbbbbbbbbbb=<2467900000000000862<*bbbbbbbbbbbbbbbbbbbb",
"bbbbbbbbbbbbbbbbbbbb780dclpe0000009752,;=Obbbbbbbbbbbbbbbbbbbbbbbbbbbbbbbbbbbbbbbbbbbb%,2468900000000009742<bbbbbbbbbbbbbbbbbbbb",
"bbbbbbbbbbbbbbbbbbb778tvzse0000099741,;& bbbbbbbbbbbbbbbbbbbbbbbbbbbbbbbbbbbbbbbbbbbbbbb>1368990000000008732>bbbbbbbbbbbbbbbbbbb",
"bbbbbbbbbbbbbbbbbbb780lvdtq000099742>;$bbbbbbbbbbbbbbbbbbbbbbbbbbbbbbbbbbbbbbbbbbbbbbbbbb:236890000000000762<=bbbbbbbbbbbbbbbbbb",
"bbbbbbbbbbbbbbbbbb780dvjyq000099752>;#bbbbbbbbbbbbbbbbbbbbbbbbbbbbbbbbbbbbbbbbbbbbbbbbbbbb;237800000000008742<bbbbbbbbbbbbbbbbbb",
"bbbbbbbbbbbbbbbbbb79evvae000009852>;$bbbbbbbbbbbbbbbbbbbbbbbbbbbbbbbbbbbbbbbbbbbbbbbbbbbbbb>247800q0000000872<;bbbbbbbbbbbbbbbbb",
"bbbbbbbbbbbbbbbbb780jvdr000009862,;$bbbbbbbbbbbbbbbbbbbbbbbbbbbbbbbbbbbbbbbbbbbbbbbbbbbbbbbb>24700000000000842<bbbbbbbbbbbbbbbbb",
"bbbbbbbbbbbbbbbbb79yvkyq00000873<;%bbbbbbbbbbbbbbbbbbbbbbbbbbbbbbbbbbbbbbbbbbbbbbbbbbbbbbbbbb<3579000000000873<>bbbbbbbbbbbbbbbb",
"bbbbbbbbbbbbbbbb780lvaw00000974<:=.bbbbbbbbbbbbbbbbbbbbbbbbbbbbbbbbbbbbbbbbbbbbbbbbbbbbbbbbbbb<4780000000000862,#bbbbbbbbbbbbbbb",
"bbbbbbbbbbbbbbbb78yvhtq00000862>-Obbbbbbbbbbbbbbbbbbbbbbbbbbbbbbbbbbbbbbbbbbbbbbbbbbbbbbbbbbbb;34780q0000000863<>bbbbbbbbbbbbbbb",
"bbbbbbbbbbbbbbb780kzaq00000873>-#bbbbbbbbbbbbbbbbbbbbbbbbbbbbbbbbbbbbbbbbbbbbbbbbbbbbbbbbbbbbbb>3670000000009842>bbbbbbbbbbbbbbb",
"bbbbbbbbbbbbbbb78rvjrq0000074<>&bbbbbbbbbbbbbbbbbbbbbbbbbbbbbbbbbbbbbbbbbbbbbbbbbbbbbbbbbbbbbbbb14780q0000000873<-bbbbbbbbbbbbbb",
"bbbbbbbbbbbbbb780fzaq00009872>;+bbbbbbbbbbbbbbbbbbbbbbbbbbbbbbbbbbbbbbbbbbbbbbbbbbbbbbbbbbbbbbbbb36700q0000000742>bbbbbbbbbbbbbb",
"bbbbbbbbbbbbbb780ljtq0000974<;%bbbbbbbbbbbbbbbbbbbbbbbbbbbbbbbbbbbbbbbbbbbbbbbbbbbbbbbbbbbbbbbbbb13680q0000000862,%bbbbbbbbbbbbb",
"bbbbbbbbbbbbb679yvdq00000872>-Xbbbbbbbbbbbbbbbbbbbbbbbbbbbbbbbbbbbbbbbbbbbbbbbbbbbbbbbbbbbbbbbbbbb3680qq000000973<>bbbbbbbbbbbbb",
"bbbbbbbbbbbbb770glyq0000084<>%bbbbbbbbbbbbbbbbbbbbbbbbbbbbbbbbbbbbbbbbbbbbbbbbbbbbbbbbbbbbbbbbbbbb24790wq000000741>bbbbbbbbbbbbb",
"bbbbbbbbbbbbb780khr00000873>-obbbbbbbbbbbbbbbbbbbbbbbbbbbbbbbbbbbbbbbbbbbbbbbbbbbbbbbbbbbbbbbbbbbbb4680wq000000862<%bbbbbbbbbbbb",
"bbbbbbbbbbbbb78tlsq00000762>&bbbbbbbbbbbbbbbbbbbbbbbbbbbbbbbbbbbbbbbbbbbbbbbbbbbbbbbbbbbbbbbbbbbbbb2670qq000000872<;bbbbbbbbbbbb",
"bbbbbbbbbbbb670skyq0000974<;+bbbbbbbbbbbbbbbbbbbbbbbbbbbbbbbbbbbbbbbbbbbbbbbbbbbbbbbbbbbbbbbbbbbbbb1478qeq00000073<>bbbbbbbbbbbb",
"bbbbbbbbbbbb770ghr00000972>-bbbbbbbbbbbbbbbbbbbbbbbbbbbbbbbbbbbbbbbbbbbbbbbbbbbbbbbbbbbbbbbbbbbbbbbb3670eq000000842>+bbbbbbbbbbb",
"bbbbbbbbbbbb780jdq00000861>%bbbbbbbbbbbbbbbbbbbbbbbbbbbbbbbbbbbbbbbbbbbbbbbbbbbbbbbbbbbbbbbbbbbbbbbb3670rq000000872<%bbbbbbbbbbb",
"bbbbbbbbbbbb78ekpq0000074<;+bbbbbbbbbbbbbbbbbbbbbbbbbbbbbbbbbbbbbbbbbbbbbbbbbbbbbbbbbbbbbbbbbbbbbbbb2570ee000000862<-bbbbbbbbbbb",
"bbbbbbbbbbb678yjt00000973<;bbbbbbbbbbbbbbbbbbbbbbbbbbbbbbbbbbbbbbbbbbbbbbbbbbbbbbbbbbbbbbbbbbbbbbbbbb479qtq00000073<>bbbbbbbbbbb",
"bbbbbbbbbbb679ahr00000862>=bbbbbbbbbbbbbbbbbbbbbbbbbbbbbbbbbbbbbbbbbbbbbbbbbbbbbbbbbbbbbbbbbbbbbbbbbb4680tq00000073<>bbbbbbbbbbb",
"bbbbbbbbbbb670sde00000852>%bbbbbbbbbbbbbbbbbbbbbbbbbbbbbbbbbbbbbbbbbbbbbbbbbbbbbbbbbbbbbbbbbbbbbbbbbb3680yw000000741>obbbbbbbbbb",
"bbbbbbbbbbb680dsq00000851:#bbbbbbbbbbbbbbbbbbbbbbbbbbbbbbbbbbbbbbbbbbbbbbbbbbbbbbbbbbbbbbbbbbbbbbbbbb4680ue000000851>#bbbbbbbbbb",
"bbbbbbbbbbb670daq0000084<>+bbbbbbbbbbbbbbbbbbbbbbbbbbbbbbbbbbbbbbbbbbbbbbbbbbbbbbbbbbbbbbbbbbbbbbbbbbb670ur000000862>%bbbbbbbbbb",
"bbbbbbbbbbb680di00000074<;bbbbbbbbbbbbbbbbbbbbbbbbbbbbbbbbbbbbbbbbbbbbbbbbbbbbbbbbbbbbbbbbbbbbbbbbbbbb670yt000000862>&bbbbbbbbbb",
"bbbbbbbbbbb680dy00000073<;bbbbbbbbbbbbbbbbbbbbbbbbbbbbbbbbbbbbbbbbbbbbbbbbbbbbbbbbbbbbbbbbbbbbbbbbbbbb579yy000000962<*bbbbbbbbbb",
"bbbbbbbbbbb780dy00000074<;bbbbbbbbbbbbbbbbbbbbbbbbbbbbbbbbbbbbbbbbbbbbbbbbbbbbbbbbbbbbbbbbbbbbbbbbbbbb679yy000000862>=bbbbbbbbbb",
"bbbbbbbbbbb680dt00000073<;bbbbbbbbbbbbbbbbbbbbbbbbbbbbbbbbbbbbbbbbbbbbbbbbbbbbbbbbbbbbbbbbbbbbbbbbbbbb570yu000000972>-bbbbbbbbbb",
"bbbbbbbbbbb780st00000073<;bbbbbbbbbbbbbbbbbbbbbbbbbbbbbbbbbbbbbbbbbbbbbbbbbbbbbbbbbbbbbbbbbbbbbbbbbbbb670up000000872<=bbbbbbbbbb",
"bbbbbbbbbbb680st00000973<;bbbbbbbbbbbbbbbbbbbbbbbbbbbbbbbbbbbbbbbbbbbbbbbbbbbbbbbbbbbbbbbbbbbbbbbbbbbb670up000000872>-bbbbbbbbbb",
"bbbbbbbbbbb689st00000074<:bbbbbbbbbbbbbbbbbbbbbbbbbbbbbbbbbbbbbbbbbbbbbbbbbbbbbbbbbbbbbbbbbbbbbbbbbbbb580ap000000062,=bbbbbbbbbb",
"bbbbbbbbbbb670at00000073<>bbbbbbbbbbbbbbbbbbbbbbbbbbbbbbbbbbbbbbbbbbbbbbbbbbbbbbbbbbbbbbbbbbbbbbbbbbbb680sp000000862>=bbbbbbbbbb",
"bbbbbbbbbbb580pt00000084<:bbbbbbbbbbbbbbbbbbbbbbbbbbbbbbbbbbbbbbbbbbbbbbbbbbbbbbbbbbbbbbbbbbbbbbbbbbbb670du000000862>=bbbbbbbbbb",
"bbbbbbbbbbb670ut000009741>bbbbbbbbbbbbbbbbbbbbbbbbbbbbbbbbbbbbbbbbbbbbbbbbbbbbbbbbbbbbbbbbbbbbbbbbbbbb780fu000000852>&bbbbbbbbbb",
"bbbbbbbbbbb579yy000000852>+bbbbbbbbbbbbbbbbbbbbbbbbbbbbbbbbbbbbbbbbbbbbbbbbbbbbbbbbbbbbbbbbbbbbbbbbbbb78why000000851>%bbbbbbbbbb",
"bbbbbbbbbbb579ey000000862>$bbbbbbbbbbbbbbbbbbbbbbbbbbbbbbbbbbbbbbbbbbbbbbbbbbbbbbbbbbbbbbbbbbbbbbbbbb679tht000000841;#bbbbbbbbbb",
"bbbbbbbbbbb4780yq00000873<*bbbbbbbbbbbbbbbbbbbbbbbbbbbbbbbbbbbbbbbbbbbbbbbbbbbbbbbbbbbbbbbbbbbbbbbbbb670shr00000974<;+bbbbbbbbbb",
"bbbbbbbbbbb4780yq00000083<;bbbbbbbbbbbbbbbbbbbbbbbbbbbbbbbbbbbbbbbbbbbbbbbbbbbbbbbbbbbbbbbbbbbbbbbbbb770gfw00000973<;bbbbbbbbbbb",
"bbbbbbbbbbb4680yw000000841>bbbbbbbbbbbbbbbbbbbbbbbbbbbbbbbbbbbbbbbbbbbbbbbbbbbbbbbbbbbbbbbbbbbbbbbbbb78qksq00000972>;bbbbbbbbbbb",
"bbbbbbbbbbb3570te000000862>$bbbbbbbbbbbbbbbbbbbbbbbbbbbbbbbbbbbbbbbbbbbbbbbbbbbbbbbbbbbbbbbbbbbbbbbbb79ukpq00009862>=bbbbbbbbbbb",
"bbbbbbbbbbbb478qr000000863<=bbbbbbbbbbbbbbbbbbbbbbbbbbbbbbbbbbbbbbbbbbbbbbbbbbbbbbbbbbbbbbbbbbbbbbbb689fkt000000841>%bbbbbbbbbbb",
"bbbbbbbbbbbb4780rq000000741>bbbbbbbbbbbbbbbbbbbbbbbbbbbbbbbbbbbbbbbbbbbbbbbbbbbbbbbbbbbbbbbbbbbbbbbb78qlhr00000074<;+bbbbbbbbbbb",
"bbbbbbbbbbbb3679rq000009862<$bbbbbbbbbbbbbbbbbbbbbbbbbbbbbbbbbbbbbbbbbbbbbbbbbbbbbbbbbbbbbbbbbbbbbbb79pzsq00000973>;bbbbbbbbbbbb",
"bbbbbbbbbbbb3670ww000000974<-bbbbbbbbbbbbbbbbbbbbbbbbbbbbbbbbbbbbbbbbbbbbbbbbbbbbbbbbbbbbbbbbbbbbbb780kkyq00000962>-bbbbbbbbbbbb",
"bbbbbbbbbbbbb4780eq000009851<@bbbbbbbbbbbbbbbbbbbbbbbbbbbbbbbbbbbbbbbbbbbbbbbbbbbbbbbbbbbbbbbbbbbbb79yzgr00000084<:%bbbbbbbbbbbb",
"bbbbbbbbbbbbb4679eq000000973<=bbbbbbbbbbbbbbbbbbbbbbbbbbbbbbbbbbbbbbbbbbbbbbbbbbbbbbbbbbbbbbbbbbbb780hvaq00009973,;obbbbbbbbbbbb",
"bbbbbbbbbbbbb24790q0000009851<#bbbbbbbbbbbbbbbbbbbbbbbbbbbbbbbbbbbbbbbbbbbbbbbbbbbbbbbbbbbbbbbbbbb79tvht000000862:-bbbbbbbbbbbbb",
"bbbbbbbbbbbbbb4680e0000000963<-bbbbbbbbbbbbbbbbbbbbbbbbbbbbbbbbbbbbbbbbbbbbbbbbbbbbbbbbbbbbbbbbbb780jvsw00000974<;%bbbbbbbbbbbbb",
"bbbbbbbbbbbbbb34790q0q00009862<$bbbbbbbbbbbbbbbbbbbbbbbbbbbbbbbbbbbbbbbbbbbbbbbbbbbbbbbbbbbbbbbbb79yvkyq00000963>-Xbbbbbbbbbbbbb",
"bbbbbbbbbbbbbb24680q00000009741>bbbbbbbbbbbbbbbbbbbbbbbbbbbbbbbbbbbbbbbbbbbbbbbbbbbbbbbbbbbbbbbb780lvsw00000084<:=bbbbbbbbbbbbbb",
"bbbbbbbbbbbbbbb45790qq0000008631=bbbbbbbbbbbbbbbbbbbbbbbbbbbbbbbbbbbbbbbbbbbbbbbbbbbbbbbbbbbbbb780dvjyq00q00873,;+bbbbbbbbbbbbbb",
"bbbbbbbbbbbbbbb24680q00000009752<%bbbbbbbbbbbbbbbbbbbbbbbbbbbbbbbbbbbbbbbbbbbbbbbbbbbbbbbbbbbbb88tvzaw000000751:=bbbbbbbbbbbbbbb",
"bbbbbbbbbbbbbbbb34700q00000009752,bbbbbbbbbbbbbbbbbbbbbbbbbbbbbbbbbbbbbbbbbbbbbbbbbbbbbbbbbbbb780lvftq00009973,;#bbbbbbbbbbbbbbb",
"bbbbbbbbbbbbbbbb236890000000098742>bbbbbbbbbbbbbbbbbbbbbbbbbbbbbbbbbbbbbbbbbbbbbbbbbbbbbbbbbb780hvkiq000009841:=bbbbbbbbbbbbbbbb",
"bbbbbbbbbbbbbbbbb34790q000000008632;bbbbbbbbbbbbbbbbbbbbbbbbbbbbbbbbbbbbbbbbbbbbbbbbbbbbbbbb780svxae000009873>;#bbbbbbbbbbbbbbbb",
"bbbbbbbbbbbbbbbbb1367900000000008632;bbbbbbbbbbbbbbbbbbbbbbbbbbbbbbbbbbbbbbbbbbbbbbbbbbbbbb789ivvdtq00000974<;=bbbbbbbbbbbbbbbbb",
"bbbbbbbbbbbbbbbbbb2378000000000098632>bbbbbbbbbbbbbbbbbbbbbbbbbbbbbbbbbbbbbbbbbbbbbbbbbbbb789ycvftq000000762>-obbbbbbbbbbbbbbbbb",
"bbbbbbbbbbbbbbbbbbb2478900000000998642>bbbbbbbbbbbbbbbbbbbbbbbbbbbbbbbbbbbbbbbbbbbbbbbbbb789tccjiw000000873<;%bbbbbbbbbbbbbbbbbb",
"bbbbbbbbbbbbbbbbbbb23589000000000098632<bbbbbbbbbbbbbbbbbbbbbbbbbbbbbbbbbbbbbbbbbbbbbbbb789tcvjiw000000074<:=bbbbbbbbbbbbbbbbbbb",
"bbbbbbbbbbbbbbbbbbbb236800000000009987431;bbbbbbbbbbbbbbbbbbbbbbbbbbbbbbbbbbbbbbbbbbbbb780ivvjie0000009862>-#bbbbbbbbbbbbbbbbbbb",
"bbbbbbbbbbbbbbbbbbbbb246900000000000997542,bbbbbbbbbbbbbbbbbbbbbbbbbbbbbbbbbbbbbbbbbb7790svvjie0000009862<-&bbbbbbbbbbbbbbbbbbbb",
"bbbbbbbbbbbbbbbbbbbbb<2479000000000000886431bbbbbbbbbbbbbbbbbbbbbbbbbbbbbbbbbbbbbbbb7890gvvgyr0000009873<-=bbbbbbbbbbbbbbbbbbbbb",
"bbbbbbbbbbbbbbbbbbbbbb<24790000000000000876431bbbbbbbbbbbbbbbbbbbbbbbbbbbbbbbbbbbb7780tlvxdtw0000009974<:- bbbbbbbbbbbbbbbbbbbbb",
"bbbbbbbbbbbbbbbbbbbbbbb1247800000000000008865431bbbbbbbbbbbbbbbbbbbbbbbbbbbbbbbb77890dvvkatq0000000974<:=+bbbbbbbbbbbbbbbbbbbbbb",
"bbbbbbbbbbbbbbbbbbbbbbbb225780000000000q00998664332bbbbbbbbbbbbbbbbbbbbbbbbbbb77880ilvvfyrq00000008741>-$bbbbbbbbbbbbbbbbbbbbbbb",
"bbbbbbbbbbbbbbbbbbbbbbbbb22470000000000000000987664332bbbbbbbbbbbbbbbbbbbbb777880tjvvharqq00000099741>-$bbbbbbbbbbbbbbbbbbbbbbbb",
"bbbbbbbbbbbbbbbbbbbbbbbbbb22478900000000000q00998777644443bbbbbbbbbbbb667777900yjxvkdtwq000000009741>-&bbbbbbbbbbbbbbbbbbbbbbbbb",
"bbbbbbbbbbbbbbbbbbbbbbbbbb-22478000000000000qwq00988777765665565566677778890qahvxjsywq000000009864<>-&bbbbbbbbbbbbbbbbbbbbbbbbbb",
"bbbbbbbbbbbbbbbbbbbbbbbbbbbb<23689000000000q00qwww00008888778777787889990qifkzkhatwqq000000099863<>-&bbbbbbbbbbbbbbbbbbbbbbbbbbb",
"bbbbbbbbbbbbbbbbbbbbbbbbbbbbb<226789000000000000qqerreq00000000900000wyagklkfsyrqq00000000099752<:-$bbbbbbbbbbbbbbbbbbbbbbbbbbbb",
"bbbbbbbbbbbbbbbbbbbbbbbbbbbbbb<12478900000000000000qwrrtyiyuuuyuupsdfghgdsptrqq0000000000998742,;-@bbbbbbbbbbbbbbbbbbbbbbbbbbbbb",
"bbbbbbbbbbbbbbbbbbbbbbbbbbbbbbb>12367890000000000000000qwertyuuuppuiyytreqq000000000000099763<>;= bbbbbbbbbbbbbbbbbbbbbbbbbbbbbb",
"bbbbbbbbbbbbbbbbbbbbbbbbbbbbbbbb&<2247790000000000000000000000000000000000000000000000097742,:-&bbbbbbbbbbbbbbbbbbbbbbbbbbbbbbbb",
"bbbbbbbbbbbbbbbbbbbbbbbbbbbbbbbbbb><135788900000000000000000000000000000000000000000098752<>;=#bbbbbbbbbbbbbbbbbbbbbbbbbbbbbbbbb",
"bbbbbbbbbbbbbbbbbbbbbbbbbbbbbbbbbbb=,<236788900000000000000000000000000000000000009877621,:-&bbbbbbbbbbbbbbbbbbbbbbbbbbbbbbbbbbb",
"bbbbbbbbbbbbbbbbbbbbbbbbbbbbbbbbbbbbb;,<13567890000000000000000000000000000000008887531>:-=obbbbbbbbbbbbbbbbbbbbbbbbbbbbbbbbbbbb",
"bbbbbbbbbbbbbbbbbbbbbbbbbbbbbbbbbbbbbbb>,<234667880000000000000000000000000909877642<>:;-#bbbbbbbbbbbbbbbbbbbbbbbbbbbbbbbbbbbbbb",
"bbbbbbbbbbbbbbbbbbbbbbbbbbbbbbbbbbbbbbbbb:<<12346777889000000000000000909888775432<>>-=#bbbbbbbbbbbbbbbbbbbbbbbbbbbbbbbbbbbbbbbb",
"bbbbbbbbbbbbbbbbbbbbbbbbbbbbbbbbbbbbbbbbbbb->,<12344667778788988089888777764432<,>;-=#bbbbbbbbbbbbbbbbbbbbbbbbbbbbbbbbbbbbbbbbbb",
"bbbbbbbbbbbbbbbbbbbbbbbbbbbbbbbbbbbbbbbbbbbbb%;>><<223334456667656664553322<<<>;-=% bbbbbbbbbbbbbbbbbbbbbbbbbbbbbbbbbbbbbbbbbbbb",
"bbbbbbbbbbbbbbbbbbbbbbbbbbbbbbbbbbbbbbbbbbbbbbbb%->>><<<<2222222222222<<<>>:;-=%obbbbbbbbbbbbbbbbbbbbbbbbbbbbbbbbbbbbbbbbbbbbbbb",
"bbbbbbbbbbbbbbbbbbbbbbbbbbbbbbbbbbbbbbbbbbbbbbbbbbbo%->>>>>>>>,>>>>>>>:;;;=%+bbbbbbbbbbbbbbbbbbbbbbbbbbbbbbbbbbbbbbbbbbbbbbbbbbb",
"bbbbbbbbbbbbbbbbbbbbbbbbbbbbbbbbbbbbbbbbbbbbbbbbbbbbbbbbb#%%========%$#obbbbbbbbbbbbbbbbbbbbbbbbbbbbbbbbbbbbbbbbbbbbbbbbbbbbbbbb",
"bbbbbbbbbbbbbbbbbbbbbbbbbbbbbbbbbbbbbbbbbbbbbbbbbbbbbbbbbbbbbbbbbbbbbbbbbbbbbbbbbbbbbbbbbbbbbbbbbbbbbbbbbbbbbbbbbbbbbbbbbbbbbbbb",
"bbbbbbbbbbbbbbbbbbbbbbbbbbbbbbbbbbbbbbbbbbbbbbbbbbbbbbbbbbbbbbbbbbbbbbbbbbbbbbbbbbbbbbbbbbbbbbbbbbbbbbbbbbbbbbbbbbbbbbbbbbbbbbbb",
"bbbbbbbbbbbbbbbbbbbbbbbbbbbbbbbbbbbbbbbbbbbbbbbbbbbbbbbbbbbbbbbbbbbbbbbbbbbbbbbbbbbbbbbbbbbbbbbbbbbbbbbbbbbbbbbbbbbbbbbbbbbbbbbb",
"bbbbbbbbbbbbbbbbbbbbbbbbbbbbbbbbbbbbbbbbbbbbbbbbbbbbbbbbbbbbbbbbbbbbbbbbbbbbbbbbbbbbbbbbbbbbbbbbbbbbbbbbbbbbbbbbbbbbbbbbbbbbbbbb",
"bbbbbbbbbbbbbbbbbbbbbbbbbbbbbbbbbbbbbbbbbbbbbbbbbbbbbbbbbbbbbbbbbbbbbbbbbbbbbbbbbbbbbbbbbbbbbbbbbbbbbbbbbbbbbbbbbbbbbbbbbbbbbbbb",
"bbbbbbbbbbbbbbbbbbbbbbbbbbbbbbbbbbbbbbbbbbbbbbbbbbbbbbbbbbbbbbbbbbbbbbbbbbbbbbbbbbbbbbbbbbbbbbbbbbbbbbbbbbbbbbbbbbbbbbbbbbbbbbbb",
"bbbbbbbbbbbbbbbbbbbbbbbbbbbbbbbbbbbbbbbbbbbbbbbbbbbbbbbbbbbbbbbbbbbbbbbbbbbbbbbbbbbbbbbbbbbbbbbbbbbbbbbbbbbbbbbbbbbbbbbbbbbbbbbb",
"bbbbbbbbbbbbbbbbbbbbbbbbbbbbbbbbbbbbbbbbbbbbbbbbbbbbbbbbbbbbbbbbbbbbbbbbbbbbbbbbbbbbbbbbbbbbbbbbbbbbbbbbbbbbbbbbbbbbbbbbbbbbbbbb",
"bbbbbbbbbbbbbbbbbbbbbbbbbbbbbbbbbbbbbbbbbbbbbbbbbbbbbbbbbbbbbbbbbbbbbbbbbbbbbbbbbbbbbbbbbbbbbbbbbbbbbbbbbbbbbbbbbbbbbbbbbbbbbbbb",
"bbbbbbbbbbbbbbbbbbbbbbbbbbbbbbbbbbbbbbbbbbbbbbbbbbbbbbbbbbbbbbbbbbbbbbbbbbbbbbbbbbbbbbbbbbbbbbbbbbbbbbbbbbbbbbbbbbbbbbbbbbbbbbbb"
};
