/* XPM */
static char *locator_snaptonode[] = {
/* columns rows colors chars-per-pixel */
"128 128 54 1 ",
"  c #4E4E00",
". c #4F5000",
"X c #515200",
"o c #575800",
"O c #5B5C00",
"+ c #5F6000",
"@ c #646500",
"# c #676900",
"$ c #6B6C00",
"% c #6F7100",
"& c #747500",
"* c #777900",
"= c #7A7C00",
"- c #7F8000",
"; c #848500",
": c #878800",
"> c #8A8C00",
", c #8F9100",
"< c #939400",
"1 c #979800",
"2 c #9B9D00",
"3 c #9FA100",
"4 c #A2A400",
"5 c #A7A800",
"6 c #ABAD00",
"7 c #AFB100",
"8 c #B2B400",
"9 c #B6B800",
"0 c #BBBD00",
"q c #BFC100",
"w c #C2C400",
"e c #C5C70B",
"r c #C7C813",
"t c #C8C917",
"y c #C8CA1A",
"u c #CACC24",
"i c #CDCE2C",
"p c #CDCF30",
"a c #CFD035",
"s c #CFD138",
"d c #D1D23C",
"f c #D2D443",
"g c #D4D54B",
"h c #D6D752",
"j c #D7D856",
"k c #D7D859",
"l c #D8D95C",
"z c #DADB64",
"x c #DCDD6C",
"c c #DEDF73",
"v c #DEE077",
"b c #DFE079",
"n c #E0E17F",
"m c None",
/* pixels */
"mmmmmmmmmmmmmmmmmmmmmmmmmmmmmmmmmmmmmmmmmmmmmmmmmmmmmmmmmmmmmmmmmmmmmmmmmmmmmmmmmmmmmmmmmmmmmmmmmmmmmmmmmmmmmmmmmmmmmmmmmmmmmmmm",
"mmmmmmmmmmmmmmmmmmmmmmmmmmmmmmmmmmmmmmmmmmmmmmmmmmmmmmmmmmmmmmmmmmmmmmmmmmmmmmmmmmmmmmmmmmmmmmmmmmmmmmmmmmmmmmmmmmmmmmmmmmmmmmmm",
"mmmmmmmmmmmmmmmmmmmmmmmmmmmmmmmmmmmmmmmmmmmmmmmmmmmmmmmmmmmmmmmmmmmmmmmmmmmmmmmmmmmmmmmmmmmmmmmmmmmmmmmmmmmmmmmmmmmmmmmmmmmmmmmm",
"mmmmmmmmmmmmmmmmmmmmmmmmmmmmmmmmmmmmmmmmmmmmmmmmmmmmmmmmmmmmmmmmmmmmmmmmmmmmmmmmmmmmmmmmmmmmmmmmmmmmmmmmmmmmmmmmmmmmmmmmmmmmmmmm",
"mmmmmmmmmmmmmmmmmmmmmmmmmmmmmmmmmmmmmmmmmmmmmmmmmmmmmmmmmmmmmmmmmmmmmmmmmmmmmmmmmmmmmmmmmmmmmmmmmmmmmmmmmmmmmmmmmmmmmmmmmmmmmmmm",
"mmmmmmmmmmmmmmmmmmmmmmmmmmmmmmmmmmmmmmmmmmmmmmmmmmmmmmmmmmmmmmmmmmmmmmmmmmmmmmmmmmmmmmmmmmmmmmmmmmmmmmmmmmmmmmmmmmmmmmmmmmmmmmmm",
"mmmmmmmmmmmmmmmmmmmmmmmmmmmmmmmmmmmmmmmmmmmmmmmmmmmmmmmmmmmmmmmmmmmmmmmmmmmmmmmmmmmmmmmmmmmmmmmmmmmmmmmmmmmmmmmmmmmmmmmmmmmmmmmm",
"mmmmmmmmmmmmmmmmmmmmmmmmmmmmmmmmmmmmmmmmmmmmmmmmmmmmmmmmmmmmmmmmmmmmmmmmmmmmmmmmmmmmmmmmmmmmmmmmmmmmmmmmmmmmmmmmmmmmmmmmmmmmmmmm",
"mmmmmmmmmmmmmmmmmmmmmmmmmmmmmmmmmmmmmmmmmmmmmmmmmmmmmmmmmmmmmmmmmmmmmmmmmmmmmmmmmmmmmmmmmmmmmmmmmmmmmmmmmmmmmmmmmmmmmmmmmmmmmmmm",
"mmmmmmmmmmmmmmmmmmmmmmmmmmmmmmmmmmmmmmmmmmmmmmmmmmmmmmmmmmmmmmmmmmmmmmmmmmmmmmmmmmmmmmmmmmmmmmmmmmmmmmmmmmmmmmmmmmmmmmmmmmmmmmmm",
"mmmmmmmmmmmmmmmmmmmmmmmmmmmmmmmmmmmmmmmmmmmmmmmmmmmmmmmmmmmmmmmmmmmmmmmmmmmmmmmmmmmmmmmmmmmmmmmmmmmmmmmmmmmmmmmmmmmmmmmmmmmmmmmm",
"mmmmmmmmmmmmmmmmmmmmm9mmmmmmmmmmmmmmmmmmmmmmmmmmmmmmmm88888889888888787666mmmmmmmmmmmmmmmmmmmmmmmmmmmmmmmm88mmmmmmmmmmmmmmmmmmmm",
"mmmmmmmmmmmmmmmmmmmm997mmmmmmmmmmmmmmmmmmmmmmmmmmm98999999900090090099988886665mmmmmmmmmmmmmmmmmmmmmmmmmm0975mmmmmmmmmmmmmmmmmmm",
"mmmmmmmmmmmmmmmmmmm99965mmmmmmmmmmmmmmmmmmmmmmm99990900wwwwwwwwwwwwqqqqq0099976655mmmmmmmmmmmmmmmmmmmmmm009862mmmmmmmmmmmmmmmmmm",
"mmmmmmmmmmmmmmmmmm9000852mmmmmmmmmmmmmmmmmmm999900wqwruaffggggffffdaiutwwqw0099876654mmmmmmmmmmmmmmmmmm90qq963<mmmmmmmmmmmmmmmmm",
"mmmmmmmmmmmmmmmmm90wwq9641mmmmmmmmmmmmmmmm99000wwyfhlzlkggdaiiiuuuiuiiiiiiyewwq00887654mmmmmmmmmmmmmmm0qegu0854<mmmmmmmmmmmmmmmm",
"mmmmmmmmmmmmmmmm90qyzyq864<mmmmmmmmmmmmm990qwwihzxxkgaiyteewwwwwwwwwwwewrrtyuyrww00987654mmmmmmmmmmmm0qwzngq0854<mmmmmmmmmmmmmmm",
"mmmmmmmmmmmmmmm90qubndw9853<mmmmmmmmmm990qqygxcxkfiyreewwwwwwwwwwwwwwwwwwwwwerrttwwq0987652mmmmmmmmm90wznxawq9752<mmmmmmmmmmmmmm",
"mmmmmmmmmmmmmm90qunnkiwq98641mmmmmmm9900wilbvzgiyrewwwwwwwwwwwwwwwwwwwwwwwwwwwweerrwwq098654mmmmmmm9qwznxdtwwq9852,mmmmmmmmmmmmm",
"mmmmmmmmmmmmm90qunnlirwwq98542mmmm9900wiznvlfurewwwwwwwwwwwwwwwwwwwwwwwwwwwwwwwwwweerwwq088655mmm90qwznxdyewww09652>mmmmmmmmmmmm",
"mmmmmmmmmmmm90qrcnkirewwwq08664mm990qtznvldyrewwwwwwwwwwwwwwwwwwwwwwwwwwwwwwwwwwwwwwweewq008888m60wrxnxdyewwwwq08411>mmmmmmmmmmm",
"mmmmmmmmmmm9990rlhirwwwwwwq9999700qwgnnzfurewwwwwwwwwwwwwwwww0qqqqwwwwwwwwwwwwwwwwwwwwwewww00990qwscnxdyewwwwq0962<<>mmmmmmmmmmm",
"mmmmmmmmmmm9789qweewwwwwwwwwqq00wwdxnvgirewwwwwwwwwwwww0009999999999900qwqwwwwwwwwwwwwwwewwwwwwwujbnzdtewwwwwq963<>=mmmmmmmmmmmm",
"mmmmmmmmmmmm65689wwwwwwwwwwwwwwtdknnkayewwwwwwwwwwqq099888666656566677799900qwwwwwwwwwwwwwwwetysjxzjatewwwwq0972<>=mmmmmmmmmmmmm",
"mmmmmmmmmmmmm34589qwwwwwwwwwryidghgdurewwwwwwwww009966643322222212223455668990qwwwwwwwwwwwweeyupsdiurewwwwq0962<>*mmmmmmmmmmmmmm",
"mmmmmmmmmmmmmm<4579qwwwwwwwweeryuyyreewwwwwwww099765421<<<<>,>>>>,,<<<<123556890qqwqwwwwwwwwweereeeeewwwww0964<:&mmmmmmmmmmmmmmm",
"mmmmmmmmmmmmmmm,3579qwwwwwwwwwwwwewwwwwwwwwq0986531<<>>:=$@.mmmmmmmmm@&-><<1355780qqwwwwwwwwwwwwwwwwwwwww0963<:*mmmmmmmmmmmmmmmm",
"mmmmmmmmmmmmmmmm>3579qwwwwwwwwwwwwwwwwwwwwq99652<<>>=@mmmmmmmmmmmmmmmmmmmm&:<1245790wwwwwwwwwwwwwwwwwwwww964<>&mmmmmmmmmmmmmmmmm",
"mmmmmmmmmmmmmmmmm>4580wwewwwwwwwwwwwwwwwqq97521,>=@mmmmmmmmmmmmmmmmmmmmmmmmmm&>134699wwwewwwwwwwwwwwwwww085<>*mmmmmmmmmmmmmmmmmm",
"mmmmmmmmmmmmmmmmmm>579qerewwwwwwwwwwwwww09851<>*Ommmmmmmmmmmmmmmmmmmmmmmmmmmmmm$:35890wrewwwwwwwwwwwwww0963<*mmmmmmmmmmmmmmmmmmm",
"mmmmmmmmmmmmmmmmmmm<79weuewwwwwwwwwwwwwq0862<=Ommmmmmmmmmmmmmmmmmmmmmmmmmmmmmmmmm$<690wyrwwwwwwwwwwwwww0962-mmmmmmmmmmmmmmmmmmmm",
"mmmmmmmmmmmmmmmmmmmm29wuiewwwwwwwwwwwwwq085>#mmmmmmmmmmmmmmmmmmmmmmmmmmmmmmmmmmmmmm:7qeiyewwwwwwwwwwwwwq961mmmmmmmmmmmmmmmmmmmmm",
"mmmmmmmmmmmmmmmmmmmmm0wddrwwwwwwwwwwwwww083mmmmmmmmmmmmmmmmmmmmmmmmmmmmmmmmmmmmmmmmm4wafuewwwwwwwwwwwwww963&mmmmmmmmmmmmmmmmmmmm",
"mmmmmmmmmmmmmmmmmmmm90rkftwwwwwwwwwwwwww085>mmmmmmmmmmmmmmmmmmmmmmmmmmmmmmmmmmmmmmm4qyljuewwwwwwwwwwwwww0851mmmmmmmmmmmmmmmmmmmm",
"mmmmmmmmmmmmmmmmmmm89qfxdrwwwwwwwwwwwwwwq964>mmmmmmmmmmmmmmmmmmmmmmmmmmmmmmmmmmmmm6qwhvgyewwwwwwwwwwwwww0962<mmmmmmmmmmmmmmmmmmm",
"mmmmmmmmmmmmmmmmmmm9qecxaewwwwwwwwwwwwwwq0864>mmmmmmmmmmmmmmmmmmmmmmmmmmmmmmmmmmm80qibvfywwwwwwwwwwwwwwww9852=mmmmmmmmmmmmmmmmmm",
"mmmmmmmmmmmmmmmmmm90wgnjuewwwwwwwwwwwwwwwq9954>mmmmmmmmmmmmmmmmmmmmmmmmmmmmmmmmmm9qwxnzirwwwwwwwwwwwwwwwwq9641mmmmmmmmmmmmmmmmmm",
"mmmmmmmmmmmmmmmmmm9qyncdrwwwwwwwwwwwwwwwwww9854,mmmmmmmmmmmmmmmmmmmmmmmmmmmmmmmm00wznxdtewwwwwwwwwwwwwwwwwq852,mmmmmmmmmmmmmmmmm",
"mmmmmmmmmmmmmmmmm99wzbgywwwwwwwwwwwwwwwwwww09854<mmmmmmmmmmmmmmmmmmmmmmmmmmmmmm9qwznxdtewwwwwwwwwwwwwwwwwwq9641mmmmmmmmmmmmmmmmm",
"mmmmmmmmmmmmmmmmm9qinziewwwwwwwwwwwwwwwwwwwww9854<mmmmmmmmmmmmmmmmmmmmmmmmmmmm9qwznxdtewwwwwwqqqwwwwwwwwwwwq862<mmmmmmmmmmmmmmmm",
"mmmmmmmmmmmmmmmm90wxcfrwwwwwww00qqqwwwwwwwwwww9853<mmmmmmmmmmmmmmmmmmmmmmmmmm90wznxdyewwwwqqq009qwqwwwwwwwww0841$mmmmmmmmmmmmmmm",
"mmmmmmmmmmmmmmmm00inkuewwwww0099990wwwwwwwwwwww9854<mmmmmmmmmmmmmmmmmmmmmmmm9qwxnxdtewwwwqq98888900wwwwwwwww0952<mmmmmmmmmmmmmmm",
"mmmmmmmmmmmmmmm90wzcdewwwwq099666789qwwwwwwwwww09853<mmmmmmmmmmmmmmmmmmmmmm9qwxnxdyewwwwqq975453690wwewwwwwww9641mmmmmmmmmmmmmmm",
"mmmmmmmmmmmmmmm90ynkuewwwww9764<:46890wwwwwwwwwww9864<mmmmmmmmmmmmmmmmmmmm0qwzbxdyewwwwqq96421:m2690weewwwwww0951>mmmmmmmmmmmmmm",
"mmmmmmmmmmmmmm99whcdewwwwqq862<$m=2669wwwwwwwwwwww9862<mmmmmmmmmmmmmmmmmm0qwzbxdtewwwwqq973<,-mm*679weewwwwwwq9631mmmmmmmmmmmmmm",
"mmmmmmmmmmmmmm90wxzuewwwwq964<;mmm=2589qwwwwwwwwwwq9854<mmmmmmmmmmmmmmmm9qqznxdtewwwwqq963<:*mmmm<690wewwwwwww085<=mmmmmmmmmmmmm",
"mmmmmmmmmmmmm89wicgewwwww095<>Ommmm=2589wwwwwwwwwww09854<mmmmmmmmmmmmmm0qwxnxdtewwwwqq963,:*mmmmm%670qeewwwwwwq962>mmmmmmmmmmmmm",
"mmmmmmmmmmmmm99wjxiewwwww062>=mmmmmm;35890wwwwwwwwwww9854<mmmmmmmmmmmm9qwzbxdyewwwqqq963<:&mmmmmmm169qwrewwwwwq964<mmmmmmmmmmmmm",
"mmmmmmmmmmmmm90wzktwwwww095<>ommmmmmm:4579qwwwwwwwwwwq9854<mmmmmmmmmm00wznxdtewwwwq0963<:&mmmmmmmmm680weewwwwww0841=mmmmmmmmmmmm",
"mmmmmmmmmmmmm90uxfrwwwww064<=mmmmmmmmm>2579qwwwwwwwwwwq0854<mmmmmmmm9qwznxdtewwwwqq973<:&mmmmmmmmmm489wrrwwwwww0851>mmmmmmmmmmmm",
"mmmmmmmmmmmm99wfziewwwwq962>@mmmmmmmmmm>3579qwwwwwwwwwwq9854<mmmmmm90wxbxdyewwwwqq963<:&mmmmmmmmmmm2690erewwwwwq963<mmmmmmmmmmmm",
"mmmmmmmmmmmm89wjkywwwww095<:mmmmmmmmmmmm>3579qwwwwwwwwwww97652mmm80qwzbxfyewwwwwq963,:&mmmmmmmmmmmmm689wtewwwwww064<@mmmmmmmmmmm",
"mmmmmmmmmmmm90wlgewwwww074<=mmmmmmmmmmmmm>35890wwwwwwwwwwq98764m60qezbxdtewwwwqq963<:*mmmmmmmmmmmmmm579wyrwwwwww084<=mmmmmmmmmmm",
"mmmmmmmmmmmm90tzaewwwww062>@mmmmmmmmmmmmmm>3589wwwwwwwwwwww09999qwpcnxdtewwwwq0963<:&mmmmmmmmmmmmmmm579wttwwwwww0961>mmmmmmmmmmm",
"mmmmmmmmmmm89qiliwwwwwq961>mmmmmmmmmmmmmmmm>3569wwwwwwwwwwwwwqwwyjbnxdyewwwwqq962<:*mmmmmmmmmmmmmmmmm690euewwwwww961>mmmmmmmmmmm",
"mmmmmmmmmmm89qdkywwwww085<:mmmmmmmmmmmmmmmmm>35790wwwwwwwwwwwetakxxlsyewwwwqq963<:&mmmmmmmmmmmmmmmmmm690wuewwwwwq962<mmmmmmmmmmm",
"mmmmmmmmmmm89wfgrwwwww074<=mmmmmmmmmmmmmmmmmm>3589qwwwwwwwweryudgfditewwwwqq963<:&mmmmmmmmmmmmmmmmmmm689wirwwwwww962<Ommmmmmmmmm",
"mmmmmmmmmmm80qgfewwwww073,$mmmmmmmmmmmmmmmmmmm>3579qwwwwwwwwerryytrewwwwwq0963<:*mmmmmmmmmmmmmmmmmmmm680wptwwwwww984<$mmmmmmmmmm",
"mmmmmmmmmmm80wgdewwwww962<@mmmmmmmmmmmmmmmmmmmm>3589wwwwwwwwwwwwwwwwwwwwqq973<:&mmmmmmmmmmmmmmmmmmmmmm89wiywwwwww074<=mmmmmmmmmm",
"mmmmmmmmmmm80wgawwwwww962>mmmmmmmmmmmmmmmmmmmmmm>35790wwwwwwwwwwwwwwwwwqq963<:&mmmmmmmmmmmmmmmmmmmmmmm89wpuwwwwww085<=mmmmmmmmmm",
"mmmmmmmmmmm80wgiwwwwww962>mmmmmmmmmmmmmmmmmmmmmmm>4680weewwwwwwwwwwwwwwq0841>&mmmmmmmmmmmmmmmmmmmmmmmm79qiiwwwwwww85<;mmmmmmmmmm",
"mmmmmmmmmmm90wgiwwwwww962>mmmmmmmmmmmmmmmmmmmmmmmm,680wrrewwwwwwwwwwwwwq962,*mmmmmmmmmmmmmmmmmmmmmmmmm89qiiwwwwww084<:mmmmmmmmmm",
"mmmmmmmmmmm80wguwwwwww952>mmmmmmmmmmmmmmmmmmmmmmmmm<80wuyewwwwwwwwwwwwqq851=mmmmmmmmmmmmmmmmmmmmmmmmmm79wiawwwwww0851:mmmmmmmmmm",
"mmmmmmmmmmm90wfuwwwwwq952>mmmmmmmmmmmmmmmmmmmmmmmmmm20waiewwwwwwwwwwwwq084:mmmmmmmmmmmmmmmmmmmmmmmmmmm89wpawwwwww085<>mmmmmmmmmm",
"mmmmmmmmmmm80wfuwwwwww962,mmmmmmmmmmmmmmmmmmmmmmmmmm6wigaewwwwwwwwwwwwwq85:mmmmmmmmmmmmmmmmmmmmmmmmmmm89waaewwwwwq84<:mmmmmmmmmm",
"mmmmmmmmmmm80wfuwwwww0962>mmmmmmmmmmmmmmmmmmmmmmmmm7qwkzarwwwwwwwwwwwwwq974:mmmmmmmmmmmmmmmmmmmmmmmmmm89qdawwwwwwq751;mmmmmmmmmm",
"mmmmmmmmmmm89wduwwwwww962<mmmmmmmmmmmmmmmmmmmmmmmm90qfnliewwwwwwwwwwwwww0863>mmmmmmmmmmmmmmmmmmmmmmmmm80wfawwwwwqq841;mmmmmmmmmm",
"mmmmmmmmmmm80wauwwwwwq962>mmmmmmmmmmmmmmmmmmmmmmmm9qtvngywwwwwwwwwwwwwwwq0754,mmmmmmmmmmmmmmmmmmmmmmmm80wgawwwwwqq84<;mmmmmmmmmm",
"mmmmmmmmmmm89wpiwwwwww964<mmmmmmmmmmmmmmmmmmmmmmm9qwxnzstwwwwwwwwwwwwwwwwq9854>mmmmmmmmmmmmmmmmmmmmmmm90whiwwwwwwq73<=mmmmmmmmmm",
"mmmmmmmmmmm79quiwwwwww074<@mmmmmmmmmmmmmmmmmmmmm9qwznxdyewwwwwwwwwwwwwwwwww9754<mmmmmmmmmmmmmmmmmmmmmm90rkiwwwwwq073<*mmmmmmmmmm",
"mmmmmmmmmmm790yiwwwwww0851*mmmmmmmmmmmmmmmmmmmm9qwznxdtewwwwwwqwwwwwwwwwwwwq9854<mmmmmmmmmmmmmmmmmmmm89qukuwwwwwq063,$mmmmmmmmmm",
"mmmmmmmmmmm690eiewwwww0851-mmmmmmmmmmmmmmmmmmm0qwznxdtewwwwwqqqqwwwwwwwwwwwwq9854<mmmmmmmmmmmmmmmmmmm89wfkywwwwwq062,Ommmmmmmmmm",
"mmmmmmmmmmm690wiewwwwww962>mmmmmmmmmmmmmmmmmm00wznxdyewwwwqq009990qwwwwwwwwwww9854<mmmmmmmmmmmmmmmmmm99wjgtwwwww0961>mmmmmmmmmmm",
"mmmmmmmmmmm689wirwwwwww063<mmmmmmmmmmmmmmmmm9qwznxdtewwwqqq98766799qwwwwwwwwwww9853<mmmmmmmmmmmmmmmmm90ezfrwwwwwq95<>mmmmmmmmmmm",
"mmmmmmmmmmm689wytwwwwww084<%mmmmmmmmmmmmmmm9qwznxdyewwwwqq9753314689qwwwwwwwwwwq9854<mmmmmmmmmmmmmmmm9qaxaewwwww084<:mmmmmmmmmmm",
"mmmmmmmmmmmm690ryewwwww0952;mmmmmmmmmmmmmm9qwznxdyewwwwqq9631,-m*35890wwwwwwwwwww9754<mmmmmmmmmmmmmm80whzuwwwwww074>=mmmmmmmmmmm",
"mmmmmmmmmmmm690wyewwwwww964<mmmmmmmmmmmmm9qwznxstewwwww0963<>=mmm=2579qwwwwwwwwwww9854<mmmmmmmmmmmmm90ezhtwwwwwq961>#mmmmmmmmmmm",
"mmmmmmmmmmmm689wyewwwwwq0851&mmmmmmmmmmm9qwznxdtewwwwqq973<:*mmmmm=3579wwwwwwwwwwww9853<mmmmmmmmmmmm9wdxdrwwwwwq951>mmmmmmmmmmmm",
"mmmmmmmmmmmm569qrtwwwwwwq962>mmmmmmmmmm9qwznxdtewwwwqq963,:*mmmmmmm;2579qwwwwwwwwww09854<mmmmmmmmmm90wzxiwwwwwwq84<:mmmmmmmmmmmm",
"mmmmmmmmmmmmm690wtewwwwww9741#mmmmmmmm9qwxnxdyewwwwqq963<:&mmmmmmmmm:3589qwwwwwwwwwww9854<mmmmmmmmm90ichyewwwww063>=mmmmmmmmmmmm",
"mmmmmmmmmmmmm679qtewwwwwwq862>mmmmmmm9qwznxdyewwwwq0963<:&mmmmmmmmmmm:3579qwwwwwwwwwwq9854<mmmmmmm90wkvdrwwwww0951>Ommmmmmmmmmmm",
"mmmmmmmmmmmmm569qwrwwwwwwq0752$mmmm800wznxstewwwwqq973<:&mmmmmmmmmmmmm>3579qwwwwwwwwwwq0854<mmmmmm00unluewwwww084<:mmmmmmmmmmmmm",
"mmmmmmmmmmmmmm680wrwwwwwwwq865<mmm60qwznxdyewwwwqq963<:&mmmmmmmmmmmmmmm>3579qwwwwwwwwwwq98541mmmm9qwzvfrwwwwww962>*mmmmmmmmmmmmm",
"mmmmmmmmmmmmmm669qwewwwwwwq0886:m40wwznxfyewwwwqq963,:&mmmmmmmmmmmmmmmmm>3579qwwwwwwwwwww98664mmmqwfnziewwwww094<>Xmmmmmmmmmmmmm",
"mmmmmmmmmmmmmm4680wrewwwwwwq09965qqicbxdtewwwwqq963<:*mmmmmmmmmmmmmmmmmmm>35890wwwwwwwwwwq08886m0wgnbftwwwwwq073<;mmmmmmmmmmmmmm",
"mmmmmmmmmmmmmmm579qwewwwwwwwqqqqwyhbnxstewwwwq0963<:&mmmmmmmmmmmmmmmmmmmmm>3589wwwwwwwwwwwq0000qtknnkiewwwww095<>@mmmmmmmmmmmmmm",
"mmmmmmmmmmmmmmm4680qewwwwwwwwwwrplcczsyewwwww0962<:*mmmmmmmmmmmmmmmmmmmmmmm>3569wwwwwwwwwwwwwqwulnnzdtwwwwww073,;mmmmmmmmmmmmmmm",
"mmmmmmmmmmmmmmmm579qwewwwwwwwryifjhfpyewwwww0973<:&mmmmmmmmmmmmmmmmmmmmmmmmm>35790wwwwwwwwwweyigzzkdyewwwww095<>$mmmmmmmmmmmmmmm",
"mmmmmmmmmmmmmmmm4670qwwwwwwwwrryuuytrewwwwqq963<:&mmmmmmmmmmmmmmmmmmmmmmmmmmm>3589qwwwwwwwweryusdaiyewwwwwq072,;mmmmmmmmmmmmmmmm",
"mmmmmmmmmmmmmmmmm579qwewwwwwwwweeeeewwwwwqq963<:*mmmmmmmmmmmmmmmmmmmmmmmmmmmmm>3579qqwwwwwwweerrrreewwwwwqq851>%mmmmmmmmmmmmmmmm",
"mmmmmmmmmmmmmmmmm3579qwwwwwwwwwwwwwwwwwwq0963<:&mmmmmmmmmmmmmmmmmmmmmmmmmmmmmmm>3589qwwwwwwwwwwwwwwwwwwwwq962>;mmmmmmmmmmmmmmmmm",
"mmmmmmmmmmmmmmmmmm468qweewwwwwwwwwwwwwwwq074<>&mmmmmmmmmmmmmmmmmmmmmmmmmmmmmmmmm>3580wwwwwwwwwwwwwwwwwwwq084<:Ommmmmmmmmmmmmmmmm",
"mmmmmmmmmmmmmmmmmmm570weewwwwwwwwwwwwwwq0952,*mmmmmmmmmmmmmmmmmmmmmmmmmmmmmmmmmmm>569qwrewwwwwwwwwwwwwwwq961>=mmmmmmmmmmmmmmmmmm",
"mmmmmmmmmmmmmmmmmmm570wttewwwwwwwwwwwwwq0751=mmmmmmmmmmmmmmmmmmmmmmmmmmmmmmmmmmmmm<790wyrwwwwwwwwwwwwwww083<>mmmmmmmmmmmmmmmmmmm",
"mmmmmmmmmmmmmmmmmmmm89wuuewwwwwwwwwwwwwq074:mmmmmmmmmmmmmmmmmmmmmmmmmmmmmmmmmmmmmmm29qeiywwwwwwwwwwwwwww062,$mmmmmmmmmmmmmmmmmmm",
"mmmmmmmmmmmmmmmmmmmmm0wsaewwwwwwwwwwwwwq084mmmmmmmmmmmmmmmmmmmmmmmmmmmmmmmmmmmmmmmmm7waduewwwwwwwwwwwwwq962:mmmmmmmmmmmmmmmmmmmm",
"mmmmmmmmmmmmmmmmmmmm6qukdewwwwwwwwwwwwww0962&mmmmmmmmmmmmmmmmmmmmmmmmmmmmmmmmmmmmmmmqilhuewwwwwwwwwwwwww982mmmmmmmmmmmmmmmmmmmmm",
"mmmmmmmmmmmmmmmmmmm90wjzarwwwwwwwwwwwwwww9976<%mmmmmmmmmmmmmmmmmmmmmmmmmmmmmmmmmmm0qyznguewwwwwwwwwwwwww985:mmmmmmmmmmmmmmmmmmmm",
"mmmmmmmmmmmmmmmmmmm0qdczpewwwwwwwwwwwwwwwq098661mmmmmmmmmmmmmmmmmmmmmmmmmmmmmmmm90qwznndywwwwwwwwwwwwwww0962:mmmmmmmmmmmmmmmmmmm",
"mmmmmmmmmmmmmmmmmm00tcnhuewwwwwwwwwwwwwwwww09886642mmmmmmmmmmmmmmmmmmmmmmmmmmm990qwjnnkirewwwwwwwwwwwwwww9864>mmmmmmmmmmmmmmmmmm",
"mmmmmmmmmmmmmmmmm9qwxbzaeewwwwwwwwwwwwwwwwwwq009876655mmmmmmmmmmmmmmmmmmmmm9990qwuzbnkatewwwwwwwwwwwwwwwww9854>mmmmmmmmmmmmmmmmm",
"mmmmmmmmmmmmmmmm9qwznxdtewwwwwwwwwwwwwwwweweeww00998866656mmmmmmmmmmmm889999qqwilbbzgurewwwwwwwwwwwwwwwwwww9854<mmmmmmmmmmmmmmmm",
"mmmmmmmmmmmmmmm0qwznxdyewwwwwwwwwwwwwwwwwwweeeewwq009999888877878888999900qwedlvvlgirewwwwwwwwwwwwwwwwwwwww09852<mmmmmmmmmmmmmmm",
"mmmmmmmmmmmmmm90wznxfyewwwqwwqqwwwwwwwwwwwwwwweerrewww00009099999900q0qwwephxxxjdureewwwwwwwwwqqwwwwwwwwwwwww9863<mmmmmmmmmmmmmm",
"mmmmmmmmmmmmm00wznxdtewwwww00999900wwwwwwwwwwwweeetyyyewwwwqwwqqqwwwwridjzxzhfiyrwwwwwwwwwww0q000qqwwwwwwwwwwq9862<mmmmmmmmmmmmm",
"mmmmmmmmmmmm00wgnxdtewwwwwq9966667900wwwwwwwwwwwwweeeyuuiippiippssfghjkjgfautrewwwwwwwwwwqq09987899qwwwwwwwwwwq9652<mmmmmmmmmmmm",
"mmmmmmmmmmm999qugayewwwqq0975211356890wwwwwwwwwwwwwwwweeryyuiiaaaspaiiuyteewwwwwwwwwwwwwqq9864445689wwwwwwwwwww09531>mmmmmmmmmmm",
"mmmmmmmmmmm76790wwwwwwwq0964<<;m&125699qwwwwwwwwwwwwwwwwwwwwwwwwwwwwwwwwwwwwwwwwwwwwwwwq996411<>=45790wwwwwwwww9752<<mmmmmmmmmmm",
"mmmmmmmmmmmm55680qwwwwqq963<>=mmmm<2366890wwwwwwwwwwwwwwwwwwwwwwwwwwwwwwwwwwwwwwwwwwq009751<>>$mm*3579qwwwwwwq0861<>%mmmmmmmmmmm",
"mmmmmmmmmmmmm24689qwwqq972<:*mmmmmm=12468990wwwwwwwwwwwwwwwwwwwwwwwwwwwwwwwwwwwwwwq009753<,>;mmmmm=3589qwwwwq0951,>#mmmmmmmmmmmm",
"mmmmmmmmmmmmmm14589qq0963<:&mmmmmmmmm>12456999wwwwwwwwwwwwwwwwwwwwwwwwwwwwwwwwwwq099753<,>;Ommmmmmm-3579qwwq0862>:@mmmmmmmmmmmmm",
"mmmmmmmmmmmmmmm<35790963<:*mmmmmmmmmmm$<1245689900qwwwwwwwwwwwwwwwwwwwwwwwwqqq0998643<<>:$mmmmmmmmmm;3579qq0951,:@mmmmmmmmmmmmmm",
"mmmmmmmmmmmmmmmm<356862<:&mmmmmmmmmmmmmmm<<225666990q00wwwwwwwwwwwwwwwwwq0009976542<<>:$mmmmmmmmmmmmm:35699862>>Ommmmmmmmmmmmmmm",
"mmmmmmmmmmmmmmmmm<2452<>*mmmmmmmmmmmmmmmmmm><1125567889990900000qq00009999866542<<>>;$mmmmmmmmmmmmmmmm>346751>>Ommmmmmmmmmmmmmmm",
"mmmmmmmmmmmmmmmmmm<22<>=mmmmmmmmmmmmmmmmmmmmm=><<1244566686888888788766655432<<>>;& mmmmmmmmmmmmmmmmmmm>3341<:@mmmmmmmmmmmmmmmmm",
"mmmmmmmmmmmmmmmmmmm><<=mmmmmmmmmmmmmmmmmmmmmmmmm*><<<112243455554544442211<>>>:*Ommmmmmmmmmmmmmmmmmmmmmm:21<>@mmmmmmmmmmmmmmmmmm",
"mmmmmmmmmmmmmmmmmmmm,>mmmmmmmmmmmmmmmmmmmmmmmmmmmmmO=:,<<<<<<<1<<1<<<,,>>>;=@mmmmmmmmmmmmmmmmmmmmmmmmmmmm:<<$mmmmmmmmmmmmmmmmmmm",
"mmmmmmmmmmmmmmmmmmmmmmmmmmmmmmmmmmmmmmmmmmmmmmmmmmmmmmmmm@*=;;;;;;;;*&$Ommmmmmmmmmmmmmmmmmmmmmmmmmmmmmmmmm:*mmmmmmmmmmmmmmmmmmmm",
"mmmmmmmmmmmmmmmmmmmmmmmmmmmmmmmmmmmmmmmmmmmmmmmmmmmmmmmmmmmmmmmmmmmmmmmmmmmmmmmmmmmmmmmmmmmmmmmmmmmmmmmmmmmmmmmmmmmmmmmmmmmmmmmm",
"mmmmmmmmmmmmmmmmmmmmmmmmmmmmmmmmmmmmmmmmmmmmmmmmmmmmmmmmmmmmmmmmmmmmmmmmmmmmmmmmmmmmmmmmmmmmmmmmmmmmmmmmmmmmmmmmmmmmmmmmmmmmmmmm",
"mmmmmmmmmmmmmmmmmmmmmmmmmmmmmmmmmmmmmmmmmmmmmmmmmmmmmmmmmmmmmmmmmmmmmmmmmmmmmmmmmmmmmmmmmmmmmmmmmmmmmmmmmmmmmmmmmmmmmmmmmmmmmmmm",
"mmmmmmmmmmmmmmmmmmmmmmmmmmmmmmmmmmmmmmmmmmmmmmmmmmmmmmmmmmmmmmmmmmmmmmmmmmmmmmmmmmmmmmmmmmmmmmmmmmmmmmmmmmmmmmmmmmmmmmmmmmmmmmmm",
"mmmmmmmmmmmmmmmmmmmmmmmmmmmmmmmmmmmmmmmmmmmmmmmmmmmmmmmmmmmmmmmmmmmmmmmmmmmmmmmmmmmmmmmmmmmmmmmmmmmmmmmmmmmmmmmmmmmmmmmmmmmmmmmm",
"mmmmmmmmmmmmmmmmmmmmmmmmmmmmmmmmmmmmmmmmmmmmmmmmmmmmmmmmmmmmmmmmmmmmmmmmmmmmmmmmmmmmmmmmmmmmmmmmmmmmmmmmmmmmmmmmmmmmmmmmmmmmmmmm",
"mmmmmmmmmmmmmmmmmmmmmmmmmmmmmmmmmmmmmmmmmmmmmmmmmmmmmmmmmmmmmmmmmmmmmmmmmmmmmmmmmmmmmmmmmmmmmmmmmmmmmmmmmmmmmmmmmmmmmmmmmmmmmmmm",
"mmmmmmmmmmmmmmmmmmmmmmmmmmmmmmmmmmmmmmmmmmmmmmmmmmmmmmmmmmmmmmmmmmmmmmmmmmmmmmmmmmmmmmmmmmmmmmmmmmmmmmmmmmmmmmmmmmmmmmmmmmmmmmmm",
"mmmmmmmmmmmmmmmmmmmmmmmmmmmmmmmmmmmmmmmmmmmmmmmmmmmmmmmmmmmmmmmmmmmmmmmmmmmmmmmmmmmmmmmmmmmmmmmmmmmmmmmmmmmmmmmmmmmmmmmmmmmmmmmm",
"mmmmmmmmmmmmmmmmmmmmmmmmmmmmmmmmmmmmmmmmmmmmmmmmmmmmmmmmmmmmmmmmmmmmmmmmmmmmmmmmmmmmmmmmmmmmmmmmmmmmmmmmmmmmmmmmmmmmmmmmmmmmmmmm"
};
