/* XPM */
static char *makelayercurrent[] = {
/* columns rows colors chars-per-pixel */
"128 128 66 1 ",
"  c #000000",
". c #0B0B00",
"X c #0B0B0B",
"o c #141400",
"O c #1D1D00",
"+ c #131313",
"@ c #1B1B1B",
"# c #222200",
"$ c #2C2C00",
"% c #333300",
"& c #3B3B00",
"* c #232323",
"= c #2C2C2C",
"- c #333333",
"; c #3C3C3C",
": c #454500",
"> c #4B4B00",
", c #525200",
"< c #5C5C00",
"1 c #666600",
"2 c #6C6C00",
"3 c #737300",
"4 c #7D7D00",
"5 c #404040",
"6 c #4C4C4C",
"7 c #525252",
"8 c #5B5B5B",
"9 c #646464",
"0 c #6B6B60",
"q c #6C6C6C",
"w c #737373",
"e c #7C7C7C",
"r c #838300",
"t c #8A8A00",
"y c #949400",
"u c #989800",
"i c #88881D",
"p c #A4A400",
"a c #ACAC00",
"s c #B5B500",
"d c #BCBC00",
"f c #C5C500",
"g c #CBCB00",
"h c #D5D500",
"j c #DBDB00",
"k c #E4E400",
"l c #ECEC00",
"z c #F3F300",
"x c #FEFE00",
"c c #848484",
"v c gray55",
"b c #959595",
"n c #989898",
"m c gray64",
"M c #ACACAC",
"N c #B3B3B3",
"B c #BDBDBD",
"V c #C6C6C6",
"C c #CBCBCB",
"Z c #D6D6D6",
"A c #DBDBDB",
"S c #E4E4E4",
"D c #ECECEC",
"F c #F3F3F3",
"G c #FEFEFE",
"H c None",
/* pixels */
"HHHHHHHHHHHHHHHHHHHHHHHHHHHHHHHHHHHHHHHHHHHHHHHHHHHHHHHHHHHHHHHHHHHHHHHHHHHHHHHHHHHHHHHHHHHHHHHHHHHHHHHHHHHHHHHHHHHHHHHHHHHHHHHH",
"HHHHHHHHHHHHHHHHHHHHHHHHHHHHHHHHHHHHHHHHHHHHHHHHHHHHHHHHHHHHHHHHHHHHHHHHHHHHHHHHHHHHHHHHHHHHHHHHHHHHHHHHHHHHHHHHHHHHHHHHHHHHHHHH",
"HHHHHHHHHHHHHHHHHHHHHHHHHHHHHHHHHHHHHHHHHHHHHHHHHHHHHHHHHHHHHHHHHHHHHHHHHHHHHHHHHHHHHHHHHHHHHHHHHHHHHHHHHHHHHHHHHHHHHHHHHHHHHHHH",
"HHHHHHHHHHHHHHHHHHHHHHHHHHHHHHHHHHHHHHHHHHHHHHHHHHHHHHHHHHHHHHHHHHHHHHHHHHHHHHHHHHHHHHHHHHHHHHHHHHHHHHHHHHHHHHHHHHHHHHHHHHHHHHHH",
"HHHHHHHHHHHHHHHHHHHHHHHHHHHHHHHHHHHHHHHHHHHHHHHHHHHHHHHHHHHHHHHHHHHHHHHHHHHHHHHHHHHHHHHHHHHHHHHHHHHHHHHHHHHHHHHHHHHHHHHHHHHHHHHH",
"HHHHHHHHHHHHHHHHHHHHHHHHHHHHHHHHHHHHHHHHHHHHHHHHHHHHHHHHHHHHHHHHHHHHHHHHHHHHHHHHHHHHHHHHHHHHHHHHHHHHHHHHHHHHHHHHHHHHHHHHHHHHHHHH",
"HHHHHHHHHHHHHHHHHHHHHHHHHHHHHHHHHHHHHHHHHHHHHHHHHHHHHHHHHHHHHHHHHHHHHHHHHHHHHHHHHHHHHHHHHHHHHHHHHHHHHHHHHHHHHHHHHHHHHHHHHHHHHHHH",
"HHHHHHHHHHHHHHHHHHHHHHHHHHHHHHHHHHHHHHHHHHHHHHHHHHHHHHHHHHHHHHHHHHHHHHHHHHHHHHHHHHHHHHHHHHHHHHHHHHHHHHHHHHHHHHHHHHHHHHHHHHHHHHHH",
"HHHHHHHHHHHHHHHHHHHHHHHHHHHHHHHHHHHHHHHHHHHHHHHHHHHHHHHHHHHHHHHHHHHHHHHHHHHHHHHHHHHHHHHHHHHHHHHHHHHHHHHHHHHHHHHHHHHHHHHHHHHHHHHH",
"HHHHHHHHHHHHHHHHHHHHHHHHHHHHHHHHHHHHHHHHHHHHHHHHHHHHHHHHHHHHHHHHHHHHHHHHHHHHHHHHHHHHHHHHHHHHHHHHHHHHHHHHHHHHHHHHHHHHHHHHHHHHHHHH",
"HHHHHHHHHHHHHHHHHHHHHHHHHHHHHHHHHHHHHHHHHHHHHHHHHHHHHHHHHHHHHHHHHHHHHHHHHHHHHHHHHHHHHHHHHHHHHHHHHHHHHHHHHHHHHHHHHHHHHHHHHHHHHHHH",
"HHHHHHHHHHHHHHHHHHHHHHHHHHHHHHHHHHHHHHHHHHHHHHHHHHHHHHHHHHHHHHHHHHHHHHHHHHHHHHHHHHHHHHHHHHHHHHHHHHHHHHHHHHHHHHHHHHHHHHHHHHHHHHHH",
"HHHHHHHHHHHHHHHHHHHHHHHHHH                                                                  HHHHHHHHHHHHHHHHHHHHHHHHHHHHHHHHHHHH",
"HHHHHHHHHHHHHHHHHHHHHHHHHH           +=;;555555555555555555555555555555555555555555666-     HHHHHHHHHHHHHHHHHHHHHHHHHHHHHHHHHHHH",
"HHHHHHHHHHHHHHHHHHHHHHHHHH   -q-                                                      =96    HHHHHHHHHHHHHHHHHHHHHHHHHHHHHHHHHHH",
"HHHHHHHHHHHHHHHHHHHHHHHHHHH   89                                                         @    HHHHHHHHHHHHHHHHHHHHHHHHHHHHHHHHHH",
"HHHHHHHHHHHHHHHHHHHHHHHHHHH      X-7776777777777777777777777777777777777777777777777776@      HHHHHHHHHHHHHHHHHHHHHHHHHHHHHHHHHH",
"HHHHHHHHHHHHHHHHHHHHHHHHHHHH      @MVVVVVVVVVVVCVVVCVVVCVVVCVVVCVVVCVCVVCVVVVVVCVVVCVCVb+      HHHHHHHHHHHHHHHHHHHHHHHHHHHHHHHHH",
"HHHHHHHHHHHHHHHHHHHHHHHHHHHHH     X7NBBVVVVVVVVVVVVVVVVVVVVVVVVVVVVVVVVVVVVVVVVVVVVVVVVB9      HHHHHHHHHHHHHHHHHHHHHHHHHHHHHHHHH",
"HHHHHHHHHHHHHHHHHHHHHHHHHHHHH      XcBBVVVCCCCCCCCCCCCCCCCCCCCCCCCCCCCCCCCCCCCCCCCCCCCCCM-      HHHHHHHHHHHHHHHHHHHHHHHHHHHHHHHH",
"HHHHHHHHHHHHHHHHHHHHHHHHHHHHHH      =NBVCCZZZZZAAZZAZAZZAZZAZAZZZAZZZAZZZZAZZZAZZAZZZAZZZvX      HHHHHHHHHHHHHHHHHHHHHHHHHHHHHHH",
"HHHHHHHHHHHHHHHHHHHHHHHHHHHHHH      X9VCZAASSSSSSSSSSSSSSSSSSSSSSSSSSSSSSSSSSSSSSSSSSSSSSZ7  X   HHHHHHHHHHHHHHHHHHHHHHHHHHHHHHH",
"HHHHHHHHHHHHHHHHHHHHHHHHHHHHHHH   X  +nCZADDFDDFFDFDFFFDFDFDFFFFFFFFFFFFFFFFFFDFFFFFFFFFFDB*      HHHHHHHHHHHHHHHHHHHHHHHHHHHHHH",
"HHHHHHHHHHHHHHHHHHHHHHHHHHHHHHHH     X6CZSDFFGGFFGFGFFGGFGFGFFGFGFFGFFGFFGFFGFGFGFFGFFGFFFDv       HHHHHHHHHHHHHHHHHHHHHHHHHHHHH",
"HHHHHHHHHHHHHHHHHHHHHHHHHHHHHHHH      XeZADFFGFGGGGGGGGGGGGGGGGGGGGGGGGGGGGGGGGGGGGGGGGGGGFZ6  X   HHHHHHHHHHHHHHHHHHHHHHHHHHHHH",
"HHHHHHHHHHHHHHHHHHHHHHHHHHHHHHHHH      @NASFFGGGGGGGGGGGGGGGGGGGGGGGGGGGGGGGGGGGGGGGGGGGGGGFN+      HHHHHHHHHHHHHHHHHHHHHHHHHHHH",
"HHHHHHHHHHHHHHHHHHHHHHHHHHHHHHHHHH     X7ZADFGGGGGGGGGGGGGGGGGGGGGGGGGGGGGGGGGGGGGGGGGGGGGGFSw      HHHHHHHHHHHHHHHHHHHHHHHHHHHH",
"HHHHHHHHHHHHHHHHHHHHHHHHHHHHHHHHHH      +bZSDFGGGGGGGGGGGGGGGGGGGGGGGGGGGGGGGGGGGGGGGGGGGGGGGC-      HHHHHHHHHHHHHHHHHHHHHHHHHHH",
"HHHHHHHHHHHHHHHHHHHHHHHHHHHHHHHHHHH      -CASFFGGGGGGGGGGGGGGGGGGGGGGGGGGGGGGGGGGGGGGGGGGGGGGFnX      HHHHHHHHHHHHHHHHHHHHHHHHHH",
"HHHHHHHHHHHHHHHHHHHHHHHHHHHHHHHHHHHH     XqZSDFGGGGGGGGGGGGGGGGGGGGGGGGGGGGGGGGGGGGGGGGGGGGGGFA8  X   HHHHHHHHHHHHHHHHHHHHHHHHHH",
"HHHHHHHHHHHHHHHHHHHHHHHHHHHHHHHHHHHH   X  @MZSDFGGGGGGGGGGGGGGGGGGGGGGGGGGGGGGGGGGGGGGGGGGGGGGFB*      HHHHHHHHHHHHHHHHHHHHHHHHH",
"HHHHHHHHHHHHHHHHHHHHHHHHHHHHHHHHHHHHH      6ZADFFGGGGGGGGGGGGGGGGGGGGGGGGGGGGGGGGGGGGGGGGGGGGGGDc       HHHHHHHHHHHHHHHHHHHHHHHH",
"HHHHHHHHHHHHHHHHHHHHHHHHHHHHHHHHHHHHH      XcASDFGGGGGGGGGGGGGGGGGGGGGGGGGGGGGGGGGGGGGGGGGGGGGGFA6  X   HHHHHHHHHHHHHHHHHHHHHHHH",
"HHHHHHHHHHHHHHHHHHHHHHHHHHHHHHHHHHHHHH      *NASFFGGGGGGGGGGGGGGGGGGGGGGGGGGGGGGGGGGGGGGGGGGGGGGFM+      HHHHHHHHHHHHHHHHHHHHHHH",
"HHHHHHHHHHHHHHHHHHHHHHHHHHHHHHHHHHHHHHH     X8ZADFFGGGGGGGGGGGGGGGGGGGGGGGGGGGGGGGGGGGGGGGGGGGGGGSq      HHHHHHHHHHHHHHHHHHHHHHH",
"HHHHHHHHHHHHHHHHHHHHHHHHHHHHHHHHHHHHHHH   X  XbZSDFGGGGGGGGGGGGGGGGGGGGGGGGGGGGGGGGGGGGGGGGGGGGGGFC-      HHHHHHHHHHHHHHHHHHHHHH",
"HHHHHHHHHHHHHHHHHHHHHHHHHHHHHHHHHHHHHHHH      -CASFGFGGGGGGGGGGGGGGGGGGGGGGGGGGGGGGGGGGGGGGGGGGGGGFn       HHHHHHHHHHHHHHHHHHHHH",
"HHHHHHHHHHHHHHHHHHHHHHHHHHHHHHHHHHHHHHHHH     XqZADFGGGGGGGGGGGGGGGGGGGGGGGGGGGGGGGGGGGGGGGGGGGGGGGA8  X   HHHHHHHHHHHHHHHHHHHHH",
"HHHHHHHHHHHHHHHHHHHHHHHHHHHHHHHHHHHHHHHHH   X  +mASDFGGGGGGGGGGGGGGGGGGGGGGGGGGGGGGGGGGGGGGGGGGGGGGFV*      HHHHHHHHHHHHHHHHHHHH",
"HHHHHHHHHHHHHHHH                               X6ZASFFGGGGGGGGGGGGGGGGGGGGGGGGGGGGGGGGGGGGGGGGGGGGGFDc       HHHHHHHHHHHHHHHHHHH",
"HHHHHHHHHHHHHHHH           +=;;55555555;;;@     XcZSDFGGGGGGGGGGGGGGGGGGGGGGGGGGGGGGGGGGGGGGGGGGGGGGFA6  X   HHHHHHHHHHHHHHHHHHH",
"HHHHHHHHHHHHHHHH   6q=                        X  *NASFFGGGGGGGGGGGGGGGGGGGGGGGGGGGGGGGGGGGGGGGGGGGGGGFM+      HHHHHHHHHHHHHHHHHH",
"HHHHHHHHHHHHHHHHH   97                           X8ZADFGGGGGGGGGGGGGGGGGGGGGGGGGGGGGGGGGGGGGGGGGGGGGGFDw      HHHHHHHHHHHHHHHHHH",
"HHHHHHHHHHHHHHHHH      X;7777776777777777776@  X  XnASDFGGGGGGGGGGGGGGGGGGGGGGGGGGGGGGGGGGGGGGGGGGGGGGFC-      HHHHHHHHHHHHHHHHH",
"HHHHHHHHHHHHHHHHHH      ;VBVVVVVVVCVVVVCVVVBMX     -CADDFGGGGGGGGGGGGGGGGGGGGGGGGGGGGGGGGGGGGGGGGGGGGGGDn       HHHHHHHHHHHHHHHH",
"HHHHHHHHHHHHHHHHHH      XqBNBVVVVVVVVVVVVVVVBq     XwZADFGGGGGGGGGGGGGGGGGGGGGGGGGGGGGGGGGGGGGGGGGGGGGGFA8  X   HHHHHHHHHHHHHHHH",
"HHHHHHHHHHHHHHHHHHH      +nBBVVVCCCCCCCCCCCVVB-  X  @MZSDFGGGGGGGGGGGGGGGGGGGGGGGGGGGGGGGGGGGGGGGGGGGGGGFB@      HHHHHHHHHHHHHHH",
"HHHHHHHHHHHHHHHHHHHH     X6BBVCZZAZZAZZZAZZZZZm     X6ZADFFGGGGGGGGGGGGGGGGGGGGGGGGGGGGGGGGGGGGGGGGGGGGGGDc       HHHHHHHHHHHHHH",
"HHHHHHHHHHHHHHHHHHHH      XeVCZAASSSSSSSSSSSSSA9     XcZSDFGGGGGGGGGGGGGGGGGGGGGGGGGGGGGGGGGGGGGGGGGGGGGGFA5  +   HHHHHHHHHHHHHH",
"HHHHHHHHHHHHHHHHHHHHH      =NCZSDDDFFFFFFDFDFDDS*     *BASDGFGGGGGGGGGGGGGGGGGGGGGGGGGGGGGGGGGGGGGGGGGGGGGFMX      HHHHHHHHHHHHH",
"HHHHHHHHHHHHHHHHHHHHHH     X9CASDFFFFFFGFGFGFFFDm     X8ZADFGGGGGGGGGGGGGGGGGGGGGGGGGGGGGGGGGGGGGGGGGGGGGGFSq       HHHHHHHHHHHH",
"HHHHHHHHHHHHHHHHHHHHHH      +nZSDFGGGGGGGGGGGGGFF7  X  +nZSDFGGGGGGGGGGGGGGGGGGGGGGGGGGGGGGGGGGGGGGGGGGGGGGGC-  +   HHHHHHHHHHHH",
"HHHHHHHHHHHHHHHHHHHHHHH      ;CASDGGGGGGGGGGGGGGFA+     -CASFFFGGGGGGGGGGGGGGGGGGGGGGGGGGGGGGGGGGGGGGGGGGGGGFn  @    HHHHHHHHHHH",
"HHHHHHHHHHHHHHHHHHHHHHH      XwZSDFFGGGGGGGGGGGGGFb     XwZSDFGGGGGGGGGGGGGGGGGGGGGGGGGGGGGGGGGGGGGGGGGGGGGGFS8  6    HHHHHHHHHH",
"HHHHHHHHHHHHHHHHHHHHHHHH      @MZSDGGGGGGGGGGGGGGFD;  +  @MZSDGGGGGGGGGGGGGGGGGGGGGGGGGGGGGGGGGGGGGGGGGGGGGGFFB@ q    HHHHHHHHHH",
"HHHHHHHHHHHHHHHHHHHHHHHHH     X6ZADFFGGGGGGGGGGGGGFVX     6ZADFFGGGGGGGGGGGGGGGGGGGGGGGGGGGGGGGGGGGGGGGGGGGGGGDc*w*    HHHHHHHHH",
"HHHHHHHHHHHHHHHHHHHHHHHHH      XcZSDFGGGGGGGGGGGGGFFq     X6cvvbbnbnnnbnnnnnbnnnnnbnnnnnnnnnnnbnnnnnbnnnnnnnnbbbqe;    HHHHHHHHH",
"HHHHHHHHHHHHHHHHHHHHHHHHHH      =BASFFGGGGGGGGGGGGGFA*                                                       -qw7*      HHHHHHHH",
"HHHHHHHHHHHHHHHHHHHHHHHHHHH     X9ZADFFGGGGGGGGGGGGGFb        @-;555555555555555555555555;555555555555555568ww6         HHHHHHHH",
"HHHHHHHHHHHHHHHHHHHHHHHHHHH   X  +nZSFFGGGGGGGGGGGGGGD6                                                                 HHHHHHHH",
"HHHHHHHHHHHHHHHHHHHHHHHHHHHH      -ZASFFGGGGGGGGGGGGGFVX                                                                HHHHHHHH",
"HHHHHHHHHHHHHHHHHHHHHHHHHHHHH     XqZSDFGGGGGGGGGGGGGGFm77766666777777777777777777777766@  X                           HHHHHHHHH",
"HHHHHHHHHHHHHHHHHHHHHHHHHHHHH   X  @MZSDFGGGGGGGGGGGGGFDSAZVVBBVVVVVCVVVVVCVVVVVCVVCVVVBb+      HHHHHHHHHHHHHHHHHHHHHHHHHHHHHHHH",
"HHHHHHHHHHHHHHHHHHHHHHHHHHHHHH     X7ZADFFGGGGGGGGGGGGGFDSACVVVVVVVVVVVVCVVVVCVVVVVVVVVVN8       HHHHHHHHHHHHHHHHHHHHHHHHHHHHHHH",
"HHHHHHHHHHHHHHHHHHHHHHHHHHHHHH      XvZSDFFGGGGGGGGGGGGGFDSAZCCCCCCCCCCCCCCCCCCCCCCCCCCCVm-      HHHHHHHHHHHHHHHHHHHHHHHHHHHHHHH",
"HHHHHHHHHHHHHHHHHHHHHHHHHHHHHHH      =VADFFGGGGGGGGGGGGGFFDSAAZAZZZZZZZZAZZZAZZZZAZZAZZZZCvX      HHHHHHHHHHHHHHHHHHHHHHHHHHHHHH",
"HHHHHH                               X9ZADFGGGGGGGGGGGGGGFFDDDSSSSSSSSSSSSSSSSSSSSSSSSSSSSC8       HHHHHHHHHHHHHHHHHHHHHHHHHHHHH",
"HHHHH            @=;555555555;55+  X  +nZSDFGGGGGGGGGGGGGGGFFFDFDFFFFFFDFDFFDFFFDFFDFDFFFDDN=      HHHHHHHHHHHHHHHHHHHHHHHHHHHHH",
"HHHHHH   89@                           ;ZASFFGGGGGGGGGGGGGGGGFGFGFFGFGFGGFFGGFFGFGFGGFFGFFFSv       HHHHHHHHHHHHHHHHHHHHHHHHHHHH",
"HHHHHH    w5                           XwZSDFGGGGGGGGGGGGGGGGGGGGGGGGGGGGGGGGGGGGGGGGGGGGGGFA7  X   HHHHHHHHHHHHHHHHHHHHHHHHHHHH",
"HHHHHHH      o:>,,,,,,,,,,,,,,,,,>o  X  @NZSDGGGGGGGGGGGGGGGGGGGGGGGGGGGGGGGGGGGGGGGGGGGGGGGFB@      HHHHHHHHHHHHHHHHHHHHHHHHHHH",
"HHHHHHHH      ,fffffffgffffffffffdy     X6ZASFFGGGGGGGGGGGGGGGGGGGGGGGGGGGGGGGGGGGGGGGGGGGGGGSe       HHHHHHHHHHHHHHHHHHHHHHHHHH",
"HHHHHHHH      .tdddffffffffffffffdd,     XvZSDFGGGGGGGGGGGGGGGGGGGGGGGGGGGGGGGGGGGGGGGGGGGGGGFZ;  X   HHHHHHHHHHHHHHHHHHHHHHHHHH",
"HHHHHHHHH      $adffffgfgggggggggffdO     =VASFFGGGGGGGGGGGGGGGGGGGGGGGGGGGGGGGGGGGGGGGGGGGGGGFMX      HHHHHHHHHHHHHHHHHHHHHHHHH",
"HHHHHHHHHH      <ddfghhhhhhhhhhhhhhgt     X9ZSDFGGGGGGGGGGGGGGGGGGGGGGGGGGGGGGGGGGGGGGGGGGGGGGFS9  X    HHHHHHHHHHHHHHHHHHHHHHHH",
"HHHHHHHHHH      oyfghjkkklkklklklkkjh:  X  +nZSDFGGGGGGGGGGGGGGGGGGGGGGGGGGGGGGGGGGGGGGGGGGGGGGFC=  X   HHHHHHHHHHHHHHHHHHHHHHHH",
"HHHHHHHHHHH      &fhjklllzzlzlzllzzllf.     ;CASFFGGGGGGGGGGGGGGGGGGGGGGGGGGGGGGGGGGGGGGGGGGGGGGDb       HHHHHHHHHHHHHHHHHHHHHHH",
"HHHHHHHHHHH      .3ghllzxzzxzxzxxzxzzlr     XwZSDFGGGGGGGGGGGGGGGGGGGGGGGGGGGGGGGGGGGGGGGGGGGGGGGA7  X    HHHHHHHHHHHHHHHHHHHHHH",
"HHHHHHHHHHHH      #shklzzxxxxxxxxxxxxzz%  X  @MASDFGGGGGGGGGGGGGGGGGGGGGGGGGGGGGGGGGGGGGGGGGGGGGGFB@      HHHHHHHHHHHHHHHHHHHHHH",
"HHHHHHHHHHHHH      ,hjlzxxxxxxxxxxxxxxzd     X6ZADDGGGGGGGGGGGGGGGGGGGGGGGGGGGGGGGGGGGGGGGGGGGGGGFDe  -    HHHHHHHHHHHHHHHHHHHHH",
"HHHHHHHHHHHHH      .yhklxzxxxxxxxxxxxxxz1  X  XbZSDFGGGGGGGGGGGGGGGGGGGGGGGGGGGGGGGGGGGGGGGGGGGGGGFZ; *=   HHHHHHHHHHHHHHHHHHHHH",
"HHHHHHHHHHHHHH      %fhllxxxxxxxxxxxxxxzkO     =VASDFGGGGGGGGGGGGGGGGGGGGGGGGGGGGGGGGGGGGGGGGGGGGGGFmX+9    HHHHHHHHHHHHHHHHHHHH",
"HHHHHHHHHHHHHHH     .2hjlzxxxxxxxxxxxxxxzu     X9ZADFGGGGGGGGGGGGGGGGGGGGGGGGGGGGGGGGGGGGGGGGGGGGGGGS8-e     HHHHHHHHHHHHHHHHHHH",
"HHHHHHHHHHHHHHH   X  ophkzzzxxxxxxxxxxxxxl>  +  X9cvvbbbnnnnnnnnnnnnnnnnnnnnnnnnnnnnnnnnnnnnnnnnbbnbnvqw@    HHHHHHHHHHHHHHHHHHH",
"HHHHHHHHHHHHHHHH      :hhlzxxxxxxxxxxxxxzzd.                                                       ;qw6@      HHHHHHHHHHHHHHHHHH",
"HHHHHHHHHHHHHHHH       4hklzzxxxxxxxxxxxxxz2        *-;5555555555555555555555555555555555555555569wq;         HHHHHHHHHHHHHHHHHH",
"HHHHHHHHHHHHHHHHH   .  #shklzxxxxxxxxxxxxxzk$                                                                 HHHHHHHHHHHHHHHHHH",
"HHHHHHHHHHHHHHHHHH      ,hklzxxxxxxxxxxxxxxzp                                                                HHHHHHHHHHHHHHHHHHH",
"HHHHHHHHHHHHHHHHHH      .yhklzzxxxxxxxxxxxxzzt,,,>>>>,,,,,,,,,,,,,,,,,,,,,,,,:o                             HHHHHHHHHHHHHHHHHHHH",
"HHHHHHHHHHHHHHHHHHH      %fhllxxxxxxxxxxxxxxzzkhgffddfffffgfgffgfffffffgffgffd4       HHHHHHHHHHHHHHHHHHHHHHHHHHHHHHHHHHHHHHHHHH",
"HHHHHHHHHHHHHHHHHHHH     .2hjlzxxxxxxxxxxxxxxzlkhhffffffffffffffffffffffffffffs>  X    HHHHHHHHHHHHHHHHHHHHHHHHHHHHHHHHHHHHHHHHH",
"HHHHHHHHHHHHHHHHHHHH   X  ophkzzxxxxxxxxxxxxxxzlkhhgfgfgfhgggggghgggggggggggfffuO      HHHHHHHHHHHHHHHHHHHHHHHHHHHHHHHHHHHHHHHHH",
"HHHHHHHHHHHHHHHHHHHHH      :hhllzxxxxxxxxxxxxxzzlkjhhhhhhhhhhhhhhhhhhjhhhjhhhhhf3       HHHHHHHHHHHHHHHHHHHHHHHHHHHHHHHHHHHHHHHH",
"HHHHHHHHHHHHHHHHHHHHH      .4hklzxxxxxxxxxxxxzxzzllllkkklkklkkkkkkkklkkklkkkkkkjf:  X   HHHHHHHHHHHHHHHHHHHHHHHHHHHHHHHHHHHHHHHH",
"HHHHHHHHHHHHHHHHHHHHHH   X  #dhkzzxxxxxxxxxxxxxxzzzlzzzzzzzzzzzlzzzlzlzzzlzzzzllkao      HHHHHHHHHHHHHHHHHHHHHHHHHHHHHHHHHHHHHHH",
"HHHHHHHHHHHHHHHHHHHHHHH      ,hjlzzxxxxxxxxxxxxxxxxxxzzxzzxzzxzxxzzxzxxzzxxzxzxzzk3       HHHHHHHHHHHHHHHHHHHHHHHHHHHHHHHHHHHHHH",
"HHHHHHHHHHHHHHHHHHHHHHH      othklzxxxxxxxxxxxxxxxxxxxxxxxxxxxxxxxxxxxxxxxxxxxxxxzh&      HHHHHHHHHHHHHHHHHHHHHHHHHHHHHHHHHHHHHH",
"HHHHHHHHHHHHHHHHHHHHHHHH      %ghlzxxxxxxxxxxxxxxxxxxxxxxxxxxxxxxxxxxxxxxxxxxxxxxxzu       HHHHHHHHHHHHHHHHHHHHHHHHHHHHHHHHHHHHH",
"HHHHHHHHHHHHHHHHHHHHHHHH      .2hjlzzxxxxxxxxxxxxxxxxxxxxxxxxxxxxxxxxxxxxxxxxxxxxxxj<  X   HHHHHHHHHHHHHHHHHHHHHHHHHHHHHHHHHHHHH",
"HHHHHHHHHHHHHHHHHHHHHHH     X  Oahklzxxxxxxxxxxxxxxxxxxxxxxxxxxxxxxxxxxxxxxxxxxxxxxzf#      HHHHHHHHHHHHHHHHHHHHHHHHHHHHHHHHHHHH",
"HHHHHHHHHHHHHHHHHHHHH           :gjlzzxxxxxxxxxxxxxxxxxxxxxxxxxxxxxxxxxxxxxxxxxxxxxzlt       HHHHHHHHHHHHHHHHHHHHHHHHHHHHHHHHHHH",
"HHHHHHHHHHHHHHHHHHH             .thklzzxxxxxxxxxxxxxxxxxxxxxxxxxxxxxxxxxxxxxxxxxxxxxxh:  +   HHHHHHHHHHHHHHHHHHHHHHHHHHHHHHHHHHH",
"HHHHHHHHHHHHHHHHH         H      #dhllxxxxxxxxxxxxxxxxxxxxxxxxxxxxxxxxxxxxxxxxxxxxxxxzso      HHHHHHHHHHHHHHHHHHHHHHHHHHHHHHHHHH",
"HHHHHHHHHHHHHHH     =@    HH      <hjlzxxxxxxxxxxxxxxxxxxxxxxxxxxxxxxxxxxxxxxxxxxxxxxzk3       HHHHHHHHHHHHHHHHHHHHHHHHHHHHHHHHH",
"HHHHHHHHHHHH      =99     HH      oyhklzxxxxxxxxxxxxxxxxxxxxxxxxxxxxxxxxxxxxxxxxxxxxxxzh%  X   HHHHHHHHHHHHHHHHHHHHHHHHHHHHHHHHH",
"HHHHHHHHHH      -9ew@    HHHH      %fjkzzxxxxxxxxxxxxxxxxxxxxxxxxxxxxxxxxxxxxxxxxxxxxxxzu       HHHHHHHHHHHHHHHHHHHHHHHHHHHHHHHH",
"HHHHHHHH      -qew8=     HHHH       3hjlzxxxxxxxxxxxxxxxxxxxxxxxxxxxxxxxxxxxxxxxxxxxxxxzk<  ;    HHHHHHHHHHHHHHHHHHHHHHHHHHHHHHH",
"HHHHHH     X6qew7;*      HHHHH   X  oahklzxxxxxxxxxxxxxxxxxxxxxxxxxxxxxxxxxxxxxxxxxxxxxxzf# 5X   HHHHHHHHHHHHHHHHHHHHHHHHHHHHHHH",
"HHHH    -9eecq7-*XX      HHHHHH      :hhlzzxxxxxxxxxxxxxxxxxxxxxxxxxxxxxxxxxxxxxxxxxxxxxxkt -8    HHHHHHHHHHHHHHHHHHHHHHHHHHHHHH",
"HHH                      HHHHHH   X  .rhklzxxxxxxxxxxxxxxxxxxxxxxxxxxxxxxxxxxxxxxxxxxxxxxxh>6w    HHHHHHHHHHHHHHHHHHHHHHHHHHHHHH",
"HHHH                     HHHHHHH   *  o3rttyyuuuuuuuuuuuuuuuuuuuuuuuuuuuuuuuuuuuuuuuuuyuyyui0w     HHHHHHHHHHHHHHHHHHHHHHHHHHHHH",
"HHHHHHH                 HHHHHHHHH                                                        6w96X      HHHHHHHHHHHHHHHHHHHHHHHHHHHH",
"HHHHHHHHH               HHHHHHHHH         *;;5555555555555555555555;55555;55555;55;55679wq=         HHHHHHHHHHHHHHHHHHHHHHHHHHHH",
"HHHHHHHHHHHH            HHHHHHHHHH                                                                  HHHHHHHHHHHHHHHHHHHHHHHHHHHH",
"HHHHHHHHHHHHHH          HHHHHHHHHHH                                                                HHHHHHHHHHHHHHHHHHHHHHHHHHHHH",
"HHHHHHHHHHHHHHH         HHHHHHHHHHH                                                               HHHHHHHHHHHHHHHHHHHHHHHHHHHHHH",
"HHHHHHHHHHHHHHHH       HHHHHHHHHHHHHHHHHHHHHHHHHHHHHHHHHHHHHHHHHHHHHHHHHHHHHHHHHHHHHHHHHHHHHHHHHHHHHHHHHHHHHHHHHHHHHHHHHHHHHHHHH",
"HHHHHHHHHHHHHHHHH      HHHHHHHHHHHHHHHHHHHHHHHHHHHHHHHHHHHHHHHHHHHHHHHHHHHHHHHHHHHHHHHHHHHHHHHHHHHHHHHHHHHHHHHHHHHHHHHHHHHHHHHHH",
"HHHHHHHHHHHHHHHHHH     HHHHHHHHHHHHHHHHHHHHHHHHHHHHHHHHHHHHHHHHHHHHHHHHHHHHHHHHHHHHHHHHHHHHHHHHHHHHHHHHHHHHHHHHHHHHHHHHHHHHHHHHH",
"HHHHHHHHHHHHHHHHHH     HHHHHHHHHHHHHHHHHHHHHHHHHHHHHHHHHHHHHHHHHHHHHHHHHHHHHHHHHHHHHHHHHHHHHHHHHHHHHHHHHHHHHHHHHHHHHHHHHHHHHHHHH",
"HHHHHHHHHHHHHHHHHHH    HHHHHHHHHHHHHHHHHHHHHHHHHHHHHHHHHHHHHHHHHHHHHHHHHHHHHHHHHHHHHHHHHHHHHHHHHHHHHHHHHHHHHHHHHHHHHHHHHHHHHHHHH",
"HHHHHHHHHHHHHHHHHHHH  HHHHHHHHHHHHHHHHHHHHHHHHHHHHHHHHHHHHHHHHHHHHHHHHHHHHHHHHHHHHHHHHHHHHHHHHHHHHHHHHHHHHHHHHHHHHHHHHHHHHHHHHHH",
"HHHHHHHHHHHHHHHHHHHHH HHHHHHHHHHHHHHHHHHHHHHHHHHHHHHHHHHHHHHHHHHHHHHHHHHHHHHHHHHHHHHHHHHHHHHHHHHHHHHHHHHHHHHHHHHHHHHHHHHHHHHHHHH",
"HHHHHHHHHHHHHHHHHHHHHHHHHHHHHHHHHHHHHHHHHHHHHHHHHHHHHHHHHHHHHHHHHHHHHHHHHHHHHHHHHHHHHHHHHHHHHHHHHHHHHHHHHHHHHHHHHHHHHHHHHHHHHHHH",
"HHHHHHHHHHHHHHHHHHHHHHHHHHHHHHHHHHHHHHHHHHHHHHHHHHHHHHHHHHHHHHHHHHHHHHHHHHHHHHHHHHHHHHHHHHHHHHHHHHHHHHHHHHHHHHHHHHHHHHHHHHHHHHHH",
"HHHHHHHHHHHHHHHHHHHHHHHHHHHHHHHHHHHHHHHHHHHHHHHHHHHHHHHHHHHHHHHHHHHHHHHHHHHHHHHHHHHHHHHHHHHHHHHHHHHHHHHHHHHHHHHHHHHHHHHHHHHHHHHH",
"HHHHHHHHHHHHHHHHHHHHHHHHHHHHHHHHHHHHHHHHHHHHHHHHHHHHHHHHHHHHHHHHHHHHHHHHHHHHHHHHHHHHHHHHHHHHHHHHHHHHHHHHHHHHHHHHHHHHHHHHHHHHHHHH",
"HHHHHHHHHHHHHHHHHHHHHHHHHHHHHHHHHHHHHHHHHHHHHHHHHHHHHHHHHHHHHHHHHHHHHHHHHHHHHHHHHHHHHHHHHHHHHHHHHHHHHHHHHHHHHHHHHHHHHHHHHHHHHHHH"
};
