/* XPM */
static char *open[] = {
/* columns rows colors chars-per-pixel */
"128 128 77 1 ",
"  c #000000",
". c #0B0C05",
"X c #0B0B0B",
"o c #101107",
"O c #141509",
"+ c #17180B",
"@ c #1A1B0C",
"# c #121212",
"$ c #1C1D10",
"% c #1E1E1E",
"& c #1E200E",
"* c #20210F",
"= c #242611",
"- c #2B2C14",
"; c #2F3015",
": c #313317",
"> c #333518",
", c #363819",
"< c #3A3C1B",
"1 c #242424",
"2 c #2A2A2A",
"3 c #343434",
"4 c #3B3B3B",
"5 c #3F411D",
"6 c #40431D",
"7 c #474A21",
"8 c #4B4D22",
"9 c #4E5124",
"0 c #525525",
"q c #565927",
"w c #5B5E2A",
"e c #494A3D",
"r c #5F622C",
"t c #62652D",
"y c #66692F",
"u c #686C2F",
"i c #6A6E31",
"p c #686B3F",
"a c #6E7232",
"s c #717534",
"d c #757A36",
"f c #787D37",
"g c #7B7F38",
"h c #404040",
"j c #4C4C4C",
"k c #535353",
"l c #5C5C5C",
"z c #646464",
"x c #6A6A6A",
"c c #7C7D67",
"v c #737373",
"b c #7C7C7C",
"n c #7D8139",
"m c #81863B",
"M c #858A3E",
"N c #898E3F",
"B c #8B8F40",
"V c #8E9341",
"C c #8E914C",
"Z c #919642",
"A c #969B45",
"S c #999F46",
"D c #9BA147",
"F c #9FA549",
"G c #A1A64A",
"H c #A4AA4B",
"J c #A8AE4D",
"K c #ACB34F",
"L c #AEB450",
"P c #B1B751",
"I c #B5BC53",
"U c #B9BF55",
"Y c #B5BB5B",
"T c #BDC456",
"R c #C0C758",
"E c #C6CD5B",
"W c None",
/* pixels */
"WWWWWWWWWWWWWWWWWWWWWWWWWWWWWWWWWWWWWWWWWWWWWWWWWWWWWWWWWWWWWWWWWWWWWWWWWWWWWWWWWWWWWWWWWWWWWWWWWWWWWWWWWWWWWWWWWWWWWWWWWWWWWWWW",
"WWWWWWWWWWWWWWWWWWWWWWWWWWWWWWWWWWWWWWWWWWWWWWWWWWWWWWWWWWWWWWWWWWWWWWWWWWWWWWWWWWWWWWWWWWWWWWWWWWWWWWWWWWWWWWWWWWWWWWWWWWWWWWWW",
"WWWWWWWWWWWWWWWWWWWWWWWWWWWWWWWWWWWWWWWWWWWWWWWWWWWWWWWWWWWWWWWWWWWWWWWWWWWWWWWWWWWWWWWWWWWWWWWWWWWWWWWWWWWWWWWWWWWWWWWWWWWWWWWW",
"WWWWWWWWWWWWWWWWWWWWWWWWWWWWWWWWWWWWWWWWWWWWWWWWWWWWWWWWWWWWWWWWWWWWWWWWWWWWWWWWWWWWWWWWWWWWWWWWWWWWWWWWWWWWWWWWWWWWWWWWWWWWWWWW",
"WWWWWWWWWWWWWWWWWWWWWWWWWWWWWWWWWWWWWWWWWWWWWWWWWWWWWWWWWWWWWWWWWWWWWWWWWWWWWWWWWWWWWWWWWWWWWWWWWWWWWWWWWWWWWWWWWWWWWWWWWWWWWWWW",
"WWWWWWWWWWWWWWWWWWWWWWWWWWWWWWWWWWWWWWWWWWWWWWWWWWWWWWWWWWWWWWWWWWWWWWWWWWWWWWWWWWWWWWWWWWWWWWWWWWWWWWWWWWWWWWWWWWWWWWWWWWWWWWWW",
"WWWWWWWWWWWWWWWWWWWWWWWWWWWWWWWWWWWWWWWWWWWWWWWWWWWWWWWWWWWWWWWWWWWWWWWWWWWWWWWWWWWWWWWWWWWWWWWWWWWWWWWWWWWWWWWWWWWWWWWWWWWWWWWW",
"WWWWWWWWWWWWWWWWWWWWWWWWWWWWWWWWWWWWWWWWWWWWWWWWWWWWWWWWWWWWWWWWWWWWWWWWWWWWWWWWWWWWWWWWWWWWWWWWWWWWWWWWWWWWWWWWWWWWWWWWWWWWWWWW",
"WWWWWWWWWWWWWWWWWWWWWWWWWWWWWWWWWWWWWWWWWWWWWWWWWWWWWWWWWWWWWWWWWWWWWWWWWWWWWWWWWWWWWWWWWWWWWWWWWWWWWWWWWWWWWWWWWWWWWWWWWWWWWWWW",
"WWWWWWWWWWWWWWWWWWWWWWWWWWWWWWWWWWWWWWWWWWWWWWWWWWWWWWWWWWWWWWWWWWWWWWWWWWWWWWWWWWWWWWWWWWWWWWWWWWWWWWWWWWWWWWWWWWWWWWWWWWWWWWWW",
"WWWWWWWWWWWWWWWWWWWWWWWWWWWWWWWWWWWWWWWWWWWWWWWWWWWWWWWWWWWWWWWWWWWWWWWWWWWWWWWWWWWWWWWWWWWWWWWWWWWWWWWWWWWWWWWWWWWWWWWWWWWWWWWW",
"WWWWWWWWWWWWWWWWWWWWWWWWWWWWWWWWWWWWWWWWWWWWWWWWWWWWWWWWWWWWWWWWWWWWWWWWWWWWWWWWWWWWWWWWWWWWWWWWWWWWWWWWWWWWWWWWWWWWWWWWWWWWWWWW",
"WWWWWWWWWWWWWWWWWWWWWWWWWWWWWWWWWWWWWWWWWWWWWWWWWWWWWWWWWWWWWWWWWWWWWWWWWWWWWWWWWWWWWWWWWWWWWWWWWWWWWWWWWWWWWWWWWWWWWWWWWWWWWWWW",
"WWWWWWWWWWWWWWWWWWWWWWWWWWWWWWWWWWWWWWWWWWWWWWWWWWWWWWWWWWWWWWWWWWWWWWWWWWWWWWWWWWWWWWWWWWWWWWWWWWWWWWWWWWWWWWWWWWWWWWWWWWWWWWWW",
"WWWWWWWWWWWWWWWWWWWWWWWWWWWWWWWWWWWWWWWWWWWWWWWWWWWWWWWWWWWWWWWWWWWWWWWWWWWWWWWWWWWWWWWWWWWWWWWWWWWWWWWWWWWWWWWWWWWWWWWWWWWWWWWW",
"WWWWWWWWWWWWWWWWWWWWWWWWWWWWWWWWWWWWWWWWWWWWWWWWWWWWWWWWWWWWWWWWWWWWWWWWWWWWWWWWWWWWWWWWWWWWWWWWWWWWWWWWWWWWWWWWWWWWWWWWWWWWWWWW",
"WWWWWWWWWWWWWWWWWWWWWWWWWWWWWWWWWWWWWWWWWWWWWWWWWWWWWWWWWWWWWWWWWWWWWWWWWWWWWWWWWWWWWWWWWWWWWWWWWWWWWWWWWWWWWWWWWWWWWWWWWWWWWWWW",
"WWWWWWWWWWWWWWWWWW                                           WWWWWWWWWWWWWWWWWWWWWWWWWWWWWWWWWWWWWWWWWWWWWWWWWWWWWWWWWWWWWWWWWWW",
"WWWWWWWWWWWWWWWWWW      X%11111111111111112111111111122%     WWWWWWWWWWWWWWWWWWWWWWWWWWWWWWWWWWWWWWWWWWWWWWWWWWWWWWWWWWWWWWWWWWW",
"WWWWWWWWWWWWWWWWW  4v3                                 %jj    WWWWWWWWWWWWWWWWWWWWWWWWWWWWWWWWWWWWWWWWWWWWWWWWWWWWWWWWWWWWWWWWWW",
"WWWWWWWWWWWWWWWWW 1b                                           WWWWWWWWWWWWWWWWWWWWWWWWWWWWWWWWWWWWWWWWWWWWWWWWWWWWWWWWWWWWWWWWW",
"WWWWWWWWWWWWWWWW  v  .=**&*==&@=********@=@=*=**=&@=****&.     WWWWWWWWWWWWWWWWWWWWWWWWWWWWWWWWWWWWWWWWWWWWWWWWWWWWWWWWWWWWWWWWW",
"WWWWWWWWWWWWWWWW j   NJFDDDDDDDDDDDDDDDDDDDDDDDDDDDDDDDDDV.     WWWWWWWWWWWWWWWWWWWWWWWWWWWWWWWWWWWWWWWWWWWWWWWWWWWWWWWWWWWWWWWW",
"WWWWWWWWWWWWWWW  x  ,JFSASASDSSDSSDSSSSSDDSSSSSSDSSDSDSSDSt      WWWWWWWWWWWWWWWWWWWWWWWWWWWWWWWWWWWWWWWWWWWWWWWWWWWWWWWWWWWWWWW",
"WWWWWWWWWWWWWWW z   BHDAASSDDDGDDFDDGDDGDGDGDGGDDGGDGDGDGGS-     WWWWWWWWWWWWWWWWWWWWWWWWWWWWWWWWWWWWWWWWWWWWWWWWWWWWWWWWWWWWWWW",
"WWWWWWWWWWWWWW #v  >HDSASDGGHJHJJHJHHJJHHJHHJHHJHHHHHHHJHHHZ.     WWWWWWWWWWWWWWWWWWWWWWWWWWWWWWWWWWWWWWWWWWWWWWWWWWWWWWWWWWWWWW",
"WWWWWWWWWWWWWW b   MGDSSDHKKPPPPPPPPPPPPPPPPPPPPPPPPPPPPPPPPt  1   WWWWWWWWWWWWWWWWWWWWWWWWWWWWWWWWWWWWWWWWWWWWWWWWWWWWWWWWWWWWW",
"WWWWWWWWWWWWW lh  >JDSSc2 7IG         HUU,=====7TUVamUULCUUII-  3   WWWWWWWWWWWWWWWWWWWWWWWWWWWWWWWWWWWWWWWWWWWWWWWWWWWWWWWWWWWW",
"WWWWWW       zl   MGDSDcbxpTYlkjj     HTTe14   -TT9 -RTZ+TTRTD   %                                WWWWWWWWWWWWWWWWWWWWWWWWWWWWWW",
"WWWWWW    #kb#   :HDSSF-h18TP%%2j     GUU$Xl%  -UT8 ;RRA+RRRTTt       134hhhhhhhhhhhhhhh4jjj4      WWWWWWWWWWWWWWWWWWWWWWWWWWWWW",
"WWWWWW  zlX      nFSSDG-  8TG         SPI+     -PI8 -TTZ+RRRRTU*                            4vl    WWWWWWWWWWWWWWWWWWWWWWWWWWWWW",
"WWWWW  4b       0FSSDDJ-  8IF         AHJ+     =JL8 -UUV+TRTTTUA                              X    WWWWWWWWWWWWWWWWWWWWWWWWWWWWW",
"WWWWW  1  &*****uSASDGKIUIIPPKKLKJHGGDDGHVVZBNNNGHa7rPIDqITTTTTUuq66<<<5566666<76666666656655<     WWWWWWWWWWWWWWWWWWWWWWWWWWWWW",
"WWWWW     AGDDSSAAADGJKTTTULKKKKKJGDDSDGHJKPPJHGFGHKLPPPIIITTTTTUPKGFSSASSSDDDDDDDDDDDDDDDDDDN     WWWWWWWWWWWWWWWWWWWWWWWWWWWWW",
"WWWWW  #  VDAAAAASDFJKUTTTTKLKLLKJJGGDDGHKPPPKJGFGHKPPPIIIITTRRRTUPJGDSSSSSDDDDDSDSDDDDDDDDDDN     WWWWWWWWWWWWWWWWWWWWWWWWWWWWW",
"WWWWW  X  VAAAASDFGGKPTTTTTIIPPPPKJJHHHJKPIIIPJJHJKLPIIIIIITRRRRRTIPJJGFGDFGDFDFDFFGDFDFFFFFDV     WWWWWWWWWWWWWWWWWWWWWWWWWWWWW",
"WWWWW  X  BAZASDGJKKPTREERRTTUUUTIPPPPLPPUTTUIIPPPPUUTUUITTTTRRERRTIPLKJJJJJJJJJJJJJJJJJJJJJJZ     WWWWWWWWWWWWWWWWWWWWWWWWWWWWW",
"WWWWW  %  BSSSGJKKPTTREEEERTTTIssassaaaasasssssaaassasssssdsdfddfddsaaaiiiiiiiiiiiiiiiiiuiiiir         WWWWWWWWWWWWWWWWWWWWWWWWW",
"WWWWW  %  NSSDJKPTTTRREEEERERTw                                                                                        WWWWWWWWW",
"WWWWW  1  NSDGJITRRREEEEEEEEEV      #24ehhhhhhhhhhhhhhhhhehhhhhhhhhhhhhhhhhhhhhhhehhhhhhhehhhhhhhhhhhhhhhhhhhhhhh3     WWWWWWWWW",
"WWWWW  %  BSDGKITREEEEEEEEEEE0 Xbj                                                                                      WWWWWWWW",
"WWWWW  %  BSDHKUTEEEEEEEEEEEE* z4                                                                                      WWWWWWWWW",
"WWWWW  %  BSDGKUREEEEEEEEEEEP  h  >,>>>>>>>>>:>>>:>>>>>>>>>>,>>>>>>:>:>>:>>>>>>>>>>>>:>>>>>>>>:::;-----;::>>>>>>>- %   WWWWWWWWW",
"WWWWW  %  BSDHKIREEEEEEEEEEEd 3  *Mmnnggngnnnnnnnnnnnnnnnnnnnnnnnnnnnnnnnnnnnnnnnnnnnnnnnnnnnnnffsaaiaasdfgnnnnnn8 z   WWWWWWWWW",
"WWWWW  %  NSDGKTREEEEEEEEEEE6 k  6Mnfffggnggnnngggnnnnnnnnnnnnnnnnggnnngnnnnnnngnnggnnnggngnnnnffdssassdggngngggn= k   WWWWWWWWW",
"WWWWW  1  NDDHKIEEEEEEEEEEEEo 3  yngffgnnnnnnnnnnnnnnnnnnnnnnnnnnnnnnnnnnnnnnnnnnnnnnnnnmnnnnnnnngggfgggnnnnnnnnn..1  WWWWWWWWWW",
"WWWWW  1  NDDGKIEEEEEEEEEEEH j  .mnffgnnMMBMBMNMBMMBBMNMMNNNMMMMBBBMBMNMBnBBBBBmBBBMBMNMNMMNNMNMMMmmmmMMMMMNBBMBy 4   WWWWWWWWWW",
"WWWWW  *  NDDGKTEEEEEEEEEEEi z  -nggnnNBVVVVVVZVVVVVVVVVVVVVZVVVVVVVVVZVVVBVVVVVVVVVVVZVVVVVVVVVVVVVVVVVVVVVVVVV8 l   WWWWWWWWWW",
"WWWWW  %  BSDGKTTREEEEEEEEE: k  9nggnMVVZDZDAADZDZDZDZDZDADZDZDZZAAAAAAAAAAAAAAAAAAAAAAAAAAAAAAAAAAAAAAAAAAAAAAA= k   WWWWWWWWWW",
"WWWWW  1  BSDGKITEEEEEEEEET 1#  dngnnBVZDDDDDDDDDDDDDDDDDDDDDDDDDDDDDSDDDDDSDDDDDDDDDDDDDDDDSDDDDDDDDDDSDDDSDDDV 1#  WWWWWWWWWWW",
"WWWWW  %  NSDGKITEEEEEEEEEM l  OmnnnnVZDDFFFDFDFFFFDFFFFFFFFFDFFFDFFFFFFFFFFDFFFFFFFFFFFFFFFFFFFGFFDFFFFFFFFFFFi l   WWWWWWWWWWW",
"WWWWW  %  VSFGKTTEEEEEEEEE0 x  ,nngnNVADFFFFFFFFFFFFFFFFFFFFFFFFFFFFFFFFFFFFGFFFFFFFFFFFFFFFFFFFFFFFFFFGFFFFFFF6 z   WWWWWWWWWWW",
"WWWWW  %  VDDGKIEEEEEEEEEE@ h  rnnnnNZADFFFFFFFFFFFFFFFFFFFFFFFFFFFFFGFFFFFFFFFFFFFFFFFFFFFFFFFFFFFFFFFFFFFFGFFO h  WWWWWWWWWWWW",
"WWWWW  %  NSDGKIEEEEEEEEEJ 4   nnnnMBZDDFFFFFFFFFFFFFFFFFFFFFFFFFFFFFFFFFFFFFFFFFFFFFFGFFFFFFFFFFFFFFFFFFFFFFFN 4   WWWWWWWWWWWW",
"WWWWW  1  NDDHKTEEEEEEEEEd z  &mnnnMVADDFFFFFFFFFFFFFFFFFFFFFFFFFFFFFFFFFFFFFFFFFFFFFFFFFFFFFFFFFFFFFFFFFFFFFFt z   WWWWWWWWWWWW",
"WWWWW  %  NDDHKIEEEEEEEEE< z  8nfnnMVADDFFFFFFFFFFFFFFFFFFFFFFFFFFFFFFFFFFFFFFGFFFFFFFFFFFFFFFFFFFFFFFFFFFFFFF; z   WWWWWWWWWWWW",
"WWWWW  1  BSDGKIEEEEEEEEE.O2  infnnNZDDFFFFFFFFFFFFFFFFFFFFFFHFFFHFFFFFFFFFFFFFFFFFFFFFFFGFFFFFFFFFFFFFFFFFFFD #2  WWWWWWWWWWWWW",
"WWWWW  %  BSFGKTTEEEEEEEF j  .nnnnMNZDDFFFFFFFFFFFFFFFFFFFFFFFFFFFFFFFFFFFFFFFFFFGFFFFFFFFFFFFFFFFFFFFFFFFFFGg j   WWWWWWWWWWWWW",
"WWWWW  %  BSDGKIREEEEEEEr x  :ngnnMVZDDFFFFFFFFFFFFFFFFFFFFFFFFFFFFFFFFFFFFFFFFFFFFFFFFFFFFFFFFFFFFFFFFFFFFGF9 x   WWWWWWWWWWWWW",
"WWWWW  %  BSDGKTTEEEEEEE= k  0mnnnNVDDFFFFFFFFFFFFFFFFFFFFFFFFFFFFFFFFFFFFFGFFFFFFFFFFFFFFFFFFFFFFFGFFFFFFFFF@ k  WWWWWWWWWWWWWW",
"WWWWW  %  BSDHKIREEEEEET 2   fngnnNADDFFFFFFFFFFFFFFFFFFFFFFFFFFFFFFFFFFFFFFFFFFFFFFFFFFFFFFFFFFFFFFFFFFFFFFA 2X  WWWWWWWWWWWWWW",
"WWWWW  1  BSDGKITEEEEEEM l  @mngnMNZDDFFFFFFFFFFFFFFFFFFFFFFFFFFFFFFGFFFFFFFFFFFFFFFFGFFFFFFGFFFFFFFFFFFFFFFy l   WWWWWWWWWWWWWW",
"WWWWW  %  BSDHKITEEEEEE9 x  <nngnNZADFFFFFFFFFFFFFFFFFFFFFFFFFFFFFFFFFFFFFFFFFFFFFFFFFFFFFFFFFFFFFFFFFFFFFFF< z   WWWWWWWWWWWWWW",
"WWWWW  %  BSDGKTTEEEEEE& 4  rnngnNVDDDFFFFFFFFFFFFFFFFFFFFFFFFFFFFFFFFFFFFFFFFFGFFFFFFFFFFFFFFFFFFFFFFFGFFFFO 4  WWWWWWWWWWWWWWW",
"WWWWW  %  NDDFKIREEEEEJ h   nnnnmBCDFFFFFFFFFFFFFFFFFFFFFFFFFFFFFFFFFFFFFFFFFFFFFFFFFFFFFFFFFFFFFFFFFFFFFFFM h   WWWWWWWWWWWWWWW",
"WWWWW  %  NDDFKTREEEEEi x  =nnnnMVADFFFFFFFFFFFFFFFFFFFFFFFFFFFFFFFFFFFFFFFFFFFFFFFFFFFFFFFFFFFFFFFFFFGFFFFq z   WWWWWWWWWWWWWWW",
"WWWWW  %  NDDHKIREEEEE< l  7nnnnMVADFFFFFFFFFFFFFFFFFFFFFHFFFFFFFFFFFFFFFFFFFFFFFFFFFFFFFFFFFFFFFFFFFFFFGFG: l   WWWWWWWWWWWWWWW",
"WWWWW  %  NDDHJTREEEER $1  annnnBZADFFFFFFFFFFFFFFFFFFFFFFFFFFFFFFFFFFFFFFFFFFFFFFFFFFFFFHFFFFFFFGFFFFFFFFD %%  WWWWWWWWWWWWWWWW",
"WWWWW  1  VSDGKITREEEN k  .MnfnMVZDDFFFFFFFFFFFFFFFFFFFFFFFFFFFFFFFFFFHFFFFFFFFFFFFFFFFFFFFFFFFFFGFFFFFFFFa k   WWWWWWWWWWWWWWWW",
"WWWWW  1  NSDHLTREEEEr x  :nnfnMVADFFFFFFFFFFFFFFHFFFFFFFFFFFFFFFFFFFFFFFFFFFFFFFFFFFFHFFFFFFFFFFFFFFFFFFF8 x   WWWWWWWWWWWWWWWW",
"WWWWW  *  BSDGKIREEEE= j  qnnnMNVADDFFHFFFFFFFFFFFFFFFFFFFFFFFFFFFFFFFFFFFFHFFFFFFFFFFFFFFFFFFFFFFFFFFGFFF@ j  WWWWWWWWWWWWWWWWW",
"WWWWW  %  BSDGKIREEEP 3   gnnnnNZDDFFFFFFFFFFFFFFFFFFFFFFFFFFFFFFFFFFFFFFFFFFFFFFFFFFFFFFFFFFFFFFFFFFFFFFV 3   WWWWWWWWWWWWWWWWW",
"WWWWW  %  BSDGKTREEEm z  @mnnnMNADDFFFFFFFFFFFFFFFFFFFFFFFFFFFFFFFFFFFFFFFFFFFFFFFFFFFFFFFFFFFFFFFFFFFFFFy z   WWWWWWWWWWWWWWWWW",
"WWWWW  1  BSDGKITEEE7 z  5nnnnNVADFFFFFFFFFFFFHFFFFFFFFFFFFFFFFFFFFFFFFFFFFFFFFFFFFFFFFFFFFFFFFFFFFFFFFFF< z   WWWWWWWWWWWWWWWWW",
"WWWWW  %  NSDGKIRREE. 3  ynnnmNZADFFFFFFFFFFFFFFFFFFFFFFFHFFFFFFFFFFFFFFFFFFFFFFFFFFFFFFFFFFFFFFFFFFFFFFDX 4  WWWWWWWWWWWWWWWWWW",
"WWWWW  %  VSFGKTTEEH j   nnfnnNZDDFFFFFFFFFFFFFFFFFFFFFFFFFFFFFFFFFFFFFFFFFFFFFFFFFFFFFFFFFFFFFFFFGFFFFFn j   WWWWWWWWWWWWWWWWWW",
"WWWWW  %  VSFGKITEEi z  -nnnnMVZDFFFFFFFFFFFFFFFFFFFFFFFFFFFFFFFFFFFFFFFFHFFFFFFFFFFFFFFFFFFFFFFFFFFFFFFq x   WWWWWWWWWWWWWWWWWW",
"WWWWW  %  NDDGKIREE: l  9nnnnNVADFFFFFFFFFFFFFFFFFHFFFFFFFFFFFFFFFFFFFFFFFFFFFFFFFFFFFFFFFFFFFFFFFFGFFFF= l   WWWWWWWWWWWWWWWWWW",
"WWWWW  1  NDDGKTTER %%  annnMNZDDFFFFFFFFFFFFFFFFFFFFFFFFFFFFFFFHFFFFFFFFFFFFFFFFFFFFFFFFFFFFFFFFFFFFFFD %$  WWWWWWWWWWWWWWWWWWW",
"WWWWW  %  NDDGKITEN k  onnfnMNZDDFFFFFFFFFFFFFFFFFFFFFFFFFFFFFFFFFFFFFFFFFFFFFFFFFFFFFHFFFFFFFFFFFFFFFFs l   WWWWWWWWWWWWWWWWWWW",
"WWWWW  1  BSDHKUTE0 x  ,mngnMVADFFFFFFFFFFFFFFFFFFFFFFFFFFFFFFHFFFFFFFFFFFFFFFFFFFFFFFFFFFFFFFFFFFFGFFF6 z   WWWWWWWWWWWWWWWWWWW",
"WWWWW  %  BSDGKITE& j  qnnnmNVADFFFFFFFFFFFFFFFFFFFFFFFFFFFFFFFFFFFFFFFFFFFFFFFFFFFHFFFFFFFFFFFHFFFFFFF@ j  WWWWWWWWWWWWWWWWWWWW",
"WWWWW  %  BSDGKTTL 3   gngnmVVDDFFFFFFFFFFFFFFFFFHFFFFFFFFFFFFFFFFFFFFFFFFHFFFFFFFFFFFFFFFFFFFFFFFFFFFN 3   WWWWWWWWWWWWWWWWWWWW",
"WWWWW  %  BSDGKITd l  *mngnMVZDDFFFFFFFFFFFFFFFFFFFFFFFFFFFFFFFFFFFFFFFFFFFFFFFFFFFFFFFFFFFFFFFFFFFFFFr z   WWWWWWWWWWWWWWWWWWWW",
"WWWWW  %  NDFGKTT6 z  6nggmMVADFFFFFFFFFFFFFFFFFFFFFFFFFFHFFFFFFFFFFFFFFFFFFFFFFFFHFFFFFFFFFFFFFFFFFFF> z   WWWWWWWWWWWWWWWWWWWW",
"WWWWW  1  NDDGKIToX3  yngnnNZSDFFFFFFFFFFFFFFFFFFFFFFFFFFFFFFFFFFFFFFFFFFFFFFFFFFFFFFFFFFFFFFFFFFFFFGD.X2  WWWWWWWWWWWWWWWWWWWWW",
"WWWWW  %  NDDFKIZ j  .mngnMNZSDFFFFFFFFFFFFFFFFFFFFFFFFFFFFFFFFFFFFFFFFFFFFFFFFFFFFFFFFFFFFFFFFFFFFFFg j   WWWWWWWWWWWWWWWWWWWWW",
"WWWWW  %  NDDFKTr z  -nngnMVADDGFFFFFFFFFFFFFFFFFFFFFFFFFFFFFFFFFFFFFFFFFFFFFFFFFFFFFFFFFFFFFFFFFFFFF9 x   WWWWWWWWWWWWWWWWWWWWW",
"WWWWW  %  BSDGKT; l  9nnnnMVADFFFFFFFFFFFFFFFFFFFFFFFFFFFFFFFFFFFHFFFFFFFFFFFFFFFFFFFFFFFFFFFFFFFFFFF= k   WWWWWWWWWWWWWWWWWWWWW",
"WWWWW  %  BSDGKK 1o  fngnnVCADFFHFFFFFFFFFFFFFFFFFFFFFHFFFFFFFFFFFFFFFFFFFFFFFFFFFFFFFFFFFFFFFFFFFFFA 1#  WWWWWWWWWWWWWWWWWWWWWW",
"WWWWW  %  VSDGKf l  OMngnnBADFFFFFFFFFFFFFFFFFFFFFFFFFFFFFFFFFFFFFFFFFFFFFFHFHFFFFFFFFFHFFFFFHFFGFFFa l   WWWWWWWWWWWWWWWWWWWWWW",
"WWWWW  %  NSFGK8 x  ,nnfnVVASFFFFFFFFFFFFFFFFFFFFFFFFFFFFFFFFFFFFFFFFFFFFFFFFFFFFFFFFFFFFFFFFFFFFFFF5 x   WWWWWWWWWWWWWWWWWWWWWW",
"WWWWW  %  NDDGK+ h  rnnnnVVSDFFFFFFFFFFFFFFFFFFFFFFFFFFFFFFFFFFFFFFFFFFFFFFFFFFFFFFFFFFFFFFFFFFFFFFFO h  WWWWWWWWWWWWWWWWWWWWWWW",
"WWWWW  1  NDDGZ 4   nnnnnZZSFFFFFFFFFFFFFFFFFFFFFFFFFFFFFFFFFFFFFFFFFFFFFFFFFFFFFFFFFFFFFFFFFFFFFFFM 4   WWWWWWWWWWWWWWWWWWWWWWW",
"WWWWW  1  NDFGy z  &nnnnnVASFFFFFFFFFFFFFFFFFFFFFFFFFFFFFFFFFFFFFFFFFFFFFFFFFFFFFFFFFFFFFFFFFFFFFFFr z   WWWWWWWWWWWWWWWWWWWWWWW",
"WWWWW  *  NDDG> z  7nnnnMVADFFFFFFFFFFFFFFFFHFFFFFFFFFFFHFFFFFFFFFFFFFFFFFFFFFFFFFFFFFFFFFFFFFFFFFF; z   WWWWWWWWWWWWWWWWWWWWWWW",
"WWWWW  %  BSDF #2  innnmNZADFFFFFFFFFFFFFFFGFFFFFFFFFFFFFFFFFFFFFFFFFFFFFFFFFFFFFFFFFFFFFFFFFFFFFFD #2  WWWWWWWWWWWWWWWWWWWWWWWW",
"WWWWW  1  BSDn j  .mnfnmNZSFFFFFFFFFFFFFFFFFFFFFFFFFFFFFFFFFFFFFFFFFFFFFFFFFFFFFGFFFFFFFFFFFFFFFGFg k   WWWWWWWWWWWWWWWWWWWWWWWW",
"WWWWW  %  VSD8 x  ;mnnnMVADDFFFFFFFFFFFFFFFFFFFFFFFFFFFFFFFFFFFFFFFFFFFFFFFFFFFFFFFFFFFFGFFFFFFFFF8 x   WWWWWWWWWWWWWWWWWWWWWWWW",
"WWWWW  %  NSD& k  0nfnnNZADFFFFFGFFFFFFFFFFFFFFFFFFFFFFFFFFFFFFHFFFFFFFFFFFFFFFFFFFFFFFFFFFFFFFFFF& k  WWWWWWWWWWWWWWWWWWWWWWWWW",
"WWWWW  %  BSZ 2   dnfnMNZDDFFFFFFFFFFFGFFFFFFFFFFFFFFFFFFFFFFFFFFFFFFFFFFFFHFFFFFFFFFFGFFFFFFFFFGA 2   WWWWWWWWWWWWWWWWWWWWWWWWW",
"WWWWW  %  BSy z  @mngnMNZAFFFFFFFFFFFFFFFFFFFFFFFFFFFFFFFFFFFFFFFFFFFFFFFFFFFFFFFFFFFFFFFFFFFFFFGi l   WWWWWWWWWWWWWWWWWWWWWWWWW",
"WWWWW  1  NS, x  <mgnnMVADFFFFFFFFFFFFFFFFFFHFFFFFFFFFFFFFFFFFFFFFFFFFFFFFFFFFFFFFFFFFFFFFFFFFFFF< z   WWWWWWWWWWWWWWWWWWWWWWWWW",
"WWWWW  %  BSO 4  wnngmNZADFFFFFFFFFFFFFFFFFFFFFFFFFFFFFHFFFFFFFFFFFHFFFFFFFFFFFFFFFFFFFFFFFFFFFFDO 4  WWWWWWWWWWWWWWWWWWWWWWWWWW",
"WWWWW  %  Bn h   nnfnnVZDFFFFFFFFFFFFFFFFFFFFFFFFFFFFFFFFFFFFFFFFFFFFFFFFFFFHFFFFFFFFFFFFFFGFFFFM h   WWWWWWWWWWWWWWWWWWWWWWWWWW",
"WWWWW  1  B0 z  =nnfnMVADDFFFFFFFFFFFFFFFGFFFFFFFFFFFFFFFFFFFFFFFFFFFFFFFFFFFFFFFFFFFFFFFFFFFFFF0 x   WWWWWWWWWWWWWWWWWWWWWWWWWW",
"WWWWW  %  B- l  6nnnMNVADFFFFFFFFGFFFFFFFFFFFFFFFFFFFFFFFFFFFFFFFFFFFFFFFFFFFFFFFFFGFFFFFFFFFFFF: l   WWWWWWWWWWWWWWWWWWWWWWWWWW",
"WWWWW  %  B #1  annnnNZADFFFFFFFFFFFFFFFFFFFFFFFFFFFFFFFFFFFFHFFFFFFFFFFFFFFFFFFFFFFFFFFFFFFFFFD #1  WWWWWWWWWWWWWWWWWWWWWWWWWWW",
"WWWWW  1  t j  .nnfnnVZDFFFFFFFFFFFFFFFFFFFFFFFFFFFFFFFHFFFFFFFFFFFFFFFFFFFFFFFFFFFFFFFFFFFFFFFa l   WWWWWWWWWWWWWWWWWWWWWWWWWWW",
"WWWWW  3  6 2  -nfnnMVADFFFFFFFFFFFFFFGFFFFFFGFFFFFFFFFFFFFFFFFFFFFFFFFFFFFFFFFFFFFFFFFFFFFFFFF9 x   WWWWWWWWWWWWWWWWWWWWWWWWWWW",
"WWWWW  k  @    9ffnnNVADFFFFFFFFFFFFFFFFFFFFFFFFFFFFFFFFFFFFFFFFFFFFFFFFFFFFFFFFFFFFFFFFFFFFFFG@#k  WWWWWWWWWWWWWWWWWWWWWWWWWWWW",
"WWWWW  x       sffnMVZDDDFFFFFFFFFFFFFFFFFFFFFFFFFFFFFFFFFFFFFFFFFFFFFFFFFFFFFFFFFFFFFFHFFFFGFV v   WWWWWWWWWWWWWWWWWWWWWWWWWWWW",
"WWWWW  v      +fffnMVASDFFFFFFFFFFFFFFFFFFFFFFFFFFFFFFFFFFFFFFFFHFFFFFFFFFFFFFFFFFFFFFFFFFFFDFy b   WWWWWWWWWWWWWWWWWWWWWWWWWWWW",
"WWWWW  k3     *77780qwwrrrrrrrrrrrrrrrrrrrrrrrrrrrrrrrrrrrrrrrrrttrrrrrrrrrrrrrrrrrrrrrrrrrrrr*x%   WWWWWWWWWWWWWWWWWWWWWWWWWWWW",
"WWWWW   3                                                                                    3vz   WWWWWWWWWWWWWWWWWWWWWWWWWWWWW",
"WWWWW        X133334444hhhhhhhhhhhhhhhhhhhhhhhhhhhhhhhhhhhhhhhhhhhhhhhhhhhhhhhhhhhhhhhhh4jlvbzX    WWWWWWWWWWWWWWWWWWWWWWWWWWWWW",
"WWWWW                                                                                              WWWWWWWWWWWWWWWWWWWWWWWWWWWWW",
"WWWWWW                                                                                             WWWWWWWWWWWWWWWWWWWWWWWWWWWWW",
"WWWWWWW                                                                                            WWWWWWWWWWWWWWWWWWWWWWWWWWWWW",
"WWWWWWWWWWWWWWWWWWWWWWWWWWWWWWWWWWWWWWWWWWWWWWWWWWWWWWWWWWWWWWWWWWWWWWWWWWWWWWWWWWWWWWWWWWWWWWWWWWWWWWWWWWWWWWWWWWWWWWWWWWWWWWWW",
"WWWWWWWWWWWWWWWWWWWWWWWWWWWWWWWWWWWWWWWWWWWWWWWWWWWWWWWWWWWWWWWWWWWWWWWWWWWWWWWWWWWWWWWWWWWWWWWWWWWWWWWWWWWWWWWWWWWWWWWWWWWWWWWW",
"WWWWWWWWWWWWWWWWWWWWWWWWWWWWWWWWWWWWWWWWWWWWWWWWWWWWWWWWWWWWWWWWWWWWWWWWWWWWWWWWWWWWWWWWWWWWWWWWWWWWWWWWWWWWWWWWWWWWWWWWWWWWWWWW",
"WWWWWWWWWWWWWWWWWWWWWWWWWWWWWWWWWWWWWWWWWWWWWWWWWWWWWWWWWWWWWWWWWWWWWWWWWWWWWWWWWWWWWWWWWWWWWWWWWWWWWWWWWWWWWWWWWWWWWWWWWWWWWWWW",
"WWWWWWWWWWWWWWWWWWWWWWWWWWWWWWWWWWWWWWWWWWWWWWWWWWWWWWWWWWWWWWWWWWWWWWWWWWWWWWWWWWWWWWWWWWWWWWWWWWWWWWWWWWWWWWWWWWWWWWWWWWWWWWWW",
"WWWWWWWWWWWWWWWWWWWWWWWWWWWWWWWWWWWWWWWWWWWWWWWWWWWWWWWWWWWWWWWWWWWWWWWWWWWWWWWWWWWWWWWWWWWWWWWWWWWWWWWWWWWWWWWWWWWWWWWWWWWWWWWW",
"WWWWWWWWWWWWWWWWWWWWWWWWWWWWWWWWWWWWWWWWWWWWWWWWWWWWWWWWWWWWWWWWWWWWWWWWWWWWWWWWWWWWWWWWWWWWWWWWWWWWWWWWWWWWWWWWWWWWWWWWWWWWWWWW",
"WWWWWWWWWWWWWWWWWWWWWWWWWWWWWWWWWWWWWWWWWWWWWWWWWWWWWWWWWWWWWWWWWWWWWWWWWWWWWWWWWWWWWWWWWWWWWWWWWWWWWWWWWWWWWWWWWWWWWWWWWWWWWWWW",
"WWWWWWWWWWWWWWWWWWWWWWWWWWWWWWWWWWWWWWWWWWWWWWWWWWWWWWWWWWWWWWWWWWWWWWWWWWWWWWWWWWWWWWWWWWWWWWWWWWWWWWWWWWWWWWWWWWWWWWWWWWWWWWWW"
};
