/* XPM */
static char *qsnapsettings[] = {
/* columns rows colors chars-per-pixel */
"128 128 64 1 ",
"  c #000000",
". c #0B0000",
"X c #0A0A0A",
"o c #130000",
"O c #1B0000",
"+ c #131313",
"@ c #1C1C1C",
"# c #240000",
"$ c #2C0000",
"% c #330000",
"& c #3B0000",
"* c #242424",
"= c #2C2C2C",
"- c #353535",
"; c #3C3C3C",
": c #440000",
"> c #4C0000",
", c #530000",
"< c #5B0000",
"1 c #630000",
"2 c #6C0000",
"3 c #740000",
"4 c #7C0000",
"5 c #424242",
"6 c #4C4C4C",
"7 c #545454",
"8 c #5C5C5C",
"9 c #656565",
"0 c #6D6D6D",
"q c #717171",
"w c #7B7B7B",
"e c #800000",
"r c #850B0B",
"t c #8A1414",
"y c #8E1C1C",
"u c #912323",
"i c #962D2D",
"p c #9A3434",
"a c #9D3B3B",
"s c #A24444",
"d c #A54B4B",
"f c #A95353",
"g c #AE5C5C",
"h c #B16363",
"j c #B56B6B",
"k c #B97272",
"l c #BE7D7D",
"z c #838383",
"x c gray54",
"c c #929292",
"v c gray61",
"b c #A5A5A5",
"n c #ACACAC",
"m c #B5B5B5",
"M c #BABABA",
"N c #C3C3C3",
"B c #CACACA",
"V c #D4D4D4",
"C c #DBDBDB",
"Z c #E4E4E4",
"A c #ECECEC",
"S c #F4F4F4",
"D c #FEFEFE",
"F c None",
/* pixels */
"FFFFFFFFFFFFFFFFFFFFFFFFFFFFFFFFFFFFFFFFFFFFFFFFFFFFFFFFFFFFFFFFFFFFFFFFFFFFFFFFFFFFFFFFFFFFFFFFFFFFFFFFFFFFFFFFFFFFFFFFFFFFFFFF",
"FFFFFFFFFFFFFFFFFFFFFFFFFFFFFFFFFFFFFFFFFFFFFFFFFFFFFFFFFFFFFFFFFFFFFFFFFFFFFFFFFFFFFFFFFFFFFFFFFFFFFFFFFFFFFFFFFFFFFFFFFFFFFFFF",
"FFFFFFFFFFFFFFFFFFFFFFFFFFFFFFFFFFFFFFFFFFFFFFFFFFFFFFFFFFFFFFFFFFFFFFFFFFFFFFFFFFFFFFFFFFFFFFFFFFFFFFFFFFFFFFFFFFFFFFFFFFFFFFFF",
"FFFFFFFFFFFFFFFFFFFFFFFFFFFFFFFFFFFFFFFFFFFFFFFFFFFFFFFFFFFFFFFFFFFFFFFFFFFFFFFFFFFFFFFFFFFFFFFFFFFFFFFFFFFFFFFFFFFFFFFFFFFFFFFF",
"FFFFFFFFFFFFFFFFFFFFFFFFFFFFFFFFFFFFFFFFFFFFFFFFFFFFFFFFFFFFFFFFFFFFFFFFFFFFFFFFFFFFFFFFFFFFFFFFFFFFFFFFFFFFFFFFFFFFFFFFFFFFFFFF",
"FFFFFFFFFFFFFFFFFFFFFFFFFFFFFFFFFFFFFFFFFFFFFFFFFFFFFFFFFFFFFFFFFFFFFFFFFFFFFFFFFFFFFFFFFFFFFFFFFFFFFFFFFFFFFFFFFFFFFFFFFFFFFFFF",
"FFFFFFFFFFFFFFFFFFFFFFFFFFFFFFFFFFFFFFFFFFFFFFFFFFFFFFFFFFFFFFFFFFFFFFFFFFFFFFFFFFFFFFFFFFFFFFFFFFFFFFFFFFFFFFFFFFFFFFFFFFFFFFFF",
"FFFFFFFFFFFFFFFFFFFFFFFFFFFFFFFFFFFFFFFFFFFFFFFFFFFFFFFFFFFFFFFFFFFFFFFFFFFFFFFFFFFFFFFFFFFFFFFFFFFFFFFFFFFFFFFFFFFFFFFFFFFFFFFF",
"FFFFFFFFFFFFFFFFFFFFFFFFFFFFFFFFFFFFFFFFFFFFFFFFFFFFFFFFFFFFFFFFFFFFFFFFFFFFFFFFFFFFFFFFFFFFFFFFFFFFFFFFFFFFFFFFFFFFFFFFFFFFFFFF",
"FFFFFFFFFFFFFFFFFFFFFFFFFFFFFFFFFFFFFFFFFFFFFFFFFFFFFFFFFFFFFFFFFFFFFFFFFFFFFFFFFFFFFFFFFFFFFFFFFFFFFFFFFFFFFFFFFFFFFFFFFFFFFFFF",
"FFFFFFFFFFFFFFFFFFFFFFFFFFFFFFFFFFFFFFFFFFFFFFFFFFFFFFFFFFFFFFFFFFFFFFFFFFFFFFFFFFFFFFFFFFFFFFFFFFFFFFFFFFFFFFFFFFFFFFFFFFFFFFFF",
"FFFFFFFFFFFFFFFFFFFFFFFFFFFFFFFFFFFFFFFFFFFFFFFFFFFFFFFFFFFFFFFFFFFFFFFFFFFFFFFFFFFFFFFFFFFFFFFFFFFFFFFFFFFFFFFFFFFFFFFFFFFFFFFF",
"FFFFFFFFFFFFFFFFFFFFFFFFFFFFFFFFFFFFFFFFFFFFFFFFFFFFFFFFFFFFFFFFFFFFFFFFFFFFFFFFFFFFFFFFFFFFFFFFFFFFFFFFFFFFFFFFFFFFFFFFFFFFFFFF",
"FFFFFFFFFFFFFFFFFFFFFFFFFFFFFFFFFFFFFFFFFFF                FFFFFFFFFFFFFFFFFFFFFFFFFFFFFFFFFFFFFFFFFFFFFFFFFFFFFFFFFFFFFFFFFFFFF",
"FFFFFFFFFFFFFFFFFFFFFFFFFFFFFFFFFFFFFFF        .oOOOOo.         FFFFFFFFFFFFFFFFFFFFFFFFFFFFFFFFFFFFFFFFFFFFFFFFFFFFFFFFFFFFFFFF",
"FFFFFFFFFFFFFFFFFFFFFFFFFFFFFFFFFFFF     o$:<133333333332,:%O      FFFFFFFFFFFFFFFFFFFFFFFFFFFFFFFFFFFFFFFFFFFFFFFFFFFFFFFFFFFFF",
"FFFFFFFFFFFFFFFFFFFFFFFFFFFFFFFFF    .$:2334444444444434333332<%o    FFFFFFFFFFFFFFFFFFFFFFFFFFFFFFFFFFFFFFFFFFFFFFFFFFFFFFFFFFF",
"FFFFFFFFFFFFFFFFFFFFFFFFFFFFFFF    $<3434444444444444444444433333<%.   FFFFFFFFFFFFFFFFFFFFFFFFFFFFFFFFFFFFFFFFFFFFFFFFFFFFFFFFF",
"FFFFFFFFFFFFFFFFFFFFFFFFFFFFF   .:24444444rupasssaaapiut4e4444433322:o   FFFFFFFFFFFFFFFFFFFFFFFFFFFFFFFFFFFFFFFFFFFFFFFFFFFFFFF",
"FFFFFFFFFFFFFFFFFFFFFFFFFFF   o:344444yafghhgfsaappiiiiiiiuyr444433333:O   FFFFFFFFFFFFFFFFFFFFFFFFFFFFFFFFFFFFFFFFFFFFFFFFFFFFF",
"FFFFFFFFFFFFFFFFFFFFFFFFFF   :34444ydhjhgfaiytrr4eeeeeerrrtyyut444443322>.   FFFFFFFFFFFFFFFFFFFFFFFFFFFFFFFFFFFFFFFFFFFFFFFFFFF",
"FFFFFFFFFFFFFFFFFFFFFFFF   $2444eahkjhdpytrreee4eeeeeeeeeeeeertttr44443321%   FFFFFFFFFFFFFFFFFFFFFFFFFFFFFFFFFFFFFFFFFFFFFFFFFF",
"FFFFFFFFFFFFFFFFFFFFFFF   <eee4ajlkfautreeeeeeeeeeee4eeeeeeeee4rrrtre444332<o  FFFFFFFFFFFFFFFFFFFFFFFFFFFFFFFFFFFFFFFFFFFFFFFFF",
"FFFFFFFFFFFFFFFFFFFFFF  O2eeeijckfpyrreeeeeeeeeeeeeeeeeeeeeeeeeeeeerr44443321$   FFFFFFFFFFFFFFFFFFFFFFFFFFFFFFFFFFFFFFFFFFFFFFF",
"FFFFFFFFFFFFFFFFFFFFF  %344rgllgpyreeeeeeeeeeeeee4eeeeeeeeeeeeeeeeeerere444332:   FFFFFFFFFFFFFFFFFFFFFFFFFFFFFFFFFFFFFFFFFFFFFF",
"FFFFFFFFFFFFFFFFFFF   :344illjsurrr4eeeeeeeeeeeeeeeeeeeeeee4eeeeeeeeeeeeee43322,.  FFFFFFFFFFFFFFFFFFFFFFFFFFFFFFFFFFFFFFFFFFFFF",
"FFFFFFFFFFFFFFFFFF   ,444fllgptreeeeeeeeeeeeeeeeeeeeeeeeeeeeeeeeeeeeeeeeeee44322,.  FFFFFFFFFFFFFFFFFFFFFFFFFFFFFFFFFFFFFFFFFFFF",
"FFFFFFFFFFFFFFFFF   ,444hlkdureeeeeeeeeeeee4eeeeeeee4eeeeeeeeeeeeeeeeeeeeeee44332<o  FFFFFFFFFFFFFFFFFFFFFFFFFFFFFFFFFFFFFFFFFFF",
"FFFFFFFFFFFFFFFFF  ,44rjljayreeeeeeeeeeeeeeeee4ee444e4e4eeeeeeeeeeeeeeeeeeee444332<.  FFFFFFFFFFFFFFFFFFFFFFFFFFFFFFFFFFFFFFFFFF",
"FFFFFFFFFFFFFFFF  :44rjljatreeeeeeeeeeeee4eee44444444444444eeeeeeeeeeee4eeeeee44322,   FFFFFFFFFFFFFFFFFFFFFFFFFFFFFFFFFFFFFFFFF",
"FFFFFFFFFFFFFFF  &44ejlhptr4eeeeeeeeee4e444433333323333434444e4eeeeeeeeeeeeeeeee4322,  FFFFFFFFFFFFFFFFFFFFFFFFFFFFFFFFFFFFFFFFF",
"FFFFFFFFFFFFFF  #444jlhptreeeeeeeeeee4444333222221221222333344444eeeeeeeeeeeeee444321&  FFFFFFFFFFFFFFFFFFFFFFFFFFFFFFFFFFFFFFFF",
"FFFFFFFFFFFFF  .eeegljptreeeeeeeee4e44433221111<1<11<111112333444eeeee4eeeeee4eee43321#  FFFFFFFFFFFFFFFFFFFFFFFFFFFFFFFFFFFFFFF",
"FFFFFFFFFFFFF  <eeslkatreeeeeeeeee444322211<<<:&$##O#$&:<1112233444eeeeeeeeeeeeeee4432<.  FFFFFFFFFFFFFFFFFFFFFFFFFFFFFFFFFFFFFF",
"FFFFFFFFFFFF  &4eullsyeeeeeeeee44444321<<<,$O            o$:11223344eeeeeeeeeeeeee44321>  FFFFFFFFFFFFFFFFFFFFFFFFFFFFFFFFFFFFFF",
"FFFFFFFFFFFF o34ejldyreeeeeeee444432111<&O                  .&<1133444eeeeeeeeeeee444321#  FFFFFFFFFFFFFFFFFFFFFFFFFFFFFFFFFFFFF",
"FFFFFFFFFFF  ,44scgireeeeeeee4444321<<:o    FFFFFFFFFFFFFF    .&1223444eeeeeeeeeeee44422<. FFFFFFFFFFFFFFFFFFFFFFFFFFFFFFFFFFFFF",
"FFFFFFFFFF  #44rlkatreeeeeeee444321<,#    FFFFFFFFFFFFFFFFFFF   o,12334eee4eeeeeeeee44321&  FFFFFFFFFFFFFFFFFFFFFFFFFFFFFFFFFFFF",
"FFFFFFFFFF  144flfyr4eeeeeeee43211<:.   FFFFFFFFFFFFFFFFFFFFFFF   &223444eeeeeeeeeeee43311. FFFFFFFFFFFFFFFFFFFFFFFFFFFFFFFFFFFF",
"FFFFFFFFF  #34tlhireeeeeeeee4432<<&   FFFFFFFFFFFFFFFFFFFFFFFFFF   #1234eeeeeeeeeeeee44321&  FFFFFFFFFFFFFFFFFFFFFFFFFFFFFFFFFFF",
"FFFFFFFFF  <44fldteeeeeeee443321<%   FFFFFFFFFFFFFFFFFFFFFFFFFFFFF  #22344eeeeeeeeeee444311  FFFFFFFFFFFFFFFFFFFFFFFFFFFFFFFFFFF",
"FFFFFFFFF O34rkhureeeeeeee4432<<%   FFFFFFFFFFFFFFFFFFFFFFFFFFFFFFF  #22344ereeeeeeeee44321%  FFFFFFFFFFFFFFFFFFFFFFFFFFFFFFFFFF",
"FFFFFFFF  >44skdteeeeeeeee4321<&   FFFFFFFFFFFFFFFFFFFFFFFFFFFFFFFFF  &2334eeee4eeeeee44321<  FFFFFFFFFFFFFFFFFFFFFFFFFFFFFFFFFF",
"FFFFFFFF  344hjireeeeeee44431<,   FFFFFFFFFFFFFFFFFFFFFFFFFFFFFFFFFFF  :2344ereeeeeeeeee4321O  FFFFFFFFFFFFFFFFFFFFFFFFFFFFFFFFF",
"FFFFFFFF $44ykfteeeeeeeee4321<o  FFFFFFFFFFFFFFFFFFFFFFFFFFFFFFFFFFFF   12344reeeeeeeee44321&  FFFFFFFFFFFFFFFFFFFFFFFFFFFFFFFFF",
"FFFFFFF  ,44sjpreeeeeeee4421<%  FFFFFFFFFFFFFFFFFFFFFFFFFFFFFFFFFFFFFF  #2344rreeeeeeeee44211  FFFFFFFFFFFFFFFFFFFFFFFFFFFFFFFFF",
"FFFFFFF  344ggureee4eee44311,   FFFFFFFFFFFFFFFFFFFFFFFFFFFFFFFFFFFFFFF  <334err4eeeeeee43321O FFFFFFFFFFFFFFFFFFFFFFFFFFFFFFFFF",
"FFFFFFF #34rhdteeeeeee44421<$  FFFFFFFFFFFFFFFFFFFFFFFFFFFFFFFFFFFFFFFF  O234etreeeeeeee44321$  FFFFFFFFFFFFFFFFFFFFFFFFFFFFFFFF",
"FFFFFF  &34ujpreeeeeee4432<,. FFFFFFFFFFFFFFFFFFFFFFFFFFFFFFFFFFFFFFFFFF  ,334rteeeee4ee44321:  FFFFFFFFFFFFFFFFFFFFFFFFFFFFFFFF",
"FFFFFF  <34ahuee4eeeee4432<%  FFFFFFFFFFFFFFFFFFFFFFFFFFFFFFFFFFFFFFFFFF  #334etreeeeeeeee332<. FFFFFFFFFFFFFFFFFFFFFFFFFFFFFFFF",
"FFFFFF  344sfyeeeeeeee4421<o  FFFFFFFFFFFFFFFFFFFFFFFFFFFFFFFFFFFFFFFFFFF .234eyr4eeeeeee4422<o FFFFFFFFFFFFFFFFFFFFFFFFFFFFFFFF",
"FFFFFF .34efdreeeeeee44321,  FFFFFFFFFFFFFFFFFFFFFFFFFFFFFFFFFFFFFFFFFFFF  ,34euteeeeeeee44311#  FFFFFFFFFFFFFFFFFFFFFFFFFFFFFFF",
"FFFFFF O344gareeeeeee4432<&  FFFFFFFFFFFFFFFFFFFFFFFFFFFFFFFFFFFFFFFFFFFFF %344yyeeeeeeeee4321%  FFFFFFFFFFFFFFFFFFFFFFFFFFFFFFF",
"FFFFFF $34efpeeeeeeeee432<#  FFFFFFFFFFFFFFFFFFFFFFFFFFFFFFFFFFFFFFFFFFFFF .334tueeeeeeee44321:  FFFFFFFFFFFFFFFFFFFFFFFFFFFFFFF",
"FFFFF  :44rfueeeeeee44331<o FFFFFFFFFFFFFFFFFFFFFFFFFFFFFFFFFFFFFFFFFFFFFF  234rieeeeeeeee4321:  FFFFFFFFFFFFFFFFFFFFFFFFFFFFFFF",
"FFFFF  :34rfueeeeeeee4422<. FFFFFFFFFFFFFFFFFFFFFFFFFFFFFFFFFFFFFFFFFFFFFF  <34rpr4eeeeeee4321:  FFFFFFFFFFFFFFFFFFFFFFFFFFFFFFF",
"FFFFF  :44tfyeeeeeeee4431<  FFFFFFFFFFFFFFFFFFFFFFFFFFFFFFFFFFFFFFFFFFFFFF  ,34epreeeeeeee4331>  FFFFFFFFFFFFFFFFFFFFFFFFFFFFFFF",
"FFFFF  :34tdyeeeeee4ee321<  FFFFFFFFFFFFFFFFFFFFFFFFFFFFFFFFFFFFFFFFFFFFFF  :34eateeeeeeee4321<  FFFFFFFFFFFFFFFFFFFFFFFFFFFFFFF",
"FFFFF  <44ydteeeeeeee4321<  FFFFFFFFFFFFFFFFFFFFFFFFFFFFFFFFFFFFFFFFFFFFFF  :34eateeeeeeee4421<  FFFFFFFFFFFFFFFFFFFFFFFFFFFFFFF",
"FFFFF  <34ydteeeeeee44431<  FFFFFFFFFFFFFFFFFFFFFFFFFFFFFFFFFFFFFFFFFFFFFF  :34esyeeeeeeee4421<  FFFFFFFFFFFFFFFFFFFFFFFFFFFFFFF",
"FFFFF  <44ysteeeeeeee4321<  FFFFFFFFFFFFFFFFFFFFFFFFFFFFFFFFFFFFFFFFFFFFFF  :444syeeeeeeee4421<  FFFFFFFFFFFFFFFFFFFFFFFFFFFFFFF",
"FFFFF  <34ysreeeeeeee4331<  FFFFFFFFFFFFFFFFFFFFFFFFFFFFFFFFFFFFFFFFFFFFFF  :44rsyeeeeeeee4331<  FFFFFFFFFFFFFFFFFFFFFFFFFFFFFFF",
"FFFFF  <44ysteeeeeeeee421<  FFFFFFFFFFFFFFFFFFFFFFFFFFFFFFFFFFFFFFFFFFFFFF  :34esye4eeeeee4421<  FFFFFFFFFFFFFFFFFFFFFFFFFFFFFFF",
"FFFFF  <34ysreeeeeeee4321<  FFFFFFFFFFFFFFFFFFFFFFFFFFFFFFFFFFFFFFFFFFFFFF  :34rsyeeeeeeee4321<  FFFFFFFFFFFFFFFFFFFFFFFFFFFFFFF",
"FFFFF  <44e44444444444321<  FFFFFFFFFFFFFFFFFFFFFFFFFFFFFFFFFFFFFFFFFFFFFF  :3444444e444444321<  FFFFFFFFFFFFFFFFFFFFFFFFFFFFFFF",
"FFFFF  <33434343434443221<  FFFFFFFFFFFFFFFFFFFFFFFFFFFFFFFFFFFFFFFFFFFFFF  :33443433443433311<  FFFFFFFFFFFFFFFFFFFFFFFFFFFFFFF",
"FFFFF  <3233222322222221<<  FFFFFFFFFFFFFFFFFFFFFFFFFFFFFFFFFFFFFFFFFFFFFF  :33332322232222211<  FFFFFFFFFFFFFFFFFFFFFFFFFFFFFFF",
"FFFFF  o                    FFFFFFFFFFFFFFFFFFFFFFFFFFFFFFFFFFFFFFFFFFFFFF  .                    FFFFFFFFFFFFFFFFFFFFFFFFFFFFFFF",
"FFFFF                       FFFFFFFFFFFFFFFFFFFFFFFFFFFFFFFFFFFFFFFFFFFFFF                       FFFFFFFFFFFFFFFFFFFFFFFFFFFFFFF",
"FFFFF  BSSAAZZZZZZAZZZZZCC  FFFFFFFFFFFFFFFFFFFFFFFFFFFFFFFFFFFFFFFFFFFFFF  cSSSAAZZZZZAZZZZZCC  FFFFFFFFFFFFFFFFFFFFFFFFFFFFFFF",
"FFFFF  BSSSSSSSSSSSSSAAZCB  FFFFFFFFFFFFFFFFFFFFFFFFFFFFFFFFFFFFFFFFFFFFFF  cSSSSSSSSSSSSSAAZCB  FFFFFFFFFFFFFFFFFFFFFFFFFFFFFFF",
"FFFFF  NDDDDDDSDDSDSDSAZVB  FFFFFFFFFFFFFFFFFFFFFFFFFFFFFFFFFFFFFFFFFFFFFF  cSDDDDSDDSSDDDSSZVB  FFFFFFFFFFFFFFFFFFFFFFFFFFFFFFF",
"FFFFF  MSDDDDDDDDDDDDDSZBN  FFFFFFFFFFFFFFFFFFFFFFFFFFFFFFFFFFFFFFFFFFFFFF  cSDDDDDDDDDDDDDSZVM  FFFFFFFFFFFFFFFFFFFFFFFFFFFFFFF",
"FFFFF  MSDDDDDDDDDDDDDSCBM  FFFFFFFFFFFFFFFFFFFFFFFFFFFFFFFFFFFFFFFFFFFFFF  xASDDDDDDDDDDDDSCBM  FFFFFFFFFFFFFFFFFFFFFFFFFFFFFFF",
"FFFFF  MSSDDDDDDDDDDDDACBm  FFFFFFFFFFFFFFFFFFFFFFFFFFFFFFFFFFFFFFFFFFFFFF  xADDDDDDDDDDDDDACBm  FFFFFFFFFFFFFFFFFFFFFFFFFFFFFFF",
"FFFFF  mSSDDDDDDDDDDDSACBm  FFFFFFFFFFFFFFFFFFFFFFFFFFFFFFFFFFFFFFFFFFFFFF  xSSDDDDDDDDDDDSACBm  FFFFFFFFFFFFFFFFFFFFFFFFFFFFFFF",
"FFFFF  MSSDDDDDDDDDDDSSCBm  FFFFFFFFFFFFFFFFFFFFFFFFFFFFFFFFFFFFFFFFFFFFFF  xASDDDDDDDDDDDDACBm  FFFFFFFFFFFFFFFFFFFFFFFFFFFFFFF",
"FFFFF  mSSDDDDDDDDDDDDACBm  FFFFFFFFFFFFFFFFFFFFFFFFFFFFFFFFFFFFFFFFFFFFFF  xASDDDDDDDDDDDSACBm  FFFFFFFFFFFFFFFFFFFFFFFFFFFFFFF",
"FFFFF  MSSDDDDDDDDDDDSACBm  FFFFFFFFFFFFFFFFFFFFFFFFFFFFFFFFFFFFFFFFFFFFFF  xADDDDDDDDDDDDDSCBm  FFFFFFFFFFFFFFFFFFFFFFFFFFFFFFF",
"FFFFF  mSSDDDDDDDDDDDDACBm  FFFFFFFFFFFFFFFFFFFFFFFFFFFFFFFFFFFFFFFFFFFFFF  xSSDDDDDDDDDDDSACBm  FFFFFFFFFFFFFFFFFFFFFFFFFFFFFFF",
"FFFFF  mASDDDDDDDDDDDDACBm  FFFFFFFFFFFFFFFFFFFFFFFFFFFFFFFFFFFFFFFFFFFFFF  xADDDDDDDDDDDDDACBm  FFFFFFFFFFFFFFFFFFFFFFFFFFFFFFF",
"FFFFF  MSDDDDDDDDDDDDSACBm  FFFFFFFFFFFFFFFFFFFFFFFFFFFFFFFFFFFFFFFFFFFFFF  xASDDDDDDDDDDDSSCBm  FFFFFFFFFFFFFFFFFFFFFFFFFFFFFFF",
"FFFFF  MASDDDDDDDDDDDSSCBm  FFFFFFFFFFFFFFFFFFFFFFFFFFFFFFFFFFFFFFFFFFFFFF  xASDDDDDDDDDDDSACBm  FFFFFFFFFFFFFFFFFFFFFFFFFFFFFFF",
"FFFFF  mSSDDDDDDDDDDDDACBm  FFFFFFFFFFFFFFFFFFFFFFFFFFFFFFFFFFFFFFFFFFFFFF  xASDDDDDDDDDDDDACBm  FFFFFFFFFFFFFFFFFFFFFFFFFFFFFFF",
"FFFFF  MSSDDDDDDDDDDDSACBm  FFFFFFFFFFFFFFFFFFFFFFFFFFFFFFFFFFFFFFFFFFFFFF  xASDDDDDDDDDDDSAVBm  FFFFFFFFFFFFFFFFFFFFFFFFFFFFFFF",
"FFFFF  mASSSSSSSSSSSSSZCNm  FFFFFFFFFFFFFFFFFFFFFFFFFFFFFFFFFFFFFFFFFFFFFF  xASSDSSSSSSSSSSAVBm  FFFFFFFFFFFFFFFFFFFFFFFFFFFFFFF",
"FFFFF  mAAAAZAAZZZZAAZVBMm  FFFFFFFFFFFFFFFFFFFFFFFFFFFFFFFFFFFFFFFFFFFFFF  xZAAAZZAZAAZZAZCBNm  FFFFFFFFFFFFFFFFFFFFFFFFFFFFFFF",
"FFFFF  mCCCCVVVVVVVVVBBBMM  FFFFFFFFFFFFFFFFFFFFFFFFFFFFFFFFFFFFFFFFFFFFFF  zZCCCVVVVVVVVVBBBMm  FFFFFFFFFFFFFFFFFFFFFFFFFFFFFFF",
"FFFFF  mVVBBMNNNNNMNNMMMmM  FFFFFFFFFFFFFFFFFFFFFFFFFFFFFFFFFFFFFFFFFFFFFF  bCVBBNNNNNMNNNMMMmM  FFFFFFFFFFFFFFFFFFFFFFFFFFFFFFF",
"FFFFF   vwqq000000000000q   FFFFFFFFFFFFFFFFFFFFFFFFFFFFFFFFFFFFFFFFFFFFFF   vwq0000000000000q   FFFFFFFFFFFFFFFFFFFFFFFFFFFFFFF",
"FFFFFF                     FFFFFFFFFFFFFFFFFFFFFFFFFFFFFFFFFFFFFFFFFFFFFFFF                     FFFFFFFFFFFFFFFFFFFFFFFFFFFFFFFF",
"FFFFFFF                   FFFFFFFFFFFFFFFFFFFFFFFFFFFFFFFFFFFFFFFFFFFFFFFFFF                   FFFFFFFFFFFFFFFFFFFFFFFFFFFFFFFFF",
"FFFFFFFFFFFFFFFFFFFFFFFFFFFFFFFFFFFFFFFFFFFFFFFFFFFFFFFFFFFFFFFFFFFFFFFFFFFFFFFFFFFFFFFFFFFFFFFFFFFFFFFFFFFFFFFFFFFFFFFFFFFFFFFF",
"FFFFFFFFFFFFFFFFFFFFFFFFFFFFFFFFFFFFFFFFFFFFFFFFFFFFFFFFFFFFFFFFFFFFFFFFFFFFFFFFFFFFFFFFFFFFFFFFFFFFFFFFFFFFFFFFFFFFFFFFFFFFFFFF",
"FFFFFFFFFFFFFFFFFFFFFFFFFFFFFFFFFFFFFFFFFFFFFFFFFFFFFFFFFFFFFFFFFFFFFFFFFFFFFFFFFFFFFFFFFFFFFFFFFFFFFFF          FFFFFFFFFFFFFFF",
"FFFFFFFFFFFFFFFFFFFFFFFFFFFFFFFFFFFFFFFFFFFFFFFFFFFFFFFFFFFFFFFFFFFFFFFFFFFFFFFFFFFFFFFFFFFFFFFFFFFFF     XXXXX     FFFFFFFFFFFF",
"FFFFFFFFFFFFFFFFFFFFFFFFFFFFFFFFFFFFFFFFFFFFFFFFFFFFFFFFFFFFFFFFFFFFFFFFFFFFFFFFFFFFFFFFFFFFFFFFFFFF   X@-8qw07-+    FFFFFFFFFFF",
"FFFFFFFFFFFFFFFFFFFFFFFFFFFFFFFFFFFFFFFFFFFFFFFFFFFFFFFFFFFFFFFFFFFFFFFFFFFFFFFFFFFFFFFFFFFFFFFFFFF   +6vVCZCCVBc5XX  FFFFFFFFFF",
"FFFFFFFFFFFFFFFFFFFFFFFFFFFFFFFFFFFFFFFFFFFFFFFFFFFFFFFFFFFFFFFFFFFFFFFFFFFFFFFFFFFFFFFFFFFFFFFFFF  X*zCAAAAAZZCVBq@X  FFFFFFFFF",
"FFFFFFFFFFFFFFFFFFFFFFFFFFFFFFFFFFFFFFFFFFFFFFFFFFFFFFFFFFFFFFFFFFFFFFFFFFFFFFFFFFFFFFFFFFFFFFFFF  X*vASSSSSAAZCCCBw@  FFFFFFFFF",
"FFFFFFFFFFFFFFFFFFFFFFFFFFFFFFFFFFFFFFFFFFFFFFFFFFFFFFFFFFFFFFFFFFFFFFFFFFFFFFFFFFFFFFFFFFFFFFFFF  +zASSSDSSSAZZCVVB0X  FFFFFFFF",
"FFFFFFFFFFFFFFFFFFFFFFFFFFFFFFFFFFFFFFFFFFFFFFFFFFFFFFFFFFFFFFFFFFFFFFFFFFFFFFFFFFFFFFFFFFFFFFFF  X7ZSSSSSDDSSAZZVVBM;X FFFFFFFF",
"FFFFFFFFFFFFFFFFFFFFFFFFFFFFFFFFFFFFFFFFFFFFFFFFFFFFFFFFFFFFFFFFFFFFFFFFFFFFFFFFFFFFFFFFFFFFFFFF  @bSSSSDDDDDSAACVVBBz+  FFFFFFF",
"FFFFFFFFFFFFFFFFFFFFFFFFFFFFFFFFFFFFFFFFFFFFFFFFFFFFFFFFFFFFFFFFFFFFFFFFFFFFFFFFFFFFFFFFFFFFFFFF X;CSSSDDDDDDSSZZCVBBn=  FFFFFFF",
"FFFFFFFFFFFFFFFFFFFFFFFFFFFFFFFFFFFFFFFFFFFFFFFFFFFFFFFFFFFFFFFFFFFFFFFFFFFFFFFFFFFFFFFFFFFFFFFF X9ASSSSDDDDDDSAZCBBNM6  FFFFFFF",
"FFFFFFFFFFFFFFFFFFFFFFFFFFFFFFFFFFFFFFFFFFFFFFFFFFFFFFFFFFFFFFFFFFFFFFFFFFFFFFFFFFFFFFFFFFFFFFFF XwZASSDDDDDDDSACCBBMm8X FFFFFFF",
"FFFFFFFFFFFFFFFFFFFFFFFFFFFFFFFFFFFFFFFFFFFFFFFFFFFFFFFFFFFFFFFFFFFFFFFFFFFFFFFFFFFFFFFFFFFFFFFF +zAAASSDDDDDSSZCVBNMM9X FFFFFFF",
"FFFFFFFFFFFFFFFFFFFFFFFFFFFFFFFFFFFFFFFFFFFFFFFFFFFFFFFFFFFFFFFFFFFFFFFFFFFFFFFFFFFFFFFFFFFFFFFF XwZZAASSSDDSSAZCVBMMm8X FFFFFFF",
"FFFFFFFFFFFFFFFFFFFFFFFFFFFFFFFFFFFFFFFFFFFFFFFFFFFFFFFFFFFFFFFFFFFFFFFFFFFFFFFFFFFFFFFFFFFFFFFF X9ZZZAASSSSSAZVVBNMmn6X FFFFFFF",
"FFFFFFFFFFFFFFFFFFFFFFFFFFFFFFFFFFFFFFFFFFFFFFFFFFFFFFFFFFFFFFFFFFFFFFFFFFFFFFFFFFFFFFFFFFFFFFFF  ;VZCZZAAAAACCVBNMMmb=  FFFFFFF",
"FFFFFFFFFFFFFFFFFFFFFFFFFFFFFFFFFFFFFFFFFFFFFFFFFFFFFFFFFFFFFFFFFFFFFFFFFFFFFFFFFFFFFFFFFFFFFFFF  @bCCCCCZZZCCVBBMMmmw+  FFFFFFF",
"FFFFFFFFFFFFFFFFFFFFFFFFFFFFFFFFFFFFFFFFFFFFFFFFFFFFFFFFFFFFFFFFFFFFFFFFFFFFFFFFFFFFFFFFFFFFFFFF  X8VVCCCCCVVVBNMMmmn;X FFFFFFFF",
"FFFFFFFFFFFFFFFFFFFFFFFFFFFFFFFFFFFFFFFFFFFFFFFFFFFFFFFFFFFFFFFFFFFFFFFFFFFFFFFFFFFFFFFFFFFFFFFFF  @zVVVVVVBBBNMMmmn0+  FFFFFFFF",
"FFFFFFFFFFFFFFFFFFFFFFFFFFFFFFFFFFFFFFFFFFFFFFFFFFFFFFFFFFFFFFFFFFFFFFFFFFFFFFFFFFFFFFFFFFFFFFFFF  X=cVBBBBBBNMmmmnw*   FFFFFFFF",
"FFFFFFFFFFFFFFFFFFFFFFFFFFFFFFFFFFFFFFFFFFFFFFFFFFFFFFFFFFFFFFFFFFFFFFFFFFFFFFFFFFFFFFFFFFFFFFFFFF  X=zBBNNNMmmmmn0*X  FFFFFFFFF",
"FFFFFFFFFFFFFFFFFFFFFFFFFFFFFFFFFFFFFFFFFFFFFFFFFFFFFFFFFFFFFFFFFFFFFFFFFFFFFFFFFFFFFFFFFFFFFFFFFFF  X@7cmMMMmmbz5+   FFFFFFFFFF",
"FFFFFFFFFFFFFFFFFFFFFFFFFFFFFFFFFFFFFFFFFFFFFFFFFFFFFFFFFFFFFFFFFFFFFFFFFFFFFFFFFFFFFFFFFFFFFFFFFFFF   X@;89097-@X   FFFFFFFFFFF",
"FFFFFFFFFFFFFFFFFFFFFFFFFFFFFFFFFFFFFFFFFFFFFFFFFFFFFFFFFFFFFFFFFFFFFFFFFFFFFFFFFFFFFFFFFFFFFFFFFFFFF    XX+++XX    FFFFFFFFFFFF",
"FFFFFFFFFFFFFFFFFFFFFFFFFFFFFFFFFFFFFFFFFFFFFFFFFFFFFFFFFFFFFFFFFFFFFFFFFFFFFFFFFFFFFFFFFFFFFFFFFFFFFF             FFFFFFFFFFFFF",
"FFFFFFFFFFFFFFFFFFFFFFFFFFFFFFFFFFFFFFFFFFFFFFFFFFFFFFFFFFFFFFFFFFFFFFFFFFFFFFFFFFFFFFFFFFFFFFFFFFFFFFFFF       FFFFFFFFFFFFFFFF",
"FFFFFFFFFFFFFFFFFFFFFFFFFFFFFFFFFFFFFFFFFFFFFFFFFFFFFFFFFFFFFFFFFFFFFFFFFFFFFFFFFFFFFFFFFFFFFFFFFFFFFFFFFFFFFFFFFFFFFFFFFFFFFFFF",
"FFFFFFFFFFFFFFFFFFFFFFFFFFFFFFFFFFFFFFFFFFFFFFFFFFFFFFFFFFFFFFFFFFFFFFFFFFFFFFFFFFFFFFFFFFFFFFFFFFFFFFFFFFFFFFFFFFFFFFFFFFFFFFFF",
"FFFFFFFFFFFFFFFFFFFFFFFFFFFFFFFFFFFFFFFFFFFFFFFFFFFFFFFFFFFFFFFFFFFFFFFFFFFFFFFFFFFFFFFFFFFFFFFFFFFFFFFFFFFFFFFFFFFFFFFFFFFFFFFF",
"FFFFFFFFFFFFFFFFFFFFFFFFFFFFFFFFFFFFFFFFFFFFFFFFFFFFFFFFFFFFFFFFFFFFFFFFFFFFFFFFFFFFFFFFFFFFFFFFFFFFFFFFFFFFFFFFFFFFFFFFFFFFFFFF",
"FFFFFFFFFFFFFFFFFFFFFFFFFFFFFFFFFFFFFFFFFFFFFFFFFFFFFFFFFFFFFFFFFFFFFFFFFFFFFFFFFFFFFFFFFFFFFFFFFFFFFFFFFFFFFFFFFFFFFFFFFFFFFFFF",
"FFFFFFFFFFFFFFFFFFFFFFFFFFFFFFFFFFFFFFFFFFFFFFFFFFFFFFFFFFFFFFFFFFFFFFFFFFFFFFFFFFFFFFFFFFFFFFFFFFFFFFFFFFFFFFFFFFFFFFFFFFFFFFFF",
"FFFFFFFFFFFFFFFFFFFFFFFFFFFFFFFFFFFFFFFFFFFFFFFFFFFFFFFFFFFFFFFFFFFFFFFFFFFFFFFFFFFFFFFFFFFFFFFFFFFFFFFFFFFFFFFFFFFFFFFFFFFFFFFF",
"FFFFFFFFFFFFFFFFFFFFFFFFFFFFFFFFFFFFFFFFFFFFFFFFFFFFFFFFFFFFFFFFFFFFFFFFFFFFFFFFFFFFFFFFFFFFFFFFFFFFFFFFFFFFFFFFFFFFFFFFFFFFFFFF"
};
