/* XPM */
static char *rightview[] = {
/* columns rows colors chars-per-pixel */
"128 128 73 1 ",
"  c #000000",
". c #050608",
"X c #06080A",
"o c #0C0C0C",
"O c #141414",
"+ c #11161C",
"@ c #1A1A1A",
"# c #151C23",
"$ c #181F28",
"% c #1B232C",
"& c #1C2630",
"* c #1E2933",
"= c #242424",
"- c #2D2D2D",
"; c #202B36",
": c #242F3C",
"> c #25313D",
", c #343434",
"< c #3C3C3C",
"1 c #293644",
"2 c #2F3D4D",
"3 c #344557",
"4 c #3D5065",
"5 c #424242",
"6 c #484848",
"7 c #555555",
"8 c #5D5D5D",
"9 c #40556B",
"0 c #656565",
"q c #6C6C6C",
"w c #737373",
"e c #7E7E7E",
"r c #56718E",
"t c #567390",
"y c #597694",
"u c #5B7997",
"i c #5D7B9A",
"p c #6789AC",
"a c #7196BD",
"s c #7398BF",
"d c #769DC5",
"f c #789FC8",
"g c #7BA3CD",
"h c #7EA7D2",
"j c #7FA9D3",
"k c #868686",
"l c #8A8A8A",
"z c #939393",
"x c gray61",
"c c gray65",
"v c #ADADAD",
"b c #B4B4B4",
"n c #BCBCBC",
"m c #80AAD5",
"M c #83ADD9",
"N c #85B1DE",
"B c #87B3E1",
"V c #89B6E5",
"C c #8CBAEA",
"Z c #90BFF0",
"A c #92C2F4",
"S c #96C7FA",
"D c #97C8FB",
"F c #99CBFF",
"G c #C3C3C3",
"H c #CDCDCD",
"J c #D6D6D6",
"K c #DBDBDB",
"L c #E2E2E2",
"P c #EDEDED",
"I c #F5F5F5",
"U c #FFFFFF",
"Y c None",
/* pixels */
"YYYYYYYYYYYYYYYYYYYYYYYYYYYYYYYYYYYYYYYYYYYYYYYYYYYYYYYYYYYYYYYYYYYYYYYYYYYYYYYYYYYYYYYYYYYYYYYYYYYYYYYYYYYYYYYYYYYYYYYYYYYYYYYY",
"YYYYYYYYYYYYYYYYYYYYYYYYYYYYYYYYYYYYYYYYYYYYYYYYYYYYYYYYYYYYYYYYYYYYYYYYYYYYYYYYYYYYYYYYYYYYYYYYYYYYYYYYYYYYYYYYYYYYYYYYYYYYYYYY",
"YYYYYYYYYYYYYYYYYYYYYYYYYYYYYYYYYYYYYYYYYYYYYYYYYYYYYYYYYYYYYYYYYYYYYYYYYYYYYYYYYYYYYYYYYYYYYYYYYYYYYYYYYYYYYYYYYYYYYYYYYYYYYYYY",
"YYYYYYYYYYYYYYYYYYYYYYYYYYYYYYYYYYYYYYYYYYYYYYYYYYYYYYYYYYYYYYYYYYYYYYYYYYYYYYYYYYYYYYYYYYYYYYYYYYYYYYYYYYYYYYYYYYYYYYYYYYYYYYYY",
"YYYYYYYYYYYYYYYYYYYYYYYYYYYYYYYYYYYYYYYYYYYYYYYYYYYYYYYYYYYYYYYYYYYYYYYYYYYYYYYYYYYYYYYYYYYYYYYYYYYYYYYYYYYYYYYYYYYYYYYYYYYYYYYY",
"YYYYYYYYYYYYYYYYYYYYYYYYYYYYYYYYYYYYYYYYYYYYYYYYYYYYYYYYYYYYYYYYYYYYYYYYYYYYYYYYYYYYYYYYYYYYYYYYYYYYYYYYYYYYYYYYYYYYYYYYYYYYYYYY",
"YYYYYYYYYYYYYYYYYYYYYYYYYYYYYYYYYYYYYYYYYYYYYYYYYYYYYYYYYYYYYYYYYYYYYYYYYYYYYYYYYYYYYYYYYYYYYYYYYYYYYYYYYYYYYYYYYYYYYYYYYYYYYYYY",
"YYYYYYYYYYYYYYYYYYYYYYYYYYYYYYYYYYYYYYYYYYYYYYYYYYYYYYYYYYYYYYYYYYYYYYYYYYYYYYYYYYYYYYYYYYYYYYYYYYYYYYYYYYYYYYYYYYYYYYYYYYYYYYYY",
"YYYYYYYYYYYYYYYYYYYYYYYYYYYYYYYYYYYYYYYYYYYYYYYYYYYYYYYYYYYYYYYYYYYYYYYYYYYYYYYYYYYYYYYYYYYYYYYYYYYYYYYYYYYYYYYYYYYYYYYYYYYYYYYY",
"YYYYYYYYYYYYYYYYYYYYYYYYYYYYYYYYYYYYYYYYYYYYYYYYYYYYYYYYYYYYYYYYYYYYYYYYYYYYYYYYYYYYYYYYYYYYYYYYYYYYYYYYYYYYYYYYYYYYYYYYYYYYYYYY",
"YYYYYYYYYYYYYYYYYYYYYYYYYYYYYYYYYYYYYYYY                                                                        YYYYYYYYYYYYYYYY",
"YYYYYYYYYYYYYYYYYYYYYYYYYYYYYYYYYYYYYYY                                                                .        YYYYYYYYYYYYYYYY",
"YYYYYYYYYYYYYYYYYYYYYYYYYYYYYYYYYYYYYYY       .O=--,--,--,,---,--,--,---,--,-,--,---,--,-,---,---,<70q06@       YYYYYYYYYYYYYYYY",
"YYYYYYYYYYYYYYYYYYYYYYYYYYYYYYYYYYYYYY   5,                                                           6kew7.    YYYYYYYYYYYYYYYY",
"YYYYYYYYYYYYYYYYYYYYYYYYYYYYYYYYYYYYY   w7                                                              <0q=    YYYYYYYYYYYYYYYY",
"YYYYYYYYYYYYYYYYYYYYYYYYYYYYYYYYYYYY  oww   <xzzzzzzzzzzzzzzzzzzzzzzzzzzzzzzzzzzzzzzzzzzzzzzzzzzzzzzzzzq.@=     YYYYYYYYYYYYYYYY",
"YYYYYYYYYYYYYYYYYYYYYYYYYYYYYYYYYYY  ,w0    5nbbbnbnnnnnnnnnnnnnnnnnnnnbnnnnbnnnnnnnnnnnnnnnnbnnnnnnnnk. o      YYYYYYYYYYYYYYYY",
"YYYYYYYYYYYYYYYYYYYYYYYYYYYYYYYYYY  80@     5bbvbbnnnnnnnnnnnnnnnnnGnnnnGnnnnnnnnnnnnnnnGGnnnnnGnnnGnk.oo       YYYYYYYYYYYYYYYY",
"YYYYYYYYYYYYYYYYYYYYYYYYYYYYYYYYY oe<  =    5vvbbnnGGGGGGGGGGGGGGGGGGGGHGGGGGGGGGGGGGGGGGGGGGGGGGGGGz.,,   .    YYYYYYYYYYYYYYYY",
"YYYYYYYYYYYYYYYYYYYYYYYYYYYYYYYY @e   5q    <vvbnGHJJKJKJKJJJKJJKJJJJJJJJJKJKJKJJJKJKJJKJJJJJJKJJJJx.-w   #%    YYYYYYYYYYYYYYYY",
"YYYYYYYYYYYYYYYYYYYYYYYYYYYYYYY Ok   5Jq    5vbnGHKLLLLLLLLLLLLLLLLLLLLLLLLLLLLLLLLLLLLLLLLLLLLLLLcX e   #a%    YYYYYYYYYYYYYYYY",
"YYYYYYYYYYYYYYYYYYYYYYYYYYYYYY @k   5HG0    5vbnHJKPPPIIIIIIIIIIIPIIIIIIIPIIIIIIIIIPIIIIIPIIIIIIIvo e   %dg%    YYYYYYYYYYYYYYYY",
"YYYYYYYYYYYYYYYYYYYYYYYYYYYYY @e   <HGn0    5bbnHKPIIUIUIUUIIIUUUUUIIUUIIUIUUIUIUIIUUIUIIUUIIUUIb. e   %fgd%    YYYYYYYYYYYYYYYY",
"YYYYYYYYYYYYYYYYYYYYYYYYYYYY @e   <HHGn0 @  5bbGHKPIUUUUUUUUUUUUUUUUUUUUUUUUUUUUUUUUUUUUUUUUUUUbX e   %ghgd%    YYYYYYYYYYYYYYYY",
"YYYYYYYYYYYYYYYYYYYYYYYYYYY @e   5HGGnn0 ,  5bnGJKPIUUUUUUUUUUUUUUUUUUUUUUUUUUUUUUUUUUUUUUUUUUbX e   %gmfdd% @  YYYYYYYYYYYYYYYY",
"YYYYYYYYYYYYYYYYYYYYYYYYYY @e   <HGGbnG0 <  5nbGHLPUUUUUUUUUUUUUUUUUUUUUUUUUUUUUUUUUUUUUUUUUUn. e   %gmfddd% -  YYYYYYYYYYYYYYYY",
"YYYYYYYYYYYYYYYYYYYYYYYYY @e   <HGnnnnGq 5  6nnGHLPIUUUUUUUUUUUUUUUUUUUUUUUUUUUUUUUUUUUUUUUUn. e   $ggfdddg; ,  YYYYYYYYYYYYYYYY",
"YYYYYYYYYYYYYYYYYYYYYYYY @e   <HHnnnnGJw 5  6nnnHLPIUUUUUUUUUUUUUUUUUUUUUUUUUUUUUUUUUUUUUUUn. e   %mmfdddgm; ,  YYYYYYYYYYYYYYYY",
"YYYYYYYYYYYYYYYYYYYYYYY Ok   <HHnnnnGHKe 5  6nnGHLPIUUUUUUUUUUUUUUUUUUUUUUUUUUUUUUUUUUUUUUn. e   %ggfdddgmN; ,  YYYYYYYYYYYYYYYY",
"YYYYYYYYYYYYYYYYYYYYYY @e   <HHnbnnGJKLe 5  6nnGJKPIUUUUUUUUUUUUUUUUUUUUUUUUUUUUUUUUUUUUUnX e   %gmgfddgmNC; ,  YYYYYYYYYYYYYYYY",
"YYYYYYYYYYYYYYYYYYYYY @e   <HHnnnnGHKLPk 5  5GnGHKPIUUUUUUUUUUUUUUUUUUUUUUUUUUUUUUUUUUUUb. e   %ggfddfgmNCA: ,  YYYYYYYYYYYYYYYY",
"YYYYYYYYYYYYYYYYYYYY @e   <HGnnbnGJKLPIk 5  6nnGHLPIUUUUUUUUUUUUUUUUUUUUUUUUUUUUUUUUUUUb. e   %gmgdddgmNCAA> ,  YYYYYYYYYYYYYYYY",
"YYYYYYYYYYYYYYYYYYY @e   <HHnnnnGJKLPIUk 5  6nnGJKPUUUUUUUUUUUUUUUUUUUUUUUUUUUUUUUUUUUb. e   $gmfdddgmNCZSD: ,  YYYYYYYYYYYYYYYY",
"YYYYYYYYYYYYYYYYYY @e   <HHnnbnGHKLPIIUk 5  6nnGHLPIUUUUUUUUUUUUUUUUUUUUUUUUUUUUUUUUUb. e   %gmgdddgmNCASDD> ,  YYYYYYYYYYYYYYYY",
"YYYYYYYYYYYYYYYYY @e   <HHnnnnGHKLPUUUUk 5  6nnGHKPIUUUUUUUUUUUUUUUUUUUUUUUUUUUUUUUUbX k   %gmgsddgmNCZADDD: ,  YYYYYYYYYYYYYYYY",
"YYYYYYYYYYYYYYYY @e   <HGnnbnGJKPPIIUUUk 5  6nnnJKPIUUUUUUUUUUUUUUUUUUUUUUUUUUUUUUUb. e   %fmfdddgmNCAADDFF> ,  YYYYYYYYYYYYYYYY",
"YYYYYYYYYYYYYYY @e   <HGnnnnGJKLPIIUUUUk <  6nnGJKPUUUUUUUUUUUUUUUUUUUUUUUUUUUUUUUbo e   %gmgsdsmMNCAADFFFF> <  YYYYYYYYYYYYYYYY",
"YYYYYYYYYYYYYY  e   <HHnnnnGHKLPIUUUUUUk 7  6nnGHLPIUUUUUUUUUUUUUUUUUUUUUUUUUUUUUb. e   %gggdddmmNCAADFFFFF> ,  YYYYYYYYYYYYYYYY",
"YYYYYYYYYYYYY  wO  <HGGnbnGHKLPIUUUUUUUk q  6nnGHKPIUUUUUUUUUUUUUUUUUUUUUUUUUUUUb. e   %ghgdddmMMCAADDFFFFF> ,  YYYYYYYYYYYYYYYY",
"YYYYYYYYYYYY  67  <HGGbnnGJKLPUUUUUUUUUk k  6nnGJKPIUUUUUUUUUUUUUUUUUUUUUUUUUUUbX e   %ghfddsgmNCZADDFFFFFF> ,  YYYYYYYYYYYYYYYY",
"YYYYYYYYYYY  =q  <HHnnnnGJKLPIIUUUUUUUUk e  6nnGJKPUUUUUUUUUUUUUUUUUUUUUUUUUUUb. e   %gmgdsdgmNCZADFFFFFFFF> ,  YYYYYYYYYYYYYYYY",
"YYYYYYYYYY   w5 <HGGnbnGHKLPIUUUUUUUUUUk-e  6nnGHLPIUUUUUUUUUUUUUUUUUUUUUUUUUb.oe   ;gmfddfgmNCAADDFFFFFFFF> ,  YYYYYYYYYYYYYYYY",
"YYYYYYYY    ww o==@=@====--=-=---------@8w  o==@===-=-----------------------@ .w   %gmfdddgmNCZADDFFFFFFFFF> ,  YYYYYYYYYYYYYYYY",
"YYYYYYY    00                       O<8weqO                                  -6   %ggfddfgmNCAADFFFFFFFFFFF> ,  YYYYYYYYYYYYYYYY",
"YYYYYYYY  =6         O=,--,-,-----<60q087<       =-,,--,--,-,---,--,--<60eeew5   %gggdddgmNCAADDFFFFFFFFFFF> ,  YYYYYYYYYYYYYYYY",
"YYYYYYYY  @                                                                ,5   @ggfsddgmNCAASFFFFFFFFFFFFD> ,  YYYYYYYYYYYYYYYY",
"YYYYYYYY     .                                                                  ygfdddgmNCAADFFFFFFFFFFFFFF> ,  YYYYYYYYYYYYYYYY",
"YYYYYYYY    <zlkkkkkkllzzzzzzzzzzzzzzzz7    ,kkklkzzzzzzzzzzzzzzzzzzzzzzzzz=    tdssdgmNCAASFFFFFFFFFFFFFFF> ,  YYYYYYYYYYYYYYYY",
"YYYYYYYY    6nbvvvvbbbnbnnnnbnnnnnnnnnn0    5vvvvbnnbnnnnnnnbnnnnnnnnnnnnnn=    rassggNCZADFFFFFFFFFFFFFFFF> <  YYYYYYYYYYYYYYYY",
"YYYYYYYY o  6nbvvbbbnnnnGnnnnnnnnnnnnnn0    5vvvvbbnnnnnGnnnnnnnnnnnnnnnnnn=    rasdgMCZADDFFFFFFFFFFFFFFFF> ,  YYYYYYYYYYYYYYYY",
"YYYYYYYY =  6bbbbnnGGGGHGGGGGGGGGGGGGGGq    5vvbbnnGGGGGGGGGGGGGGGGGGGGGGGG-    rasfmBZASFFFFFFFFFFFFFFFFFF> ,  YYYYYYYYYYYYYYYY",
"YYYYYYYY ,  6nbbnGHJJJJJJJKJKJKJKJKJKJKw =  5bbbnGHJJJJKJJKJKJKJJJJKJJKJJJK- @  yssgMVZADFFFFFFFFFFFFFFFFFF> ,  YYYYYYYYYYYYYYYY",
"YYYYYYYY <  5nnnGHKLLLLLLLLLLLLLLLLLLLLe <  5bbnGHKKLLLLLLLLLLLLLPLLLPLLLLL- ,  yddgMCADFFFFFFFFFFFFFFFFFFF> ,  YYYYYYYYYYYYYYYY",
"YYYYYYYY 5  6nnnHJLLIIIIIPIIIIIIIIIIIIPk 5  6nnnHJLPIIIIIPIIIIIIPIPIIIIIIPI, ,  uddgMCADFFFFFFFFFFFFFFFFFFD> ,  YYYYYYYYYYYYYYYY",
"YYYYYYYY 5  6nnnHKPIIIIUIUIUUIUIUIIIUIUk 5  6nnnHKLIIUUIIUIUUIUIUIUIIUIIUUU- ,  iddgNCADFFFFFFFFFFFFFFFFFFF> ,  YYYYYYYYYYYYYYYY",
"YYYYYYYY 5  6nnGHKPIUUUUUUUUUUUUUUUUUUUk 5  6nnGJKPIUUUUUUUUUUUUUUUUUUUUUUU, ,  iddmNCAAFFFFFFFFFFFFFFFFFFD> ,  YYYYYYYYYYYYYYYY",
"YYYYYYYY 5  6nnGJLPIUUUUUUUUUUUUUUUUUUUk 5  6nnGHLPIUUUUUUUUUUUUUUUUUUUUUUU, ,  iddmMVADFFFFFFFFFFFFFFFFFFF> ,  YYYYYYYYYYYYYYYY",
"YYYYYYYY 5  6nnGHKPUUUUUUUUUUUUUUUUUUUUk 5  6nnGHKPUUUUUUUUUUUUUUUUUUUUUUUU, ,  iddmNCADFFFFFFFFFFFFFFFFFFF> ,  YYYYYYYYYYYYYYYY",
"YYYYYYYY 5  6nnGHLPIUUUUUUUUUUUUUUUUUUUk 5  6nnGJLPIUUUUUUUUUUUUUUUUUUUUUUU, ,  idsgNCADFFFFFFFFFFFFFFFFFFF> ,  YYYYYYYYYYYYYYYY",
"YYYYYYYY 5  6nnnJKPIUUUUUUUUUUUUUUUUUUUk 5  6nnnHKPIUUUUUUUUUUUUUUUUUUUUUUU- ,  iddgNCAAFFFFFFFFFFFFFFFFFFF> ,  YYYYYYYYYYYYYYYY",
"YYYYYYYY 5  6nnGHKPIUUUUUUUUUUUUUUUUUUUk 5  6nnGHKPIUUUUUUUUUUUUUUUUUUUUUUU- ,  ismmNCADFFFFFFFFFFFFFFFFFFF> ,  YYYYYYYYYYYYYYYY",
"YYYYYYYY 5  6nnGHLPUUUUUUUUUUUUUUUUUUUUk 5  6nnGHLPUUUUUUUUUUUUUUUUUUUUUUUU, ,  ussmNCADFFFFFFFFFFFFFFFFFFF> ,  YYYYYYYYYYYYYYYY",
"YYYYYYYY 5  6nnGJLPIUUUUUUUUUUUUUUUUUUUk 5  6nnGJLPIUUUUUUUUUUUUUUUUUUUUUUU, <  imsmNCADFFFFFFFFFFFFFFFFFFF> ,  YYYYYYYYYYYYYYYY",
"YYYYYYYY 5  6nnGHKPIUUUUUUUUUUUUUUUUUUUk 5  6nnGHKPIUUUUUUUUUUUUUUUUUUUUUUU, ,  issmNCAFFFFFFFFFFFFFFFFFFFF> ,  YYYYYYYYYYYYYYYY",
"YYYYYYYY 5  6nnnHLPIUUUUUUUUUUUUUUUUUUUk 5  6nnnHLPIUUUUUUUUUUUUUUUUUUUUUUU, ,  idggNCASFFFFFFFFFFFFFFFFFFF: ,  YYYYYYYYYYYYYYYY",
"YYYYYYYY 5  6nnGHLPIUUUUUUUUUUUUUUUUUUUk 5  6nnGHLPIUUUUUUUUUUUUUUUUUUUUUUU, ,  iddgNCASFFFFFFFFFFFFFFFFFFF> ,  YYYYYYYYYYYYYYYY",
"YYYYYYYY 5  6nnGHLPIUUUUUUUUUUUUUUUUUUUk 5  6nnGHLPIUUUUUUUUUUUUUUUUUUUUUUU, ,  iddhNCASFFFFFFFFFFFFFFFFFFF: ,  YYYYYYYYYYYYYYYY",
"YYYYYYYY 5  6nnGHLPIUUUUUUUUUUUUUUUUUUUk 5  6nnGHLPIUUUUUUUUUUUUUUUUUUUUUUU, ,  iddgNCASFFFFFFFFFFFFFFFFFFF> ,  YYYYYYYYYYYYYYYY",
"YYYYYYYY 5  6nnGHLPIUUUUUUUUUUUUUUUUUUUk 5  6nnGHLPIUUUUUUUUUUUUUUUUUUUUUUU, ,  iddgNCASFFFFFFFFFFFFFFFFFFF> ,  YYYYYYYYYYYYYYYY",
"YYYYYYYY 5  6nnGHLPIUUUUUUUUUUUUUUUUUUUk 5  6nnGHLPIUUUUUUUUUUUUUUUUUUUUUUU, ,  idggNCASFFFFFFFFFFFFFFFFFFF> ,  YYYYYYYYYYYYYYYY",
"YYYYYYYY 5  6nnGHLPIUUUUUUUUUUUUUUUUUUUk 5  6nnGHLPIUUUUUUUUUUUUUUUUUUUUUUU, ,  idggNCASFFFFFFFFFFFFFFFFFFF> ,  YYYYYYYYYYYYYYYY",
"YYYYYYYY 5  6nnnHKPUUUUUUUUUUUUUUUUUUUUk 5  6nnnHKPUUUUUUUUUUUUUUUUUUUUUUUU, ,  uddgNCASFFFFFFFFFFFFFFFFFFF> ,  YYYYYYYYYYYYYYYY",
"YYYYYYYY 5  6nnGHLPIUUUUUUUUUUUUUUUUUUUk 5  6nnGHLPIUUUUUUUUUUUUUUUUUUUUUUU, ,  idggNCASFFFFFFFFFFFFFFFFFFF> ,  YYYYYYYYYYYYYYYY",
"YYYYYYYY 5  6nnGHLPIUUUUUUUUUUUUUUUUUUUk 5  6nnGHLPIUUUUUUUUUUUUUUUUUUUUUUU, ,  iddgNCASFFFFFFFFFFFFFFFFFFF> ,  YYYYYYYYYYYYYYYY",
"YYYYYYYY 5  6nnGHKPIUUUUUUUUUUUUUUUUUUUk 5  6nnGHKPIUUUUUUUUUUUUUUUUUUUUUUU, ,  idggNCASFFFFFFFFFFFFFFFFFFF> ,  YYYYYYYYYYYYYYYY",
"YYYYYYYY 5  6nnGJKPUUUUUUUUUUUUUUUUUUUUk 5  6nnGJKPUUUUUUUUUUUUUUUUUUUUUUUU, ,  uddgNCASFFFFFFFFFFFFFFFFFFF> ,  YYYYYYYYYYYYYYYY",
"YYYYYYYY 5  6nnGHLPIUUUUUUUUUUUUUUUUUUUk 5  6nnGHLPIUUUUUUUUUUUUUUUUUUUUUUU, <  iddgNCASFFFFFFFFFFFFFFFFFFF> ,  YYYYYYYYYYYYYYYY",
"YYYYYYYY 5  6nnGHLPIUUUUUUUUUUUUUUUUUUUk 6  6nnGHLPIUUUUUUUUUUUUUUUUUUUUUUU- 5  idggNCADFFFFFFFFFFFFFFFFFFF> <  YYYYYYYYYYYYYYYY",
"YYYYYYYY 5  6nnGJKPIUUUUUUUUUUUUUUUUUUUk 8  6nnGJKPIUUUUUUUUUUUUUUUUUUUUUUU,@5  idggNCASFFFFFFFFFFFFFFFFFFF> 5  YYYYYYYYYYYYYYYY",
"YYYYYYYY 5  6nnnJKPIUUUUUUUUUUUUUUUUUUUk 0  6nnnJKPIUUUUUUUUUUUUUUUUUUUUUUU,7,  uddgNCASFFFFFFFFFFFFFFFFFFF> 5  YYYYYYYYYYYYYYYY",
"YYYYYYYY 5  6nnGHLPIUUUUUUUUUUUUUUUUUUUk 0, 5GnGHKPIUUUUUUUUUUUUUUUUUUUUUUU,e   idfhNCADDFFFFFFFFFFFFFFFFFF1.5  YYYYYYYYYYYYYYYY",
"YYYYYYYY 5  6nnGHLPIUUUUUUUUUUUUUUUUUUUk.08 -000wekkkklkkllklkkllkkkkllklkk=e   iddgMCASFFFFFFFFFFFFFFFFFFC%,,  YYYYYYYYYYYYYYYY",
"YYYYYYYY 5  6nnGJKPIUUUUUUUUUUUUUUUUUUU7 w8   .                           =q8   iddhNCASFFFFFFFFFFFFFFFFFFpX8   YYYYYYYYYYYYYYYY",
"YYYYYYYY 5  6nnnHKPUUUUUUUUUUUUUUUUUUUz @0      =,55555555555<555555557qkeeeo   uddgNCASFFFFFFFFFFFFFFFFFD4.e   YYYYYYYYYYYYYYYY",
"YYYYYYYY 5  6nnGHLPIUUUUUUUUUUUUUUUUUz o8                                  .    yddhNCASFFFFFFFFFFFFFFFFFd+@7   YYYYYYYYYYYYYYYY",
"YYYYYYYY 5  6nnGHLPIUUUUUUUUUUUUUUUUz @w                                        tsdgNCASFFFFFFFFFFFFFFFFM> w    YYYYYYYYYYYYYYYY",
"YYYYYYYY 5  6nnGHLPIUUUUUUUUUUUUUUUz @e   @65555556556565566556666656656565O    tadgNCASFFFFFFFFFFFFFFDm3.0     YYYYYYYYYYYYYYYY",
"YYYYYYYY 5  6nnGHKPIUUUUUUUUUUUUUUz @e   <GGbbvvbbnnnnnnnGnnGnnnnnnnnnnnnGn=    radgNCASFFFFFFFFFFFFFFD9.0,   YYYYYYYYYYYYYYYYYY",
"YYYYYYYY 5  6nnGJKPUUUUUUUUUUUUUUz @e   <HGGbbbbbnnnnnnnnnnnnnnnnnnnnnnnnnn-    radgBCASFFFFFFFFFFFFFA3 87   YYYYYYYYYYYYYYYYYYY",
"YYYYYYYY 5  6nnGHLPIUUUUUUUUUUUUl @e   <HGnbbbbnnGGnGGGGGGGnnGGGGGGGnGGGGnG=    tadhMCASFFFFFFFFFFFFS3 78   YYYYYYYYYYYYYYYYYYYY",
"YYYYYYYY 5  6nnGHKPIUUUUUUUUUUUz @e   <HGnnnnnGHHHJHHHJHHHJHJHHHJHHHJHJHHHH- o  tadgBCADFFFFFFFFFFFA3 78   YYYYYYYYYYYYYYYYYYYYY",
"YYYYYYYY 5  6nnnJKPIUUUUUUUUUUz Ok   <HHGnbnGGJKKKKLKLKLKLKLLKLLKLKLKLKKLLK- -  yddgMCASFFFFFFFFFFD3 78.  YYYYYYYYYYYYYYYYYYYYYY",
"YYYYYYYY 5  6nnGJKPUUUUUUUUUUl Oe   <HHnbnnGHJLLLPPPPPPPPPPPPPPPPPPPPPPPPPP- ,  uddgMCASDFFFFFFFFS2 78   YYYYYYYYYYYYYYYYYYYYYYY",
"YYYYYYYY 5  6nnGHLPIUUUUUUUUz @k   <HGnnnnGHKLPIIIIIIIIIUIIIIIIIUIIIIIIIIII, ,  idfhNCASFFFFFFFFS2 88   YYYYYYYYYYYYYYYYYYYYYYYY",
"YYYYYYYY 5  6nnGHKPIUUUUUUUz @k   <HGGnbnGJKLPIIUUUUUUUUUUUUUUUUUUUUUUUUUUU- ,  udfgNCASFFFFFFFS2 78   YYYYYYYYYYYYYYYYYYYYYYYYY",
"YYYYYYYY 5  6nnGJKPIUUUUUUz @e   <HGGbnnGJKLPIUUUUUUUUUUUUUUUUUUUUUUUUUUUUU, ,  idfgNCADDFFFFFS2 78   YYYYYYYYYYYYYYYYYYYYYYYYYY",
"YYYYYYYY 5  6nnGHKPUUUUUUl @e   <HHnnnnGHKLIIIUUUUUUUUUUUUUUUUUUUUUUUUUUUUU, <  udfgNCASFFFFFS2 88   YYYYYYYYYYYYYYYYYYYYYYYYYYY",
"YYYYYYYY 5  6nnGHLPIUUUUz @e   <HGnnnnGJKLPIUUUUUUUUUUUUUUUUUUUUUUUUUUUUUUU, ,  idfgNCASFFFFS2 88   YYYYYYYYYYYYYYYYYYYYYYYYYYYY",
"YYYYYYYY 5  6nnGJKPIUUUz @e   <HHnbnnGHKLPUUUUUUUUUUUUUUUUUUUUUUUUUUUUUUUUU, ,  iddhNCASDFFS2 78   YYYYYYYYYYYYYYYYYYYYYYYYYYYYY",
"YYYYYYYY 5  6nnGHLPIUUz @e   <HHnnnnGHKLPIIUUUUUUUUUUUUUUUUUUUUUUUUUUUUUUUU, ,  iddhNCASFFS2 78   YYYYYYYYYYYYYYYYYYYYYYYYYYYYYY",
"YYYYYYYY 5  6nnGHLPIUz @k   <HGnnbnGJKLPIUUUUUUUUUUUUUUUUUUUUUUUUUUUUUUUUUU, ,  idfhNCASFS2 88   YYYYYYYYYYYYYYYYYYYYYYYYYYYYYYY",
"YYYYYYYY 5  6nnnJKPUl @e   <HHnnnnGJKLPIUUUUUUUUUUUUUUUUUUUUUUUUUUUUUUUUUUU, ,  idfgNCASS2 78   YYYYYYYYYYYYYYYYYYYYYYYYYYYYYYYY",
"YYYYYYYY 5  6nnGHLPl @e   <HGGnnnGJKLPIUUUUUUUUUUUUUUUUUUUUUUUUUUUUUUUUUUUU, ,  uddhNCAA2 78   YYYYYYYYYYYYYYYYYYYYYYYYYYYYYYYYY",
"YYYYYYYY 5  6nnGHKk @k   <HGGbnnGHKLPIIUUUUUUUUUUUUUUUUUUUUUUUUUUUUUUUUUUUU, ,  idfgNCC2 88   YYYYYYYYYYYYYYYYYYYYYYYYYYYYYYYYYY",
"YYYYYYYY 6  6nnGHe @e   <HGGnnnGHKLPIUUUUUUUUUUUUUUUUUUUUUUUUUUUUUUUUUUUUUU, <  iddgNV2 78   YYYYYYYYYYYYYYYYYYYYYYYYYYYYYYYYYYY",
"YYYYYYYY 6  6nnGe.@e   5HHnnbnGJKLIIUUUUUUUUUUUUUUUUUUUUUUUUUUUUUUUUUUUUUUU, 6  iddgj2 78   YYYYYYYYYYYYYYYYYYYYYYYYYYYYYYYYYYYY",
"YYYYYYYY 5, 6nnw ,e   5HGGnnnGHKLIIUUUUUUUUUUUUUUUUUUUUUUUUUUUUUUUUUUUUUUUU, 8  idgg1 78   YYYYYYYYYYYYYYYYYYYYYYYYYYYYYYYYYYYYY",
"YYYYYYYY ,q 6nq.7e   5HGnnbnGHKLPIIUUUUUUUUUUUUUUUUUUUUUUUUUUUUUUUUUUUUUUUU, q  idd: 08   YYYYYYYYYYYYYYYYYYYYYYYYYYYYYYYYYYYYYY",
"YYYYYYYY Oe 6q <5   <HGnnnnGJKLIIIUUUUUUUUUUUUUUUUUUUUUUUUUUUUUUUUUUUUUUUUU, q, is:Ow7   YYYYYYYYYYYYYYYYYYYYYYYYYYYYYYYYYYYYYYY",
"YYYYYYYY  e7-      5HHGnbnGJKLPIUUUUUUUUUUUUUUUUUUUUUUUUUUUUUUUUUUUUUUUUUUU, 0w u>o7O   YYYYYYYYYYYYYYYYYYYYYYYYYYYYYYYYYYYYYYYY",
"YYYYYYYY  8eO     <GGGbnnGHKLPIUUUUUUUUUUUUUUUUUUUUUUUUUUUUUUUUUUUUUUUUUUUU, 7e &      YYYYYYYYYYYYYYYYYYYYYYYYYYYYYYYYYYYYYYYYY",
"YYYYYYYY  ,e-    <nGnbnnGJKLPIUUUUUUUUUUUUUUUUUUUUUUUUUUUUUUUUUUUUUUUUUUUUU, 7e-      YYYYYYYYYYYYYYYYYYYYYYYYYYYYYYYYYYYYYYYYYY",
"YYYYYYYY  O0@   ,bnbnnnGJKLPUUUUUUUUUUUUUUUUUUUUUUUUUUUUUUUUUUUUUUUUUUUUUUU,.qw      YYYYYYYYYYYYYYYYYYYYYYYYYYYYYYYYYYYYYYYYYYY",
"YYYYYYYY   <   @000000qweekkkkkklkkllkkkkllklkklklkkklkkklkkklkkkllklkkllkk@7wO      YYYYYYYYYYYYYYYYYYYYYYYYYYYYYYYYYYYYYYYYYYY",
"YYYYYYYY                                                                 O7w8       YYYYYYYYYYYYYYYYYYYYYYYYYYYYYYYYYYYYYYYYYYYY",
"YYYYYYYY            @,<<<55<5<555<55555555555<55555555<5555555<555555560ew6        YYYYYYYYYYYYYYYYYYYYYYYYYYYYYYYYYYYYYYYYYYYYY",
"YYYYYYYY                                                                          YYYYYYYYYYYYYYYYYYYYYYYYYYYYYYYYYYYYYYYYYYYYYY",
"YYYYYYYY                                                                         YYYYYYYYYYYYYYYYYYYYYYYYYYYYYYYYYYYYYYYYYYYYYYY",
"YYYYYYYY                                                                        YYYYYYYYYYYYYYYYYYYYYYYYYYYYYYYYYYYYYYYYYYYYYYYY",
"YYYYYYYYYYYYYYYYYYYYYYYYYYYYYYYYYYYYYYYYYYYYYYYYYYYYYYYYYYYYYYYYYYYYYYYYYYYYYYYYYYYYYYYYYYYYYYYYYYYYYYYYYYYYYYYYYYYYYYYYYYYYYYYY",
"YYYYYYYYYYYYYYYYYYYYYYYYYYYYYYYYYYYYYYYYYYYYYYYYYYYYYYYYYYYYYYYYYYYYYYYYYYYYYYYYYYYYYYYYYYYYYYYYYYYYYYYYYYYYYYYYYYYYYYYYYYYYYYYY",
"YYYYYYYYYYYYYYYYYYYYYYYYYYYYYYYYYYYYYYYYYYYYYYYYYYYYYYYYYYYYYYYYYYYYYYYYYYYYYYYYYYYYYYYYYYYYYYYYYYYYYYYYYYYYYYYYYYYYYYYYYYYYYYYY",
"YYYYYYYYYYYYYYYYYYYYYYYYYYYYYYYYYYYYYYYYYYYYYYYYYYYYYYYYYYYYYYYYYYYYYYYYYYYYYYYYYYYYYYYYYYYYYYYYYYYYYYYYYYYYYYYYYYYYYYYYYYYYYYYY",
"YYYYYYYYYYYYYYYYYYYYYYYYYYYYYYYYYYYYYYYYYYYYYYYYYYYYYYYYYYYYYYYYYYYYYYYYYYYYYYYYYYYYYYYYYYYYYYYYYYYYYYYYYYYYYYYYYYYYYYYYYYYYYYYY",
"YYYYYYYYYYYYYYYYYYYYYYYYYYYYYYYYYYYYYYYYYYYYYYYYYYYYYYYYYYYYYYYYYYYYYYYYYYYYYYYYYYYYYYYYYYYYYYYYYYYYYYYYYYYYYYYYYYYYYYYYYYYYYYYY",
"YYYYYYYYYYYYYYYYYYYYYYYYYYYYYYYYYYYYYYYYYYYYYYYYYYYYYYYYYYYYYYYYYYYYYYYYYYYYYYYYYYYYYYYYYYYYYYYYYYYYYYYYYYYYYYYYYYYYYYYYYYYYYYYY",
"YYYYYYYYYYYYYYYYYYYYYYYYYYYYYYYYYYYYYYYYYYYYYYYYYYYYYYYYYYYYYYYYYYYYYYYYYYYYYYYYYYYYYYYYYYYYYYYYYYYYYYYYYYYYYYYYYYYYYYYYYYYYYYYY",
"YYYYYYYYYYYYYYYYYYYYYYYYYYYYYYYYYYYYYYYYYYYYYYYYYYYYYYYYYYYYYYYYYYYYYYYYYYYYYYYYYYYYYYYYYYYYYYYYYYYYYYYYYYYYYYYYYYYYYYYYYYYYYYYY"
};
