/* XPM */
static char *satin[] = {
/* columns rows colors chars-per-pixel */
"128 128 70 1 ",
"  c #000000",
". c #0C0000",
"X c #0C0C0C",
"o c #140000",
"O c #190000",
"+ c #140F0F",
"@ c gray8",
"# c #1C1C1C",
"$ c #250000",
"% c #2B0000",
"& c #330000",
"* c #3D0101",
"= c #360808",
"- c #3F0C0C",
"; c #211E1E",
": c #371010",
"> c #222222",
", c #2C2C2C",
"< c #343434",
"1 c #3B3B3B",
"2 c #440000",
"3 c #4C0000",
"4 c #540000",
"5 c #5C0000",
"6 c #471414",
"7 c #640000",
"8 c #6B0000",
"9 c #740000",
"0 c #7C0000",
"q c #4F2F2F",
"w c #512020",
"e c #502D2D",
"r c #5C3B3B",
"t c #672323",
"y c #692929",
"u c #444444",
"i c #494444",
"p c #4C4C4C",
"a c #545454",
"s c #5C5353",
"d c #595959",
"f c #646464",
"g c #6C6C6C",
"h c #747474",
"j c #787878",
"k c #800101",
"l c #850B0B",
"z c #8A1313",
"x c #8E1D1D",
"c c #912323",
"v c #962C2C",
"b c #993333",
"n c #9D3B3B",
"m c #A24444",
"M c #A54C4C",
"N c #A95353",
"B c #AD5B5B",
"V c #B16363",
"C c #B56B6B",
"Z c #BA7474",
"A c #BE7C7C",
"S c #C08181",
"D c #C68C8C",
"F c #C99393",
"G c #CD9B9B",
"H c #D2A5A5",
"J c #D4A8A8",
"K c #D9B3B3",
"L c #DEBCBC",
"P c None",
/* pixels */
"PPPPPPPPPPPPPPPPPPPPPPPPPPPPPPPPPPPPPPPPPPPPPPPPPPPPPPPPPPPPPPPPPPPPPPPPPPPPPPPPPPPPPPPPPPPPPPPPPPPPPPPPPPPPPPPPPPPPPPPPPPPPPPPP",
"PPPPPPPPPPPPPPPPPPPPPPPPPPPPPPPPPPPPPPPPPPPPPPPPPPPPPPPPPPPPPPPPPPPPPPPPPPPPPPPPPPPPPPPPPPPPPPPPPPPPPPPPPPPPPPPPPPPPPPPPPPPPPPPP",
"PPPPPPPPPPPPPPPPPPPPPPPPPPPPPPPPPPPPPPPPPPPPPPPPPPPPPPPPPPPPPPPPPPPPPPPPPPPPPPPPPPPPPPPPPPPPPPPPPPPPPPPPPPPPPPPPPPPPPPPPPPPPPPPP",
"PPPPPPPPPPPPPPPPPPPPPPPPPPPPPPPPPPPPPPPPPPPPPPPPPPPPPPPPPPPPPPPPPPPPPPPPPPPPPPPPPPPPPPPPPPPPPPPPPPPPPPPPPPPPPPPPPPPPPPPPPPPPPPPP",
"PPPPPPPPPPPPPPPPPPPPPPPPPPPPPPPPPPPPPPPPPPPPPPPPPPPPPPPPPPPPPPPPPPPPPPPPPPPPPPPPPPPPPPPPPPPPPPPPPPPPPPPPPPPPPPPPPPPPPPPPPPPPPPPP",
"PPPPPPPPPPPPPPPPPPPPPPPPPPPPPPPPPPPPPPPPPPPPPPPPPPPPPPPPPPPPPPPPPPPPPPPPPPPPPPPPPPPPPPPPPPPPPPPPPPPPPPPPPPPPPPPPPPPPPPPPPPPPPPPP",
"PPPPPPPPPPPPPPPP0PPPPPPPPPPPPPPPPPPPPPPPPPPPPPPPPPPPPPPPPPPPPPPPPPPPPPPPPPPPPPPPPPPPPPPPPPPPPPPPPPPPPPPPPPPPP0PPPPPPPPPPPPPPPPPP",
"PPPPPPPPPPPPnvczk0009PPPPPPPPPPPPPPPPPPPPPPPPPPPPPPPPPPPPPPPPPPPPPPPPPPPPPPPPPPPPPPPPPPPPPPPPPPPPPPPPPPPPnvczk0009PPPPPPPPPPPPPP",
"PPPPPPPPPPmMBVCVmx00098PPPPPPPPPPPPPPPPPPPPPPPPPPPPPPPPPPPPPPPPPPPPPPPPPPPPPPPPPPPPPPPPPPPPPPPPPPPPPPPPmMBVCVmz00999PPPPPPPPPPPP",
"PPPPPPPPPnMZFJHGSVv00998PPPPPPPPPPPPPPPPPPPPPPPPPPPPPPPPPPPPPPPPPPPPPPPPPPPPPPPPPPPPPPPPPPPPPPPPPPPPPPnNZFJJGSVv00988PPPPPPPPPPP",
"PPPPPPPPcnCGLLJFACNc09987PPPPPPPPPPPPPPPPPPPPPPPPPPPPPPPPPPPPPPPPPPPPPPPPPPPPPPPPPPPPPPPPPPPPPPPPPPPPcnZJLLHDACMxk0987PPPPPPPPPP",
"PPPPPPPPzMDLKDVmnbbvk0988PPPPPPPPPPPPPPPPPPPPPPPPPPPPPPPPPPPPPPPPPPPPPPPPPPPPPPPPPPPPPPPPPPPPPPPPPPPPzMFLKSVmnbbvk0987PPPPPPPPPP",
"PPPPPPP0zBGHZmxzlllzk00985PPPPPPPPPPPPPPPPPPPPPPPPPPPPPPPPPPPPPPPPPPPPPPPPPPPPPPPPPPPPPPPPPPPPPPPPPPkzVHHZncllllzk09885PPPPPPPPP",
"PPPPPPP0lVFAnzlkkkkkk00877%PPPPPPPPPPPPPPPPPPPPPPPPPPPPPPPPPPPPPPPPPPPPPPPPPPPPPPPPPPPPPPPPPPPPPPPPP0zVDZnzlkkk0kk00977PPPPPPPPP",
"PPPPPPP0kNZNxl0kkkkkkk9985:;;#>>>>>>>>>>>>>>>>>>>>>>>>>>>>>>>>>>>>>>>>>>>>>>>>>>>>>>>>>>>>>>>>>>>>>60lBZMzlkkkkkkk008853PPPPPPPP",
"PPPPPP00kmBblkkkkkkkk00977wipaaaadddaddddaddddaddddddaddddadddadddadddddadddadddddaddddadddddddddasy00mBblkkkkkkk0009853PPPPPPPP",
"PPPPPP900xmckkkk0kkkk00975&.                                                                      .200xmckkkkkk0kkk09753PPPPPPPP",
"PPPPPP9900czkk0kkkkkk00875&                                                                        *900czkk0kkkkk0098753PPPPPPPP",
"PPPPPPP900klkkkkkkkk009855%                                                                     .X@69000lkkkkkkk0009855*PPPPPPPP",
"PPPPPPP8990kkkkkkkk0009754%PPPPPPPPPPPPPPPPPPPPPPPPPPPPPPPPPPPPPPPPPPPPPPPPPPPPPPPPPPPPPPPPPP@><iddr8900k0kkkkkkk009744PPPPPPPPP",
"PPPPPPP89990000kkk00098542PPPPPPPPPPPPPPPPPPPPPPPPPPPPPPPPPPPPPPPPPPPPPPPPPPPPPPPPPPPPPPPP#>1idda< .489000kkkkkk0097543PPPPPPPPP",
"PPPPPPPP8899000k000098544&PPPPPPPPPPPPPPPPPPPPPPPPPPPPPPPPPPPPPPPPPPPPPPPPPPPPPPPPPPPPP#><pdda<     %78990000k00998554&PPPPPPPPP",
"PPPPPPPP78889909099877442PPPPPPPPPPPPPPPPPPPPPPPPPPPPPPPPPPPPPPPPPPPPPPPPPPPPPPPPPPP#,1pffd<        o47889900999885442PPPPPPPPPP",
"PPPPPPPPP577788888875442PPPPPPPPPPPPPPPPPPPPPPPPPPPPPPPPPPPPPPPPPPPPPPPPPPPPPPPPP>,1aggd<         PPPP477788888775442PPPPPPPPPPP",
"PPPPPPPPPP4757775754432PPPPPPPPPPPPPPPPPPPPPPPPPPPPPPPPPPPPPPPPPPPPPPPPPPPPPPP><idghf<         PPPPPPPP4577577554432PPPPPPPPPPPP",
"PPPPPPPPPPPP444554433&PPPPPPPPPPPPPPPPPPPPPPPPPPPPPPPPPPPPPPPPPPPPPPPPPPPPP><ifghf<         PPPPPPPPPPPP*445544433&PPPPPPPPPPPPP",
"PPPPPPPPPPPPPP2222*&PPPPPPPPPPPPPPPPPPPPPPPPPPPPPPPPPPPPPPPPPPPPPPPPPPPP><pfhjf<        PPPPPPPPPPPPPPPPPP&*222*&PPPPPPPPPPPPPPP",
"PPPPPPPPPPPPPPPPPPPPPPPPPPPPPPPPPPPPPPPPPPPPPPPPPPPPPPPPPPPPPPPPPPPPP,<pfhjf,        PPPPPPPPPPPPPPPPPPPPPPPPPPPPPPPPPPPPPPPPPPP",
"PPPPPPPPPPPPPPPPPPPPPPPPPPPPPPPPPPPPPPPPPPPPPPPPPPPPPPPPPPPPPPPPPP,<pfjjf,        PPPPPPPPPPPPPPPPPPPPPPPPPPPPPPPPPPPPPPPPPPPPPP",
"PPPPPPPPPPPPPPPPPPPPPPPPPPPPPPPPPPPPPPPPPPPPPPPPPPPPPPPPPPPPPPP>1pfjjf>        PPPPPPPPPPPPPPPPPPPPPPPPPPPPPPPPPPPPPPPPPPPPPPPPP",
"PPPPPPPPPPPPPPPPPPPPPPPPPPPPPPPPPPPPPPPPPPPPPPPPPPPPPPPPPPPP,1pgjjd>        PPPPPPPPPPPPPPPPPPPPPPPPPPPPPPPPPPPPPPPPPPPPPPPPPPPP",
"PPPPPPPPPPPPPPPPPPPPPPPPPPPPPPPPPPPPPPPPPPPPPPPPPPPPPPPPP,1afjjd#        PPPPPPPPPPPPPPPPPPPPPPPPPPPPPPPPPPPPPPPPPPPPPPPPPPPPPPP",
"PPPPPPPPPPPPPPPPPPPPPPPPPPPPPPPPPPPPPPPPPPPPPPPPPPPPPP,1pfjjd#        PPPPPPPPPPPPPPPPPPPPPPPPPPPPPPPPPPPPPPPPPPPPPPPPPPPPPPPPPP",
"PPPPPPPPPPPPPPPPPPPPPPPPPPPPPPPPPPPPPPPPPPPPPPPPPPP,1agjja@        PPPPPPPPPPPPPPPPPPPPPPPPPPPPPPPPPPPPPPPPPPPPPPPPPPPPPPPPPPPPP",
"PPPPPPPPPPPPPPPPPPPPPPPPPPPPPPPPPPPPPPPPPPPPPPPP,1agjha@        PPPPPPPPPPPPPPPPPPPPPPPPPPPPPPPPPPPPPPPPPPPPPPPPPPPPPPPPPPPPPPPP",
"PPPPPPPPPPPPPPPPPPPPPPPPPPPPPPPPPPPPPPPPPPPPP,1agjha@        PPPPPPPPPPPPPPPPPPPPPPPPPPPPPPPPPPPPPPPPPPPPPPPPPPPPPPPPPPPPPPPPPPP",
"PPPPPPPPPPPPPPPPPPPPPPPPPPPPPPPPPPPPPPPPPP,udgjhpX        PPPPPPPPPPPPPPPPPPPPPPPPPPPPPPPPPPPPPPPPPPPPPPPPPPPPPPPPPPPPPPPPPPPPPP",
"PPPPPPPPPPPPPPPP0PPPPPPPPPPPPPPPPPPPPPP,udgjhpX        PPPPPPPPPPPPPPPPPPPPPPPPPPPPPPPPPPPPPPPPPPPPPPPPPPPPPP0PPPPPPPPPPPPPPPPPP",
"PPPPPPPPPPPPnbcz00009PPPPPPPPPPPPPP>,udhjgp         PPPPPPPPPPPPPPPPPPPPPPPPPPPPPPPPPPPPPPPPPPPPPPPPPPPPPnvcz00009PPPPPPPPPPPPPP",
"PPPPPPPPPPmmBVCVMx00098PPPPPPPPP>,idhjgi         PPPPPPPPPPPPPPPPPPPPPPPPPPPPPPPPPPPPPPPPPPPPPPPPPPPPPPmMBCCVmx00998PPPPPPPPPPPP",
"PPPPPPPPPnMZDJJGSVvk0998PPPPP><idhjgi         PPPPPPPPPPPPPPPPPPPPPPPPPPPPPPPPPPPPPPPPPPPPPPPPPPPPPPPPnMZFJJGABvk0998PPPPPPPPPPP",
"PPPPPPPPcnCHLLJDACNc00987P>,udhjgu         PPPPPPPPPPPPPPPPPPPPPPPPPPPPPPPPPPPPPPPPPPPPPPPPPPPPPPPPPPcnZHLLJDACNx09987PPPPPPPPPP",
"PPPPPPPPzMDLKDVMnbbvk0988qagjf1         PPPPPPPPPPPPPPPPPPPPPPPPPPPPPPPPPPPPPPPPPPPPPPPPPPPPPPPPPPPPPzMFLKSVmnbbvk0988PPPPPPPPPP",
"PPPPPPPkzBGJZmcllklzk0088ts1         PPPPPPPPPPPPPPPPPPPPPPPPPPPPPPPPPPPPPPPPPPPPPPPPPPPPPPPPPPPPPPP0zVHHZmxzlklzk09885PPPPPPPPP",
"PPPPPPPklVFZnzl0kk0kk00975O       PPPPPPPPPPPPPPPPPPPPPPPPPPPPPPPPPPPPPPPPPPPPPPPPPPPPPPPPPPPPPPPPPP0zVFZnzlkkkkkk00977PPPPPPPPP",
"PPPPPPP0kBZNxlkkkkkkkk9885%  XX################;#>>>>>>>>>>>>>>>>>>>>>>>>>>>>>>>>>>>>>>>>>>>>>>>>>>60lBZNzlkkkkkkk008872PPPPPPPP",
"PPPPPP900nBblkkkkkkkkk0987=>11uuuiuuiuiippppppaaaaaaaaaddddddadddadddddaddaddddddadddddaddddddddddsy00mBvlkk0kkkkk009773PPPPPPPP",
"PPPPPP90kxmckkkkkkkkk09975&.                                                                       300xmxkkkkkkkkk099753PPPPPPPP",
"PPPPPP9900czkkkkkkkkk00875%.                                                                       290kczkkkkkkkkk008752PPPPPPPP",
"PPPPPPP990klkkk0kkkkk09874%                                                                      X+69000lkkkk0kkk009855*PPPPPPPP",
"PPPPPPP990000kkkkkkk009754$ PPPPPPPPPPPPPPPPPPPPPPPPPPPPPPPPPPPPPPPPPPPPPPPPPPPPPPPPPPPPPPPPP@><psdr89000kkkkkkk0008754PPPPPPPPP",
"PPPPPPP88900kkkkkk00098552oPPPPPPPPPPPPPPPPPPPPPPPPPPPPPPPPPPPPPPPPPPPPPPPPPPPPPPPPPPPPPPP#><pdda< .3999000kkk000097543PPPPPPPPP",
"PPPPPPPP88990000000098744%PPPPPPPPPPPPPPPPPPPPPPPPPPPPPPPPPPPPPPPPPPPPPPPPPPPPPPPPPPPPP#>1pdfa<     %88900000000098744&PPPPPPPPP",
"PPPPPPPP77889990999975442PPPPPPPPPPPPPPPPPPPPPPPPPPPPPPPPPPPPPPPPPPPPPPPPPPPPPPPPPPP#,1affa<        o47889990909875432PPPPPPPPPP",
"PPPPPPPPP777788888775442PPPPPPPPPPPPPPPPPPPPPPPPPPPPPPPPPPPPPPPPPPPPPPPPPPPPPPPPP;,1afgd<         PPPP477888888775432PPPPPPPPPPP",
"PPPPPPPPPP4575577754432PPPPPPPPPPPPPPPPPPPPPPPPPPPPPPPPPPPPPPPPPPPPPPPPPPPPPPP><idghf<         PPPPPPPP3555777555432PPPPPPPPPPPP",
"PPPPPPPPPPPP454544433&PPPPPPPPPPPPPPPPPPPPPPPPPPPPPPPPPPPPPPPPPPPPPPPPPPPPP><ifhjf,         PPPPPPPPPPPP*444544433&PPPPPPPPPPPPP",
"PPPPPPPPPPPPPP2222*&PPPPPPPPPPPPPPPPPPPPPPPPPPPPPPPPPPPPPPPPPPPPPPPPPPPP><ifhjf,        PPPPPPPPPPPPPPPPPP&2222*&PPPPPPPPPPPPPPP",
"PPPPPPPPPPPPPPPPPPPPPPPPPPPPPPPPPPPPPPPPPPPPPPPPPPPPPPPPPPPPPPPPPPPPP>1pfjjf,        PPPPPPPPPPPPPPPPPPPPPPPPPPPPPPPPPPPPPPPPPPP",
"PPPPPPPPPPPPPPPPPPPPPPPPPPPPPPPPPPPPPPPPPPPPPPPPPPPPPPPPPPPPPPPPPP>1afjjf,        PPPPPPPPPPPPPPPPPPPPPPPPPPPPPPPPPPPPPPPPPPPPPP",
"PPPPPPPPPPPPPPPPPPPPPPPPPPPPPPPPPPPPPPPPPPPPPPPPPPPPPPPPPPPPPPP,1pfjjd>        PPPPPPPPPPPPPPPPPPPPPPPPPPPPPPPPPPPPPPPPPPPPPPPPP",
"PPPPPPPPPPPPPPPPPPPPPPPPPPPPPPPPPPPPPPPPPPPPPPPPPPPPPPPPPPPP,1afjjd>        PPPPPPPPPPPPPPPPPPPPPPPPPPPPPPPPPPPPPPPPPPPPPPPPPPPP",
"PPPPPPPPPPPPPPPPPPPPPPPPPPPPPPPPPPPPPPPPPPPPPPPPPPPPPPPPP>1pfjjd;        PPPPPPPPPPPPPPPPPPPPPPPPPPPPPPPPPPPPPPPPPPPPPPPPPPPPPPP",
"PPPPPPPPPPPPPPPPPPPPPPPPPPPPPPPPPPPPPPPPPPPPPPPPPPPPPP,1agjja#        PPPPPPPPPPPPPPPPPPPPPPPPPPPPPPPPPPPPPPPPPPPPPPPPPPPPPPPPPP",
"PPPPPPPPPPPPPPPPPPPPPPPPPPPPPPPPPPPPPPPPPPPPPPPPPPP>1agjha#        PPPPPPPPPPPPPPPPPPPPPPPPPPPPPPPPPPPPPPPPPPPPPPPPPPPPPPPPPPPPP",
"PPPPPPPPPPPPPPPPPPPPPPPPPPPPPPPPPPPPPPPPPPPPPPPP,1agjha@        PPPPPPPPPPPPPPPPPPPPPPPPPPPPPPPPPPPPPPPPPPPPPPPPPPPPPPPPPPPPPPPP",
"PPPPPPPPPPPPPPPPPPPPPPPPPPPPPPPPPPPPPPPPPPPPP,1agjhaX        PPPPPPPPPPPPPPPPPPPPPPPPPPPPPPPPPPPPPPPPPPPPPPPPPPPPPPPPPPPPPPPPPPP",
"PPPPPPPPPPPPPPPPPPPPPPPPPPPPPPPPPPPPPPPPPP,udgjhaX        PPPPPPPPPPPPPPPPPPPPPPPPPPPPPPPPPPPPPPPPPPPPPPPPPPPPPPPPPPPPPPPPPPPPPP",
"PPPPPPPPPPPPPPPP0PPPPPPPPPPPPPPPPPPPPPP,udgjhp         PPPPPPPPPPPPPPPPPPPPPPPPPPPPPPPPPPPPPPPPPPPPPPPPPPPPPP0PPPPPPPPPPPPPPPPPP",
"PPPPPPPPPPPPnbczk0009PPPPPPPPPPPPPP>,1dhjgp         PPPPPPPPPPPPPPPPPPPPPPPPPPPPPPPPPPPPPPPPPPPPPPPPPPPPPnvczk0009PPPPPPPPPPPPPP",
"PPPPPPPPPPmMBVCVmx00098PPPPPPPPP>,udhjgp         PPPPPPPPPPPPPPPPPPPPPPPPPPPPPPPPPPPPPPPPPPPPPPPPPPPPPPmMBVCVmx00998PPPPPPPPPPPP",
"PPPPPPPPPbMZFJHFSVv00998PPPPP><idhjgi         PPPPPPPPPPPPPPPPPPPPPPPPPPPPPPPPPPPPPPPPPPPPPPPPPPPPPPPPnMZFJHGABv00998PPPPPPPPPPP",
"PPPPPPPPcnCHLLJFAZNck0987P>,idhjgu         PPPPPPPPPPPPPPPPPPPPPPPPPPPPPPPPPPPPPPPPPPPPPPPPPPPPPPPPPPcnZHLLHDACMc00987PPPPPPPPPP",
"PPPPPPPPzMDLKDVMbbbck0987esgjg1         PPPPPPPPPPPPPPPPPPPPPPPPPPPPPPPPPPPPPPPPPPPPPPPPPPPPPPPPPPPPPzNFLKSVMbbbc00988PPPPPPPPPP",
"PPPPPPPkzBGHZmczlllzk0997ts1         PPPPPPPPPPPPPPPPPPPPPPPPPPPPPPPPPPPPPPPPPPPPPPPPPPPPPPPPPPPPPPP0zVHHZmxzlklzk09885PPPPPPPPP",
"PPPPPPP0lVFAnzkkkkkkk00885O       PPPPPPPPPPPPPPPPPPPPPPPPPPPPPPPPPPPPPPPPPPPPPPPPPPPPPPPPPPPPPPPPPP0zVFZnzlkkkkkk00885PPPPPPPPP",
"PPPPPPP0kBZNxl0kkk0kkk0885$. XX#################;#>>>>>>>>>>>>>>>>>>>>>>>>>>>>>>>>>>>>>>>>>>>>>>>>>60lBZMxlkkkkkkk009773PPPPPPPP",
"PPPPPP00knBblkkkkkkkkk0985=>11uuuuuiuiuuppppppaaaaaaaaadddadddaddddddddaadddddadddadddaddaddddddddsy0kmBvlkk0kkkkk009853PPPPPPPP",
"PPPPPP900xmckkkkkkkkk00875&.                                                                      .200xmxkkkkkkkkk008753PPPPPPPP",
"PPPPPP9900czkkkkkkkkk00875&                                                                        2900czkkkkkkkkk098753PPPPPPPP",
"PPPPPPP990klkkkkkkkkk09874%                                                                      X+6900klkkkkkkkkk09855*PPPPPPPP",
"PPPPPPP9900k0kkkkkk0009754$ PPPPPPPPPPPPPPPPPPPPPPPPPPPPPPPPPPPPPPPPPPPPPPPPPPPPPPPPPPPPPPPPP#><padr8900k0kkkkkk0009754PPPPPPPPP",
"PPPPPPP889900kkkkk00097542oPPPPPPPPPPPPPPPPPPPPPPPPPPPPPPPPPPPPPPPPPPPPPPPPPPPPPPPPPPPPPPP#><idfa< o399900kkkk000097543PPPPPPPPP",
"PPPPPPPP88990000k00098744&PPPPPPPPPPPPPPPPPPPPPPPPPPPPPPPPPPPPPPPPPPPPPPPPPPPPPPPPPPPPP#><pdfa,     %78990000000998544&PPPPPPPPP",
"PPPPPPPP77899990909885442PPPPPPPPPPPPPPPPPPPPPPPPPPPPPPPPPPPPPPPPPPPPPPPPPPPPPPPPPPP#>1adfd<        o47889990999887442PPPPPPPPPP",
"PPPPPPPPP577788888775442PPPPPPPPPPPPPPPPPPPPPPPPPPPPPPPPPPPPPPPPPPPPPPPPPPPPPPPPP>,uaggd<         PPPP477888888875432PPPPPPPPPPP",
"PPPPPPPPPP4557777555432PPPPPPPPPPPPPPPPPPPPPPPPPPPPPPPPPPPPPPPPPPPPPPPPPPPPPPP><idggf<         PPPPPPPP3757775554432PPPPPPPPPPPP",
"PPPPPPPPPPPP445444433&PPPPPPPPPPPPPPPPPPPPPPPPPPPPPPPPPPPPPPPPPPPPPPPPPPPPP><pdhhf<         PPPPPPPPPPPP*354544433&PPPPPPPPPPPPP",
"PPPPPPPPPPPPPP2222*&PPPPPPPPPPPPPPPPPPPPPPPPPPPPPPPPPPPPPPPPPPPPPPPPPPPP><pfjjf,        PPPPPPPPPPPPPPPPPP&2222*&PPPPPPPPPPPPPPP",
"PPPPPPPPPPPPPPPPPPPPPPPPPPPPPPPPPPPPPPPPPPPPPPPPPPPPPPPPPPPPPPPPPPPPP>1pfjjf,        PPPPPPPPPPPPPPPPPPPPPPPPPPPPPPPPPPPPPPPPPPP",
"PPPPPPPPPPPPPPPPPPPPPPPPPPPPPPPPPPPPPPPPPPPPPPPPPPPPPPPPPPPPPPPPPP>1afjjd,        PPPPPPPPPPPPPPPPPPPPPPPPPPPPPPPPPPPPPPPPPPPPPP",
"PPPPPPPPPPPPPPPPPPPPPPPPPPPPPPPPPPPPPPPPPPPPPPPPPPPPPPPPPPPPPPP,1afjjd>        PPPPPPPPPPPPPPPPPPPPPPPPPPPPPPPPPPPPPPPPPPPPPPPPP",
"PPPPPPPPPPPPPPPPPPPPPPPPPPPPPPPPPPPPPPPPPPPPPPPPPPPPPPPPPPPP,<afjhd>        PPPPPPPPPPPPPPPPPPPPPPPPPPPPPPPPPPPPPPPPPPPPPPPPPPPP",
"PPPPPPPPPPPPPPPPPPPPPPPPPPPPPPPPPPPPPPPPPPPPPPPPPPPPPPPPP,1agjhd#        PPPPPPPPPPPPPPPPPPPPPPPPPPPPPPPPPPPPPPPPPPPPPPPPPPPPPPP",
"PPPPPPPPPPPPPPPPPPPPPPPPPPPPPPPPPPPPPPPPPPPPPPPPPPPPPP,1agjha#        PPPPPPPPPPPPPPPPPPPPPPPPPPPPPPPPPPPPPPPPPPPPPPPPPPPPPPPPPP",
"PPPPPPPPPPPPPPPPPPPPPPPPPPPPPPPPPPPPPPPPPPPPPPPPPPP,1afjha@        PPPPPPPPPPPPPPPPPPPPPPPPPPPPPPPPPPPPPPPPPPPPPPPPPPPPPPPPPPPPP",
"PPPPPPPPPPPPPPPPPPPPPPPPPPPPPPPPPPPPPPPPPPPPPPPP,1agjha@        PPPPPPPPPPPPPPPPPPPPPPPPPPPPPPPPPPPPPPPPPPPPPPPPPPPPPPPPPPPPPPPP",
"PPPPPPPPPPPPPPPPPPPPPPPPPPPPPPPPPPPPPPPPPPPPP,1agjhaX        PPPPPPPPPPPPPPPPPPPPPPPPPPPPPPPPPPPPPPPPPPPPPPPPPPPPPPPPPPPPPPPPPPP",
"PPPPPPPPPPPPPPPPPPPPPPPPPPPPPPPPPPPPPPPPPP,udgjhaX        PPPPPPPPPPPPPPPPPPPPPPPPPPPPPPPPPPPPPPPPPPPPPPPPPPPPPPPPPPPPPPPPPPPPPP",
"PPPPPPPPPPPPPPPP0PPPPPPPPPPPPPPPPPPPPPP,udgjgpX        PPPPPPPPPPPPPPPPPPPPPPPPPPPPPPPPPPPPPPPPPPPPPPPPPPPPPP0PPPPPPPPPPPPPPPPPP",
"PPPPPPPPPPPPnbczk0009PPPPPPPPPPPPPP>,uahjgp         PPPPPPPPPPPPPPPPPPPPPPPPPPPPPPPPPPPPPPPPPPPPPPPPPPPPPnvczk0009PPPPPPPPPPPPPP",
"PPPPPPPPPPMMBVCVmx00998PPPPPPPPP>,udhjgi         PPPPPPPPPPPPPPPPPPPPPPPPPPPPPPPPPPPPPPPPPPPPPPPPPPPPPPmmBCCVmxk0098PPPPPPPPPPPP",
"PPPPPPPPPnMZFHJFAVvk0998PPPPP><udhjgu         PPPPPPPPPPPPPPPPPPPPPPPPPPPPPPPPPPPPPPPPPPPPPPPPPPPPPPPPnMZDHJGAVv00988PPPPPPPPPPP",
"PPPPPPPPcnCHLLHDACMx00987P>,udhjgu         PPPPPPPPPPPPPPPPPPPPPPPPPPPPPPPPPPPPPPPPPPPPPPPPPPPPPPPPPPcnCHLLJFACNc00987PPPPPPPPPP",
"PPPPPPPPzNFLKDVMnbbvk0987qagjg1         PPPPPPPPPPPPPPPPPPPPPPPPPPPPPPPPPPPPPPPPPPPPPPPPPPPPPPPPPPPPPzMFLKDVMnbvvk0987PPPPPPPPPP",
"PPPPPPP0zVGHZnxllklzk0998ys1         PPPPPPPPPPPPPPPPPPPPPPPPPPPPPPPPPPPPPPPPPPPPPPPPPPPPPPPPPPPPPPP0zBGHZmcllllzk09985PPPPPPPPP",
"PPPPPPP0zVFZnzkkkkkkk00875o       PPPPPPPPPPPPPPPPPPPPPPPPPPPPPPPPPPPPPPPPPPPPPPPPPPPPPPPPPPPPPPPPPP0lVFAmzlkk0kkkk0977PPPPPPPPP",
"PPPPPPP0lBZNxlkkkkkkkk9985$  XX##################>#>;>>>>>>>>>>>>>>>>>>>>>>>>>>>>>>>>>>>>>>>>>>>>>>60kNZMxk0kkkkkk099853PPPPPPPP",
"PPPPPP00kmBblkkkkkkkk00985->1uuuuiuuuiiipppppapaaaaadadddaddddddddddddadddddadddddddddadddddaddddssy0kmBblkkkkkkkk009754PPPPPPPP",
"PPPPPP900xnckkkk0kkkk00875&                                                                        200xmckkkk0kkkk009753PPPPPPPP",
"PPPPPP9900czkkkkkkkkk00875%                                                                        *900cxkkkkkkkkk008753PPPPPPPP",
"PPPPPPP900klkk0kkkkk009854%                                                                        *990kl0kkkkkkk0098742PPPPPPPP",
"PPPPPPP990000kkkkkk0008753$ PPPPPPPPPPPPPPPPPPPPPPPPPPPPPPPPPPPPPPPPPPPPPPPPPPPPPPPPPPPPPPPPPPPPPPPP99900kkkkkkk0008754PPPPPPPPP",
"PPPPPPP889000kkk0kk0098542oPPPPPPPPPPPPPPPPPPPPPPPPPPPPPPPPPPPPPPPPPPPPPPPPPPPPPPPPPPPPPPPPPPPPPPPPP78900kkkkkk0k098543PPPPPPPPP",
"PPPPPPPP88990000k00097744%PPPPPPPPPPPPPPPPPPPPPPPPPPPPPPPPPPPPPPPPPPPPPPPPPPPPPPPPPPPPPPPPPPPPPPPPPP378990000000998544*PPPPPPPPP",
"PPPPPPPP7788999099988544*PPPPPPPPPPPPPPPPPPPPPPPPPPPPPPPPPPPPPPPPPPPPPPPPPPPPPPPPPPPPPPPPPPPPPPPPPPPP57889999099885542PPPPPPPPPP",
"PPPPPPPPP777888888775432PPPPPPPPPPPPPPPPPPPPPPPPPPPPPPPPPPPPPPPPPPPPPPPPPPPPPPPPPPPPPPPPPPPPPPPPPPPPPP577788888875442PPPPPPPPPPP",
"PPPPPPPPPP5555757754432PPPPPPPPPPPPPPPPPPPPPPPPPPPPPPPPPPPPPPPPPPPPPPPPPPPPPPPPPPPPPPPPPPPPPPPPPPPPPPPP4577777555432PPPPPPPPPPPP",
"PPPPPPPPPPP3454544443&PPPPPPPPPPPPPPPPPPPPPPPPPPPPPPPPPPPPPPPPPPPPPPPPPPPPPPPPPPPPPPPPPPPPPPPPPPPPPPPPPP2445544432*PPPPPPPPPPPPP",
"PPPPPPPPPPPPPP2222*%PPPPPPPPPPPPPPPPPPPPPPPPPPPPPPPPPPPPPPPPPPPPPPPPPPPPPPPPPPPPPPPPPPPPPPPPPPPPPPPPPPPPPPP2222*&PPPPPPPPPPPPPPP",
"PPPPPPPPPPPPPPPPPPPPPPPPPPPPPPPPPPPPPPPPPPPPPPPPPPPPPPPPPPPPPPPPPPPPPPPPPPPPPPPPPPPPPPPPPPPPPPPPPPPPPPPPPPPPPPPPPPPPPPPPPPPPPPPP",
"PPPPPPPPPPPPPPPPPPPPPPPPPPPPPPPPPPPPPPPPPPPPPPPPPPPPPPPPPPPPPPPPPPPPPPPPPPPPPPPPPPPPPPPPPPPPPPPPPPPPPPPPPPPPPPPPPPPPPPPPPPPPPPPP",
"PPPPPPPPPPPPPPPPPPPPPPPPPPPPPPPPPPPPPPPPPPPPPPPPPPPPPPPPPPPPPPPPPPPPPPPPPPPPPPPPPPPPPPPPPPPPPPPPPPPPPPPPPPPPPPPPPPPPPPPPPPPPPPPP",
"PPPPPPPPPPPPPPPPPPPPPPPPPPPPPPPPPPPPPPPPPPPPPPPPPPPPPPPPPPPPPPPPPPPPPPPPPPPPPPPPPPPPPPPPPPPPPPPPPPPPPPPPPPPPPPPPPPPPPPPPPPPPPPPP",
"PPPPPPPPPPPPPPPPPPPPPPPPPPPPPPPPPPPPPPPPPPPPPPPPPPPPPPPPPPPPPPPPPPPPPPPPPPPPPPPPPPPPPPPPPPPPPPPPPPPPPPPPPPPPPPPPPPPPPPPPPPPPPPPP",
"PPPPPPPPPPPPPPPPPPPPPPPPPPPPPPPPPPPPPPPPPPPPPPPPPPPPPPPPPPPPPPPPPPPPPPPPPPPPPPPPPPPPPPPPPPPPPPPPPPPPPPPPPPPPPPPPPPPPPPPPPPPPPPPP",
"PPPPPPPPPPPPPPPPPPPPPPPPPPPPPPPPPPPPPPPPPPPPPPPPPPPPPPPPPPPPPPPPPPPPPPPPPPPPPPPPPPPPPPPPPPPPPPPPPPPPPPPPPPPPPPPPPPPPPPPPPPPPPPPP",
"PPPPPPPPPPPPPPPPPPPPPPPPPPPPPPPPPPPPPPPPPPPPPPPPPPPPPPPPPPPPPPPPPPPPPPPPPPPPPPPPPPPPPPPPPPPPPPPPPPPPPPPPPPPPPPPPPPPPPPPPPPPPPPPP"
};
