/* XPM */
static char *seisometricview[] = {
/* columns rows colors chars-per-pixel */
"128 128 78 1 ",
"  c #000000",
". c #050709",
"X c #0C0C0C",
"o c #090D10",
"O c #0D1116",
"+ c #141414",
"@ c #10151B",
"# c #1B1B1B",
"$ c #141A21",
"% c #242424",
"& c #292929",
"* c #202B36",
"= c #333333",
"- c #3C3C3C",
"; c #273442",
": c #2E3D4C",
"> c #334454",
", c #354759",
"< c #37485B",
"1 c #394B5E",
"2 c #3A4D60",
"3 c #444444",
"4 c #4B4B4B",
"5 c #535353",
"6 c #5C5C5C",
"7 c #40556B",
"8 c #445A71",
"9 c #49617A",
"0 c #646464",
"q c #6B6B6B",
"w c #747474",
"e c #7E7E7E",
"r c #4E6782",
"t c #506A85",
"y c #536E8A",
"u c #55708D",
"i c #6282A3",
"p c #6687AA",
"a c #6789AB",
"s c #6A8DB1",
"d c #6D90B6",
"f c #6F93B9",
"g c #7195BC",
"h c #7398BF",
"j c #769DC5",
"k c #789FC8",
"l c #7BA3CC",
"z c #7DA6D0",
"x c #7EA8D3",
"c c #838383",
"v c gray55",
"b c #939393",
"n c #9B9B9B",
"m c #A3A3A3",
"M c #ABABAB",
"N c #B5B5B5",
"B c #BBBBBB",
"V c #81ABD6",
"C c #82ACD8",
"Z c #86B1DE",
"A c #87B3E1",
"S c #89B6E4",
"D c #8BB8E7",
"F c #8DBBEB",
"G c #90BFF0",
"H c #92C1F2",
"J c #95C5F8",
"K c #97C9FC",
"L c #99CBFF",
"P c #C2C2C2",
"I c #CBCBCB",
"U c #D4D4D4",
"Y c #DADADA",
"T c #E3E3E3",
"R c #ECECEC",
"E c #F4F4F4",
"W c #FEFEFE",
"Q c None",
/* pixels */
"QQQQQQQQQQQQQQQQQQQQQQQQQQQQQQQQQQQQQQQQQQQQQQQQQQQQQQQQQQQQQQQQQQQQQQQQQQQQQQQQQQQQQQQQQQQQQQQQQQQQQQQQQQQQQQQQQQQQQQQQQQQQQQQQ",
"QQQQQQQQQQQQQQQQQQQQQQQQQQQQQQQQQQQQQQQQQQQQQQQQQQQQQQQQQQQQQQQQQQQQQQQQQQQQQQQQQQQQQQQQQQQQQQQQQQQQQQQQQQQQQQQQQQQQQQQQQQQQQQQQ",
"QQQQQQQQQQQQQQQQQQQQQQQQQQQQQQQQQQQQQQQQQQQQQQQQQQQQQQQQQQQQQQQQQQQQQQQQQQQQQQQQQQQQQQQQQQQQQQQQQQQQQQQQQQQQQQQQQQQQQQQQQQQQQQQQ",
"QQQQQQQQQQQQQQQQQQQQQQQQQQQQQQQQQQQQQQQQQQQQQQQQQQQQQQQQQQQQQQQQQQQQQQQQQQQQQQQQQQQQQQQQQQQQQQQQQQQQQQQQQQQQQQQQQQQQQQQQQQQQQQQQ",
"QQQQQQQQQQQQQQQQQQQQQQQQQQQQQQQQQQQQQQQQQQQQQQQQQQQQQQQQQQQQQQQQQQQQQQQQQQQQQQQQQQQQQQQQQQQQQQQQQQQQQQQQQQQQQQQQQQQQQQQQQQQQQQQQ",
"QQQQQQQQQQQQQQQQQQQQQQQQQQQQQQQQQQQQQQQQQQQQQQQQQQQQQQQQQQQQ     QQQQQQQQQQQQQQQQQQQQQQQQQQQQQQQQQQQQQQQQQQQQQQQQQQQQQQQQQQQQQQQ",
"QQQQQQQQQQQQQQQQQQQQQQQQQQQQQQQQQQQQQQQQQQQQQQQQQQQQQQQQQQQ       QQQQQQQQQQQQQQQQQQQQQQQQQQQQQQQQQQQQQQQQQQQQQQQQQQQQQQQQQQQQQQ",
"QQQQQQQQQQQQQQQQQQQQQQQQQQQQQQQQQQQQQQQQQQQQQQQQQQQQQQQQQQ         QQQQQQQQQQQQQQQQQQQQQQQQQQQQQQQQQQQQQQQQQQQQQQQQQQQQQQQQQQQQQ",
"QQQQQQQQQQQQQQQQQQQQQQQQQQQQQQQQQQQQQQQQQQQQQQQQQQQQQQQQQ   =6%     QQQQQQQQQQQQQQQQQQQQQQQQQQQQQQQQQQQQQQQQQQQQQQQQQQQQQQQQQQQQ",
"QQQQQQQQQQQQQQQQQQQQQQQQQQQQQQQQQQQQQQQQQQQQQQQQQQQQQQQQ   6ew=      QQQQQQQQQQQQQQQQQQQQQQQQQQQQQQQQQQQQQQQQQQQQQQQQQQQQQQQQQQQ",
"QQQQQQQQQQQQQQQQQQQQQQQQQQQQQQQQQQQQQQQQQQQQQQQQQQQQQQQ  %wq3.        QQQQQQQQQQQQQQQQQQQQQQQQQQQQQQQQQQQQQQQQQQQQQQQQQQQQQQQQQQ",
"QQQQQQQQQQQQQQQQQQQQQQQQQQQQQQQQQQQQQQQQQQQQQQQQQQQQQQ  4w#            QQQQQQQQQQQQQQQQQQQQQQQQQQQQQQQQQQQQQQQQQQQQQQQQQQQQQQQQQ",
"QQQQQQQQQQQQQQQQQQQQQQQQQQQQQQQQQQQQQQQQQQQQQQQQQQQQQ  w5  #     X      QQQQQQQQQQQQQQQQQQQQQQQQQQQQQQQQQQQQQQQQQQQQQQQQQQQQQQQQ",
"QQQQQQQQQQQQQQQQQQQQQQQQQQQQQQQQQQQQQQQQQQQQQQQQQQQQ  e+  %n     0+      QQQQQQQQQQQQQQQQQQQQQQQQQQQQQQQQQQQQQQQQQQQQQQQQQQQQQQQ",
"QQQQQQQQQQQQQQQQQQQQQQQQQQQQQQQQQQQQQQQQQQQQQQQQQQQ  c   %Pn     wb+      QQQQQQQQQQQQQQQQQQQQQQQQQQQQQQQQQQQQQQQQQQQQQQQQQQQQQQ",
"QQQQQQQQQQQQQQQQQQQQQQQQQQQQQQQQQQQQQQQQQQQQQQQQQQ  e   %PIn     wMb+      QQQQQQQQQQQQQQQQQQQQQQQQQQQQQQQQQQQQQQQQQQQQQQQQQQQQQ",
"QQQQQQQQQQQQQQQQQQQQQQQQQQQQQQQQQQQQQQQQQQQQQQQQQ  e   %PIPb     wMMn+      QQQQQQQQQQQQQQQQQQQQQQQQQQQQQQQQQQQQQQQQQQQQQQQQQQQQ",
"QQQQQQQQQQQQQQQQQQQQQQQQQQQQQQQQQQQQQQQQQQQQQQQQ  c   %PIPBb     wMMNn+      QQQQQQQQQQQQQQQQQQQQQQQQQQQQQQQQQQQQQQQQQQQQQQQQQQQ",
"QQQQQQQQQQQQQQQQQQQQQQQQQQQQQQQQQQQQQQQQQQQQQQQ  e   %PIBBBb  .  eNNBBM+      QQQQQQQQQQQQQQQQQQQQQQQQQQQQQQQQQQQQQQQQQQQQQQQQQQ",
"QQQQQQQQQQQQQQQQQQQQQQQQQQQQQQQQQQQQQQQQQQQQQQ  c   %PIPBBBn  X  wNNBPIN+      QQQQQQQQQQQQQQQQQQQQQQQQQQQQQQQQQQQQQQQQQQQQQQQQQ",
"QQQQQQQQQQQQQQQQQQQQQQQQQQQQQQQQQQQQQQQQQQQQQ  e   %PIPBBBPm  +  cNNBIUUN+      QQQQQQQQQQQQQQQQQQQQQQQQQQQQQQQQQQQQQQQQQQQQQQQQ",
"QQQQQQQQQQQQQQQQQQQQQQQQQQQQQQQQQQQQQQQQQQQQ  e   %PIPBNBPIM  X  wNBPUYYYB#      QQQQQQQQQQQQQQQQQQQQQQQQQQQQQQQQQQQQQQQQQQQQQQQ",
"QQQQQQQQQQQQQQQQQQQQQQQQQQQQQQQQQQQQQQQQQQQ  c   %PIBBBPPIYN  +  eNBPUTTRTB#      QQQQQQQQQQQQQQQQQQQQQQQQQQQQQQQQQQQQQQQQQQQQQQ",
"QQQQQQQQQQQQQQQQQQQQQQQQQQQQQQQQQQQQQQQQQQ  e   %PIBBBBPIYTB  X  eBBPUTRRRTB+      QQQQQQQQQQQQQQQQQQQQQQQQQQQQQQQQQQQQQQQQQQQQQ",
"QQQQQQQQQQQQQQQQQQQQQQQQQQQQQQQQQQQQQQQQQ  e   %PIBBBBPUYTRP  X  eNBPYTREERTB#      QQQQQQQQQQQQQQQQQQQQQQQQQQQQQQQQQQQQQQQQQQQQ",
"QQQQQQQQQQQQQQQQQQQQQQQQQQQQQQQQQQQQQQQQ  c   %PIPBBBPIYTREP  +  eNBPUTEEWERTB+      QQQQQQQQQQQQQQQQQQQQQQQQQQQQQQQQQQQQQQQQQQQ",
"QQQQQQQQQQQQQQQQQQQQQQQQQQQQQQQQQQQQQQQ  e   %PIBBBBPIYTREWP  +  eNBPUTEEWWERTB#      QQQQQQQQQQQQQQQQQQQQQQQQQQQQQQQQQQQQQQQQQQ",
"QQQQQQQQQQQQQQQQQQQQQQQQQQQQQQQQQQQQQQ  c   %PIPBBBPIYTREWWI  X  eNBPUTEWWWEERTB+      QQQQQQQQQQQQQQQQQQQQQQQQQQQQQQQQQQQQQQQQQ",
"QQQQQQQQQQQQQQQQQQQQQQQQQQQQQQQQQQQQQ  e   %PIBBBBPIYTREWWWI  +  eNBPUTREWWWWERYB#      QQQQQQQQQQQQQQQQQQQQQQQQQQQQQQQQQQQQQQQQ",
"QQQQQQQQQQQQQQQQQQQQQQQQQQQQQQQQQQQQ  c   %PIPBBBPUYTEEWWWWP  X  eNBPUTEWWWWWWERTB#      QQQQQQQQQQQQQQQQQQQQQQQQQQQQQQQQQQQQQQQ",
"QQQQQQQQQQQQQQQQQQQQQQQQQQQQQQQQQQQ  e   %PIPBBBPIYTREWWWWWI  X  eNBPUTEEWWWWWEERTB#      QQQQQQQQQQQQQQQQQQQQQQQQQQQQQQQQQQQQQQ",
"QQQQQQQQQQQQQQQQQQQQQQQQQQQQQQQQQQ  c   %PIBBBBPIYTREEWWWWWI  +  eNBPYTEWWWWWWWWERTB+      QQQQQQQQQQQQQQQQQQQQQQQQQQQQQQQQQQQQQ",
"QQQQQQQQQQQQQQQQQQQQQQQQQQQQQQQQQ  c   %PIPBBBPIYTREWWWWWWWI  +  eNBPUTEWWWWWWWWWERTB#      QQQQQQQQQQQQQQQQQQQQQQQQQQQQQQQQQQQQ",
"QQQQQQQQQQQQQQQQQQQQQQQQQQQQQQQQ  e   %PIBBBBPIYTREWWWWWWWWI  X  eNBPUTEEWWWWWWWWWERTB#      QQQQQQQQQQQQQQQQQQQQQQQQQQQQQQQQQQQ",
"QQQQQQQQQQQQQQQQQQQQQQQQQQQQQQQ  e   %PIPBNBPIYTREWWWWWWWWWI  +  eNBPUTEWWWWWWWWWWEERTB+      QQQQQQQQQQQQQQQQQQQQQQQQQQQQQQQQQQ",
"QQQQQQQQQQQQQQQQQQQQQQQQQQQQQQ  c   %PIPBBBPIYTEEEWWWWWWWWWI  +  eBBPUTREWWWWWWWWWWWERTB#      QQQQQQQQQQQQQQQQQQQQQQQQQQQQQQQQQ",
"QQQQQQQQQQQQQQQQQQQQQQQQQQQQQ  e   %PIBBBBPIYTEEWWWWWWWWWWWI  #  eNBPYTEWWWWWWWWWWWWWERTB#      QQQQQQQQQQQQQQQQQQQQQQQQQQQQQQQQ",
"QQQQQQQQQQQQQQQQQQQQQQQQQQQQ  e   %PIPBBBPIYTREWWWWWWWWWWWWI X=  eNBPUTEEWWWWWWWWWWWWEERTB#      QQQQQQQQQQQQQQQQQQQQQQQQQQQQQQQ",
"QQQQQQQQQQQQQQQQQQQQQQQQQQQ  c   %PIBBBBPUYTREWWWWWWWWWWWWWI &3  eNBPUTEWWWWWWWWWWWWWWWERTB#      QQQQQQQQQQQQQQQQQQQQQQQQQQQQQQ",
"QQQQQQQQQQQQQQQQQQQQQQQQQQ  e   %PIBBBBPIYTREEWWWWWWWWWWWWWI 34  eNBPUTEEWWWWWWWWWWWWWWWERTB#      QQQQQQQQQQQQQQQQQQQQQQQQQQQQQ",
"QQQQQQQQQQQQQQQQQQQQQQQQQ  0+  %PIPBBPPIYTREWWWWWWWWWWWWWWWv 04  0NBPUTEEWWWWWWWWWWWWWWWWERTB+  .   QQQQQQQQQQQQQQQQQQQQQQQQQQQQ",
"QQQQQQQQQQQQQQQQQQQQQQQQ  34  %PIPBBBPIYTREWWWWWWWWWWWWWWWN. w-  .bBPUTEWWWWWWWWWWWWWWWWWEERTB#  &   QQQQQQQQQQQQQQQQQQQQQQQQQQQ",
"QQQQQQQQQQQQQQQQQQQQQQQ   e  %PIBBBBPIYTREEWWWWWWWWWWWWWWN. 34    XbPUTREWWWWWWWWWWWWWWWWWWERTB#  -   QQQQQQQQQQQQQQQQQQQQQQQQQQ",
"QQQQQQQQQQQQQQQQQQQQQQ   4q .MIPBBBPIYTRWWWWWWWWWWWWWWWWN. 0%      XnITREWWWWWWWWWWWWWWWWWWWERTB# q    QQQQQQQQQQQQQQQQQQQQQQQQQ",
"QQQQQQQQQQQQQQQQQQQQQQ   54  #MBNBPIYTREWWWWWWWWWWWWWWWN. eX  .     XmYTEEWWWWWWWWWWWWWWWWWWWERTB#&q    QQQQQQQQQQQQQQQQQQQQQQQQ",
"QQQQQQQQQQQQQQQQQQQQQQQ  =-   #nNBIYTREWWWWWWWWWWWWWWWNX e   %m+     XMYREWWWWWWWWWWWWWWWWWWWWERT6.e    QQQQQQQQQQQQQQQQQQQQQQQQ",
"QQQQQQQQQQQQQQQQQQQQQQQ  .+    #mPIYTEWWWWWWWWWWWWWWWN. e   %PIm+     XMYREEWWWWWWWWWWWWWWWWWWWEw #c    QQQQQQQQQQQQQQQQQQQQQQQQ",
"QQQQQQQQQQQQQQQQQQQQQQQ         +MUTREEWWWWWWWWWWWWWN. e   %PIBBn+     XMTREWWWWWWWWWWWWWWWWWWWw  4w    QQQQQQQQQQQQQQQQQQQQQQQQ",
"QQQQQQQQQQQQQQQQQQQQQQQ          #BYREEWWWWWWWWWWWWN. e   %PIBBNBm+     XMTREWWWWWWWWWWWWWWWWWe  =q4    QQQQQQQQQQQQQQQQQQQQQQQQ",
"QQQQQQQQQQQQQQQQQQQQQQQ    3X     #BTREWWWWWWWWWWWN. e   %PIPBNBBPM+     XmTREEWWWWWWWWWWWWWWw  4q3     QQQQQQQQQQQQQQQQQQQQQQQQ",
"QQQQQQQQQQQQQQQQQQQQQQQ    5vX     #PTREWWWWWWWWWN. e   %PIPBBBPPUUN#     XMTREEWWWWWWWWWWWWe  q6       QQQQQQQQQQQQQQQQQQQQQQQQ",
"QQQQQQQQQQQQQQQQQQQQQQQ    5Nc.     #BTREEWWWWWWB. e   %PIBBBBPIUYYYB+     +MTREWWWWWWWWWWWe %e#  ;     QQQQQQQQQQQQQQQQQQQQQQQQ",
"QQQQQQQQQQQQQQQQQQQQQQQ +  5BMc.     #PTREWWWWWN. e   %PIBBBBPIYTRRTTB#     .MTREEWWWWWWWWe %c   >s     QQQQQQQQQQQQQQQQQQQQQQQQ",
"QQQQQQQQQQQQQQQQQQQQQQQ &  5NNNv.     #BTREWWWB. e   %PIPBBBPIYTREEERTB+     XMTREEWWWWWWe &e   >xa     QQQQQQQQQQQQQQQQQQQQQQQQ",
"QQQQQQQQQQQQQQQQQQQQQQQ -  5BNNBbX     #PTREWNX e   %PIPBBBPUYTREEWEERTB+     XMTREEWWWWe &e   >Vzi     QQQQQQQQQQQQQQQQQQQQQQQQ",
"QQQQQQQQQQQQQQQQQQQQQQQ 3  5BNBPPnX     #PTRM..e   %PIPBBBPIYTREWWWWWERTB#     XMTREWWWe %c   >Vlki     QQQQQQQQQQQQQQQQQQQQQQQQ",
"QQQQQQQQQQQQQQQQQQQQQQQ 3  5BBBPUUnX  #  #Pm.Xe   %PIBBBBPUYTREEWWWWWEERTB#     XMTREEe &e   >Vzlji     QQQQQQQQQQQQQQQQQQQQQQQQ",
"QQQQQQQQQQQQQQQQQQQQQQQ 3  5BBPIUYYmX  0  +. 4   %PIPBNBPIYTREWWWWWWWWWERTB+     +MTRe =c   >Vlkjji  .  QQQQQQQQQQQQQQQQQQQQQQQQ",
"QQQQQQQQQQQQQQQQQQQQQQQ 3  5BBPUYTTTmX #e3      %PIPBBPPIYTREWWWWWWWWWWWERTB#  %  XMw 4w   >Vlkjjjp  X  QQQQQQQQQQQQQQQQQQQQQQQQ",
"QQQQQQQQQQQQQQQQQQQQQQQ 3  5BBPIYRRTTmX 5e6X   %BIBBBBPIYTREWWWWWWWWWWWWWERTB+  q# . =%   >Vzkjjjls  +  QQQQQQQQQQQQQQQQQQQQQQQQ",
"QQQQQQQQQQQQQQQQQQQQQQQ 3  5BBPUTREERYmXX05   #BPPBBBPIYTREWWWWWWWWWWWWWWEERTB# .e4X     >xzkjjklVf  X  QQQQQQQQQQQQQQQQQQQQQQQQ",
"QQQQQQQQQQQQQQQQQQQQQQQ 3  5BBPITREEERm. +    +mBNBBPIYTEEWWWWWWWWWWWWWWWWWERTB+ 35     >xlkjjjlVZj  +  QQQQQQQQQQQQQQQQQQQQQQQQ",
"QQQQQQQQQQQQQQQQQQQQQQQ 3  5BBPUTRWWWM.        #nNNPIUTREEWWWWWWWWWWWWWWWWWEWRTBX.    .2ljkjjjlVAFj  X  QQQQQQQQQQQQQQQQQQQQQQQQ",
"QQQQQQQQQQQQQQQQQQQQQQQ 3  5PBPUYREWN.+-        #nBPUTREWWWWWWWWWWWWWWWWWWWWWERw     .,fjjjjkzCAFHl  +  QQQQQQQQQQQQQQQQQQQQQQQQ",
"QQQQQQQQQQQQQQQQQQQQQQQ 3  5BBPUTREB..e   #X     +MPYTEEWWWWWWWWWWWWWWWWWWWWWWw =   .>fgggjjzCAFHJl  X  QQQQQQQQQQQQQQQQQQQQQQQQ",
"QQQQQQQQQQQQQQQQQQQQQQQ 3  5BBPITRN. e   %NbX     #NUTRWWWWWWWWWWWWWWWWWWWWWWe 4&  .:sgdgjjlCSFHJKz  +  QQQQQQQQQQQQQQQQQQQQQQQQ",
"QQQQQQQQQQQQQQQQQQQQQQQ 4  5BPPUTM. c   %BPNv.     #BTREWWWWWWWWWWWWWWWWWWWWe -w  .2ggggjklCAFHJJLz  X  QQQQQQQQQQQQQQQQQQQQQQQQ",
"QQQQQQQQQQQQQQQQQQQQQQQ 4  5BBPIm. e   %PIBNNvX     #PTREEWWWWWWWWWWWWWWWWWc &e   ,lkggjjlCSFHJJLLz  +  QQQQQQQQQQQQQQQQQQQQQQQQ",
"QQQQQQQQQQQQQQQQQQQQQQQ 5  5BBPn. c   %PIPBNNBb.     #BTREWWWWWWWWWWWWWWWWc &e   >xljhhllVAFHJKLLLx  +  QQQQQQQQQQQQQQQQQQQQQQQQ",
"QQQQQQQQQQQQQQQQQQQQQQQ 5X 5BBb.Xe   %PIBBBBPPPnX     #PTREWWWWWWWWWWWWWWe %e   >VllhhklVAFHHLKLLLz  X  QQQQQQQQQQQQQQQQQQQQQQQQ",
"QQQQQQQQQQQQQQQQQQQQQQQ 36 5Bv.3e   %PIPBBBPIUUUmX     #PTREEWWWWWWWWWWWc &e   ,VzljjllCAFHJLLLLLLz  X  QQQQQQQQQQQQQQQQQQQQQQQQ",
"QQQQQQQQQQQQQQQQQQQQQQQ &e 5v.-0   %PIBBBBPIUTTTYmX     #BTREWWWWWWWWWWc %e   ,VllhhllZAFHJLLLLLLLV  X  QQQQQQQQQQQQQQQQQQQQQQQQ",
"QQQQQQQQQQQQQQQQQQQQQQQ  e--.X    %PIPBNBPUYTRRRRYmX     #PTREEWWWWWWWc &e   >VzlhjllVAFHJLLLLLLLKZ  X  QQQQQQQQQQQQQQQQQQQQQQQQ",
"QQQQQQQQQQQQQQQQQQQQQQQ  w0.     %BIBBBBPIYTREWEERTmX     #PTREWWWWWWc %e   ,VlljjjlVAFHHKLLLLLLLLD. +  QQQQQQQQQQQQQQQQQQQQQQQQ",
"QQQQQQQQQQQQQQQQQQQQQQQ  56     #NPPBBBPIYTREWWEWERYmX     #PTREWWWWc &e   ,VlljjjlZAFHJLLLLLLLLLLFO #  QQQQQQQQQQQQQQQQQQQQQQQQ",
"QQQQQQQQQQQQQQQQQQQQQQQ  =&    #MPBBNPPIYTREWWWWWEERTmX     #PTREWWc &e   ,VlkjjllVAFHJKLLLLLLLLLLHO %  QQQQQQQQQQQQQQQQQQQQQQQQ",
"QQQQQQQQQQQQQQQQQQQQQQQ       %mNNNBBIIYTREEWWWWWWWERTm.     #PTRWe &c   >VlljjkzVZFHJLLLLLLLLLLLLH@.%  QQQQQQQQQQQQQQQQQQQQQQQQ",
"QQQQQQQQQQQQQQQQQQQQQQ       #nMMNNBPIYTREWWWWWWWWWEERTmX  .  #PYw -e   ,VVljjklCAFHJKLLLLLLLLLLLLF$=.  QQQQQQQQQQQQQQQQQQQQQQQQ",
"QQQQQQQQQQQQQQQQQQQQQQ      .bMMMNBPIYTREWWWWWWWWWWWWERTm.  =  #0 36   ,ClkjjklVZFHJJLLLLLLLLLLLLLloq   QQQQQQQQQQQQQQQQQQQQQQQQ",
"QQQQQQQQQQQQQQQQQQQQQQQ      +bMNNPIYTREWWWWWWWWWWWWWEERTmX  65. #    ,ClljjklCAFHJKLLLLLLLLLLLLLH< q   QQQQQQQQQQQQQQQQQQQQQQQQ",
"QQQQQQQQQQQQQQQQQQQQQQQQ      +nNBIUTREEWWWWWWWWWWWWWWEERTm.  5q%    >VzljjjlCSFHJKLLLLLLLLLLLLLLi.6    QQQQQQQQQQQQQQQQQQQQQQQQ",
"QQQQQQQQQQQQQQQQQQQQQQQQQ      #nPIYTEWWWWWWWWWWWWWWWWWWERTm.  +    >llkjjjlCAFHHLLLLLLLLLLLLLLLu -6    QQQQQQQQQQQQQQQQQQQQQQQQ",
"QQQQQQQQQQQQQQQQQQQQQQQQQQ      #MUTREWWWWWWWWWWWWWWWWWWWERTm.     :ljjjjjlZAFHHLLLLLLLLLLLLLLLu =w    QQQQQQQQQQQQQQQQQQQQQQQQQ",
"QQQQQQQQQQQQQQQQQQQQQQQQQQQ      #NYREEWWWWWWWWWWWWWWWWWWEERT5    $jhgjjllVAFHKKLLLLLLLLLLLLLLu &e    QQQQQQQQQQQQQQQQQQQQQQQQQQ",
"QQQQQQQQQQQQQQQQQQQQQQQQQQQQ      #BTREWWWWWWWWWWWWWWWWWWWWERq    <gggjjlVAFHJLLLLLLLLLLLLLLLu %e    QQQQQQQQQQQQQQQQQQQQQQQQQQQ",
"QQQQQQQQQQQQQQQQQQQQQQQQQQQQQ      #PTREWWWWWWWWWWWWWWWWWWWEEq    1ffgjlVZFHJJLLLLLLLLLLLLLLy %c    QQQQQQQQQQQQQQQQQQQQQQQQQQQQ",
"QQQQQQQQQQQQQQQQQQQQQQQQQQQQQQ      #BTREEWWWWWWWWWWWWWWWWWWWw +  ,gfjjxZFHJLLLLLLLLLLLLLLLy &e    QQQQQQQQQQQQQQQQQQQQQQQQQQQQQ",
"QQQQQQQQQQQQQQQQQQQQQQQQQQQQQQQ      #PTREWWWWWWWWWWWWWWWWWWWw =  1gjjlCSHJJLLLLLLLLLLLLLLy &e    QQQQQQQQQQQQQQQQQQQQQQQQQQQQQQ",
"QQQQQQQQQQQQQQQQQQQQQQQQQQQQQQQQ      #PTREWWWWWWWWWWWWWWWWWWw 3  1jjjzAFHKLLLLLLLLLLLLLLy &e    QQQQQQQQQQQQQQQQQQQQQQQQQQQQQQQ",
"QQQQQQQQQQQQQQQQQQQQQQQQQQQQQQQQQ      #PTREWWWWWWWWWWWWWWWWWw 3  1jjlxAFJKLLLLLLLLLLLLLu &e    QQQQQQQQQQQQQQQQQQQQQQQQQQQQQQQQ",
"QQQQQQQQQQQQQQQQQQQQQQQQQQQQQQQQQQ      #PTREEWWWWWWWWWWWWWWWw 3  2jjlCSHJKLLLLLLLLLLLLy &e    QQQQQQQQQQQQQQQQQQQQQQQQQQQQQQQQQ",
"QQQQQQQQQQQQQQQQQQQQQQQQQQQQQQQQQQQ      #BTREWWWWWWWWWWWWWWWe 3  2jjlCDHJLLLLLLLLLLLLy %e    QQQQQQQQQQQQQQQQQQQQQQQQQQQQQQQQQQ",
"QQQQQQQQQQQQQQQQQQQQQQQQQQQQQQQQQQQQ      #PTREWWWWWWWWWWWWWWw.3  2jllCSFJKLLLLLLLLLLu &c    QQQQQQQQQQQQQQQQQQQQQQQQQQQQQQQQQQQ",
"QQQQQQQQQQQQQQQQQQQQQQQQQQQQQQQQQQQQQ      #PTREEWWWWWWWWWWWWe 3  2kjlCDHJLLLLLLLLLLu &e    QQQQQQQQQQQQQQQQQQQQQQQQQQQQQQQQQQQQ",
"QQQQQQQQQQQQQQQQQQQQQQQQQQQQQQQQQQQQQQ      #PTREWWWWWWWWWWWWw 3  2jjlVSHJKLLLLLLLLu &e    QQQQQQQQQQQQQQQQQQQQQQQQQQQQQQQQQQQQQ",
"QQQQQQQQQQQQQQQQQQQQQQQQQQQQQQQQQQQQQQQ      #BTREWWWWWWWWWWWw 3  2jjlVDHJLLLLLLLLu.&e    QQQQQQQQQQQQQQQQQQQQQQQQQQQQQQQQQQQQQQ",
"QQQQQQQQQQQQQQQQQQQQQQQQQQQQQQQQQQQQQQQQ      #PTREWWWWWWWWWWw 3  2kjlVFHJLLLLLLLu %e    QQQQQQQQQQQQQQQQQQQQQQQQQQQQQQQQQQQQQQQ",
"QQQQQQQQQQQQQQQQQQQQQQQQQQQQQQQQQQQQQQQQQ      #BTREWWWWWWWWWe 3  2jjlVSHHKLLLLLu %c    QQQQQQQQQQQQQQQQQQQQQQQQQQQQQQQQQQQQQQQQ",
"QQQQQQQQQQQQQQQQQQQQQQQQQQQQQQQQQQQQQQQQQQ      #PTREWWWWWWWWe 3  2kklCDHJLLLLLu &e    QQQQQQQQQQQQQQQQQQQQQQQQQQQQQQQQQQQQQQQQQ",
"QQQQQQQQQQQQQQQQQQQQQQQQQQQQQQQQQQQQQQQQQQQ      #PTREEWWWWWWw 3  2jjlCSHJLLLLy &e    QQQQQQQQQQQQQQQQQQQQQQQQQQQQQQQQQQQQQQQQQQ",
"QQQQQQQQQQQQQQQQQQQQQQQQQQQQQQQQQQQQQQQQQQQQ      #PTREWWWWWWw 3  2jjlCDHKLLLu &e    QQQQQQQQQQQQQQQQQQQQQQQQQQQQQQQQQQQQQQQQQQQ",
"QQQQQQQQQQQQQQQQQQQQQQQQQQQQQQQQQQQQQQQQQQQQQ      #BTREEWWWWe 3  2jjlCSHHLLu &e    QQQQQQQQQQQQQQQQQQQQQQQQQQQQQQQQQQQQQQQQQQQQ",
"QQQQQQQQQQQQQQQQQQQQQQQQQQQQQQQQQQQQQQQQQQQQQQ      #BTREWWWWw 3  2kjlCDHJLy &e    QQQQQQQQQQQQQQQQQQQQQQQQQQQQQQQQQQQQQQQQQQQQQ",
"QQQQQQQQQQQQQQQQQQQQQQQQQQQQQQQQQQQQQQQQQQQQQQQ      #PTREWWWe 3  2jklCSHJy %c    QQQQQQQQQQQQQQQQQQQQQQQQQQQQQQQQQQQQQQQQQQQQQQ",
"QQQQQQQQQQQQQQQQQQQQQQQQQQQQQQQQQQQQQQQQQQQQQQQQ      #PTREWWw 4  1ljlVDHy %c    QQQQQQQQQQQQQQQQQQQQQQQQQQQQQQQQQQQQQQQQQQQQQQQ",
"QQQQQQQQQQQQQQQQQQQQQQQQQQQQQQQQQQQQQQQQQQQQQQQQQ      #BTREWw 6  1jjlVSt &e    QQQQQQQQQQQQQQQQQQQQQQQQQQQQQQQQQQQQQQQQQQQQQQQQ",
"QQQQQQQQQQQQQQQQQQQQQQQQQQQQQQQQQQQQQQQQQQQQQQQQQQ      #PTREw q  2ljlVr %e    QQQQQQQQQQQQQQQQQQQQQQQQQQQQQQQQQQQQQQQQQQQQQQQQQ",
"QQQQQQQQQQQQQQQQQQQQQQQQQQQQQQQQQQQQQQQQQQQQQQQQQQQ      #PTRw-e  2jll9 %c    QQQQQQQQQQQQQQQQQQQQQQQQQQQQQQQQQQQQQQQQQQQQQQQQQQ",
"QQQQQQQQQQQQQQQQQQQQQQQQQQQQQQQQQQQQQQQQQQQQQQQQQQQQ      #PTcqw  1lj8 -e    QQQQQQQQQQQQQQQQQQQQQQQQQQQQQQQQQQQQQQQQQQQQQQQQQQQ",
"QQQQQQQQQQQQQQQQQQQQQQQQQQQQQQQQQQQQQQQQQQQQQQQQQQQQQ   +  #Pvw0  1j8 6w    QQQQQQQQQQQQQQQQQQQQQQQQQQQQQQQQQQQQQQQQQQQQQQQQQQQQ",
"QQQQQQQQQQQQQQQQQQQQQQQQQQQQQQQQQQQQQQQQQQQQQQQQQQQQQQ   -6=5bw4  28 3-    QQQQQQQQQQQQQQQQQQQQQQQQQQQQQQQQQQQQQQQQQQQQQQQQQQQQQ",
"QQQQQQQQQQQQQQQQQQQQQQQQQQQQQQQQQQQQQQQQQQQQQQQQQQQQQQQ   +wecw3+ *       QQQQQQQQQQQQQQQQQQQQQQQQQQQQQQQQQQQQQQQQQQQQQQQQQQQQQQ",
"QQQQQQQQQQQQQQQQQQQQQQQQQQQQQQQQQQQQQQQQQQQQQQQQQQQQQQQQ    3qq4%        QQQQQQQQQQQQQQQQQQQQQQQQQQQQQQQQQQQQQQQQQQQQQQQQQQQQQQQ",
"QQQQQQQQQQQQQQQQQQQQQQQQQQQQQQQQQQQQQQQQQQQQQQQQQQQQQQQQQ     &&        QQQQQQQQQQQQQQQQQQQQQQQQQQQQQQQQQQQQQQQQQQQQQQQQQQQQQQQQ",
"QQQQQQQQQQQQQQQQQQQQQQQQQQQQQQQQQQQQQQQQQQQQQQQQQQQQQQQQQQ             QQQQQQQQQQQQQQQQQQQQQQQQQQQQQQQQQQQQQQQQQQQQQQQQQQQQQQQQQ",
"QQQQQQQQQQQQQQQQQQQQQQQQQQQQQQQQQQQQQQQQQQQQQQQQQQQQQQQQQQQ           QQQQQQQQQQQQQQQQQQQQQQQQQQQQQQQQQQQQQQQQQQQQQQQQQQQQQQQQQQ",
"QQQQQQQQQQQQQQQQQQQQQQQQQQQQQQQQQQQQQQQQQQQQQQQQQQQQQQQQQQQQ         QQQQQQQQQQQQQQQQQQQQQQQQQQQQQQQQQQQQQQQQQQQQQQQQQQQQQQQQQQQ",
"QQQQQQQQQQQQQQQQQQQQQQQQQQQQQQQQQQQQQQQQQQQQQQQQQQQQQQQQQQQQQ       QQQQQQQQQQQQQQQQQQQQQQQQQQQQQQQQQQQQQQQQQQQQQQQQQQQQQQQQQQQQ",
"QQQQQQQQQQQQQQQQQQQQQQQQQQQQQQQQQQQQQQQQQQQQQQQQQQQQQQQQQQQQQQ     QQQQQQQQQQQQQQQQQQQQQQQQQQQQQQQQQQQQQQQQQQQQQQQQQQQQQQQQQQQQQ",
"QQQQQQQQQQQQQQQQQQQQQQQQQQQQQQQQQQQQQQQQQQQQQQQQQQQQQQQQQQQQQQQQQQQQQQQQQQQQQQQQQQQQQQQQQQQQQQQQQQQQQQQQQQQQQQQQQQQQQQQQQQQQQQQQ",
"QQQQQQQQQQQQQQQQQQQQQQQQQQQQQQQQQQQQQQQQQQQQQQQQQQQQQQQQQQQQQQQQQQQQQQQQQQQQQQQQQQQQQQQQQQQQQQQQQQQQQQQQQQQQQQQQQQQQQQQQQQQQQQQQ",
"QQQQQQQQQQQQQQQQQQQQQQQQQQQQQQQQQQQQQQQQQQQQQQQQQQQQQQQQQQQQQQQQQQQQQQQQQQQQQQQQQQQQQQQQQQQQQQQQQQQQQQQQQQQQQQQQQQQQQQQQQQQQQQQQ",
"QQQQQQQQQQQQQQQQQQQQQQQQQQQQQQQQQQQQQQQQQQQQQQQQQQQQQQQQQQQQQQQQQQQQQQQQQQQQQQQQQQQQQQQQQQQQQQQQQQQQQQQQQQQQQQQQQQQQQQQQQQQQQQQQ",
"QQQQQQQQQQQQQQQQQQQQQQQQQQQQQQQQQQQQQQQQQQQQQQQQQQQQQQQQQQQQQQQQQQQQQQQQQQQQQQQQQQQQQQQQQQQQQQQQQQQQQQQQQQQQQQQQQQQQQQQQQQQQQQQQ",
"QQQQQQQQQQQQQQQQQQQQQQQQQQQQQQQQQQQQQQQQQQQQQQQQQQQQQQQQQQQQQQQQQQQQQQQQQQQQQQQQQQQQQQQQQQQQQQQQQQQQQQQQQQQQQQQQQQQQQQQQQQQQQQQQ",
"QQQQQQQQQQQQQQQQQQQQQQQQQQQQQQQQQQQQQQQQQQQQQQQQQQQQQQQQQQQQQQQQQQQQQQQQQQQQQQQQQQQQQQQQQQQQQQQQQQQQQQQQQQQQQQQQQQQQQQQQQQQQQQQQ",
"QQQQQQQQQQQQQQQQQQQQQQQQQQQQQQQQQQQQQQQQQQQQQQQQQQQQQQQQQQQQQQQQQQQQQQQQQQQQQQQQQQQQQQQQQQQQQQQQQQQQQQQQQQQQQQQQQQQQQQQQQQQQQQQQ",
"QQQQQQQQQQQQQQQQQQQQQQQQQQQQQQQQQQQQQQQQQQQQQQQQQQQQQQQQQQQQQQQQQQQQQQQQQQQQQQQQQQQQQQQQQQQQQQQQQQQQQQQQQQQQQQQQQQQQQQQQQQQQQQQQ"
};
