/* XPM */
static char *snowflake[] = {
/* columns rows colors chars-per-pixel */
"128 128 77 1 ",
"  c #000000",
". c #0A0101",
"X c #0C0C0C",
"o c #130000",
"O c #1B0000",
"+ c #1B0C0C",
"@ c #131313",
"# c #1B1B1B",
"$ c #230000",
"% c #2B0000",
"& c #330000",
"* c #3B0000",
"= c #3C1C1C",
"- c #242424",
"; c #292727",
": c #2B2B2B",
"> c #343434",
", c #3C3C3C",
"< c #430000",
"1 c #4D0000",
"2 c #540000",
"3 c #5C0000",
"4 c #491212",
"5 c #521010",
"6 c #640000",
"7 c #6B0000",
"8 c #740000",
"9 c #7C0000",
"0 c #641414",
"q c #731B1B",
"w c #442525",
"e c #4C2A2A",
"r c #403636",
"t c #413F3F",
"y c #733131",
"u c #763F3F",
"i c #7A3C3C",
"p c #444444",
"a c #4E4646",
"s c #4B4B4B",
"d c #535353",
"f c #5C5C5C",
"g c #6F4242",
"h c #784E4E",
"j c #665757",
"k c #636363",
"l c #6B6767",
"z c #6C6C6C",
"x c #737373",
"c c #7D7D7D",
"v c #800101",
"b c #850A0A",
"n c #871414",
"m c #8A1414",
"M c #8D1D1D",
"N c #912424",
"B c #952A2A",
"V c #813737",
"C c #8F3232",
"Z c #803838",
"A c #993232",
"S c #9D3C3C",
"D c #814141",
"F c #9E4949",
"G c #A24444",
"H c #A64E4E",
"J c #AD5B5B",
"K c #B16262",
"L c #B56B6B",
"P c #BA7474",
"I c #BF7E7E",
"U c #C68C8C",
"Y c #CA9494",
"T c #D2A4A4",
"R c #D9B2B2",
"E c #DEBCBC",
"W c None",
/* pixels */
"WWWWWWWWWWWWWWWWWWWWWWWWWWWWWWWWWWWWWWWWWWWWWWWWWWWWWWWWWWWWWWWWWWWWWWWWWWWWWWWWWWWWWWWWWWWWWWWWWWWWWWWWWWWWWWWWWWWWWWWWWWWWWWWW",
"WWWWWWWWWWWWWWWWWWWWWWWWWWWWWWWWWWWWWWWWWWWWWWWWWWWWWWWWWWWWWWWWWWWWWWWWWWWWWWWWWWWWWWWWWWWWWWWWWWWWWWWWWWWWWWWWWWWWWWWWWWWWWWWW",
"WWWWWWWWWWWWWWWWWWWWWWWWWWWWWWWWWWWWWWWWWWWWWWWWWWWWWWWWWWWWWWWWWWWWWWWWWWWWWWWWWWWWWWWWWWWWWWWWWWWWWWWWWWWWWWWWWWWWWWWWWWWWWWWW",
"WWWWWWWWWWWWWWWWWWWWWWWWWWWWWWWWWWWWWWWWWWWWWWWWWWWWWWWWWWWWWWWWWWWWWWWWWWWWWWWWWWWWWWWWWWWWWWWWWWWWWWWWWWWWWWWWWWWWWWWWWWWWWWWW",
"WWWWWWWWWWWWWWWWWWWWWWWWWWWWWWWWWWWWWWWWWWWWWWWWWWWWWWWWWWWWWWWWWWWWWWWWWWWWWWWWWWWWWWWWWWWWWWWWWWWWWWWWWWWWWWWWWWWWWWWWWWWWWWWW",
"WWWWWWWWWWWWWWWWWWWWWWWWWWWWWWWWWWWWWWWWWWWWWWWWWWWWWWWWWWWWWWWWWWWWWWWWWWWWWWWWWWWWWWWWWWWWWWWWWWWWWWWWWWWWWWWWWWWWWWWWWWWWWWWW",
"WWWWWWWWWWWWWWWWWWWWWWWWWWWWWWWWWWWWWWWWWWWWWWWWWWWWWWWWWWWWWWWWWWWWWWWWWWWWWWWWWWWWWWWWWWWWWWWWWWWWWWWWWWWWWWWWWWWWWWWWWWWWWWWW",
"WWWWWWWWWWWWWWWWWWWWWWWWWWWWWWWWWWWWWWWWWWWWWWWWWWWWWWWWWWWWWp,-   WWWWWWWWWWWWWWWWWWWWWWWWWWWWWWWWWWWWWWWWWWWWWWWWWWWWWWWWWWWWW",
"WWWWWWWWWWWWWWWWWWWWWWWWWWWWWWWWWWWWWWWWWWWWWWWWWWWWWWWWWWWWW,st   WWWWWWWWWWWWWWWWWWWWWWWWWWWWWWWWWWWWWWWWWWWWWWWWWWWWWWWWWWWWW",
"WWWWWWWWWWWWWWWWWWWWWWWWWWWWWWWWWWWWWWWWWWWWWWWWWWWWWWWWWWWWW,kd#  WWWWWWWWWWWWWWWWWWWWWWWWWWWWWWWWWWWWWWWWWWWWWWWWWWWWWWWWWWWWW",
"WWWWWWWWWWWWWWWWWWWWWWWWWWWWWWWWWWWWWWWWWWWWWWWWWWWWWWWWWW:>,dcz,     WWWWWWWWWWWWWWWWWWWWWWWWWWWWWWWWWWWWWWWWWWWWWWWWWWWWWWWWWW",
"WWWWWWWWWWWWWWWWWWWWWWWWWWWWWWWWWWWWWWWWWWWWWWWWWWWWWWWWWW #,fxf:     WWWWWWWWWWWWWWWWWWWWWWWWWWWWWWWWWWWWWWWWWWWWWWWWWWWWWWWWWW",
"WWWWWWWWWWWWWWWWWWWWWWWWWWWWWWWWWWWWWWWWWWWWWWWWWWWWWWWWWW   #:@      WWWWWWWWWWWWWWWWWWWWWWWWWWWWWWWWWWWWWWWWWWWWWWWWWWWWWWWWWW",
"WWWWWWWWWWWWWWWWWWWWWWWWWWWWWWWWWWWWWWWWWWWWWWWWWWWWWWWWWW            WWWWWWWWWWWWWWWWWWWWWWWWWWWWWWWWWWWWWWWWWWWWWWWWWWWWWWWWWW",
"WWWWWWWWWWWWWWWWWWWWWWWWWWWWWWWWWWWWWWWWWWWWWWWWWWWWWWWWWW            WWWWWWWWWWWWWWWWWWWWWWWWWWWWWWWWWWWWWWWWWWWWWWWWWWWWWWWWWW",
"WWWWWWWWWWWWWWWWWWWWWWWWWWWWWWWWWWWWWWWWWWWWWWWWWWWWWWWWWWWWW      WWWWWWWWWWWWWWWWWWWWWWWWWWWWWWWWWWWWWWWWWWWWWWWWWWWWWWWWWWWWW",
"WWWWWWWWWWWWWWWWWWWWWWWWWWWWWWWWWWWWWWWWWWWWWWWWWWWWWWWWWWWWW      WWWWWWWWWWWWWWWWWWWWWWWWWWWWWWWWWWWWWWWWWWWWWWWWWWWWWWWWWWWWW",
"WWWWWWWWWWWWWWWWWWWWWWWWWWWWWWWWWWWWWWWWWWWWWWW,WWWWWWWWWWWWW      WWWWWWWWWWWWW.WWWWWWWWWWWWWWWWWWWWWWWWWWWWWWWWWWWWWWWWWWWWWWW",
"WWWWWWWWWWWWWWWWWWWWWWWWWWWWWWWWWWWWWWWWWWWWWWks.WWWWWWWWWWWW      WWWWWWWWWWWW-  WWWWWWWWWWWWWWWWWWWWWWWWWWWWWWWWWWWWWWWWWWWWWW",
"WWWWWWWWWWWWWWWWWWWWWWWWWWWWWWWWWWWWWWWWWWWWW:fcs  WWWWWWWWWW  #   WWWWWWWWWW,s>   WWWWWWWWWWWWWWWWWWWWWWWWWWWWWWWWWWWWWWWWWWWWW",
"WWWWWWWWWWWWWWWWWWWWWWWWWWWWWWWWWWWWWWWWWWWWW @fc,   WWWWWWWW  >   WWWWWWWW,szx@   WWWWWWWWWWWWWWWWWWWWWWWWWWWWWWWWWWWWWWWWWWWWW",
"WWWWWWWWWWWWWWWWWWWWWWWWWWWWWWWWWWWWWWWWWWWWW    >-   WWWWWWW -p   WWWWWWWpkcx     WWWWWWWWWWWWWWWWWWWWWWWWWWWWWWWWWWWWWWWWWWWWW",
"WWWWWWWWWWWWWWWWWWWWWWWWWWWWWWWWWWWWWWWWWWWWWW     @X   WWWWW-sf   WWWWW,fcc,     WWWWWWWWWWWWWWWWWWWWWWWWWWWWWWWWWWWWWWWWWWWWWW",
"WWWWWWWWWWWWWWWWWWWWWWWWWWWWWWWWWWWWWWWWWWWWWWWW     #    WWWdzlX  WWW,dxcf     WWWWWWWWWWWWWWWWWWWWWWWWWWWWWWWWWWWWWWWWWWWWWWWW",
"WWWWWWWWWWWWWWWWWWWWWWWWWWWWWWWWWWWWWWWWWWWWWWWWW     .# .-WWxcz;  W@pzcxX     WWWWWWWWWWWWWWWWWWWWWWWWWWWWWWWWWWWWWWWWWWWWWWWWW",
"WWWWWWWWWWWWWWWWWWWWWWWWWWWWWWWWWWWWWWWWWWWWWWWWWWW     #sfzccck,   >ff;     WWWWWWWWWWWWWWWWWWWWWWWWWWWWWWWWWWWWWWWWWWWWWWWWWWW",
"WWWWWWWWWWWWWWWWWWWWWWWWWWWWWWWdk,  WWWWWWWWWWWWWWWWW     ,kxxzd>X  X      WWWWWWWWWWWWWWWWWkf-  WWWWWWWWWWWWWWWWWWWWWWWWWWWWWWW",
"WWWWWWWWWWWWWWWWWWWWWWWWWWWWWWW:xk  WWWWWWWWWWWWWWWWWW      @>,:X         WWWWWWWWWWWWWWWWWWsx,  WWWWWWWWWWWWWWWWWWWWWWWWWWWWWWW",
"WWWWWWWWWWWWWWWWWWWWWWWWWWWWWWW zx  WWWWWWWWWWWWWWWWWWWW                WWWWWWWWWWWWWWWWWWWW;ct  WWWWWWWWWWWWWWWWWWWWWWWWWWWWWWW",
"WWWWWWWWWWWWWWWWWWWWWWWWWWWWWWW sk  WWWWWWWWWWWWWWWWWWWWWW            WWWWWWWWWWWWWWWWWWWWWW z;  WWWWWWWWWWWWWWWWWWWWWWWWWWWWWWW",
"WWWWWWWWWWWWWWWWWWWWWWWWWWWWWWW #>  WWWWWWWWWWWWWWWWWWWWWWW          WWWWWWWWWWWWWWWWWWWWWWW ,   WWWWWWWWWWWWWWWWWWWWWWWWWWWWWWW",
"WWWWWWWWWWWWWWWWWWWWWWWWWWWWWWW  #  WWWWWWWWWWWWWWWWWWWWWWWWW      WWWWWWWWWWWWWWWWWWWWWWWWW ;   WWWWWWWWWWWWWWWWWWWWWWWWWWWWWWW",
"WWWWWWWWWWWWWWWWWWWWWWWWWWWWWWW .#  WWWWWWWWWWWWWWWWWWWWWWWWW      WWWWWWWWWWWWWWWWWWWWWWWWW -   WWWWWWWWWWWWWWWWWWWWWWWWWWWWWWW",
"WWWWWWWWWWWWWWWWWWWWWWWWWWWWWWW  #  WWWWWWWWWWWWWWWWWWWWWWWWW      WWWWWWWWWWWWWWWWWWWWWWWWW ;   WWWWWWWWWWWWWWWWWWWWWWWWWWWWWWW",
"WWWWWWWWWWWWWWf;WWWWWWWWWWWWWWW .@  WWWWWWWWWWWWWWWWWWWWWWWWW      WWWWWWWWWWWWWWWWWWWWWWWWW ;   WWWWWWWWWWWWWWW. WWWWWWWWWWWWWW",
"WWWWWWWWWWWWWdxd. WWWWWWWWWWWWW  #  WWWWWWWWWWWWWWWWWWWWWWWWW  -   WWWWWWWWWWWWWWWWWWWWWWWWW -   WWWWWWWWWWWWW,>   WWWWWWWWWWWWW",
"WWWWWWWWWWWWW@fcf   WWWWWWWWWWW X#  WWWWWWWWWWWWWWWWWWWWWWWWW .p   WWWWWWWWWWWWWWWWWWWWWWWWW -   WWWWWWWWWWW>skd   WWWWWWWWWWWWW",
"WWWWWWWWWWWW   #d,   WWWWWWWWWW @#  WWWWWWWWWWWWWWWWWWWWWWWWW :f   WWWWWWWWWWWWWWWWWWWWWWWWW ;   WWWWWWWWWWskcz     WWWWWWWWWWWW",
"WWWWWWWWWWWWW     #@   WWWWWWWW :-  WWWWWWWWWWWWWWWWWWWWWWWWW#dk   WWWWWWWWWWWWWWWWWWWWWWWWW ;   WWWWWWWWpfcc>     WWWWWWWWWWWWW",
"WWWWWWWWWWWWWWW     #X   WWWWWW@d-  WWWWWWWWWWWWWWWWWWWWWWWWWszx@  WWWWWWWWWWWWWWWWWWWWWWWWW :#  WWWWWW,dxcd     WWWWWWWWWWWWWWW",
"WWWWWWWWWWWWWWWW      #    WWWWsz#  WWWWWWWWWWWWWWWWWWWfdspdkzcl;        WWWWWWWWWWWWWWWWWWW :,  WWWW,dzck      WWWWWWWWWWWWWWWW",
"WWWWWWWWWWWWWWWWWW     .#   WWWxx.  WWWWWWWWWWWWWWWWWWW,dlxccxxd-        WWWWWWWWWWWWWWWWWWW >d  WW;szcx@     WWWWWWWWWWWWWWWWWW",
"WWWWWWWWWWWWWWWWWWWW     #:,pkWcz   WWWWWWWWWWWWWWWWWWW #,dddst;         WWWWWWWWWWWWWWWWWWW >z,  -szx>     WWWWWWWWWWWWWWWWWWWW",
"WWWWWWWWWWWWWWWWWWWWWW    #kzxccs   WWWWWWWWWWWWWWWWWWW                  WWWWWWWWWWWWWWWWWWW ,zf@X>,;     WWWWWWWWWWWWWWWWWWWWWW",
"WWWWWWWWWWWWWWWWWWWWWWW    ;kxxl-   WWWWWWWWWWWWWWWWWWW                  WWWWWWWWWWWWWWWWWWW pzk>@@      WWWWWWWWWWWWWWWWWWWWWWW",
"WWWWWWWWWWWWWWWWWWWWWWWWW   :dfp    WWWWWWWWWWWWWWWWWWWWWWWWW          WWWWWWWWWWWWWWWWWWWWW;dfs;      WWWWWWWWWWWWWWWWWWWWWWWWW",
"WWWWWWWWWWWWWWWWWWWWWWWWWWW X-@       WWWWWWWWW;WWWWWWWWWWWWW      WWWWWWWWWWWWW@WWWWWWWWWWtds;X     WWWWWWWWWWWWWWWWWWWWWWWWWWW",
"WWWWWWWWWWWWWWWWWWWWWWWWWWWX@          WWWWWWW,-  WWWWWWWWWWW      WWWWWWWWWWWfs@ WWWWWWWpkzs        WWWWWWWWWWWWWWWWWWWWWWWWWWW",
"WWWWWWWWWWWWWWWWWWWWWWWWWWsp.            WWWW,s;   WWWWWWWWWW      WWWWWWWWWW;dx,  WWWW,dcc>           WWWWWWWWWWWWWWWWWWWWWWWWW",
"WWWWWWWWWWWWWWWWWWWWWWWWdzz:          X    WWdf-   WWWWWWWWWW  #   WWWWWWWWWW ;xxX WW-szck              WWWWWWWWWWWWWWWWWWWWWWWW",
"WWWWWWWWWWWWWWWWWWWWWW,dcc>      W     #,,,sfzf    WWWWWWWWWW  a   WWWWWWWWWW  dcd  @plz-     W           WWWWWWWWWWWWWWWWWWWWWW",
"WWWWWWWWWWWWWWWWWWWW>szcz      WWWWW    @kxccx>   WWWWWWWWWWW -f   WWWWWWWWWWW :zz,#;>@     WWWWW      @    WWWWWWWWWWWWWWWWWWWW",
"WWWWWWWWWWWWWWWWWWWpkcx;     WWWWWWWW     dzxs   WWWWWWWWWWWW tz.  WWWWWWWWWWWW;fkp#      WWWWWWWWW     @@   WWWWWWWWWWWWWWWWWWW",
"WWWWWWWWWWWWWWWWWsfccp     WWWWWWWWWWWW    >,#    WWWWWWWWWWWwgi5<&&WWWWWWWWWW;,sp;      WWWWWWWWWWWW     #X   WWWWWWWWWWWWWWWWW",
"WWWWWWWWWWWWWWW,dzcd      WWWWWWWWWWWWWWW           WWWWWWWgVCNm99872*WWWWWWWdds#      WWWWWWWWWWWWWWW      X    WWWWWWWWWWWWWWW",
"WWWWWWWWWWWWWW X>,      WWWWWWWWWWWWWWWWW            WWWWWDGJLLKGM99871WWWWszcd        WWWWWWWWWWWWWWWWW          WWWWWWWWWWWWWW",
"WWWWWWWWWWWWWW        WWWWWWWWWWWWWWWWWWW              WWiHPYTTYUJB99871W;dxcp         WWWWWWWWWWWWWWWWWWW        WWWWWWWWWWWWWW",
"WWWWWWWWWWWWWWW     WWWWWWWWWWWWWWWWWWWW            >,>rySLTEETYPLHM99874akd            WWWWWWWWWWWWWWWWWWWW     WWWWWWWWWWWWWWW",
"WWWWWWWWWWWWWWWW  WWWWWWWWWWWWWWWWWWWWWW      WW     >lhMHYERUJHSAAB99876=      WW      WWWWWWWWWWWWWWWWWWWWW    WWWWWWWWWWWWWWW",
"WWWWWWWWWWWWWWWWWWWWWWWWWWWWWWWWWWWWWWWWW    WWWWW    +qmJTTPSNbbbbmv9876<.   WWWWW    WWWWWWWWWWWWWWWWWWWWWWWW WWWWWWWWWWWWWWWW",
"WWWWWWWWWWWWWWWWWWWWWWWWWWWWWWWWWWWWWWWWWWW  WWWWWWW  $8mKYPSmbvv9vvv99872O WWWWWWW  WWWWWWWWWWWWWWWWWWWWWWWWWWWWWWWWWWWWWWWWWWW",
"WWWWWWWWWWWWWWWWWWWWWWWWWWWWWWWWWWWWWWWWWWWWWWWWWWWWW.&9bJPHmbvvvvvvvv9773%WWWWWWWWWWWWWWWWWWWWWWWWWWWWWWWWWWWWWWWWWWWWWWWWWWWWW",
"WWWWWWWWWWWWWWWWWWWWWWWWWWWWWWWWWWWWWWWWWWWWWWWWWWWWWW19vGJAbvvvvvvvv98863&WWWWWWWWWWWWWWWWWWWWWWWWWWWWWWWWWWWWWWWWWWWWWWWWWWWWW",
"WWWWWWWWWWWWWWWWWWWWWWWWWWWWWWWWWWWWWWWWWWWWWWWWWWWWWW289NSMvvvvvvvv999863*WWWWWWWWWWWWWWWWWWWWWWWWWWWWWWWWWWWWWWWWWWWWWWWWWWWWW",
"WWWWWWWWWWWWWWWWWWWWWWWWWWWWWWWWWWWWWWWWWWWWWWWWWWWWWW189vNmvvvvvvvv998762&WWWWWWWWWWWWWWWWWWWWWWWWWWWWWWWWWWWWWWWWWWWWWWWWWWWWW",
"WWWWWWWWWWWWWWWWWWWWWWWWWWWWWWWWWWWWWWWWWWWWWWWWWWWWWW<889vbvv9vvvvv998762%WWWWWWWWWWWWWWWWWWWWWWWWWWWWWWWWWWWWWWWWWWWWWWWWWWWWW",
"WWWWWWWWWWWWWWWWWWWWWWWWWWWWWWWWWWWWWWWWWWWWWWWWWWWWWWe78999vvvvvvv9997631OWWWWWWWWWWWWWWWWWWWWWWWWWWWWWWWWWWWWWWWWWWWWWWWWWWWWW",
"WWWWWWWWWWWWWWWWWWWWWWWWWWWWWWWWWWWWWWWWWWW# WWWWWWWskj07899v9vvvvv998732*.  WWWWWW>@WWWWWWWWWWWWWWWWWWWWWWWWWWWWWWWWWWWWWWWWWWW",
"WWWWWWWWWWWWWWWWWWWWWWWWWWWWWWWWWWWWWWWWWfd; WWWWW,fcx,%77888999999986621$    WWWWW;   WWWWWWWWWWWWWWWWWWWWWWWWWWWWWWWWWWWWWWWWW",
"WWWWWWWWWWWWWWWWd#WWWWWWWWWWWWWWWWWWWWWW-pzs  WW;dzck  o<677888998877322%.      WW>>    WWWWWWWWWWWWWWWWWWWWWWX WWWWWWWWWWWWWWWW",
"WWWWWWWWWWWWWWWdxf  WWWWWWWWWWWWWWWWWWWW ;zx,  ;dxz#    O16677777766222&o    @-;,pds    WWWWWWWWWWWWWWWWWWWW,p@  WWWWWWWWWWWWWWW",
"WWWWWWWWWWWWWW Xdcd   WWWWWWWWWWWWWWWWWWWXfcz:->,#     WW$<33666633221&o      szzxzs   WWWWWWWWWWWWWWWWWWW,szf    WWWWWWWWWWWWWW",
"WWWWWWWWWWWWWW   Xp>    WWWWWWWWWWWWWWWWWXpxz,#      WWWWWO&<2222221*%o WW     sxxk;   WWWWWWWWWWWWWWWWW>szcz     WWWWWWWWWWWWWW",
"WWWWWWWWWWWWWWW     @@   WWWWWWWWWWWWWWWW;sds-      WWWWWWWWOO%&&%$$o. WWWWW    >s>    WWWWWWWWWWWWWWWWpkcx;     WWWWWWWWWWWWWWW",
"WWWWWWWWWWWWWWWWW     #X   WWWWWWWWWWWWWsdp#      WWWWWWWWWWW  ... .WWWWWWWWWW           WWWWWWWWWWWW,fccp     WWWWWWWWWWWWWWWWW",
"WWWWWWWWWWWWWWWWWW      #    WWWWWWWWWszxs       WWWWWWWWWWWW      WWWWWWWWWWWW           WWWWWWWWW,dxcd      WWWWWWWWWWWWWWWWWW",
"WWWWWWWWWWWWWWWWWWWW     X;    WWWWWpfcc>         WWWWWWWWWWW      WWWWWWWWWWW              WWWWW:pkcz      WWWWWWWWWWWWWWWWWWWW",
"WWWWWWWWWWWWWWWWWWWWWW     p-   WW;szcf            WWWWWWWWWW  X   WWWWWWWWWW            #X   WW;szcs     WWWWWWWWWWWWWWWWWWWWWW",
"WWWWWWWWWWWWWWWWWWWWWWWW   ;fp@  -skkX     WW      WWWWWWWWWW  :   WWWWWWWWWW      WW     -p,:>tdzz>    WWWWWWWWWWWWWWWWWWWWWWWW",
"WWWWWWWWWWWWWWWWWWWWWWWWW   pkd,:>p@     WWWW      WWWWWWWWWW #s   WWWWWWWWWW      WWWW    @kzzzzk;   WWWWWWWWWWWWWWWWWWWWWWWWWW",
"WWWWWWWWWWWWWWWWWWWWWWWWWWW ;dfs:X     WWWWWWW    WWWWWWWWWWW.pk   WWWWWWWWWWW    WWWWWWW    dxzd;   WWWWWWWWWWWWWWWWWWWWWWWWWWW",
"WWWWWWWWWWWWWWWWWWWWWWWWWWW#>>;#     WWWWWWWWWW WWWWWWWWWWWWW,kz@  WWWWWWWWWWWWW WWWWWWWWW    ;>@    WWWWWWWWWWWWWWWWWWWWWWWWWWW",
"WWWWWWWWWWWWWWWWWWWWWWWWWsdp-       WWWWWWWWWWWWWWWWWWWWWWWWWkcz;   WWWWWWWWWWWWWWWWWWWWWWWW           WWWWWWWWWWWWWWWWWWWWWWWWW",
"WWWWWWWWWWWWWWWWWWWWWWWWfxz:        WWWWWWWWWWWWWWWWWWWsfkkxccxf-        WWWWWWWWWWWWWWWWWWW             WWWWWWWWWWWWWWWWWWWWWWW",
"WWWWWWWWWWWWWWWWWWWWWWpkcx#         WWWWWWWWWWWWWWWWWWWX>dzxzfd>X        WWWWWWWWWWWWWWWWWWW              WWWWWWWWWWWWWWWWWWWWWW",
"WWWWWWWWWWWWWWWWWWWW,dxcd           WWWWWWWWWWWWWWWWWWW       X          WWWWWWWWWWWWWWWWWWW           @    WWWWWWWWWWWWWWWWWWWW",
"WWWWWWWWWWWWWWWWWW,dzck      WW     WWWWWWWWWWWWWWWWWWW                  WWWWWWWWWWWWWWWWWWW     WW      #    WWWWWWWWWWWWWWWWWW",
"WWWWWWWWWWWWWWWWWskcx@     WWWW     WWWWWWWWWWWWWWWWWWW                  WWWWWWWWWWWWWWWWWWW .   WWWW     X#   WWWWWWWWWWWWWWWWW",
"WWWWWWWWWWWWWWWskcc>     WWWWWW     WWWWWWWWWWWWWWWWWWWWWWWWW      WWWWWWWWWWWWWWWWWWWWWWWWW @   WWWWWW     @@   WWWWWWWWWWWWWWW",
"WWWWWWWWWWWWW>szxd     WWWWWWWW     WWWWWWWWWWWWWWWWWWWWWWWWW      WWWWWWWWWWWWWWWWWWWWWWWWW #   WWWWWWWW          WWWWWWWWWWWWW",
"WWWWWWWWWWWW  @;      WWWWWWWWW  @  WWWWWWWWWWWWWWWWWWWWWWWWW      WWWWWWWWWWWWWWWWWWWWWWWWW -   WWWWWWWWW          WWWWWWWWWWWW",
"WWWWWWWWWWWWW       WWWWWWWWWWW  @  WWWWWWWWWWWWWWWWWWWWWWWWW  .   WWWWWWWWWWWWWWWWWWWWWWWWW ;   WWWWWWWWWWW       WWWWWWWWWWWWW",
"WWWWWWWWWWWWW     WWWWWWWWWWWWW .#  WWWWWWWWWWWWWWWWWWWWWWWWW  >   WWWWWWWWWWWWWWWWWWWWWWWWW ;   WWWWWWWWWWWWW     WWWWWWWWWWWWW",
"WWWWWWWWWWWWWW  WWWWWWWWWWWWWWW X@  WWWWWWWWWWWWWWWWWWWWWWWWW Xs   WWWWWWWWWWWWWWWWWWWWWWWWW -   WWWWWWWWWWWWWWW  WWWWWWWWWWWWWW",
"WWWWWWWWWWWWWWWWWWWWWWWWWWWWWWW .@  WWWWWWWWWWWWWWWWWWWWWWWWW ;f   WWWWWWWWWWWWWWWWWWWWWWWWW -   WWWWWWWWWWWWWWWWWWWWWWWWWWWWWWW",
"WWWWWWWWWWWWWWWWWWWWWWWWWWWWWWW  #  WWWWWWWWWWWWWWWWWWWWWWWWW sx   WWWWWWWWWWWWWWWWWWWWWWWWW ;   WWWWWWWWWWWWWWWWWWWWWWWWWWWWWWW",
"WWWWWWWWWWWWWWWWWWWWWWWWWWWWWWW .#  WWWWWWWWWWWWWWWWWWWWWWWWW;lxX  WWWWWWWWWWWWWWWWWWWWWWWWW -   WWWWWWWWWWWWWWWWWWWWWWWWWWWWWWW",
"WWWWWWWWWWWWWWWWWWWWWWWWWWWWWWW     WWWWWWWWWWWWWWWWWWWWWWWW,dxx-    WWWWWWWWWWWWWWWWWWWWWWW .   WWWWWWWWWWWWWWWWWWWWWWWWWWWWWWW",
"WWWWWWWWWWWWWWWWWWWWWWWWWWWWWWW     WWWWWWWWWWWWWWWWWWWWWW>skxxd#     WWWWWWWWWWWWWWWWWWWWWW     WWWWWWWWWWWWWWWWWWWWWWWWWWWWWWW",
"WWWWWWWWWWWWWWWWWWWWWWWWWWWWWWW     WWWWWWWWWWWWWWWWWWWW,skxxzs;        WWWWWWWWWWWWWWWWWWWW     WWWWWWWWWWWWWWWWWWWWWWWWWWWWWWW",
"WWWWWWWWWWWWWWWWWWWWWWWWWWWWWWW     WWWWWWWWWWWWWWWWWWWpkcck,#           WWWWWWWWWWWWWWWWWWW     WWWWWWWWWWWWWWWWWWWWWWWWWWWWWWW",
"WWWWWWWWWWWWWWWWWWWWWWWWWWWWWWW     WWWWWWWWWWWWWWWWWpfccd                 WWWWWWWWWWWWWWWWW     WWWWWWWWWWWWWWWWWWWWWWWWWWWWWWW",
"WWWWWWWWWWWWWWWWWWWWWWWWWWWWWWWWWWWWWWWWWWWWWWWWWWW,dxcd                #    WWWWWWWWWWWWWWWWWWWWWWWWWWWWWWWWWWWWWWWWWWWWWWWWWWW",
"WWWWWWWWWWWWWWWWWWWWWWWWWWWWWWWWWWWWWWWWWWWWWWWWWWszcz      W      W      #   WWWWWWWWWWWWWWWWWWWWWWWWWWWWWWWWWWWWWWWWWWWWWWWWWW",
"WWWWWWWWWWWWWWWWWWWWWWWWWWWWWWWWWWWWWWWWWWWWWWWWpkcc;     WWW      WWW     @@   WWWWWWWWWWWWWWWWWWWWWWWWWWWWWWWWWWWWWWWWWWWWWWWW",
"WWWWWWWWWWWWWWWWWWWWWWWWWWWWWWWWWWWWWWWWWWWWWWpdxcs     WWWWW      WWWWW     @    WWWWWWWWWWWWWWWWWWWWWWWWWWWWWWWWWWWWWWWWWWWWWW",
"WWWWWWWWWWWWWWWWWWWWWWWWWWWWWWWWWWWWWWWWWWWWWX;ss     WWWWWWW      WWWWWW          WWWWWWWWWWWWWWWWWWWWWWWWWWWWWWWWWWWWWWWWWWWWW",
"WWWWWWWWWWWWWWWWWWWWWWWWWWWWWWWWWWWWWWWWWWWWW        WWWWWWWW  #   WWWWWWWW        WWWWWWWWWWWWWWWWWWWWWWWWWWWWWWWWWWWWWWWWWWWWW",
"WWWWWWWWWWWWWWWWWWWWWWWWWWWWWWWWWWWWWWWWWWWWW      WWWWWWWWWW  >   WWWWWWWWWW      WWWWWWWWWWWWWWWWWWWWWWWWWWWWWWWWWWWWWWWWWWWWW",
"WWWWWWWWWWWWWWWWWWWWWWWWWWWWWWWWWWWWWWWWWWWWWW   WWWWWWWWWWWW @d   WWWWWWWWWWWW   WWWWWWWWWWWWWWWWWWWWWWWWWWWWWWWWWWWWWWWWWWWWWW",
"WWWWWWWWWWWWWWWWWWWWWWWWWWWWWWWWWWWWWWWWWWWWWWW WWWWWWWWWWWWW >f   WWWWWWWWWWWWW WWWWWWWWWWWWWWWWWWWWWWWWWWWWWWWWWWWWWWWWWWWWWWW",
"WWWWWWWWWWWWWWWWWWWWWWWWWWWWWWWWWWWWWWWWWWWWWWWWWWWWWWWWWWWWWXfz.  WWWWWWWWWWWWWWWWWWWWWWWWWWWWWWWWWWWWWWWWWWWWWWWWWWWWWWWWWWWWW",
"WWWWWWWWWWWWWWWWWWWWWWWWWWWWWWWWWWWWWWWWWWWWWWWWWWWWWWWWWWWWW>xx-  WWWWWWWWWWWWWWWWWWWWWWWWWWWWWWWWWWWWWWWWWWWWWWWWWWWWWWWWWWWWW",
"WWWWWWWWWWWWWWWWWWWWWWWWWWWWWWWWWWWWWWWWWWWWWWWWWWWWWWWWWW-:>dck;     WWWWWWWWWWWWWWWWWWWWWWWWWWWWWWWWWWWWWWWWWWWWWWWWWWWWWWWWWW",
"WWWWWWWWWWWWWWWWWWWWWWWWWWWWWWWWWWWWWWWWWWWWWWWWWWWWWWWWWW @>sfp@     WWWWWWWWWWWWWWWWWWWWWWWWWWWWWWWWWWWWWWWWWWWWWWWWWWWWWWWWWW",
"WWWWWWWWWWWWWWWWWWWWWWWWWWWWWWWWWWWWWWWWWWWWWWWWWWWWWWWWWW   X;X      WWWWWWWWWWWWWWWWWWWWWWWWWWWWWWWWWWWWWWWWWWWWWWWWWWWWWWWWWW",
"WWWWWWWWWWWWWWWWWWWWWWWWWWWWWWWWWWWWWWWWWWWWWWWWWWWWWWWWWW            WWWWWWWWWWWWWWWWWWWWWWWWWWWWWWWWWWWWWWWWWWWWWWWWWWWWWWWWWW",
"WWWWWWWWWWWWWWWWWWWWWWWWWWWWWWWWWWWWWWWWWWWWWWWWWWWWWWWWWW            WWWWWWWWWWWWWWWWWWWWWWWWWWWWWWWWWWWWWWWWWWWWWWWWWWWWWWWWWW",
"WWWWWWWWWWWWWWWWWWWWWWWWWWWWWWWWWWWWWWWWWWWWWWWWWWWWWWWWWWWWW      WWWWWWWWWWWWWWWWWWWWWWWWWWWWWWWWWWWWWWWWWWWWWWWWWWWWWWWWWWWWW",
"WWWWWWWWWWWWWWWWWWWWWWWWWWWWWWWWWWWWWWWWWWWWWWWWWWWWWWWWWWWWW      WWWWWWWWWWWWWWWWWWWWWWWWWWWWWWWWWWWWWWWWWWWWWWWWWWWWWWWWWWWWW",
"WWWWWWWWWWWWWWWWWWWWWWWWWWWWWWWWWWWWWWWWWWWWWWWWWWWWWWWWWWWWW      WWWWWWWWWWWWWWWWWWWWWWWWWWWWWWWWWWWWWWWWWWWWWWWWWWWWWWWWWWWWW",
"WWWWWWWWWWWWWWWWWWWWWWWWWWWWWWWWWWWWWWWWWWWWWWWWWWWWWWWWWWWWWWWWWWWWWWWWWWWWWWWWWWWWWWWWWWWWWWWWWWWWWWWWWWWWWWWWWWWWWWWWWWWWWWWW",
"WWWWWWWWWWWWWWWWWWWWWWWWWWWWWWWWWWWWWWWWWWWWWWWWWWWWWWWWWWWWWWWWWWWWWWWWWWWWWWWWWWWWWWWWWWWWWWWWWWWWWWWWWWWWWWWWWWWWWWWWWWWWWWWW",
"WWWWWWWWWWWWWWWWWWWWWWWWWWWWWWWWWWWWWWWWWWWWWWWWWWWWWWWWWWWWWWWWWWWWWWWWWWWWWWWWWWWWWWWWWWWWWWWWWWWWWWWWWWWWWWWWWWWWWWWWWWWWWWWW",
"WWWWWWWWWWWWWWWWWWWWWWWWWWWWWWWWWWWWWWWWWWWWWWWWWWWWWWWWWWWWWWWWWWWWWWWWWWWWWWWWWWWWWWWWWWWWWWWWWWWWWWWWWWWWWWWWWWWWWWWWWWWWWWWW",
"WWWWWWWWWWWWWWWWWWWWWWWWWWWWWWWWWWWWWWWWWWWWWWWWWWWWWWWWWWWWWWWWWWWWWWWWWWWWWWWWWWWWWWWWWWWWWWWWWWWWWWWWWWWWWWWWWWWWWWWWWWWWWWWW",
"WWWWWWWWWWWWWWWWWWWWWWWWWWWWWWWWWWWWWWWWWWWWWWWWWWWWWWWWWWWWWWWWWWWWWWWWWWWWWWWWWWWWWWWWWWWWWWWWWWWWWWWWWWWWWWWWWWWWWWWWWWWWWWWW",
"WWWWWWWWWWWWWWWWWWWWWWWWWWWWWWWWWWWWWWWWWWWWWWWWWWWWWWWWWWWWWWWWWWWWWWWWWWWWWWWWWWWWWWWWWWWWWWWWWWWWWWWWWWWWWWWWWWWWWWWWWWWWWWWW"
};
