/* XPM */
static char *topview[] = {
/* columns rows colors chars-per-pixel */
"128 128 72 1 ",
"  c #000000",
". c #050709",
"X c #0B0C0C",
"o c #0C1014",
"O c #141414",
"+ c #1A1A1A",
"@ c #171E26",
"# c #181F27",
"$ c #1A222B",
"% c #1D2731",
"& c #1E2833",
"* c #242424",
"= c #2E2E2E",
"- c #26323F",
"; c #333333",
": c #3C3C3C",
"> c #283643",
", c #2A3846",
"< c #2C3B49",
"1 c #304050",
"2 c #354658",
"3 c #3B4F62",
"4 c #424242",
"5 c #484848",
"6 c #555555",
"7 c #5D5D5D",
"8 c #435971",
"9 c #4A627C",
"0 c #646464",
"q c #6B6B6B",
"w c #737373",
"e c #7E7E7E",
"r c #5A7897",
"t c #5D7C9B",
"y c #6181A2",
"u c #6687A9",
"i c #6B8EB3",
"p c #6E92B7",
"a c #7195BB",
"s c #7399BF",
"d c #769DC5",
"f c #789FC8",
"g c #7BA3CD",
"h c #7DA6D1",
"j c #7FA9D4",
"k c #868686",
"l c #8B8B8B",
"z c #939393",
"x c #AEAEAE",
"c c #B4B4B4",
"v c #BCBCBC",
"b c #80AAD6",
"n c #83AEDB",
"m c #85B0DD",
"M c #87B3E1",
"N c #89B6E4",
"B c #8BB8E7",
"V c #8CBAEA",
"C c #90BFF0",
"Z c #92C2F4",
"A c #95C5F8",
"S c #97C8FB",
"D c #99CBFF",
"F c #C3C3C3",
"G c #CDCDCD",
"H c #D6D6D6",
"J c #DADADA",
"K c #E2E2E2",
"L c #EDEDED",
"P c #F5F5F5",
"I c #FFFFFF",
"U c None",
/* pixels */
"UUUUUUUUUUUUUUUUUUUUUUUUUUUUUUUUUUUUUUUUUUUUUUUUUUUUUUUUUUUUUUUUUUUUUUUUUUUUUUUUUUUUUUUUUUUUUUUUUUUUUUUUUUUUUUUUUUUUUUUUUUUUUUUU",
"UUUUUUUUUUUUUUUUUUUUUUUUUUUUUUUUUUUUUUUUUUUUUUUUUUUUUUUUUUUUUUUUUUUUUUUUUUUUUUUUUUUUUUUUUUUUUUUUUUUUUUUUUUUUUUUUUUUUUUUUUUUUUUUU",
"UUUUUUUUUUUUUUUUUUUUUUUUUUUUUUUUUUUUUUUUUUUUUUUUUUUUUUUUUUUUUUUUUUUUUUUUUUUUUUUUUUUUUUUUUUUUUUUUUUUUUUUUUUUUUUUUUUUUUUUUUUUUUUUU",
"UUUUUUUUUUUUUUUUUUUUUUUUUUUUUUUUUUUUUUUUUUUUUUUUUUUUUUUUUUUUUUUUUUUUUUUUUUUUUUUUUUUUUUUUUUUUUUUUUUUUUUUUUUUUUUUUUUUUUUUUUUUUUUUU",
"UUUUUUUUUUUUUUUUUUUUUUUUUUUUUUUUUUUUUUUUUUUUUUUUUUUUUUUUUUUUUUUUUUUUUUUUUUUUUUUUUUUUUUUUUUUUUUUUUUUUUUUUUUUUUUUUUUUUUUUUUUUUUUUU",
"UUUUUUUUUUUUUUUUUUUUUUUUUUUUUUUUUUUUUUUUUUUUUUUUUUUUUUUUUUUUUUUUUUUUUUUUUUUUUUUUUUUUUUUUUUUUUUUUUUUUUUUUUUUUUUUUUUUUUUUUUUUUUUUU",
"UUUUUUUUUUUUUUUUUUUUUUUUUUUUUUUUUUUUUUUUUUUUUUUUUUUUUUUUUUUUUUUUUUUUUUUUUUUUUUUUUUUUUUUUUUUUUUUUUUUUUUUUUUUUUUUUUUUUUUUUUUUUUUUU",
"UUUUUUUUUUUUUUUUUUUUUUUUUUUUUUUUUUUUUUUUUUUUUUUUUUUUUUUUUUUUUUUUUUUUUUUUUUUUUUUUUUUUUUUUUUUUUUUUUUUUUUUUUUUUUUUUUUUUUUUUUUUUUUUU",
"UUUUUUUUUUUUUUUUUUUUUUUUUUUUUUUUUUUUUUUUUUUUUUUUUUUUUUUUUUUUUUUUUUUUUUUUUUUUUUUUUUUUUUUUUUUUUUUUUUUUUUUUUUUUUUUUUUUUUUUUUUUUUUUU",
"UUUUUUUUUUUUUUUUUUUUUUUUUUUUUUUUUUUUUUUUUUUUUUUUUUUUUUUUUUUUUUUUUUUUUUUUUUUUUUUUUUUUUUUUUUUUUUUUUUUUUUUUUUUUUUUUUUUUUUUUUUUUUUUU",
"UUUUUUUUUUUUUUUUUUUUUUUUUUUUUUUUUUUUUUUU                                                                        UUUUUUUUUUUUUUUU",
"UUUUUUUUUUUUUUUUUUUUUUUUUUUUUUUUUUUUUUU                                                                         UUUUUUUUUUUUUUUU",
"UUUUUUUUUUUUUUUUUUUUUUUUUUUUUUUUUUUUUUU  ;5=XX+*;;;;;====;==;=====;===;==;===;====;==;====;===;==;:50wq5+       UUUUUUUUUUUUUUUU",
"UUUUUUUUUUUUUUUUUUUUUUUUUUUUUUUUUUUUUU  e6                                                            5kew6     UUUUUUUUUUUUUUUU",
"UUUUUUUUUUUUUUUUUUUUUUUUUUUUUUUUUUUUU Xe   .XoX.                                                        :qq*    UUUUUUUUUUUUUUUU",
"UUUUUUUUUUUUUUUUUUUUUUUUUUUUUUUUUUUU +k   @8iddiuyyyyyyyyyyyyyyyyyyyyyyyyyyyyyyyyyyyyyyyyyyyyyyyyyyyyyy9.+*     UUUUUUUUUUUUUUUU",
"UUUUUUUUUUUUUUUUUUUUUUUUUUUUUUUUUUU +k  .>agfdddsdgdgsddssssddddddddddddddddddddddsddsddddddddddddddddr. X      UUUUUUUUUUUUUUUU",
"UUUUUUUUUUUUUUUUUUUUUUUUUUUUUUUUUU +e  .-dggdsddgddgdgdggggggsgdfdgdddfddggsdgdgdgggdggdffdfdfffddffdr.XX       UUUUUUUUUUUUUUUU",
"UUUUUUUUUUUUUUUUUUUUUUUUUUUUUUUUU +e   2sggdddffggjhgghggghhggbgghghghhghghhghhgghghhhgghghhhghghgght.;;   .    UUUUUUUUUUUUUUUU",
"UUUUUUUUUUUUUUUUUUUUUUUUUUUUUUUU +k   3dgfdddggbbmmmmmmmmmmmnnmmmmmmmmmmmmmmjmmmjmmmjmmjmmnmmmmmmmnu.;w   +*    UUUUUUUUUUUUUUUU",
"UUUUUUUUUUUUUUUUUUUUUUUUUUUUUUU +e   1bhgddfgbnMBBVVVVVVBVVVVVVVVVVVVVVVVVVVBBZBVVVVZVVVVVVVVVVVVVi. e   *x*    UUUUUUUUUUUUUUUU",
"UUUUUUUUUUUUUUUUUUUUUUUUUUUUUU +k   <bhfddfgbnBVZZAZZZZZZZZZZZZZZZZZZAZZZZZZZZZZZZZZZZZZZZZZZZZZAa. e   *cF*    UUUUUUUUUUUUUUUU",
"UUUUUUUUUUUUUUUUUUUUUUUUUUUUU +e   <bhfddfgbmVCZASSSSSSSSSSSSSDDSSSSSSSSSSSSSSDSDAASSASSSSSSSSSSd. e   *vFv*    UUUUUUUUUUUUUUUU",
"UUUUUUUUUUUUUUUUUUUUUUUUUUUU +e   <bggdddgbmVCSSSDDDDDDDDDDDDDDDDSDDSDSSSDDDSDDDDDDDDDDDDSDSDSSd. e   *FGFv*    UUUUUUUUUUUUUUUU",
"UUUUUUUUUUUUUUUUUUUUUUUUUUU +e   <bggddfhbmBZADDDDDDDDDDDDDDDDDDDDDDDDDDDDDDDDDDDDDDDDDDDDDDDDd. e   *FGvvv* O  UUUUUUUUUUUUUUUU",
"UUUUUUUUUUUUUUUUUUUUUUUUUU +e   <bjgsdfgbMVZASDDDDDDDDDDDDDDDDDDDDDDDDDDDDDDDDDDDDDDDDDDDDDDDd. e   *FGvvvv* =  UUUUUUUUUUUUUUUU",
"UUUUUUUUUUUUUUUUUUUUUUUUU +e   <jggdddgbmVZZSSDDDDDDDDDDDDDDDDDDDDDDDDDDDDDDDDDDDDDDDDDDDDDDd. e   *vGvvvvF= ;  UUUUUUUUUUUUUUUU",
"UUUUUUUUUUUUUUUUUUUUUUUU +e   <bggsddgbNVZSSDDDDDDDDDDDDDDDDDDDDDDDDDDDDDDDDDDDDDDDDDDDDDDDd. e   *FGFvcvFG* ;  UUUUUUUUUUUUUUUU",
"UUUUUUUUUUUUUUUUUUUUUUU +e   <jhgsddhjmBZSSSDDDDDDDDDDDDDDDDDDDDDDDDDDDDDDDDDDDDDDDDDDDDDDd. e   *FGvvcvFGJ= ;  UUUUUUUUUUUUUUUU",
"UUUUUUUUUUUUUUUUUUUUUU +e   <bggdddgbMVZSSDDDDDDDDDDDDDDDDDDDDDDDDDDDDDDDDDDDDDDDDDDDDDDDd. e   *vGvvvvFGJK= ;  UUUUUUUUUUUUUUUU",
"UUUUUUUUUUUUUUUUUUUUU +e   <bhfdddhbNVZASDDDDDDDDDDDDDDDDDDDDDDDDDDDDDDDDDDDDDDDDDDDDDDDd. e   *FGvvvvFGJKL= ;  UUUUUUUUUUUUUUUU",
"UUUUUUUUUUUUUUUUUUUU +e   <bgfddghjmVZASDDDDDDDDDDDDDDDDDDDDDDDDDDDDDDDDDDDDDDDDDDDDDDDd. e   *FGvvvvFGJKLP; :  UUUUUUUUUUUUUUUU",
"UUUUUUUUUUUUUUUUUUU +e   <jhfddfgbMVCASDDDDDDDDDDDDDDDDDDDDDDDDDDDDDDDDDDDDDDDDDDDDDDDd. e   *FGvvvvFGJKLPP; ;  UUUUUUUUUUUUUUUU",
"UUUUUUUUUUUUUUUUUU +e   <bggdddgbMVZSSSDDDDDDDDDDDDDDDDDDDDDDDDDDDDDDDDDDDDDDDDDDDDDDs. e   *FFFcvvFGHKLPII; ;  UUUUUUUUUUUUUUUU",
"UUUUUUUUUUUUUUUUU +e   <bhfddfgbMVCSSSDDDDDDDDDDDDDDDDDDDDDDDDDDDDDDDDDDDDDDDDDDDDDDs. e   *FGvvvvFGJKLPPII; ;  UUUUUUUUUUUUUUUU",
"UUUUUUUUUUUUUUUU +e   <bgfddfgbMVCASDDDDDDDDDDDDDDDDDDDDDDDDDDDDDDDDDDDDDDDDDDDDDDSd. e   *FGvvvvFGJKPPPIPI; ;  UUUUUUUUUUUUUUUU",
"UUUUUUUUUUUUUUU +e   <bggdffgbMVCSSSDDDDDDDDDDDDDDDDDDDDDDDDDDDDDDDDDDDDDDDDDDDDDSs. k   *FGvvcvFGJKLPIIIII; ;  UUUUUUUUUUUUUUUU",
"UUUUUUUUUUUUUU  e   ,bhfddfgbMVCASDDDDDDDDDDDDDDDDDDDDDDDDDDDDDDDDDDDDDDDDDDDDDDDd. e   *FGvvvvFGJKLPPIIIII; ;  UUUUUUUUUUUUUUUU",
"UUUUUUUUUUUUU  wO  ,bhgddfgbMVCASSDDDDDDDDDDDDDDDDDDDDDDDDDDDDDDDDDDDDDDDDDDDDDDd. e   *FGvvvvFGJKLPIPIIIII; :  UUUUUUUUUUUUUUUU",
"UUUUUUUUUUUU  56  ,bhfdddgbmVZSSSDDDDDDDDDDDDDDDDDDDDDDDDDDDDDDDDDDDDDDDDDDDDDDs. e   *FGvvvvFGJKLPPIIIIIII; ;  UUUUUUUUUUUUUUUU",
"UUUUUUUUUUU  +w  ,bhgdddgbMVCASDDDDDDDDDDDDDDDDDDDDDDDDDDDDDDDDDDDDDDDDDDDDDDDs. e   *GGFvcvFGJKPPIIIIIIIII; ;  UUUUUUUUUUUUUUUU",
"UUUUUUUUUU   w4 ,bhfdddgbMVZASDDDDDDDDDDDDDDDDDDDDDDDDDDDDDDDDDDDDDDDDDDDDDDDd..e   *FGvvcvFGJKPPPPIIIIIIII; ;  UUUUUUUUUUUUUUUU",
"UUUUUUUU    ww X$$$@@@$$$$%%%&&&&&&&&&&&&&&&&&&&&&&&&&&&&&&&&&&&&&&&&&&&&&&&@ Xw   *FGvvvvFGJKLPPIIIIIIIIII; :  UUUUUUUUUUUUUUUU",
"UUUUUUU    qq                                                                *5   *FFvvvvFGJKLPPIIIIIIIIIII; ;  UUUUUUUUUUUUUUUU",
"UUUUUUUU  *5         O*;;=;=;====;;47qw0;.    .O*=====;;=;==;=====;;;=:50eeew4   *FFFvvvFGJKPPPIIIIIIIIIIII; ;  UUUUUUUUUUUUUUUU",
"UUUUUUUU  +                            5w0*                                ;4   +FFFvcvFGJKLPPIIIIIIIIIIIII; ;  UUUUUUUUUUUUUUUU",
"UUUUUUUU                                                                        kFvcvvFGJKLPPIIIIIIIIIIIIII; ;  UUUUUUUUUUUUUUUU",
"UUUUUUUU    :zlkkkkklllzzzzzzzzzzzzzzzz6    :zzzzzzzzzzzzzzzzzzzzzzzzzzzzzz*    lcccvFGHKPPPIIIIIIIIIIIIIII; ;  UUUUUUUUUUUUUUUU",
"UUUUUUUU    5vcxxxxccccvvvvvvvvvvvvvvvv0    4ccccvcvvvvvvvvvvvvvvvvcvvvvvcv*    kxccFGJKLPIIIIIIIIIIIIIIIII; :  UUUUUUUUUUUUUUUU",
"UUUUUUUU X  5vcxxxccvvvvvFvvvvFvvvvFvvv0    4xxcccvvvvvvvFvvvvFvvFvvvvvvvvF*    exccFHJLPPPIIIIIIIIIIIIIIII; ;  UUUUUUUUUUUUUUUU",
"UUUUUUUU *  5vcccvFFFFFFFFFFFFFFFFFFFFFq    4xcxcvFFFFFFFFFFFFFFFFFGFGFFFFF*    kcvvGJLPPIIIIIIIIIIIIIIIIII; ;  UUUUUUUUUUUUUUUU",
"UUUUUUUU ;  4vccvFGHJHHJHHJHHHJHJHJHJHJw *  4cccvFGHJHHHHHJHHHJHHHHHHHJJJHJ= +  kccvGJLPIIIIIIIIIIIIIIIIIII; ;  UUUUUUUUUUUUUUUU",
"UUUUUUUU 4  4vcvFGJJKKKKKKKKKKKKKKKKKKKe :  5ccvFGJJKKKKKKKKKKKKKLKKKLKKKKK* ;  kvvFHKLIIIIIIIIIIIIIIIIIIII; ;  UUUUUUUUUUUUUUUU",
"UUUUUUUU 4  5vvvGHKLPPPPPPPPPPPPPPPPPPLk 4  5cvvGJKLPPPPPPPPPPPPLPPPPPPPPPP; ;  lvvFHKPPIIIIIIIIIIIIIIIIIII; ;  UUUUUUUUUUUUUUUU",
"UUUUUUUU 4  5vvFGJLPPPPIPIPPPIPIPIPIIPPl 4  5vvFGJKPPPPPPIPPPIPIPPIPPPPPIPP; :  lvFFHKPPIIIIIIIIIIIIIIIIIII; ;  UUUUUUUUUUUUUUUU",
"UUUUUUUU 4  5vvvGKLPIIIIIIIIIIIIIIIIIIIk 4  4vvvGKPPIIIIIIIIIIIIIIIIIIIIIII; ;  lvvFJKPPIIIIIIIIIIIIIIIIIII; :  UUUUUUUUUUUUUUUU",
"UUUUUUUU 4  4FvFGKLPPIIIIIIIIIIIIIIIIIIl 4  4FvFGKLPPIIIIIIIIIIIIIIIIIIIIII; ;  lvvFHKPPIIIIIIIIIIIIIIIIIII; ;  UUUUUUUUUUUUUUUU",
"UUUUUUUU 4  5FvFGKLPIIIIIIIIIIIIIIIIIIIk 4  5FvFGKLPIIIIIIIIIIIIIIIIIIIIIII; ;  lvvGJKPIIIIIIIIIIIIIIIIIIII; ;  UUUUUUUUUUUUUUUU",
"UUUUUUUU 4  5vvvGKLPIIIIIIIIIIIIIIIIIIIk 4  5vvvHKLPIIIIIIIIIIIIIIIIIIIIIII; ;  lvFFHKPPIIIIIIIIIIIIIIIIIII; ;  UUUUUUUUUUUUUUUU",
"UUUUUUUU 4  5vvFHJPPIIIIIIIIIIIIIIIIIIIl 4  5vvFGJPPIIIIIIIIIIIIIIIIIIIIIII; ;  lvvFHKPPIIIIIIIIIIIIIIIIIII; ;  UUUUUUUUUUUUUUUU",
"UUUUUUUU 4  5vvFGJLPIIIIIIIIIIIIIIIIIIIk 4  5vvFGJLPIIIIIIIIIIIIIIIIIIIIIII; ;  lvvFHKPIIIIIIIIIIIIIIIIIIII; ;  UUUUUUUUUUUUUUUU",
"UUUUUUUU 4  5vvFGKPPIIIIIIIIIIIIIIIIIIIk 4  5vvFHKPPIIIIIIIIIIIIIIIIIIIIIII; :  lvvGHKPPIIIIIIIIIIIIIIIIIII; :  UUUUUUUUUUUUUUUU",
"UUUUUUUU 4  5vvFHKLPIIIIIIIIIIIIIIIIIIIl 4  5vvFGKLPIIIIIIIIIIIIIIIIIIIIIII; ;  lvFFHKPPIIIIIIIIIIIIIIIIIII; ;  UUUUUUUUUUUUUUUU",
"UUUUUUUU 4  5vvFGJLPIIIIIIIIIIIIIIIIIIIk 4  5vvFGJLPIIIIIIIIIIIIIIIIIIIIIII; ;  lvvFJKPPIIIIIIIIIIIIIIIIIII; ;  UUUUUUUUUUUUUUUU",
"UUUUUUUU 4  5vvFGKLPIIIIIIIIIIIIIIIIIIIk 4  5vvFGKLPIIIIIIIIIIIIIIIIIIIIIII; ;  lvvFJKPPIIIIIIIIIIIIIIIIIII; ;  UUUUUUUUUUUUUUUU",
"UUUUUUUU 4  5vvFHJPPIIIIIIIIIIIIIIIIIIIl 4  5vvvHJPPIIIIIIIIIIIIIIIIIIIIIII; ;  lvFFJKPIIIIIIIIIIIIIIIIIIII; ;  UUUUUUUUUUUUUUUU",
"UUUUUUUU 4  5vvFGJLPIIIIIIIIIIIIIIIIIIIk 4  5vvFGJLPIIIIIIIIIIIIIIIIIIIIIII; ;  lvvFHLPPIIIIIIIIIIIIIIIIIII; ;  UUUUUUUUUUUUUUUU",
"UUUUUUUU 4  5vvvGKPPPIIIIIIIIIIIIIIIIIIk 4  5vvFGKPPPIIIIIIIIIIIIIIIIIIIIII; ;  lvvGHKLPIIIIIIIIIIIIIIIIIII; ;  UUUUUUUUUUUUUUUU",
"UUUUUUUU 4  4FvFHKLPPIIIIIIIIIIIIIIIIIIl 4  5vvFHKLPPIIIIIIIIIIIIIIIIIIIIII; ;  lvFFHKPIIIIIIIIIIIIIIIIIIII; ;  UUUUUUUUUUUUUUUU",
"UUUUUUUU 4  5FvFGJLPIIIIIIIIIIIIIIIIIIIk 4  5vvFGJLPIIIIIIIIIIIIIIIIIIIIIII; :  lvvFHKPPIIIIIIIIIIIIIIIIIII; ;  UUUUUUUUUUUUUUUU",
"UUUUUUUU 4  5vvvHJLPIIIIIIIIIIIIIIIIIIIk 4  5vvFHJLPIIIIIIIIIIIIIIIIIIIIIII; ;  lvFFHKPPIIIIIIIIIIIIIIIIIII; ;  UUUUUUUUUUUUUUUU",
"UUUUUUUU 4  5vvFGKPPIIIIIIIIIIIIIIIIIIIk 4  5vvFGKPPIIIIIIIIIIIIIIIIIIIIIII; ;  lvvFJKPPIIIIIIIIIIIIIIIIIII; :  UUUUUUUUUUUUUUUU",
"UUUUUUUU 4  5vvFGKLPIIIIIIIIIIIIIIIIIIIk 4  5vvFGKLPIIIIIIIIIIIIIIIIIIIIIII; ;  lvvFHKPPIIIIIIIIIIIIIIIIIII; :  UUUUUUUUUUUUUUUU",
"UUUUUUUU 4  5vvFHJPPIIIIIIIIIIIIIIIIIIIl 4  5vvFHJPPIIIIIIIIIIIIIIIIIIIIIII; ;  lvvGJKPIIIIIIIIIIIIIIIIIIII; ;  UUUUUUUUUUUUUUUU",
"UUUUUUUU 4  5vvFGJLPIIIIIIIIIIIIIIIIIIIk 4  5vvFGJLPIIIIIIIIIIIIIIIIIIIIIII; ;  lvFFHKPPIIIIIIIIIIIIIIIIIII; ;  UUUUUUUUUUUUUUUU",
"UUUUUUUU 4  5vvFGKLPIIIIIIIIIIIIIIIIIIIk 4  5vvFGKLPIIIIIIIIIIIIIIIIIIIIIII; ;  lvvFHKPPIIIIIIIIIIIIIIIIIII; ;  UUUUUUUUUUUUUUUU",
"UUUUUUUU 4  5vvFHKPPIIIIIIIIIIIIIIIIIIIk 4  5vvFHKPPIIIIIIIIIIIIIIIIIIIIIII; :  lvvFHKPIIIIIIIIIIIIIIIIIIII; ;  UUUUUUUUUUUUUUUU",
"UUUUUUUU 4  4vvFGJLPPIIIIIIIIIIIIIIIIIIl 5  4vvFGJLPPIIIIIIIIIIIIIIIIIIIIII; 6  lvvGHKPPIIIIIIIIIIIIIIIIIII; 4  UUUUUUUUUUUUUUUU",
"UUUUUUUU 4  5vvFGJLPIIIIIIIIIIIIIIIIIIIk 6  5vvFGJLPIIIIIIIIIIIIIIIIIIIIIII;Xq  lvFFHKPPIIIIIIIIIIIIIIIIIII;+4  UUUUUUUUUUUUUUUU",
"UUUUUUUU 4  5FvvHKLPIIIIIIIIIIIIIIIIIIIk 0  5FvvHKLPIIIIIIIIIIIIIIIIIIIIIII;;w  lvvFJKPPIIIIIIIIIIIIIIIIIII;6;  UUUUUUUUUUUUUUUU",
"UUUUUUUU 4  5vvFGJLPIIIIIIIIIIIIIIIIIIIk q; 5vvFGJLPIIIIIIIIIIIIIIIIIIIIIII;6q  lvvFJKPPIIIIIIIIIIIIIIIIIII;k   UUUUUUUUUUUUUUUU",
"UUUUUUUU 4  5vvFHJLPIIIIIIIIIIIIIIIIIIIk 06 =qqqwekklllllllllllllllllllllll+q0  6qqqwekllllllllllllllllllll*e   UUUUUUUUUUUUUUUU",
"UUUUUUUU 4  5vvFGKPPIIIIIIIIIIIIIIIIIII6 w7                               *6k7                             6:   UUUUUUUUUUUUUUUU",
"UUUUUUUU 4  5vvFHJLPIIIIIIIIIIIIIIIIIIz +0      *;44:444444::4444:44445qeekeq:      +::44444:44::44454;*+;0w    UUUUUUUUUUUUUUUU",
"UUUUUUUU 4  4FvFGKLPIIIIIIIIIIIIIIIIIz X6                                   O                       .5eekkeO    UUUUUUUUUUUUUUUU",
"UUUUUUUU 4  5vvFGKLPIIIIIIIIIIIIIIIIz +w                                                               +66X     UUUUUUUUUUUUUUUU",
"UUUUUUUU 4  5vvFGKPPIIIIIIIIIIIIIIIz +e   +44::4445445554455445545455454454O    ;:::44455454454554454554O       UUUUUUUUUUUUUUUU",
"UUUUUUUU 4  5vvvGKLPPIIIIIIIIIIIIIz +e   :FFvcxcccvvvvvvvFvvFvvvFvvFvvFvFvv*    exxcccvvvvvFvvvvvvFvvvv;       UUUUUUUUUUUUUUUUU",
"UUUUUUUU 4  5vvFGJLPIIIIIIIIIIIIIz +e   :GFvcccccvvvvvvvvvvvvvvvvvvvvvvvvvv*    exxxcccvvvvvvvvvvvvvvv;.      UUUUUUUUUUUUUUUUUU",
"UUUUUUUU 4  5vvFHJLPIIIIIIIIIIIIl +e   :GFvvvccvvFvFvFvFFFFvFFFvFFvFvFFFFFF*    kxxxcvvFFFvFFvFFFFFvv;+;     UUUUUUUUUUUUUUUUUUU",
"UUUUUUUU 4  5vvFGKPPIIIIIIIIIIIl +e   :GGvvccvFGGGGHHGGGGGGHGGGHGGHGHGGGGHH*    kxxcvFGGGGHGGHGHHGGG: q     UUUUUUUUUUUUUUUUUUUU",
"UUUUUUUU 4  5vvFHJLPIIIIIIIIIIz +e   :GGvvvvFGHHJKJKJKKKJKKKJKKJKKKJJKKKJJK= *  kccvFGHJKKKJKKJJJKJ: q4    UUUUUUUUUUUUUUUUUUUUU",
"UUUUUUUU 4  4FvFGKLPIIIIIIIIIz +e   :GFvcvvFGJJKLLLLLLLPLPLLPLLPLLLLLLLLLLL= ;  kcvvGJJLLLLLLLPLLK: 67   UUUUUUUUUUUUUUUUUUUUUUU",
"UUUUUUUU 4  5vvFGKLPIIIIIIIIz +e   :GGvvvvFHJKLPPPPPPPPPPPPPPPPPPPPPPPPPPPP= ;  lvvFGKLPPPPPPPPPP4 67   UUUUUUUUUUUUUUUUUUUUUUUU",
"UUUUUUUU 4  5vvFGKPPIIIIIIIz +k   :GFFcvvFGJKLPPPIIIIIIPIIIIIPIIIIIIIIIIIII; :  lvvFHKPPIIIIIIIP4 60   UUUUUUUUUUUUUUUUUUUUUUUUU",
"UUUUUUUU 4  5vvvGKLPPIIIIIz +e   :GFvvvvFHJKPPIIIIIIIIIIIIIIIIIIIIIIIIIIIII; ;  lvvFHKPPIIIIIIP4 67   UUUUUUUUUUUUUUUUUUUUUUUUUU",
"UUUUUUUU 4  5vvFGKLPIIIIIz +e   :GGvvvvFHJKPPIIIIIIIIIIIIIIIIIIIIIIIIIIIIII; ;  lvvFHKPPIIIIIP4 67   UUUUUUUUUUUUUUUUUUUUUUUUUUU",
"UUUUUUUU 4  5vvFGKLPIIIIz +e   :GFvvvvFGJKLPPIIIIIIIIIIIIIIIIIIIIIIIIIIIIII; ;  lvvFJKPIIIIIP4 60   UUUUUUUUUUUUUUUUUUUUUUUUUUUU",
"UUUUUUUU 4  5vvFGKLPIIIz +e   :GGvcvvFHJKPPIIIIIIIIIIIIIIIIIIIIIIIIIIIIIIII; ;  zvvGHKPPIIIP4.67   UUUUUUUUUUUUUUUUUUUUUUUUUUUUU",
"UUUUUUUU 4  5vvFHJPPPIz +e   :GGvvvvFGJKLPPIIIIIIIIIIIIIIIIIIIIIIIIIIIIIIII; :  lvvFJKPPIIP4 67   UUUUUUUUUUUUUUUUUUUUUUUUUUUUUU",
"UUUUUUUU 4  5vvvGJLPIz +k   :GFvvcvFHJKLPPIIIIIIIIIIIIIIIIIIIIIIIIIIIIIIIII; :  lvvFJKPPIP4 67   UUUUUUUUUUUUUUUUUUUUUUUUUUUUUUU",
"UUUUUUUU 4  5vvFHKLPz +e   :GGFvvFFHJKPPIIIIIIIIIIIIIIIIIIIIIIIIIIIIIIIIIII; ;  lvFFHKPPP4 60   UUUUUUUUUUUUUUUUUUUUUUUUUUUUUUUU",
"UUUUUUUU 4  5vvFGKLl +e   :GGvvcvFHJKLPIIIIIIIIIIIIIIIIIIIIIIIIIIIIIIIIIIII; ;  lvvFHKPP4 60   UUUUUUUUUUUUUUUUUUUUUUUUUUUUUUUUU",
"UUUUUUUU 4  5FvFGJl +e   :GFvvvvFGJKLPPIIIIIIIIIIIIIIIIIIIIIIIIIIIIIIIIIIII; ;  lvFFHKL4 67   UUUUUUUUUUUUUUUUUUUUUUUUUUUUUUUUUU",
"UUUUUUUU 5  5vvFGk +e   :GGvvvvFHJKLPIIIIIIIIIIIIIIIIIIIIIIIIIIIIIIIIIIIIII; :  lvvGHK: 67   UUUUUUUUUUUUUUUUUUUUUUUUUUUUUUUUUUU",
"UUUUUUUU 5  5vvFe +e   4GGvvcvFHJKLPPIIIIIIIIIIIIIIIIIIIIIIIIIIIIIIIIIIIIII; 5  lvvFG: 67   UUUUUUUUUUUUUUUUUUUUUUUUUUUUUUUUUUUU",
"UUUUUUUU 4; 5vvw ;e   :GFvvvvFGJKPPPIIIIIIIIIIIIIIIIIIIIIIIIIIIIIIIIIIIIIII; 7  lvvF: 60   UUUUUUUUUUUUUUUUUUUUUUUUUUUUUUUUUUUUU",
"UUUUUUUU ;q 5vq.6e   4GGFvcvFHJKLPIIIIIIIIIIIIIIIIIIIIIIIIIIIIIIIIIIIIIIIII; q  zvc; 77   UUUUUUUUUUUUUUUUUUUUUUUUUUUUUUUUUUUUUU",
"UUUUUUUU Oe 5q :4   :GGvvvvFHJKLPIIIIIIIIIIIIIIIIIIIIIIIIIIIIIIIIIIIIIIIIII; q; lc;Ow6   UUUUUUUUUUUUUUUUUUUUUUUUUUUUUUUUUUUUUUU",
"UUUUUUUU  e6=.     :GFvvcvFHJKPPPIIIIIIIIIIIIIIIIIIIIIIIIIIIIIIIIIIIIIIIIII; 0w l;X6O   UUUUUUUUUUUUUUUUUUUUUUUUUUUUUUUUUUUUUUUU",
"UUUUUUUU  7eO     :FFFvvvFGJKLPPIIIIIIIIIIIIIIIIIIIIIIIIIIIIIIIIIIIIIIIIIII; 6e *      UUUUUUUUUUUUUUUUUUUUUUUUUUUUUUUUUUUUUUUUU",
"UUUUUUUU  ;e*    :FFvvcvFHJKPPIIIIIIIIIIIIIIIIIIIIIIIIIIIIIIIIIIIIIIIIIIIII; 6e=      UUUUUUUUUUUUUUUUUUUUUUUUUUUUUUUUUUUUUUUUUU",
"UUUUUUUU  Oq+   ;cvcvcvFHJKLPPIIIIIIIIIIIIIIIIIIIIIIIIIIIIIIIIIIIIIIIIIIIII; qw      UUUUUUUUUUUUUUUUUUUUUUUUUUUUUUUUUUUUUUUUUUU",
"UUUUUUUU   :   +00000qqweekllllllllllllllllllllllllllllllllllllllllllllllll+6wO      UUUUUUUUUUUUUUUUUUUUUUUUUUUUUUUUUUUUUUUUUUU",
"UUUUUUUU                                                                 O6w0       UUUUUUUUUUUUUUUUUUUUUUUUUUUUUUUUUUUUUUUUUUUU",
"UUUUUUUU            +;:4:44:44:44:44:44:44:44:44:444:4:4:444:4:444:44450we4        UUUUUUUUUUUUUUUUUUUUUUUUUUUUUUUUUUUUUUUUUUUUU",
"UUUUUUUU                                                                          UUUUUUUUUUUUUUUUUUUUUUUUUUUUUUUUUUUUUUUUUUUUUU",
"UUUUUUUU                                                                         UUUUUUUUUUUUUUUUUUUUUUUUUUUUUUUUUUUUUUUUUUUUUUU",
"UUUUUUUU                                                                        UUUUUUUUUUUUUUUUUUUUUUUUUUUUUUUUUUUUUUUUUUUUUUUU",
"UUUUUUUUUUUUUUUUUUUUUUUUUUUUUUUUUUUUUUUUUUUUUUUUUUUUUUUUUUUUUUUUUUUUUUUUUUUUUUUUUUUUUUUUUUUUUUUUUUUUUUUUUUUUUUUUUUUUUUUUUUUUUUUU",
"UUUUUUUUUUUUUUUUUUUUUUUUUUUUUUUUUUUUUUUUUUUUUUUUUUUUUUUUUUUUUUUUUUUUUUUUUUUUUUUUUUUUUUUUUUUUUUUUUUUUUUUUUUUUUUUUUUUUUUUUUUUUUUUU",
"UUUUUUUUUUUUUUUUUUUUUUUUUUUUUUUUUUUUUUUUUUUUUUUUUUUUUUUUUUUUUUUUUUUUUUUUUUUUUUUUUUUUUUUUUUUUUUUUUUUUUUUUUUUUUUUUUUUUUUUUUUUUUUUU",
"UUUUUUUUUUUUUUUUUUUUUUUUUUUUUUUUUUUUUUUUUUUUUUUUUUUUUUUUUUUUUUUUUUUUUUUUUUUUUUUUUUUUUUUUUUUUUUUUUUUUUUUUUUUUUUUUUUUUUUUUUUUUUUUU",
"UUUUUUUUUUUUUUUUUUUUUUUUUUUUUUUUUUUUUUUUUUUUUUUUUUUUUUUUUUUUUUUUUUUUUUUUUUUUUUUUUUUUUUUUUUUUUUUUUUUUUUUUUUUUUUUUUUUUUUUUUUUUUUUU",
"UUUUUUUUUUUUUUUUUUUUUUUUUUUUUUUUUUUUUUUUUUUUUUUUUUUUUUUUUUUUUUUUUUUUUUUUUUUUUUUUUUUUUUUUUUUUUUUUUUUUUUUUUUUUUUUUUUUUUUUUUUUUUUUU",
"UUUUUUUUUUUUUUUUUUUUUUUUUUUUUUUUUUUUUUUUUUUUUUUUUUUUUUUUUUUUUUUUUUUUUUUUUUUUUUUUUUUUUUUUUUUUUUUUUUUUUUUUUUUUUUUUUUUUUUUUUUUUUUUU",
"UUUUUUUUUUUUUUUUUUUUUUUUUUUUUUUUUUUUUUUUUUUUUUUUUUUUUUUUUUUUUUUUUUUUUUUUUUUUUUUUUUUUUUUUUUUUUUUUUUUUUUUUUUUUUUUUUUUUUUUUUUUUUUUU",
"UUUUUUUUUUUUUUUUUUUUUUUUUUUUUUUUUUUUUUUUUUUUUUUUUUUUUUUUUUUUUUUUUUUUUUUUUUUUUUUUUUUUUUUUUUUUUUUUUUUUUUUUUUUUUUUUUUUUUUUUUUUUUUUU"
};
