/* XPM */
static char *zoom[] = {
/* columns rows colors chars-per-pixel */
"128 128 62 1 ",
"  c #000000",
". c #090702",
"X c #0B0B0B",
"o c #151006",
"O c #1D1609",
"+ c #141414",
"@ c #1C1C1C",
"# c #241C0B",
"$ c #281F0C",
"% c #2D220D",
"& c #32260F",
"* c #35280F",
"= c #21201E",
"- c #362910",
"; c #3B2D12",
": c #332B1C",
"> c #222222",
", c #2D2D2D",
"< c #372F23",
"1 c #3C3423",
"2 c #3C3528",
"3 c #333333",
"4 c #3C3C3C",
"5 c #44361B",
"6 c #423721",
"7 c #4B3E25",
"8 c #473D28",
"9 c #493E2A",
"0 c #4C422D",
"q c #51452E",
"w c #4F4530",
"e c #534730",
"r c #554A36",
"t c #444444",
"y c #4B4B4B",
"u c #535353",
"i c #5B5B5B",
"p c #635E54",
"a c #646464",
"s c #6A6A6A",
"d c #747474",
"f c #7E7E7E",
"g c #857D6B",
"h c #948C7D",
"j c #838383",
"k c #8C8C8C",
"l c #9D9688",
"z c #939393",
"x c #9D9D9D",
"c c #A5A5A5",
"v c #ACACAC",
"b c #B5B5B5",
"n c #BBBBBB",
"m c #C3C3C3",
"M c #CACACA",
"N c #D4D4D4",
"B c #DBDBDB",
"V c #E3E3E3",
"C c #ECECEC",
"Z c #F3F3F3",
"A c #FFFFFF",
"S c None",
/* pixels */
"SSSSSSSSSSSSSSSSSSSSSSSSSSSSSSSSSSSSSSSSSSSSSSSSSSSSSSSSSSSSSSSSSSSSSSSSSSSSSSSSSSSSSSSSSSSSSSSSSSSSSSSSSSSSSSSSSSSSSSSSSSSSSSSS",
"SSSSSSSSSSSSSSSSSSSSSSSSSSSSSSSSSSSSSSSSSSSSSSSSSSSS       SSSSSSSSSSSSSSSSSSSSSSSSSSSSSSSSSSSSSSSSSSSSSSSSSSSSSSSSSSSSSSSSSSSSS",
"SSSSSSSSSSSSSSSSSSSSSSSSSSSSSSSSSSSSSSSSSSSSS                      SSSSSSSSSSSSSSSSSSSSSSSSSSSSSSSSSSSSSSSSSSSSSSSSSSSSSSSSSSSSS",
"SSSSSSSSSSSSSSSSSSSSSSSSSSSSSSSSSSSSSSSSS      X,44>>@@>,tiiu4X        SSSSSSSSSSSSSSSSSSSSSSSSSSSSSSSSSSSSSSSSSSSSSSSSSSSSSSSSS",
"SSSSSSSSSSSSSSSSSSSSSSSSSSSSSSSSSSSSSS     4ii4                 @3>.     SSSSSSSSSSSSSSSSSSSSSSSSSSSSSSSSSSSSSSSSSSSSSSSSSSSSSSS",
"SSSSSSSSSSSSSSSSSSSSSSSSSSSSSSSSSSS    +ist        @@33333@@        ,,      SSSSSSSSSSSSSSSSSSSSSSSSSSSSSSSSSSSSSSSSSSSSSSSSSSSS",
"SSSSSSSSSSSSSSSSSSSSSSSSSSSSSSSSS    ys3      @@33tkvnnnnnvjt,33@@     >>     SSSSSSSSSSSSSSSSSSSSSSSSSSSSSSSSSSSSSSSSSSSSSSSSSS",
"SSSSSSSSSSSSSSSSSSSSSSSSSSSSSSS   .aa     @@3tkvbnbnnnnnnnnnnbbbcf4,@     >     SSSSSSSSSSSSSSSSSSSSSSSSSSSSSSSSSSSSSSSSSSSSSSSS",
"SSSSSSSSSSSSSSSSSSSSSSSSSSSSSS   si    @4tkbnnnnnnbnnnnnnnmmmnnnnnncft,@    @     SSSSSSSSSSSSSSSSSSSSSSSSSSSSSSSSSSSSSSSSSSSSSS",
"SSSSSSSSSSSSSSSSSSSSSSSSSSSS   is    @tjbnnnbbbnnbnnnmmmmMMmMmmmmnnnnncd4@    .    SSSSSSSSSSSSSSSSSSSSSSSSSSSSSSSSSSSSSSSSSSSSS",
"SSSSSSSSSSSSSSSSSSSSSSSSSS   tj    @tkmnbnnbbnnnnmmmMMNNNNBBBBNNMMMmmmnnbf4@         SSSSSSSSSSSSSSSSSSSSSSSSSSSSSSSSSSSSSSSSSSS",
"SSSSSSSSSSSSSSSSSSSSSSSSS  +j4   >tknnnnbbnnnnmmMMNNBBBVVVCCCVVVBVBNNNMMmnbj4@        SSSSSSSSSSSSSSSSSSSSSSSSSSSSSSSSSSSSSSSSSS",
"SSSSSSSSSSSSSSSSSSSSSSSS  uf    4jnnnbbbbnmmmMNBBVVVVCCCZZZZZZCCZCCVVVBBNMMnbj4@   X    SSSSSSSSSSSSSSSSSSSSSSSSSSSSSSSSSSSSSSSS",
"SSSSSSSSSSSSSSSSSSSSSSS  dt   @tcnnbbbbnnmMNBBVVCCCCZZZZAAZAAAAZZZZZCCCVVBNNMmbf4+       SSSSSSSSSSSSSSSSSSSSSSSSSSSSSSSSSSSSSSS",
"SSSSSSSSSSSSSSSSSSSSSS  f   @tznnnbbbnnMMNBVVCCCZZZAAAAAAAAAAAAAAAAAZAZZZCVVBNMmbd,       SSSSSSSSSSSSSSSSSSSSSSSSSSSSSSSSSSSSSS",
"SSSSSSSSSSSSSSSSSSSS  +j   4jmmnbbbnnmMNBBCCZZAZAAAAAAAAAAAAAAAAAAAAAAAZAZZCVVBNMmc,       SSSSSSSSSSSSSSSSSSSSSSSSSSSSSSSSSSSSS",
"SSSSSSSSSSSSSSSSSSS  @j   4vmnnbbbnmmNBVVZZZAAAAAAAAAAAAAAAAAAAAAAAAAAAAAAZZZCVVBNMct+      SSSSSSSSSSSSSSSSSSSSSSSSSSSSSSSSSSSS",
"SSSSSSSSSSSSSSSSSS  @j   4vmnnbbnnmNNVVCZZAAAAAAAAAAAAAAAAAAAAAAAAAAAAAAAAAAAZZCVVNNmf,      SSSSSSSSSSSSSSSSSSSSSSSSSSSSSSSSSSS",
"SSSSSSSSSSSSSSSSSS @f   3vmnbbbnmMNBVCZZZAAAAAAAAAAAAAAAAAAAAAAAAAAAAAAAAAAAAAAZZCCVBNc3  X   SSSSSSSSSSSSSSSSSSSSSSSSSSSSSSSSSS",
"SSSSSSSSSSSSSSSSS Xf   3cmnbbnnMNBVCZZAAAAAAAAAAAAAAAAAAAAAAAAAAAAAAAAAAAAAAAAAAAZZCVBNc3  X   SSSSSSSSSSSSSSSSSSSSSSSSSSSSSSSSS",
"SSSSSSSSSSSSSSSS  f   4cmbbbnnMNBVCZZAAAAAAAAAAAAAAAAAAAAAAAAAAAAAAAAAAAAAAAAAAAAAAZZCVNv,      SSSSSSSSSSSSSSSSSSSSSSSSSSSSSSSS",
"SSSSSSSSSSSSSSS  j   4vnbbbnnMNVCZZAAAAAAAAAAAAAAAAAAAAAAAAAAAAAAAAAAAAAAAAAAAAAAAAZZZCVBv,     SSSSSSSSSSSSSSSSSSSSSSSSSSSSSSSS",
"SSSSSSSSSSSSSS  s>  3vmnbbnnMNVCZZAAAAAAAAAAAAAAAAAAAAAAAAAAAAAAAAAAAAAAAAAAAAAAAAAAAAZZVBj@     SSSSSSSSSSSSSSSSSSSSSSSSSSSSSSS",
"SSSSSSSSSSSSSS 4a  4vmnbbnmMNBCZZAAAAAAAAAAAAAAAAAAAAAAAAAAAAAAAAAAAAAAAAAAAAAAAAAAAAAAZZCNt  X   SSSSSSSSSSSSSSSSSSSSSSSSSSSSSS",
"SSSSSSSSSSSSS  f  @jmnbbbmMNVCZAAAAAAAAAAAAAAAAAAAAAAAAAAAAAAAAAAAAAAAAAAAAAAAAAAAAAAAAAZCCm3      SSSSSSSSSSSSSSSSSSSSSSSSSSSSS",
"SSSSSSSSSSSS  d   tmnbbbmmNVCZZAAAAAAAAAAAAAAAAAAAAAAAAAAAAAAAAAAAAAAAAAAAAAAAAAAAAAAAAAAAZVn4     SSSSSSSSSSSSSSSSSSSSSSSSSSSSS",
"SSSSSSSSSSSS ,i  4cmnbnnmNVCZZAAAAAAAAAAAAAAAAAAAAAAAAAAAAAAAAAAAAAAAAAAAAAAAAAAAAAAAAAAAZACVk+ X   SSSSSSSSSSSSSSSSSSSSSSSSSSSS",
"SSSSSSSSSSS  f  @jnnbbnmNVCZAAAAAAAAAAAAAAAAAAAAAAAAAAAAAAAAAAAAAAAAAAAAAAAAAAAAAAAAAAAAAAAAZBt     SSSSSSSSSSSSSSSSSSSSSSSSSSSS",
"SSSSSSSSSS  i   tmnbbnmNBCCAAAAAAAAAAAAAAAAAAAAAAAAAAAAAAAAAAAAAAAAAAAAAAAAAAAAAAAAAAAAAAAAAZCx@     SSSSSSSSSSSSSSSSSSSSSSSSSSS",
"SSSSSSSSSS  s  4cnbbbmMBVCAZAAAAAAAAAAAAAAAAAAAAAAAAAAAAAAAAAAAAAAAAAAAAAAAAAAAAAAAAAAAAAAAAAZVt      SSSSSSSSSSSSSSSSSSSSSSSSSS",
"SSSSSSSSS  a  @jmnbbnMNVZZAAAAAAAAAAAAAAAAAAAAAAAAAAAAAAAAAAAAAAAAAAAAAAAAAAAAAAAAAAAAAAAAAAAZCm4     SSSSSSSSSSSSSSSSSSSSSSSSSS",
"SSSSSSSSS  s  tnnbbnmNVCZAAAAAAAAAAAAAAAAAAAAAAAAAAAAAAAAAAAAAAAAAAAAAAAAAAAAAAAAAAAAAAAAAAAAAACk+     SSSSSSSSSSSSSSSSSSSSSSSSS",
"SSSSSSSSS i  @znnbbmMBVZAAAAAAAAAAAAAAAAAAAAAAAAAAAAAAAAAAAAAAAAAAAAAAAAAAAAAAAAAAAAAAAAAAAAAAAZVt     SSSSSSSSSSSSSSSSSSSSSSSSS",
"SSSSSSSS  d  tmnbbnMNVCZAAAAAAAAAAAAAAAAAAAAAAAAAAAAAAAAAAAAAAAAAAAAAAAAAAAAAAAAAAAAAAAAAAAAAAAACz+    SSSSSSSSSSSSSSSSSSSSSSSSS",
"SSSSSSSS 3+ @jnnbnmMVCZAAAAAAAAAAAAAAAAAAAAAAAAAAAAAAAAAAAAAAAAAAAAAAAAAAAAAAAAAAAAAAAAAAAAAAAAAZB3 X   SSSSSSSSSSSSSSSSSSSSSSSS",
"SSSSSSS  s  4bnbbmMBVZAAAAAAAAAAAAAAAAAAAAAAAAAAAAAAAAAAAAAAAAAAAAAAAAAAAAAAAAAAAAAAAAAAAAAAAAAAACy     SSSSSSSSSSSSSSSSSSSSSSSS",
"SSSSSSS  u  tnnbnmNVCZAAAAAAAAAAAAAAAAAAAAAAAAAAAAAAAAAAAAAAAAAAAAAAAAAAAAAAAAAAAAAAAAAAAAAAAAAAAZc@    SSSSSSSSSSSSSSSSSSSSSSSS",
"SSSSSSS 4  @kbbbnMBCZZAAAAAAAAAAAAAAAAAAAAAAAAAAAAAAAAAAAAAAAAAAAAAAAAAAAAAAAAAAAAAAAAAAAAAAAAAAAACy     SSSSSSSSSSSSSSSSSSSSSSS",
"SSSSSS  a  tnnbnmNVCZAAAAAAAAAAAAAAAAAAAAAAAAAAAAAAAAAAAAAAAAAAAAAAAAAAAAAAAAAAAAAAAAAAAAAAAAAAAAZZzX    SSSSSSSSSSSSSSSSSSSSSSS",
"SSSSSS  y @jnnbnmBVCAAAAAAAAAAAAAAAAAAAAAAAAAAAAAAAAAAAAAAAAAAAAAAAAAAAAAAAAAAAAAAAAAAAAAAAAAAAAAAZB,    SSSSSSSSSSSSSSSSSSSSSSS",
"SSSSSS >  @bnbnnMBCZAAAAAAAAAAAAAAAAAAAAAAAAAAAAAAAAAAAAAAAAAAAAAAAAAAAAAAAAAAAAAAAAAAAAAAAAAAAAAAAZy +   SSSSSSSSSSSSSSSSSSSSSS",
"SSSSSS y  3nnbnmNVZAAAAAAAAAAAAAAAAAAAAAAAAAAAAAAAAAAAAAAAAAAAAAAAAAAAAAAAAAAAAAAAAAAAAAAAAAAAAAAAAZc.    SSSSSSSSSSSSSSSSSSSSSS",
"SSSSSS i  tnnnnMBCZZAAAAAAAAAAAAAAAAAAAAAAAAAAAAAAAAAAAAAAAAAAAAAAAAAAAAAAAAAAAAAAAAAAAAAAAAAAAAAAAZBX    SSSSSSSSSSSSSSSSSSSSSS",
"SSSSS  t @knbnmNVCZAAAAAAAAAAAAAAAAAAAAAAAAAAAAAAAAAAAAAAAAAAAAAAAAAAAAAAAAAAAAAAAAAAAAAAAAAAAAAAAAAZ> X  SSSSSSSSSSSSSSSSSSSSSS",
"SSSSS  + @vnnnmNVCAAAAAAAAAAAAAAAAAAAAAAAAAAAAAAAAAAAAAAAAAAAAAAAAAAAAAAAAAAAAAAAAAAAAAAAAAAAAAAAAAAZ, @  SSSSSSSSSSSSSSSSSSSSSS",
"SSSSS @  3nnnnMBCZAAAAAAAAAAAAAAAAAAAAAAAAAAAAAAAAAAAAAAAAAAAAAAAAAAAAAAAAAAAAAAAAAAAAAAAAAAAAAAAAAAZy +   SSSSSSSSSSSSSSSSSSSSS",
"SSSSS ,  3nnnmMVCZAAAAAAAAAAAAAAAAAAAAAAAAAAAAAAAAAAAAAAAAAAAAAAAAAAAAAAAAAAAAAAAAAAAAAAAAAAAAAAAAAAAc..   SSSSSSSSSSSSSSSSSSSSS",
"SSSSS 3  tnbnmNVZZAAAAAAAAAAAAAAAAAAAAAAAAAAAAAAAAAAAAAAAAAAAAAAAAAAAAAAAAAAAAAAAAAAAAAAAAAAAAAAAAAAAB.    SSSSSSSSSSSSSSSSSSSSS",
"SSSSS 3 @knnnmBVZAAAAAAAAAAAAAAAAAAAAAAAAAAAAAAAAAAAAAAAAAAAAAAAAAAAAAAAAAAAAAAAAAAAAAAAAAAAAAAAAAAAAC+    SSSSSSSSSSSSSSSSSSSSS",
"SSSSS , @vnnnMBVZZAAAAAAAAAAAAAAAAAAAAAAAAAAAAAAAAAAAAAAAAAAAAAAAAAAAAAAAAAAAAAAAAAAAAAAAAAAAAAAAAAAAZ@    SSSSSSSSSSSSSSSSSSSSS",
"SSSSS > 3nnnmMBCZAAAAAAAAAAAAAAAAAAAAAAAAAAAAAAAAAAAAAAAAAAAAAAAAAAAAAAAAAAAAAAAAAAAAAAAAAAAAAAAAAAAAZ@    SSSSSSSSSSSSSSSSSSSSS",
"SSSSS 3 4nnnmNBCZAAAAAAAAAAAAAAAAAAAAAAAAAAAAAAAAAAAAAAAAAAAAAAAAAAAAAAAAAAAAAAAAAAAAAAAAAAAAAAAAAAAAZ> X  SSSSSSSSSSSSSSSSSSSSS",
"SSSSS t 3nnnmNVCAAAAAAAAAAAAAAAAAAAAAAAAAAAAAAAAAAAAAAAAAAAAAAAAAAAAAAAAAAAAAAAAAAAAAAAAAAAAAAAAAAAAAZ> X  SSSSSSSSSSSSSSSSSSSSS",
"SSSSS u 3nnmMNVZZAAAAAAAAAAAAAAAAAAAAAAAAAAAAAAAAAAAAAAAAAAAAAAAAAAAAAAAAAAAAAAAAAAAAAAAAAAAAAAAAAAAAZ@ .  SSSSSSSSSSSSSSSSSSSSS",
"SSSSS i @vnnMBVZAAAAAAAAAAAAAAAAAAAAAAAAAAAAAAAAAAAAAAAAAAAAAAAAAAAAAAAAAAAAAAAAAAAAAAAAAAAAAAAAAAAAAZ@    SSSSSSSSSSSSSSSSSSSSS",
"SSSSS a @knmmBVZAAAAAAAAAAAAAAAAAAAAAAAAAAAAAAAAAAAAAAAAAAAAAAAAAAAAAAAAAAAAAAAAAAAAAAAAAAAAAAAAAAAAAZ@@   SSSSSSSSSSSSSSSSSSSSS",
"SSSSS u  tnnMBVZZAAAAAAAAAAAAAAAAAAAAAAAAAAAAAAAAAAAAAAAAAAAAAAAAAAAAAAAAAAAAAAAAAAAAAAAAAAAAAAAAAAAAZ+4   SSSSSSSSSSSSSSSSSSSSS",
"SSSSS 4  3bnmBCZAAAAAAAAAAAAAAAAAAAAAAAAAAAAAAAAAAAAAAAAAAAAAAAAAAAAAAAAAAAAAAAAAAAAAAAAAAAAAAAAAAAAAB.u   SSSSSSSSSSSSSSSSSSSSS",
"SSSSS X  ,nnmNVZAAAAAAAAAAAAAAAAAAAAAAAAAAAAAAAAAAAAAAAAAAAAAAAAAAAAAAAAAAAAAAAAAAAAAAAAAAAAAAAAAAAAAv.a   SSSSSSSSSSSSSSSSSSSSS",
"SSSSS  X 3bnmNVZZAAAAAAAAAAAAAAAAAAAAAAAAAAAAAAAAAAAAAAAAAAAAAAAAAAAAAAAAAAAAAAAAAAAAAAAAAAAAAAAAAAAZu s  SSSSSSSSSSSSSSSSSSSSSS",
"SSSSS  > @cnmNVCZAAAAAAAAAAAAAAAAAAAAAAAAAAAAAAAAAAAAAAAAAAAAAAAAAAAAAAAAAAAAAAAAAAAAAAAAAAAAAAAAAAAZ3 u  SSSSSSSSSSSSSSSSSSSSSS",
"SSSSS  4 @jnnMBCZAAAAAAAAAAAAAAAAAAAAAAAAAAAAAAAAAAAAAAAAAAAAAAAAAAAAAAAAAAAAAAAAAAAAAAAAAAAAAAAAAAAZ,+>  SSSSSSSSSSSSSSSSSSSSSS",
"SSSSSS ,  4bnMBCZAAAAAAAAAAAAAAAAAAAAAAAAAAAAAAAAAAAAAAAAAAAAAAAAAAAAAAAAAAAAAAAAAAAAAAAAAAAAAAAAAAAV+t   SSSSSSSSSSSSSSSSSSSSSS",
"SSSSSS    3cnMNVZAAAAAAAAAAAAAAAAAAAAAAAAAAAAAAAAAAAAAAAAAAAAAAAAAAAAAAAAAAAAAAAAAAAAAAAAAAAAAAAAAAZvXa   SSSSSSSSSSSSSSSSSSSSSS",
"SSSSSS  , @jbmBVZZAAAAAAAAAAAAAAAAAAAAAAAAAAAAAAAAAAAAAAAAAAAAAAAAAAAAAAAAAAAAAAAAAAAAAAAAAAAAAAAAAZu a   SSSSSSSSSSSSSSSSSSSSSS",
"SSSSSS  3  4bmNVCZAAAAAAAAAAAAAAAAAAAAAAAAAAAAAAAAAAAAAAAAAAAAAAAAAAAAAAAAAAAAAAAAAAAAAAAAAAAAAAAAAV3>4  SSSSSSSSSSSSSSSSSSSSSSS",
"SSSSSS     ,cmMBCZAAAAAAAAAAAAAAAAAAAAAAAAAAAAAAAAAAAAAAAAAAAAAAAAAAAAAAAAAAAAAAAAAAAAAAAAAAAAAAAAAx+s   SSSSSSSSSSSSSSSSSSSSSSS",
"SSSSSSS  . @fnMBVZAAAAAAAAAAAAAAAAAAAAAAAAAAAAAAAAAAAAAAAAAAAAAAAAAAAAAAAAAAAAAAAAAAAAAAAAAAAAAAAACu d   SSSSSSSSSSSSSSSSSSSSSSS",
"SSSSSSS  @  4bmNVZAAAAAAAAAAAAAAAAAAAAAAAAAAAAAAAAAAAAAAAAAAAAAAAAAAAAAAAAAAAAAAAAAAAAAAAAAAAAAAAZv@33  SSSSSSSSSSSSSSSSSSSSSSSS",
"SSSSSSS     ,cnMBCZZAAAAAAAAAAAAAAAAAAAAAAAAAAAAAAAAAAAAAAAAAAAAAAAAAAAAAAAAAAAAAAAAAAAAAAAAAAAAAAu s   SSSSSSSSSSSSSSSSSSSSSSSS",
"SSSSSSSS  X @dnMBVZAAAAAAAAAAAAAAAAAAAAAAAAAAAAAAAAAAAAAAAAAAAAAAAAAAAAAAAAAAAAAAAAAAAAAAAAAAAAAAV4 a   SSSSSSSSSSSSSSSSSSSSSSSS",
"SSSSSSSS     4bmNVCZAAAAAAAAAAAAAAAAAAAAAAAAAAAAAAAAAAAAAAAAAAAAAAAAAAAAAAAAAAAAAAAAAAAAAAAAAAAAAx+i   SSSSSSSSSSSSSSSSSSSSSSSSS",
"SSSSSSSSS    @fnMBCZAAAAAAAAAAAAAAAAAAAAAAAAAAAAAAAAAAAAAAAAAAAAAAAAAAAAAAAAAAAAAAAAAAAAAAAAAAAACu d   SSSSSSSSSSSSSSSSSSSSSSSSS",
"SSSSSSSSS  X  4bmBVZAAAAAAAAAAAAAAAAAAAAAAAAAAAAAAAAAAAAAAAAAAAAAAAAAAAAAAAAAAAAAAAAAAAAAAAAAAAAx+u.  SSSSSSSSSSSSSSSSSSSSSSSSSS",
"SSSSSSSSS     @dmNVCZAAAAAAAAAAAAAAAAAAAAAAAAAAAAAAAAAAAAAAAAAAAAAAAAAAAAAAAAAAAAAAAAAAAAAAAAAAN4 f   SSSSSSSSSSSSSSSSSSSSSSSSSS",
"SSSSSSSSSS  .  ,cmBVZZAAAAAAAAAAAAAAAAAAAAAAAAAAAAAAAAAAAAAAAAAAAAAAAAAAAAAAAAAAAAAAAAAAAAAAAAZu a   SSSSSSSSSSSSSSSSSSSSSSSSSSS",
"SSSSSSSSSS   @  tnMVCZAAAAAAAAAAAAAAAAAAAAAAAAAAAAAAAAAAAAAAAAAAAAAAAAAAAAAAAAAAAAAAAAAAAAAAAAc@+d   SSSSSSSSSSSSSSSSSSSSSSSSSSS",
"SSSSSSSSSSS     @dMBVZAAAAAAAAAAAAAAAAAAAAAAAAAAAAAAAAAAAAAAAAAAAAAAAAAAAAAAAAAAAAAAAAAAAAAAAZu d   SSSSSSSSSSSSSSSSSSSSSSSSSSSS",
"SSSSSSSSSSSS  X  ,cMBCZAAAAAAAAAAAAAAAAAAAAAAAAAAAAAAAAAAAAAAAAAAAAAAAAAAAAAAAAAAAAAAAAAAAAAAx@t4   SSSSSSSSSSSSSSSSSSSSSSSSSSSS",
"SSSSSSSSSSSS      tmNVCZAAAAAAAAAAAAAAAAAAAAAAAAAAAAAAAAAAAAAAAAAAAAAAAAAAAAAAAAAAAAAAAAAAAAN4 f   SSSSSSSSSSSSSSSSSSSSSSSSSSSSS",
"SSSSSSSSSSSSS     @dMBCZAAAAAAAAAAAAAAAAAAAAAAAAAAAAAAAAAAAAAAAAAAAAAAAAAAAAAAAAAAAAAAAAAAAB4 f    SSSSSSSSSSSSSSSSSSSSSSSSSSSSS",
"SSSSSSSSSSSSSS     ,cNBCZAAAAAAAAAAAAAAAAAAAAAAAAAAAAAAAAAAAAAAAAAAAAAAAAAAAAAAAAAAAAAAAAAZu i3   SSSSSSSSSSSSSSSSSSSSSSSSSSSSSS",
"SSSSSSSSSSSSSS      3cNVCZZAAAAAAAAAAAAAAAAAAAAAAAAAAAAAAAAAAAAAAAAAAAAAAAAAAAAAAAAAAAAAAZx@,s   SSSSSSSSSSSSSSSSSSSSSSSSSSSSSSS",
"SSSSSSSSSSSSSSS      ,vBVZZAAAAAAAAAAAAAAAAAAAAAAAAAAAAAAAAAAAAAAAAAAAAAAAAAAAAAAAAAAAAAAN4.j   SSSSSSSSSSSSSSSSSSSSSSSSSSSSSSSS",
"SSSSSSSSSSSSSSSS      3vBCZAAAAAAAAAAAAAAAAAAAAAAAAAAAAAAAAAAAAAAAAAAAAAAAAAAAAAAAAAAAAAN4 j    SSSSSSSSSSSSSSSSSSSSSSSSSSSSSSSS",
"SSSSSSSSSSSSSSSSS      3bBCZAZAAAAAAAAAAAAAAAAAAAAAAAAAAAAAAAAAAAAAAAAAAAAAAAAAAAAAAAAAN4 a,   SSSSSSSSSSSSSSSSSSSSSSSSSSSSSSSSS",
"SSSSSSSSSSSSSSSSS       3bBCZAAAAAAAAAAAAAAAAAAAAAAAAAAAAAAAAAAAAAAAAAAAAAAAAAAAAAAAAAN4 >a   SSSSSSSSSSSSSSSSSSSSSSSSSSSSSSSSSS",
"SSSSSSSSSSSSSSSSSS       3bBVZZAAAAAAAAAAAAAAAAAAAAAAAAAAAAAAAAAAAAAAAAAAAAAAAAAAAAACx4  s   SSSSSSSSSSSSSSSSSSSSSSSSSSSSSSSSSSS",
"SSSSSSSSSSSSSSSSSSS       3bBCZAAAAAAAAAAAAAAAAAAAAAAAAAAAAAAAAAAAAAAAAAAAAAAAAAAAZNi@ Xdu  SSSSSSS--SSSSSSSSSSSSSSSSSSSSSSSSSSS",
"SSSSSSSSSSSSSSSSSSSS       3kNVZZAAAAAAAAAAAAAAAAAAAAAAAAAAAAAAAAAAAAAAAAAAAAAAAAZx4  afi    SSSSS;;-&SSSSSSSSSSSSSSSSSSSSSSSSSS",
"SSSSSSSSSSSSSSSSSSSSS       @txVCAAAAAAAAAAAAAAAAAAAAAAAAAAAAAAAAAAAAAAAAAAAAAAANu> id,       SSS75;-&SSSSSSSSSSSSSSSSSSSSSSSSSS",
"SSSSSSSSSSSSSSSSSSSSSSS       @tmCZZAAAAAAAAAAAAAAAAAAAAAAAAAAAAAAAAAAAAAAAAAACx4 @f4         .%eh;-%&;-SSSSSSSSSSSSSSSSSSSSSSSS",
"SSSSSSSSSSSSSSSSSSSSSSSS    +   3kVZAZAAAAAAAAAAAAAAAAAAAAAAAAAAAAAAAAAAAAAACvu> id     S   @.o9l;-#O-;-%SSSSSSSSSSSSSSSSSSSSSSS",
"SSSSSSSSSSSSSSSSSSSSSSSSS        @txVZZAAAAAAAAAAAAAAAAAAAAAAAAAAAAAAAAAAAZvu> 3f+    SSSS  =p9l;-#O65;-%SSSSSSSSSSSSSSSSSSSSSSS",
"SSSSSSSSSSSSSSSSSSSSSSSSSS         >tzNZZAAAAAAAAAAAAAAAAAAAAAAAAAAAAAAACvu@ +dy     SSSSSS orl;-#O0h;-%%;&SSSSSSSSSSSSSSSSSSSSS",
"SSSSSSSSSSSSSSSSSSSSSSSSSSSS         @4tcCZZAAAAAAAAAAAAAAAAAAAAAAAAAZVxu@ @di      SSSSSSS#8l;-1<9l;-#O-;-%SSSSSSSSSSSSSSSSSSSS",
"SSSSSSSSSSSSSSSSSSSSSSSSSSSSS      X    @yzBCZAAAAAAAAAAAAAAAAAAAZZVvu4= 3di      SSSSSSSSSql;-220l;;#O65;-%SSSSSSSSSSSSSSSSSSSS",
"SSSSSSSSSSSSSSSSSSSSSSSSSSSSSSS       X   >@4ycBCCZAAAAAAAZAZZZVvy4>=  id4      SSSSSSSSSSel;*:20l;*#O0h;-%%-&SSSSSSSSSSSSSSSSSS",
"SSSSSSSSSSSSSSSSSSSSSSSSSSSSSSSSS             >@44ycBCCZZZVvu44>>  @usy       SSSSSSSSSSS;g;-#<wl;-#O7l;-#O-;-%SSSSSSSSSSSSSSSSS",
"SSSSSSSSSSSSSSSSSSSSSSSSSSSSSSSSSSS         @+     >@44444==  .3usi>        SSSSSSSSSSSS;;;*##8l;-#O9l;*#O65;*%SSSSSSSSSSSSSSSSS",
"SSSSSSSSSSSSSSSSSSSSSSSSSSSSSSSSSSSSSS           .    .@3yadda4.          SSSSSSSSSSSSS-;--#O9l;*#O9l;-#O0h;-%%-&SSSSSSSSSSSSSSS",
"SSSSSSSSSSSSSSSSSSSSSSSSSSSSSSSSSSSSSSSSS                              SSSSSSSSSSSSSSSSS--&#-g;-#O9l;-#O9l;-#O-;-%SSSSSSSSSSSSSS",
"SSSSSSSSSSSSSSSSSSSSSSSSSSSSSSSSSSSSSSSSSSSS                       SSSSSSSSSSSSSSSSSSSSSS-S;;;-#O8l;-#O7l;-#O65;-%SSSSSSSSSSSSSS",
"SSSSSSSSSSSSSSSSSSSSSSSSSSSSSSSSSSSSSSSSSSSSSSSSSS         SSSSSSSSSSSSSSSSSSSSSSSSSSSSSSS-;;-#O9l;-#O8l;-#O9h;-%%--SSSSSSSSSSSS",
"SSSSSSSSSSSSSSSSSSSSSSSSSSSSSSSSSSSSSSSSSSSSSSSSSSSSSSSSSSSSSSSSSSSSSSSSSSSSSSSSSSSSSSSSSSS*-%#-g;-#O9l;-##8l;-#O-;-%SSSSSSSSSSS",
"SSSSSSSSSSSSSSSSSSSSSSSSSSSSSSSSSSSSSSSSSSSSSSSSSSSSSSSSSSSSSSSSSSSSSSSSSSSSSSSSSSSSSSSSSSSS%%;;;-##9l;-#O8l;-#O65;-%SSSSSSSSSSS",
"SSSSSSSSSSSSSSSSSSSSSSSSSSSSSSSSSSSSSSSSSSSSSSSSSSSSSSSSSSSSSSSSSSSSSSSSSSSSSSSSSSSSSSSSSSSSS&;-*#O8l;-#O9l;-#O0h;-%%;%SSSSSSSSS",
"SSSSSSSSSSSSSSSSSSSSSSSSSSSSSSSSSSSSSSSSSSSSSSSSSSSSSSSSSSSSSSSSSSSSSSSSSSSSSSSSSSSSSSSSSSSSSS&-%#*g;-#O8l;-#O7l;-#O-;-%SSSSSSSS",
"SSSSSSSSSSSSSSSSSSSSSSSSSSSSSSSSSSSSSSSSSSSSSSSSSSSSSSSSSSSSSSSSSSSSSSSSSSSSSSSSSSSSSSSSSSSSSSS%$-;;-#O9l;-#O8l;-#O65;-%SSSSSSSS",
"SSSSSSSSSSSSSSSSSSSSSSSSSSSSSSSSSSSSSSSSSSSSSSSSSSSSSSSSSSSSSSSSSSSSSSSSSSSSSSSSSSSSSSSSSSSSSSSS*---#O9l;-#O8l;-#O9h;-%SSSSSSSSS",
"SSSSSSSSSSSSSSSSSSSSSSSSSSSSSSSSSSSSSSSSSSSSSSSSSSSSSSSSSSSSSSSSSSSSSSSSSSSSSSSSSSSSSSSSSSSSSSSSS*-%#-g;-#O7l;-#O8l;-#. SSSSSSSS",
"SSSSSSSSSSSSSSSSSSSSSSSSSSSSSSSSSSSSSSSSSSSSSSSSSSSSSSSSSSSSSSSSSSSSSSSSSSSSSSSSSSSSSSSSSSSSSSSSSS%%-;;-#O9l;-#O9l;-#.  SSSSSSSS",
"SSSSSSSSSSSSSSSSSSSSSSSSSSSSSSSSSSSSSSSSSSSSSSSSSSSSSSSSSSSSSSSSSSSSSSSSSSSSSSSSSSSSSSSSSSSSSSSSSSS&;;-#O9l;-#O8l;-#.   SSSSSSSS",
"SSSSSSSSSSSSSSSSSSSSSSSSSSSSSSSSSSSSSSSSSSSSSSSSSSSSSSSSSSSSSSSSSSSSSSSSSSSSSSSSSSSSSSSSSSSSSSSSSSSS&-%#-g;-#O8l;-#.   SSSSSSSSS",
"SSSSSSSSSSSSSSSSSSSSSSSSSSSSSSSSSSSSSSSSSSSSSSSSSSSSSSSSSSSSSSSSSSSSSSSSSSSSSSSSSSSSSSSSSSSSSSSSSSSSS%$-;;-#O9l;*#.   SSSSSSSSSS",
"SSSSSSSSSSSSSSSSSSSSSSSSSSSSSSSSSSSSSSSSSSSSSSSSSSSSSSSSSSSSSSSSSSSSSSSSSSSSSSSSSSSSSSSSSSSSSSSSSSSSSS&;;-#O9l;-#.   SSSSSSSSSSS",
"SSSSSSSSSSSSSSSSSSSSSSSSSSSSSSSSSSSSSSSSSSSSSSSSSSSSSSSSSSSSSSSSSSSSSSSSSSSSSSSSSSSSSSSSSSSSSSSSSSSSSSS&-%#&g;-#.   SSSSSSSSSSSS",
"SSSSSSSSSSSSSSSSSSSSSSSSSSSSSSSSSSSSSSSSSSSSSSSSSSSSSSSSSSSSSSSSSSSSSSSSSSSSSSSSSSSSSSSSSSSSSSSSSSSSSSSS%%-;;-#.   SSSSSSSSSSSSS",
"SSSSSSSSSSSSSSSSSSSSSSSSSSSSSSSSSSSSSSSSSSSSSSSSSSSSSSSSSSSSSSSSSSSSSSSSSSSSSSSSSSSSSSSSSSSSSSSSSSSSSSSSS&;;-#.   SSSSSSSSSSSSSS",
"SSSSSSSSSSSSSSSSSSSSSSSSSSSSSSSSSSSSSSSSSSSSSSSSSSSSSSSSSSSSSSSSSSSSSSSSSSSSSSSSSSSSSSSSSSSSSSSSSSSSSSSSSS&-%.   SSSSSSSSSSSSSSS",
"SSSSSSSSSSSSSSSSSSSSSSSSSSSSSSSSSSSSSSSSSSSSSSSSSSSSSSSSSSSSSSSSSSSSSSSSSSSSSSSSSSSSSSSSSSSSSSSSSSSSSSSSSSS%SS  SSSSSSSSSSSSSSSS",
"SSSSSSSSSSSSSSSSSSSSSSSSSSSSSSSSSSSSSSSSSSSSSSSSSSSSSSSSSSSSSSSSSSSSSSSSSSSSSSSSSSSSSSSSSSSSSSSSSSSSSSSSSSSSSSSSSSSSSSSSSSSSSSSS",
"SSSSSSSSSSSSSSSSSSSSSSSSSSSSSSSSSSSSSSSSSSSSSSSSSSSSSSSSSSSSSSSSSSSSSSSSSSSSSSSSSSSSSSSSSSSSSSSSSSSSSSSSSSSSSSSSSSSSSSSSSSSSSSSS",
"SSSSSSSSSSSSSSSSSSSSSSSSSSSSSSSSSSSSSSSSSSSSSSSSSSSSSSSSSSSSSSSSSSSSSSSSSSSSSSSSSSSSSSSSSSSSSSSSSSSSSSSSSSSSSSSSSSSSSSSSSSSSSSSS",
"SSSSSSSSSSSSSSSSSSSSSSSSSSSSSSSSSSSSSSSSSSSSSSSSSSSSSSSSSSSSSSSSSSSSSSSSSSSSSSSSSSSSSSSSSSSSSSSSSSSSSSSSSSSSSSSSSSSSSSSSSSSSSSSS",
"SSSSSSSSSSSSSSSSSSSSSSSSSSSSSSSSSSSSSSSSSSSSSSSSSSSSSSSSSSSSSSSSSSSSSSSSSSSSSSSSSSSSSSSSSSSSSSSSSSSSSSSSSSSSSSSSSSSSSSSSSSSSSSSS",
"SSSSSSSSSSSSSSSSSSSSSSSSSSSSSSSSSSSSSSSSSSSSSSSSSSSSSSSSSSSSSSSSSSSSSSSSSSSSSSSSSSSSSSSSSSSSSSSSSSSSSSSSSSSSSSSSSSSSSSSSSSSSSSSS",
"SSSSSSSSSSSSSSSSSSSSSSSSSSSSSSSSSSSSSSSSSSSSSSSSSSSSSSSSSSSSSSSSSSSSSSSSSSSSSSSSSSSSSSSSSSSSSSSSSSSSSSSSSSSSSSSSSSSSSSSSSSSSSSSS"
};
