  0
SECTION
  2
HEADER
  9
$ACADVER
  1
AC1015
  9
$ACADMAINTVER
 70
     6
  9
$DWGCODEPAGE
  3
ANSI_1252
  9
$INSBASE
 10
0.0
 20
0.0
 30
0.0
  9
$EXTMIN
 10
0.5
 20
1.499999999999999
 30
0.0
  9
$EXTMAX
 10
461.586
 20
28.1719
 30
0.0
  9
$LIMMIN
 10
0.0
 20
0.0
  9
$LIMMAX
 10
12.0
 20
9.0
  9
$ORTHOMODE
 70
     0
  9
$REGENMODE
 70
     1
  9
$FILLMODE
 70
     1
  9
$QTEXTMODE
 70
     0
  9
$MIRRTEXT
 70
     1
  9
$LTSCALE
 40
1.0
  9
$ATTMODE
 70
     1
  9
$TEXTSIZE
 40
0.2
  9
$TRACEWID
 40
0.05
  9
$TEXTSTYLE
  7
Standard
  9
$CLAYER
  8
EMBMOD-HATCH-WHITE
  9
$CELTYPE
  6
ByLayer
  9
$CECOLOR
 62
   256
  9
$CELTSCALE
 40
1.0
  9
$DISPSILH
 70
     0
  9
$DIMSCALE
 40
1.0
  9
$DIMASZ
 40
0.18
  9
$DIMEXO
 40
0.0625
  9
$DIMDLI
 40
0.38
  9
$DIMRND
 40
0.0
  9
$DIMDLE
 40
0.0
  9
$DIMEXE
 40
0.18
  9
$DIMTP
 40
0.0
  9
$DIMTM
 40
0.0
  9
$DIMTXT
 40
0.18
  9
$DIMCEN
 40
0.09
  9
$DIMTSZ
 40
0.0
  9
$DIMTOL
 70
     0
  9
$DIMLIM
 70
     0
  9
$DIMTIH
 70
     1
  9
$DIMTOH
 70
     1
  9
$DIMSE1
 70
     0
  9
$DIMSE2
 70
     0
  9
$DIMTAD
 70
     0
  9
$DIMZIN
 70
     0
  9
$DIMBLK
  1

  9
$DIMASO
 70
     1
  9
$DIMSHO
 70
     1
  9
$DIMPOST
  1

  9
$DIMAPOST
  1

  9
$DIMALT
 70
     0
  9
$DIMALTD
 70
     2
  9
$DIMALTF
 40
25.4
  9
$DIMLFAC
 40
1.0
  9
$DIMTOFL
 70
     0
  9
$DIMTVP
 40
0.0
  9
$DIMTIX
 70
     0
  9
$DIMSOXD
 70
     0
  9
$DIMSAH
 70
     0
  9
$DIMBLK1
  1

  9
$DIMBLK2
  1

  9
$DIMSTYLE
  2
Standard
  9
$DIMCLRD
 70
     0
  9
$DIMCLRE
 70
     0
  9
$DIMCLRT
 70
     0
  9
$DIMTFAC
 40
1.0
  9
$DIMGAP
 40
0.09
  9
$DIMJUST
 70
     0
  9
$DIMSD1
 70
     0
  9
$DIMSD2
 70
     0
  9
$DIMTOLJ
 70
     1
  9
$DIMTZIN
 70
     0
  9
$DIMALTZ
 70
     0
  9
$DIMALTTZ
 70
     0
  9
$DIMUPT
 70
     0
  9
$DIMDEC
 70
     3
  9
$DIMTDEC
 70
     3
  9
$DIMALTU
 70
     2
  9
$DIMALTTD
 70
     2
  9
$DIMTXSTY
  7
Standard
  9
$DIMAUNIT
 70
     0
  9
$DIMADEC
 70
     0
  9
$DIMALTRND
 40
0.0
  9
$DIMAZIN
 70
     0
  9
$DIMDSEP
 70
    46
  9
$DIMATFIT
 70
     3
  9
$DIMFRAC
 70
     0
  9
$DIMLDRBLK
  1

  9
$DIMLUNIT
 70
     2
  9
$DIMLWD
 70
    -2
  9
$DIMLWE
 70
    -2
  9
$DIMTMOVE
 70
     2
  9
$LUNITS
 70
     2
  9
$LUPREC
 70
     3
  9
$SKETCHINC
 40
0.1
  9
$FILLETRAD
 40
0.5
  9
$AUNITS
 70
     0
  9
$AUPREC
 70
     0
  9
$MENU
  1
.
  9
$ELEVATION
 40
0.0
  9
$PELEVATION
 40
0.0
  9
$THICKNESS
 40
0.0
  9
$LIMCHECK
 70
     0
  9
$CHAMFERA
 40
0.5
  9
$CHAMFERB
 40
0.5
  9
$CHAMFERC
 40
1.0
  9
$CHAMFERD
 40
0.0
  9
$SKPOLY
 70
     0
  9
$TDCREATE
 40
2456514.124725509
  9
$TDUCREATE
 40
2456514.124725521
  9
$TDUPDATE
 40
2456514.150289352
  9
$TDUUPDATE
 40
2456514.150289352
  9
$TDINDWG
 40
0.0000000116
  9
$TDUSRTIMER
 40
2456514.149328704
  9
$USRTIMER
 70
     1
  9
$ANGBASE
 50
0.0
  9
$ANGDIR
 70
     0
  9
$PDMODE
 70
     0
  9
$PDSIZE
 40
0.0
  9
$PLINEWID
 40
0.0
  9
$SPLFRAME
 70
     0
  9
$SPLINETYPE
 70
     6
  9
$SPLINESEGS
 70
     8
  9
$HANDSEED
  5
319
  9
$SURFTAB1
 70
     6
  9
$SURFTAB2
 70
     6
  9
$SURFTYPE
 70
     6
  9
$SURFU
 70
     6
  9
$SURFV
 70
     6
  9
$UCSBASE
  2

  9
$UCSNAME
  2

  9
$UCSORG
 10
0.0
 20
0.0
 30
0.0
  9
$UCSXDIR
 10
1.0
 20
0.0
 30
0.0
  9
$UCSYDIR
 10
0.0
 20
1.0
 30
0.0
  9
$UCSORTHOREF
  2

  9
$UCSORTHOVIEW
 70
     0
  9
$UCSORGTOP
 10
0.0
 20
0.0
 30
0.0
  9
$UCSORGBOTTOM
 10
0.0
 20
0.0
 30
0.0
  9
$UCSORGLEFT
 10
0.0
 20
0.0
 30
0.0
  9
$UCSORGRIGHT
 10
0.0
 20
0.0
 30
0.0
  9
$UCSORGFRONT
 10
0.0
 20
0.0
 30
0.0
  9
$UCSORGBACK
 10
0.0
 20
0.0
 30
0.0
  9
$PUCSBASE
  2

  9
$PUCSNAME
  2

  9
$PUCSORG
 10
0.0
 20
0.0
 30
0.0
  9
$PUCSXDIR
 10
1.0
 20
0.0
 30
0.0
  9
$PUCSYDIR
 10
0.0
 20
1.0
 30
0.0
  9
$PUCSORTHOREF
  2

  9
$PUCSORTHOVIEW
 70
     0
  9
$PUCSORGTOP
 10
0.0
 20
0.0
 30
0.0
  9
$PUCSORGBOTTOM
 10
0.0
 20
0.0
 30
0.0
  9
$PUCSORGLEFT
 10
0.0
 20
0.0
 30
0.0
  9
$PUCSORGRIGHT
 10
0.0
 20
0.0
 30
0.0
  9
$PUCSORGFRONT
 10
0.0
 20
0.0
 30
0.0
  9
$PUCSORGBACK
 10
0.0
 20
0.0
 30
0.0
  9
$USERI1
 70
     0
  9
$USERI2
 70
     0
  9
$USERI3
 70
     0
  9
$USERI4
 70
     0
  9
$USERI5
 70
     0
  9
$USERR1
 40
0.0
  9
$USERR2
 40
0.0
  9
$USERR3
 40
0.0
  9
$USERR4
 40
0.0
  9
$USERR5
 40
0.0
  9
$WORLDVIEW
 70
     1
  9
$SHADEDGE
 70
     3
  9
$SHADEDIF
 70
    70
  9
$TILEMODE
 70
     1
  9
$MAXACTVP
 70
    64
  9
$PINSBASE
 10
0.0
 20
0.0
 30
0.0
  9
$PLIMCHECK
 70
     0
  9
$PEXTMIN
 10
1.000000000000000E+20
 20
1.000000000000000E+20
 30
1.000000000000000E+20
  9
$PEXTMAX
 10
-1.000000000000000E+20
 20
-1.000000000000000E+20
 30
-1.000000000000000E+20
  9
$PLIMMIN
 10
0.0
 20
0.0
  9
$PLIMMAX
 10
0.0
 20
0.0
  9
$UNITMODE
 70
     0
  9
$VISRETAIN
 70
     1
  9
$PLINEGEN
 70
     0
  9
$PSLTSCALE
 70
     1
  9
$TREEDEPTH
 70
  3020
  9
$CMLSTYLE
  2
Standard
  9
$CMLJUST
 70
     0
  9
$CMLSCALE
 40
1.0
  9
$PROXYGRAPHICS
 70
     1
  9
$MEASUREMENT
 70
     0
  9
$CELWEIGHT
370
    -1
  9
$ENDCAPS
280
     0
  9
$JOINSTYLE
280
     0
  9
$LWDISPLAY
290
     0
  9
$INSUNITS
 70
     0
  9
$HYPERLINKBASE
  1

  9
$STYLESHEET
  1

  9
$XEDIT
290
     1
  9
$CEPSNTYPE
380
     0
  9
$PSTYLEMODE
290
     1
  9
$FINGERPRINTGUID
  2
{1EA6974E-C52D-30AF-31F2-453B64A2B5A8}
  9
$VERSIONGUID
  2
{FAEB1C32-E019-11D5-929B-00C0DF256EC4}
  9
$EXTNAMES
290
     1
  9
$PSVPSCALE
 40
0.0
  9
$OLESTARTUP
290
     0
  0
ENDSEC
  0
SECTION
  2
CLASSES
  0
CLASS
  1
ACDBDICTIONARYWDFLT
  2
AcDbDictionaryWithDefault
  3
ObjectDBX Classes
 90
        0
280
     0
281
     0
  0
CLASS
  1
SCALE
  2
AcDbScale
  3
ObjectDBX Classes
 90
     1153
280
     0
281
     0
  0
CLASS
  1
MATERIAL
  2
AcDbMaterial
  3
ObjectDBX Classes
 90
     1153
280
     0
281
     0
  0
CLASS
  1
VISUALSTYLE
  2
AcDbVisualStyle
  3
ObjectDBX Classes
 90
     4095
280
     0
281
     0
  0
CLASS
  1
TABLESTYLE
  2
AcDbTableStyle
  3
ObjectDBX Classes
 90
     4095
280
     0
281
     0
  0
CLASS
  1
RASTERVARIABLES
  2
AcDbRasterVariables
  3
ISM
 90
        0
280
     0
281
     0
  0
CLASS
  1
DICTIONARYVAR
  2
AcDbDictionaryVar
  3
ObjectDBX Classes
 90
        0
280
     0
281
     0
  0
CLASS
  1
ACDBPLACEHOLDER
  2
AcDbPlaceHolder
  3
ObjectDBX Classes
 90
        0
280
     0
281
     0
  0
CLASS
  1
LAYOUT
  2
AcDbLayout
  3
ObjectDBX Classes
 90
        0
280
     0
281
     0
  0
ENDSEC
  0
SECTION
  2
TABLES
  0
TABLE
  2
VPORT
  5
8
330
0
100
AcDbSymbolTable
 70
     1
  0
VPORT
  5
22
330
8
100
AcDbSymbolTableRecord
100
AcDbViewportTableRecord
  2
*ACTIVE
 70
     0
 10
0.0
 20
0.0
 11
1.0
 21
1.0
 12
231.043
 22
14.83595
 13
0.0
 23
0.0
 14
10.0
 24
10.0
 15
10.0
 25
10.0
 16
0.0
 26
0.0
 36
1.0
 17
0.0
 27
0.0
 37
0.0
 40
212.7423256899004
 41
2.210691823899371
 42
50.0
 43
0.0
 44
0.0
 50
0.0
 51
0.0
 71
    16
 72
   100
 73
     1
 74
     1
 75
     0
 76
     0
 77
     0
 78
     0
281
     0
 65
     0
110
0.0
120
0.0
130
0.0
111
1.0
121
0.0
131
0.0
112
0.0
122
1.0
132
0.0
 79
     0
146
0.0
  0
ENDTAB
  0
TABLE
  2
LTYPE
  5
5
330
0
100
AcDbSymbolTable
 70
     1
  0
LTYPE
  5
14
330
5
100
AcDbSymbolTableRecord
100
AcDbLinetypeTableRecord
  2
ByBlock
 70
     0
  3

 72
    65
 73
     0
 40
0.0
  0
LTYPE
  5
15
330
5
100
AcDbSymbolTableRecord
100
AcDbLinetypeTableRecord
  2
ByLayer
 70
     0
  3

 72
    65
 73
     0
 40
0.0
  0
LTYPE
  5
16
330
5
100
AcDbSymbolTableRecord
100
AcDbLinetypeTableRecord
  2
CONTINUOUS
 70
     0
  3
Solid line
 72
    65
 73
     0
 40
0.0
  0
ENDTAB
  0
TABLE
  2
LAYER
  5
2
102
{ACAD_XDICTIONARY
360
286
102
}
330
0
100
AcDbSymbolTable
 70
     4
  0
LAYER
  5
10
330
2
100
AcDbSymbolTableRecord
100
AcDbLayerTableRecord
  2
0
 70
     0
 62
     7
  6
CONTINUOUS
370
    -3
390
F
  0
LAYER
  5
21
330
2
100
AcDbSymbolTableRecord
100
AcDbLayerTableRecord
  2
EMBMOD-POLYLINE
 70
     0
 62
   250
  6
CONTINUOUS
370
    -3
390
F
  0
LAYER
  5
2A0
330
2
100
AcDbSymbolTableRecord
100
AcDbLayerTableRecord
  2
EMBMOD-HATCH-BLUE
 70
     0
 62
   146
  6
CONTINUOUS
370
    -3
390
F
1001
AcAecLayerStandard
1000

1000

  0
LAYER
  5
2C4
330
2
100
AcDbSymbolTableRecord
100
AcDbLayerTableRecord
  2
EMBMOD-HATCH-WHITE
 70
     0
 62
     7
  6
CONTINUOUS
370
    -3
390
F
1001
AcAecLayerStandard
1000

1000

  0
ENDTAB
  0
TABLE
  2
STYLE
  5
3
330
0
100
AcDbSymbolTable
 70
     1
  0
STYLE
  5
11
330
3
100
AcDbSymbolTableRecord
100
AcDbTextStyleTableRecord
  2
Standard
 70
     0
 40
0.0
 41
1.0
 50
0.0
 71
     0
 42
0.2
  3
txt
  4

  0
ENDTAB
  0
TABLE
  2
VIEW
  5
6
330
0
100
AcDbSymbolTable
 70
     0
  0
ENDTAB
  0
TABLE
  2
UCS
  5
7
330
0
100
AcDbSymbolTable
 70
     0
  0
ENDTAB
  0
TABLE
  2
APPID
  5
9
330
0
100
AcDbSymbolTable
 70
     2
  0
APPID
  5
12
330
9
100
AcDbSymbolTableRecord
100
AcDbRegAppTableRecord
  2
ACAD
 70
     0
  0
APPID
  5
28A
330
9
100
AcDbSymbolTableRecord
100
AcDbRegAppTableRecord
  2
AcAecLayerStandard
 70
     0
  0
ENDTAB
  0
TABLE
  2
DIMSTYLE
  5
A
330
0
100
AcDbSymbolTable
 70
     1
100
AcDbDimStyleTable
  0
DIMSTYLE
105
23
330
A
100
AcDbSymbolTableRecord
100
AcDbDimStyleTableRecord
  2
Standard
 70
     0
178
     0
340
11
  0
ENDTAB
  0
TABLE
  2
BLOCK_RECORD
  5
1
330
0
100
AcDbSymbolTable
 70
     0
  0
BLOCK_RECORD
  5
1D
330
1
100
AcDbSymbolTableRecord
100
AcDbBlockTableRecord
  2
*Model_Space
340
1E
  0
BLOCK_RECORD
  5
1B
330
1
100
AcDbSymbolTableRecord
100
AcDbBlockTableRecord
  2
*Paper_Space
340
1C
  0
ENDTAB
  0
ENDSEC
  0
SECTION
  2
BLOCKS
  0
BLOCK
  5
247
330
1D
100
AcDbEntity
  8
0
100
AcDbBlockBegin
  2
*Model_Space
 70
     0
 10
0.0
 20
0.0
 30
0.0
  3
*Model_Space
  1

  0
ENDBLK
  5
248
330
1D
100
AcDbEntity
  8
0
100
AcDbBlockEnd
  0
BLOCK
  5
249
330
1B
100
AcDbEntity
 67
     1
  8
0
100
AcDbBlockBegin
  2
*Paper_Space
 70
     0
 10
0.0
 20
0.0
 30
0.0
  3
*Paper_Space
  1

  0
ENDBLK
  5
24A
330
1B
100
AcDbEntity
 67
     1
  8
0
100
AcDbBlockEnd
  0
ENDSEC
  0
SECTION
  2
ENTITIES
  0
LWPOLYLINE
  5
24
102
{ACAD_REACTORS
330
2D0
102
}
330
1D
100
AcDbEntity
  8
EMBMOD-POLYLINE
100
AcDbPolyline
 90
        9
 70
     1
 43
0.0
 10
84.7656
 20
6.82812
 42
0.1639222008854136
 10
86.875
 20
7.57812
 42
0.1254309176970383
 10
88.1406
 20
9.17188
 10
88.3281
 20
9.79688
 42
0.2000741648020237
 10
88.0
 20
11.375
 42
0.2625774514983497
 10
86.375
 20
12.1719
 10
78.375
 20
12.1719
 10
76.7656
 20
6.82812
 10
84.7656
 20
6.82812
  0
LWPOLYLINE
  5
2F
102
{ACAD_REACTORS
330
310
102
}
330
1D
100
AcDbEntity
  8
EMBMOD-POLYLINE
100
AcDbPolyline
 90
       10
 70
     1
 43
0.0
 10
192.766
 20
6.82812
 42
0.1639222008854136
 10
194.875
 20
7.57812
 42
0.1254309176970382
 10
196.141
 20
9.17188
 10
199.531
 20
20.4531
 42
0.1991626518828801
 10
199.203
 20
22.0469
 42
0.1321703423176867
 10
198.52
 20
22.6445
 42
0.1142667573484238
 10
197.562
 20
22.8438
 10
189.562
 20
22.8438
 10
184.766
 20
6.82812
 10
192.766
 20
6.82812
  0
LWPOLYLINE
  5
3B
102
{ACAD_REACTORS
330
315
102
}
330
1D
100
AcDbEntity
  8
EMBMOD-POLYLINE
100
AcDbPolyline
 90
       10
 70
     1
 43
0.0
 10
386.766
 20
6.82812
 42
0.1639222008854136
 10
388.875
 20
7.57812
 42
0.1254309176970382
 10
390.141
 20
9.17188
 10
393.531
 20
20.4531
 42
0.1991626518828801
 10
393.203
 20
22.0469
 42
0.1321703423176867
 10
392.52
 20
22.6445
 42
0.1142667573484245
 10
391.562
 20
22.8438
 10
383.562
 20
22.8438
 10
378.766
 20
6.82812
 10
386.766
 20
6.82812
  0
LWPOLYLINE
  5
47
102
{ACAD_REACTORS
330
2D0
102
}
330
1D
100
AcDbEntity
  8
EMBMOD-POLYLINE
100
AcDbPolyline
 90
        9
 70
     1
 43
0.0
 10
82.6406
 20
17.5
 42
0.1637785013932104
 10
84.7344
 20
18.25
 42
0.1297511030448531
 10
86.0
 20
19.8281
 10
86.1875
 20
20.4531
 42
0.2039185578244262
 10
85.875
 20
22.0469
 42
0.2584998452263673
 10
84.2344
 20
22.8438
 10
81.5625
 20
22.8438
 10
79.9688
 20
17.5
 10
82.6406
 20
17.5
  0
LWPOLYLINE
  5
52
102
{ACAD_REACTORS
330
2E5
102
}
330
1D
100
AcDbEntity
  8
EMBMOD-POLYLINE
100
AcDbPolyline
 90
       15
 70
     1
 43
0.0
 10
321.766
 20
6.82812
 42
0.1639222008854136
 10
323.875
 20
7.57812
 42
0.1254309176970383
 10
325.141
 20
9.17188
 10
328.531
 20
20.4531
 42
0.1991626518828801
 10
328.203
 20
22.0469
 42
0.1321703423176867
 10
327.52
 20
22.6445
 42
0.1142667573483993
 10
326.562
 20
22.8438
 10
315.906
 20
22.8438
 42
0.1699236168095817
 10
313.75
 20
22.0469
 42
0.13919794012251
 10
312.516
 20
20.4531
 10
309.141
 20
9.17188
 42
0.2181757286699873
 10
309.406
 20
7.57812
 42
0.130083414615079
 10
310.109
 20
7.01562
 42
0.1053082382646099
 10
311.094
 20
6.82812
 10
321.766
 20
6.82812
  0
LWPOLYLINE
  5
63
102
{ACAD_REACTORS
330
2DA
102
}
330
1D
100
AcDbEntity
  8
EMBMOD-POLYLINE
100
AcDbPolyline
 90
       10
 70
     1
 43
0.0
 10
211.906
 20
22.8438
 42
-0.1606859128336267
 10
214.562
 20
26.5938
 42
-0.0747548429292363
 10
216.652
 20
27.7422
 42
-0.0870175239070319
 10
218.828
 20
28.125
 10
218.828
 20
28.1719
 10
240.172
 20
28.1719
 42
-0.1636221064191901
 10
237.453
 20
24.375
 42
-0.0757407639617519
 10
235.391
 20
23.2266
 42
-0.0879284533441345
 10
233.234
 20
22.8438
 10
211.906
 20
22.8438
  0
LWPOLYLINE
  5
6F
102
{ACAD_REACTORS
330
2CC
102
}
330
1D
100
AcDbEntity
  8
EMBMOD-POLYLINE
100
AcDbPolyline
 90
       10
 70
     1
 43
0.0
 10
0.5
 20
1.5
 42
-0.1616913505936019
 10
3.17188
 20
5.25
 42
-0.0748513090636641
 10
5.25781
 20
6.41016
 42
-0.0881520524954463
 10
7.42188
 20
6.79688
 10
7.4375
 20
6.82812
 10
28.7656
 20
6.82812
 42
-0.1649920923706838
 10
26.0469
 20
3.04688
 42
-0.076806306201437
 10
23.9961
 20
1.88672
 42
-0.0890820435735075
 10
21.8438
 20
1.5
 10
0.5
 20
1.5
  0
LWPOLYLINE
  5
7B
102
{ACAD_REACTORS
330
2EB
102
}
330
1D
100
AcDbEntity
  8
EMBMOD-POLYLINE
100
AcDbPolyline
 90
       10
 70
     1
 43
0.0
 10
405.906
 20
22.8438
 42
-0.1606859128336261
 10
408.562
 20
26.5938
 42
-0.0747548429292363
 10
410.652
 20
27.7422
 42
-0.087017523907032
 10
412.828
 20
28.125
 10
412.828
 20
28.1719
 10
434.172
 20
28.1719
 42
-0.1636221064191901
 10
431.453
 20
24.375
 42
-0.0757407639617519
 10
429.391
 20
23.2266
 42
-0.0879284533441346
 10
427.234
 20
22.8438
 10
405.906
 20
22.8438
  0
LWPOLYLINE
  5
87
102
{ACAD_REACTORS
330
2E0
102
}
330
1D
100
AcDbEntity
  8
EMBMOD-POLYLINE
100
AcDbPolyline
 90
        7
 70
     1
 43
0.0
 10
258.297
 20
17.5
 10
259.188
 20
20.4531
 42
0.2039185578244292
 10
258.875
 20
22.0469
 42
0.2584998452263655
 10
257.234
 20
22.8438
 10
249.234
 20
22.8438
 10
247.641
 20
17.5
 10
258.297
 20
17.5
  0
LWPOLYLINE
  5
90
102
{ACAD_REACTORS
330
2F1
102
}
330
1D
100
AcDbEntity
  8
EMBMOD-POLYLINE
100
AcDbPolyline
 90
        7
 70
     1
 43
0.0
 10
452.297
 20
17.5
 10
453.188
 20
20.4531
 42
0.2039185578244292
 10
452.875
 20
22.0469
 42
0.2584998452263655
 10
451.234
 20
22.8438
 10
443.234
 20
22.8438
 10
441.641
 20
17.5
 10
452.297
 20
17.5
  0
LWPOLYLINE
  5
99
102
{ACAD_REACTORS
330
2D2
102
}
330
1D
100
AcDbEntity
  8
EMBMOD-POLYLINE
100
AcDbPolyline
 90
       26
 70
     1
 43
0.0
 10
97.5
 20
1.5
 10
105.5
 20
28.1719
 10
121.5
 20
28.1719
 10
121.484
 20
28.125
 42
-0.1095980675333055
 10
123.418
 20
27.7422
 42
-0.1336638227919534
 10
124.781
 20
26.5938
 42
-0.1299451406843822
 10
125.457
 20
24.8828
 42
-0.1047905913502886
 10
125.234
 20
22.8438
 10
123.625
 20
17.4531
 42
-0.1100975951465647
 10
125.547
 20
17.0703
 42
-0.133170587051577
 10
126.906
 20
15.9219
 42
-0.1288506024216215
 10
127.586
 20
14.2109
 42
-0.1041894565005015
 10
127.375
 20
12.1719
 10
124.172
 20
1.5
 42
-0.1098048639540309
 10
122.238
 20
1.88672
 42
-0.1294705442877226
 10
120.844
 20
3.04688
 42
-0.1293794495517983
 10
120.203
 20
4.75781
 42
-0.0997678789339805
 10
120.438
 20
6.82812
 10
121.328
 20
9.79688
 42
0.2000741648020237
 10
121.0
 20
11.375
 42
0.2625774514983497
 10
119.375
 20
12.1719
 10
106.031
 20
12.1719
 10
104.438
 20
6.82812
 42
-0.1649920923706839
 10
101.719
 20
3.04688
 42
-0.0761470697927733
 10
99.6562
 20
1.88672
 42
-0.0887703109723419
 10
97.5
 20
1.5
  0
LWPOLYLINE
  5
B5
102
{ACAD_REACTORS
330
2CA
102
}
330
1D
100
AcDbEntity
  8
EMBMOD-POLYLINE
100
AcDbPolyline
 90
       10
 70
     1
 43
0.0
 10
3.70312
 20
12.1719
 42
-0.161691350593602
 10
6.375
 20
15.9219
 42
-0.0754006368914038
 10
8.45312
 20
17.0703
 42
-0.0873206510583518
 10
10.625
 20
17.4531
 10
10.6406
 20
17.5
 10
31.9688
 20
17.5
 42
-0.1636221064191901
 10
29.25
 20
13.7031
 42
-0.0767150494004713
 10
27.1953
 20
12.5547
 42
-0.0879319959766098
 10
25.0312
 20
12.1719
 10
3.70312
 20
12.1719
  0
LWPOLYLINE
  5
C1
102
{ACAD_REACTORS
330
315
102
}
330
1D
100
AcDbEntity
  8
EMBMOD-POLYLINE
100
AcDbPolyline
 90
       21
 70
     1
 43
0.0
 10
366.5
 20
1.5
 42
-0.1616913505936019
 10
369.172
 20
5.25
 42
-0.0748513090636641
 10
371.258
 20
6.41016
 42
-0.0881520524954463
 10
373.422
 20
6.79688
 10
378.234
 20
22.8438
 10
378.188
 20
22.8438
 42
-0.110268336027397
 10
376.289
 20
23.2266
 42
-0.1277551328465879
 10
374.906
 20
24.375
 42
-0.1282261065364738
 10
374.266
 20
26.0977
 42
-0.0996879727837307
 10
374.5
 20
28.1719
 10
395.844
 20
28.1719
 10
395.828
 20
28.125
 42
-0.1100975951465646
 10
397.75
 20
27.7422
 42
-0.133170587051577
 10
399.109
 20
26.5938
 42
-0.1288506024216211
 10
399.789
 20
24.8828
 42
-0.1041894565005018
 10
399.578
 20
22.8438
 10
394.766
 20
6.82812
 42
-0.1649920923706832
 10
392.047
 20
3.04688
 42
-0.0768063062014369
 10
389.996
 20
1.88672
 42
-0.0890820435735074
 10
387.844
 20
1.5
 10
366.5
 20
1.5
  0
LWPOLYLINE
  5
D8
102
{ACAD_REACTORS
330
310
102
}
330
1D
100
AcDbEntity
  8
EMBMOD-POLYLINE
100
AcDbPolyline
 90
       21
 70
     1
 43
0.0
 10
172.5
 20
1.5
 42
-0.1616913505936019
 10
175.172
 20
5.25
 42
-0.0748513090636641
 10
177.258
 20
6.41016
 42
-0.0881520524954463
 10
179.422
 20
6.79688
 10
184.234
 20
22.8438
 10
184.188
 20
22.8438
 42
-0.110268336027397
 10
182.289
 20
23.2266
 42
-0.1277551328465874
 10
180.906
 20
24.375
 42
-0.1282261065364738
 10
180.266
 20
26.0977
 42
-0.0996879727837307
 10
180.5
 20
28.1719
 10
201.844
 20
28.1719
 10
201.828
 20
28.125
 42
-0.1100975951465646
 10
203.75
 20
27.7422
 42
-0.133170587051577
 10
205.109
 20
26.5938
 42
-0.1288506024216211
 10
205.789
 20
24.8828
 42
-0.1041894565005018
 10
205.578
 20
22.8438
 10
200.766
 20
6.82812
 42
-0.1649920923706839
 10
198.047
 20
3.04688
 42
-0.0768063062014371
 10
195.996
 20
1.88672
 42
-0.0890820435735076
 10
193.844
 20
1.5
 10
172.5
 20
1.5
  0
LWPOLYLINE
  5
EF
102
{ACAD_REACTORS
330
2E5
102
}
330
1D
100
AcDbEntity
  8
EMBMOD-POLYLINE
100
AcDbPolyline
 90
       22
 70
     1
 43
0.0
 10
306.828
 20
1.5
 10
306.797
 20
1.5
 42
-0.1107976047320355
 10
304.887
 20
1.88672
 42
-0.1284887344621183
 10
303.5
 20
3.04688
 42
-0.1293794495517974
 10
302.859
 20
4.75781
 42
-0.0997678789339802
 10
303.094
 20
6.82812
 10
307.906
 20
22.8438
 42
-0.1606859128336261
 10
310.562
 20
26.5938
 42
-0.0747548429292363
 10
312.652
 20
27.7422
 42
-0.087017523907032
 10
314.828
 20
28.125
 10
314.828
 20
28.1719
 10
330.844
 20
28.1719
 10
330.828
 20
28.125
 42
-0.1100975951465648
 10
332.75
 20
27.7422
 42
-0.133170587051577
 10
334.109
 20
26.5938
 42
-0.1288506024216211
 10
334.789
 20
24.8828
 42
-0.1041894565005018
 10
334.578
 20
22.8438
 10
329.766
 20
6.82812
 42
-0.1649920923706832
 10
327.047
 20
3.04688
 42
-0.0768063062014369
 10
324.996
 20
1.88672
 42
-0.0890820435735074
 10
322.844
 20
1.5
 10
306.828
 20
1.5
  0
LWPOLYLINE
  5
107
102
{ACAD_REACTORS
330
2D4
102
}
330
1D
100
AcDbEntity
  8
EMBMOD-POLYLINE
100
AcDbPolyline
 90
       15
 70
     1
 43
0.0
 10
149.766
 20
6.82812
 42
0.1639222008854136
 10
151.875
 20
7.57812
 42
0.1254309176970382
 10
153.141
 20
9.17188
 10
156.531
 20
20.4531
 42
0.1991626518828801
 10
156.203
 20
22.0469
 42
0.1321703423176867
 10
155.52
 20
22.6445
 42
0.1142667573484238
 10
154.562
 20
22.8438
 10
143.906
 20
22.8438
 42
0.1699236168095815
 10
141.75
 20
22.0469
 42
0.1391979401225102
 10
140.516
 20
20.4531
 10
137.141
 20
9.17188
 42
0.2181757286699873
 10
137.406
 20
7.57812
 42
0.1300834146150789
 10
138.109
 20
7.01562
 42
0.1053082382646099
 10
139.094
 20
6.82812
 10
149.766
 20
6.82812
  0
LWPOLYLINE
  5
118
102
{ACAD_REACTORS
330
2C8
102
}
330
1D
100
AcDbEntity
  8
EMBMOD-POLYLINE
100
AcDbPolyline
 90
       10
 70
     1
 43
0.0
 10
6.90625
 20
22.8438
 42
-0.1606859128336268
 10
9.5625
 20
26.5938
 42
-0.0747548429292363
 10
11.6523
 20
27.7422
 42
-0.087017523907032
 10
13.8281
 20
28.125
 10
13.8281
 20
28.1719
 10
35.1719
 20
28.1719
 42
-0.1636221064191903
 10
32.4531
 20
24.375
 42
-0.0757407639617519
 10
30.3906
 20
23.2266
 42
-0.0879284533441344
 10
28.2344
 20
22.8438
 10
6.90625
 20
22.8438
  0
LWPOLYLINE
  5
124
102
{ACAD_REACTORS
330
2E0
102
}
330
1D
100
AcDbEntity
  8
EMBMOD-POLYLINE
100
AcDbPolyline
 90
       26
 70
     1
 43
0.0
 10
237.5
 20
1.5
 10
245.5
 20
28.1719
 10
261.5
 20
28.1719
 10
261.484
 20
28.125
 42
-0.1095980675333055
 10
263.418
 20
27.7422
 42
-0.1336638227919535
 10
264.781
 20
26.5938
 42
-0.1299451406843826
 10
265.457
 20
24.8828
 42
-0.104790591350288
 10
265.234
 20
22.8438
 10
263.625
 20
17.4531
 42
-0.1100975951465647
 10
265.547
 20
17.0703
 42
-0.133170587051577
 10
266.906
 20
15.9219
 42
-0.1288506024216211
 10
267.586
 20
14.2109
 42
-0.1041894565005018
 10
267.375
 20
12.1719
 10
264.172
 20
1.5
 42
-0.1098048639540309
 10
262.238
 20
1.88672
 42
-0.1294705442877226
 10
260.844
 20
3.04688
 42
-0.1293794495517974
 10
260.203
 20
4.75781
 42
-0.0997678789339802
 10
260.438
 20
6.82812
 10
261.328
 20
9.79688
 42
0.2000741648020237
 10
261.0
 20
11.375
 42
0.2625774514983478
 10
259.375
 20
12.1719
 10
246.031
 20
12.1719
 10
244.438
 20
6.82812
 42
-0.1649920923706839
 10
241.719
 20
3.04688
 42
-0.0761470697927733
 10
239.656
 20
1.88672
 42
-0.0887703109723421
 10
237.5
 20
1.5
  0
LWPOLYLINE
  5
140
102
{ACAD_REACTORS
330
313
102
}
330
1D
100
AcDbEntity
  8
EMBMOD-POLYLINE
100
AcDbPolyline
 90
       10
 70
     1
 43
0.0
 10
353.766
 20
6.82812
 42
0.1639222008854136
 10
355.875
 20
7.57812
 42
0.1254309176970382
 10
357.141
 20
9.17188
 10
360.531
 20
20.4531
 42
0.1991626518828801
 10
360.203
 20
22.0469
 42
0.1321703423176867
 10
359.52
 20
22.6445
 42
0.1142667573484245
 10
358.562
 20
22.8438
 10
350.562
 20
22.8438
 10
345.766
 20
6.82812
 10
353.766
 20
6.82812
  0
LWPOLYLINE
  5
14C
102
{ACAD_REACTORS
330
2D0
102
}
330
1D
100
AcDbEntity
  8
EMBMOD-POLYLINE
100
AcDbPolyline
 90
       36
 70
     1
 43
0.0
 10
69.8281
 20
1.5
 10
69.7969
 20
1.5
 42
-0.1107976047320355
 10
67.8867
 20
1.88672
 42
-0.1284887344621181
 10
66.5
 20
3.04688
 42
-0.1293794495517983
 10
65.8594
 20
4.75781
 42
-0.0997678789339805
 10
66.0938
 20
6.82812
 10
71.4375
 20
6.82812
 10
73.0312
 20
12.1719
 10
73.0
 20
12.1719
 42
-0.1097697157755944
 10
71.0898
 20
12.5547
 42
-0.128248251935293
 10
69.7031
 20
13.7031
 42
-0.1282261065364738
 10
69.0625
 20
15.4258
 42
-0.0996879727837307
 10
69.2969
 20
17.5
 10
74.6406
 20
17.5
 10
76.2344
 20
22.8438
 10
76.1875
 20
22.8438
 42
-0.1102683360273969
 10
74.2891
 20
23.2266
 42
-0.1277551328465876
 10
72.9062
 20
24.375
 42
-0.1282261065364738
 10
72.2656
 20
26.0977
 42
-0.0996879727837307
 10
72.5
 20
28.1719
 10
88.5
 20
28.1719
 10
88.4844
 20
28.125
 42
-0.1095980675333054
 10
90.418
 20
27.7422
 42
-0.1336638227919533
 10
91.7812
 20
26.5938
 42
-0.1299451406843822
 10
92.457
 20
24.8828
 42
-0.1047905913502886
 10
92.2344
 20
22.8438
 10
90.625
 20
17.4531
 42
-0.1100975951465648
 10
92.5469
 20
17.0703
 42
-0.133170587051577
 10
93.9062
 20
15.9219
 42
-0.1288506024216215
 10
94.5859
 20
14.2109
 42
-0.1041894565005015
 10
94.375
 20
12.1719
 10
92.7656
 20
6.82812
 42
-0.1649920923706839
 10
90.0469
 20
3.04688
 42
-0.0768063062014371
 10
87.9961
 20
1.88672
 42
-0.0890820435735076
 10
85.8438
 20
1.5
 10
69.8281
 20
1.5
  0
LWPOLYLINE
  5
172
102
{ACAD_REACTORS
330
2EF
102
}
330
1D
100
AcDbEntity
  8
EMBMOD-POLYLINE
100
AcDbPolyline
 90
       10
 70
     1
 43
0.0
 10
399.5
 20
1.5
 42
-0.1616913505936019
 10
402.172
 20
5.25
 42
-0.0748513090636641
 10
404.258
 20
6.41016
 42
-0.0881520524954463
 10
406.422
 20
6.79688
 10
406.438
 20
6.82812
 10
427.766
 20
6.82812
 42
-0.1649920923706832
 10
425.047
 20
3.04688
 42
-0.0768063062014369
 10
422.996
 20
1.88672
 42
-0.0890820435735074
 10
420.844
 20
1.5
 10
399.5
 20
1.5
  0
LWPOLYLINE
  5
17E
102
{ACAD_REACTORS
330
2DE
102
}
330
1D
100
AcDbEntity
  8
EMBMOD-POLYLINE
100
AcDbPolyline
 90
       10
 70
     1
 43
0.0
 10
205.5
 20
1.5
 42
-0.1616913505936019
 10
208.172
 20
5.25
 42
-0.0748513090636641
 10
210.258
 20
6.41016
 42
-0.0881520524954463
 10
212.422
 20
6.79688
 10
212.438
 20
6.82812
 10
233.766
 20
6.82812
 42
-0.1649920923706839
 10
231.047
 20
3.04688
 42
-0.076806306201437
 10
228.996
 20
1.88672
 42
-0.0890820435735075
 10
226.844
 20
1.5
 10
205.5
 20
1.5
  0
LWPOLYLINE
  5
18A
102
{ACAD_REACTORS
330
2F1
102
}
330
1D
100
AcDbEntity
  8
EMBMOD-POLYLINE
100
AcDbPolyline
 90
       26
 70
     1
 43
0.0
 10
431.5
 20
1.5
 10
439.5
 20
28.1719
 10
455.5
 20
28.1719
 10
455.484
 20
28.125
 42
-0.1095980675333056
 10
457.418
 20
27.7422
 42
-0.1336638227919537
 10
458.781
 20
26.5938
 42
-0.1299451406843826
 10
459.457
 20
24.8828
 42
-0.104790591350288
 10
459.234
 20
22.8438
 10
457.625
 20
17.4531
 42
-0.1100975951465647
 10
459.547
 20
17.0703
 42
-0.133170587051577
 10
460.906
 20
15.9219
 42
-0.1288506024216211
 10
461.586
 20
14.2109
 42
-0.1041894565005018
 10
461.375
 20
12.1719
 10
458.172
 20
1.5
 42
-0.1098048639540309
 10
456.238
 20
1.88672
 42
-0.1294705442877226
 10
454.844
 20
3.04688
 42
-0.1293794495517974
 10
454.203
 20
4.75781
 42
-0.0997678789339802
 10
454.438
 20
6.82812
 10
455.328
 20
9.79688
 42
0.2000741648020237
 10
455.0
 20
11.375
 42
0.2625774514983478
 10
453.375
 20
12.1719
 10
440.031
 20
12.1719
 10
438.438
 20
6.82812
 42
-0.1649920923706832
 10
435.719
 20
3.04688
 42
-0.0761470697927735
 10
433.656
 20
1.88672
 42
-0.0887703109723422
 10
431.5
 20
1.5
  0
LWPOLYLINE
  5
1A6
102
{ACAD_REACTORS
330
2D2
102
}
330
1D
100
AcDbEntity
  8
EMBMOD-POLYLINE
100
AcDbPolyline
 90
        7
 70
     1
 43
0.0
 10
118.297
 20
17.5
 10
119.188
 20
20.4531
 42
0.2039185578244262
 10
118.875
 20
22.0469
 42
0.2584998452263673
 10
117.234
 20
22.8438
 10
109.234
 20
22.8438
 10
107.641
 20
17.5
 10
118.297
 20
17.5
  0
LWPOLYLINE
  5
1AF
102
{ACAD_REACTORS
330
2ED
102
}
330
1D
100
AcDbEntity
  8
EMBMOD-POLYLINE
100
AcDbPolyline
 90
       10
 70
     1
 43
0.0
 10
402.703
 20
12.1719
 42
-0.1616913505936019
 10
405.375
 20
15.9219
 42
-0.0754006368914039
 10
407.453
 20
17.0703
 42
-0.0873206510583518
 10
409.625
 20
17.4531
 10
409.641
 20
17.5
 10
430.969
 20
17.5
 42
-0.1636221064191901
 10
428.25
 20
13.7031
 42
-0.0767150494004714
 10
426.195
 20
12.5547
 42
-0.0879319959766098
 10
424.031
 20
12.1719
 10
402.703
 20
12.1719
  0
LWPOLYLINE
  5
1BB
102
{ACAD_REACTORS
330
2DC
102
}
330
1D
100
AcDbEntity
  8
EMBMOD-POLYLINE
100
AcDbPolyline
 90
       10
 70
     1
 43
0.0
 10
208.703
 20
12.1719
 42
-0.1616913505936019
 10
211.375
 20
15.9219
 42
-0.0754006368914039
 10
213.453
 20
17.0703
 42
-0.0873206510583518
 10
215.625
 20
17.4531
 10
215.641
 20
17.5
 10
236.969
 20
17.5
 42
-0.1636221064191901
 10
234.25
 20
13.7031
 42
-0.0767150494004713
 10
232.195
 20
12.5547
 42
-0.0879319959766098
 10
230.031
 20
12.1719
 10
208.703
 20
12.1719
  0
LWPOLYLINE
  5
1C7
102
{ACAD_REACTORS
330
2D4
102
}
330
1D
100
AcDbEntity
  8
EMBMOD-POLYLINE
100
AcDbPolyline
 90
       22
 70
     1
 43
0.0
 10
134.828
 20
1.5
 10
134.797
 20
1.5
 42
-0.1107976047320355
 10
132.887
 20
1.88672
 42
-0.1284887344621179
 10
131.5
 20
3.04688
 42
-0.1293794495517983
 10
130.859
 20
4.75781
 42
-0.0997678789339802
 10
131.094
 20
6.82812
 10
135.906
 20
22.8438
 42
-0.1606859128336267
 10
138.562
 20
26.5938
 42
-0.0747548429292362
 10
140.652
 20
27.7422
 42
-0.087017523907032
 10
142.828
 20
28.125
 10
142.828
 20
28.1719
 10
158.844
 20
28.1719
 10
158.828
 20
28.125
 42
-0.1100975951465648
 10
160.75
 20
27.7422
 42
-0.133170587051577
 10
162.109
 20
26.5938
 42
-0.1288506024216211
 10
162.789
 20
24.8828
 42
-0.1041894565005018
 10
162.578
 20
22.8438
 10
157.766
 20
6.82812
 42
-0.1649920923706839
 10
155.047
 20
3.04688
 42
-0.0768063062014371
 10
152.996
 20
1.88672
 42
-0.0890820435735075
 10
150.844
 20
1.5
 10
134.828
 20
1.5
  0
LWPOLYLINE
  5
1DF
102
{ACAD_REACTORS
330
2CE
102
}
330
1D
100
AcDbEntity
  8
EMBMOD-POLYLINE
100
AcDbPolyline
 90
       32
 70
     1
 43
0.0
 10
37.8281
 20
1.5
 42
-0.109804863954031
 10
35.8945
 20
1.88672
 42
-0.1294705442877226
 10
34.5
 20
3.04688
 42
-0.1293794495517981
 10
33.8594
 20
4.75781
 42
-0.0997678789339804
 10
34.0938
 20
6.82812
 10
40.5
 20
28.1719
 10
61.8438
 20
28.1719
 10
61.8281
 20
28.125
 42
-0.1100975951465647
 10
63.75
 20
27.7422
 42
-0.1331705870515771
 10
65.1094
 20
26.5938
 42
-0.1288506024216215
 10
65.7891
 20
24.8828
 42
-0.1041894565005015
 10
65.5781
 20
22.8438
 10
59.1719
 20
1.5
 42
-0.1098048639540309
 10
57.2383
 20
1.88672
 42
-0.1294705442877226
 10
55.8438
 20
3.04688
 42
-0.1293794495517981
 10
55.2031
 20
4.75781
 42
-0.0997678789339805
 10
55.4375
 20
6.82812
 10
59.5312
 20
20.4531
 42
0.1991626518828808
 10
59.2031
 20
22.0469
 42
0.1321703423176867
 10
58.5195
 20
22.6445
 42
0.114266757348424
 10
57.5625
 20
22.8438
 10
54.9062
 20
22.8438
 10
48.5
 20
1.5
 42
-0.1098048639540309
 10
46.5664
 20
1.88672
 42
-0.1294705442877227
 10
45.1719
 20
3.04688
 42
-0.1293794495517981
 10
44.5312
 20
4.75781
 42
-0.0997678789339804
 10
44.7656
 20
6.82812
 10
48.8594
 20
20.4531
 42
0.1944925534874624
 10
48.5469
 20
22.0469
 42
0.2584998452263664
 10
46.9062
 20
22.8438
 10
44.2344
 20
22.8438
 10
37.8281
 20
1.5
  0
LWPOLYLINE
  5
201
102
{ACAD_REACTORS
330
2E3
102
}
330
1D
100
AcDbEntity
  8
EMBMOD-POLYLINE
100
AcDbPolyline
 90
       32
 70
     1
 43
0.0
 10
274.828
 20
1.5
 42
-0.1098048639540309
 10
272.895
 20
1.88672
 42
-0.1294705442877226
 10
271.5
 20
3.04688
 42
-0.1293794495517974
 10
270.859
 20
4.75781
 42
-0.0997678789339802
 10
271.094
 20
6.82812
 10
277.5
 20
28.1719
 10
298.844
 20
28.1719
 10
298.828
 20
28.125
 42
-0.1100975951465647
 10
300.75
 20
27.7422
 42
-0.133170587051577
 10
302.109
 20
26.5938
 42
-0.1288506024216211
 10
302.789
 20
24.8828
 42
-0.1041894565005018
 10
302.578
 20
22.8438
 10
296.172
 20
1.5
 42
-0.1098048639540309
 10
294.238
 20
1.88672
 42
-0.1294705442877226
 10
292.844
 20
3.04688
 42
-0.1293794495517974
 10
292.203
 20
4.75781
 42
-0.0997678789339802
 10
292.438
 20
6.82812
 10
296.531
 20
20.4531
 42
0.1991626518828801
 10
296.203
 20
22.0469
 42
0.1321703423176867
 10
295.52
 20
22.6445
 42
0.1142667573484245
 10
294.562
 20
22.8438
 10
291.906
 20
22.8438
 10
285.5
 20
1.5
 42
-0.1098048639540308
 10
283.566
 20
1.88672
 42
-0.1294705442877226
 10
282.172
 20
3.04688
 42
-0.1293794495517974
 10
281.531
 20
4.75781
 42
-0.0997678789339802
 10
281.766
 20
6.82812
 10
285.859
 20
20.4531
 42
0.1944925534874631
 10
285.547
 20
22.0469
 42
0.2584998452263655
 10
283.906
 20
22.8438
 10
281.234
 20
22.8438
 10
274.828
 20
1.5
  0
LWPOLYLINE
  5
223
102
{ACAD_REACTORS
330
313
102
}
330
1D
100
AcDbEntity
  8
EMBMOD-POLYLINE
100
AcDbPolyline
 90
       21
 70
     1
 43
0.0
 10
333.5
 20
1.5
 42
-0.1616913505936019
 10
336.172
 20
5.25
 42
-0.0748513090636641
 10
338.258
 20
6.41016
 42
-0.0881520524954463
 10
340.422
 20
6.79688
 10
345.234
 20
22.8438
 10
345.188
 20
22.8438
 42
-0.1102683360273969
 10
343.289
 20
23.2266
 42
-0.1277551328465878
 10
341.906
 20
24.375
 42
-0.1282261065364738
 10
341.266
 20
26.0977
 42
-0.0996879727837307
 10
341.5
 20
28.1719
 10
362.844
 20
28.1719
 10
362.828
 20
28.125
 42
-0.1100975951465646
 10
364.75
 20
27.7422
 42
-0.1331705870515768
 10
366.109
 20
26.5938
 42
-0.1288506024216211
 10
366.789
 20
24.8828
 42
-0.1041894565005018
 10
366.578
 20
22.8438
 10
361.766
 20
6.82812
 42
-0.1649920923706832
 10
359.047
 20
3.04688
 42
-0.076806306201437
 10
356.996
 20
1.88672
 42
-0.0890820435735074
 10
354.844
 20
1.5
 10
333.5
 20
1.5
  0
LWPOLYLINE
  5
23A
102
{ACAD_REACTORS
330
2D6
102
}
330
1D
100
AcDbEntity
  8
EMBMOD-POLYLINE
100
AcDbPolyline
 90
       11
 70
     1
 43
0.0
 10
166.828
 20
1.5
 42
-0.1098048639540309
 10
164.895
 20
1.88672
 42
-0.1294705442877226
 10
163.5
 20
3.04688
 42
-0.1293794495517983
 10
162.859
 20
4.75781
 42
-0.0997678789339802
 10
163.094
 20
6.82812
 10
169.5
 20
28.1719
 42
-0.1131843930777615
 10
171.422
 20
27.7773
 42
-0.1337952538018217
 10
172.781
 20
26.5938
 42
-0.1281774997811939
 10
173.449
 20
24.8828
 42
-0.1031230026421559
 10
173.234
 20
22.8438
 10
166.828
 20
1.5
  0
HATCH
  5
2C8
330
1D
100
AcDbEntity
  8
EMBMOD-HATCH-BLUE
100
AcDbHatch
 10
0.0
 20
0.0
 30
0.0
210
0.0
220
0.0
230
1.0
  2
SOLID
 70
     1
 71
     1
 91
        1
 92
        1
 93
       10
 72
     2
 10
13.9180953023758
 20
20.69283145248381
 40
7.334346612811087
 50
197.0540299183472
 51
233.5683969609192
 73
     0
 72
     2
 10
14.42649173702932
 20
20.21821080455949
 40
8.019136687132054
 50
232.6596789980659
 51
249.760419708649
 73
     0
 72
     2
 10
13.83165090094136
 20
21.72989344235054
 40
6.395107543473266
 50
250.0753477743591
 51
269.9681863602011
 73
     0
 72
     1
 10
13.8281
 20
28.125
 11
13.8281
 21
28.1719
 72
     1
 10
13.8281
 20
28.1719
 11
35.1719
 21
28.1719
 72
     2
 10
28.16648929494422
 20
30.3163202112001
 40
7.326275806213797
 50
17.01982813469455
 51
54.18988022360474
 73
     0
 72
     2
 10
27.65303398827617
 20
30.56950691760746
 40
7.836615957745601
 50
52.22822717601796
 51
69.55365211100792
 73
     0
 72
     2
 10
28.23252986322188
 20
29.11835467325228
 40
6.274554951950265
 50
69.88289999621351
 51
89.98292294084516
 73
     0
 72
     1
 10
28.2344
 20
22.8438
 11
6.90625
 21
22.8438
 72
     1
 10
6.90625
 20
22.8438
 11
6.90625
 21
22.8438
 97
        1
330
118
 75
     0
 76
     1
 98
        1
 10
0.0
 20
0.0
1001
ACAD
1010
0.0
1020
0.0
1030
0.0
  0
HATCH
  5
2CA
330
1D
100
AcDbEntity
  8
EMBMOD-HATCH-BLUE
100
AcDbHatch
 10
0.0
 20
0.0
 30
0.0
210
0.0
220
0.0
230
1.0
  2
SOLID
 70
     1
 71
     1
 91
        1
 92
        1
 93
       10
 72
     2
 10
10.68555815586915
 20
10.02376253527903
 40
7.305404654629012
 50
197.1004423204121
 51
233.8394033562218
 73
     0
 72
     2
 10
11.20007262216154
 20
9.645012791391203
 40
7.917110510705883
 50
232.4503497354733
 51
249.6982659356949
 73
     0
 72
     2
 10
10.62666409241161
 20
11.09099577788157
 40
6.362104439751108
 50
250.0232272170778
 51
269.9850135322525
 73
     0
 72
     1
 10
10.625
 20
17.4531
 11
10.6406
 21
17.5
 72
     1
 10
10.6406
 20
17.5
 11
31.9688
 21
17.5
 72
     2
 10
24.96338929494421
 20
19.64442021120011
 40
7.326275806213806
 50
17.01982813469455
 51
54.18988022360469
 73
     0
 72
     2
 10
24.50225404570281
 20
19.78537646054899
 40
7.715904262566619
 50
52.02486435829984
 51
69.57228907808994
 73
     0
 72
     2
 10
25.03332405145157
 20
18.46849264695317
 40
6.296593005209981
 50
69.91849915655456
 51
90.01932778342994
 73
     0
 72
     1
 10
25.0312
 20
12.1719
 11
3.703119999999998
 21
12.1719
 72
     1
 10
3.70312
 20
12.1719
 11
3.70312
 21
12.1719
 97
        1
330
B5
 75
     0
 76
     1
 98
        1
 10
0.0
 20
0.0
1001
ACAD
1010
0.0
1020
0.0
1030
0.0
  0
HATCH
  5
2CC
330
1D
100
AcDbEntity
  8
EMBMOD-HATCH-BLUE
100
AcDbHatch
 10
0.0
 20
0.0
 30
0.0
210
0.0
220
0.0
230
1.0
  2
SOLID
 70
     1
 71
     1
 91
        1
 92
        1
 93
       10
 72
     2
 10
7.482438155869153
 20
-0.6481374647209792
 40
7.305404654629016
 50
197.1004423204121
 51
233.8394033562218
 73
     0
 72
     2
 10
8.068017257683225
 20
-1.097798574911366
 40
8.016651844362494
 50
232.3565439388542
 51
249.4792700396405
 73
     0
 72
     2
 10
7.428063797549969
 20
0.5138901561492473
 40
6.28299288693564
 50
249.7927348474543
 51
269.943608792091
 73
     0
 72
     1
 10
7.42188
 20
6.79688
 11
7.4375
 21
6.82812
 72
     1
 10
7.4375
 20
6.82812
 11
28.7656
 21
6.82812
 72
     2
 10
21.83279257679179
 20
8.944798848122876
 40
7.248734242154391
 50
16.97813151513162
 51
54.45390763575994
 73
     0
 72
     2
 10
21.26752447668172
 20
9.102654540081659
 40
7.714585904194412
 50
51.71857555842534
 51
69.28679228568926
 73
     0
 72
     2
 10
21.84327078014184
 20
7.685645593971625
 40
6.185645616610625
 50
69.63274653924631
 51
89.9950979952258
 73
     0
 72
     1
 10
21.8438
 20
1.5
 11
0.5
 21
1.5
 72
     1
 10
0.5
 20
1.5
 11
0.5
 21
1.5
 97
        1
330
6F
 75
     0
 76
     1
 98
        1
 10
0.0
 20
0.0
1001
ACAD
1010
0.0
1020
0.0
1030
0.0
  0
HATCH
  5
2CE
330
1D
100
AcDbEntity
  8
EMBMOD-HATCH-BLUE
100
AcDbHatch
 10
0.0
 20
0.0
 30
0.0
210
0.0
220
0.0
230
1.0
  2
SOLID
 70
     1
 71
     1
 91
        1
 92
        1
 93
       32
 72
     2
 10
37.73115508059316
 20
6.042635402965811
 40
4.543669741704073
 50
88.7774295741664
 51
113.842435373874
 73
     0
 72
     2
 10
37.39989903288202
 20
5.114360747098653
 40
3.561445077568044
 50
115.0047449976383
 51
144.5130597386844
 73
     0
 72
     2
 10
37.43039142888693
 20
5.119456704946995
 40
3.589257322118728
 50
144.7293924707512
 51
174.2171737880796
 73
     0
 72
     2
 10
39.11277940680211
 20
5.211448003533569
 40
5.272929226726109
 50
175.0646573178508
 51
197.8543571437066
 73
     0
 72
     1
 10
34.0938
 20
6.82812
 11
40.5
 21
28.1719
 72
     1
 10
40.5
 20
28.1719
 11
61.8438
 21
28.1719
 72
     1
 10
61.8438
 20
28.1719
 11
61.8281
 21
28.125
 72
     2
 10
61.93035754450717
 20
23.62241653549718
 40
4.503744493221486
 50
268.6989871993154
 51
293.8302806762102
 73
     0
 72
     2
 10
62.31205181285281
 20
24.66126807244176
 40
3.399975960380838
 50
295.0196415301879
 51
325.3615670288916
 73
     0
 72
     2
 10
62.18462971698112
 20
24.44141957547167
 40
3.631394043659135
 50
323.650114909633
 51
353.0186807987305
 73
     0
 72
     2
 10
60.84418097484279
 20
24.36409323899371
 40
4.972049966490224
 50
354.0117489230558
 51
377.8043681066731
 73
     0
 72
     1
 10
65.5781
 20
22.8438
 11
59.1719
 21
1.5
 72
     2
 10
59.07495508059316
 20
6.042635402965814
 40
4.543669741704076
 50
88.7774295741664
 51
113.842435373874
 73
     0
 72
     2
 10
58.74369903288202
 20
5.114360747098653
 40
3.561445077568044
 50
115.0047449976383
 51
144.5130597386844
 73
     0
 72
     2
 10
58.77414142888693
 20
5.11964670053004
 40
3.589326215973863
 50
144.7264554584325
 51
174.214236775761
 73
     0
 72
     2
 10
60.4564794068021
 20
5.211448003533569
 40
5.272929226726104
 50
175.0646573178508
 51
197.8543571437066
 73
     0
 72
     1
 10
55.4375
 20
6.82812
 11
59.5312
 21
20.4531
 72
     2
 10
57.44588025614279
 20
20.85448701031525
 40
2.123598353307543
 50
349.1048292101479
 51
394.1600043771842
 73
     1
 72
     2
 10
57.75068676470588
 20
21.07525955882354
 40
1.747452246268011
 50
33.78186818995658
 51
63.89851964944753
 73
     1
 72
     2
 10
57.61065226365546
 20
20.67770351890756
 40
2.166631626718351
 50
65.19855541621561
 51
91.27347381798663
 73
     1
 72
     1
 10
57.5625
 20
22.8438
 11
54.9062
 21
22.8438
 72
     1
 10
54.9062
 20
22.8438
 11
48.5
 21
1.5
 72
     2
 10
48.40305508059316
 20
6.042635402965814
 40
4.543669741704076
 50
88.7774295741664
 51
113.842435373874
 73
     0
 72
     2
 10
48.07179903288201
 20
5.114360747098649
 40
3.561445077568041
 50
115.0047449976383
 51
144.5130597386844
 73
     0
 72
     2
 10
48.10224142888693
 20
5.11964670053004
 40
3.589326215973863
 50
144.7264554584325
 51
174.214236775761
 73
     0
 72
     2
 10
49.78457940680211
 20
5.211448003533569
 40
5.272929226726109
 50
175.0646573178508
 51
197.8543571437066
 73
     0
 72
     1
 10
44.7656
 20
6.82812
 11
48.8594
 21
20.4531
 72
     2
 10
46.73198100571973
 20
20.86350840085796
 40
2.166644094612508
 50
349.0809899124692
 51
393.1057773214739
 73
     1
 72
     2
 10
47.00735284526854
 20
20.9646287404092
 40
1.881891739972835
 50
35.1064613833252
 51
93.0811684604119
 73
     1
 72
     1
 10
46.9062
 20
22.8438
 11
44.2344
 21
22.8438
 72
     1
 10
44.2344
 20
22.8438
 11
37.8281
 21
1.5
 72
     1
 10
37.8281
 20
1.5
 11
37.8281
 21
1.5
 97
        1
330
1DF
 75
     0
 76
     1
 98
        1
 10
0.0
 20
0.0
1001
ACAD
1010
0.0
1020
0.0
1030
0.0
  0
HATCH
  5
2D0
330
1D
100
AcDbEntity
  8
EMBMOD-HATCH-BLUE
100
AcDbHatch
 10
0.0
 20
0.0
 30
0.0
210
0.0
220
0.0
230
1.0
  2
SOLID
 70
     1
 71
     1
 91
        3
 92
        1
 93
       36
 72
     1
 10
69.8281
 20
1.5
 11
69.7969
 21
1.5
 72
     2
 10
69.70367012789768
 20
5.950559830135858
 40
4.451536207947895
 50
88.79994938381523
 51
114.0897397820061
 73
     0
 72
     2
 10
69.41340164813603
 20
5.120352631076962
 40
3.575919170673044
 50
115.2734982822223
 51
144.560480829184
 73
     0
 72
     2
 10
69.43039142888692
 20
5.119456704947006
 40
3.589257322118727
 50
144.7293924707509
 51
174.2171737880794
 73
     0
 72
     2
 10
71.1127794068021
 20
5.211448003533551
 40
5.272929226726105
 50
175.064657317851
 51
197.8543571437068
 73
     0
 72
     1
 10
66.0938
 20
6.82812
 11
71.4375
 21
6.82812
 72
     1
 10
71.4375
 20
6.82812
 11
73.0312
 21
12.1719
 72
     1
 10
73.0312
 20
12.1719
 11
73.0
 21
12.1719
 72
     2
 10
72.90622019802525
 20
16.66135078962341
 40
4.490430162435298
 50
88.80332677915106
 51
113.8603731467487
 73
     0
 72
     2
 10
72.59825693088386
 20
15.78759529001797
 40
3.567499722291779
 50
115.0135819518637
 51
144.2463434437666
 73
     0
 72
     2
 10
72.68629163165822
 20
15.79288021956247
 40
3.642336293818866
 50
144.9880556103693
 51
174.2158238634058
 73
     0
 72
     2
 10
74.32973761757555
 20
15.88090751250618
 40
5.2868624880871
 50
175.061711520685
 51
197.8332785485137
 73
     0
 72
     1
 10
69.2969
 20
17.5
 11
74.6406
 21
17.5
 72
     1
 10
74.6406
 20
17.5
 11
76.2344
 21
22.8438
 72
     1
 10
76.2344
 20
22.8438
 11
76.1875
 21
22.8438
 72
     2
 10
76.09563019077196
 20
27.28691273291925
 40
4.444062422972561
 50
88.81546953739847
 51
113.9854245792005
 73
     0
 72
     2
 10
75.80823933007986
 20
26.46278535751258
 40
3.575007688435684
 50
115.146433015835
 51
144.2680017695228
 73
     0
 72
     2
 10
75.88939163165821
 20
26.46478021956245
 40
3.642336293818853
 50
144.9880556103697
 51
174.2158238634062
 73
     0
 72
     2
 10
77.53283761757557
 20
26.55280751250618
 40
5.286862488087104
 50
175.061711520685
 51
197.8332785485137
 73
     0
 72
     1
 10
72.5
 20
28.1719
 11
88.5
 21
28.1719
 72
     1
 10
88.5
 20
28.1719
 11
88.4844
 21
28.125
 72
     2
 10
88.58849795648894
 20
23.57591799547279
 40
4.55027290043778
 50
268.6891129215687
 51
293.7072880524746
 73
     0
 72
     2
 10
88.99004888527595
 20
24.66387244897961
 40
3.393397250162861
 50
294.8852829227315
 51
325.3382727622658
 73
     0
 72
     2
 10
88.88291030735998
 20
24.46009018452011
 40
3.598999960980636
 50
323.6396413379516
 51
353.2549258857888
 73
     0
 72
     2
 10
87.5346535685162
 20
24.38852753097023
 40
4.947100126860373
 50
354.2659225240327
 51
378.1948237135272
 73
     0
 72
     1
 10
92.2344
 20
22.8438
 11
90.625
 21
17.4531
 72
     2
 10
90.72725754450717
 20
12.9505165354972
 40
4.503744493221467
 50
268.6989871993154
 51
293.8302806762102
 73
     0
 72
     2
 10
91.1089018128528
 20
13.98955247231871
 40
3.399830012743719
 50
295.021719384377
 51
325.3636448830807
 73
     0
 72
     2
 10
90.98142971698113
 20
13.7695195754717
 40
3.631394043659121
 50
323.6501149096335
 51
353.0186807987308
 73
     0
 72
     2
 10
89.64103097484278
 20
13.6919558962264
 40
4.972025005850302
 50
354.008968687138
 51
377.8015878707552
 73
     0
 72
     1
 10
94.375
 20
12.1719
 11
92.7656
 21
6.82812
 72
     2
 10
85.8327925767918
 20
8.944798848122893
 40
7.248734242154402
 50
16.97813151513177
 51
54.45390763576012
 73
     0
 72
     2
 10
85.26752447668173
 20
9.102654540081629
 40
7.714585904194385
 50
51.71857555842523
 51
69.28679228568919
 73
     0
 72
     2
 10
85.84327078014185
 20
7.68564559397162
 40
6.18564561661062
 50
69.63274653924631
 51
89.99509799522585
 73
     0
 72
     1
 10
85.8438
 20
1.5
 11
69.8281
 21
1.5
 72
     1
 10
69.8281
 20
1.5
 11
69.8281
 21
1.5
 97
        1
330
14C
 92
       16
 93
        9
 72
     2
 10
84.70720011160715
 20
10.33375053943452
 40
3.506116944139232
 50
270.9543953965295
 51
308.1914275761359
 73
     1
 72
     2
 10
84.38120741419841
 20
10.8578177244946
 40
4.120123617690863
 50
307.2483670771342
 51
335.8456670012296
 73
     1
 72
     1
 10
88.1406
 20
9.17188
 11
88.3281
 21
9.79688
 72
     2
 10
86.27106649506348
 20
10.19237811118946
 40
2.094708952667625
 50
349.1167629368786
 51
394.3728361773138
 73
     1
 72
     2
 10
86.48108347719523
 20
10.33295953751065
 40
1.841997754807091
 50
34.45175710241851
 51
93.30157868342532
 73
     1
 72
     1
 10
86.375
 20
12.1719
 11
78.375
 21
12.1719
 72
     1
 10
78.375
 20
12.1719
 11
76.7656
 21
6.82812
 72
     1
 10
76.7656
 20
6.82812
 11
84.7656
 21
6.82812
 72
     1
 10
84.7656
 20
6.82812
 11
84.7656
 21
6.82812
 97
        1
330
24
 92
       16
 93
        9
 72
     2
 10
82.57336956521739
 20
20.98535507246375
 40
3.486003429790314
 50
271.1050646030614
 51
308.3100243321092
 73
     1
 72
     2
 10
82.37776079728485
 20
21.43651166589969
 40
3.963282090476112
 50
306.4854109561355
 51
336.0569627111277
 73
     1
 72
     1
 10
86.0
 20
19.8281
 11
86.1875
 21
20.4531
 72
     2
 10
84.15853499999999
 20
20.8828125
 40
2.073970058578783
 50
348.0420827004986
 51
394.1446845334445
 73
     1
 72
     2
 10
84.33550284526854
 20
20.96471898976982
 40
1.881798934086495
 50
35.10508891568906
 51
93.07979599277596
 73
     1
 72
     1
 10
84.2344
 20
22.8438
 11
81.5625
 21
22.8438
 72
     1
 10
81.5625
 20
22.8438
 11
79.9688
 21
17.5
 72
     1
 10
79.9688
 20
17.5
 11
82.6406
 21
17.5
 72
     1
 10
82.6406
 20
17.5
 11
82.6406
 21
17.5
 97
        1
330
47
 75
     0
 76
     1
 98
        1
 10
0.0
 20
0.0
1001
ACAD
1010
0.0
1020
0.0
1030
0.0
  0
HATCH
  5
2D2
330
1D
100
AcDbEntity
  8
EMBMOD-HATCH-BLUE
100
AcDbHatch
 10
0.0
 20
0.0
 30
0.0
210
0.0
220
0.0
230
1.0
  2
SOLID
 70
     1
 71
     1
 91
        2
 92
        1
 93
       26
 72
     1
 10
97.5
 20
1.5
 11
105.5
 21
28.1719
 72
     1
 10
105.5
 20
28.1719
 11
121.5
 21
28.1719
 72
     1
 10
121.5
 20
28.1719
 11
121.484
 21
28.125
 72
     2
 10
121.5882979564889
 20
23.57501653043256
 40
4.551178708539661
 50
268.686855365516
 51
293.7050304964218
 73
     0
 72
     2
 10
121.989948885276
 20
24.66423983858509
 40
3.393106061048183
 50
294.889425276308
 51
325.3424151158423
 73
     0
 72
     2
 10
121.88281030736
 20
24.45971190401835
 40
3.599143717043743
 50
323.6338480401778
 51
353.249132588015
 73
     0
 72
     2
 10
120.5344535685162
 20
24.38947133605732
 40
4.94720492205257
 50
354.2770298810858
 51
378.2059310705802
 73
     0
 72
     1
 10
125.234
 20
22.8438
 11
123.625
 21
17.4531
 72
     2
 10
123.7273075445072
 20
12.95029221667391
 40
4.503969889691212
 50
268.6984160956141
 51
293.8297095725089
 73
     0
 72
     2
 10
124.1088518128528
 20
13.99010567194962
 40
3.39939219666523
 50
295.02795401742
 51
325.3698795161238
 73
     0
 72
     2
 10
123.9813797169811
 20
13.76894716981133
 40
3.631612546633083
 50
323.6414386917077
 51
353.0100045808051
 73
     0
 72
     2
 10
122.6410809748428
 20
13.69219323899371
 40
4.972049966490228
 50
354.0117489230558
 51
377.8043681066731
 73
     0
 72
     1
 10
127.375
 20
12.1719
 11
124.172
 21
1.5
 72
     2
 10
124.0748550805932
 20
6.043535128949049
 40
4.544573533716955
 50
88.7751506689376
 51
113.8401564686452
 73
     0
 72
     2
 10
123.743649032882
 20
5.113411460348177
 40
3.560690493500157
 50
115.014847460554
 51
144.5231622016
 73
     0
 72
     2
 10
123.7741914288869
 20
5.120216687279132
 40
3.589532954123698
 50
144.7176450980257
 51
174.2054264153543
 73
     0
 72
     2
 10
125.4566794068021
 20
5.20995947879859
 40
5.273100270299659
 50
175.0810516112897
 51
197.8707514371455
 73
     0
 72
     1
 10
120.438
 20
6.82812
 11
121.328
 21
9.79688
 72
     2
 10
119.2710164950635
 20
10.19249806299953
 40
2.094682503710876
 50
349.1132826887084
 51
394.3693559291436
 73
     1
 72
     2
 10
119.4810834771952
 20
10.33295953751065
 40
1.841997754807091
 50
34.45175710241851
 51
93.30157868342532
 73
     1
 72
     1
 10
119.375
 20
12.1719
 11
106.031
 21
12.1719
 72
     1
 10
106.031
 20
12.1719
 11
104.438
 21
6.82812
 72
     2
 10
97.5050425767918
 20
8.945241040955652
 40
7.249006837772671
 50
16.98112805565517
 51
54.45690417628352
 73
     0
 72
     2
 10
96.90074070599616
 20
9.199951764990274
 40
7.815108109896815
 50
51.93672332498112
 51
69.35473271709604
 73
     0
 72
     2
 10
97.49757944874274
 20
7.717921472437151
 40
6.217921943580779
 50
69.68622740000082
 51
89.97769554267529
 73
     0
 72
     1
 10
97.5
 20
1.5
 11
97.5
 21
1.5
 97
        1
330
99
 92
       16
 93
        7
 72
     1
 10
118.297
 20
17.5
 11
119.188
 21
20.4531
 72
     2
 10
117.158785
 20
20.88222499999999
 40
2.074093002218086
 50
348.0593908187528
 51
394.1619926516987
 73
     1
 72
     2
 10
117.3353028452685
 20
20.96435799232737
 40
1.882170164109517
 50
35.11057797414021
 51
93.0852850512271
 73
     1
 72
     1
 10
117.234
 20
22.8438
 11
109.234
 21
22.8438
 72
     1
 10
109.234
 20
22.8438
 11
107.641
 21
17.5
 72
     1
 10
107.641
 20
17.5
 11
118.297
 21
17.5
 72
     1
 10
118.297
 20
17.5
 11
118.297
 21
17.5
 97
        1
330
1A6
 75
     0
 76
     1
 98
        1
 10
0.0
 20
0.0
1001
ACAD
1010
0.0
1020
0.0
1030
0.0
  0
HATCH
  5
2D4
330
1D
100
AcDbEntity
  8
EMBMOD-HATCH-BLUE
100
AcDbHatch
 10
0.0
 20
0.0
 30
0.0
210
0.0
220
0.0
230
1.0
  2
SOLID
 70
     1
 71
     1
 91
        2
 92
        1
 93
       22
 72
     1
 10
134.828
 20
1.5
 11
134.797
 21
1.5
 72
     2
 10
134.7038701278977
 20
5.950114096722606
 40
4.451088478892219
 50
88.80111616756486
 51
114.0909065657557
 73
     0
 72
     2
 10
134.413551648136
 20
5.12092670318291
 40
3.576374271988338
 50
115.267398647978
 51
144.5543811949396
 73
     0
 72
     2
 10
134.4301914288869
 20
5.120216687279132
 40
3.589532954123698
 50
144.7176450980257
 51
174.2054264153543
 73
     0
 72
     2
 10
136.1126794068021
 20
5.209959478798623
 40
5.273100270299669
 50
175.0810516112894
 51
197.8707514371451
 73
     0
 72
     1
 10
131.094
 20
6.82812
 11
135.906
 21
22.8438
 72
     2
 10
142.9177203023758
 20
20.69321036717063
 40
7.334115990873221
 50
197.0514863031817
 51
233.5658533457537
 73
     0
 72
     2
 10
143.4260917370293
 20
20.21754568931453
 40
8.019726146245391
 50
232.6619931955647
 51
249.7627339061478
 73
     0
 72
     2
 10
142.8314509009413
 20
21.72932319632073
 40
6.395677734676624
 50
250.0762464623337
 51
269.9690850481757
 73
     0
 72
     1
 10
142.828
 20
28.125
 11
142.828
 21
28.1719
 72
     1
 10
142.828
 20
28.1719
 11
158.844
 21
28.1719
 72
     1
 10
158.844
 20
28.1719
 11
158.828
 21
28.125
 72
     2
 10
158.9303075445072
 20
23.62219221667392
 40
4.503969889691208
 50
268.6984160956141
 51
293.8297095725089
 73
     0
 72
     2
 10
159.3118518128528
 20
24.66200567194962
 40
3.39939219666523
 50
295.02795401742
 51
325.3698795161238
 73
     0
 72
     2
 10
159.1843797169811
 20
24.44084716981136
 40
3.631612546633086
 50
323.6414386917082
 51
353.0100045808055
 73
     0
 72
     2
 10
157.8440809748428
 20
24.36409323899367
 40
4.972049966490207
 50
354.0117489230554
 51
377.8043681066728
 73
     0
 72
     1
 10
162.578
 20
22.8438
 11
157.766
 21
6.828119999999998
 72
     2
 10
150.8330425767918
 20
8.945241040955631
 40
7.249006837772658
 50
16.98112805565502
 51
54.45690417628335
 73
     0
 72
     2
 10
150.2675244766817
 20
9.103301687979018
 40
7.715155859775035
 50
51.72097002282351
 51
69.28918675008747
 73
     0
 72
     2
 10
150.8433207801419
 20
7.684810354609976
 40
6.184810391906156
 50
69.63135628462278
 51
89.99370774060226
 73
     0
 72
     1
 10
150.844
 20
1.5
 11
134.828
 21
1.5
 72
     1
 10
134.828
 20
1.5
 11
134.828
 21
1.5
 97
        1
330
1C7
 92
       16
 93
       15
 72
     2
 10
149.7074001116071
 20
10.33315688616073
 40
3.50552671081921
 50
270.957825443116
 51
308.1948576227223
 73
     1
 72
     2
 10
149.3814074141984
 20
10.85860243300421
 40
4.120627255311252
 50
307.2395492447136
 51
335.8368491688088
 73
     1
 72
     1
 10
153.141
 20
9.17188
 11
156.531
 21
20.4531
 72
     2
 10
154.4457302561428
 20
20.85460755679184
 40
2.123572043234533
 50
349.101380404057
 51
394.1565555710932
 73
     1
 72
     2
 10
154.7508867647059
 20
21.07637463235296
 40
1.746583046225619
 50
33.75693692649303
 51
63.87358838598396
 73
     1
 72
     2
 10
154.6106522636555
 20
20.67554422268907
 40
2.168801548920744
 50
65.21049345328105
 51
91.28541185505205
 73
     1
 72
     1
 10
154.562
 20
22.8438
 11
143.906
 21
22.8438
 72
     2
 10
143.9665855238971
 20
19.36492536764704
 40
3.479402148837473
 50
90.99772032956793
 51
129.5728873470491
 73
     1
 72
     2
 10
143.940007100432
 20
19.07667413606911
 40
3.690307952286151
 50
126.4020961078911
 51
158.1002328677973
 73
     1
 72
     1
 10
140.516
 20
20.4531
 11
137.141
 21
9.17188
 72
     2
 10
139.012804366681
 20
8.664200166380438
 40
1.939430432005748
 50
164.8250354506033
 51
214.0557665222672
 73
     1
 72
     2
 10
138.820244140625
 20
8.625064010416674
 40
1.759596047460751
 50
216.511998555897
 51
246.1584463792241
 73
     1
 72
     2
 10
139.041685546875
 20
9.234311406249969
 40
2.406760039039408
 50
247.1992635262282
 51
271.2455057443037
 73
     1
 72
     1
 10
139.094
 20
6.82812
 11
149.766
 21
6.82812
 72
     1
 10
149.766
 20
6.82812
 11
149.766
 21
6.82812
 97
        1
330
107
 75
     0
 76
     1
 98
        1
 10
0.0
 20
0.0
1001
ACAD
1010
0.0
1020
0.0
1030
0.0
  0
HATCH
  5
2D6
330
1D
100
AcDbEntity
  8
EMBMOD-HATCH-BLUE
100
AcDbHatch
 10
0.0
 20
0.0
 30
0.0
210
0.0
220
0.0
230
1.0
  2
SOLID
 70
     1
 71
     1
 91
        1
 92
        1
 93
       11
 72
     2
 10
166.7313550805932
 20
6.041285813990947
 40
4.54231406716913
 50
88.78084963239202
 51
113.8458554320996
 73
     0
 72
     2
 10
166.400149032882
 20
5.115310033849154
 40
3.562199772311447
 50
114.9946468150643
 51
144.5029615561104
 73
     0
 72
     2
 10
166.4301914288869
 20
5.120216687279132
 40
3.589532954123698
 50
144.7176450980257
 51
174.2054264153543
 73
     0
 72
     2
 10
168.1126794068021
 20
5.209959478798623
 40
5.273100270299669
 50
175.0810516112894
 51
197.8707514371451
 73
     0
 72
     1
 10
163.094
 20
6.82812
 11
169.5
 21
28.1719
 72
     2
 10
169.6005790433432
 20
23.78370015536128
 40
4.389352346354424
 50
268.6869910045651
 51
294.5170171264869
 73
     0
 72
     2
 10
169.9296853571993
 20
24.69167919343795
 40
3.427544128819646
 50
295.8100423016394
 51
326.2926246888129
 73
     0
 72
     2
 10
169.8326587598807
 20
24.45682486943325
 40
3.641342990827559
 50
324.065178287657
 51
353.2819868236097
 73
     0
 72
     2
 10
168.450940907527
 20
24.378979355018
 40
5.023388292195023
 50
354.2438428244507
 51
377.7946470182055
 73
     0
 72
     1
 10
173.234
 20
22.8438
 11
166.828
 21
1.5
 72
     1
 10
166.828
 20
1.5
 11
166.828
 21
1.5
 97
        1
330
23A
 75
     0
 76
     1
 98
        1
 10
0.0
 20
0.0
1001
ACAD
1010
0.0
1020
0.0
1030
0.0
  0
HATCH
  5
2DA
330
1D
100
AcDbEntity
  8
EMBMOD-HATCH-BLUE
100
AcDbHatch
 10
0.0
 20
0.0
 30
0.0
210
0.0
220
0.0
230
1.0
  2
SOLID
 70
     1
 71
     1
 91
        1
 92
        1
 93
       10
 72
     2
 10
218.9177203023758
 20
20.69321036717063
 40
7.334115990873221
 50
197.0514863031817
 51
233.5658533457537
 73
     0
 72
     2
 10
219.4260917370293
 20
20.21754568931453
 40
8.01972614624538
 50
232.6619931955647
 51
249.7627339061478
 73
     0
 72
     2
 10
218.8314509009413
 20
21.72932319632073
 40
6.395677734676632
 50
250.0762464623337
 51
269.9690850481757
 73
     0
 72
     1
 10
218.828
 20
28.125
 11
218.828
 21
28.1719
 72
     1
 10
218.828
 20
28.1719
 11
240.172
 21
28.1719
 72
     2
 10
233.1664892949442
 20
30.31661761227492
 40
7.326458481084394
 50
17.0218231612774
 51
54.19187525018755
 73
     0
 72
     2
 10
232.6531839882762
 20
30.56786601896081
 40
7.835165810319523
 50
52.22232246993427
 51
69.54774740492424
 73
     0
 72
     2
 10
233.2325298632219
 20
29.12061166413369
 40
6.276811836299289
 50
69.88655740289819
 51
89.98658034752987
 73
     0
 72
     1
 10
233.234
 20
22.8438
 11
211.906
 21
22.8438
 72
     1
 10
211.906
 20
22.8438
 11
211.906
 21
22.8438
 97
        1
330
63
 75
     0
 76
     1
 98
        1
 10
0.0
 20
0.0
1001
ACAD
1010
0.0
1020
0.0
1030
0.0
  0
HATCH
  5
2DC
330
1D
100
AcDbEntity
  8
EMBMOD-HATCH-BLUE
100
AcDbHatch
 10
0.0
 20
0.0
 30
0.0
210
0.0
220
0.0
230
1.0
  2
SOLID
 70
     1
 71
     1
 91
        1
 92
        1
 93
       10
 72
     2
 10
215.6854981558691
 20
10.02358184733804
 40
7.305515134593387
 50
197.1016584032604
 51
233.8406194390701
 73
     0
 72
     2
 10
216.2000126221615
 20
9.645408403995397
 40
7.916760294383969
 50
232.4489490616417
 51
249.6968652618634
 73
     0
 72
     2
 10
215.6266040924116
 20
11.09065483615981
 40
6.362445366051155
 50
250.0237683386068
 51
269.9855546537816
 73
     0
 72
     1
 10
215.625
 20
17.4531
 11
215.641
 21
17.5
 72
     1
 10
215.641
 20
17.5
 11
236.969
 21
17.5
 72
     2
 10
229.9634892949442
 20
19.64471761227492
 40
7.326458481084394
 50
17.0218231612774
 51
54.19187525018755
 73
     0
 72
     2
 10
229.5021040457028
 20
19.7863483508192
 40
7.716762694976193
 50
52.02842666092161
 51
69.57585138071171
 73
     0
 72
     2
 10
230.0330740514516
 20
18.46821053463637
 40
6.296310876240335
 50
69.91804502773795
 51
90.01887365461337
 73
     0
 72
     1
 10
230.031
 20
12.1719
 11
208.703
 21
12.1719
 72
     1
 10
208.703
 20
12.1719
 11
208.703
 21
12.1719
 97
        1
330
1BB
 75
     0
 76
     1
 98
        1
 10
0.0
 20
0.0
1001
ACAD
1010
0.0
1020
0.0
1030
0.0
  0
HATCH
  5
2DE
330
1D
100
AcDbEntity
  8
EMBMOD-HATCH-BLUE
100
AcDbHatch
 10
0.0
 20
0.0
 30
0.0
210
0.0
220
0.0
230
1.0
  2
SOLID
 70
     1
 71
     1
 91
        1
 92
        1
 93
       10
 72
     2
 10
212.4824981558692
 20
-0.6483181526619637
 40
7.305515134593387
 50
197.1016584032604
 51
233.8406194390701
 73
     0
 72
     2
 10
213.0681722576832
 20
-1.098031061859793
 40
8.016857310645094
 50
232.3573606631558
 51
249.480086763942
 73
     0
 72
     2
 10
212.42821879755
 20
0.5140871341070499
 40
6.282795943619235
 50
249.7924138981264
 51
269.9432878427632
 73
     0
 72
     1
 10
212.422
 20
6.79688
 11
212.438
 21
6.82812
 72
     1
 10
212.438
 20
6.82812
 11
233.766
 21
6.82812
 72
     2
 10
226.8330425767918
 20
8.945241040955631
 40
7.249006837772658
 50
16.98112805565502
 51
54.45690417628335
 73
     0
 72
     2
 10
226.2675244766817
 20
9.103301687979027
 40
7.715155859775044
 50
51.72097002282351
 51
69.28918675008745
 73
     0
 72
     2
 10
226.8433207801419
 20
7.684810354609976
 40
6.184810391906156
 50
69.63135628462278
 51
89.99370774060226
 73
     0
 72
     1
 10
226.844
 20
1.5
 11
205.5
 21
1.5
 72
     1
 10
205.5
 20
1.5
 11
205.5
 21
1.5
 97
        1
330
17E
 75
     0
 76
     1
 98
        1
 10
0.0
 20
0.0
1001
ACAD
1010
0.0
1020
0.0
1030
0.0
  0
HATCH
  5
2E0
330
1D
100
AcDbEntity
  8
EMBMOD-HATCH-BLUE
100
AcDbHatch
 10
0.0
 20
0.0
 30
0.0
210
0.0
220
0.0
230
1.0
  2
SOLID
 70
     1
 71
     1
 91
        2
 92
        1
 93
       26
 72
     1
 10
237.5
 20
1.5
 11
245.5
 21
28.1719
 72
     1
 10
245.5
 20
28.1719
 11
261.5
 21
28.1719
 72
     1
 10
261.5
 20
28.1719
 11
261.484
 21
28.125
 72
     2
 10
261.5882979564889
 20
23.57501653043253
 40
4.551178708539693
 50
268.6868553655159
 51
293.7050304964217
 73
     0
 72
     2
 10
261.989948885276
 20
24.66423983858509
 40
3.393106061048181
 50
294.889425276308
 51
325.3424151158423
 73
     0
 72
     2
 10
261.88281030736
 20
24.45971190401835
 40
3.599143717043733
 50
323.6338480401778
 51
353.249132588015
 73
     0
 72
     2
 10
260.5344535685162
 20
24.38947133605736
 40
4.947204922052604
 50
354.2770298810863
 51
378.2059310705804
 73
     0
 72
     1
 10
265.234
 20
22.8438
 11
263.625
 21
17.4531
 72
     2
 10
263.7273075445072
 20
12.95029221667385
 40
4.503969889691277
 50
268.6984160956139
 51
293.8297095725088
 73
     0
 72
     2
 10
264.1088518128528
 20
13.99010567194967
 40
3.399392196665189
 50
295.0279540174206
 51
325.3698795161243
 73
     0
 72
     2
 10
263.9813797169811
 20
13.7689471698113
 40
3.631612546633105
 50
323.6414386917073
 51
353.0100045808047
 73
     0
 72
     2
 10
262.6410809748428
 20
13.69219323899374
 40
4.972049966490218
 50
354.0117489230561
 51
377.8043681066736
 73
     0
 72
     1
 10
267.375
 20
12.1719
 11
264.172
 21
1.5
 72
     2
 10
264.0748550805932
 20
6.043535128949113
 40
4.544573533717019
 50
88.7751506689374
 51
113.840156468645
 73
     0
 72
     2
 10
263.743649032882
 20
5.113411460348177
 40
3.560690493500157
 50
115.014847460554
 51
144.5231622016
 73
     0
 72
     2
 10
263.7741914288869
 20
5.120216687279195
 40
3.589532954123742
 50
144.717645098025
 51
174.2054264153533
 73
     0
 72
     2
 10
265.4566794068021
 20
5.209959478798553
 40
5.273100270299678
 50
175.0810516112901
 51
197.8707514371458
 73
     0
 72
     1
 10
260.438
 20
6.82812
 11
261.328
 21
9.79688
 72
     2
 10
259.2710164950635
 20
10.19249806299956
 40
2.094682503710869
 50
349.1132826887073
 51
394.3693559291426
 73
     1
 72
     2
 10
259.4810834771952
 20
10.33295953751064
 40
1.841997754807102
 50
34.45175710241871
 51
93.30157868342512
 73
     1
 72
     1
 10
259.375
 20
12.1719
 11
246.031
 21
12.1719
 72
     1
 10
246.031
 20
12.1719
 11
244.438
 21
6.82812
 72
     2
 10
237.5050425767918
 20
8.945241040955631
 40
7.249006837772658
 50
16.98112805565502
 51
54.45690417628335
 73
     0
 72
     2
 10
236.9006407059962
 20
9.200604581721391
 40
7.815683752161117
 50
51.93909668724806
 51
69.35710607936299
 73
     0
 72
     2
 10
237.4974794487428
 20
7.717362659574491
 40
6.217363170496784
 50
69.68530385067977
 51
89.9767719933543
 73
     0
 72
     1
 10
237.5
 20
1.5
 11
237.5
 21
1.5
 97
        1
330
124
 92
       16
 93
        7
 72
     1
 10
258.297
 20
17.5
 11
259.188
 21
20.4531
 72
     2
 10
257.158785
 20
20.88222500000002
 40
2.074093002218055
 50
348.0593908187519
 51
394.1619926516985
 73
     1
 72
     2
 10
257.3353028452685
 20
20.96435799232734
 40
1.882170164109542
 50
35.1105779741406
 51
93.0852850512271
 73
     1
 72
     1
 10
257.234
 20
22.8438
 11
249.234
 21
22.8438
 72
     1
 10
249.234
 20
22.8438
 11
247.641
 21
17.5
 72
     1
 10
247.641
 20
17.5
 11
258.297
 21
17.5
 72
     1
 10
258.297
 20
17.5
 11
258.297
 21
17.5
 97
        1
330
87
 75
     0
 76
     1
 98
        1
 10
0.0
 20
0.0
1001
ACAD
1010
0.0
1020
0.0
1030
0.0
  0
HATCH
  5
2E3
330
1D
100
AcDbEntity
  8
EMBMOD-HATCH-WHITE
100
AcDbHatch
 10
0.0
 20
0.0
 30
0.0
210
0.0
220
0.0
230
1.0
  2
SOLID
 70
     1
 71
     1
 91
        1
 92
        1
 93
       32
 72
     2
 10
274.7313550805931
 20
6.041285813990947
 40
4.54231406716913
 50
88.78084963239202
 51
113.8458554320996
 73
     0
 72
     2
 10
274.400149032882
 20
5.1153100338491
 40
3.562199772311405
 50
114.9946468150649
 51
144.502961556111
 73
     0
 72
     2
 10
274.4301914288869
 20
5.120216687279195
 40
3.589532954123742
 50
144.717645098025
 51
174.2054264153533
 73
     0
 72
     2
 10
276.1126794068021
 20
5.209959478798553
 40
5.273100270299678
 50
175.0810516112901
 51
197.8707514371458
 73
     0
 72
     1
 10
271.094
 20
6.82812
 11
277.5
 21
28.1719
 72
     1
 10
277.5
 20
28.1719
 11
298.844
 21
28.1719
 72
     1
 10
298.844
 20
28.1719
 11
298.828
 21
28.125
 72
     2
 10
298.9303075445072
 20
23.62219221667385
 40
4.503969889691277
 50
268.6984160956139
 51
293.8297095725088
 73
     0
 72
     2
 10
299.3118518128528
 20
24.66200567194968
 40
3.399392196665189
 50
295.0279540174206
 51
325.3698795161243
 73
     0
 72
     2
 10
299.1843797169811
 20
24.4408471698113
 40
3.631612546633108
 50
323.6414386917073
 51
353.0100045808047
 73
     0
 72
     2
 10
297.8440809748428
 20
24.36409323899374
 40
4.972049966490214
 50
354.0117489230561
 51
377.8043681066736
 73
     0
 72
     1
 10
302.578
 20
22.8438
 11
296.172
 21
1.5
 72
     2
 10
296.0748550805932
 20
6.043535128949113
 40
4.544573533717019
 50
88.7751506689374
 51
113.840156468645
 73
     0
 72
     2
 10
295.743649032882
 20
5.113411460348177
 40
3.560690493500157
 50
115.014847460554
 51
144.5231622016
 73
     0
 72
     2
 10
295.7741914288869
 20
5.120216687279195
 40
3.589532954123742
 50
144.717645098025
 51
174.2054264153533
 73
     0
 72
     2
 10
297.4566794068021
 20
5.209959478798553
 40
5.273100270299678
 50
175.0810516112901
 51
197.8707514371458
 73
     0
 72
     1
 10
292.438
 20
6.82812
 11
296.531
 21
20.4531
 72
     2
 10
294.4457302561428
 20
20.8546075567918
 40
2.12357204323454
 50
349.101380404058
 51
394.1565555710943
 73
     1
 72
     2
 10
294.7508867647059
 20
21.07637463235296
 40
1.746583046225619
 50
33.75693692649303
 51
63.87358838598396
 73
     1
 72
     2
 10
294.6106522636555
 20
20.67554422268915
 40
2.16880154892067
 50
65.21049345328065
 51
91.2854118550518
 73
     1
 72
     1
 10
294.562
 20
22.8438
 11
291.906
 21
22.8438
 72
     1
 10
291.906
 20
22.8438
 11
285.5
 21
1.5
 72
     2
 10
285.4028550805932
 20
6.043535128949117
 40
4.544573533717023
 50
88.77515066893743
 51
113.840156468645
 73
     0
 72
     2
 10
285.071649032882
 20
5.11341146034807
 40
3.560690493500072
 50
115.0148474605551
 51
144.5231622016011
 73
     0
 72
     2
 10
285.102191428887
 20
5.120216687279195
 40
3.589532954123742
 50
144.717645098025
 51
174.2054264153533
 73
     0
 72
     2
 10
286.7846794068021
 20
5.209959478798553
 40
5.273100270299678
 50
175.0810516112901
 51
197.8707514371458
 73
     0
 72
     1
 10
281.766
 20
6.82812
 11
285.859
 21
20.4531
 72
     2
 10
283.7318310057198
 20
20.86412678741664
 40
2.166515855054202
 50
349.063679743643
 51
393.0884671526478
 73
     1
 72
     2
 10
284.0073028452686
 20
20.96435799232734
 40
1.882170164109542
 50
35.1105779741406
 51
93.0852850512271
 73
     1
 72
     1
 10
283.906
 20
22.8438
 11
281.234
 21
22.8438
 72
     1
 10
281.234
 20
22.8438
 11
274.828
 21
1.5
 72
     1
 10
274.828
 20
1.5
 11
274.828
 21
1.5
 97
        1
330
201
 75
     0
 76
     1
 98
        1
 10
0.0
 20
0.0
1001
ACAD
1010
0.0
1020
0.0
1030
0.0
  0
HATCH
  5
2E5
330
1D
100
AcDbEntity
  8
EMBMOD-HATCH-WHITE
100
AcDbHatch
 10
0.0
 20
0.0
 30
0.0
210
0.0
220
0.0
230
1.0
  2
SOLID
 70
     1
 71
     1
 91
        2
 92
        1
 93
       22
 72
     1
 10
306.828
 20
1.5
 11
306.797
 21
1.5
 72
     2
 10
306.7038701278977
 20
5.950114096722669
 40
4.451088478892283
 50
88.80111616756467
 51
114.0909065657555
 73
     0
 72
     2
 10
306.413551648136
 20
5.120926703182901
 40
3.576374271988327
 50
115.2673986479779
 51
144.5543811949396
 73
     0
 72
     2
 10
306.4301914288869
 20
5.120216687279195
 40
3.589532954123742
 50
144.717645098025
 51
174.2054264153533
 73
     0
 72
     2
 10
308.1126794068021
 20
5.209959478798553
 40
5.273100270299678
 50
175.0810516112901
 51
197.8707514371458
 73
     0
 72
     1
 10
303.094
 20
6.82812
 11
307.906
 21
22.8438
 72
     2
 10
314.9177203023758
 20
20.69321036717061
 40
7.334115990873245
 50
197.0514863031818
 51
233.5658533457537
 73
     0
 72
     2
 10
315.4260917370293
 20
20.21754568931453
 40
8.01972614624538
 50
232.6619931955647
 51
249.7627339061478
 73
     0
 72
     2
 10
314.8314509009413
 20
21.72932319632082
 40
6.395677734676542
 50
250.0762464623336
 51
269.9690850481756
 73
     0
 72
     1
 10
314.828
 20
28.125
 11
314.828
 21
28.1719
 72
     1
 10
314.828
 20
28.1719
 11
330.844
 21
28.1719
 72
     1
 10
330.844
 20
28.1719
 11
330.828
 21
28.125
 72
     2
 10
330.9303075445072
 20
23.62219221667385
 40
4.503969889691273
 50
268.6984160956139
 51
293.8297095725088
 73
     0
 72
     2
 10
331.3118518128528
 20
24.66200567194968
 40
3.399392196665189
 50
295.0279540174206
 51
325.3698795161243
 73
     0
 72
     2
 10
331.1843797169811
 20
24.4408471698113
 40
3.631612546633108
 50
323.6414386917073
 51
353.0100045808047
 73
     0
 72
     2
 10
329.8440809748428
 20
24.36409323899374
 40
4.972049966490214
 50
354.0117489230561
 51
377.8043681066736
 73
     0
 72
     1
 10
334.578
 20
22.8438
 11
329.766
 21
6.828119999999998
 72
     2
 10
322.8330425767918
 20
8.94524104095565
 40
7.249006837772687
 50
16.98112805565512
 51
54.45690417628331
 73
     0
 72
     2
 10
322.2675244766817
 20
9.103301687979219
 40
7.715155859775217
 50
51.72097002282423
 51
69.28918675008815
 73
     0
 72
     2
 10
322.8433207801418
 20
7.684810354609903
 40
6.184810391906083
 50
69.63135628462264
 51
89.99370774060213
 73
     0
 72
     1
 10
322.844
 20
1.5
 11
306.828
 21
1.5
 72
     1
 10
306.828
 20
1.5
 11
306.828
 21
1.5
 97
        1
330
EF
 92
       16
 93
       15
 72
     2
 10
321.7074001116072
 20
10.33315688616069
 40
3.505526710819168
 50
270.9578254431162
 51
308.1948576227224
 73
     1
 72
     2
 10
321.3814074141984
 20
10.85860243300427
 40
4.120627255311286
 50
307.2395492447129
 51
335.8368491688082
 73
     1
 72
     1
 10
325.141
 20
9.17188
 11
328.531
 21
20.4531
 72
     2
 10
326.4457302561428
 20
20.8546075567918
 40
2.12357204323454
 50
349.101380404058
 51
394.1565555710943
 73
     1
 72
     2
 10
326.7508867647059
 20
21.07637463235296
 40
1.746583046225619
 50
33.75693692649303
 51
63.87358838598396
 73
     1
 72
     2
 10
326.6106522636554
 20
20.67554422268868
 40
2.168801548921135
 50
65.2104934532835
 51
91.28541185504893
 73
     1
 72
     1
 10
326.562
 20
22.8438
 11
315.906
 21
22.8438
 72
     2
 10
315.966585523897
 20
19.36492536764705
 40
3.47940214883747
 50
90.9977203295679
 51
129.5728873470491
 73
     1
 72
     2
 10
315.940007100432
 20
19.07667413606915
 40
3.690307952286124
 50
126.4020961078917
 51
158.1002328677979
 73
     1
 72
     1
 10
312.516
 20
20.4531
 11
309.141
 21
9.17188
 72
     2
 10
311.012804366681
 20
8.664200166380406
 40
1.939430432005742
 50
164.8250354506023
 51
214.0557665222663
 73
     1
 72
     2
 10
310.820244140625
 20
8.625064010416619
 40
1.759596047460707
 50
216.5119985558958
 51
246.1584463792231
 73
     1
 72
     2
 10
311.041685546875
 20
9.234311406250036
 40
2.406760039039475
 50
247.1992635262285
 51
271.245505744304
 73
     1
 72
     1
 10
311.094
 20
6.82812
 11
321.766
 21
6.82812
 72
     1
 10
321.766
 20
6.82812
 11
321.766
 21
6.82812
 97
        1
330
52
 75
     0
 76
     1
 98
        1
 10
0.0
 20
0.0
1001
ACAD
1010
0.0
1020
0.0
1030
0.0
  0
HATCH
  5
2EB
330
1D
100
AcDbEntity
  8
EMBMOD-HATCH-WHITE
100
AcDbHatch
 10
0.0
 20
0.0
 30
0.0
210
0.0
220
0.0
230
1.0
  2
SOLID
 70
     1
 71
     1
 91
        1
 92
        1
 93
       10
 72
     2
 10
412.9177203023758
 20
20.69321036717061
 40
7.334115990873245
 50
197.0514863031818
 51
233.5658533457537
 73
     0
 72
     2
 10
413.4260917370293
 20
20.21754568931453
 40
8.01972614624538
 50
232.6619931955647
 51
249.7627339061478
 73
     0
 72
     2
 10
412.8314509009413
 20
21.72932319632082
 40
6.395677734676542
 50
250.0762464623336
 51
269.9690850481756
 73
     0
 72
     1
 10
412.828
 20
28.125
 11
412.828
 21
28.1719
 72
     1
 10
412.828
 20
28.1719
 11
434.172
 21
28.1719
 72
     2
 10
427.1664892949442
 20
30.31661761227501
 40
7.326458481084447
 50
17.02182316127795
 51
54.1918752501881
 73
     0
 72
     2
 10
426.6531839882762
 20
30.56786601896062
 40
7.835165810319359
 50
52.22232246993354
 51
69.54774740492353
 73
     0
 72
     2
 10
427.2325298632219
 20
29.12061166413384
 40
6.276811836299442
 50
69.88655740289845
 51
89.98658034753015
 73
     0
 72
     1
 10
427.234
 20
22.8438
 11
405.906
 21
22.8438
 72
     1
 10
405.906
 20
22.8438
 11
405.906
 21
22.8438
 97
        1
330
7B
 75
     0
 76
     1
 98
        1
 10
0.0
 20
0.0
1001
ACAD
1010
0.0
1020
0.0
1030
0.0
  0
HATCH
  5
2ED
330
1D
100
AcDbEntity
  8
EMBMOD-HATCH-WHITE
100
AcDbHatch
 10
0.0
 20
0.0
 30
0.0
210
0.0
220
0.0
230
1.0
  2
SOLID
 70
     1
 71
     1
 91
        1
 92
        1
 93
       10
 72
     2
 10
409.6854981558691
 20
10.02358184733799
 40
7.305515134593413
 50
197.1016584032607
 51
233.8406194390704
 73
     0
 72
     2
 10
410.2000126221615
 20
9.645408403995493
 40
7.916760294383884
 50
232.4489490616414
 51
249.696865261863
 73
     0
 72
     2
 10
409.6266040924116
 20
11.09065483615973
 40
6.362445366051236
 50
250.023768338607
 51
269.9855546537817
 73
     0
 72
     1
 10
409.625
 20
17.4531
 11
409.641
 21
17.5
 72
     1
 10
409.641
 20
17.5
 11
430.969
 21
17.5
 72
     2
 10
423.9634892949442
 20
19.64471761227492
 40
7.326458481084394
 50
17.0218231612774
 51
54.19187525018755
 73
     0
 72
     2
 10
423.5021040457028
 20
19.78634835081919
 40
7.716762694976183
 50
52.02842666092156
 51
69.57585138071168
 73
     0
 72
     2
 10
424.0330740514516
 20
18.46821053463637
 40
6.296310876240335
 50
69.91804502773795
 51
90.01887365461337
 73
     0
 72
     1
 10
424.031
 20
12.1719
 11
402.703
 21
12.1719
 72
     1
 10
402.703
 20
12.1719
 11
402.703
 21
12.1719
 97
        1
330
1AF
 75
     0
 76
     1
 98
        1
 10
0.0
 20
0.0
1001
ACAD
1010
0.0
1020
0.0
1030
0.0
  0
HATCH
  5
2EF
330
1D
100
AcDbEntity
  8
EMBMOD-HATCH-WHITE
100
AcDbHatch
 10
0.0
 20
0.0
 30
0.0
210
0.0
220
0.0
230
1.0
  2
SOLID
 70
     1
 71
     1
 91
        1
 92
        1
 93
       10
 72
     2
 10
406.4824981558692
 20
-0.6483181526620063
 40
7.305515134593413
 50
197.1016584032607
 51
233.8406194390704
 73
     0
 72
     2
 10
407.0681722576832
 20
-1.098031061859603
 40
8.016857310644927
 50
232.357360663155
 51
249.4800867639413
 73
     0
 72
     2
 10
406.42821879755
 20
0.51408713410689
 40
6.282795943619395
 50
249.7924138981267
 51
269.9432878427635
 73
     0
 72
     1
 10
406.422
 20
6.79688
 11
406.438
 21
6.82812
 72
     1
 10
406.438
 20
6.82812
 11
427.766
 21
6.82812
 72
     2
 10
420.8330425767918
 20
8.94524104095565
 40
7.249006837772687
 50
16.98112805565512
 51
54.45690417628331
 73
     0
 72
     2
 10
420.2675244766817
 20
9.103301687979219
 40
7.715155859775217
 50
51.72097002282423
 51
69.28918675008815
 73
     0
 72
     2
 10
420.8433207801418
 20
7.684810354609903
 40
6.184810391906083
 50
69.63135628462264
 51
89.99370774060213
 73
     0
 72
     1
 10
420.844
 20
1.5
 11
399.5
 21
1.5
 72
     1
 10
399.5
 20
1.5
 11
399.5
 21
1.5
 97
        1
330
172
 75
     0
 76
     1
 98
        1
 10
0.0
 20
0.0
1001
ACAD
1010
0.0
1020
0.0
1030
0.0
  0
HATCH
  5
2F1
330
1D
100
AcDbEntity
  8
EMBMOD-HATCH-WHITE
100
AcDbHatch
 10
0.0
 20
0.0
 30
0.0
210
0.0
220
0.0
230
1.0
  2
SOLID
 70
     1
 71
     1
 91
        2
 92
        1
 93
       26
 72
     1
 10
431.5
 20
1.5
 11
439.5
 21
28.1719
 72
     1
 10
439.5
 20
28.1719
 11
455.5
 21
28.1719
 72
     1
 10
455.5
 20
28.1719
 11
455.484
 21
28.125
 72
     2
 10
455.5882979564889
 20
23.57501653043253
 40
4.551178708539689
 50
268.6868553655159
 51
293.7050304964217
 73
     0
 72
     2
 10
455.989948885276
 20
24.6642398385851
 40
3.393106061048175
 50
294.889425276308
 51
325.3424151158423
 73
     0
 72
     2
 10
455.88281030736
 20
24.45971190401835
 40
3.599143717043733
 50
323.6338480401778
 51
353.249132588015
 73
     0
 72
     2
 10
454.5344535685162
 20
24.38947133605736
 40
4.947204922052604
 50
354.2770298810863
 51
378.2059310705804
 73
     0
 72
     1
 10
459.234
 20
22.8438
 11
457.625
 21
17.4531
 72
     2
 10
457.7273075445072
 20
12.95029221667385
 40
4.503969889691277
 50
268.6984160956139
 51
293.8297095725088
 73
     0
 72
     2
 10
458.1088518128528
 20
13.99010567194967
 40
3.399392196665189
 50
295.0279540174206
 51
325.3698795161243
 73
     0
 72
     2
 10
457.9813797169811
 20
13.7689471698113
 40
3.631612546633105
 50
323.6414386917073
 51
353.0100045808047
 73
     0
 72
     2
 10
456.6410809748428
 20
13.69219323899374
 40
4.972049966490218
 50
354.0117489230561
 51
377.8043681066736
 73
     0
 72
     1
 10
461.375
 20
12.1719
 11
458.172
 21
1.5
 72
     2
 10
458.0748550805932
 20
6.043535128949113
 40
4.544573533717019
 50
88.7751506689374
 51
113.840156468645
 73
     0
 72
     2
 10
457.743649032882
 20
5.113411460348177
 40
3.560690493500157
 50
115.014847460554
 51
144.5231622016
 73
     0
 72
     2
 10
457.7741914288869
 20
5.120216687279195
 40
3.589532954123742
 50
144.717645098025
 51
174.2054264153533
 73
     0
 72
     2
 10
459.4566794068021
 20
5.209959478798553
 40
5.273100270299678
 50
175.0810516112901
 51
197.8707514371458
 73
     0
 72
     1
 10
454.438
 20
6.82812
 11
455.328
 21
9.79688
 72
     2
 10
453.2710164950635
 20
10.19249806299956
 40
2.094682503710869
 50
349.1132826887073
 51
394.3693559291426
 73
     1
 72
     2
 10
453.4810834771952
 20
10.33295953751064
 40
1.841997754807102
 50
34.45175710241871
 51
93.30157868342512
 73
     1
 72
     1
 10
453.375
 20
12.1719
 11
440.031
 21
12.1719
 72
     1
 10
440.031
 20
12.1719
 11
438.438
 21
6.82812
 72
     2
 10
431.5050425767918
 20
8.94524104095565
 40
7.249006837772687
 50
16.98112805565512
 51
54.45690417628331
 73
     0
 72
     2
 10
430.9006407059962
 20
9.200604581721375
 40
7.815683752161099
 50
51.93909668724801
 51
69.35710607936299
 73
     0
 72
     2
 10
431.4974794487428
 20
7.717362659574484
 40
6.217363170496778
 50
69.68530385067977
 51
89.97677199335433
 73
     0
 72
     1
 10
431.5
 20
1.5
 11
431.5
 21
1.5
 97
        1
330
18A
 92
       16
 93
        7
 72
     1
 10
452.297
 20
17.5
 11
453.188
 21
20.4531
 72
     2
 10
451.158785
 20
20.88222500000002
 40
2.074093002218055
 50
348.0593908187519
 51
394.1619926516985
 73
     1
 72
     2
 10
451.3353028452685
 20
20.96435799232734
 40
1.882170164109542
 50
35.1105779741406
 51
93.0852850512271
 73
     1
 72
     1
 10
451.234
 20
22.8438
 11
443.234
 21
22.8438
 72
     1
 10
443.234
 20
22.8438
 11
441.641
 21
17.5
 72
     1
 10
441.641
 20
17.5
 11
452.297
 21
17.5
 72
     1
 10
452.297
 20
17.5
 11
452.297
 21
17.5
 97
        1
330
90
 75
     0
 76
     1
 98
        1
 10
0.0
 20
0.0
1001
ACAD
1010
0.0
1020
0.0
1030
0.0
  0
HATCH
  5
310
330
1D
100
AcDbEntity
  8
EMBMOD-HATCH-BLUE
100
AcDbHatch
 10
0.0
 20
0.0
 30
0.0
210
0.0
220
0.0
230
1.0
  2
SOLID
 70
     1
 71
     1
 91
        2
 92
        7
 72
     1
 73
     1
 93
       20
 10
200.7659999999997
 20
6.828119999999162
 42
0.0
 10
205.5780000000002
 20
22.84380000000058
 42
0.1041894565005135
 10
205.7889999999999
 20
24.88280000000078
 42
0.1288506024215691
 10
205.1090000000002
 20
26.59379999999981
 42
0.1331705870515761
 10
203.7500000000004
 20
27.74219999999983
 42
0.1100975951465864
 10
201.828
 20
28.125
 42
0.0
 10
201.844
 20
28.1719
 42
0.0
 10
180.5
 20
28.1719
 42
0.0996879727837176
 10
180.2659999999999
 20
26.09770000000112
 42
0.1282261065366161
 10
180.9060000000004
 20
24.37499999999942
 42
0.1277551328465218
 10
182.2889999999999
 20
23.22660000000006
 42
0.110268336027408
 10
184.188
 20
22.8438
 42
0.0
 10
184.234
 20
22.8438
 42
0.0
 10
179.422
 20
6.79688
 42
0.0881520524954473
 10
177.258
 20
6.410159999999981
 42
0.0748513090636812
 10
175.1719999999998
 20
5.249999999999822
 42
0.1616913505935862
 10
172.5
 20
1.5
 42
0.0
 10
193.8440000000047
 20
1.5
 42
0.089082043573318
 10
195.996
 20
1.886720000000003
 42
0.0768063062014353
 10
198.047
 20
3.046879999999995
 42
0.1649920923706588
 97
        1
330
D8
 92
       22
 72
     1
 73
     1
 93
        9
 10
184.766
 20
6.828119999999998
 42
0.0
 10
189.562
 20
22.8438
 42
0.0
 10
197.562
 20
22.8438
 42
-0.1142667573484347
 10
198.5200000000001
 20
22.64449999999996
 42
-0.1321703423174213
 10
199.2029999999991
 20
22.04690000000139
 42
-0.1991626518830767
 10
199.531
 20
20.45310000000009
 42
0.0
 10
196.141
 20
9.171880000000073
 42
-0.1254309176970348
 10
194.8749999999999
 20
7.578119999999966
 42
-0.1639222008854046
 10
192.766
 20
6.82812
 42
0.0
 97
        1
330
2F
 75
     0
 76
     1
 47
0.0
 98
        2
 10
183.9446856565985
 20
14.83958936557154
 10
183.9446856565985
 20
14.83958936557154
1001
ACAD
1010
0.0
1020
0.0
1030
0.0
  0
HATCH
  5
313
330
1D
100
AcDbEntity
  8
EMBMOD-HATCH-WHITE
100
AcDbHatch
 10
0.0
 20
0.0
 30
0.0
210
0.0
220
0.0
230
1.0
  2
SOLID
 70
     1
 71
     1
 91
        2
 92
        7
 72
     1
 73
     1
 93
       20
 10
361.766
 20
6.828119999999744
 42
0.0
 10
366.5780000000001
 20
22.84380000000025
 42
0.1041894565004824
 10
366.789
 20
24.88279999999999
 42
0.1288506024216589
 10
366.1089999999997
 20
26.59380000000041
 42
0.1331705870515661
 10
364.7499999999994
 20
27.74220000000027
 42
0.1100975951465357
 10
362.828
 20
28.125
 42
0.0
 10
362.8439999999999
 20
28.1719
 42
0.0
 10
341.5
 20
28.1719
 42
0.0996879727837244
 10
341.266
 20
26.09770000000011
 42
0.1282261065365036
 10
341.9060000000005
 20
24.37499999999924
 42
0.1277551328465127
 10
343.2889999999999
 20
23.22660000000005
 42
0.1102683360273916
 10
345.1879999999999
 20
22.8438
 42
0.0
 10
345.234
 20
22.8438
 42
0.0
 10
340.422
 20
6.79688
 42
0.0881520524954394
 10
338.2579999999999
 20
6.41015999999997
 42
0.0748513090636311
 10
336.1720000000005
 20
5.250000000000332
 42
0.1616913505936196
 10
333.5
 20
1.5
 42
0.0
 10
354.8440000000047
 20
1.5
 42
0.0890820435733313
 10
356.9960000000003
 20
1.886720000000109
 42
0.0768063062014334
 10
359.047
 20
3.04688000000001
 42
0.1649920923706692
 97
        1
330
223
 92
       22
 72
     1
 73
     1
 93
        9
 10
345.766
 20
6.828119999999998
 42
0.0
 10
350.562
 20
22.8438
 42
0.0
 10
358.562
 20
22.8438
 42
-0.1142667573484106
 10
359.5199999999998
 20
22.64450000000011
 42
-0.1321703423180824
 10
360.2030000000015
 20
22.04689999999782
 42
-0.1991626518825999
 10
360.5309999999998
 20
20.45309999999976
 42
0.0
 10
357.141
 20
9.171879999999838
 42
-0.125430917697115
 10
355.8749999999995
 20
7.578119999999654
 42
-0.1639222008853836
 10
353.766
 20
6.82812
 42
0.0
 97
        1
330
140
 75
     0
 76
     1
 47
0.0
 98
        2
 10
345.1970531598748
 20
16.91948678971268
 10
345.1970531598748
 20
16.91948678971268
1001
ACAD
1010
0.0
1020
0.0
1030
0.0
  0
HATCH
  5
315
330
1D
100
AcDbEntity
  8
EMBMOD-HATCH-WHITE
100
AcDbHatch
 10
0.0
 20
0.0
 30
0.0
210
0.0
220
0.0
230
1.0
  2
SOLID
 70
     1
 71
     1
 91
        2
 92
        7
 72
     1
 73
     1
 93
       20
 10
394.766
 20
6.828119999999744
 42
0.0
 10
399.5780000000001
 20
22.84380000000025
 42
0.1041894565004824
 10
399.789
 20
24.88279999999999
 42
0.1288506024216748
 10
399.1089999999996
 20
26.59380000000046
 42
0.1331705870515563
 10
397.7499999999993
 20
27.7422000000003
 42
0.1100975951465281
 10
395.828
 20
28.125
 42
0.0
 10
395.8439999999999
 20
28.1719
 42
0.0
 10
374.5
 20
28.1719
 42
0.0996879727837244
 10
374.266
 20
26.09770000000011
 42
0.1282261065365253
 10
374.9060000000005
 20
24.37499999999932
 42
0.1277551328465361
 10
376.289
 20
23.22660000000002
 42
0.1102683360273982
 10
378.188
 20
22.8438
 42
0.0
 10
378.234
 20
22.8438
 42
0.0
 10
373.422
 20
6.79688
 42
0.0881520524954394
 10
371.2579999999999
 20
6.41015999999997
 42
0.0748513090636311
 10
369.1720000000005
 20
5.250000000000332
 42
0.1616913505936196
 10
366.5
 20
1.5
 42
0.0
 10
387.8440000000047
 20
1.5
 42
0.0890820435733396
 10
389.9960000000005
 20
1.88672000000019
 42
0.0768063062014236
 10
392.0470000000001
 20
3.046880000000037
 42
0.1649920923706779
 97
        1
330
C1
 92
       22
 72
     1
 73
     1
 93
        9
 10
378.766
 20
6.828119999999998
 42
0.0
 10
383.562
 20
22.8438
 42
0.0
 10
391.562
 20
22.8438
 42
-0.1142667573484106
 10
392.5199999999998
 20
22.64450000000011
 42
-0.1321703423180824
 10
393.2030000000015
 20
22.04689999999782
 42
-0.1991626518825999
 10
393.5309999999998
 20
20.45309999999976
 42
0.0
 10
390.141
 20
9.171879999999838
 42
-0.125430917697115
 10
388.8749999999995
 20
7.578119999999654
 42
-0.1639222008853836
 10
386.766
 20
6.82812
 42
0.0
 97
        1
330
3B
 75
     0
 76
     1
 47
0.0
 98
        2
 10
377.7509641170663
 20
12.42551254983103
 10
377.7509641170663
 20
12.42551254983103
1001
ACAD
1010
0.0
1020
0.0
1030
0.0
  0
ENDSEC
  0
SECTION
  2
OBJECTS
  0
DICTIONARY
  5
C
330
0
100
AcDbDictionary
281
     1
  3
ACAD_GROUP
350
D
  3
ACAD_IMAGE_VARS
350
285
  3
ACAD_LAYOUT
350
1A
  3
ACAD_MLINESTYLE
350
17
  3
ACAD_PLOTSETTINGS
350
19
  3
ACAD_PLOTSTYLENAME
350
E
  3
ACAD_SCALELIST
350
24B
  3
AcDbVariableDictionary
350
2A8
  3
APPDATA
350
284
  3
DWGPROPS
350
317
  0
DICTIONARY
  5
286
330
2
100
AcDbDictionary
280
     1
281
     1
  3
ACAD_LAYERSTATES
360
287
  3
ACLYDICTIONARY
360
2C5
  0
DICTIONARY
  5
D
102
{ACAD_REACTORS
330
C
102
}
330
C
100
AcDbDictionary
281
     1
  0
RASTERVARIABLES
  5
285
102
{ACAD_REACTORS
330
C
102
}
330
C
100
AcDbRasterVariables
 90
        0
 70
     1
 71
     1
 72
     0
  0
DICTIONARY
  5
1A
102
{ACAD_REACTORS
330
C
102
}
330
C
100
AcDbDictionary
281
     1
  3
Model
350
1E
  3
Sheet 1
350
1C
  0
DICTIONARY
  5
17
102
{ACAD_REACTORS
330
C
102
}
330
C
100
AcDbDictionary
281
     1
  3
Standard
350
18
  0
DICTIONARY
  5
19
102
{ACAD_REACTORS
330
C
102
}
330
C
100
AcDbDictionary
281
     1
  0
ACDBDICTIONARYWDFLT
  5
E
102
{ACAD_REACTORS
330
C
102
}
330
C
100
AcDbDictionary
281
     1
  3
Normal
350
F
100
AcDbDictionaryWithDefault
340
F
  0
DICTIONARY
  5
24B
102
{ACAD_REACTORS
330
C
102
}
330
C
100
AcDbDictionary
281
     1
  3
A0
350
24C
  3
A1
350
24D
  3
A2
350
24E
  3
A3
350
24F
  3
A4
350
250
  3
A5
350
251
  3
A6
350
252
  3
A7
350
253
  3
A8
350
254
  3
A9
350
255
  3
B0
350
256
  3
B1
350
257
  3
B2
350
258
  3
B3
350
259
  3
B4
350
25A
  3
B5
350
25B
  3
B6
350
25C
  3
B7
350
25D
  3
B8
350
25E
  3
B9
350
25F
  3
C0
350
260
  3
C1
350
261
  3
C2
350
262
  3
C3
350
263
  3
C4
350
264
  3
C5
350
265
  3
C6
350
266
  3
C7
350
267
  3
C8
350
268
  3
C9
350
269
  3
D0
350
26A
  3
D1
350
26B
  3
D2
350
26C
  0
DICTIONARY
  5
2A8
102
{ACAD_REACTORS
330
C
102
}
330
C
100
AcDbDictionary
281
     1
  3
CANNOSCALE
350
318
  0
DICTIONARY
  5
284
102
{ACAD_REACTORS
330
C
102
}
330
C
100
AcDbDictionary
281
     1
  0
XRECORD
  5
317
102
{ACAD_REACTORS
330
C
102
}
330
C
100
AcDbXrecord
280
     1
  1
DWGPROPS COOKIE
  2

  3

  4

  6

  7

  8

  9

300
=
301
=
302
=
303
=
304
=
305
=
306
=
307
=
308
=
309
=
 40
0.0
 41
2456514.124725521
 42
2456514.150289352
  1

 90
        0
  0
DICTIONARY
  5
287
102
{ACAD_REACTORS
330
286
102
}
330
286
100
AcDbDictionary
281
     1
  3
ARGON_LAYERP_1
350
288
  3
ARGON_LAYERP_10
350
311
  3
ARGON_LAYERP_2
350
28F
  3
ARGON_LAYERP_3
350
29F
  3
ARGON_LAYERP_4
350
2A4
  3
ARGON_LAYERP_5
350
2C3
  3
ARGON_LAYERP_6
350
2C6
  3
ARGON_LAYERP_7
350
2E1
  3
ARGON_LAYERP_8
350
2F3
  3
ARGON_LAYERP_9
350
30E
  0
DICTIONARY
  5
2C5
102
{ACAD_REACTORS
330
286
102
}
330
286
100
AcDbDictionary
281
     1
1001
ACAD
1000
<All
  0
LAYOUT
  5
1E
102
{ACAD_REACTORS
330
1A
102
}
330
1A
100
AcDbPlotSettings
  1

  2
none_device
  4

  6

 40
0.0
 41
0.0
 42
0.0
 43
0.0
 44
0.0
 45
0.0
 46
0.0
 47
0.0
 48
0.0
 49
0.0
140
0.0
141
0.0
142
1.0
143
1.0
 70
  1712
 72
     0
 73
     0
 74
     0
  7

 75
     0
147
1.0
148
0.0
149
0.0
100
AcDbLayout
  1
Model
 70
     1
 71
     0
 10
0.0
 20
0.0
 11
12.0
 21
9.0
 12
0.0
 22
0.0
 32
0.0
 14
0.5
 24
1.499999999999999
 34
0.0
 15
461.586
 25
28.1719
 35
0.0
146
0.0
 13
0.0
 23
0.0
 33
0.0
 16
1.0
 26
0.0
 36
0.0
 17
0.0
 27
1.0
 37
0.0
 76
     0
330
1D
331
22
  0
LAYOUT
  5
1C
102
{ACAD_REACTORS
330
1A
102
}
330
1A
100
AcDbPlotSettings
  1

  2
none_device
  4

  6

 40
0.0
 41
0.0
 42
0.0
 43
0.0
 44
0.0
 45
0.0
 46
0.0
 47
0.0
 48
0.0
 49
0.0
140
0.0
141
0.0
142
1.0
143
1.0
 70
   688
 72
     0
 73
     0
 74
     5
  7

 75
    16
147
1.0
148
0.0
149
0.0
100
AcDbLayout
  1
Sheet 1
 70
     1
 71
     1
 10
0.0
 20
0.0
 11
0.0
 21
0.0
 12
0.0
 22
0.0
 32
0.0
 14
1.000000000000000E+20
 24
1.000000000000000E+20
 34
1.000000000000000E+20
 15
-1.000000000000000E+20
 25
-1.000000000000000E+20
 35
-1.000000000000000E+20
146
0.0
 13
0.0
 23
0.0
 33
0.0
 16
1.0
 26
0.0
 36
0.0
 17
0.0
 27
1.0
 37
0.0
 76
     0
330
1B
  0
MLINESTYLE
  5
18
102
{ACAD_REACTORS
330
17
102
}
330
17
100
AcDbMlineStyle
  2
Standard
 70
     0
  3

 62
   256
 51
90.0
 52
90.0
 71
     2
 49
0.5
 62
   256
  6
BYLAYER
 49
-0.5
 62
   256
  6
BYLAYER
  0
ACDBPLACEHOLDER
  5
F
102
{ACAD_REACTORS
330
E
102
}
330
E
  0
SCALE
  5
24C
102
{ACAD_REACTORS
330
24B
102
}
330
24B
100
AcDbScale
 70
     0
300
1:1
140
1.0
141
1.0
290
     1
  0
SCALE
  5
24D
102
{ACAD_REACTORS
330
24B
102
}
330
24B
100
AcDbScale
 70
     0
300
1:2
140
1.0
141
2.0
290
     0
  0
SCALE
  5
24E
102
{ACAD_REACTORS
330
24B
102
}
330
24B
100
AcDbScale
 70
     0
300
1:4
140
1.0
141
4.0
290
     0
  0
SCALE
  5
24F
102
{ACAD_REACTORS
330
24B
102
}
330
24B
100
AcDbScale
 70
     0
300
1:5
140
1.0
141
5.0
290
     0
  0
SCALE
  5
250
102
{ACAD_REACTORS
330
24B
102
}
330
24B
100
AcDbScale
 70
     0
300
1:8
140
1.0
141
8.0
290
     0
  0
SCALE
  5
251
102
{ACAD_REACTORS
330
24B
102
}
330
24B
100
AcDbScale
 70
     0
300
1:10
140
1.0
141
10.0
290
     0
  0
SCALE
  5
252
102
{ACAD_REACTORS
330
24B
102
}
330
24B
100
AcDbScale
 70
     0
300
1:16
140
1.0
141
16.0
290
     0
  0
SCALE
  5
253
102
{ACAD_REACTORS
330
24B
102
}
330
24B
100
AcDbScale
 70
     0
300
1:20
140
1.0
141
20.0
290
     0
  0
SCALE
  5
254
102
{ACAD_REACTORS
330
24B
102
}
330
24B
100
AcDbScale
 70
     0
300
1:30
140
1.0
141
30.0
290
     0
  0
SCALE
  5
255
102
{ACAD_REACTORS
330
24B
102
}
330
24B
100
AcDbScale
 70
     0
300
1:40
140
1.0
141
40.0
290
     0
  0
SCALE
  5
256
102
{ACAD_REACTORS
330
24B
102
}
330
24B
100
AcDbScale
 70
     0
300
1:50
140
1.0
141
50.0
290
     0
  0
SCALE
  5
257
102
{ACAD_REACTORS
330
24B
102
}
330
24B
100
AcDbScale
 70
     0
300
1:100
140
1.0
141
100.0
290
     0
  0
SCALE
  5
258
102
{ACAD_REACTORS
330
24B
102
}
330
24B
100
AcDbScale
 70
     0
300
2:1
140
2.0
141
1.0
290
     0
  0
SCALE
  5
259
102
{ACAD_REACTORS
330
24B
102
}
330
24B
100
AcDbScale
 70
     0
300
4:1
140
4.0
141
1.0
290
     0
  0
SCALE
  5
25A
102
{ACAD_REACTORS
330
24B
102
}
330
24B
100
AcDbScale
 70
     0
300
8:1
140
8.0
141
1.0
290
     0
  0
SCALE
  5
25B
102
{ACAD_REACTORS
330
24B
102
}
330
24B
100
AcDbScale
 70
     0
300
10:1
140
10.0
141
1.0
290
     0
  0
SCALE
  5
25C
102
{ACAD_REACTORS
330
24B
102
}
330
24B
100
AcDbScale
 70
     0
300
100:1
140
100.0
141
1.0
290
     0
  0
SCALE
  5
25D
102
{ACAD_REACTORS
330
24B
102
}
330
24B
100
AcDbScale
 70
     0
300
1/128" = 1'-0"
140
0.0078125
141
12.0
290
     0
  0
SCALE
  5
25E
102
{ACAD_REACTORS
330
24B
102
}
330
24B
100
AcDbScale
 70
     0
300
1/64" = 1'-0"
140
0.015625
141
12.0
290
     0
  0
SCALE
  5
25F
102
{ACAD_REACTORS
330
24B
102
}
330
24B
100
AcDbScale
 70
     0
300
1/32" = 1'-0"
140
0.03125
141
12.0
290
     0
  0
SCALE
  5
260
102
{ACAD_REACTORS
330
24B
102
}
330
24B
100
AcDbScale
 70
     0
300
1/16" = 1'-0"
140
0.0625
141
12.0
290
     0
  0
SCALE
  5
261
102
{ACAD_REACTORS
330
24B
102
}
330
24B
100
AcDbScale
 70
     0
300
3/32" = 1'-0"
140
0.09375
141
12.0
290
     0
  0
SCALE
  5
262
102
{ACAD_REACTORS
330
24B
102
}
330
24B
100
AcDbScale
 70
     0
300
1/8" = 1'-0"
140
0.125
141
12.0
290
     0
  0
SCALE
  5
263
102
{ACAD_REACTORS
330
24B
102
}
330
24B
100
AcDbScale
 70
     0
300
3/16" = 1'-0"
140
0.1875
141
12.0
290
     0
  0
SCALE
  5
264
102
{ACAD_REACTORS
330
24B
102
}
330
24B
100
AcDbScale
 70
     0
300
1/4" = 1'-0"
140
0.25
141
12.0
290
     0
  0
SCALE
  5
265
102
{ACAD_REACTORS
330
24B
102
}
330
24B
100
AcDbScale
 70
     0
300
3/8" = 1'-0"
140
0.375
141
12.0
290
     0
  0
SCALE
  5
266
102
{ACAD_REACTORS
330
24B
102
}
330
24B
100
AcDbScale
 70
     0
300
1/2" = 1'-0"
140
0.5
141
12.0
290
     0
  0
SCALE
  5
267
102
{ACAD_REACTORS
330
24B
102
}
330
24B
100
AcDbScale
 70
     0
300
3/4" = 1'-0"
140
0.75
141
12.0
290
     0
  0
SCALE
  5
268
102
{ACAD_REACTORS
330
24B
102
}
330
24B
100
AcDbScale
 70
     0
300
1" = 1'-0"
140
1.0
141
12.0
290
     0
  0
SCALE
  5
269
102
{ACAD_REACTORS
330
24B
102
}
330
24B
100
AcDbScale
 70
     0
300
1-1/2" = 1'-0"
140
1.5
141
12.0
290
     0
  0
SCALE
  5
26A
102
{ACAD_REACTORS
330
24B
102
}
330
24B
100
AcDbScale
 70
     0
300
3" = 1'-0"
140
3.0
141
12.0
290
     0
  0
SCALE
  5
26B
102
{ACAD_REACTORS
330
24B
102
}
330
24B
100
AcDbScale
 70
     0
300
6" = 1'-0"
140
6.0
141
12.0
290
     0
  0
SCALE
  5
26C
102
{ACAD_REACTORS
330
24B
102
}
330
24B
100
AcDbScale
 70
     0
300
1'-0" = 1'-0"
140
12.0
141
12.0
290
     0
  0
DICTIONARYVAR
  5
318
102
{ACAD_REACTORS
330
2A8
102
}
330
2A8
100
DictionaryVariables
280
     0
  1
1:1
  0
XRECORD
  5
288
102
{ACAD_REACTORS
330
287
102
}
330
287
100
AcDbXrecord
280
     1
 91
     1023
301

290
     0
302
EMBMOD-POLYLINE
330
10
 90
        8
 62
     7
370
    -3
331
16
  1
Color_7
330
21
 90
        8
 62
     5
370
    -3
331
16
  1
Color_5
  0
XRECORD
  5
311
102
{ACAD_REACTORS
330
287
102
}
330
287
100
AcDbXrecord
280
     1
 91
     1023
301

290
     0
302
EMBMOD-HATCH-BLUE
330
10
 90
        8
 62
     7
370
    -3
331
16
  1
Color_7
330
21
 90
        8
 62
   250
370
    -3
331
16
  1
Color_250
330
2A0
 90
        8
 62
   146
370
    -3
331
16
  1
Color_146
330
2C4
 90
        8
 62
     7
370
    -3
331
16
  1
Color_7
  0
XRECORD
  5
28F
102
{ACAD_REACTORS
330
287
102
}
330
287
100
AcDbXrecord
280
     1
 91
     1023
301

290
     0
302
EMBMOD-POLYLINE
330
10
 90
        8
 62
     7
370
    -3
331
16
  1
Color_7
330
21
 90
        8
 62
     5
370
    -3
331
16
  1
Color_5
330
0
 90
        8
 62
     4
370
    -3
331
16
  1
Color_4
  0
XRECORD
  5
29F
102
{ACAD_REACTORS
330
287
102
}
330
287
100
AcDbXrecord
280
     1
 91
     1023
301

290
     0
302
EMBMOD-POLYLINE
330
10
 90
        8
 62
     7
370
    -3
331
16
  1
Color_7
330
21
 90
        8
 62
     7
370
    -3
331
16
  1
Color_7
  0
XRECORD
  5
2A4
102
{ACAD_REACTORS
330
287
102
}
330
287
100
AcDbXrecord
280
     1
 91
     1023
301

290
     0
302
EMBMOD-POLYLINE
330
10
 90
        8
 62
     7
370
    -3
331
16
  1
Color_7
330
21
 90
        8
 62
     7
370
    -3
331
16
  1
Color_7
330
2A0
 90
        8
 62
     7
370
    -3
331
16
  1
Color_7
  0
XRECORD
  5
2C3
102
{ACAD_REACTORS
330
287
102
}
330
287
100
AcDbXrecord
280
     1
 91
     1023
301

290
     0
302
EMBMOD-POLYLINE
330
10
 90
        8
 62
     7
370
    -3
331
16
  1
Color_7
330
21
 90
        8
 62
   250
370
    -3
331
16
  1
Color_250
330
2A0
 90
        8
 62
     7
370
    -3
331
16
  1
Color_7
  0
XRECORD
  5
2C6
102
{ACAD_REACTORS
330
287
102
}
330
287
100
AcDbXrecord
280
     1
 91
     1023
301

290
     0
302
EMBMOD-POLYLINE
330
10
 90
        8
 62
     7
370
    -3
331
16
  1
Color_7
330
21
 90
        8
 62
   250
370
    -3
331
16
  1
Color_250
330
2A0
 90
        8
 62
   146
370
    -3
331
16
  1
Color_146
 92
-1040161642
330
2C4
 90
        8
 62
     7
370
    -3
331
16
  1
Color_7
 92
-1023739142
  0
XRECORD
  5
2E1
102
{ACAD_REACTORS
330
287
102
}
330
287
100
AcDbXrecord
280
     1
 91
     1023
301

290
     0
302
EMBMOD-HATCH-BLUE
330
10
 90
        8
 62
     7
370
    -3
331
16
  1
Color_7
330
21
 90
        8
 62
   250
370
    -3
331
16
  1
Color_250
330
2A0
 90
        8
 62
   146
370
    -3
331
16
  1
Color_146
 92
-1040161642
330
2C4
 90
        8
 62
     7
370
    -3
331
16
  1
Color_7
 92
-1023739142
  0
XRECORD
  5
2F3
102
{ACAD_REACTORS
330
287
102
}
330
287
100
AcDbXrecord
280
     1
 91
     1023
301

290
     0
302
EMBMOD-HATCH-WHITE
330
10
 90
        8
 62
     7
370
    -3
331
16
  1
Color_7
330
21
 90
        8
 62
   250
370
    -3
331
16
  1
Color_250
330
2A0
 90
        8
 62
   146
370
    -3
331
16
  1
Color_146
 92
-1040161642
330
2C4
 90
        8
 62
     7
370
    -3
331
16
  1
Color_7
 92
-1023739142
  0
XRECORD
  5
30E
102
{ACAD_REACTORS
330
287
102
}
330
287
100
AcDbXrecord
280
     1
 91
     1023
301

290
     0
302
0
330
10
 90
        8
 62
     7
370
    -3
331
16
  1
Color_7
330
21
 90
        8
 62
   250
370
    -3
331
16
  1
Color_250
330
2A0
 90
        8
 62
   146
370
    -3
331
16
  1
Color_146
330
2C4
 90
        8
 62
     7
370
    -3
331
16
  1
Color_7
  0
ENDSEC
  0
EOF
